G04 DipTrace 2.1.0.5*
%INBottomCopper.gbr*%
%MOIN*%
%ADD10C,0.0098*%
%ADD11C,0.0055*%
%ADD12C,0.003*%
%ADD13C,0.0173*%
%ADD14C,0.04*%
%ADD15C,0.017*%
%ADD16C,0.01*%
%ADD17C,0.013*%
%ADD18C,0.0236*%
%ADD19C,0.015*%
%ADD20C,0.08*%
%ADD21R,0.0709X0.0669*%
%ADD22R,0.06X0.056*%
%ADD23R,0.056X0.06*%
%ADD24R,0.02X0.1181*%
%ADD25R,0.0295X0.1772*%
%ADD26R,0.1181X0.02*%
%ADD27R,0.0512X0.0335*%
%ADD28R,0.0906X0.0906*%
%ADD29R,0.07X0.03*%
%ADD30O,0.07X0.03*%
%ADD31C,0.09*%
%ADD32R,0.0394X0.0984*%
%ADD33C,0.0187*%
%ADD34R,0.0709X0.0197*%
%ADD35R,0.0197X0.0709*%
%ADD36R,0.059X0.059*%
%ADD37C,0.059*%
%ADD38R,0.0961X0.0445*%
%ADD39R,0.06X0.06*%
%ADD40C,0.06*%
%ADD41R,0.118X0.217*%
%ADD42R,0.1024X0.0551*%
%ADD43R,0.032X0.032*%
%ADD44R,0.0512X0.0591*%
%ADD45C,0.065*%
%ADD46C,0.118*%
%ADD47C,0.059*%
%ADD48R,0.0866X0.0236*%
%ADD49R,0.0925X0.0236*%
%ADD50R,0.0768X0.0236*%
%ADD51R,0.0394X0.063*%
%ADD52R,0.2165X0.2126*%
%ADD53R,0.2165X0.0787*%
%ADD54C,0.0866*%
%ADD55R,0.0315X0.0591*%
%ADD56R,0.0315X0.0787*%
%ADD57C,0.03*%
%ADD58C,0.02*%
%ADD59C,0.126*%
%ADD60C,0.118*%
%ADD61C,0.05*%
%ADD62C,0.035*%
%ADD63C,0.063*%
%ADD64C,0.008*%
%ADD65C,0.038*%
%ADD66C,0.022*%
%ADD67C,0.048*%
%ADD68C,0.032*%
%ADD69R,0.0395X0.0868*%
%ADD70R,0.0235X0.0707*%
%ADD71R,0.0395X0.0671*%
%ADD72R,0.0235X0.051*%
%ADD73C,0.0946*%
%ADD74C,0.0786*%
%ADD75R,0.2246X0.0868*%
%ADD76R,0.2085X0.0707*%
%ADD77R,0.2246X0.2206*%
%ADD78R,0.2085X0.2046*%
%ADD79R,0.0474X0.071*%
%ADD80R,0.0313X0.055*%
%ADD81R,0.0848X0.0317*%
%ADD82R,0.0687X0.0156*%
%ADD83R,0.1006X0.0317*%
%ADD84R,0.0845X0.0156*%
%ADD85R,0.0946X0.0317*%
%ADD86R,0.0786X0.0156*%
%ADD87C,0.067*%
%ADD88C,0.051*%
%ADD89C,0.126*%
%ADD90C,0.11*%
%ADD91C,0.073*%
%ADD92C,0.057*%
%ADD93R,0.0592X0.0671*%
%ADD94R,0.0431X0.051*%
%ADD95R,0.04X0.04*%
%ADD96R,0.024X0.024*%
%ADD97R,0.1104X0.0631*%
%ADD98R,0.0943X0.0471*%
%ADD99R,0.126X0.225*%
%ADD100R,0.11X0.209*%
%ADD101C,0.068*%
%ADD102C,0.052*%
%ADD103R,0.068X0.068*%
%ADD104R,0.052X0.052*%
%ADD105R,0.1041X0.0525*%
%ADD106R,0.088X0.0365*%
%ADD107C,0.067*%
%ADD108C,0.051*%
%ADD109R,0.067X0.067*%
%ADD110R,0.051X0.051*%
%ADD111R,0.0277X0.0789*%
%ADD112R,0.0117X0.0628*%
%ADD113R,0.0789X0.0277*%
%ADD114R,0.0628X0.0117*%
%ADD115R,0.0474X0.1065*%
%ADD116R,0.0313X0.0904*%
%ADD117C,0.098*%
%ADD118C,0.082*%
%ADD119O,0.078X0.038*%
%ADD120O,0.062X0.022*%
%ADD121R,0.078X0.038*%
%ADD122R,0.062X0.022*%
%ADD123R,0.0986X0.0986*%
%ADD124R,0.0825X0.0825*%
%ADD125R,0.0592X0.0415*%
%ADD126R,0.0431X0.0254*%
%ADD127R,0.1261X0.028*%
%ADD128R,0.1101X0.012*%
%ADD129R,0.0376X0.1852*%
%ADD130R,0.0215X0.1691*%
%ADD131R,0.028X0.1261*%
%ADD132R,0.012X0.1101*%
%ADD133R,0.064X0.068*%
%ADD134R,0.048X0.052*%
%ADD135R,0.068X0.064*%
%ADD136R,0.052X0.048*%
%ADD137R,0.0789X0.075*%
%ADD138R,0.0628X0.0589*%
%ADD139C,0.0093*%
%ADD140C,0.0154*%
%ADD141C,0.0124*%
%FSLAX44Y44*%
%SFA1B1*%
%OFA0B0*%
G04*
G70*
G90*
G75*
G01*
%LNBottom*%
%LPD*%
X5197Y16377D2*
D13*
X5425Y16605D1*
Y18537D1*
X5678Y18790D1*
X10523D1*
X11503Y17809D1*
X14432D1*
X14685Y17556D1*
Y12244D1*
X10523Y18790D2*
X10776Y19043D1*
Y20815D1*
X14685Y11384D2*
X14742Y11440D1*
X17668D1*
X18295Y10813D1*
X13509Y20315D2*
Y19605D1*
X15052Y18062D1*
Y16682D1*
X17814Y10251D2*
X20578D1*
X20839Y9991D1*
Y4976D1*
X21377Y4438D1*
X14369Y14914D2*
Y16682D1*
X5343Y14501D2*
X5755Y14914D1*
X10316D1*
X15052Y16682D2*
Y14175D1*
X15305Y13922D1*
X17346D1*
X12814Y33003D2*
D14*
Y33504D1*
X13251Y33941D1*
X32691D1*
X38066Y28565D1*
Y22002D1*
X37567Y21503D1*
X37254D1*
X14369Y20782D2*
D13*
X13446D1*
X13192Y20529D1*
Y18126D1*
X21869Y23609D2*
Y23851D1*
X21720Y24000D1*
X16410D1*
X16260Y23850D1*
Y23610D1*
Y20802D1*
X16281Y20782D1*
X13126Y13189D2*
D15*
Y14689D1*
X12251Y15564D1*
X6501D1*
X14254Y22315D2*
D13*
X14028Y22089D1*
X6591D1*
X6337Y21836D1*
Y20842D1*
X6084Y20589D1*
X2597D1*
X1769Y19761D1*
X20124Y8370D2*
X18930Y9564D1*
X18689D1*
X23495Y13814D2*
Y11394D1*
X20307Y14214D2*
X19365D1*
X20940Y15814D2*
Y12870D1*
X20687Y12617D1*
X19048D1*
X20624Y15545D2*
Y13186D1*
X20370Y12933D1*
X18653D1*
X20940Y17502D2*
X19231D1*
X18607Y16877D1*
Y13313D1*
X20307Y16545D2*
Y15869D1*
X19447Y15009D1*
X27969Y7344D2*
X28164D1*
X28320Y7500D1*
Y18843D1*
X27716Y19447D1*
X22439D1*
X22998Y7344D2*
X25632D1*
X16719D2*
X19242D1*
X27652Y12254D2*
X27826D1*
X27960Y12120D1*
Y8100D1*
X27521Y7661D1*
X26746D1*
X22124Y3039D1*
X18613D1*
X17980Y7028D2*
Y2184D1*
X17727Y1931D1*
X9370D1*
X8583Y2717D1*
X1331D1*
X875Y3173D1*
Y15425D1*
X1331Y15881D1*
X6084D1*
X6337Y16134D1*
Y18473D1*
X18744Y32441D2*
D18*
X19224D1*
X20224Y31441D1*
X26940Y12814D2*
D14*
X25090Y10964D1*
X22352D1*
X17627Y31003D2*
X11876D1*
Y33629D1*
X12814Y34566D1*
X33128D1*
X38629Y29066D1*
Y20878D1*
X37254Y19503D1*
X13064Y2500D2*
D15*
Y7188D1*
X12814Y7438D1*
X21377Y5438D2*
D14*
Y9251D1*
X22352Y10226D1*
Y10964D1*
X1875Y9564D2*
X3375D1*
X3938Y9001D1*
Y7251D1*
Y6771D1*
X11179D1*
X13939Y11876D2*
Y17189D1*
X4586Y24431D2*
Y28151D1*
X5251Y28816D1*
X8626D1*
X2125Y5376D2*
X3188D1*
X3938Y6126D1*
Y6771D1*
X13939Y11876D2*
Y11814D1*
X12626D1*
X8626Y7813D1*
X4500D1*
X3938Y7251D1*
X22352Y10964D2*
X21502Y11814D1*
X13939D1*
X8626Y28816D2*
X8688D1*
Y30691D1*
X9001Y31003D1*
X11876D1*
X5172Y21558D2*
D13*
X4187D1*
X1763Y23982D1*
X7492Y15879D2*
Y18473D1*
X19377Y4438D2*
X19839Y4900D1*
Y5963D1*
X19586Y6216D1*
X18925D1*
X18609Y7661D2*
X19429D1*
X19558Y7532D1*
Y7012D1*
X20377Y6193D1*
Y5438D1*
X7872Y19106D2*
X5425D1*
X5172Y18853D1*
Y17350D1*
X4919Y17097D1*
X1077D1*
X563Y16582D1*
Y2979D1*
X1077Y2464D1*
X4823D1*
X5863Y1424D1*
X18044D1*
X18297Y1677D1*
Y6759D1*
X19305D1*
X19558Y7012D1*
X6813Y5813D2*
X5747Y4747D1*
X1837D1*
X1500Y5083D1*
Y6751D1*
X2125Y7376D1*
X6751Y3688D2*
X6107D1*
X5795Y3376D1*
X2125D1*
X28061Y24101D2*
X27409D1*
X12189Y9313D2*
X12876Y8626D1*
X31954Y8225D2*
D20*
X35717D1*
X36004Y7938D1*
X37106D1*
X37118Y7951D1*
X13500Y9120D2*
D13*
X13007D1*
X12564Y9564D1*
X26403Y5863D2*
D20*
X37030D1*
X37118Y5951D1*
X31994Y3500D2*
X35691D1*
X36066Y3875D1*
X37043D1*
X37118Y3951D1*
X9505Y15879D2*
D13*
Y18315D1*
X12102Y24815D2*
Y26735D1*
X5186Y25169D2*
Y22817D1*
X5876Y22127D1*
X12355Y18815D2*
Y20878D1*
X12102Y21132D1*
X8342D1*
X7337Y20127D1*
X5876D1*
X8734Y15914D2*
Y18473D1*
X1875Y13564D2*
X1188Y12876D1*
Y4643D1*
X1584Y4246D1*
X8001D1*
X8818Y5063D1*
X12442Y6527D2*
Y7755D1*
X16841D1*
X17377Y8291D1*
Y11064D1*
X8818Y5063D2*
Y4371D1*
X8942Y4246D1*
X12189D1*
X12442Y4500D1*
Y6527D1*
X12439Y23252D2*
X14634D1*
X14939Y22948D1*
Y19384D1*
X15192Y19130D1*
X27434D1*
X27687Y18877D1*
Y12760D1*
X23613Y8687D1*
X22274D1*
X21839Y8252D1*
Y4229D1*
X21586Y3976D1*
X20839D1*
X20377Y4438D1*
X15997Y12877D2*
X18037D1*
X18290Y13130D1*
Y18124D1*
X18544Y18377D1*
X27370D1*
Y17002D2*
X22411D1*
X22158Y16749D1*
Y12497D1*
X21905Y12244D1*
X16127D1*
X15901Y19447D2*
X15192Y20156D1*
Y23882D1*
X14939Y24135D1*
X10864D1*
X9137Y25861D1*
X6129D1*
X5876Y25608D1*
Y23127D1*
X9390Y27690D2*
Y26115D1*
X9137Y25861D1*
X6876Y22627D2*
X7681D1*
X7938Y22885D1*
X14432D1*
X14685Y22632D1*
Y19700D1*
X14369Y19384D1*
X7938Y22885D2*
Y25545D1*
X9197Y4563D2*
X11292D1*
X11545Y4816D1*
Y9627D1*
X11798Y9880D1*
X15756D1*
X16939Y11064D1*
X13879Y3688D2*
Y2437D1*
X13626Y2184D1*
X11028D1*
X10701Y2510D1*
Y3563D1*
X15432Y17378D2*
Y14745D1*
X15685Y14492D1*
X17029D1*
X1875Y12564D2*
X4164D1*
X5280Y13680D1*
X11310D1*
X12426Y12564D1*
X13190D1*
X13443Y12817D1*
Y17303D1*
X13696Y17556D1*
X14191D1*
X14369Y17378D1*
X10701Y3563D2*
X9986D1*
X9457Y3034D1*
X3254D1*
D57*
X18295Y10813D3*
X14685Y11384D3*
Y12244D3*
X5197Y16377D3*
X10776Y20815D3*
X17346Y13922D3*
X13509Y20315D3*
X17814Y10251D3*
X14369Y16682D3*
X15052D3*
X10316Y14914D3*
X5343Y14501D3*
X14369Y14914D3*
D14*
X12814Y33003D3*
D57*
X13192Y18126D3*
X16281Y20782D3*
X21869Y23609D3*
X16260Y23610D3*
X14369Y20782D3*
X6501Y15564D3*
X13126Y13189D3*
X14254Y22315D3*
X18689Y9564D3*
X20124Y8370D3*
X23495Y11394D3*
Y13814D3*
X20307Y14214D3*
X19365D3*
X19048Y12617D3*
X20940Y15814D3*
X18653Y12933D3*
X20624Y15545D3*
X18607Y13313D3*
X20940Y17502D3*
X19447Y15009D3*
X20307Y16545D3*
X22439Y19447D3*
X27969Y7344D3*
X25632D3*
X22998D3*
X19242D3*
X16719D3*
X18613Y3039D3*
X27652Y12254D3*
X6337Y18473D3*
X17980Y7028D3*
D14*
X11179Y6771D3*
X20224Y31441D3*
X18744Y32441D3*
D57*
X12814Y7438D3*
X13064Y2500D3*
D14*
X26940Y12814D3*
X22352Y10964D3*
X13939Y17189D3*
Y11876D3*
X17627Y31003D3*
X8626Y28816D3*
D57*
X5172Y21558D3*
X7492Y18473D3*
Y15879D3*
X18925Y6216D3*
X18609Y7661D3*
X7872Y19106D3*
X27409Y24101D3*
X28061D3*
X12876Y8626D3*
X12189Y9313D3*
X12564Y9564D3*
X13500Y9120D3*
X9505Y18315D3*
Y15879D3*
X12102Y26735D3*
Y24815D3*
X5186Y25169D3*
X12355Y18815D3*
X8734Y18473D3*
Y15914D3*
X8818Y5063D3*
X17377Y11064D3*
X12442Y6527D3*
X22274Y8687D3*
X12439Y23252D3*
X27370Y18377D3*
X15997Y12877D3*
X16127Y12244D3*
X27370Y17002D3*
X15901Y19447D3*
X9390Y27690D3*
X14369Y19384D3*
X7938Y25545D3*
X16939Y11064D3*
X9197Y4563D3*
X3254Y3034D3*
X17029Y14492D3*
X15432Y17378D3*
X14369D3*
X13879Y3688D3*
X10701Y3563D3*
D31*
X37254Y25503D3*
Y23503D3*
Y21503D3*
Y19503D3*
X2125Y7376D3*
Y5376D3*
Y3376D3*
X37118Y3951D3*
Y5951D3*
Y7951D3*
D36*
X19377Y4438D3*
D37*
Y5438D3*
X20377Y4438D3*
Y5438D3*
X21377Y4438D3*
Y5438D3*
D39*
X6813Y5813D3*
D40*
X7813D3*
D39*
X6751Y3688D3*
D40*
X7751D3*
D45*
X27191Y3500D3*
Y8225D3*
D46*
X31994Y3500D3*
X31954Y8225D3*
X26403Y5863D3*
D31*
X2000Y31566D3*
Y29566D3*
Y27566D3*
D47*
X1875Y14564D3*
Y13564D3*
Y12564D3*
Y11564D3*
Y10564D3*
Y9564D3*
X5876Y23127D3*
X6876Y22627D3*
X5876Y22127D3*
X6876Y21627D3*
X5876Y21127D3*
X6876Y20627D3*
X5876Y20127D3*
X6876Y19627D3*
X1763Y23982D3*
X1769Y22982D3*
Y19761D3*
X1750Y18753D3*
D54*
X4586Y24431D3*
X4572Y18318D3*
M02*
