M48
INCH
T01C0.02
T02C0.035
T03C0.04
T04C0.05
T05C0.063
T06C0.118
T07C0.126
%
T01
X+018295Y+010813
X+017814Y+010251
X+017377Y+011064
X+016939Y+011064
X+016127Y+012244
X+015997Y+012877
X+014685Y+012244
X+013939Y+011876
X+014685Y+011384
X+013126Y+013189
X+014369Y+014914
X+014369Y+016682
X+013939Y+017189
X+014369Y+017378
X+015052Y+016682
X+015432Y+017378
X+015901Y+019447
X+016281Y+020782
X+014369Y+020782
X+013509Y+020315
X+014369Y+019384
X+013192Y+018126
X+012355Y+018815
X+010776Y+020815
X+009505Y+018315
X+008734Y+018473
X+007872Y+019106
X+007492Y+018473
X+006337Y+018473
X+005197Y+016377
X+006501Y+015564
X+007492Y+015879
X+008734Y+015914
X+009505Y+015879
X+010316Y+014914
X+005343Y+014501
X+005172Y+021558
X+005186Y+025169
X+007938Y+025545
X+009390Y+027690
X+008626Y+028816
X+012102Y+026735
X+012102Y+024815
X+012439Y+023252
X+014254Y+022315
X+016260Y+023610
X+021869Y+023609
X+022439Y+019447
X+020940Y+017502
X+020307Y+016545
X+020940Y+015814
X+020624Y+015545
X+019447Y+015009
X+019365Y+014214
X+020307Y+014214
X+018607Y+013313
X+018653Y+012933
X+019048Y+012617
X+017346Y+013922
X+017029Y+014492
X+018689Y+009564
X+020124Y+008370
X+019242Y+007344
X+018609Y+007661
X+017980Y+007028
X+018925Y+006216
X+016719Y+007344
X+013500Y+009120
X+012876Y+008626
X+012189Y+009313
X+012564Y+009564
X+012814Y+007438
X+012442Y+006527
X+011179Y+006771
X+008818Y+005063
X+009197Y+004563
X+010701Y+003563
X+013064Y+002500
X+013879Y+003688
X+018613Y+003039
X+022998Y+007344
X+022274Y+008687
X+022352Y+010964
X+023495Y+011394
X+023495Y+013814
X+026940Y+012814
X+027652Y+012254
X+027370Y+017002
X+027370Y+018377
X+027409Y+024101
X+028061Y+024101
X+020224Y+031441
X+018744Y+032441
X+017627Y+031003
X+012814Y+033003
X+025632Y+007344
X+027969Y+007344
X+003254Y+003034
T02
X+019377Y+004438
X+019377Y+005438
X+020377Y+005438
X+020377Y+004438
X+021377Y+004438
X+021377Y+005438
X+007813Y+005813
X+006813Y+005813
X+006751Y+003688
X+007751Y+003688
X+001875Y+009564
X+001875Y+010564
X+001875Y+011564
X+001875Y+012564
X+001875Y+013564
X+001875Y+014564
X+001750Y+018753
X+001769Y+019761
X+001769Y+022982
X+001763Y+023982
X+005876Y+023127
X+005876Y+022127
X+005876Y+021127
X+005876Y+020127
X+006876Y+020627
X+006876Y+021627
X+006876Y+022627
X+006876Y+019627
T03
X+027191Y+003500
X+027191Y+008225
T04
X+037254Y+025503
X+037254Y+023503
X+037254Y+021503
X+037254Y+019503
X+037118Y+007951
X+037118Y+005951
X+037118Y+003951
X+031994Y+003500
X+031954Y+008225
X+026403Y+005863
X+002125Y+005376
X+002125Y+003376
X+002125Y+007376
X+002000Y+027566
X+002000Y+029566
X+002000Y+031566
T05
X+004586Y+024431
X+004572Y+018318
T06
X+001313Y+001313
X+001310Y+034070
X+038004Y+034066
X+038000Y+001310
T07
X+003376Y+023627
X+003376Y+019127
T00
M30
