G04 DipTrace 2.1.0.5*
%INTopCopper.gbr*%
%MOIN*%
%ADD10C,0.0098*%
%ADD11C,0.0055*%
%ADD12C,0.003*%
%ADD13C,0.0173*%
%ADD14C,0.04*%
%ADD15C,0.017*%
%ADD16C,0.01*%
%ADD17C,0.013*%
%ADD18C,0.0236*%
%ADD19C,0.015*%
%ADD20C,0.08*%
%ADD21R,0.0709X0.0669*%
%ADD22R,0.06X0.056*%
%ADD23R,0.056X0.06*%
%ADD24R,0.02X0.1181*%
%ADD25R,0.0295X0.1772*%
%ADD26R,0.1181X0.02*%
%ADD27R,0.0512X0.0335*%
%ADD28R,0.0906X0.0906*%
%ADD29R,0.07X0.03*%
%ADD30O,0.07X0.03*%
%ADD31C,0.09*%
%ADD32R,0.0394X0.0984*%
%ADD33C,0.0187*%
%ADD34R,0.0709X0.0197*%
%ADD35R,0.0197X0.0709*%
%ADD36R,0.059X0.059*%
%ADD37C,0.059*%
%ADD38R,0.0961X0.0445*%
%ADD39R,0.06X0.06*%
%ADD40C,0.06*%
%ADD41R,0.118X0.217*%
%ADD42R,0.1024X0.0551*%
%ADD43R,0.032X0.032*%
%ADD44R,0.0512X0.0591*%
%ADD45C,0.065*%
%ADD46C,0.118*%
%ADD47C,0.059*%
%ADD48R,0.0866X0.0236*%
%ADD49R,0.0925X0.0236*%
%ADD50R,0.0768X0.0236*%
%ADD51R,0.0394X0.063*%
%ADD52R,0.2165X0.2126*%
%ADD53R,0.2165X0.0787*%
%ADD54C,0.0866*%
%ADD55R,0.0315X0.0591*%
%ADD56R,0.0315X0.0787*%
%ADD57C,0.03*%
%ADD58C,0.02*%
%ADD59C,0.126*%
%ADD60C,0.118*%
%ADD61C,0.05*%
%ADD62C,0.035*%
%ADD63C,0.063*%
%ADD64C,0.008*%
%ADD65C,0.038*%
%ADD66C,0.022*%
%ADD67C,0.048*%
%ADD68C,0.032*%
%ADD69R,0.0395X0.0868*%
%ADD70R,0.0235X0.0707*%
%ADD71R,0.0395X0.0671*%
%ADD72R,0.0235X0.051*%
%ADD73C,0.0946*%
%ADD74C,0.0786*%
%ADD75R,0.2246X0.0868*%
%ADD76R,0.2085X0.0707*%
%ADD77R,0.2246X0.2206*%
%ADD78R,0.2085X0.2046*%
%ADD79R,0.0474X0.071*%
%ADD80R,0.0313X0.055*%
%ADD81R,0.0848X0.0317*%
%ADD82R,0.0687X0.0156*%
%ADD83R,0.1006X0.0317*%
%ADD84R,0.0845X0.0156*%
%ADD85R,0.0946X0.0317*%
%ADD86R,0.0786X0.0156*%
%ADD87C,0.067*%
%ADD88C,0.051*%
%ADD89C,0.126*%
%ADD90C,0.11*%
%ADD91C,0.073*%
%ADD92C,0.057*%
%ADD93R,0.0592X0.0671*%
%ADD94R,0.0431X0.051*%
%ADD95R,0.04X0.04*%
%ADD96R,0.024X0.024*%
%ADD97R,0.1104X0.0631*%
%ADD98R,0.0943X0.0471*%
%ADD99R,0.126X0.225*%
%ADD100R,0.11X0.209*%
%ADD101C,0.068*%
%ADD102C,0.052*%
%ADD103R,0.068X0.068*%
%ADD104R,0.052X0.052*%
%ADD105R,0.1041X0.0525*%
%ADD106R,0.088X0.0365*%
%ADD107C,0.067*%
%ADD108C,0.051*%
%ADD109R,0.067X0.067*%
%ADD110R,0.051X0.051*%
%ADD111R,0.0277X0.0789*%
%ADD112R,0.0117X0.0628*%
%ADD113R,0.0789X0.0277*%
%ADD114R,0.0628X0.0117*%
%ADD115R,0.0474X0.1065*%
%ADD116R,0.0313X0.0904*%
%ADD117C,0.098*%
%ADD118C,0.082*%
%ADD119O,0.078X0.038*%
%ADD120O,0.062X0.022*%
%ADD121R,0.078X0.038*%
%ADD122R,0.062X0.022*%
%ADD123R,0.0986X0.0986*%
%ADD124R,0.0825X0.0825*%
%ADD125R,0.0592X0.0415*%
%ADD126R,0.0431X0.0254*%
%ADD127R,0.1261X0.028*%
%ADD128R,0.1101X0.012*%
%ADD129R,0.0376X0.1852*%
%ADD130R,0.0215X0.1691*%
%ADD131R,0.028X0.1261*%
%ADD132R,0.012X0.1101*%
%ADD133R,0.064X0.068*%
%ADD134R,0.048X0.052*%
%ADD135R,0.068X0.064*%
%ADD136R,0.052X0.048*%
%ADD137R,0.0789X0.075*%
%ADD138R,0.0628X0.0589*%
%ADD139C,0.0093*%
%ADD140C,0.0154*%
%ADD141C,0.0124*%
%FSLAX44Y44*%
%SFA1B1*%
%OFA0B0*%
G04*
G70*
G90*
G75*
G01*
%LNTop*%
%LPD*%
X18295Y10813D2*
D13*
Y8647D1*
X14685Y12244D2*
Y11384D1*
X5750Y16377D2*
X5197D1*
X11439Y20815D2*
X10776D1*
X14439Y15439D2*
Y15064D1*
X14369Y14994D1*
Y14914D1*
X17814Y10251D2*
Y11286D1*
X17659Y11441D1*
Y12032D1*
X11439Y20315D2*
X13509D1*
X15052Y16682D2*
X14369D1*
Y14914D2*
X12213D1*
X11959Y15167D1*
X11625Y15502D1*
X10751D1*
X6126Y14501D2*
X5343D1*
X11959Y15167D2*
X11706Y14914D1*
X10316D1*
X17659Y12032D2*
Y13609D1*
X17346Y13922D1*
X16377Y28941D2*
D14*
X16314Y29003D1*
Y29941D1*
X16127Y30128D1*
X15314D1*
X14564Y30878D1*
Y33629D1*
X14314Y33879D1*
X13689D1*
Y31753D2*
Y33879D1*
X12814D1*
X11626D1*
X9564D1*
Y31753D1*
X11626Y33879D2*
Y31753D1*
X9564Y33879D2*
X8251D1*
X7751Y33379D1*
Y29128D1*
X7188Y28565D1*
X6438D1*
X16314Y29941D2*
X16219Y30191D1*
X18064D1*
X18314Y30441D1*
Y31566D1*
X18690Y31941D1*
X19561D1*
X12814Y33003D2*
Y33879D1*
X13192Y18126D2*
D13*
X12703Y17636D1*
X9188D1*
Y17189D1*
X9814Y26753D2*
Y25733D1*
X10067Y25480D1*
X10387Y25800D1*
X14132D1*
Y25018D1*
X14335Y24815D1*
X15238D1*
Y23315D2*
X15725D1*
X15838Y23428D1*
Y25214D1*
X16252Y25628D1*
X16079Y25800D1*
X14132D1*
X23565Y24128D2*
X22767D1*
X22399Y23759D1*
Y23127D1*
X15238Y18315D2*
X15874D1*
X16281Y18722D1*
Y20782D1*
X10067Y25480D2*
X9815Y25228D1*
X7112D1*
X7023Y25317D1*
Y25690D1*
X16252Y25628D2*
X17002Y26378D1*
X17439D1*
X15874Y18315D2*
X16127Y18062D1*
Y17127D1*
X22399Y23127D2*
X21993D1*
X21869Y23251D1*
Y23609D1*
X15238Y20315D2*
X14455D1*
X14369Y20401D1*
Y20782D1*
X16281D2*
X15838Y20338D1*
Y20315D1*
X15238D1*
X17439Y26378D2*
Y25436D1*
X16260Y24257D1*
Y23610D1*
X16281Y20782D2*
X16247Y20815D1*
X15238D1*
X12251Y8626D2*
D15*
X10939D1*
X10814Y8501D1*
Y7438D1*
Y6376D1*
X11064Y6126D1*
X13314D1*
X13564Y5876D1*
Y5313D1*
X10939Y8626D2*
D14*
X12251D1*
X13251Y9626D1*
Y9876D1*
X13001Y10126D1*
Y12189D1*
X13564Y12751D1*
D15*
X13126Y13189D1*
X20627Y23127D2*
D14*
X21502Y22252D1*
X24378D1*
X25315Y23190D1*
Y26065D1*
X26253Y27003D1*
X31399D1*
X32524D1*
Y25682D1*
X35004Y33441D2*
Y34441D1*
X34691Y34754D1*
X32878D1*
X30566D1*
X28065D1*
X27065D1*
D16*
X27003Y34816D1*
X15502D1*
X15064Y34379D1*
Y33191D1*
X15252Y32941D1*
X15939D1*
X31399Y25682D2*
D14*
Y27003D1*
X32878Y33441D2*
Y34754D1*
X30566Y33441D2*
Y34754D1*
X28065Y33441D2*
Y34754D1*
X6501Y15564D2*
D15*
X6499Y16377D1*
X16127Y9864D2*
X16139Y9876D1*
X15189D1*
X15064Y10001D1*
X14689D1*
X13939D1*
X12698Y5063D2*
X13314D1*
X13564Y5313D1*
X24054Y8889D2*
X23490D1*
D14*
X23065Y9313D1*
Y10064D1*
Y11751D1*
D15*
X23127Y11939D1*
X31003D1*
X33046Y13982D1*
Y17064D1*
X15187Y15439D2*
D14*
X19877D1*
Y13501D1*
X21127Y12251D1*
X22565D1*
X23065Y11751D1*
X34691Y34754D2*
X36004D1*
X36504Y34254D1*
Y30441D1*
X35879Y29816D1*
X34254D1*
X27065Y34754D2*
X26565Y34254D1*
Y32441D1*
X26128Y32003D1*
X25415D1*
X13939Y10001D2*
X13876Y9939D1*
X13189D1*
D15*
X13251Y9876D1*
Y9626D1*
X12251Y8626D1*
X14689Y10001D2*
Y10314D1*
X14869Y10494D1*
X16127D1*
X17751Y3688D2*
Y5064D1*
X13564Y5313D2*
Y1938D1*
X17314D1*
X17751Y2374D1*
Y3688D1*
X33046Y17064D2*
Y18314D1*
X23065Y10064D2*
D14*
X21502D1*
X19877Y15439D2*
Y21377D1*
X20752Y22252D1*
X21502D1*
X32524Y25682D2*
D15*
Y24857D1*
X32816Y24565D1*
X33566D1*
X33754Y24378D1*
Y24003D1*
X33504Y23752D1*
X32710D1*
X21502Y10064D2*
X21252D1*
X20744Y9555D1*
X19513D1*
X34254Y29816D2*
D14*
Y27565D1*
X33691Y27003D1*
X32524D1*
X13564Y12751D2*
X15187Y14374D1*
Y15439D1*
X13564Y1938D2*
D15*
X12689Y1063D1*
X11314D1*
X10939Y1438D1*
Y2000D1*
X31399Y27003D2*
D14*
D3*
X32878Y34754D2*
D3*
X30566D2*
D3*
X28065D2*
D3*
X14254Y22315D2*
D13*
Y23562D1*
X14507Y23815D1*
X15238D1*
X18689Y9564D2*
Y10939D1*
X18881Y11130D1*
X19513D1*
X23495Y11394D2*
X24510Y10378D1*
D17*
Y8670D1*
X24309Y8469D1*
X22937D1*
D13*
X22838Y8370D1*
X20124D1*
X21679Y13814D2*
X23495D1*
X20307Y14214D2*
X20907Y14814D1*
X21679D1*
X19365Y14214D2*
Y12945D1*
X20033Y12277D1*
Y11543D1*
X19935Y11445D1*
X19513D1*
X21679Y15814D2*
X20940D1*
X19048Y12617D2*
Y12596D1*
X18919Y12467D1*
Y12032D1*
X20624Y15545D2*
Y16561D1*
X20877Y16814D1*
X21679D1*
X18653Y12933D2*
X18604Y12884D1*
Y12032D1*
X18607Y13313D2*
X18439D1*
X18289Y13163D1*
Y12032D1*
X20940Y17502D2*
Y17730D1*
X21024Y17814D1*
X21679D1*
X19447Y15009D2*
X17974Y13536D1*
Y12032D1*
X20307Y16545D2*
Y18561D1*
X20560Y18814D1*
X21679D1*
X22439Y19447D2*
Y19664D1*
X22289Y19814D1*
X21679D1*
X25632Y7344D2*
X27969D1*
X19242D2*
X22998D1*
X16719D2*
X16720Y8647D1*
X18613Y3039D2*
Y5272D1*
X18360Y5525D1*
X17289D1*
X17035Y5779D1*
Y8647D1*
X27652Y12254D2*
X24065D1*
X23811Y12507D1*
Y20561D1*
X23558Y20814D1*
X21679D1*
X6337Y18473D2*
Y23062D1*
X6591Y23315D1*
X11439D1*
X17980Y7028D2*
Y8647D1*
X12814Y7438D2*
D15*
X11714D1*
X35004Y31473D2*
D14*
Y30816D1*
X34798Y30610D1*
X33253D1*
Y29916D1*
X33354Y29816D1*
X15939Y33941D2*
X17127D1*
Y33441D1*
Y32441D1*
X18744D1*
X15939D2*
X17127D1*
X11839Y2000D2*
D15*
X12439D1*
X12698Y2259D1*
Y2500D1*
X13064D1*
X5663Y17189D2*
X4813D1*
X4563Y17439D1*
Y18309D1*
X4572Y18318D1*
X10088Y17189D2*
D14*
X10151Y17127D1*
X11393D1*
X12081Y16439D1*
X12268Y16252D1*
X13939D1*
Y17189D1*
X33354Y29816D2*
X33316Y29778D1*
Y28628D1*
X32566Y27878D1*
X30566D1*
X15477Y28941D2*
X15352Y28816D1*
X13689D1*
X11626D1*
X15238Y19815D2*
D15*
X13939D1*
D14*
Y21315D1*
Y21502D1*
D15*
Y22940D1*
X12564Y24315D1*
X11439D1*
X12698Y2500D2*
Y3563D1*
X26899Y19619D2*
D14*
X26940Y19577D1*
Y13814D1*
X25065D1*
X13939Y21315D2*
D15*
X15238D1*
X13939Y21502D2*
X14252Y21815D1*
X15238D1*
X21377Y5438D2*
D14*
X22815Y4000D1*
Y3250D1*
X23039Y3026D1*
X23992D1*
X9756Y9878D2*
D15*
Y9256D1*
X9564Y9063D1*
X8126D1*
X7688Y8626D1*
X6876D1*
X6563Y8313D1*
Y7251D1*
X12081Y16439D2*
D14*
X9999D1*
X4572Y18318D2*
D15*
X3693Y17439D1*
X2561D1*
X19513Y10500D2*
X20189D1*
X20565Y10876D1*
X21415D1*
X21502Y10964D1*
X11626Y29785D2*
D14*
Y28816D1*
X11314D1*
X9564D1*
Y29785D1*
X18339Y26378D2*
Y26915D1*
X18189Y27065D1*
X14970D1*
X28065Y31079D2*
Y27878D1*
X30566D1*
X33253Y30610D2*
X32878Y30985D1*
Y31473D1*
X15939Y33441D2*
X17127D1*
Y33941D2*
X19561D1*
X15939Y31441D2*
X17127D1*
X16627Y30941D1*
X15939D1*
X9564Y28816D2*
X8626D1*
X2000Y27566D2*
X2376D1*
X3188Y28378D1*
X4375D1*
X4500Y28503D1*
X11714Y7438D2*
Y6921D1*
X11564Y6771D1*
X11179D1*
X19561Y31441D2*
D18*
X20224D1*
X19561Y30941D2*
D14*
Y31441D1*
X18168Y29066D2*
X19561Y30459D1*
Y30941D1*
X30566Y31079D2*
Y27878D1*
X18744Y32441D2*
X19561D1*
X6563Y7251D2*
X6251D1*
X4376Y5376D1*
X2125D1*
X8126Y9063D2*
D15*
X8118Y9940D1*
X32710Y23252D2*
X33691D1*
X34191Y23752D1*
Y25440D1*
X33949Y25682D1*
X33424D1*
X30499D2*
X30441Y25624D1*
Y24503D1*
X31691Y23252D1*
X32710D1*
X29424Y25682D2*
X30499D1*
X25065Y20814D2*
Y21565D1*
X25940Y22440D1*
Y25753D1*
X26565Y26378D1*
X29253D1*
X29424Y26207D1*
Y25682D1*
X25065Y19814D2*
D14*
Y20814D1*
Y18814D2*
Y19814D1*
Y17814D2*
Y18814D1*
Y16814D2*
Y17814D1*
Y15814D2*
Y16814D1*
Y14814D2*
Y15814D1*
Y13814D2*
Y14814D1*
X26940Y12814D2*
Y13814D1*
X13939Y17189D2*
Y19815D1*
Y16252D2*
X16627D1*
X17027Y16652D1*
Y17127D1*
X6626Y2313D2*
X6188D1*
X4438Y4063D1*
Y5376D1*
X4376D1*
X4586Y24431D2*
X4500Y24516D1*
Y25190D1*
D15*
X2498D1*
X4572Y18318D2*
D14*
X4586Y18332D1*
Y24431D1*
X13689Y28816D2*
Y29785D1*
X21513Y26041D2*
Y27878D1*
X18339Y26378D2*
X18402Y26315D1*
X19377D1*
X19651Y26041D1*
X21513D1*
X18339Y24315D2*
Y26378D1*
X18402Y20690D2*
X19065D1*
X19252Y20877D1*
Y24315D1*
X18339D1*
X17027Y17127D2*
X18252D1*
X18402Y17277D1*
Y20690D1*
X9999Y16439D2*
D15*
Y14566D1*
X10481Y14084D1*
X10751D1*
X21502Y10964D2*
D14*
X22352D1*
X16127Y10809D2*
D15*
X16757D1*
X16877Y10689D1*
Y10314D1*
X16742Y10179D1*
X16127D1*
X13939Y10901D2*
X15164D1*
X15256Y10809D1*
X16127D1*
X13939Y11876D2*
D14*
Y10901D1*
X8626Y28816D2*
D19*
X8126D1*
X7913Y28603D1*
Y27690D1*
X4586Y24431D2*
X4596Y24440D1*
X6063D1*
X6551Y24928D1*
Y25690D1*
X4500Y28503D2*
D14*
Y25190D1*
X15939Y31941D2*
X17127D1*
Y32441D1*
Y33441D2*
X19561D1*
X28065Y27878D2*
X23565D1*
X21513D1*
X23565D2*
Y25028D1*
X17127Y31941D2*
Y31441D1*
X11314Y28816D2*
D19*
Y26815D1*
X11251Y26753D1*
X10714D1*
X13939Y19815D2*
D15*
X11439D1*
X17127Y31441D2*
D14*
X17627D1*
Y31003D1*
X4376Y5376D2*
D3*
X21513Y27878D2*
X18689D1*
X18168Y28399D1*
Y29066D1*
X5172Y21558D2*
D13*
Y23336D1*
X5425Y23589D1*
X8777D1*
X10320Y25132D1*
X13107D1*
X13923Y24315D1*
X15238D1*
X7492Y18473D2*
Y22062D1*
X7745Y22315D1*
X11439D1*
X19377Y4438D2*
Y1064D1*
X19124Y811D1*
X3564D1*
X907Y3468D1*
Y13773D1*
X1160Y14026D1*
X7576D1*
X7830Y14280D1*
Y15720D1*
X7671Y15879D1*
X7492D1*
X18925Y6216D2*
Y8647D1*
X7872Y19106D2*
Y21562D1*
X8125Y21815D1*
X11439D1*
X18609Y7661D2*
X18610Y8647D1*
X24677Y6076D2*
Y4511D1*
X23992Y3826D1*
X6813Y5813D2*
X7280Y6280D1*
X7364D1*
X8335Y7251D1*
X9306Y6280D1*
X9693D1*
X11410Y4563D1*
X12698D1*
X6751Y3688D2*
X7420Y3019D1*
X7691D1*
X8397Y2313D1*
X9103Y3019D1*
X10850D1*
X11894Y4063D1*
X12698D1*
X28753Y23252D2*
X27978D1*
X27725Y23506D1*
Y25429D1*
X27978Y25682D1*
X28524D1*
X27409Y24101D2*
Y24461D1*
X27313Y24557D1*
X26899D1*
X28061Y24101D2*
Y23902D1*
X28211Y23752D1*
X28753D1*
Y22752D2*
X27627D1*
X27345Y23034D1*
Y23535D1*
X27223Y23657D1*
X26899D1*
X28753Y22252D2*
X27649D1*
X27345Y22557D1*
X26899D1*
X28753Y21752D2*
X27646D1*
X27551Y21657D1*
X26899D1*
X28753Y21252D2*
X28105D1*
X27851Y20999D1*
Y20772D1*
X27598Y20519D1*
X26899D1*
X12876Y8626D2*
X14814D1*
X15439Y9251D1*
X16110D1*
X16127Y9234D1*
X10656Y9878D2*
Y11979D1*
X10866Y12189D1*
X12126D1*
X12189Y12126D1*
Y9313D1*
X7218Y9940D2*
Y12096D1*
X7126Y12189D1*
X13500Y9120D2*
X13619Y9001D1*
X14752D1*
X15300Y9549D1*
X16127D1*
X7126Y12189D2*
X5876D1*
X5626Y12439D1*
Y12939D1*
X6126Y13439D1*
X12251D1*
X12564Y13126D1*
Y9564D1*
X24862Y3426D2*
X24874Y3438D1*
X25378D1*
X25315D1*
Y7001D1*
X24815Y7501D1*
X23440D1*
X23315Y7626D1*
Y7938D1*
X23517Y8141D1*
X24054D1*
X25378Y3438D2*
X25440Y3500D1*
X27191D1*
X23929Y6076D2*
X23403D1*
X23227Y5900D1*
X17603D1*
X17350Y6153D1*
Y8647D1*
X1875Y14564D2*
X2337Y15026D1*
X6904D1*
X7026Y14904D1*
Y14501D1*
X24920Y8515D2*
X25989D1*
X26253Y8251D1*
X27164D1*
X27191Y8225D1*
X7751Y3688D2*
Y4154D1*
X7624Y4281D1*
Y4750D1*
X7813Y5813D2*
X7212Y5212D1*
X6982D1*
X6876Y5106D1*
Y4750D1*
X17003Y5064D2*
X16560D1*
X16559Y5062D1*
X16046D1*
X17003Y3688D2*
X16560D1*
X16559D1*
X16046D1*
X32298Y17064D2*
X31748D1*
X31686Y17002D1*
X31173D1*
X32298Y18314D2*
Y18377D1*
X31173D1*
X2000Y31566D2*
D14*
X3438Y33003D1*
Y33504D1*
X3750Y33816D1*
X4188D1*
X4250Y33879D1*
X5432D2*
X6001D1*
X6251Y33629D1*
Y33066D1*
X5813Y32628D1*
X4876D1*
X4500Y32253D1*
Y30275D1*
X6376D1*
X6438Y30337D1*
X17712Y21644D2*
D13*
X17502Y21435D1*
Y20690D1*
X15238Y22315D2*
X16251D1*
X16922Y21644D1*
X17712D1*
Y23337D2*
X17439Y23610D1*
Y24315D1*
X15238Y22815D2*
X16127D1*
X16649Y23337D1*
X17712D1*
X11439Y18315D2*
X9505D1*
Y15879D2*
X9401D1*
X9251Y16029D1*
Y16439D1*
X12102Y26735D2*
Y26915D1*
X12252Y27065D1*
X13001D1*
X11439Y24815D2*
X12102D1*
X5186Y25169D2*
X5999D1*
X6078Y25248D1*
Y25690D1*
X8813Y27690D2*
Y28163D1*
X8970Y28320D1*
X10470D1*
X10624Y28166D1*
Y27690D1*
X8686Y26690D2*
X8813D1*
Y27690D1*
X6078Y25690D2*
Y26899D1*
X6359Y27180D1*
X8580D1*
X8686Y27074D1*
Y26690D1*
X19940Y29066D2*
D14*
X20502D1*
X21315Y29878D1*
Y31941D1*
X21377Y32003D1*
X20440Y32941D1*
X19561D1*
X1769Y22982D2*
D13*
X1048Y23703D1*
Y24937D1*
X1302Y25190D1*
X1750D1*
Y18753D2*
X1813Y18690D1*
Y17439D1*
X6563Y17189D2*
X7563D1*
Y16439D1*
X37254Y25503D2*
X38074Y24683D1*
Y22506D1*
X37820Y22252D1*
X32710D1*
X37254Y23503D2*
X36504Y22752D1*
X32710D1*
X8734Y18473D2*
X9076Y18815D1*
X11439D1*
X8734Y15914D2*
Y16346D1*
X8641Y16439D1*
X8311D1*
X11439Y18815D2*
X12355D1*
X6876Y19627D2*
Y18157D1*
X7129Y17904D1*
X8125D1*
X8378Y18157D1*
Y19062D1*
X8632Y19315D1*
X11439D1*
X8125Y17904D2*
Y17651D1*
X8311D1*
Y17189D1*
X8818Y5063D2*
X10001D1*
X17377Y11064D2*
X17344Y11031D1*
Y12032D1*
X12442Y6527D2*
X13562D1*
X13815Y6274D1*
Y5316D1*
X14069Y5062D1*
X14627D1*
X22274Y8687D2*
X21720Y9240D1*
X19513D1*
X12439Y23252D2*
Y21502D1*
X12252Y21315D1*
X11439D1*
X29753Y18377D2*
X27370D1*
X15997Y12877D2*
X15503Y12383D1*
Y11287D1*
X15666Y11124D1*
X16127D1*
X27370Y18377D2*
X28195Y19202D1*
X29129D1*
X29790Y19863D1*
Y21450D1*
X30092Y21752D1*
X32710D1*
X16127Y12244D2*
Y11439D1*
X29753Y17002D2*
X30253D1*
X30378Y17127D1*
Y21108D1*
X30523Y21252D1*
X32710D1*
X27370Y17002D2*
X29753D1*
X9876Y27690D2*
X9390D1*
X15901Y19447D2*
X15883D1*
X15751Y19315D1*
X15238D1*
X14369Y19384D2*
Y18901D1*
X14455Y18815D1*
X15238D1*
X7938Y26690D2*
Y25545D1*
X10001Y4563D2*
X9197D1*
X16939Y11064D2*
Y11401D1*
X16689Y11501D1*
X16714Y12032D1*
X9197Y4563D2*
Y4153D1*
X9287Y4063D1*
X10001D1*
X1875Y12564D2*
X1160Y11849D1*
Y5153D1*
X1750Y4563D1*
X2875D1*
X3254Y4185D1*
Y3034D1*
X17029Y14492D2*
Y12032D1*
X14369Y17378D2*
X15432D1*
X14627Y3688D2*
X13879D1*
X10701Y3563D2*
X10001D1*
D57*
X18295Y10813D3*
X14685Y11384D3*
Y12244D3*
X5197Y16377D3*
X10776Y20815D3*
X17346Y13922D3*
X13509Y20315D3*
X17814Y10251D3*
X14369Y16682D3*
X15052D3*
X10316Y14914D3*
X5343Y14501D3*
X14369Y14914D3*
D14*
X12814Y33003D3*
D57*
X13192Y18126D3*
X16281Y20782D3*
X21869Y23609D3*
X16260Y23610D3*
X14369Y20782D3*
X6501Y15564D3*
X13126Y13189D3*
X14254Y22315D3*
X18689Y9564D3*
X20124Y8370D3*
X23495Y11394D3*
Y13814D3*
X20307Y14214D3*
X19365D3*
X19048Y12617D3*
X20940Y15814D3*
X18653Y12933D3*
X20624Y15545D3*
X18607Y13313D3*
X20940Y17502D3*
X19447Y15009D3*
X20307Y16545D3*
X22439Y19447D3*
X27969Y7344D3*
X25632D3*
X22998D3*
X19242D3*
X16719D3*
X18613Y3039D3*
X27652Y12254D3*
X6337Y18473D3*
X17980Y7028D3*
D14*
X11179Y6771D3*
X20224Y31441D3*
X18744Y32441D3*
D57*
X12814Y7438D3*
X13064Y2500D3*
D14*
X26940Y12814D3*
X22352Y10964D3*
X13939Y17189D3*
Y11876D3*
X17627Y31003D3*
X8626Y28816D3*
D57*
X5172Y21558D3*
X7492Y18473D3*
Y15879D3*
X18925Y6216D3*
X18609Y7661D3*
X7872Y19106D3*
X27409Y24101D3*
X28061D3*
X12876Y8626D3*
X12189Y9313D3*
X12564Y9564D3*
X13500Y9120D3*
X9505Y18315D3*
Y15879D3*
X12102Y26735D3*
Y24815D3*
X5186Y25169D3*
X12355Y18815D3*
X8734Y18473D3*
Y15914D3*
X8818Y5063D3*
X17377Y11064D3*
X12442Y6527D3*
X22274Y8687D3*
X12439Y23252D3*
X27370Y18377D3*
X15997Y12877D3*
X16127Y12244D3*
X27370Y17002D3*
X15901Y19447D3*
X9390Y27690D3*
X14369Y19384D3*
X7938Y25545D3*
X16939Y11064D3*
X9197Y4563D3*
X3254Y3034D3*
X17029Y14492D3*
X15432Y17378D3*
X14369D3*
X13879Y3688D3*
X10701Y3563D3*
D21*
X17712Y21644D3*
Y23337D3*
D22*
X10939Y2000D3*
X11839D3*
X32524Y25682D3*
X33424D3*
D23*
X13939Y10001D3*
Y10901D3*
D22*
X7218Y9940D3*
X8118D3*
X31399Y25682D3*
X30499D3*
D23*
X26899Y24557D3*
Y23657D3*
Y22557D3*
Y21657D3*
Y19619D3*
Y20519D3*
D22*
X28524Y25682D3*
X29424D3*
D23*
X21502Y10064D3*
Y10964D3*
D22*
X6126Y14501D3*
X7026D3*
X10814Y7438D3*
X11714D3*
D24*
X13689Y31753D3*
Y29785D3*
D22*
X16377Y28941D3*
X15477D3*
D25*
X28065Y33441D3*
Y31079D3*
D22*
X34254Y29816D3*
X33354D3*
X10656Y9878D3*
X9756D3*
D25*
X30566Y33441D3*
Y31079D3*
D24*
X32878Y33441D3*
Y31473D3*
X11626Y31753D3*
Y29785D3*
X9564Y31753D3*
Y29785D3*
X35004Y33441D3*
Y31473D3*
D22*
X17502Y20690D3*
X18402D3*
X17439Y24315D3*
X18339D3*
X9814Y26753D3*
X10714D3*
X9188Y17189D3*
X10088D3*
X16127Y17127D3*
X17027D3*
X17439Y26378D3*
X18339D3*
D26*
X13001Y27065D3*
X14970D3*
D23*
X23565Y24128D3*
Y25028D3*
D27*
X24054Y8889D3*
Y8141D3*
X24920Y8515D3*
D28*
X6438Y28565D3*
Y30337D3*
D29*
X29753Y18377D3*
D30*
X31173D3*
D29*
X29753Y17002D3*
D30*
X31173D3*
D29*
X14627Y5062D3*
D30*
X16046D3*
D28*
X19940Y29066D3*
X18168D3*
D29*
X14627Y3688D3*
D30*
X16046D3*
D31*
X37254Y25503D3*
Y23503D3*
Y21503D3*
Y19503D3*
D32*
X4250Y33879D3*
X5432D3*
D34*
X16127Y11439D3*
Y11124D3*
Y10809D3*
Y10494D3*
Y10179D3*
Y9864D3*
Y9549D3*
Y9234D3*
D35*
X16720Y8647D3*
X17035D3*
X17350D3*
X17665D3*
X17980D3*
X18295D3*
X18610D3*
X18925D3*
D34*
X19513Y9240D3*
Y9555D3*
Y9870D3*
Y10185D3*
Y10500D3*
Y10815D3*
Y11130D3*
Y11445D3*
D35*
X18919Y12032D3*
X18604D3*
X18289D3*
X17974D3*
X17659D3*
X17344D3*
X17029D3*
X16714D3*
D31*
X2125Y7376D3*
Y5376D3*
Y3376D3*
X37118Y3951D3*
Y5951D3*
Y7951D3*
D36*
X19377Y4438D3*
D37*
Y5438D3*
X20377Y4438D3*
Y5438D3*
X21377Y4438D3*
Y5438D3*
D38*
X25065Y13814D3*
X21679D3*
X25065Y14814D3*
X21679D3*
X25065Y15814D3*
X21679D3*
X25065Y16814D3*
X21679D3*
X25065Y17814D3*
X21679D3*
X25065Y18814D3*
X21679D3*
X25065Y19814D3*
X21679D3*
X25065Y20814D3*
X21679D3*
D39*
X6813Y5813D3*
D40*
X7813D3*
D39*
X6751Y3688D3*
D40*
X7751D3*
D41*
X21377Y32003D3*
X25415D3*
D42*
X10751Y15502D3*
Y14084D3*
X13113D3*
Y15502D3*
D43*
X23992Y3826D3*
Y3026D3*
X24862Y3426D3*
D44*
X14439Y15439D3*
X15187D3*
X9251Y16439D3*
X9999D3*
D45*
X27191Y3500D3*
Y8225D3*
D46*
X31994Y3500D3*
X31954Y8225D3*
X26403Y5863D3*
D44*
X6876Y4750D3*
X7624D3*
X23929Y6076D3*
X24677D3*
X32298Y17064D3*
X33046D3*
X32298Y18314D3*
X33046D3*
X17003Y5064D3*
X17751D3*
X17003Y3688D3*
X17751D3*
X5750Y16377D3*
X6499D3*
D31*
X2000Y31566D3*
Y29566D3*
Y27566D3*
D47*
X1875Y14564D3*
Y13564D3*
Y12564D3*
Y11564D3*
Y10564D3*
Y9564D3*
D28*
X6626Y2313D3*
X8397D3*
X6563Y7251D3*
X8335D3*
X4500Y28503D3*
Y30275D3*
D48*
X15939Y33941D3*
Y33441D3*
Y32941D3*
Y32441D3*
Y31941D3*
Y31441D3*
Y30941D3*
X19561D3*
Y31441D3*
Y31941D3*
Y32441D3*
Y32941D3*
Y33441D3*
Y33941D3*
D49*
X28753Y23752D3*
Y23252D3*
Y22752D3*
Y22252D3*
Y21752D3*
Y21252D3*
Y20752D3*
Y20252D3*
X32710D3*
Y20752D3*
Y21252D3*
Y21752D3*
Y22252D3*
Y22752D3*
Y23252D3*
Y23752D3*
D50*
X10001Y5063D3*
Y4563D3*
Y4063D3*
Y3563D3*
X12698D3*
Y4063D3*
Y4563D3*
Y5063D3*
D48*
X11439Y24815D3*
Y24315D3*
Y23815D3*
Y23315D3*
Y22815D3*
Y22315D3*
Y21815D3*
Y21315D3*
Y20815D3*
Y20315D3*
Y19815D3*
Y19315D3*
Y18815D3*
Y18315D3*
X15238D3*
Y18815D3*
Y19315D3*
Y19815D3*
Y20315D3*
Y20815D3*
Y21315D3*
Y21815D3*
Y22315D3*
Y22815D3*
Y23315D3*
Y23815D3*
Y24315D3*
Y24815D3*
D51*
X20627Y23127D3*
X22399D3*
D52*
X21513Y26041D3*
D53*
X7126Y12189D3*
X10866D3*
D47*
X5876Y23127D3*
X6876Y22627D3*
X5876Y22127D3*
X6876Y21627D3*
X5876Y21127D3*
X6876Y20627D3*
X5876Y20127D3*
X6876Y19627D3*
X1763Y23982D3*
X1769Y22982D3*
Y19761D3*
X1750Y18753D3*
D54*
X4586Y24431D3*
X4572Y18318D3*
D55*
X7023Y25690D3*
D56*
X6551D3*
D55*
X6078D3*
D44*
X9876Y27690D3*
X10624D3*
X7938Y26690D3*
X8686D3*
X1750Y25190D3*
X2498D3*
X1813Y17439D3*
X2561D3*
X7563Y17189D3*
X8311D3*
X7563Y16439D3*
X8311D3*
D22*
X6563Y17189D3*
X5663D3*
X8813Y27690D3*
X7913D3*
M02*
