G04 DipTrace 2.1.0.5*
%INTopSilk.gbr*%
%MOIN*%
%ADD10C,0.0098*%
%ADD11C,0.0055*%
%ADD12C,0.003*%
%ADD13C,0.0173*%
%ADD14C,0.04*%
%ADD15C,0.017*%
%ADD16C,0.01*%
%ADD17C,0.013*%
%ADD18C,0.0236*%
%ADD19C,0.015*%
%ADD20C,0.08*%
%ADD21R,0.0709X0.0669*%
%ADD22R,0.06X0.056*%
%ADD23R,0.056X0.06*%
%ADD24R,0.02X0.1181*%
%ADD25R,0.0295X0.1772*%
%ADD26R,0.1181X0.02*%
%ADD27R,0.0512X0.0335*%
%ADD28R,0.0906X0.0906*%
%ADD29R,0.07X0.03*%
%ADD30O,0.07X0.03*%
%ADD31C,0.09*%
%ADD32R,0.0394X0.0984*%
%ADD33C,0.0187*%
%ADD34R,0.0709X0.0197*%
%ADD35R,0.0197X0.0709*%
%ADD36R,0.059X0.059*%
%ADD37C,0.059*%
%ADD38R,0.0961X0.0445*%
%ADD39R,0.06X0.06*%
%ADD40C,0.06*%
%ADD41R,0.118X0.217*%
%ADD42R,0.1024X0.0551*%
%ADD43R,0.032X0.032*%
%ADD44R,0.0512X0.0591*%
%ADD45C,0.065*%
%ADD46C,0.118*%
%ADD47C,0.059*%
%ADD48R,0.0866X0.0236*%
%ADD49R,0.0925X0.0236*%
%ADD50R,0.0768X0.0236*%
%ADD51R,0.0394X0.063*%
%ADD52R,0.2165X0.2126*%
%ADD53R,0.2165X0.0787*%
%ADD54C,0.0866*%
%ADD55R,0.0315X0.0591*%
%ADD56R,0.0315X0.0787*%
%ADD57C,0.03*%
%ADD58C,0.02*%
%ADD59C,0.126*%
%ADD60C,0.118*%
%ADD61C,0.05*%
%ADD62C,0.035*%
%ADD63C,0.063*%
%ADD64C,0.008*%
%ADD65C,0.038*%
%ADD66C,0.022*%
%ADD67C,0.048*%
%ADD68C,0.032*%
%ADD69R,0.0395X0.0868*%
%ADD70R,0.0235X0.0707*%
%ADD71R,0.0395X0.0671*%
%ADD72R,0.0235X0.051*%
%ADD73C,0.0946*%
%ADD74C,0.0786*%
%ADD75R,0.2246X0.0868*%
%ADD76R,0.2085X0.0707*%
%ADD77R,0.2246X0.2206*%
%ADD78R,0.2085X0.2046*%
%ADD79R,0.0474X0.071*%
%ADD80R,0.0313X0.055*%
%ADD81R,0.0848X0.0317*%
%ADD82R,0.0687X0.0156*%
%ADD83R,0.1006X0.0317*%
%ADD84R,0.0845X0.0156*%
%ADD85R,0.0946X0.0317*%
%ADD86R,0.0786X0.0156*%
%ADD87C,0.067*%
%ADD88C,0.051*%
%ADD89C,0.126*%
%ADD90C,0.11*%
%ADD91C,0.073*%
%ADD92C,0.057*%
%ADD93R,0.0592X0.0671*%
%ADD94R,0.0431X0.051*%
%ADD95R,0.04X0.04*%
%ADD96R,0.024X0.024*%
%ADD97R,0.1104X0.0631*%
%ADD98R,0.0943X0.0471*%
%ADD99R,0.126X0.225*%
%ADD100R,0.11X0.209*%
%ADD101C,0.068*%
%ADD102C,0.052*%
%ADD103R,0.068X0.068*%
%ADD104R,0.052X0.052*%
%ADD105R,0.1041X0.0525*%
%ADD106R,0.088X0.0365*%
%ADD107C,0.067*%
%ADD108C,0.051*%
%ADD109R,0.067X0.067*%
%ADD110R,0.051X0.051*%
%ADD111R,0.0277X0.0789*%
%ADD112R,0.0117X0.0628*%
%ADD113R,0.0789X0.0277*%
%ADD114R,0.0628X0.0117*%
%ADD115R,0.0474X0.1065*%
%ADD116R,0.0313X0.0904*%
%ADD117C,0.098*%
%ADD118C,0.082*%
%ADD119O,0.078X0.038*%
%ADD120O,0.062X0.022*%
%ADD121R,0.078X0.038*%
%ADD122R,0.062X0.022*%
%ADD123R,0.0986X0.0986*%
%ADD124R,0.0825X0.0825*%
%ADD125R,0.0592X0.0415*%
%ADD126R,0.0431X0.0254*%
%ADD127R,0.1261X0.028*%
%ADD128R,0.1101X0.012*%
%ADD129R,0.0376X0.1852*%
%ADD130R,0.0215X0.1691*%
%ADD131R,0.028X0.1261*%
%ADD132R,0.012X0.1101*%
%ADD133R,0.064X0.068*%
%ADD134R,0.048X0.052*%
%ADD135R,0.068X0.064*%
%ADD136R,0.052X0.048*%
%ADD137R,0.0789X0.075*%
%ADD138R,0.0628X0.0589*%
%ADD139C,0.0093*%
%ADD140C,0.0154*%
%ADD141C,0.0124*%
%FSLAX44Y44*%
%SFA1B1*%
%OFA0B0*%
G04*
G70*
G90*
G75*
G01*
%LNTopSilk*%
%LPD*%
X18614Y21579D2*
D10*
G02X18614Y21579I0J-50D01*
G01*
X17160Y21506D2*
X17082D1*
Y23476D1*
X17160D2*
X17082D1*
X18341D2*
X18263D1*
X18341Y21506D2*
Y23476D1*
Y21506D2*
X18263D1*
X10512Y2376D2*
X12265D1*
Y1625D1*
X10512D1*
Y2376D1*
X32098Y26058D2*
X33851D1*
Y25307D1*
X32098D1*
Y26058D1*
X13563Y9575D2*
X14315D1*
Y11327D1*
X13563D1*
Y9575D1*
X6792Y10316D2*
X8545D1*
Y9565D1*
X6792D1*
Y10316D1*
X31826Y25307D2*
X30073D1*
Y26058D1*
X31826D1*
Y25307D1*
X27274Y24983D2*
X26523D1*
Y23231D1*
X27274D1*
Y24983D1*
Y22983D2*
X26523D1*
Y21230D1*
X27274D1*
Y22983D1*
X26523Y19193D2*
X27274D1*
Y20945D1*
X26523D1*
Y19193D1*
X28097Y26058D2*
X29850D1*
Y25307D1*
X28097D1*
Y26058D1*
X21127Y9637D2*
X21878D1*
Y11390D1*
X21127D1*
Y9637D1*
X5699Y14877D2*
X7452D1*
Y14126D1*
X5699D1*
Y14877D1*
X10387Y7814D2*
X12140D1*
Y7063D1*
X10387D1*
Y7814D1*
X14673Y31753D2*
X12705D1*
Y29785D1*
X14673D1*
Y31753D1*
X16803Y28565D2*
X15050D1*
Y29316D1*
X16803D1*
Y28565D1*
X29247Y33441D2*
X26884D1*
Y31079D1*
X29247D1*
Y33441D1*
X34680Y29440D2*
X32927D1*
Y30191D1*
X34680D1*
Y29440D1*
X11082Y9502D2*
X9330D1*
Y10253D1*
X11082D1*
Y9502D1*
X31747Y33441D2*
X29385D1*
Y31079D1*
X31747D1*
Y33441D1*
X33863D2*
X31894D1*
Y31473D1*
X33863D1*
Y33441D1*
X12610Y31753D2*
X10642D1*
Y29785D1*
X12610D1*
Y31753D1*
X10548D2*
X8579D1*
Y29785D1*
X10548D1*
Y31753D1*
X35988Y33441D2*
X34019D1*
Y31473D1*
X35988D1*
Y33441D1*
X17075Y21065D2*
X18828D1*
Y20314D1*
X17075D1*
Y21065D1*
X17013Y24691D2*
X18766D1*
Y23939D1*
X17013D1*
Y24691D1*
X9387Y27128D2*
X11140D1*
Y26377D1*
X9387D1*
Y27128D1*
X8762Y17565D2*
X10515D1*
Y16814D1*
X8762D1*
Y17565D1*
X15700Y17502D2*
X17453D1*
Y16751D1*
X15700D1*
Y17502D1*
X17013Y26753D2*
X18766D1*
Y26002D1*
X17013D1*
Y26753D1*
X13001Y28050D2*
X14970D1*
Y26081D1*
X13001D1*
Y28050D1*
X23189Y23701D2*
X23941D1*
Y25454D1*
X23189D1*
Y23701D1*
X24055Y9224D2*
G02X24055Y9224I0J49D01*
G01*
X24468Y8013D2*
X24920D1*
X24468Y9017D2*
X24920D1*
Y8839D1*
Y8191D2*
Y8013D1*
X5828Y27955D2*
Y30888D1*
X7048Y27955D2*
Y30888D1*
X6871Y31065D2*
X6005D1*
X5828Y30888D2*
X6005Y31065D1*
X7048Y30888D2*
X6871Y31065D1*
X7048Y27955D2*
X5828D1*
X6518Y29451D2*
X6359D1*
X6438Y29374D2*
Y29529D1*
X31715Y17751D2*
X29211D1*
Y19003D1*
X31715D1*
Y17751D1*
Y16376D2*
X29211D1*
Y17628D1*
X31715D1*
Y16376D1*
X16589Y4436D2*
X14085D1*
Y5688D1*
X16589D1*
Y4436D1*
X20550Y28455D2*
X17617D1*
X20550Y29676D2*
X17617D1*
X17440Y29499D2*
Y28632D1*
X17617Y28455D2*
X17440Y28632D1*
X17617Y29676D2*
X17440Y29499D1*
X20550Y29676D2*
Y28455D1*
X19054Y29145D2*
Y28986D1*
X19132Y29066D2*
X18976D1*
X16588Y3062D2*
X14085D1*
Y4314D1*
X16588D1*
Y3062D1*
X35254Y26503D2*
X39254D1*
Y18503D1*
X35254D1*
Y26503D1*
X4250Y34351D2*
X5432D1*
Y33406D1*
X4250D1*
Y34351D1*
X16604Y11556D2*
X19036D1*
Y9123D1*
X16604D1*
Y11556D1*
D33*
X16135Y11748D3*
X3625Y8376D2*
D10*
X625D1*
Y2376D1*
X3625D1*
Y8376D1*
X35618Y2951D2*
X38618D1*
Y8951D1*
X35618D1*
Y2951D1*
X19960Y3938D2*
X21877D1*
X18877D2*
X21877D1*
X18877Y5938D2*
X21877D1*
X18877Y3938D2*
Y5938D1*
X21877Y3938D2*
Y5938D1*
X22372Y13334D2*
X24372D1*
Y21334D1*
X22372D1*
Y13334D1*
X6563Y5313D2*
X8063D1*
X8313Y5563D1*
Y6063D1*
X8063Y6313D2*
X8313Y6063D1*
X6563Y6313D2*
X8063D1*
X6313Y6063D2*
X6563Y6313D1*
X6313Y5563D2*
Y6063D1*
Y5563D2*
X6563Y5313D1*
X6501Y3188D2*
X8001D1*
X8251Y3438D1*
Y3938D1*
X8001Y4188D2*
X8251Y3938D1*
X6501Y4188D2*
X8001D1*
X6251Y3938D2*
X6501Y4188D1*
X6251Y3438D2*
Y3938D1*
Y3438D2*
X6501Y3188D1*
X21159Y34222D2*
X25490D1*
Y29497D1*
X21159D1*
Y34222D1*
X11302Y15502D2*
X12562D1*
X11302Y14045D2*
X12562D1*
X11972Y15502D2*
Y15187D1*
Y14084D2*
Y14321D1*
X11853Y14478D2*
G02X11853Y14478I118J0D01*
G01*
Y15069D2*
G02X11853Y15069I118J0D01*
G01*
Y14557D2*
X11578Y14990D1*
X24677Y3986D2*
Y3706D1*
X24277Y3986D2*
X24677D1*
Y3146D2*
Y2866D1*
X24277D2*
X24677D1*
X24177Y3519D2*
Y3333D1*
X25616Y9012D2*
X33411D1*
Y2792D1*
X25616D1*
Y9012D1*
X30655Y6256D2*
X31797Y5744D1*
X31954Y4130D2*
Y5390D1*
X31915Y7634D2*
Y7122D1*
X27269Y8264D2*
X28056D1*
Y6650D1*
X27309Y5882D2*
X27311Y5936D1*
X27316Y5989D1*
X27325Y6042D1*
X27338Y6094D1*
X27354Y6145D1*
X27374Y6195D1*
X27396Y6243D1*
X27423Y6289D1*
X27452Y6334D1*
X27484Y6376D1*
X27519Y6416D1*
X27556Y6453D1*
X27596Y6487D1*
X27639Y6519D1*
X27683Y6547D1*
X27729Y6572D1*
X27777Y6594D1*
X27826Y6612D1*
X27876Y6627D1*
X27927Y6638D1*
X27979Y6646D1*
X28031Y6649D1*
X28083D1*
X28135Y6646D1*
X28187Y6638D1*
X28238Y6627D1*
X28288Y6612D1*
X28337Y6594D1*
X28385Y6572D1*
X28431Y6547D1*
X28475Y6519D1*
X28517Y6487D1*
X28557Y6453D1*
X28595Y6416D1*
X28630Y6376D1*
X28662Y6334D1*
X28691Y6289D1*
X28717Y6243D1*
X28740Y6195D1*
X28760Y6145D1*
X28776Y6094D1*
X28788Y6042D1*
X28798Y5989D1*
X28803Y5936D1*
X28805Y5882D1*
X28803Y5829D1*
X28798Y5775D1*
X28788Y5723D1*
X28776Y5671D1*
X28760Y5620D1*
X28740Y5570D1*
X28717Y5522D1*
X28691Y5476D1*
X28662Y5431D1*
X28630Y5389D1*
X28595Y5349D1*
X28557Y5312D1*
X28517Y5277D1*
X28475Y5246D1*
X28431Y5218D1*
X28385Y5192D1*
X28337Y5171D1*
X28288Y5152D1*
X28238Y5137D1*
X28187Y5126D1*
X28135Y5119D1*
X28083Y5115D1*
X28031D1*
X27979Y5119D1*
X27927Y5126D1*
X27876Y5137D1*
X27826Y5152D1*
X27777Y5171D1*
X27729Y5192D1*
X27683Y5218D1*
X27639Y5246D1*
X27596Y5277D1*
X27556Y5312D1*
X27519Y5349D1*
X27484Y5389D1*
X27452Y5431D1*
X27423Y5476D1*
X27396Y5522D1*
X27374Y5570D1*
X27354Y5620D1*
X27338Y5671D1*
X27325Y5723D1*
X27316Y5775D1*
X27311Y5829D1*
X27309Y5882D1*
X28017Y5115D2*
Y3501D1*
X27230D1*
X26403Y5902D2*
Y8697D1*
X29277D1*
X29356D2*
Y6256D1*
X29395D2*
X30301D1*
X31797Y6906D2*
Y6915D1*
X31798Y6925D1*
X31799Y6934D1*
X31801Y6944D1*
X31804Y6953D1*
X31807Y6962D1*
X31810Y6970D1*
X31815Y6979D1*
X31819Y6987D1*
X31824Y6994D1*
X31830Y7001D1*
X31836Y7008D1*
X31842Y7014D1*
X31849Y7020D1*
X31856Y7025D1*
X31863Y7030D1*
X31870Y7033D1*
X31878Y7037D1*
X31886Y7039D1*
X31894Y7041D1*
X31902Y7043D1*
X31911D1*
X31919D1*
X31927D1*
X31935Y7041D1*
X31943Y7039D1*
X31951Y7037D1*
X31959Y7033D1*
X31966Y7030D1*
X31974Y7025D1*
X31981Y7020D1*
X31987Y7014D1*
X31994Y7008D1*
X32000Y7001D1*
X32005Y6994D1*
X32010Y6987D1*
X32015Y6979D1*
X32019Y6970D1*
X32023Y6962D1*
X32026Y6953D1*
X32028Y6944D1*
X32030Y6934D1*
X32032Y6925D1*
X32033Y6915D1*
Y6906D1*
Y6896D1*
X32032Y6887D1*
X32030Y6877D1*
X32028Y6868D1*
X32026Y6859D1*
X32023Y6850D1*
X32019Y6841D1*
X32015Y6833D1*
X32010Y6825D1*
X32005Y6817D1*
X32000Y6810D1*
X31994Y6803D1*
X31987Y6797D1*
X31981Y6792D1*
X31974Y6786D1*
X31966Y6782D1*
X31959Y6778D1*
X31951Y6775D1*
X31943Y6772D1*
X31935Y6770D1*
X31927Y6769D1*
X31919Y6768D1*
X31911D1*
X31902Y6769D1*
X31894Y6770D1*
X31886Y6772D1*
X31878Y6775D1*
X31870Y6778D1*
X31863Y6782D1*
X31856Y6786D1*
X31849Y6792D1*
X31842Y6797D1*
X31836Y6803D1*
X31830Y6810D1*
X31824Y6817D1*
X31819Y6825D1*
X31815Y6833D1*
X31810Y6841D1*
X31807Y6850D1*
X31804Y6859D1*
X31801Y6868D1*
X31799Y6877D1*
X31798Y6887D1*
X31797Y6896D1*
Y6906D1*
X30379Y6276D2*
X30380Y6286D1*
X30381Y6295D1*
X30382Y6305D1*
X30384Y6314D1*
X30387Y6323D1*
X30390Y6332D1*
X30393Y6341D1*
X30397Y6349D1*
X30402Y6357D1*
X30407Y6365D1*
X30413Y6372D1*
X30419Y6378D1*
X30425Y6385D1*
X30431Y6390D1*
X30438Y6395D1*
X30446Y6400D1*
X30453Y6404D1*
X30461Y6407D1*
X30469Y6410D1*
X30477Y6412D1*
X30485Y6413D1*
X30493Y6414D1*
X30502D1*
X30510Y6413D1*
X30518Y6412D1*
X30526Y6410D1*
X30534Y6407D1*
X30542Y6404D1*
X30549Y6400D1*
X30557Y6395D1*
X30564Y6390D1*
X30570Y6385D1*
X30577Y6378D1*
X30582Y6372D1*
X30588Y6365D1*
X30593Y6357D1*
X30598Y6349D1*
X30602Y6341D1*
X30605Y6332D1*
X30609Y6323D1*
X30611Y6314D1*
X30613Y6305D1*
X30614Y6295D1*
X30615Y6286D1*
X30616Y6276D1*
X30615Y6267D1*
X30614Y6257D1*
X30613Y6247D1*
X30611Y6238D1*
X30609Y6229D1*
X30605Y6220D1*
X30602Y6211D1*
X30598Y6203D1*
X30593Y6195D1*
X30588Y6188D1*
X30582Y6180D1*
X30577Y6174D1*
X30570Y6168D1*
X30564Y6162D1*
X30557Y6157D1*
X30549Y6152D1*
X30542Y6148D1*
X30534Y6145D1*
X30526Y6142D1*
X30518Y6140D1*
X30510Y6139D1*
X30502Y6138D1*
X30493D1*
X30485Y6139D1*
X30477Y6140D1*
X30469Y6142D1*
X30461Y6145D1*
X30453Y6148D1*
X30446Y6152D1*
X30438Y6157D1*
X30431Y6162D1*
X30425Y6168D1*
X30419Y6174D1*
X30413Y6180D1*
X30407Y6188D1*
X30402Y6195D1*
X30397Y6203D1*
X30393Y6211D1*
X30390Y6220D1*
X30387Y6229D1*
X30384Y6238D1*
X30382Y6247D1*
X30381Y6257D1*
X30380Y6267D1*
X30379Y6276D1*
X31836Y5607D2*
X31837Y5616D1*
X31838Y5626D1*
X31839Y5635D1*
X31841Y5645D1*
X31844Y5654D1*
X31847Y5663D1*
X31850Y5671D1*
X31854Y5680D1*
X31859Y5687D1*
X31864Y5695D1*
X31870Y5702D1*
X31875Y5709D1*
X31882Y5715D1*
X31888Y5721D1*
X31895Y5726D1*
X31903Y5730D1*
X31910Y5734D1*
X31918Y5738D1*
X31926Y5740D1*
X31934Y5742D1*
X31942Y5744D1*
X31950D1*
X31959D1*
X31967D1*
X31975Y5742D1*
X31983Y5740D1*
X31991Y5738D1*
X31999Y5734D1*
X32006Y5730D1*
X32014Y5726D1*
X32021Y5721D1*
X32027Y5715D1*
X32033Y5709D1*
X32039Y5702D1*
X32045Y5695D1*
X32050Y5687D1*
X32055Y5680D1*
X32059Y5671D1*
X32062Y5663D1*
X32065Y5654D1*
X32068Y5645D1*
X32070Y5635D1*
X32071Y5626D1*
X32072Y5616D1*
X32073Y5607D1*
X32072Y5597D1*
X32071Y5587D1*
X32070Y5578D1*
X32068Y5569D1*
X32065Y5559D1*
X32062Y5551D1*
X32059Y5542D1*
X32055Y5534D1*
X32050Y5526D1*
X32045Y5518D1*
X32039Y5511D1*
X32033Y5504D1*
X32027Y5498D1*
X32021Y5492D1*
X32014Y5487D1*
X32006Y5483D1*
X31999Y5479D1*
X31991Y5476D1*
X31983Y5473D1*
X31975Y5471D1*
X31967Y5470D1*
X31959Y5469D1*
X31950D1*
X31942Y5470D1*
X31934Y5471D1*
X31926Y5473D1*
X31918Y5476D1*
X31910Y5479D1*
X31903Y5483D1*
X31895Y5487D1*
X31888Y5492D1*
X31882Y5498D1*
X31875Y5504D1*
X31870Y5511D1*
X31864Y5518D1*
X31859Y5526D1*
X31854Y5534D1*
X31850Y5542D1*
X31847Y5551D1*
X31844Y5559D1*
X31841Y5569D1*
X31839Y5578D1*
X31838Y5587D1*
X31837Y5597D1*
X31836Y5607D1*
X3500Y32566D2*
X500D1*
Y26566D1*
X3500D1*
Y32566D1*
X2375Y15064D2*
X1375D1*
Y9064D1*
X2375D1*
Y15064D1*
X6015Y2923D2*
X8948D1*
X6015Y1703D2*
X8948D1*
X9126Y1879D2*
Y2746D1*
X8948Y2923D2*
X9126Y2746D1*
X8948Y1703D2*
X9126Y1879D1*
X6015Y1703D2*
Y2923D1*
X7511Y2233D2*
Y2392D1*
X7434Y2313D2*
X7589D1*
X5953Y7861D2*
X8886D1*
X5953Y6641D2*
X8886D1*
X9063Y6817D2*
Y7684D1*
X8886Y7861D2*
X9063Y7684D1*
X8886Y6641D2*
X9063Y6817D1*
X5953Y6641D2*
Y7861D1*
X7449Y7171D2*
Y7330D1*
X7371Y7251D2*
X7527D1*
X3890Y27893D2*
Y30826D1*
X5111Y27893D2*
Y30826D1*
X4934Y31003D2*
X4067D1*
X3890Y30826D2*
X4067Y31003D1*
X5111Y30826D2*
X4934Y31003D1*
X5111Y27893D2*
X3890D1*
X4580Y29389D2*
X4421D1*
X4500Y29311D2*
Y29467D1*
X17499Y34251D2*
G03X18002Y34251I251J4D01*
G01*
X15937Y34225D2*
G02X15937Y34225I0J50D01*
G01*
X18971Y34251D2*
Y30630D1*
X16529Y34251D2*
Y30630D1*
X18971D1*
X18002Y34251D2*
X18971D1*
X16529D2*
X17499D1*
X30482Y24028D2*
G03X30980Y24028I249J-1D01*
G01*
X28754Y24036D2*
G02X28754Y24036I0J50D01*
G01*
X32089Y24028D2*
Y19975D1*
X29374Y24028D2*
Y19975D1*
X32089D1*
X30980Y24028D2*
X32089D1*
X29374D2*
X30482D1*
X10000Y5352D2*
G02X10000Y5352I0J50D01*
G01*
X12156Y5395D2*
Y3229D1*
X10543Y5395D2*
Y3229D1*
X12156D1*
X11619Y5395D2*
X12156D1*
X10543D2*
X11080D1*
Y5393D2*
G03X11622Y5386I271J10D01*
G01*
X13086Y25124D2*
G03X13590Y25124I252J5D01*
G01*
X11495Y25247D2*
G02X11495Y25247I-58J0D01*
G01*
X14649Y18002D2*
Y25124D1*
X12027Y18002D2*
Y25124D1*
Y18002D2*
X14649D1*
X13590Y25124D2*
X14649D1*
X12027D2*
X13086D1*
X22890Y27248D2*
X20136D1*
X22890Y22616D2*
Y27248D1*
X20136Y22616D2*
Y27248D1*
Y22616D2*
X22890D1*
X7177Y11558D2*
G02X7177Y11558I-50J0D01*
G01*
X6752Y12858D2*
Y13153D1*
X11240Y11224D2*
Y11519D1*
X6752Y11224D2*
X11240D1*
X6752D2*
Y11519D1*
X11240Y12858D2*
Y13153D1*
X6752D2*
X11240D1*
X6990Y16814D2*
X5237D1*
Y17565D1*
X6990D1*
Y16814D1*
X9240Y27315D2*
X7487D1*
Y28066D1*
X9240D1*
Y27315D1*
X19470Y22556D2*
D139*
X18867Y22326D1*
D2*
X19470Y22096D1*
X19269Y22183D2*
Y22470D1*
X18982Y22741D2*
X18953Y22799D1*
D2*
X18867Y22885D1*
D2*
X19470D1*
X11439Y3111D2*
X11411Y3168D1*
D2*
X11353Y3226D1*
D2*
X11296Y3254D1*
D2*
X11181D1*
D2*
X11124Y3226D1*
D2*
X11067Y3168D1*
D2*
X11037Y3111D1*
D2*
X11009Y3025D1*
D2*
Y2881D1*
D2*
X11037Y2796D1*
D2*
X11067Y2738D1*
D2*
X11124Y2681D1*
D2*
X11181Y2652D1*
D2*
X11296D1*
D2*
X11353Y2681D1*
D2*
X11411Y2738D1*
D2*
X11439Y2796D1*
X11625Y3139D2*
X11682Y3168D1*
D2*
X11768Y3254D1*
D2*
Y2652D1*
X32896Y26793D2*
X32867Y26850D1*
D2*
X32810Y26908D1*
D2*
X32753Y26936D1*
D2*
X32638D1*
D2*
X32580Y26908D1*
D2*
X32523Y26850D1*
D2*
X32494Y26793D1*
D2*
X32465Y26707D1*
D2*
Y26563D1*
D2*
X32494Y26477D1*
D2*
X32523Y26420D1*
D2*
X32580Y26363D1*
D2*
X32638Y26334D1*
D2*
X32753D1*
D2*
X32810Y26363D1*
D2*
X32867Y26420D1*
D2*
X32896Y26477D1*
X33110Y26792D2*
Y26821D1*
D2*
X33139Y26879D1*
D2*
X33167Y26907D1*
D2*
X33225Y26936D1*
D2*
X33340D1*
D2*
X33397Y26907D1*
D2*
X33425Y26879D1*
D2*
X33455Y26821D1*
D2*
Y26764D1*
D2*
X33425Y26706D1*
D2*
X33368Y26621D1*
D2*
X33081Y26334D1*
D2*
X33483D1*
X14661Y10373D2*
X14604Y10344D1*
D2*
X14547Y10286D1*
D2*
X14518Y10229D1*
D2*
Y10115D1*
D2*
X14547Y10057D1*
D2*
X14604Y10000D1*
D2*
X14661Y9971D1*
D2*
X14748Y9942D1*
D2*
X14891D1*
D2*
X14977Y9971D1*
D2*
X15035Y10000D1*
D2*
X15092Y10057D1*
D2*
X15121Y10115D1*
D2*
Y10229D1*
D2*
X15092Y10286D1*
D2*
X15035Y10344D1*
D2*
X14977Y10373D1*
X14519Y10616D2*
Y10931D1*
D2*
X14748Y10759D1*
D2*
Y10845D1*
D2*
X14777Y10902D1*
D2*
X14805Y10931D1*
D2*
X14891Y10960D1*
D2*
X14948D1*
D2*
X15035Y10931D1*
D2*
X15092Y10874D1*
D2*
X15121Y10787D1*
D2*
Y10701D1*
D2*
X15092Y10616D1*
D2*
X15063Y10587D1*
D2*
X15006Y10558D1*
X7576Y11051D2*
X7547Y11108D1*
D2*
X7489Y11166D1*
D2*
X7432Y11194D1*
D2*
X7318D1*
D2*
X7260Y11166D1*
D2*
X7203Y11108D1*
D2*
X7174Y11051D1*
D2*
X7145Y10965D1*
D2*
Y10821D1*
D2*
X7174Y10736D1*
D2*
X7203Y10678D1*
D2*
X7260Y10621D1*
D2*
X7318Y10592D1*
D2*
X7432D1*
D2*
X7489Y10621D1*
D2*
X7547Y10678D1*
D2*
X7576Y10736D1*
X8048Y10592D2*
Y11194D1*
D2*
X7761Y10793D1*
D2*
X8191D1*
X30871Y26793D2*
X30842Y26850D1*
D2*
X30785Y26908D1*
D2*
X30728Y26936D1*
D2*
X30613D1*
D2*
X30555Y26908D1*
D2*
X30498Y26850D1*
D2*
X30469Y26793D1*
D2*
X30440Y26707D1*
D2*
Y26563D1*
D2*
X30469Y26477D1*
D2*
X30498Y26420D1*
D2*
X30555Y26363D1*
D2*
X30613Y26334D1*
D2*
X30728D1*
D2*
X30785Y26363D1*
D2*
X30842Y26420D1*
D2*
X30871Y26477D1*
X31400Y26936D2*
X31114D1*
D2*
X31085Y26678D1*
D2*
X31114Y26706D1*
D2*
X31200Y26735D1*
D2*
X31286D1*
D2*
X31372Y26706D1*
D2*
X31429Y26649D1*
D2*
X31458Y26563D1*
D2*
Y26506D1*
D2*
X31429Y26420D1*
D2*
X31372Y26362D1*
D2*
X31286Y26334D1*
D2*
X31200D1*
D2*
X31114Y26362D1*
D2*
X31085Y26391D1*
D2*
X31056Y26448D1*
X27621Y24043D2*
X27564Y24015D1*
D2*
X27506Y23957D1*
D2*
X27478Y23900D1*
D2*
Y23785D1*
D2*
X27506Y23728D1*
D2*
X27564Y23670D1*
D2*
X27621Y23641D1*
D2*
X27707Y23613D1*
D2*
X27851D1*
D2*
X27937Y23641D1*
D2*
X27994Y23670D1*
D2*
X28051Y23728D1*
D2*
X28081Y23785D1*
D2*
Y23900D1*
D2*
X28051Y23957D1*
D2*
X27994Y24015D1*
D2*
X27937Y24043D1*
X27564Y24573D2*
X27507Y24544D1*
D2*
X27478Y24458D1*
D2*
Y24401D1*
D2*
X27507Y24315D1*
D2*
X27593Y24257D1*
D2*
X27736Y24228D1*
D2*
X27880D1*
D2*
X27994Y24257D1*
D2*
X28052Y24315D1*
D2*
X28081Y24401D1*
D2*
Y24429D1*
D2*
X28052Y24515D1*
D2*
X27994Y24573D1*
D2*
X27908Y24601D1*
D2*
X27880D1*
D2*
X27793Y24573D1*
D2*
X27736Y24515D1*
D2*
X27708Y24429D1*
D2*
Y24401D1*
D2*
X27736Y24315D1*
D2*
X27793Y24257D1*
D2*
X27880Y24228D1*
X27621Y22028D2*
X27564Y22000D1*
D2*
X27506Y21942D1*
D2*
X27478Y21885D1*
D2*
Y21770D1*
D2*
X27506Y21713D1*
D2*
X27564Y21656D1*
D2*
X27621Y21626D1*
D2*
X27707Y21598D1*
D2*
X27851D1*
D2*
X27937Y21626D1*
D2*
X27994Y21656D1*
D2*
X28051Y21713D1*
D2*
X28081Y21770D1*
D2*
Y21885D1*
D2*
X28051Y21942D1*
D2*
X27994Y22000D1*
D2*
X27937Y22028D1*
X28081Y22328D2*
X27478Y22616D1*
D2*
Y22214D1*
X27621Y19991D2*
X27564Y19962D1*
D2*
X27506Y19905D1*
D2*
X27478Y19848D1*
D2*
Y19733D1*
D2*
X27506Y19675D1*
D2*
X27564Y19618D1*
D2*
X27621Y19589D1*
D2*
X27707Y19560D1*
D2*
X27851D1*
D2*
X27937Y19589D1*
D2*
X27994Y19618D1*
D2*
X28051Y19675D1*
D2*
X28081Y19733D1*
D2*
Y19848D1*
D2*
X28051Y19905D1*
D2*
X27994Y19962D1*
D2*
X27937Y19991D1*
X27478Y20319D2*
X27507Y20234D1*
D2*
X27564Y20205D1*
D2*
X27622D1*
D2*
X27679Y20234D1*
D2*
X27708Y20291D1*
D2*
X27736Y20406D1*
D2*
X27765Y20492D1*
D2*
X27823Y20549D1*
D2*
X27880Y20577D1*
D2*
X27966D1*
D2*
X28023Y20549D1*
D2*
X28052Y20520D1*
D2*
X28081Y20434D1*
D2*
Y20319D1*
D2*
X28052Y20234D1*
D2*
X28023Y20205D1*
D2*
X27966Y20176D1*
D2*
X27880D1*
D2*
X27823Y20205D1*
D2*
X27765Y20262D1*
D2*
X27736Y20348D1*
D2*
X27708Y20463D1*
D2*
X27679Y20520D1*
D2*
X27622Y20549D1*
D2*
X27564D1*
D2*
X27507Y20520D1*
D2*
X27478Y20434D1*
D2*
Y20319D1*
X28910Y26793D2*
X28881Y26850D1*
D2*
X28824Y26908D1*
D2*
X28766Y26936D1*
D2*
X28652D1*
D2*
X28594Y26908D1*
D2*
X28537Y26850D1*
D2*
X28508Y26793D1*
D2*
X28479Y26707D1*
D2*
Y26563D1*
D2*
X28508Y26477D1*
D2*
X28537Y26420D1*
D2*
X28594Y26363D1*
D2*
X28652Y26334D1*
D2*
X28766D1*
D2*
X28824Y26363D1*
D2*
X28881Y26420D1*
D2*
X28910Y26477D1*
X29468Y26735D2*
X29439Y26649D1*
D2*
X29382Y26591D1*
D2*
X29296Y26563D1*
D2*
X29267D1*
D2*
X29181Y26591D1*
D2*
X29124Y26649D1*
D2*
X29095Y26735D1*
D2*
Y26764D1*
D2*
X29124Y26850D1*
D2*
X29181Y26907D1*
D2*
X29267Y26936D1*
D2*
X29296D1*
D2*
X29382Y26907D1*
D2*
X29439Y26850D1*
D2*
X29468Y26735D1*
D2*
Y26591D1*
D2*
X29439Y26448D1*
D2*
X29382Y26362D1*
D2*
X29296Y26334D1*
D2*
X29239D1*
D2*
X29153Y26362D1*
D2*
X29124Y26420D1*
X22225Y10271D2*
X22168Y10242D1*
D2*
X22110Y10184D1*
D2*
X22081Y10127D1*
D2*
Y10013D1*
D2*
X22110Y9955D1*
D2*
X22168Y9898D1*
D2*
X22225Y9869D1*
D2*
X22311Y9840D1*
D2*
X22455D1*
D2*
X22540Y9869D1*
D2*
X22598Y9898D1*
D2*
X22655Y9955D1*
D2*
X22684Y10013D1*
D2*
Y10127D1*
D2*
X22655Y10184D1*
D2*
X22598Y10242D1*
D2*
X22540Y10271D1*
X22197Y10456D2*
X22168Y10514D1*
D2*
X22082Y10600D1*
D2*
X22684D1*
X22082Y10957D2*
X22111Y10871D1*
D2*
X22197Y10814D1*
D2*
X22340Y10785D1*
D2*
X22426D1*
D2*
X22569Y10814D1*
D2*
X22656Y10871D1*
D2*
X22684Y10957D1*
D2*
Y11015D1*
D2*
X22656Y11101D1*
D2*
X22569Y11158D1*
D2*
X22426Y11187D1*
D2*
X22340D1*
D2*
X22197Y11158D1*
D2*
X22111Y11101D1*
D2*
X22082Y11015D1*
D2*
Y10957D1*
X22197Y11158D2*
X22569Y10814D1*
X6462Y13779D2*
X6433Y13836D1*
D2*
X6375Y13894D1*
D2*
X6318Y13922D1*
D2*
X6204D1*
D2*
X6146Y13894D1*
D2*
X6089Y13836D1*
D2*
X6060Y13779D1*
D2*
X6031Y13693D1*
D2*
Y13549D1*
D2*
X6060Y13463D1*
D2*
X6089Y13406D1*
D2*
X6146Y13349D1*
D2*
X6204Y13320D1*
D2*
X6318D1*
D2*
X6375Y13349D1*
D2*
X6433Y13406D1*
D2*
X6462Y13463D1*
X6647Y13807D2*
X6705Y13836D1*
D2*
X6791Y13922D1*
D2*
Y13320D1*
X6976Y13807D2*
X7034Y13836D1*
D2*
X7120Y13922D1*
D2*
Y13320D1*
X11021Y8549D2*
X10992Y8606D1*
D2*
X10934Y8664D1*
D2*
X10877Y8693D1*
D2*
X10763D1*
D2*
X10705Y8664D1*
D2*
X10648Y8606D1*
D2*
X10619Y8549D1*
D2*
X10590Y8463D1*
D2*
Y8319D1*
D2*
X10619Y8234D1*
D2*
X10648Y8176D1*
D2*
X10705Y8119D1*
D2*
X10763Y8090D1*
D2*
X10877D1*
D2*
X10934Y8119D1*
D2*
X10992Y8176D1*
D2*
X11021Y8234D1*
X11206Y8577D2*
X11264Y8606D1*
D2*
X11350Y8692D1*
D2*
Y8090D1*
X11564Y8549D2*
Y8577D1*
D2*
X11593Y8635D1*
D2*
X11621Y8663D1*
D2*
X11679Y8692D1*
D2*
X11794D1*
D2*
X11851Y8663D1*
D2*
X11879Y8635D1*
D2*
X11909Y8577D1*
D2*
Y8520D1*
D2*
X11879Y8462D1*
D2*
X11822Y8377D1*
D2*
X11535Y8090D1*
D2*
X11937D1*
X13446Y33079D2*
X13417Y33136D1*
D2*
X13360Y33194D1*
D2*
X13303Y33223D1*
D2*
X13188D1*
D2*
X13130Y33194D1*
D2*
X13073Y33136D1*
D2*
X13044Y33079D1*
D2*
X13016Y32993D1*
D2*
Y32849D1*
D2*
X13044Y32764D1*
D2*
X13073Y32706D1*
D2*
X13130Y32649D1*
D2*
X13188Y32620D1*
D2*
X13303D1*
D2*
X13360Y32649D1*
D2*
X13417Y32706D1*
D2*
X13446Y32764D1*
X13631Y33107D2*
X13689Y33136D1*
D2*
X13775Y33222D1*
D2*
Y32620D1*
X14018Y33222D2*
X14333D1*
D2*
X14161Y32992D1*
D2*
X14248D1*
D2*
X14305Y32964D1*
D2*
X14333Y32935D1*
D2*
X14362Y32849D1*
D2*
Y32792D1*
D2*
X14333Y32706D1*
D2*
X14276Y32648D1*
D2*
X14190Y32620D1*
D2*
X14104D1*
D2*
X14018Y32648D1*
D2*
X13990Y32677D1*
D2*
X13960Y32734D1*
X15669Y30052D2*
X15641Y30109D1*
D2*
X15583Y30166D1*
D2*
X15526Y30195D1*
D2*
X15411D1*
D2*
X15354Y30166D1*
D2*
X15297Y30109D1*
D2*
X15268Y30052D1*
D2*
X15239Y29965D1*
D2*
Y29821D1*
D2*
X15268Y29736D1*
D2*
X15297Y29678D1*
D2*
X15354Y29621D1*
D2*
X15411Y29592D1*
D2*
X15526D1*
D2*
X15583Y29621D1*
D2*
X15641Y29678D1*
D2*
X15669Y29736D1*
X15855Y30079D2*
X15912Y30109D1*
D2*
X15999Y30194D1*
D2*
Y29592D1*
X16471D2*
Y30194D1*
D2*
X16184Y29793D1*
D2*
X16614D1*
X27822Y35062D2*
X27794Y35119D1*
D2*
X27736Y35177D1*
D2*
X27679Y35206D1*
D2*
X27564D1*
D2*
X27507Y35177D1*
D2*
X27450Y35119D1*
D2*
X27421Y35062D1*
D2*
X27392Y34976D1*
D2*
Y34832D1*
D2*
X27421Y34747D1*
D2*
X27450Y34689D1*
D2*
X27507Y34632D1*
D2*
X27564Y34603D1*
D2*
X27679D1*
D2*
X27736Y34632D1*
D2*
X27794Y34689D1*
D2*
X27822Y34747D1*
X28008Y35090D2*
X28065Y35119D1*
D2*
X28152Y35205D1*
D2*
Y34603D1*
X28681Y35205D2*
X28395D1*
D2*
X28366Y34947D1*
D2*
X28395Y34975D1*
D2*
X28481Y35005D1*
D2*
X28566D1*
D2*
X28653Y34975D1*
D2*
X28710Y34918D1*
D2*
X28739Y34832D1*
D2*
Y34775D1*
D2*
X28710Y34689D1*
D2*
X28653Y34631D1*
D2*
X28566Y34603D1*
D2*
X28481D1*
D2*
X28395Y34631D1*
D2*
X28366Y34660D1*
D2*
X28337Y34717D1*
X33575Y30927D2*
X33547Y30984D1*
D2*
X33489Y31041D1*
D2*
X33432Y31070D1*
D2*
X33317D1*
D2*
X33260Y31041D1*
D2*
X33202Y30984D1*
D2*
X33173Y30927D1*
D2*
X33145Y30840D1*
D2*
Y30696D1*
D2*
X33173Y30611D1*
D2*
X33202Y30553D1*
D2*
X33260Y30496D1*
D2*
X33317Y30467D1*
D2*
X33432D1*
D2*
X33489Y30496D1*
D2*
X33547Y30553D1*
D2*
X33575Y30611D1*
X33760Y30954D2*
X33818Y30984D1*
D2*
X33904Y31069D1*
D2*
Y30467D1*
X34434Y30984D2*
X34405Y31041D1*
D2*
X34319Y31069D1*
D2*
X34262D1*
D2*
X34176Y31041D1*
D2*
X34118Y30954D1*
D2*
X34090Y30811D1*
D2*
Y30668D1*
D2*
X34118Y30553D1*
D2*
X34176Y30496D1*
D2*
X34262Y30467D1*
D2*
X34291D1*
D2*
X34376Y30496D1*
D2*
X34434Y30553D1*
D2*
X34462Y30639D1*
D2*
Y30668D1*
D2*
X34434Y30754D1*
D2*
X34376Y30811D1*
D2*
X34291Y30840D1*
D2*
X34262D1*
D2*
X34176Y30811D1*
D2*
X34118Y30754D1*
D2*
X34090Y30668D1*
X9963Y10989D2*
X9935Y11046D1*
D2*
X9877Y11103D1*
D2*
X9820Y11132D1*
D2*
X9705D1*
D2*
X9647Y11103D1*
D2*
X9590Y11046D1*
D2*
X9561Y10989D1*
D2*
X9533Y10902D1*
D2*
Y10759D1*
D2*
X9561Y10673D1*
D2*
X9590Y10615D1*
D2*
X9647Y10558D1*
D2*
X9705Y10529D1*
D2*
X9820D1*
D2*
X9877Y10558D1*
D2*
X9935Y10615D1*
D2*
X9963Y10673D1*
X10148Y11017D2*
X10206Y11046D1*
D2*
X10292Y11131D1*
D2*
Y10529D1*
X10592D2*
X10879Y11131D1*
D2*
X10478D1*
X30323Y35062D2*
X30295Y35119D1*
D2*
X30237Y35177D1*
D2*
X30180Y35206D1*
D2*
X30065D1*
D2*
X30007Y35177D1*
D2*
X29950Y35119D1*
D2*
X29921Y35062D1*
D2*
X29893Y34976D1*
D2*
Y34832D1*
D2*
X29921Y34747D1*
D2*
X29950Y34689D1*
D2*
X30007Y34632D1*
D2*
X30065Y34603D1*
D2*
X30180D1*
D2*
X30237Y34632D1*
D2*
X30295Y34689D1*
D2*
X30323Y34747D1*
X30508Y35090D2*
X30566Y35119D1*
D2*
X30652Y35205D1*
D2*
Y34603D1*
X30981Y35205D2*
X30895Y35176D1*
D2*
X30866Y35119D1*
D2*
Y35062D1*
D2*
X30895Y35005D1*
D2*
X30952Y34975D1*
D2*
X31067Y34947D1*
D2*
X31153Y34918D1*
D2*
X31210Y34861D1*
D2*
X31239Y34804D1*
D2*
Y34717D1*
D2*
X31210Y34660D1*
D2*
X31182Y34631D1*
D2*
X31096Y34603D1*
D2*
X30981D1*
D2*
X30895Y34631D1*
D2*
X30866Y34660D1*
D2*
X30838Y34717D1*
D2*
Y34804D1*
D2*
X30866Y34861D1*
D2*
X30924Y34918D1*
D2*
X31009Y34947D1*
D2*
X31124Y34975D1*
D2*
X31182Y35005D1*
D2*
X31210Y35062D1*
D2*
Y35119D1*
D2*
X31182Y35176D1*
D2*
X31096Y35205D1*
D2*
X30981D1*
X32650Y34767D2*
X32621Y34824D1*
D2*
X32564Y34882D1*
D2*
X32506Y34910D1*
D2*
X32392D1*
D2*
X32334Y34882D1*
D2*
X32277Y34824D1*
D2*
X32248Y34767D1*
D2*
X32219Y34681D1*
D2*
Y34537D1*
D2*
X32248Y34451D1*
D2*
X32277Y34394D1*
D2*
X32334Y34337D1*
D2*
X32392Y34307D1*
D2*
X32506D1*
D2*
X32564Y34337D1*
D2*
X32621Y34394D1*
D2*
X32650Y34451D1*
X32835Y34795D2*
X32893Y34824D1*
D2*
X32979Y34910D1*
D2*
Y34307D1*
X33538Y34709D2*
X33508Y34623D1*
D2*
X33451Y34565D1*
D2*
X33365Y34537D1*
D2*
X33337D1*
D2*
X33250Y34565D1*
D2*
X33193Y34623D1*
D2*
X33164Y34709D1*
D2*
Y34738D1*
D2*
X33193Y34824D1*
D2*
X33250Y34881D1*
D2*
X33337Y34910D1*
D2*
X33365D1*
D2*
X33451Y34881D1*
D2*
X33508Y34824D1*
D2*
X33538Y34709D1*
D2*
Y34565D1*
D2*
X33508Y34422D1*
D2*
X33451Y34336D1*
D2*
X33365Y34307D1*
D2*
X33308D1*
D2*
X33222Y34336D1*
D2*
X33193Y34394D1*
X11254Y33079D2*
X11226Y33136D1*
D2*
X11168Y33194D1*
D2*
X11111Y33223D1*
D2*
X10996D1*
D2*
X10939Y33194D1*
D2*
X10882Y33136D1*
D2*
X10852Y33079D1*
D2*
X10824Y32993D1*
D2*
Y32849D1*
D2*
X10852Y32764D1*
D2*
X10882Y32706D1*
D2*
X10939Y32649D1*
D2*
X10996Y32620D1*
D2*
X11111D1*
D2*
X11168Y32649D1*
D2*
X11226Y32706D1*
D2*
X11254Y32764D1*
X11469Y33079D2*
Y33107D1*
D2*
X11497Y33165D1*
D2*
X11526Y33193D1*
D2*
X11583Y33222D1*
D2*
X11698D1*
D2*
X11755Y33193D1*
D2*
X11784Y33165D1*
D2*
X11813Y33107D1*
D2*
Y33050D1*
D2*
X11784Y32992D1*
D2*
X11727Y32907D1*
D2*
X11440Y32620D1*
D2*
X11841D1*
X12199Y33222D2*
X12113Y33193D1*
D2*
X12055Y33107D1*
D2*
X12027Y32964D1*
D2*
Y32878D1*
D2*
X12055Y32734D1*
D2*
X12113Y32648D1*
D2*
X12199Y32620D1*
D2*
X12256D1*
D2*
X12342Y32648D1*
D2*
X12399Y32734D1*
D2*
X12429Y32878D1*
D2*
Y32964D1*
D2*
X12399Y33107D1*
D2*
X12342Y33193D1*
D2*
X12256Y33222D1*
D2*
X12199D1*
X12399Y33107D2*
X12055Y32734D1*
X9321Y33079D2*
X9292Y33136D1*
D2*
X9234Y33194D1*
D2*
X9177Y33223D1*
D2*
X9063D1*
D2*
X9005Y33194D1*
D2*
X8948Y33136D1*
D2*
X8919Y33079D1*
D2*
X8890Y32993D1*
D2*
Y32849D1*
D2*
X8919Y32764D1*
D2*
X8948Y32706D1*
D2*
X9005Y32649D1*
D2*
X9063Y32620D1*
D2*
X9177D1*
D2*
X9234Y32649D1*
D2*
X9292Y32706D1*
D2*
X9321Y32764D1*
X9535Y33079D2*
Y33107D1*
D2*
X9564Y33165D1*
D2*
X9592Y33193D1*
D2*
X9650Y33222D1*
D2*
X9764D1*
D2*
X9822Y33193D1*
D2*
X9850Y33165D1*
D2*
X9879Y33107D1*
D2*
Y33050D1*
D2*
X9850Y32992D1*
D2*
X9793Y32907D1*
D2*
X9506Y32620D1*
D2*
X9908D1*
X10093Y33107D2*
X10151Y33136D1*
D2*
X10237Y33222D1*
D2*
Y32620D1*
X34632Y34767D2*
X34603Y34824D1*
D2*
X34545Y34882D1*
D2*
X34488Y34910D1*
D2*
X34374D1*
D2*
X34316Y34882D1*
D2*
X34259Y34824D1*
D2*
X34230Y34767D1*
D2*
X34201Y34681D1*
D2*
Y34537D1*
D2*
X34230Y34451D1*
D2*
X34259Y34394D1*
D2*
X34316Y34337D1*
D2*
X34374Y34307D1*
D2*
X34488D1*
D2*
X34545Y34337D1*
D2*
X34603Y34394D1*
D2*
X34632Y34451D1*
X34846Y34766D2*
Y34795D1*
D2*
X34875Y34853D1*
D2*
X34903Y34881D1*
D2*
X34961Y34910D1*
D2*
X35076D1*
D2*
X35133Y34881D1*
D2*
X35161Y34853D1*
D2*
X35190Y34795D1*
D2*
Y34738D1*
D2*
X35161Y34680D1*
D2*
X35104Y34595D1*
D2*
X34817Y34307D1*
D2*
X35219D1*
X35433Y34766D2*
Y34795D1*
D2*
X35462Y34853D1*
D2*
X35490Y34881D1*
D2*
X35548Y34910D1*
D2*
X35663D1*
D2*
X35720Y34881D1*
D2*
X35748Y34853D1*
D2*
X35778Y34795D1*
D2*
Y34738D1*
D2*
X35748Y34680D1*
D2*
X35691Y34595D1*
D2*
X35404Y34307D1*
D2*
X35806D1*
X17580Y19967D2*
X17551Y20024D1*
D2*
X17494Y20082D1*
D2*
X17437Y20111D1*
D2*
X17322D1*
D2*
X17264Y20082D1*
D2*
X17207Y20024D1*
D2*
X17178Y19967D1*
D2*
X17149Y19881D1*
D2*
Y19737D1*
D2*
X17178Y19652D1*
D2*
X17207Y19594D1*
D2*
X17264Y19537D1*
D2*
X17322Y19508D1*
D2*
X17437D1*
D2*
X17494Y19537D1*
D2*
X17551Y19594D1*
D2*
X17580Y19652D1*
X17794Y19967D2*
Y19995D1*
D2*
X17823Y20053D1*
D2*
X17851Y20081D1*
D2*
X17909Y20110D1*
D2*
X18024D1*
D2*
X18081Y20081D1*
D2*
X18109Y20053D1*
D2*
X18139Y19995D1*
D2*
Y19938D1*
D2*
X18109Y19880D1*
D2*
X18052Y19795D1*
D2*
X17765Y19508D1*
D2*
X18167D1*
X18410Y20110D2*
X18725D1*
D2*
X18553Y19880D1*
D2*
X18640D1*
D2*
X18697Y19852D1*
D2*
X18725Y19823D1*
D2*
X18754Y19737D1*
D2*
Y19680D1*
D2*
X18725Y19594D1*
D2*
X18668Y19536D1*
D2*
X18582Y19508D1*
D2*
X18496D1*
D2*
X18410Y19536D1*
D2*
X18382Y19565D1*
D2*
X18352Y19622D1*
X17503Y25426D2*
X17475Y25483D1*
D2*
X17417Y25541D1*
D2*
X17360Y25569D1*
D2*
X17245D1*
D2*
X17187Y25541D1*
D2*
X17130Y25483D1*
D2*
X17101Y25426D1*
D2*
X17073Y25340D1*
D2*
Y25196D1*
D2*
X17101Y25110D1*
D2*
X17130Y25053D1*
D2*
X17187Y24996D1*
D2*
X17245Y24966D1*
D2*
X17360D1*
D2*
X17417Y24996D1*
D2*
X17475Y25053D1*
D2*
X17503Y25110D1*
X17718Y25425D2*
Y25454D1*
D2*
X17746Y25512D1*
D2*
X17775Y25540D1*
D2*
X17832Y25569D1*
D2*
X17947D1*
D2*
X18004Y25540D1*
D2*
X18033Y25512D1*
D2*
X18062Y25454D1*
D2*
Y25397D1*
D2*
X18033Y25339D1*
D2*
X17976Y25254D1*
D2*
X17688Y24966D1*
D2*
X18090D1*
X18563D2*
Y25569D1*
D2*
X18276Y25167D1*
D2*
X18706D1*
X9892Y26030D2*
X9863Y26087D1*
D2*
X9805Y26145D1*
D2*
X9748Y26174D1*
D2*
X9634D1*
D2*
X9576Y26145D1*
D2*
X9519Y26087D1*
D2*
X9490Y26030D1*
D2*
X9461Y25944D1*
D2*
Y25800D1*
D2*
X9490Y25715D1*
D2*
X9519Y25657D1*
D2*
X9576Y25600D1*
D2*
X9634Y25571D1*
D2*
X9748D1*
D2*
X9805Y25600D1*
D2*
X9863Y25657D1*
D2*
X9892Y25715D1*
X10106Y26030D2*
Y26058D1*
D2*
X10135Y26116D1*
D2*
X10163Y26145D1*
D2*
X10221Y26173D1*
D2*
X10335D1*
D2*
X10393Y26145D1*
D2*
X10421Y26116D1*
D2*
X10450Y26058D1*
D2*
Y26001D1*
D2*
X10421Y25944D1*
D2*
X10364Y25858D1*
D2*
X10077Y25571D1*
D2*
X10479D1*
X11008Y26173D2*
X10722D1*
D2*
X10693Y25915D1*
D2*
X10722Y25944D1*
D2*
X10808Y25973D1*
D2*
X10893D1*
D2*
X10980Y25944D1*
D2*
X11037Y25887D1*
D2*
X11066Y25800D1*
D2*
Y25743D1*
D2*
X11037Y25657D1*
D2*
X10980Y25599D1*
D2*
X10893Y25571D1*
D2*
X10808D1*
D2*
X10722Y25599D1*
D2*
X10693Y25629D1*
D2*
X10664Y25686D1*
X9281Y18300D2*
X9253Y18357D1*
D2*
X9195Y18415D1*
D2*
X9138Y18444D1*
D2*
X9023D1*
D2*
X8965Y18415D1*
D2*
X8908Y18357D1*
D2*
X8879Y18300D1*
D2*
X8851Y18214D1*
D2*
Y18070D1*
D2*
X8879Y17985D1*
D2*
X8908Y17927D1*
D2*
X8965Y17870D1*
D2*
X9023Y17841D1*
D2*
X9138D1*
D2*
X9195Y17870D1*
D2*
X9253Y17927D1*
D2*
X9281Y17985D1*
X9496Y18300D2*
Y18328D1*
D2*
X9524Y18386D1*
D2*
X9553Y18414D1*
D2*
X9610Y18443D1*
D2*
X9725D1*
D2*
X9782Y18414D1*
D2*
X9811Y18386D1*
D2*
X9840Y18328D1*
D2*
Y18271D1*
D2*
X9811Y18213D1*
D2*
X9754Y18128D1*
D2*
X9466Y17841D1*
D2*
X9868D1*
X10398Y18357D2*
X10369Y18414D1*
D2*
X10283Y18443D1*
D2*
X10226D1*
D2*
X10140Y18414D1*
D2*
X10082Y18328D1*
D2*
X10054Y18185D1*
D2*
Y18042D1*
D2*
X10082Y17927D1*
D2*
X10140Y17869D1*
D2*
X10226Y17841D1*
D2*
X10255D1*
D2*
X10340Y17869D1*
D2*
X10398Y17927D1*
D2*
X10426Y18013D1*
D2*
Y18042D1*
D2*
X10398Y18128D1*
D2*
X10340Y18185D1*
D2*
X10255Y18213D1*
D2*
X10226D1*
D2*
X10140Y18185D1*
D2*
X10082Y18128D1*
D2*
X10054Y18042D1*
X16205Y18238D2*
X16176Y18295D1*
D2*
X16119Y18353D1*
D2*
X16061Y18381D1*
D2*
X15947D1*
D2*
X15889Y18353D1*
D2*
X15832Y18295D1*
D2*
X15803Y18238D1*
D2*
X15774Y18152D1*
D2*
Y18008D1*
D2*
X15803Y17922D1*
D2*
X15832Y17864D1*
D2*
X15889Y17807D1*
D2*
X15947Y17778D1*
D2*
X16061D1*
D2*
X16119Y17807D1*
D2*
X16176Y17864D1*
D2*
X16205Y17922D1*
X16419Y18237D2*
Y18266D1*
D2*
X16448Y18323D1*
D2*
X16476Y18352D1*
D2*
X16534Y18380D1*
D2*
X16649D1*
D2*
X16706Y18352D1*
D2*
X16734Y18323D1*
D2*
X16763Y18266D1*
D2*
Y18209D1*
D2*
X16734Y18151D1*
D2*
X16677Y18065D1*
D2*
X16390Y17778D1*
D2*
X16792D1*
X17092D2*
X17379Y18380D1*
D2*
X16977D1*
X17518Y27489D2*
X17489Y27546D1*
D2*
X17431Y27604D1*
D2*
X17374Y27632D1*
D2*
X17260D1*
D2*
X17202Y27604D1*
D2*
X17145Y27546D1*
D2*
X17116Y27489D1*
D2*
X17087Y27403D1*
D2*
Y27259D1*
D2*
X17116Y27173D1*
D2*
X17145Y27115D1*
D2*
X17202Y27058D1*
D2*
X17260Y27029D1*
D2*
X17374D1*
D2*
X17431Y27058D1*
D2*
X17489Y27115D1*
D2*
X17518Y27173D1*
X17732Y27488D2*
Y27517D1*
D2*
X17761Y27574D1*
D2*
X17789Y27603D1*
D2*
X17847Y27631D1*
D2*
X17962D1*
D2*
X18019Y27603D1*
D2*
X18047Y27574D1*
D2*
X18076Y27517D1*
D2*
Y27460D1*
D2*
X18047Y27402D1*
D2*
X17990Y27316D1*
D2*
X17703Y27029D1*
D2*
X18105D1*
X18433Y27631D2*
X18348Y27603D1*
D2*
X18319Y27546D1*
D2*
Y27488D1*
D2*
X18348Y27431D1*
D2*
X18405Y27402D1*
D2*
X18520Y27373D1*
D2*
X18606Y27345D1*
D2*
X18663Y27287D1*
D2*
X18691Y27230D1*
D2*
Y27144D1*
D2*
X18663Y27087D1*
D2*
X18634Y27058D1*
D2*
X18548Y27029D1*
D2*
X18433D1*
D2*
X18348Y27058D1*
D2*
X18319Y27087D1*
D2*
X18290Y27144D1*
D2*
Y27230D1*
D2*
X18319Y27287D1*
D2*
X18376Y27345D1*
D2*
X18462Y27373D1*
D2*
X18577Y27402D1*
D2*
X18634Y27431D1*
D2*
X18663Y27488D1*
D2*
Y27546D1*
D2*
X18634Y27603D1*
D2*
X18548Y27631D1*
D2*
X18433D1*
X13628Y28785D2*
X13599Y28842D1*
D2*
X13542Y28900D1*
D2*
X13485Y28928D1*
D2*
X13370D1*
D2*
X13312Y28900D1*
D2*
X13255Y28842D1*
D2*
X13226Y28785D1*
D2*
X13197Y28699D1*
D2*
Y28555D1*
D2*
X13226Y28469D1*
D2*
X13255Y28412D1*
D2*
X13312Y28355D1*
D2*
X13370Y28325D1*
D2*
X13485D1*
D2*
X13542Y28355D1*
D2*
X13599Y28412D1*
D2*
X13628Y28469D1*
X13842Y28784D2*
Y28813D1*
D2*
X13871Y28871D1*
D2*
X13899Y28899D1*
D2*
X13957Y28928D1*
D2*
X14072D1*
D2*
X14129Y28899D1*
D2*
X14157Y28871D1*
D2*
X14187Y28813D1*
D2*
Y28756D1*
D2*
X14157Y28698D1*
D2*
X14100Y28613D1*
D2*
X13813Y28325D1*
D2*
X14215D1*
X14774Y28727D2*
X14745Y28641D1*
D2*
X14688Y28583D1*
D2*
X14601Y28555D1*
D2*
X14573D1*
D2*
X14487Y28583D1*
D2*
X14430Y28641D1*
D2*
X14400Y28727D1*
D2*
Y28756D1*
D2*
X14430Y28842D1*
D2*
X14487Y28899D1*
D2*
X14573Y28928D1*
D2*
X14601D1*
D2*
X14688Y28899D1*
D2*
X14745Y28842D1*
D2*
X14774Y28727D1*
D2*
Y28583D1*
D2*
X14745Y28440D1*
D2*
X14688Y28354D1*
D2*
X14601Y28325D1*
D2*
X14544D1*
D2*
X14458Y28354D1*
D2*
X14430Y28412D1*
X24287Y24206D2*
X24230Y24177D1*
D2*
X24173Y24119D1*
D2*
X24144Y24062D1*
D2*
Y23948D1*
D2*
X24173Y23890D1*
D2*
X24230Y23833D1*
D2*
X24287Y23804D1*
D2*
X24374Y23775D1*
D2*
X24517D1*
D2*
X24603Y23804D1*
D2*
X24661Y23833D1*
D2*
X24718Y23890D1*
D2*
X24747Y23948D1*
D2*
Y24062D1*
D2*
X24718Y24119D1*
D2*
X24661Y24177D1*
D2*
X24603Y24206D1*
X24145Y24449D2*
Y24764D1*
D2*
X24374Y24592D1*
D2*
Y24678D1*
D2*
X24403Y24735D1*
D2*
X24431Y24764D1*
D2*
X24517Y24793D1*
D2*
X24575D1*
D2*
X24661Y24764D1*
D2*
X24718Y24707D1*
D2*
X24747Y24620D1*
D2*
Y24534D1*
D2*
X24718Y24449D1*
D2*
X24689Y24420D1*
D2*
X24632Y24391D1*
X24145Y25150D2*
X24173Y25064D1*
D2*
X24259Y25007D1*
D2*
X24403Y24978D1*
D2*
X24489D1*
D2*
X24632Y25007D1*
D2*
X24718Y25064D1*
D2*
X24747Y25150D1*
D2*
Y25208D1*
D2*
X24718Y25294D1*
D2*
X24632Y25351D1*
D2*
X24489Y25380D1*
D2*
X24403D1*
D2*
X24259Y25351D1*
D2*
X24173Y25294D1*
D2*
X24145Y25208D1*
D2*
Y25150D1*
X24259Y25351D2*
X24632Y25007D1*
X24122Y10201D2*
Y9598D1*
D2*
X24323D1*
D2*
X24409Y9627D1*
D2*
X24467Y9684D1*
D2*
X24495Y9742D1*
D2*
X24524Y9827D1*
D2*
Y9971D1*
D2*
X24495Y10058D1*
D2*
X24467Y10115D1*
D2*
X24409Y10172D1*
D2*
X24323Y10201D1*
D2*
X24122D1*
X24709Y10085D2*
X24767Y10115D1*
D2*
X24853Y10200D1*
D2*
Y9598D1*
X7252Y29016D2*
X7855D1*
D2*
Y29217D1*
D2*
X7826Y29303D1*
D2*
X7769Y29361D1*
D2*
X7711Y29389D1*
D2*
X7625Y29418D1*
D2*
X7481D1*
D2*
X7395Y29389D1*
D2*
X7338Y29361D1*
D2*
X7280Y29303D1*
D2*
X7252Y29217D1*
D2*
Y29016D1*
X7396Y29632D2*
X7367D1*
D2*
X7310Y29661D1*
D2*
X7281Y29689D1*
D2*
X7253Y29747D1*
D2*
Y29862D1*
D2*
X7281Y29919D1*
D2*
X7310Y29947D1*
D2*
X7367Y29976D1*
D2*
X7424D1*
D2*
X7482Y29947D1*
D2*
X7568Y29890D1*
D2*
X7855Y29603D1*
D2*
Y30005D1*
X29968Y19882D2*
Y19279D1*
D2*
X30169D1*
D2*
X30256Y19308D1*
D2*
X30313Y19365D1*
D2*
X30342Y19423D1*
D2*
X30370Y19508D1*
D2*
Y19652D1*
D2*
X30342Y19738D1*
D2*
X30313Y19795D1*
D2*
X30256Y19853D1*
D2*
X30169Y19882D1*
D2*
X29968D1*
X30613Y19881D2*
X30928D1*
D2*
X30757Y19651D1*
D2*
X30843D1*
D2*
X30900Y19623D1*
D2*
X30928Y19594D1*
D2*
X30957Y19508D1*
D2*
Y19451D1*
D2*
X30928Y19365D1*
D2*
X30871Y19307D1*
D2*
X30785Y19279D1*
D2*
X30699D1*
D2*
X30613Y19307D1*
D2*
X30585Y19336D1*
D2*
X30556Y19393D1*
X29954Y16172D2*
Y15569D1*
D2*
X30155D1*
D2*
X30241Y15599D1*
D2*
X30299Y15656D1*
D2*
X30328Y15713D1*
D2*
X30356Y15799D1*
D2*
Y15943D1*
D2*
X30328Y16029D1*
D2*
X30299Y16086D1*
D2*
X30241Y16144D1*
D2*
X30155Y16172D1*
D2*
X29954D1*
X30829Y15569D2*
Y16172D1*
D2*
X30541Y15770D1*
D2*
X30972D1*
X14842Y6567D2*
Y5964D1*
D2*
X15043D1*
D2*
X15129Y5993D1*
D2*
X15187Y6050D1*
D2*
X15215Y6108D1*
D2*
X15244Y6194D1*
D2*
Y6338D1*
D2*
X15215Y6424D1*
D2*
X15187Y6481D1*
D2*
X15129Y6539D1*
D2*
X15043Y6567D1*
D2*
X14842D1*
X15773Y6566D2*
X15487D1*
D2*
X15458Y6308D1*
D2*
X15487Y6337D1*
D2*
X15573Y6366D1*
D2*
X15659D1*
D2*
X15745Y6337D1*
D2*
X15803Y6280D1*
D2*
X15831Y6194D1*
D2*
Y6137D1*
D2*
X15803Y6050D1*
D2*
X15745Y5993D1*
D2*
X15659Y5964D1*
D2*
X15573D1*
D2*
X15487Y5993D1*
D2*
X15458Y6022D1*
D2*
X15429Y6079D1*
X18515Y30554D2*
Y29952D1*
D2*
X18716D1*
D2*
X18802Y29981D1*
D2*
X18860Y30038D1*
D2*
X18888Y30096D1*
D2*
X18917Y30181D1*
D2*
Y30325D1*
D2*
X18888Y30411D1*
D2*
X18860Y30468D1*
D2*
X18802Y30526D1*
D2*
X18716Y30554D1*
D2*
X18515D1*
X19446Y30468D2*
X19418Y30525D1*
D2*
X19331Y30554D1*
D2*
X19274D1*
D2*
X19188Y30525D1*
D2*
X19130Y30439D1*
D2*
X19102Y30296D1*
D2*
Y30153D1*
D2*
X19130Y30038D1*
D2*
X19188Y29980D1*
D2*
X19274Y29952D1*
D2*
X19303D1*
D2*
X19388Y29980D1*
D2*
X19446Y30038D1*
D2*
X19475Y30124D1*
D2*
Y30153D1*
D2*
X19446Y30239D1*
D2*
X19388Y30296D1*
D2*
X19303Y30324D1*
D2*
X19274D1*
D2*
X19188Y30296D1*
D2*
X19130Y30239D1*
D2*
X19102Y30153D1*
X14842Y2858D2*
Y2256D1*
D2*
X15043D1*
D2*
X15129Y2285D1*
D2*
X15187Y2342D1*
D2*
X15215Y2399D1*
D2*
X15244Y2485D1*
D2*
Y2629D1*
D2*
X15215Y2715D1*
D2*
X15187Y2772D1*
D2*
X15129Y2830D1*
D2*
X15043Y2858D1*
D2*
X14842D1*
X15544Y2256D2*
X15831Y2858D1*
D2*
X15429D1*
X35880Y18299D2*
X35507D1*
D2*
Y17696D1*
D2*
X35880D1*
X35507Y18012D2*
X35736D1*
X36065Y18299D2*
X36467Y17696D1*
Y18299D2*
X36065Y17696D1*
X36853Y18299D2*
Y17696D1*
X36652Y18299D2*
X37054D1*
X37239D2*
Y17869D1*
D2*
X37268Y17783D1*
D2*
X37326Y17725D1*
D2*
X37412Y17696D1*
D2*
X37469D1*
D2*
X37555Y17725D1*
D2*
X37613Y17783D1*
D2*
X37641Y17869D1*
D2*
Y18299D1*
X38228D2*
Y17696D1*
D2*
X37827Y18299D1*
D2*
Y17696D1*
X38414Y18299D2*
Y17696D1*
X38800Y18299D2*
Y17696D1*
X38599Y18299D2*
X39001D1*
X4863Y35249D2*
X4490D1*
D2*
Y34646D1*
Y34962D2*
X4719D1*
X5048Y35134D2*
X5106Y35163D1*
D2*
X5192Y35249D1*
D2*
Y34646D1*
X17347Y13265D2*
Y12663D1*
X17963Y13122D2*
X17934Y13179D1*
D2*
X17877Y13237D1*
D2*
X17820Y13265D1*
D2*
X17705D1*
D2*
X17647Y13237D1*
D2*
X17590Y13179D1*
D2*
X17561Y13122D1*
D2*
X17532Y13036D1*
D2*
Y12892D1*
D2*
X17561Y12806D1*
D2*
X17590Y12749D1*
D2*
X17647Y12692D1*
D2*
X17705Y12663D1*
D2*
X17820D1*
D2*
X17877Y12692D1*
D2*
X17934Y12749D1*
D2*
X17963Y12806D1*
X18148Y13150D2*
X18206Y13179D1*
D2*
X18292Y13265D1*
D2*
Y12663D1*
X2104Y9254D2*
Y8795D1*
D2*
X2076Y8709D1*
D2*
X2047Y8681D1*
D2*
X1989Y8652D1*
D2*
X1932D1*
D2*
X1875Y8681D1*
D2*
X1846Y8709D1*
D2*
X1817Y8795D1*
D2*
Y8853D1*
X2289Y9139D2*
X2347Y9168D1*
D2*
X2433Y9254D1*
D2*
Y8652D1*
X36968Y9830D2*
Y9371D1*
D2*
X36940Y9284D1*
D2*
X36910Y9256D1*
D2*
X36853Y9227D1*
D2*
X36796D1*
D2*
X36739Y9256D1*
D2*
X36710Y9284D1*
D2*
X36681Y9371D1*
D2*
Y9428D1*
X37183Y9686D2*
Y9714D1*
D2*
X37211Y9772D1*
D2*
X37240Y9800D1*
D2*
X37297Y9829D1*
D2*
X37412D1*
D2*
X37469Y9800D1*
D2*
X37498Y9772D1*
D2*
X37527Y9714D1*
D2*
Y9657D1*
D2*
X37498Y9599D1*
D2*
X37441Y9514D1*
D2*
X37153Y9227D1*
D2*
X37555D1*
X20227Y6817D2*
Y6358D1*
D2*
X20199Y6271D1*
D2*
X20169Y6243D1*
D2*
X20112Y6214D1*
D2*
X20055D1*
D2*
X19998Y6243D1*
D2*
X19969Y6271D1*
D2*
X19940Y6358D1*
D2*
Y6415D1*
X20470Y6816D2*
X20785D1*
D2*
X20613Y6587D1*
D2*
X20699D1*
D2*
X20757Y6558D1*
D2*
X20785Y6529D1*
D2*
X20814Y6443D1*
D2*
Y6386D1*
D2*
X20785Y6300D1*
D2*
X20728Y6242D1*
D2*
X20642Y6214D1*
D2*
X20556D1*
D2*
X20470Y6242D1*
D2*
X20441Y6271D1*
D2*
X20412Y6329D1*
X23007Y22212D2*
Y21609D1*
X23409Y22212D2*
X23007Y21810D1*
X23150Y21954D2*
X23409Y21609D1*
X23594Y22097D2*
X23652Y22126D1*
D2*
X23738Y22212D1*
D2*
Y21609D1*
X8517Y5333D2*
X9120D1*
X8517Y5735D2*
X8919Y5333D1*
X8775Y5476D2*
X9120Y5735D1*
X8718Y6293D2*
X8804Y6264D1*
D2*
X8862Y6207D1*
D2*
X8890Y6121D1*
D2*
Y6092D1*
D2*
X8862Y6006D1*
D2*
X8804Y5949D1*
D2*
X8718Y5920D1*
D2*
X8689D1*
D2*
X8603Y5949D1*
D2*
X8546Y6006D1*
D2*
X8517Y6092D1*
D2*
Y6121D1*
D2*
X8546Y6207D1*
D2*
X8603Y6264D1*
D2*
X8718Y6293D1*
D2*
X8862D1*
D2*
X9005Y6264D1*
D2*
X9091Y6207D1*
D2*
X9120Y6121D1*
D2*
Y6064D1*
D2*
X9091Y5978D1*
D2*
X9033Y5949D1*
X8454Y3029D2*
X9057D1*
X8454Y3431D2*
X8856Y3029D1*
X8712Y3172D2*
X9057Y3431D1*
X8570Y3616D2*
X8540Y3674D1*
D2*
X8455Y3760D1*
D2*
X9057D1*
X8455Y4118D2*
X8483Y4031D1*
D2*
X8570Y3974D1*
D2*
X8713Y3945D1*
D2*
X8799D1*
D2*
X8942Y3974D1*
D2*
X9029Y4031D1*
D2*
X9057Y4118D1*
D2*
Y4175D1*
D2*
X9029Y4261D1*
D2*
X8942Y4318D1*
D2*
X8799Y4347D1*
D2*
X8713D1*
D2*
X8570Y4318D1*
D2*
X8483Y4261D1*
D2*
X8455Y4175D1*
D2*
Y4118D1*
X8570Y4318D2*
X8942Y3974D1*
X22930Y35101D2*
Y34498D1*
D2*
X23274D1*
X23489Y34957D2*
Y34985D1*
D2*
X23517Y35043D1*
D2*
X23546Y35071D1*
D2*
X23604Y35100D1*
D2*
X23718D1*
D2*
X23775Y35071D1*
D2*
X23804Y35043D1*
D2*
X23833Y34985D1*
D2*
Y34928D1*
D2*
X23804Y34870D1*
D2*
X23747Y34785D1*
D2*
X23460Y34498D1*
D2*
X23862D1*
X11273Y16340D2*
X11532D1*
D2*
X11617Y16369D1*
D2*
X11646Y16398D1*
D2*
X11675Y16455D1*
D2*
Y16541D1*
D2*
X11646Y16598D1*
D2*
X11617Y16627D1*
D2*
X11532Y16656D1*
D2*
X11273D1*
D2*
Y16053D1*
X11860Y16656D2*
Y16053D1*
D2*
X12119D1*
D2*
X12205Y16082D1*
D2*
X12234Y16111D1*
D2*
X12262Y16168D1*
D2*
Y16254D1*
D2*
X12234Y16312D1*
D2*
X12205Y16340D1*
D2*
X12119Y16369D1*
D2*
X12205Y16398D1*
D2*
X12234Y16426D1*
D2*
X12262Y16483D1*
D2*
Y16541D1*
D2*
X12234Y16598D1*
D2*
X12205Y16627D1*
D2*
X12119Y16656D1*
D2*
X11860D1*
Y16369D2*
X12119D1*
X12447Y16540D2*
X12505Y16570D1*
D2*
X12591Y16655D1*
D2*
Y16053D1*
X24205Y4865D2*
X24148Y4837D1*
D2*
X24090Y4779D1*
D2*
X24062Y4721D1*
D2*
X24032Y4635D1*
D2*
Y4492D1*
D2*
X24062Y4406D1*
D2*
X24090Y4349D1*
D2*
X24148Y4291D1*
D2*
X24205Y4262D1*
D2*
X24320D1*
D2*
X24377Y4291D1*
D2*
X24434Y4349D1*
D2*
X24463Y4406D1*
D2*
X24492Y4492D1*
D2*
Y4635D1*
D2*
X24463Y4721D1*
D2*
X24434Y4779D1*
D2*
X24377Y4837D1*
D2*
X24320Y4865D1*
D2*
X24205D1*
X24291Y4377D2*
X24463Y4205D1*
X24677Y4749D2*
X24735Y4778D1*
D2*
X24821Y4864D1*
D2*
Y4262D1*
X14447Y16326D2*
X14705D1*
D2*
X14792Y16355D1*
D2*
X14821Y16384D1*
D2*
X14849Y16441D1*
D2*
Y16498D1*
D2*
X14821Y16555D1*
D2*
X14792Y16585D1*
D2*
X14705Y16613D1*
D2*
X14447D1*
D2*
Y16010D1*
X14648Y16326D2*
X14849Y16010D1*
X15035Y16498D2*
X15092Y16527D1*
D2*
X15179Y16612D1*
D2*
Y16010D1*
X9130Y15653D2*
X9388D1*
D2*
X9475Y15683D1*
D2*
X9504Y15711D1*
D2*
X9532Y15768D1*
D2*
Y15826D1*
D2*
X9504Y15883D1*
D2*
X9475Y15912D1*
D2*
X9388Y15940D1*
D2*
X9130D1*
D2*
Y15338D1*
X9331Y15653D2*
X9532Y15338D1*
X9747Y15797D2*
Y15825D1*
D2*
X9775Y15883D1*
D2*
X9804Y15911D1*
D2*
X9861Y15940D1*
D2*
X9976D1*
D2*
X10033Y15911D1*
D2*
X10062Y15883D1*
D2*
X10091Y15825D1*
D2*
Y15768D1*
D2*
X10062Y15710D1*
D2*
X10005Y15625D1*
D2*
X9718Y15338D1*
D2*
X10119D1*
X28561Y2275D2*
X28819D1*
D2*
X28905Y2305D1*
D2*
X28934Y2333D1*
D2*
X28963Y2390D1*
D2*
Y2448D1*
D2*
X28934Y2505D1*
D2*
X28905Y2534D1*
D2*
X28819Y2563D1*
D2*
X28561D1*
D2*
Y1960D1*
X28762Y2275D2*
X28963Y1960D1*
X29148Y2563D2*
Y1960D1*
D2*
X29492D1*
X29678Y2563D2*
X29907Y2275D1*
D2*
Y1960D1*
X30137Y2563D2*
X29907Y2275D1*
X30322Y2447D2*
X30380Y2476D1*
D2*
X30466Y2562D1*
D2*
Y1960D1*
X8370Y4242D2*
Y4500D1*
D2*
X8341Y4586D1*
D2*
X8313Y4615D1*
D2*
X8256Y4644D1*
D2*
X8198D1*
D2*
X8141Y4615D1*
D2*
X8112Y4586D1*
D2*
X8083Y4500D1*
D2*
Y4242D1*
D2*
X8686D1*
X8370Y4443D2*
X8686Y4644D1*
Y5116D2*
X8084D1*
D2*
X8485Y4829D1*
D2*
Y5259D1*
X23809Y6963D2*
X24067D1*
D2*
X24153Y6992D1*
D2*
X24182Y7021D1*
D2*
X24211Y7078D1*
D2*
Y7135D1*
D2*
X24182Y7192D1*
D2*
X24153Y7222D1*
D2*
X24067Y7250D1*
D2*
X23809D1*
D2*
Y6647D1*
X24010Y6963D2*
X24211Y6647D1*
X24740Y7249D2*
X24454D1*
D2*
X24425Y6991D1*
D2*
X24454Y7020D1*
D2*
X24540Y7049D1*
D2*
X24625D1*
D2*
X24712Y7020D1*
D2*
X24769Y6963D1*
D2*
X24798Y6877D1*
D2*
Y6820D1*
D2*
X24769Y6733D1*
D2*
X24712Y6676D1*
D2*
X24625Y6647D1*
D2*
X24540D1*
D2*
X24454Y6676D1*
D2*
X24425Y6705D1*
D2*
X24396Y6762D1*
X32192Y16278D2*
X32450D1*
D2*
X32536Y16308D1*
D2*
X32566Y16336D1*
D2*
X32594Y16393D1*
D2*
Y16451D1*
D2*
X32566Y16508D1*
D2*
X32536Y16537D1*
D2*
X32450Y16566D1*
D2*
X32192D1*
D2*
Y15963D1*
X32393Y16278D2*
X32594Y15963D1*
X33124Y16479D2*
X33095Y16536D1*
D2*
X33009Y16565D1*
D2*
X32952D1*
D2*
X32866Y16536D1*
D2*
X32808Y16450D1*
D2*
X32779Y16307D1*
D2*
Y16164D1*
D2*
X32808Y16049D1*
D2*
X32866Y15991D1*
D2*
X32952Y15963D1*
D2*
X32980D1*
D2*
X33066Y15991D1*
D2*
X33124Y16049D1*
D2*
X33152Y16135D1*
D2*
Y16164D1*
D2*
X33124Y16250D1*
D2*
X33066Y16307D1*
D2*
X32980Y16336D1*
D2*
X32952D1*
D2*
X32866Y16307D1*
D2*
X32808Y16250D1*
D2*
X32779Y16164D1*
X32178Y19201D2*
X32436D1*
D2*
X32522Y19230D1*
D2*
X32551Y19259D1*
D2*
X32580Y19316D1*
D2*
Y19374D1*
D2*
X32551Y19431D1*
D2*
X32522Y19460D1*
D2*
X32436Y19488D1*
D2*
X32178D1*
D2*
Y18885D1*
X32379Y19201D2*
X32580Y18885D1*
X32880D2*
X33167Y19488D1*
D2*
X32765D1*
X16882Y5950D2*
X17140D1*
D2*
X17227Y5979D1*
D2*
X17256Y6008D1*
D2*
X17284Y6065D1*
D2*
Y6123D1*
D2*
X17256Y6180D1*
D2*
X17227Y6209D1*
D2*
X17140Y6237D1*
D2*
X16882D1*
D2*
Y5635D1*
X17083Y5950D2*
X17284Y5635D1*
X17613Y6237D2*
X17527Y6208D1*
D2*
X17498Y6151D1*
D2*
Y6094D1*
D2*
X17527Y6037D1*
D2*
X17584Y6007D1*
D2*
X17699Y5979D1*
D2*
X17785Y5950D1*
D2*
X17842Y5893D1*
D2*
X17871Y5836D1*
D2*
Y5749D1*
D2*
X17842Y5692D1*
D2*
X17814Y5663D1*
D2*
X17728Y5635D1*
D2*
X17613D1*
D2*
X17527Y5663D1*
D2*
X17498Y5692D1*
D2*
X17470Y5749D1*
D2*
Y5836D1*
D2*
X17498Y5893D1*
D2*
X17556Y5950D1*
D2*
X17641Y5979D1*
D2*
X17756Y6007D1*
D2*
X17814Y6037D1*
D2*
X17842Y6094D1*
D2*
Y6151D1*
D2*
X17814Y6208D1*
D2*
X17728Y6237D1*
D2*
X17613D1*
X16896Y2902D2*
X17154D1*
D2*
X17241Y2932D1*
D2*
X17270Y2960D1*
D2*
X17298Y3017D1*
D2*
Y3075D1*
D2*
X17270Y3132D1*
D2*
X17241Y3161D1*
D2*
X17154Y3190D1*
D2*
X16896D1*
D2*
Y2587D1*
X17097Y2902D2*
X17298Y2587D1*
X17857Y2989D2*
X17828Y2902D1*
D2*
X17771Y2845D1*
D2*
X17684Y2816D1*
D2*
X17656D1*
D2*
X17570Y2845D1*
D2*
X17513Y2902D1*
D2*
X17484Y2989D1*
D2*
Y3017D1*
D2*
X17513Y3103D1*
D2*
X17570Y3160D1*
D2*
X17656Y3189D1*
D2*
X17684D1*
D2*
X17771Y3160D1*
D2*
X17828Y3103D1*
D2*
X17857Y2989D1*
D2*
Y2845D1*
D2*
X17828Y2701D1*
D2*
X17771Y2615D1*
D2*
X17684Y2587D1*
D2*
X17627D1*
D2*
X17541Y2615D1*
D2*
X17513Y2673D1*
X5465Y15591D2*
X5723D1*
D2*
X5810Y15620D1*
D2*
X5839Y15648D1*
D2*
X5867Y15705D1*
D2*
Y15763D1*
D2*
X5839Y15820D1*
D2*
X5810Y15849D1*
D2*
X5723Y15878D1*
D2*
X5465D1*
D2*
Y15275D1*
X5666Y15591D2*
X5867Y15275D1*
X6053Y15762D2*
X6110Y15792D1*
D2*
X6196Y15877D1*
D2*
Y15275D1*
X6554Y15877D2*
X6468Y15849D1*
D2*
X6410Y15762D1*
D2*
X6382Y15619D1*
D2*
Y15533D1*
D2*
X6410Y15390D1*
D2*
X6468Y15304D1*
D2*
X6554Y15275D1*
D2*
X6611D1*
D2*
X6697Y15304D1*
D2*
X6754Y15390D1*
D2*
X6784Y15533D1*
D2*
Y15619D1*
D2*
X6754Y15762D1*
D2*
X6697Y15849D1*
D2*
X6611Y15877D1*
D2*
X6554D1*
X6754Y15762D2*
X6410Y15390D1*
X2037Y33358D2*
X1980Y33416D1*
D2*
X1893Y33444D1*
D2*
X1779D1*
D2*
X1692Y33416D1*
D2*
X1635Y33358D1*
D2*
Y33301D1*
D2*
X1664Y33244D1*
D2*
X1692Y33215D1*
D2*
X1749Y33186D1*
D2*
X1922Y33129D1*
D2*
X1980Y33100D1*
D2*
X2008Y33071D1*
D2*
X2037Y33014D1*
D2*
Y32928D1*
D2*
X1980Y32871D1*
D2*
X1893Y32842D1*
D2*
X1779D1*
D2*
X1692Y32871D1*
D2*
X1635Y32928D1*
X2222Y33329D2*
X2280Y33358D1*
D2*
X2366Y33444D1*
D2*
Y32842D1*
X1527Y15924D2*
X1470Y15982D1*
D2*
X1384Y16011D1*
D2*
X1269D1*
D2*
X1183Y15982D1*
D2*
X1125Y15924D1*
D2*
Y15867D1*
D2*
X1154Y15810D1*
D2*
X1183Y15781D1*
D2*
X1240Y15753D1*
D2*
X1412Y15695D1*
D2*
X1470Y15666D1*
D2*
X1498Y15637D1*
D2*
X1527Y15580D1*
D2*
Y15494D1*
D2*
X1470Y15437D1*
D2*
X1384Y15408D1*
D2*
X1269D1*
D2*
X1183Y15437D1*
D2*
X1125Y15494D1*
X1712Y15637D2*
X2056D1*
D2*
Y15695D1*
D2*
X2028Y15753D1*
D2*
X1999Y15781D1*
D2*
X1942Y15810D1*
D2*
X1855D1*
D2*
X1798Y15781D1*
D2*
X1741Y15724D1*
D2*
X1712Y15637D1*
D2*
Y15580D1*
D2*
X1741Y15494D1*
D2*
X1798Y15437D1*
D2*
X1855Y15408D1*
D2*
X1942D1*
D2*
X1999Y15437D1*
D2*
X2056Y15494D1*
X2242Y15810D2*
Y15408D1*
Y15637D2*
X2271Y15724D1*
D2*
X2328Y15781D1*
D2*
X2386Y15810D1*
D2*
X2472D1*
X2657Y16011D2*
X2686Y15982D1*
D2*
X2715Y16011D1*
D2*
X2686Y16040D1*
D2*
X2657Y16011D1*
X2686Y15810D2*
Y15408D1*
X3244Y15810D2*
Y15408D1*
Y15724D2*
X3187Y15781D1*
D2*
X3130Y15810D1*
D2*
X3044D1*
D2*
X2986Y15781D1*
D2*
X2929Y15724D1*
D2*
X2900Y15637D1*
D2*
Y15580D1*
D2*
X2929Y15494D1*
D2*
X2986Y15437D1*
D2*
X3044Y15408D1*
D2*
X3130D1*
D2*
X3187Y15437D1*
D2*
X3244Y15494D1*
X3430Y16011D2*
Y15408D1*
X3615Y15895D2*
X3673Y15924D1*
D2*
X3759Y16010D1*
D2*
Y15408D1*
X6790Y1499D2*
Y896D1*
X6589Y1499D2*
X6991D1*
X7177D2*
X7406Y896D1*
D2*
X7635Y1499D1*
X8223Y1413D2*
X8166Y1470D1*
D2*
X8079Y1499D1*
D2*
X7965D1*
D2*
X7878Y1470D1*
D2*
X7821Y1413D1*
D2*
Y1356D1*
D2*
X7850Y1298D1*
D2*
X7878Y1270D1*
D2*
X7935Y1241D1*
D2*
X8108Y1183D1*
D2*
X8166Y1155D1*
D2*
X8194Y1126D1*
D2*
X8223Y1069D1*
D2*
Y982D1*
D2*
X8166Y925D1*
D2*
X8079Y896D1*
D2*
X7965D1*
D2*
X7878Y925D1*
D2*
X7821Y982D1*
X8408Y1384D2*
X8466Y1413D1*
D2*
X8552Y1498D1*
D2*
Y896D1*
X6599Y8740D2*
Y8137D1*
X6398Y8740D2*
X6800D1*
X6985D2*
X7214Y8137D1*
D2*
X7444Y8740D1*
X8031Y8653D2*
X7974Y8711D1*
D2*
X7888Y8740D1*
D2*
X7773D1*
D2*
X7687Y8711D1*
D2*
X7629Y8653D1*
D2*
Y8596D1*
D2*
X7658Y8539D1*
D2*
X7687Y8510D1*
D2*
X7744Y8482D1*
D2*
X7916Y8424D1*
D2*
X7974Y8395D1*
D2*
X8003Y8366D1*
D2*
X8031Y8309D1*
D2*
Y8223D1*
D2*
X7974Y8166D1*
D2*
X7888Y8137D1*
D2*
X7773D1*
D2*
X7687Y8166D1*
D2*
X7629Y8223D1*
X8246Y8596D2*
Y8624D1*
D2*
X8274Y8682D1*
D2*
X8303Y8710D1*
D2*
X8360Y8739D1*
D2*
X8475D1*
D2*
X8532Y8710D1*
D2*
X8561Y8682D1*
D2*
X8590Y8624D1*
D2*
Y8567D1*
D2*
X8561Y8510D1*
D2*
X8504Y8424D1*
D2*
X8216Y8137D1*
D2*
X8618D1*
X3011Y28539D2*
X3614D1*
X3011Y28338D2*
Y28740D1*
Y28925D2*
X3614Y29154D1*
D2*
X3011Y29384D1*
X3098Y29971D2*
X3040Y29914D1*
D2*
X3011Y29828D1*
D2*
Y29713D1*
D2*
X3040Y29627D1*
D2*
X3098Y29569D1*
D2*
X3155D1*
D2*
X3212Y29598D1*
D2*
X3241Y29627D1*
D2*
X3269Y29684D1*
D2*
X3327Y29856D1*
D2*
X3356Y29914D1*
D2*
X3385Y29943D1*
D2*
X3442Y29971D1*
D2*
X3528D1*
D2*
X3585Y29914D1*
D2*
X3614Y29828D1*
D2*
Y29713D1*
D2*
X3585Y29627D1*
D2*
X3528Y29569D1*
X3012Y30501D2*
Y30214D1*
D2*
X3270Y30186D1*
D2*
X3242Y30214D1*
D2*
X3212Y30300D1*
D2*
Y30386D1*
D2*
X3242Y30472D1*
D2*
X3299Y30530D1*
D2*
X3385Y30558D1*
D2*
X3442D1*
D2*
X3528Y30530D1*
D2*
X3586Y30472D1*
D2*
X3614Y30386D1*
D2*
Y30300D1*
D2*
X3586Y30214D1*
D2*
X3557Y30186D1*
D2*
X3500Y30156D1*
X17385Y35204D2*
Y34773D1*
D2*
X17413Y34687D1*
D2*
X17471Y34630D1*
D2*
X17557Y34601D1*
D2*
X17614D1*
D2*
X17700Y34630D1*
D2*
X17758Y34687D1*
D2*
X17787Y34773D1*
D2*
Y35204D1*
X17972Y35088D2*
X18030Y35117D1*
D2*
X18116Y35203D1*
D2*
Y34601D1*
X30237Y25015D2*
Y24585D1*
D2*
X30265Y24498D1*
D2*
X30323Y24441D1*
D2*
X30409Y24412D1*
D2*
X30466D1*
D2*
X30553Y24441D1*
D2*
X30610Y24498D1*
D2*
X30639Y24585D1*
D2*
Y25015D1*
X30853Y24871D2*
Y24900D1*
D2*
X30882Y24957D1*
D2*
X30910Y24986D1*
D2*
X30968Y25014D1*
D2*
X31083D1*
D2*
X31140Y24986D1*
D2*
X31168Y24957D1*
D2*
X31197Y24900D1*
D2*
Y24843D1*
D2*
X31168Y24785D1*
D2*
X31111Y24699D1*
D2*
X30824Y24412D1*
D2*
X31226D1*
X10855Y6331D2*
Y5900D1*
D2*
X10883Y5814D1*
D2*
X10941Y5757D1*
D2*
X11027Y5728D1*
D2*
X11084D1*
D2*
X11171Y5757D1*
D2*
X11228Y5814D1*
D2*
X11257Y5900D1*
D2*
Y6331D1*
X11500Y6330D2*
X11815D1*
D2*
X11643Y6101D1*
D2*
X11729D1*
D2*
X11786Y6072D1*
D2*
X11815Y6044D1*
D2*
X11844Y5957D1*
D2*
Y5900D1*
D2*
X11815Y5814D1*
D2*
X11758Y5756D1*
D2*
X11672Y5728D1*
D2*
X11585D1*
D2*
X11500Y5756D1*
D2*
X11471Y5786D1*
D2*
X11442Y5843D1*
X12829Y26184D2*
Y25754D1*
D2*
X12858Y25667D1*
D2*
X12916Y25610D1*
D2*
X13002Y25581D1*
D2*
X13059D1*
D2*
X13145Y25610D1*
D2*
X13203Y25667D1*
D2*
X13231Y25754D1*
D2*
Y26184D1*
X13704Y25581D2*
Y26183D1*
D2*
X13417Y25782D1*
D2*
X13847D1*
X21018Y28127D2*
Y27697D1*
D2*
X21047Y27610D1*
D2*
X21105Y27553D1*
D2*
X21191Y27524D1*
D2*
X21248D1*
D2*
X21334Y27553D1*
D2*
X21392Y27610D1*
D2*
X21420Y27697D1*
D2*
Y28127D1*
X21950Y28126D2*
X21663D1*
D2*
X21635Y27868D1*
D2*
X21663Y27897D1*
D2*
X21750Y27926D1*
D2*
X21835D1*
D2*
X21921Y27897D1*
D2*
X21979Y27840D1*
D2*
X22008Y27754D1*
D2*
Y27697D1*
D2*
X21979Y27610D1*
D2*
X21921Y27553D1*
D2*
X21835Y27524D1*
D2*
X21750D1*
D2*
X21663Y27553D1*
D2*
X21635Y27582D1*
D2*
X21606Y27639D1*
X7749Y14032D2*
X8151Y13429D1*
Y14032D2*
X7749Y13429D1*
X8538Y14032D2*
Y13429D1*
X8337Y14032D2*
X8739D1*
X9383Y13429D2*
X9153Y14032D1*
D2*
X8924Y13429D1*
X9010Y13630D2*
X9297D1*
X9569Y14032D2*
Y13429D1*
D2*
X9913D1*
X10098Y13917D2*
X10156Y13946D1*
D2*
X10242Y14031D1*
D2*
Y13429D1*
X3833Y25742D2*
Y25312D1*
D2*
X3861Y25226D1*
D2*
X3919Y25169D1*
D2*
X4005Y25139D1*
D2*
X4062D1*
D2*
X4148Y25169D1*
D2*
X4206Y25226D1*
D2*
X4235Y25312D1*
D2*
Y25742D1*
X4764Y25656D2*
X4736Y25713D1*
D2*
X4649Y25742D1*
D2*
X4592D1*
D2*
X4506Y25713D1*
D2*
X4448Y25627D1*
D2*
X4420Y25484D1*
D2*
Y25340D1*
D2*
X4448Y25226D1*
D2*
X4506Y25168D1*
D2*
X4592Y25139D1*
D2*
X4621D1*
D2*
X4706Y25168D1*
D2*
X4764Y25226D1*
D2*
X4793Y25312D1*
D2*
Y25340D1*
D2*
X4764Y25427D1*
D2*
X4706Y25484D1*
D2*
X4621Y25512D1*
D2*
X4592D1*
D2*
X4506Y25484D1*
D2*
X4448Y25427D1*
D2*
X4420Y25340D1*
X6444Y26963D2*
X6071D1*
D2*
Y26360D1*
Y26675D2*
X6300D1*
X6658Y26819D2*
Y26847D1*
D2*
X6687Y26905D1*
D2*
X6715Y26933D1*
D2*
X6773Y26962D1*
D2*
X6888D1*
D2*
X6945Y26933D1*
D2*
X6973Y26905D1*
D2*
X7003Y26847D1*
D2*
Y26790D1*
D2*
X6973Y26732D1*
D2*
X6916Y26647D1*
D2*
X6629Y26360D1*
D2*
X7031D1*
X9720Y28577D2*
X9978D1*
D2*
X10064Y28606D1*
D2*
X10093Y28635D1*
D2*
X10122Y28692D1*
D2*
Y28750D1*
D2*
X10093Y28807D1*
D2*
X10064Y28836D1*
D2*
X9978Y28864D1*
D2*
X9720D1*
D2*
Y28261D1*
X9921Y28577D2*
X10122Y28261D1*
X10307Y28749D2*
X10365Y28778D1*
D2*
X10451Y28864D1*
D2*
Y28261D1*
X10636Y28749D2*
X10694Y28778D1*
D2*
X10780Y28864D1*
D2*
Y28261D1*
X7653Y25904D2*
X7911D1*
D2*
X7997Y25934D1*
D2*
X8027Y25962D1*
D2*
X8055Y26019D1*
D2*
Y26077D1*
D2*
X8027Y26134D1*
D2*
X7997Y26163D1*
D2*
X7911Y26192D1*
D2*
X7653D1*
D2*
Y25589D1*
X7854Y25904D2*
X8055Y25589D1*
X8240Y26076D2*
X8298Y26105D1*
D2*
X8384Y26191D1*
D2*
Y25589D1*
X8599Y26048D2*
Y26076D1*
D2*
X8627Y26134D1*
D2*
X8656Y26162D1*
D2*
X8714Y26191D1*
D2*
X8828D1*
D2*
X8885Y26162D1*
D2*
X8914Y26134D1*
D2*
X8943Y26076D1*
D2*
Y26019D1*
D2*
X8914Y25961D1*
D2*
X8857Y25876D1*
D2*
X8570Y25589D1*
D2*
X8972D1*
X1465Y26077D2*
X1723D1*
D2*
X1809Y26106D1*
D2*
X1838Y26135D1*
D2*
X1867Y26192D1*
D2*
Y26249D1*
D2*
X1838Y26306D1*
D2*
X1809Y26336D1*
D2*
X1723Y26364D1*
D2*
X1465D1*
D2*
Y25761D1*
X1666Y26077D2*
X1867Y25761D1*
X2052Y26249D2*
X2110Y26278D1*
D2*
X2196Y26363D1*
D2*
Y25761D1*
X2439Y26363D2*
X2754D1*
D2*
X2582Y26134D1*
D2*
X2669D1*
D2*
X2726Y26105D1*
D2*
X2754Y26077D1*
D2*
X2783Y25991D1*
D2*
Y25934D1*
D2*
X2754Y25847D1*
D2*
X2697Y25790D1*
D2*
X2611Y25761D1*
D2*
X2525D1*
D2*
X2439Y25790D1*
D2*
X2411Y25819D1*
D2*
X2381Y25876D1*
X1513Y16653D2*
X1771D1*
D2*
X1858Y16683D1*
D2*
X1887Y16711D1*
D2*
X1915Y16768D1*
D2*
Y16826D1*
D2*
X1887Y16883D1*
D2*
X1858Y16912D1*
D2*
X1771Y16940D1*
D2*
X1513D1*
D2*
Y16338D1*
X1714Y16653D2*
X1915Y16338D1*
X2100Y16825D2*
X2158Y16854D1*
D2*
X2244Y16940D1*
D2*
Y16338D1*
X2717D2*
Y16940D1*
D2*
X2430Y16539D1*
D2*
X2860D1*
X7278Y18076D2*
X7536D1*
D2*
X7622Y18105D1*
D2*
X7652Y18134D1*
D2*
X7680Y18191D1*
D2*
Y18249D1*
D2*
X7652Y18306D1*
D2*
X7622Y18335D1*
D2*
X7536Y18363D1*
D2*
X7278D1*
D2*
Y17760D1*
X7479Y18076D2*
X7680Y17760D1*
X7865Y18248D2*
X7923Y18277D1*
D2*
X8009Y18363D1*
D2*
Y17760D1*
X8539Y18363D2*
X8252D1*
D2*
X8224Y18105D1*
D2*
X8252Y18133D1*
D2*
X8338Y18162D1*
D2*
X8424D1*
D2*
X8510Y18133D1*
D2*
X8568Y18076D1*
D2*
X8596Y17990D1*
D2*
Y17933D1*
D2*
X8568Y17847D1*
D2*
X8510Y17789D1*
D2*
X8424Y17760D1*
D2*
X8338D1*
D2*
X8252Y17789D1*
D2*
X8224Y17818D1*
D2*
X8195Y17875D1*
X7293Y15653D2*
X7551D1*
D2*
X7637Y15682D1*
D2*
X7666Y15711D1*
D2*
X7695Y15768D1*
D2*
Y15826D1*
D2*
X7666Y15883D1*
D2*
X7637Y15912D1*
D2*
X7551Y15940D1*
D2*
X7293D1*
D2*
Y15338D1*
X7494Y15653D2*
X7695Y15338D1*
X7880Y15825D2*
X7938Y15854D1*
D2*
X8024Y15940D1*
D2*
Y15338D1*
X8553Y15854D2*
X8525Y15911D1*
D2*
X8439Y15940D1*
D2*
X8382D1*
D2*
X8295Y15911D1*
D2*
X8238Y15825D1*
D2*
X8209Y15682D1*
D2*
Y15539D1*
D2*
X8238Y15424D1*
D2*
X8295Y15366D1*
D2*
X8382Y15338D1*
D2*
X8410D1*
D2*
X8496Y15366D1*
D2*
X8553Y15424D1*
D2*
X8582Y15510D1*
D2*
Y15539D1*
D2*
X8553Y15625D1*
D2*
X8496Y15682D1*
D2*
X8410Y15710D1*
D2*
X8382D1*
D2*
X8295Y15682D1*
D2*
X8238Y15625D1*
D2*
X8209Y15539D1*
X5870Y18300D2*
X5842Y18357D1*
D2*
X5784Y18415D1*
D2*
X5727Y18444D1*
D2*
X5612D1*
D2*
X5555Y18415D1*
D2*
X5497Y18357D1*
D2*
X5468Y18300D1*
D2*
X5440Y18214D1*
D2*
Y18070D1*
D2*
X5468Y17985D1*
D2*
X5497Y17927D1*
D2*
X5555Y17870D1*
D2*
X5612Y17841D1*
D2*
X5727D1*
D2*
X5784Y17870D1*
D2*
X5842Y17927D1*
D2*
X5870Y17985D1*
X6113Y18443D2*
X6428D1*
D2*
X6256Y18213D1*
D2*
X6343D1*
D2*
X6400Y18185D1*
D2*
X6428Y18156D1*
D2*
X6457Y18070D1*
D2*
Y18013D1*
D2*
X6428Y17927D1*
D2*
X6371Y17869D1*
D2*
X6285Y17841D1*
D2*
X6199D1*
D2*
X6113Y17869D1*
D2*
X6085Y17898D1*
D2*
X6055Y17955D1*
X6643Y18328D2*
X6700Y18357D1*
D2*
X6787Y18443D1*
D2*
Y17841D1*
X7991Y28801D2*
X7963Y28858D1*
D2*
X7905Y28916D1*
D2*
X7848Y28945D1*
D2*
X7733D1*
D2*
X7676Y28916D1*
D2*
X7619Y28858D1*
D2*
X7590Y28801D1*
D2*
X7561Y28715D1*
D2*
Y28571D1*
D2*
X7590Y28486D1*
D2*
X7619Y28428D1*
D2*
X7676Y28371D1*
D2*
X7733Y28342D1*
D2*
X7848D1*
D2*
X7905Y28371D1*
D2*
X7963Y28428D1*
D2*
X7991Y28486D1*
X8234Y28944D2*
X8549D1*
D2*
X8378Y28715D1*
D2*
X8464D1*
D2*
X8521Y28686D1*
D2*
X8549Y28657D1*
D2*
X8579Y28571D1*
D2*
Y28514D1*
D2*
X8549Y28428D1*
D2*
X8492Y28370D1*
D2*
X8406Y28342D1*
D2*
X8320D1*
D2*
X8234Y28370D1*
D2*
X8206Y28399D1*
D2*
X8177Y28457D1*
X8793Y28801D2*
Y28829D1*
D2*
X8822Y28887D1*
D2*
X8850Y28915D1*
D2*
X8908Y28944D1*
D2*
X9023D1*
D2*
X9080Y28915D1*
D2*
X9108Y28887D1*
D2*
X9137Y28829D1*
D2*
Y28772D1*
D2*
X9108Y28715D1*
D2*
X9051Y28629D1*
D2*
X8764Y28342D1*
D2*
X9166D1*
X4063Y32366D2*
D140*
X4445Y31362D1*
D2*
X4828Y32366D1*
X5567Y32294D2*
Y31433D1*
X5137Y31863D2*
X5998D1*
X4905Y27565D2*
X4858Y27660D1*
D2*
X4762Y27756D1*
D2*
X4667Y27803D1*
D2*
X4475D1*
D2*
X4379Y27756D1*
D2*
X4284Y27660D1*
D2*
X4235Y27565D1*
D2*
X4188Y27421D1*
D2*
Y27181D1*
D2*
X4235Y27039D1*
D2*
X4284Y26942D1*
D2*
X4379Y26847D1*
D2*
X4475Y26799D1*
D2*
X4667D1*
D2*
X4762Y26847D1*
D2*
X4858Y26942D1*
D2*
X4905Y27039D1*
D2*
Y27181D1*
D2*
X4667D1*
X5884Y27803D2*
Y26799D1*
D2*
X5214Y27803D1*
D2*
Y26799D1*
X6193Y27803D2*
Y26799D1*
D2*
X6528D1*
D2*
X6671Y26847D1*
D2*
X6768Y26942D1*
D2*
X6815Y27039D1*
D2*
X6863Y27181D1*
D2*
Y27421D1*
D2*
X6815Y27565D1*
D2*
X6768Y27660D1*
D2*
X6671Y27756D1*
D2*
X6528Y27803D1*
D2*
X6193D1*
X8978Y32396D2*
D139*
Y31880D1*
X8720Y32138D2*
X9237D1*
X11041Y32396D2*
Y31880D1*
X10783Y32138D2*
X11299D1*
X13166Y32396D2*
Y31880D1*
X12908Y32138D2*
X13425D1*
X12541Y26833D2*
Y26316D1*
X12283Y26574D2*
X12800D1*
X17666Y30208D2*
Y29692D1*
X17408Y29950D2*
X17925D1*
X7165Y31521D2*
Y31004D1*
X6907Y31262D2*
X7424D1*
X27480Y34084D2*
Y33567D1*
X27222Y33825D2*
X27739D1*
X29980Y34146D2*
Y33630D1*
X29722Y33888D2*
X30239D1*
X32293Y34146D2*
Y33630D1*
X32035Y33888D2*
X32552D1*
X34543Y34146D2*
Y33630D1*
X34285Y33888D2*
X34802D1*
X4473Y7068D2*
D141*
X4166Y7872D1*
D2*
X3860Y7068D1*
X3975Y7336D2*
X4358D1*
X3982Y3816D2*
Y3012D1*
D2*
X4327D1*
D2*
X4442Y3051D1*
D2*
X4480Y3089D1*
D2*
X4518Y3165D1*
D2*
Y3280D1*
D2*
X4480Y3357D1*
D2*
X4442Y3395D1*
D2*
X4327Y3433D1*
D2*
X4442Y3472D1*
D2*
X4480Y3510D1*
D2*
X4518Y3586D1*
D2*
Y3663D1*
D2*
X4480Y3739D1*
D2*
X4442Y3778D1*
D2*
X4327Y3816D1*
D2*
X3982D1*
Y3433D2*
X4327D1*
X4401Y5685D2*
X4363Y5761D1*
D2*
X4286Y5838D1*
D2*
X4210Y5876D1*
D2*
X4057D1*
D2*
X3980Y5838D1*
D2*
X3904Y5761D1*
D2*
X3865Y5685D1*
D2*
X3827Y5570D1*
D2*
Y5379D1*
D2*
X3865Y5264D1*
D2*
X3904Y5188D1*
D2*
X3980Y5111D1*
D2*
X4057Y5073D1*
D2*
X4210D1*
D2*
X4286Y5111D1*
D2*
X4363Y5188D1*
D2*
X4401Y5264D1*
D2*
Y5379D1*
D2*
X4210D1*
X5184Y5876D2*
Y5073D1*
D2*
X4648Y5876D1*
D2*
Y5073D1*
X5431Y5876D2*
Y5073D1*
D2*
X5699D1*
D2*
X5814Y5111D1*
D2*
X5891Y5188D1*
D2*
X5929Y5264D1*
D2*
X5967Y5379D1*
D2*
Y5570D1*
D2*
X5929Y5685D1*
D2*
X5891Y5761D1*
D2*
X5814Y5838D1*
D2*
X5699Y5876D1*
D2*
X5431D1*
X35125Y6241D2*
X35087Y6317D1*
D2*
X35010Y6394D1*
D2*
X34934Y6432D1*
D2*
X34781D1*
D2*
X34704Y6394D1*
D2*
X34628Y6317D1*
D2*
X34589Y6241D1*
D2*
X34551Y6126D1*
D2*
Y5934D1*
D2*
X34589Y5820D1*
D2*
X34628Y5743D1*
D2*
X34704Y5667D1*
D2*
X34781Y5628D1*
D2*
X34934D1*
D2*
X35010Y5667D1*
D2*
X35087Y5743D1*
D2*
X35125Y5820D1*
X34462Y8557D2*
Y7753D1*
D2*
X33926Y8557D1*
D2*
Y7753D1*
X34938Y8557D2*
X34862Y8519D1*
D2*
X34785Y8442D1*
D2*
X34747Y8366D1*
D2*
X34709Y8251D1*
D2*
Y8059D1*
D2*
X34747Y7945D1*
D2*
X34785Y7868D1*
D2*
X34862Y7792D1*
D2*
X34938Y7753D1*
D2*
X35091D1*
D2*
X35168Y7792D1*
D2*
X35244Y7868D1*
D2*
X35282Y7945D1*
D2*
X35320Y8059D1*
D2*
Y8251D1*
D2*
X35282Y8366D1*
D2*
X35244Y8442D1*
D2*
X35168Y8519D1*
D2*
X35091Y8557D1*
D2*
X34938D1*
X34524Y4306D2*
Y3502D1*
D2*
X33988Y4306D1*
D2*
Y3502D1*
X35345Y4115D2*
X35307Y4191D1*
D2*
X35230Y4268D1*
D2*
X35154Y4306D1*
D2*
X35001D1*
D2*
X34924Y4268D1*
D2*
X34848Y4191D1*
D2*
X34809Y4115D1*
D2*
X34771Y4000D1*
D2*
Y3808D1*
D2*
X34809Y3694D1*
D2*
X34848Y3617D1*
D2*
X34924Y3541D1*
D2*
X35001Y3502D1*
D2*
X35154D1*
D2*
X35230Y3541D1*
D2*
X35307Y3617D1*
D2*
X35345Y3694D1*
X33903Y19670D2*
D139*
X33875Y19727D1*
D2*
X33817Y19785D1*
D2*
X33760Y19813D1*
D2*
X33645D1*
D2*
X33587Y19785D1*
D2*
X33530Y19727D1*
D2*
X33501Y19670D1*
D2*
X33473Y19584D1*
D2*
Y19440D1*
D2*
X33501Y19354D1*
D2*
X33530Y19297D1*
D2*
X33587Y19240D1*
D2*
X33645Y19210D1*
D2*
X33760D1*
D2*
X33817Y19240D1*
D2*
X33875Y19297D1*
D2*
X33903Y19354D1*
D2*
Y19440D1*
D2*
X33760D1*
X34490Y19813D2*
Y19210D1*
D2*
X34088Y19813D1*
D2*
Y19210D1*
X34676Y19813D2*
Y19210D1*
D2*
X34877D1*
D2*
X34963Y19240D1*
D2*
X35020Y19297D1*
D2*
X35049Y19354D1*
D2*
X35077Y19440D1*
D2*
Y19584D1*
D2*
X35049Y19670D1*
D2*
X35020Y19727D1*
D2*
X34963Y19785D1*
D2*
X34877Y19813D1*
D2*
X34676D1*
X33848Y21813D2*
X34077Y21211D1*
D2*
X34307Y21813D1*
X34750Y21770D2*
Y21253D1*
X34492Y21511D2*
X35009D1*
X34174Y23814D2*
Y23211D1*
X33973Y23814D2*
X34375D1*
X34560D2*
X34962Y23211D1*
Y23814D2*
X34560Y23211D1*
X34035Y25589D2*
X34293D1*
D2*
X34379Y25618D1*
D2*
X34409Y25647D1*
D2*
X34437Y25704D1*
D2*
Y25762D1*
D2*
X34409Y25819D1*
D2*
X34379Y25848D1*
D2*
X34293Y25876D1*
D2*
X34035D1*
D2*
Y25274D1*
X34236Y25589D2*
X34437Y25274D1*
X34622Y25876D2*
X35024Y25274D1*
Y25876D2*
X34622Y25274D1*
X29295Y14393D2*
D140*
Y15398D1*
D2*
X28912Y14393D1*
D2*
X28530Y15398D1*
D2*
Y14393D1*
X30177Y15063D2*
Y14393D1*
Y14919D2*
X30082Y15016D1*
D2*
X29986Y15063D1*
D2*
X29844D1*
D2*
X29747Y15016D1*
D2*
X29652Y14919D1*
D2*
X29604Y14776D1*
D2*
Y14681D1*
D2*
X29652Y14537D1*
D2*
X29747Y14442D1*
D2*
X29844Y14393D1*
D2*
X29986D1*
D2*
X30082Y14442D1*
D2*
X30177Y14537D1*
X30486Y15398D2*
Y14393D1*
X30965Y15063D2*
X30486Y14584D1*
X30677Y14776D2*
X31012Y14393D1*
X31321Y14776D2*
X31895D1*
D2*
Y14872D1*
D2*
X31847Y14968D1*
D2*
X31800Y15016D1*
D2*
X31704Y15063D1*
D2*
X31560D1*
D2*
X31465Y15016D1*
D2*
X31369Y14919D1*
D2*
X31321Y14776D1*
D2*
Y14681D1*
D2*
X31369Y14537D1*
D2*
X31465Y14442D1*
D2*
X31560Y14393D1*
D2*
X31704D1*
D2*
X31800Y14442D1*
D2*
X31895Y14537D1*
X32204Y15063D2*
Y14393D1*
Y14776D2*
X32252Y14919D1*
D2*
X32347Y15016D1*
D2*
X32444Y15063D1*
D2*
X32587D1*
X34634Y14393D2*
X34250Y15398D1*
D2*
X33868Y14393D1*
X34012Y14728D2*
X34490D1*
X35518Y14919D2*
X35421Y15016D1*
D2*
X35325Y15063D1*
D2*
X35183D1*
D2*
X35087Y15016D1*
D2*
X34991Y14919D1*
D2*
X34943Y14776D1*
D2*
Y14681D1*
D2*
X34991Y14537D1*
D2*
X35087Y14442D1*
D2*
X35183Y14393D1*
D2*
X35325D1*
D2*
X35421Y14442D1*
D2*
X35518Y14537D1*
X36401Y14919D2*
X36305Y15016D1*
D2*
X36209Y15063D1*
D2*
X36066D1*
D2*
X35970Y15016D1*
D2*
X35875Y14919D1*
D2*
X35826Y14776D1*
D2*
Y14681D1*
D2*
X35875Y14537D1*
D2*
X35970Y14442D1*
D2*
X36066Y14393D1*
D2*
X36209D1*
D2*
X36305Y14442D1*
D2*
X36401Y14537D1*
X36710Y14776D2*
X37284D1*
D2*
Y14872D1*
D2*
X37236Y14968D1*
D2*
X37189Y15016D1*
D2*
X37092Y15063D1*
D2*
X36949D1*
D2*
X36854Y15016D1*
D2*
X36758Y14919D1*
D2*
X36710Y14776D1*
D2*
Y14681D1*
D2*
X36758Y14537D1*
D2*
X36854Y14442D1*
D2*
X36949Y14393D1*
D2*
X37092D1*
D2*
X37189Y14442D1*
D2*
X37284Y14537D1*
X38119Y14919D2*
X38071Y15016D1*
D2*
X37927Y15063D1*
D2*
X37784D1*
D2*
X37640Y15016D1*
D2*
X37592Y14919D1*
D2*
X37640Y14824D1*
D2*
X37736Y14776D1*
D2*
X37975Y14728D1*
D2*
X38071Y14681D1*
D2*
X38119Y14584D1*
D2*
Y14537D1*
D2*
X38071Y14442D1*
D2*
X37927Y14393D1*
D2*
X37784D1*
D2*
X37640Y14442D1*
D2*
X37592Y14537D1*
X38954Y14919D2*
X38906Y15016D1*
D2*
X38762Y15063D1*
D2*
X38619D1*
D2*
X38475Y15016D1*
D2*
X38427Y14919D1*
D2*
X38475Y14824D1*
D2*
X38571Y14776D1*
D2*
X38810Y14728D1*
D2*
X38906Y14681D1*
D2*
X38954Y14584D1*
D2*
Y14537D1*
D2*
X38906Y14442D1*
D2*
X38762Y14393D1*
D2*
X38619D1*
D2*
X38475Y14442D1*
D2*
X38427Y14537D1*
X27927Y13659D2*
X27880Y13754D1*
D2*
X27784Y13850D1*
D2*
X27689Y13898D1*
D2*
X27497D1*
D2*
X27401Y13850D1*
D2*
X27306Y13754D1*
D2*
X27258Y13659D1*
D2*
X27210Y13516D1*
D2*
Y13276D1*
D2*
X27258Y13133D1*
D2*
X27306Y13037D1*
D2*
X27401Y12942D1*
D2*
X27497Y12893D1*
D2*
X27689D1*
D2*
X27784Y12942D1*
D2*
X27880Y13037D1*
D2*
X27927Y13133D1*
X28475Y13563D2*
X28380Y13516D1*
D2*
X28284Y13419D1*
D2*
X28236Y13276D1*
D2*
Y13181D1*
D2*
X28284Y13037D1*
D2*
X28380Y12942D1*
D2*
X28475Y12893D1*
D2*
X28619D1*
D2*
X28715Y12942D1*
D2*
X28810Y13037D1*
D2*
X28859Y13181D1*
D2*
Y13276D1*
D2*
X28810Y13419D1*
D2*
X28715Y13516D1*
D2*
X28619Y13563D1*
D2*
X28475D1*
X29167D2*
Y12893D1*
Y13372D2*
X29311Y13516D1*
D2*
X29407Y13563D1*
D2*
X29550D1*
D2*
X29646Y13516D1*
D2*
X29693Y13372D1*
D2*
Y12893D1*
X30146Y13898D2*
Y13084D1*
D2*
X30193Y12942D1*
D2*
X30290Y12893D1*
D2*
X30385D1*
X30002Y13563D2*
X30337D1*
X30694D2*
Y12893D1*
Y13276D2*
X30742Y13419D1*
D2*
X30837Y13516D1*
D2*
X30933Y13563D1*
D2*
X31077D1*
X31625D2*
X31530Y13516D1*
D2*
X31433Y13419D1*
D2*
X31386Y13276D1*
D2*
Y13181D1*
D2*
X31433Y13037D1*
D2*
X31530Y12942D1*
D2*
X31625Y12893D1*
D2*
X31768D1*
D2*
X31864Y12942D1*
D2*
X31960Y13037D1*
D2*
X32008Y13181D1*
D2*
Y13276D1*
D2*
X31960Y13419D1*
D2*
X31864Y13516D1*
D2*
X31768Y13563D1*
D2*
X31625D1*
X32317Y13898D2*
Y12893D1*
X34268Y13754D2*
X34173Y13850D1*
D2*
X34029Y13898D1*
D2*
X33838D1*
D2*
X33694Y13850D1*
D2*
X33598Y13754D1*
D2*
Y13659D1*
D2*
X33646Y13563D1*
D2*
X33694Y13516D1*
D2*
X33789Y13468D1*
D2*
X34076Y13372D1*
D2*
X34173Y13324D1*
D2*
X34220Y13276D1*
D2*
X34268Y13181D1*
D2*
Y13037D1*
D2*
X34173Y12942D1*
D2*
X34029Y12893D1*
D2*
X33838D1*
D2*
X33694Y12942D1*
D2*
X33598Y13037D1*
X34625Y13563D2*
X34911Y12893D1*
D2*
X34816Y12702D1*
D2*
X34720Y12606D1*
D2*
X34625Y12558D1*
D2*
X34576D1*
X35199Y13563D2*
X34911Y12893D1*
X36034Y13419D2*
X35986Y13516D1*
D2*
X35842Y13563D1*
D2*
X35699D1*
D2*
X35555Y13516D1*
D2*
X35508Y13419D1*
D2*
X35555Y13324D1*
D2*
X35651Y13276D1*
D2*
X35890Y13228D1*
D2*
X35986Y13181D1*
D2*
X36034Y13084D1*
D2*
Y13037D1*
D2*
X35986Y12942D1*
D2*
X35842Y12893D1*
D2*
X35699D1*
D2*
X35555Y12942D1*
D2*
X35508Y13037D1*
X36486Y13898D2*
Y13084D1*
D2*
X36534Y12942D1*
D2*
X36630Y12893D1*
D2*
X36725D1*
X36343Y13563D2*
X36677D1*
X37034Y13276D2*
X37607D1*
D2*
Y13372D1*
D2*
X37560Y13468D1*
D2*
X37512Y13516D1*
D2*
X37416Y13563D1*
D2*
X37273D1*
D2*
X37177Y13516D1*
D2*
X37081Y13419D1*
D2*
X37034Y13276D1*
D2*
Y13181D1*
D2*
X37081Y13037D1*
D2*
X37177Y12942D1*
D2*
X37273Y12893D1*
D2*
X37416D1*
D2*
X37512Y12942D1*
D2*
X37607Y13037D1*
X37916Y13563D2*
Y12893D1*
Y13372D2*
X38060Y13516D1*
D2*
X38156Y13563D1*
D2*
X38299D1*
D2*
X38395Y13516D1*
D2*
X38442Y13372D1*
D2*
Y12893D1*
Y13372D2*
X38586Y13516D1*
D2*
X38682Y13563D1*
D2*
X38825D1*
D2*
X38921Y13516D1*
D2*
X38970Y13372D1*
D2*
Y12893D1*
X28425Y12286D2*
D141*
Y11482D1*
Y11903D2*
X28502Y11980D1*
D2*
X28578Y12018D1*
D2*
X28693D1*
D2*
X28769Y11980D1*
D2*
X28845Y11903D1*
D2*
X28884Y11788D1*
D2*
Y11712D1*
D2*
X28845Y11597D1*
D2*
X28769Y11521D1*
D2*
X28693Y11482D1*
D2*
X28578D1*
D2*
X28502Y11521D1*
D2*
X28425Y11597D1*
X29169Y12018D2*
X29398Y11482D1*
D2*
X29322Y11329D1*
D2*
X29246Y11252D1*
D2*
X29169Y11214D1*
D2*
X29131D1*
X29628Y12018D2*
X29398Y11482D1*
X30653Y11903D2*
X30997D1*
D2*
X31112Y11942D1*
D2*
X31151Y11980D1*
D2*
X31189Y12056D1*
D2*
Y12133D1*
D2*
X31151Y12209D1*
D2*
X31112Y12248D1*
D2*
X30997Y12286D1*
D2*
X30653D1*
D2*
Y11482D1*
X30921Y11903D2*
X31189Y11482D1*
X31627Y12018D2*
X31551Y11980D1*
D2*
X31474Y11903D1*
D2*
X31436Y11788D1*
D2*
Y11712D1*
D2*
X31474Y11597D1*
D2*
X31551Y11521D1*
D2*
X31627Y11482D1*
D2*
X31742D1*
D2*
X31819Y11521D1*
D2*
X31895Y11597D1*
D2*
X31934Y11712D1*
D2*
Y11788D1*
D2*
X31895Y11903D1*
D2*
X31819Y11980D1*
D2*
X31742Y12018D1*
D2*
X31627D1*
X32220D2*
X32449Y11482D1*
D2*
X32373Y11329D1*
D2*
X32296Y11252D1*
D2*
X32220Y11214D1*
D2*
X32181D1*
X32679Y12018D2*
X32449Y11482D1*
X33386Y11903D2*
X33309Y11980D1*
D2*
X33232Y12018D1*
D2*
X33118D1*
D2*
X33041Y11980D1*
D2*
X32965Y11903D1*
D2*
X32926Y11788D1*
D2*
Y11712D1*
D2*
X32965Y11597D1*
D2*
X33041Y11521D1*
D2*
X33118Y11482D1*
D2*
X33232D1*
D2*
X33309Y11521D1*
D2*
X33386Y11597D1*
X33633Y11788D2*
X34092D1*
D2*
Y11865D1*
D2*
X34054Y11942D1*
D2*
X34016Y11980D1*
D2*
X33939Y12018D1*
D2*
X33824D1*
D2*
X33748Y11980D1*
D2*
X33671Y11903D1*
D2*
X33633Y11788D1*
D2*
Y11712D1*
D2*
X33671Y11597D1*
D2*
X33748Y11521D1*
D2*
X33824Y11482D1*
D2*
X33939D1*
D2*
X34016Y11521D1*
D2*
X34092Y11597D1*
X35116Y11865D2*
X35461D1*
D2*
X35575Y11903D1*
D2*
X35614Y11942D1*
D2*
X35652Y12018D1*
D2*
Y12133D1*
D2*
X35614Y12209D1*
D2*
X35575Y12248D1*
D2*
X35461Y12286D1*
D2*
X35116D1*
D2*
Y11482D1*
X35899Y12286D2*
X35937Y12248D1*
D2*
X35976Y12286D1*
D2*
X35937Y12325D1*
D2*
X35899Y12286D1*
X35937Y12018D2*
Y11482D1*
X36223Y12018D2*
Y11214D1*
Y11903D2*
X36300Y11979D1*
D2*
X36376Y12018D1*
D2*
X36491D1*
D2*
X36568Y11979D1*
D2*
X36644Y11903D1*
D2*
X36683Y11788D1*
D2*
Y11711D1*
D2*
X36644Y11597D1*
D2*
X36568Y11520D1*
D2*
X36491Y11482D1*
D2*
X36376D1*
D2*
X36300Y11520D1*
D2*
X36223Y11597D1*
X36930Y12286D2*
Y11482D1*
X37313Y12018D2*
X36930Y11635D1*
X37083Y11788D2*
X37351Y11482D1*
X37598Y12286D2*
X37636Y12248D1*
D2*
X37675Y12286D1*
D2*
X37636Y12325D1*
D2*
X37598Y12286D1*
X37636Y12018D2*
Y11482D1*
X37922Y12018D2*
Y11482D1*
Y11865D2*
X38037Y11980D1*
D2*
X38114Y12018D1*
D2*
X38228D1*
D2*
X38305Y11980D1*
D2*
X38343Y11865D1*
D2*
Y11482D1*
X39011Y11903D2*
X38973Y11980D1*
D2*
X38858Y12018D1*
D2*
X38743D1*
D2*
X38628Y11980D1*
D2*
X38590Y11903D1*
D2*
X38628Y11827D1*
D2*
X38705Y11788D1*
D2*
X38896Y11750D1*
D2*
X38973Y11712D1*
D2*
X39011Y11635D1*
D2*
Y11597D1*
D2*
X38973Y11521D1*
D2*
X38858Y11482D1*
D2*
X38743D1*
D2*
X38628Y11521D1*
D2*
X38590Y11597D1*
X2459Y1897D2*
D139*
X2717D1*
D2*
X2803Y1926D1*
D2*
X2833Y1954D1*
D2*
X2861Y2011D1*
D2*
Y2069D1*
D2*
X2833Y2126D1*
D2*
X2803Y2155D1*
D2*
X2717Y2184D1*
D2*
X2459D1*
D2*
Y1581D1*
X2660Y1897D2*
X2861Y1581D1*
X3448Y2097D2*
X3391Y2155D1*
D2*
X3305Y2184D1*
D2*
X3190D1*
D2*
X3104Y2155D1*
D2*
X3046Y2097D1*
D2*
Y2040D1*
D2*
X3075Y1983D1*
D2*
X3104Y1954D1*
D2*
X3161Y1926D1*
D2*
X3333Y1868D1*
D2*
X3391Y1839D1*
D2*
X3420Y1810D1*
D2*
X3448Y1753D1*
D2*
Y1667D1*
D2*
X3391Y1610D1*
D2*
X3305Y1581D1*
D2*
X3190D1*
D2*
X3104Y1610D1*
D2*
X3046Y1667D1*
X3634Y1882D2*
X3965D1*
X4438Y1581D2*
Y2183D1*
D2*
X4150Y1782D1*
D2*
X4581D1*
X4909Y2183D2*
X4824Y2155D1*
D2*
X4795Y2097D1*
D2*
Y2040D1*
D2*
X4824Y1983D1*
D2*
X4881Y1954D1*
D2*
X4996Y1925D1*
D2*
X5082Y1897D1*
D2*
X5139Y1839D1*
D2*
X5167Y1782D1*
D2*
Y1696D1*
D2*
X5139Y1639D1*
D2*
X5110Y1609D1*
D2*
X5024Y1581D1*
D2*
X4909D1*
D2*
X4824Y1609D1*
D2*
X4795Y1639D1*
D2*
X4766Y1696D1*
D2*
Y1782D1*
D2*
X4795Y1839D1*
D2*
X4852Y1897D1*
D2*
X4938Y1925D1*
D2*
X5053Y1954D1*
D2*
X5110Y1983D1*
D2*
X5139Y2040D1*
D2*
Y2097D1*
D2*
X5110Y2155D1*
D2*
X5024Y2183D1*
D2*
X4909D1*
X5697D2*
X5410D1*
D2*
X5382Y1925D1*
D2*
X5410Y1954D1*
D2*
X5497Y1983D1*
D2*
X5582D1*
D2*
X5668Y1954D1*
D2*
X5726Y1897D1*
D2*
X5755Y1810D1*
D2*
Y1753D1*
D2*
X5726Y1667D1*
D2*
X5668Y1609D1*
D2*
X5582Y1581D1*
D2*
X5497D1*
D2*
X5410Y1609D1*
D2*
X5382Y1639D1*
D2*
X5353Y1696D1*
X35609Y27067D2*
X35867D1*
D2*
X35953Y27096D1*
D2*
X35983Y27124D1*
D2*
X36011Y27181D1*
D2*
Y27239D1*
D2*
X35983Y27296D1*
D2*
X35953Y27325D1*
D2*
X35867Y27354D1*
D2*
X35609D1*
D2*
Y26751D1*
X35810Y27067D2*
X36011Y26751D1*
X36598Y27267D2*
X36541Y27325D1*
D2*
X36455Y27354D1*
D2*
X36340D1*
D2*
X36254Y27325D1*
D2*
X36196Y27267D1*
D2*
Y27210D1*
D2*
X36225Y27153D1*
D2*
X36254Y27124D1*
D2*
X36311Y27096D1*
D2*
X36483Y27038D1*
D2*
X36541Y27009D1*
D2*
X36570Y26980D1*
D2*
X36598Y26923D1*
D2*
Y26837D1*
D2*
X36541Y26780D1*
D2*
X36455Y26751D1*
D2*
X36340D1*
D2*
X36254Y26780D1*
D2*
X36196Y26837D1*
X36784Y27052D2*
X37115D1*
X37330Y27210D2*
Y27238D1*
D2*
X37358Y27296D1*
D2*
X37387Y27325D1*
D2*
X37444Y27353D1*
D2*
X37559D1*
D2*
X37616Y27325D1*
D2*
X37645Y27296D1*
D2*
X37674Y27238D1*
D2*
Y27181D1*
D2*
X37645Y27124D1*
D2*
X37588Y27038D1*
D2*
X37300Y26751D1*
D2*
X37702D1*
X37945Y27353D2*
X38260D1*
D2*
X38089Y27124D1*
D2*
X38175D1*
D2*
X38232Y27095D1*
D2*
X38260Y27067D1*
D2*
X38290Y26980D1*
D2*
Y26923D1*
D2*
X38260Y26837D1*
D2*
X38203Y26779D1*
D2*
X38117Y26751D1*
D2*
X38031D1*
D2*
X37945Y26779D1*
D2*
X37917Y26809D1*
D2*
X37888Y26866D1*
X38504Y27210D2*
Y27238D1*
D2*
X38532Y27296D1*
D2*
X38561Y27325D1*
D2*
X38619Y27353D1*
D2*
X38733D1*
D2*
X38790Y27325D1*
D2*
X38819Y27296D1*
D2*
X38848Y27238D1*
D2*
Y27181D1*
D2*
X38819Y27124D1*
D2*
X38762Y27038D1*
D2*
X38475Y26751D1*
D2*
X38877D1*
X30387Y3938D2*
D141*
Y3134D1*
D2*
X29851Y3938D1*
D2*
Y3134D1*
X31208Y3747D2*
X31170Y3823D1*
D2*
X31093Y3900D1*
D2*
X31017Y3938D1*
D2*
X30864D1*
D2*
X30787Y3900D1*
D2*
X30711Y3823D1*
D2*
X30672Y3747D1*
D2*
X30634Y3632D1*
D2*
Y3440D1*
D2*
X30672Y3326D1*
D2*
X30711Y3249D1*
D2*
X30787Y3173D1*
D2*
X30864Y3134D1*
D2*
X31017D1*
D2*
X31093Y3173D1*
D2*
X31170Y3249D1*
D2*
X31208Y3326D1*
X30308Y8583D2*
Y7780D1*
D2*
X29772Y8583D1*
D2*
Y7780D1*
X30785Y8583D2*
X30708Y8545D1*
D2*
X30632Y8469D1*
D2*
X30593Y8392D1*
D2*
X30555Y8277D1*
D2*
Y8086D1*
D2*
X30593Y7972D1*
D2*
X30632Y7895D1*
D2*
X30708Y7819D1*
D2*
X30785Y7780D1*
D2*
X30938D1*
D2*
X31014Y7819D1*
D2*
X31091Y7895D1*
D2*
X31129Y7972D1*
D2*
X31167Y8086D1*
D2*
Y8277D1*
D2*
X31129Y8392D1*
D2*
X31091Y8469D1*
D2*
X31014Y8545D1*
D2*
X30938Y8583D1*
D2*
X30785D1*
X2717Y14929D2*
D139*
Y14326D1*
D2*
X2918D1*
D2*
X3004Y14355D1*
D2*
X3062Y14412D1*
D2*
X3091Y14470D1*
D2*
X3119Y14555D1*
D2*
Y14699D1*
D2*
X3091Y14785D1*
D2*
X3062Y14842D1*
D2*
X3004Y14900D1*
D2*
X2918Y14929D1*
D2*
X2717D1*
X3505D2*
Y14326D1*
X3304Y14929D2*
X3706D1*
X3892Y14641D2*
X4150D1*
D2*
X4236Y14671D1*
D2*
X4265Y14699D1*
D2*
X4294Y14756D1*
D2*
Y14814D1*
D2*
X4265Y14871D1*
D2*
X4236Y14900D1*
D2*
X4150Y14929D1*
D2*
X3892D1*
D2*
Y14326D1*
X4093Y14641D2*
X4294Y14326D1*
X2918Y13929D2*
Y13326D1*
X2717Y13929D2*
X3119D1*
X3304D2*
X3706Y13326D1*
Y13929D2*
X3304Y13326D1*
X3892Y13627D2*
X4223D1*
X4581Y13929D2*
X4523Y13900D1*
D2*
X4466Y13842D1*
D2*
X4437Y13785D1*
D2*
X4409Y13699D1*
D2*
Y13555D1*
D2*
X4437Y13470D1*
D2*
X4466Y13412D1*
D2*
X4523Y13355D1*
D2*
X4581Y13326D1*
D2*
X4696D1*
D2*
X4753Y13355D1*
D2*
X4810Y13412D1*
D2*
X4839Y13470D1*
D2*
X4868Y13555D1*
D2*
Y13699D1*
D2*
X4839Y13785D1*
D2*
X4810Y13842D1*
D2*
X4753Y13900D1*
D2*
X4696Y13929D1*
D2*
X4581D1*
X2717Y12642D2*
X2975D1*
D2*
X3061Y12671D1*
D2*
X3091Y12699D1*
D2*
X3119Y12756D1*
D2*
Y12814D1*
D2*
X3091Y12871D1*
D2*
X3061Y12900D1*
D2*
X2975Y12929D1*
D2*
X2717D1*
D2*
Y12326D1*
X2918Y12642D2*
X3119Y12326D1*
X3304Y12929D2*
X3706Y12326D1*
Y12929D2*
X3304Y12326D1*
X3892Y12627D2*
X4223D1*
X4409Y12929D2*
Y12326D1*
X3061Y11928D2*
X2775D1*
D2*
X2746Y11670D1*
D2*
X2775Y11699D1*
D2*
X2861Y11728D1*
D2*
X2947D1*
D2*
X3033Y11699D1*
D2*
X3091Y11642D1*
D2*
X3119Y11555D1*
D2*
Y11498D1*
D2*
X3091Y11412D1*
D2*
X3033Y11354D1*
D2*
X2947Y11326D1*
D2*
X2861D1*
D2*
X2775Y11354D1*
D2*
X2746Y11384D1*
D2*
X2717Y11441D1*
X3304Y11929D2*
X3534Y11326D1*
D2*
X3763Y11929D1*
X3148Y10785D2*
X3119Y10842D1*
D2*
X3061Y10900D1*
D2*
X3004Y10928D1*
D2*
X2890D1*
D2*
X2832Y10900D1*
D2*
X2775Y10842D1*
D2*
X2746Y10785D1*
D2*
X2717Y10699D1*
D2*
Y10555D1*
D2*
X2746Y10469D1*
D2*
X2775Y10412D1*
D2*
X2832Y10355D1*
D2*
X2890Y10325D1*
D2*
X3004D1*
D2*
X3061Y10355D1*
D2*
X3119Y10412D1*
D2*
X3148Y10469D1*
X3534Y10928D2*
Y10325D1*
X3333Y10928D2*
X3735D1*
X4322Y10842D2*
X4265Y10900D1*
D2*
X4179Y10928D1*
D2*
X4064D1*
D2*
X3978Y10900D1*
D2*
X3920Y10842D1*
D2*
Y10785D1*
D2*
X3949Y10727D1*
D2*
X3978Y10699D1*
D2*
X4035Y10670D1*
D2*
X4207Y10613D1*
D2*
X4265Y10584D1*
D2*
X4294Y10555D1*
D2*
X4322Y10498D1*
D2*
Y10412D1*
D2*
X4265Y10355D1*
D2*
X4179Y10325D1*
D2*
X4064D1*
D2*
X3978Y10355D1*
D2*
X3920Y10412D1*
X3148Y9785D2*
X3119Y9842D1*
D2*
X3061Y9900D1*
D2*
X3004Y9928D1*
D2*
X2890D1*
D2*
X2832Y9900D1*
D2*
X2775Y9842D1*
D2*
X2746Y9785D1*
D2*
X2717Y9699D1*
D2*
Y9555D1*
D2*
X2746Y9469D1*
D2*
X2775Y9412D1*
D2*
X2832Y9355D1*
D2*
X2890Y9325D1*
D2*
X3004D1*
D2*
X3061Y9355D1*
D2*
X3119Y9412D1*
D2*
X3148Y9469D1*
D2*
Y9555D1*
D2*
X3004D1*
X3735Y9928D2*
Y9325D1*
D2*
X3333Y9928D1*
D2*
Y9325D1*
X3920Y9928D2*
Y9325D1*
D2*
X4121D1*
D2*
X4207Y9355D1*
D2*
X4265Y9412D1*
D2*
X4294Y9469D1*
D2*
X4322Y9555D1*
D2*
Y9699D1*
D2*
X4294Y9785D1*
D2*
X4265Y9842D1*
D2*
X4207Y9900D1*
D2*
X4121Y9928D1*
D2*
X3920D1*
X919Y14821D2*
X948Y14763D1*
D2*
X1033Y14677D1*
D2*
X431D1*
M02*
