G04 DipTrace 2.1.0.5*
%INBottomCopper.gbr*%
%MOIN*%
%ADD10C,0.0098*%
%ADD11C,0.0055*%
%ADD12C,0.003*%
%ADD13C,0.0197*%
%ADD14C,0.02*%
%ADD15C,0.04*%
%ADD16C,0.0295*%
%ADD17C,0.0394*%
%ADD18C,0.0013*%
%ADD19C,0.0187*%
%ADD20R,0.0709X0.0197*%
%ADD21R,0.0197X0.0709*%
%ADD22R,0.2165X0.0787*%
%ADD23R,0.02X0.1181*%
%ADD24R,0.06X0.056*%
%ADD25R,0.0295X0.1772*%
%ADD26R,0.056X0.06*%
%ADD27R,0.1969X0.0984*%
%ADD28C,0.059*%
%ADD29C,0.065*%
%ADD30C,0.0039*%
%ADD31R,0.0433X0.0354*%
%ADD32R,0.0394X0.0354*%
%ADD33R,0.0925X0.0236*%
%ADD34C,0.09*%
%ADD35R,0.1024X0.0551*%
%ADD36R,0.0512X0.0591*%
%ADD37R,0.06X0.06*%
%ADD38C,0.06*%
%ADD39R,0.0906X0.0906*%
%ADD40R,0.118X0.217*%
%ADD41R,0.0866X0.0236*%
%ADD42R,0.0728X0.1004*%
%ADD43R,0.07X0.03*%
%ADD44O,0.07X0.03*%
%ADD45R,0.03X0.07*%
%ADD46O,0.03X0.07*%
%ADD47R,0.059X0.059*%
%ADD48C,0.059*%
%ADD49C,0.03*%
%ADD50C,0.1181*%
%ADD51C,0.035*%
%ADD52C,0.0354*%
%ADD53C,0.05*%
%ADD54C,0.008*%
%ADD55C,0.068*%
%ADD56C,0.052*%
%ADD57C,0.067*%
%ADD58C,0.051*%
%ADD59R,0.067X0.067*%
%ADD60R,0.051X0.051*%
%ADD61O,0.038X0.078*%
%ADD62O,0.022X0.062*%
%ADD63R,0.038X0.078*%
%ADD64R,0.022X0.062*%
%ADD65O,0.078X0.038*%
%ADD66O,0.062X0.022*%
%ADD67R,0.078X0.038*%
%ADD68R,0.062X0.022*%
%ADD69R,0.0809X0.1084*%
%ADD70R,0.0648X0.0924*%
%ADD71R,0.0946X0.0317*%
%ADD72R,0.0786X0.0156*%
%ADD73R,0.126X0.225*%
%ADD74R,0.11X0.209*%
%ADD75R,0.0986X0.0986*%
%ADD76R,0.0825X0.0825*%
%ADD77R,0.068X0.068*%
%ADD78R,0.052X0.052*%
%ADD79R,0.0592X0.0671*%
%ADD80R,0.0431X0.051*%
%ADD81R,0.1104X0.0631*%
%ADD82R,0.0943X0.0471*%
%ADD83C,0.098*%
%ADD84C,0.082*%
%ADD85R,0.1006X0.0317*%
%ADD86R,0.0845X0.0156*%
%ADD87R,0.0474X0.0435*%
%ADD88R,0.0313X0.0274*%
%ADD89R,0.0513X0.0435*%
%ADD90R,0.0353X0.0274*%
%ADD91C,0.073*%
%ADD92C,0.057*%
%ADD93C,0.067*%
%ADD94C,0.051*%
%ADD95R,0.2049X0.1065*%
%ADD96R,0.1888X0.0904*%
%ADD97R,0.064X0.068*%
%ADD98R,0.048X0.052*%
%ADD99R,0.0376X0.1852*%
%ADD100R,0.0215X0.1691*%
%ADD101R,0.068X0.064*%
%ADD102R,0.052X0.048*%
%ADD103R,0.028X0.1261*%
%ADD104R,0.012X0.1101*%
%ADD105R,0.2246X0.0868*%
%ADD106R,0.2085X0.0707*%
%ADD107R,0.0277X0.0789*%
%ADD108R,0.0117X0.0628*%
%ADD109R,0.0789X0.0277*%
%ADD110R,0.0628X0.0117*%
%ADD111C,0.0093*%
%ADD112C,0.0124*%
%FSLAX44Y44*%
%SFA1B1*%
%OFA0B0*%
G04*
G70*
G90*
G75*
G01*
%LNBottom*%
%LPD*%
X4875Y23690D2*
D13*
Y17973D1*
X4878D1*
X24252Y11501D2*
Y6938D1*
X23815Y6501D1*
X22940D1*
X22690Y6251D1*
Y5438D1*
X20064Y8376D2*
X19377D1*
X19252Y8501D1*
Y8813D1*
X4878Y17973D2*
Y8436D1*
X7751Y5563D1*
X23750Y41562D2*
D14*
Y41819D1*
X23127Y42442D1*
X14564D1*
X14250Y42128D1*
Y41562D1*
X27543Y29920D2*
D17*
Y31669D1*
X28815Y32941D1*
Y38441D1*
X27543Y29920D2*
Y29356D1*
X26503Y28315D1*
X21315D1*
X16324D1*
X15744Y27736D1*
X15449Y27440D1*
Y26950D1*
X14876Y26378D1*
Y25190D1*
X14939D1*
X15814D1*
X21315Y27440D2*
D14*
Y28315D1*
X3313Y20815D2*
D13*
X3438D1*
Y16189D1*
X3259D1*
Y12010D1*
X3000Y11751D1*
X1437D1*
X14939Y25190D2*
D17*
Y18752D1*
X13001Y16814D1*
X13543Y29920D2*
D13*
X13560D1*
X15744Y27736D1*
X20377Y16002D2*
D15*
X20689Y15689D1*
Y9813D1*
X19252D1*
X28543Y31150D2*
Y29920D1*
X20689Y9063D2*
Y9813D1*
X24543Y32066D2*
Y29920D1*
X6997Y33810D2*
X7063D1*
Y32316D1*
X625Y13564D2*
Y13126D1*
X875Y12876D1*
X1496D1*
X1500Y12881D1*
X12376Y28940D2*
D13*
Y29566D1*
X13251Y30441D1*
X14376D1*
X14564Y30253D1*
Y29900D1*
X14543Y29920D1*
X11242Y3915D2*
Y2260D1*
X16752Y22335D2*
Y24485D1*
X17028Y24762D1*
X28074D1*
X28992Y25680D1*
Y27055D1*
X29503Y27565D1*
X30315D1*
X18442Y23187D2*
X29942D1*
X30219Y22910D1*
Y6038D1*
X28868Y4688D1*
X17567D1*
X16217Y6038D1*
Y14583D1*
X15940Y14860D1*
X13518D1*
X13064Y14405D1*
Y2325D1*
X9242Y20641D2*
X9064D1*
Y2228D1*
X25440Y11501D2*
Y6001D1*
X25002Y5563D1*
X24190D1*
X18252Y8001D2*
Y8813D1*
X12064Y1063D2*
X12189D1*
X18502Y13751D2*
X16689Y15564D1*
X10251D1*
X9563Y14877D1*
Y6876D1*
X18442Y22134D2*
X21748D1*
X22025Y21857D1*
Y6517D1*
X17762Y22614D2*
Y23695D1*
X18039Y23972D1*
X20239D1*
X20646Y23565D1*
X30117D1*
X30496Y23187D1*
Y2915D1*
X29580Y2000D1*
X17284Y21655D2*
X21471D1*
X21748Y21378D1*
Y8585D1*
X20288Y7126D1*
X17627D1*
X16689Y8063D1*
Y15002D1*
X16502Y15189D1*
X10571D1*
X10064Y14682D1*
Y2228D1*
X8057Y8782D2*
Y26385D1*
X12799Y31128D1*
X17335D1*
X18543Y29920D1*
X13126Y16064D2*
X12439D1*
X12246Y16257D1*
Y18309D1*
X14251Y20315D1*
Y21877D1*
X11751Y24378D1*
Y29441D1*
X13064Y30753D1*
X16710D1*
X17543Y29920D1*
X5835Y17293D2*
Y24731D1*
X5212Y25353D1*
X3025D1*
X2313Y26065D1*
Y36592D1*
X8600Y42879D1*
X23377D1*
X24377Y41879D1*
Y33003D1*
X24033Y32659D1*
X23908D1*
X23565Y32316D1*
Y31566D1*
X23065Y31066D1*
X20502D1*
X20017Y30580D1*
Y29447D1*
X19635Y29066D1*
X15398D1*
X15017Y29447D1*
Y30117D1*
X15294Y30394D1*
X16069D1*
X16543Y29920D1*
X7578Y17973D2*
Y26706D1*
X12373Y31501D1*
X18740D1*
X19017Y31224D1*
Y29724D1*
X18740Y29447D1*
X16017D1*
X15543Y29920D1*
X18752Y12439D2*
X18252Y11939D1*
Y9813D1*
X22563Y28940D2*
X23543Y29920D1*
X22503Y12636D2*
Y16627D1*
X22690D1*
X17689Y13626D2*
X17752D1*
Y9313D1*
X17252Y8813D1*
X27330Y32646D2*
X26395D1*
X25543Y31794D1*
Y29920D1*
X26065Y31253D2*
X26003D1*
Y30643D1*
X26543Y30103D1*
Y29920D1*
X1250Y21940D2*
D14*
Y18877D1*
X1500Y18627D1*
Y17881D1*
X27190Y12126D2*
D13*
Y15281D1*
X6563Y23815D2*
X6500D1*
Y25190D1*
X2688Y29003D1*
Y33500D1*
X6997Y37810D1*
X13689Y20877D2*
X13376D1*
X13064Y21190D1*
X8535D1*
Y21148D1*
X11065Y31149D2*
Y35743D1*
X6997Y39810D1*
X14001Y27315D2*
Y28753D1*
X2188Y12251D2*
Y15193D1*
X1500Y15881D1*
X26190Y14776D2*
Y7751D1*
X26628Y7313D1*
X28003D1*
X1500Y15881D2*
X1817D1*
X2875Y16939D1*
Y18814D1*
X2760Y18929D1*
X2521D1*
X15516Y23190D2*
Y21454D1*
X15792Y21177D1*
X20993D1*
X21269Y20900D1*
Y10896D1*
X8563Y8251D2*
X7706D1*
X7377Y8580D1*
Y9876D1*
X7100Y10153D1*
Y20163D1*
X5572Y9876D2*
X6823D1*
X7100Y10153D1*
X2375Y17439D2*
Y17574D1*
X1682Y16881D1*
X1500D1*
D38*
X28543Y31150D3*
X24543Y32066D3*
X7063Y32316D3*
X12376Y28940D3*
X11242Y2260D3*
X13064Y2325D3*
X9064Y2228D3*
X18252Y8001D3*
X18502Y13751D3*
X9563Y6876D3*
X10064Y2228D3*
X22563Y28940D3*
X27190Y15281D3*
X26190Y14776D3*
X4875Y23690D3*
X4878Y17973D3*
X3259Y16189D3*
X796Y10448D3*
X3313Y20815D3*
X1437Y11751D3*
X21315Y27440D3*
X15814Y25190D3*
X20002Y13814D3*
X13001Y16814D3*
X28815Y38441D3*
X23750Y41562D3*
X14250D3*
X20377Y16002D3*
X20689Y9063D3*
X16752Y22335D3*
X30315Y27565D3*
X11242Y3915D3*
X18442Y23187D3*
X9242Y20641D3*
X18442Y22134D3*
X22025Y6517D3*
X17762Y22614D3*
X17284Y21655D3*
X8057Y8782D3*
X13126Y16064D3*
X5835Y17293D3*
X7578Y17973D3*
X22503Y12636D3*
X22690Y16627D3*
X27330Y32646D3*
X26065Y31253D3*
X1250Y21940D3*
X27190Y12126D3*
X13689Y20877D3*
X8535Y21148D3*
X6563Y23815D3*
X14001Y27315D3*
Y28753D3*
X11065Y31149D3*
X2188Y12251D3*
X28003Y7313D3*
X2521Y18929D3*
X15516Y23190D3*
X21269Y10896D3*
X8563Y8251D3*
X5572Y9876D3*
X7100Y20163D3*
X2375Y17439D3*
X7751Y5563D3*
X22690Y5438D3*
X24252Y11501D3*
X20064Y8376D3*
X24190Y5563D3*
X25440Y11501D3*
X29580Y2000D3*
X18752Y12439D3*
X17689Y13626D3*
X625Y13564D3*
D28*
X28543Y29920D3*
X27543D3*
X26543D3*
X25543D3*
X24543D3*
X23543D3*
X22543D3*
X21543D3*
X20543D3*
X19543D3*
X18543D3*
X17543D3*
X16543D3*
X15543D3*
X14543D3*
X13543D3*
D29*
X14064Y1063D3*
X13064D3*
X12064D3*
X11064D3*
X10064D3*
X9064D3*
X8064D3*
X7064D3*
X6064D3*
D34*
X6997Y39810D3*
Y37810D3*
Y35810D3*
Y33810D3*
D28*
X1500Y17881D3*
Y16881D3*
Y15881D3*
Y14881D3*
Y13881D3*
Y12881D3*
D37*
X27190Y16314D3*
D38*
X26190D3*
X25190D3*
X24190D3*
D29*
X28577Y24258D3*
Y22683D3*
Y21896D3*
Y21109D3*
Y20321D3*
X22671Y22683D3*
Y21896D3*
Y21109D3*
Y20321D3*
Y19534D3*
X28577D3*
D47*
X17252Y8813D3*
D48*
Y9813D3*
X18252Y8813D3*
Y9813D3*
X19252Y8813D3*
Y9813D3*
M02*
