M48
INCH
T01C0.02
T02C0.03
T03C0.035
T04C0.0354
T05C0.05
T06C0.1181
%
T01
X+004875Y+023690
X+006563Y+023815
X+008535Y+021148
X+009242Y+020641
X+007100Y+020163
X+007578Y+017973
X+005835Y+017293
X+004878Y+017973
X+002521Y+018929
X+002375Y+017439
X+001250Y+021940
X+002188Y+012251
X+005572Y+009876
X+008057Y+008782
X+008563Y+008251
X+009563Y+006876
X+007751Y+005563
X+009064Y+002228
X+010064Y+002228
X+011242Y+002260
X+011242Y+003915
X+013064Y+002325
X+018252Y+008001
X+020064Y+008376
X+022025Y+006517
X+022690Y+005438
X+024190Y+005563
X+028003Y+007313
X+027190Y+012126
X+025440Y+011501
X+024252Y+011501
X+022503Y+012636
X+021269Y+010896
X+018752Y+012439
X+018502Y+013751
X+017689Y+013626
X+013126Y+016064
X+013689Y+020877
X+015516Y+023190
X+016752Y+022335
X+017284Y+021655
X+017762Y+022614
X+018442Y+022134
X+018442Y+023187
X+014001Y+027315
X+014001Y+028753
X+011065Y+031149
X+022563Y+028940
X+026065Y+031253
X+027330Y+032646
X+030315Y+027565
X+027190Y+015281
X+026190Y+014776
X+022690Y+016627
X+029580Y+002000
T02
X+003259Y+016189
X+000625Y+013564
X+001437Y+011751
X+000796Y+010448
X+003313Y+020815
X+013001Y+016814
X+020377Y+016002
X+020002Y+013814
X+020689Y+009063
X+015814Y+025190
X+012376Y+028940
X+007063Y+032316
X+014250Y+041562
X+023750Y+041562
X+028815Y+038441
X+028543Y+031150
X+024543Y+032066
X+021315Y+027440
T03
X+028543Y+029920
X+027543Y+029920
X+026543Y+029920
X+025543Y+029920
X+024543Y+029920
X+023543Y+029920
X+019543Y+029920
X+018543Y+029920
X+017543Y+029920
X+016543Y+029920
X+015543Y+029920
X+014543Y+029920
X+013543Y+029920
X+022671Y+022683
X+022671Y+021896
X+022671Y+021109
X+022671Y+020321
X+022671Y+019534
X+024190Y+016314
X+025190Y+016314
X+026190Y+016314
X+027190Y+016314
X+028577Y+019534
X+028577Y+020321
X+028577Y+021109
X+028577Y+021896
X+028577Y+022683
X+028577Y+024258
X+019252Y+009813
X+018252Y+009813
X+017252Y+009813
X+017252Y+008813
X+018252Y+008813
X+019252Y+008813
X+014064Y+001063
X+013064Y+001063
X+012064Y+001063
X+011064Y+001063
X+010064Y+001063
X+009064Y+001063
X+008064Y+001063
X+007064Y+001063
X+006064Y+001063
X+001500Y+012881
X+001500Y+013881
X+001500Y+015881
X+001500Y+016881
X+001500Y+017881
T04
X+022543Y+029920
X+021543Y+029920
X+020543Y+029920
X+001500Y+014881
T05
X+006997Y+039810
X+006997Y+037810
X+006997Y+035810
X+006997Y+033810
T06
X+030512Y+030117
X+019112Y+026670
X+001000Y+026628
X+000984Y+030117
X+000984Y+042322
X+030512Y+042322
X+019127Y+003188
X+030440Y+001063
X+001000Y+003125
T00
M30
