  0
SECTION
  2
HEADER
  9
$ACADVER
  1
AC1009
  9
$ANGDIR
  70
0
  9
$CECOLOR
  62
256
  9
$CELTYPE
  6
BYLAYER
  9
$EXTMIN
  10
0.0
  20
0.0
  9
$EXTMAX
  10
3.1496
  20
4.3307
  9
$FILLMODE
  70
1
  9
$MIRRTEXT
  70
0
  0
ENDSEC
  0
SECTION
  2
TABLES
  0
TABLE
  2
LAYER
  70
17
  0
LAYER
  2
Top_Mask
  70
64
  62
3
  6
CONTINUOUS
  0
ENDTAB
  0
ENDSEC
  0
SECTION
  2
ENTITIES
  0
SOLID
  8
Top_Mask
  10
1.3982
  20
1.6578
  11
1.4771
  21
1.6578
  12
1.3982
  22
1.6301
  13
1.4771
  23
1.6301
  0
SOLID
  8
Top_Mask
  10
1.3982
  20
1.6263
  11
1.4771
  21
1.6263
  12
1.3982
  22
1.5986
  13
1.4771
  23
1.5986
  0
SOLID
  8
Top_Mask
  10
1.3982
  20
1.5948
  11
1.4771
  21
1.5948
  12
1.3982
  22
1.5671
  13
1.4771
  23
1.5671
  0
SOLID
  8
Top_Mask
  10
1.3982
  20
1.5633
  11
1.4771
  21
1.5633
  12
1.3982
  22
1.5356
  13
1.4771
  23
1.5356
  0
SOLID
  8
Top_Mask
  10
1.3982
  20
1.5318
  11
1.4771
  21
1.5318
  12
1.3982
  22
1.5041
  13
1.4771
  23
1.5041
  0
SOLID
  8
Top_Mask
  10
1.3982
  20
1.5003
  11
1.4771
  21
1.5003
  12
1.3982
  22
1.4726
  13
1.4771
  23
1.4726
  0
SOLID
  8
Top_Mask
  10
1.3982
  20
1.4688
  11
1.4771
  21
1.4688
  12
1.3982
  22
1.4411
  13
1.4771
  23
1.4411
  0
SOLID
  8
Top_Mask
  10
1.3982
  20
1.4373
  11
1.4771
  21
1.4373
  12
1.3982
  22
1.4096
  13
1.4771
  23
1.4096
  0
SOLID
  8
Top_Mask
  10
1.4831
  20
1.4042
  11
1.5109
  21
1.4042
  12
1.4831
  22
1.3253
  13
1.5109
  23
1.3253
  0
SOLID
  8
Top_Mask
  10
1.5146
  20
1.4042
  11
1.5424
  21
1.4042
  12
1.5146
  22
1.3253
  13
1.5424
  23
1.3253
  0
SOLID
  8
Top_Mask
  10
1.5461
  20
1.4042
  11
1.5739
  21
1.4042
  12
1.5461
  22
1.3253
  13
1.5739
  23
1.3253
  0
SOLID
  8
Top_Mask
  10
1.5776
  20
1.4042
  11
1.6053
  21
1.4042
  12
1.5776
  22
1.3253
  13
1.6053
  23
1.3253
  0
SOLID
  8
Top_Mask
  10
1.6091
  20
1.4042
  11
1.6368
  21
1.4042
  12
1.6091
  22
1.3253
  13
1.6368
  23
1.3253
  0
SOLID
  8
Top_Mask
  10
1.6406
  20
1.4042
  11
1.6683
  21
1.4042
  12
1.6406
  22
1.3253
  13
1.6683
  23
1.3253
  0
SOLID
  8
Top_Mask
  10
1.6721
  20
1.4042
  11
1.6998
  21
1.4042
  12
1.6721
  22
1.3253
  13
1.6998
  23
1.3253
  0
SOLID
  8
Top_Mask
  10
1.7036
  20
1.4042
  11
1.7313
  21
1.4042
  12
1.7036
  22
1.3253
  13
1.7313
  23
1.3253
  0
SOLID
  8
Top_Mask
  10
1.7368
  20
1.4379
  11
1.8157
  21
1.4379
  12
1.7368
  22
1.4102
  13
1.8157
  23
1.4102
  0
SOLID
  8
Top_Mask
  10
1.7368
  20
1.4694
  11
1.8157
  21
1.4694
  12
1.7368
  22
1.4417
  13
1.8157
  23
1.4417
  0
SOLID
  8
Top_Mask
  10
1.7368
  20
1.5009
  11
1.8157
  21
1.5009
  12
1.7368
  22
1.4732
  13
1.8157
  23
1.4732
  0
SOLID
  8
Top_Mask
  10
1.7368
  20
1.5324
  11
1.8157
  21
1.5324
  12
1.7368
  22
1.5047
  13
1.8157
  23
1.5047
  0
SOLID
  8
Top_Mask
  10
1.7368
  20
1.5639
  11
1.8157
  21
1.5639
  12
1.7368
  22
1.5362
  13
1.8157
  23
1.5362
  0
SOLID
  8
Top_Mask
  10
1.7368
  20
1.5954
  11
1.8157
  21
1.5954
  12
1.7368
  22
1.5677
  13
1.8157
  23
1.5677
  0
SOLID
  8
Top_Mask
  10
1.7368
  20
1.6269
  11
1.8157
  21
1.6269
  12
1.7368
  22
1.5992
  13
1.8157
  23
1.5992
  0
SOLID
  8
Top_Mask
  10
1.7368
  20
1.6584
  11
1.8157
  21
1.6584
  12
1.7368
  22
1.6307
  13
1.8157
  23
1.6307
  0
SOLID
  8
Top_Mask
  10
1.703
  20
1.7427
  11
1.7307
  21
1.7427
  12
1.703
  22
1.6638
  13
1.7307
  23
1.6638
  0
SOLID
  8
Top_Mask
  10
1.6715
  20
1.7427
  11
1.6992
  21
1.7427
  12
1.6715
  22
1.6638
  13
1.6992
  23
1.6638
  0
SOLID
  8
Top_Mask
  10
1.64
  20
1.7427
  11
1.6677
  21
1.7427
  12
1.64
  22
1.6638
  13
1.6677
  23
1.6638
  0
SOLID
  8
Top_Mask
  10
1.6085
  20
1.7427
  11
1.6362
  21
1.7427
  12
1.6085
  22
1.6638
  13
1.6362
  23
1.6638
  0
SOLID
  8
Top_Mask
  10
1.577
  20
1.7427
  11
1.6047
  21
1.7427
  12
1.577
  22
1.6638
  13
1.6047
  23
1.6638
  0
SOLID
  8
Top_Mask
  10
1.5455
  20
1.7427
  11
1.5732
  21
1.7427
  12
1.5455
  22
1.6638
  13
1.5732
  23
1.6638
  0
SOLID
  8
Top_Mask
  10
1.514
  20
1.7427
  11
1.5417
  21
1.7427
  12
1.514
  22
1.6638
  13
1.5417
  23
1.6638
  0
SOLID
  8
Top_Mask
  10
1.4825
  20
1.7427
  11
1.5102
  21
1.7427
  12
1.4825
  22
1.6638
  13
1.5102
  23
1.6638
  0
SOLID
  8
Top_Mask
  10
0.7815
  20
1.2935
  11
1.0061
  21
1.2935
  12
0.7815
  22
1.2067
  13
1.0061
  23
1.2067
  0
SOLID
  8
Top_Mask
  10
1.1556
  20
1.2935
  11
1.3801
  21
1.2935
  12
1.1556
  22
1.2067
  13
1.3801
  23
1.2067
  0
SOLID
  8
Top_Mask
  10
1.586
  20
3.6443
  11
1.614
  21
3.6443
  12
1.586
  22
3.5181
  13
1.614
  23
3.5181
  0
SOLID
  8
Top_Mask
  10
1.586
  20
3.4474
  11
1.614
  21
3.4474
  12
1.586
  22
3.3213
  13
1.614
  23
3.3213
  0
SOLID
  8
Top_Mask
  10
1.606
  20
4.2132
  11
1.674
  21
4.2132
  12
1.606
  22
4.1492
  13
1.674
  23
4.1492
  0
SOLID
  8
Top_Mask
  10
1.516
  20
4.2132
  11
1.584
  21
4.2132
  12
1.516
  22
4.1492
  13
1.584
  23
4.1492
  0
SOLID
  8
Top_Mask
  10
2.4812
  20
4.1988
  11
2.5188
  21
4.1988
  12
2.4812
  22
4.0136
  13
2.5188
  23
4.0136
  0
SOLID
  8
Top_Mask
  10
2.4812
  20
3.9626
  11
2.5188
  21
3.9626
  12
2.4812
  22
3.7774
  13
2.5188
  23
3.7774
  0
SOLID
  8
Top_Mask
  10
2.643
  20
3.8402
  11
2.707
  21
3.8402
  12
2.643
  22
3.7722
  13
2.707
  23
3.7722
  0
SOLID
  8
Top_Mask
  10
2.643
  20
3.7502
  11
2.707
  21
3.7502
  12
2.643
  22
3.6822
  13
2.707
  23
3.6822
  0
SOLID
  8
Top_Mask
  10
2.154
  20
0.8971
  11
2.3589
  21
0.8971
  12
2.154
  22
0.7906
  13
2.3589
  23
0.7906
  0
SOLID
  8
Top_Mask
  10
2.604
  20
0.8971
  11
2.8089
  21
0.8971
  12
2.604
  22
0.7906
  13
2.8089
  23
0.7906
  0
SOLID
  8
Top_Mask
  10
2.81
  20
1.0446
  11
2.878
  21
1.0446
  12
2.81
  22
0.9806
  13
2.878
  23
0.9806
  0
SOLID
  8
Top_Mask
  10
2.9
  20
1.0446
  11
2.968
  21
1.0446
  12
2.9
  22
0.9806
  13
2.968
  23
0.9806
  0
POLYLINE
  8
Top_Mask
  6
CONTINUOUS
  66
1
  70
0
  40
0.0335
  41
0.0335
  0
VERTEX
  8
Top_Mask
  10
2.8711
  20
2.992
  42
1
  0
VERTEX
  8
Top_Mask
  10
2.8376
  20
2.992
  42
1
  0
VERTEX
  8
Top_Mask
  10
2.8711
  20
2.992
  42
1
  0
SEQEND
  0
POLYLINE
  8
Top_Mask
  6
CONTINUOUS
  66
1
  70
0
  40
0.0335
  41
0.0335
  0
VERTEX
  8
Top_Mask
  10
2.8376
  20
2.992
  42
1
  0
VERTEX
  8
Top_Mask
  10
2.8711
  20
2.992
  42
1
  0
VERTEX
  8
Top_Mask
  10
2.8376
  20
2.992
  42
1
  0
SEQEND
  0
POLYLINE
  8
Top_Mask
  6
CONTINUOUS
  66
1
  70
0
  40
0.0335
  41
0.0335
  0
VERTEX
  8
Top_Mask
  10
2.7711
  20
2.992
  42
1
  0
VERTEX
  8
Top_Mask
  10
2.7376
  20
2.992
  42
1
  0
VERTEX
  8
Top_Mask
  10
2.7711
  20
2.992
  42
1
  0
SEQEND
  0
POLYLINE
  8
Top_Mask
  6
CONTINUOUS
  66
1
  70
0
  40
0.0335
  41
0.0335
  0
VERTEX
  8
Top_Mask
  10
2.7376
  20
2.992
  42
1
  0
VERTEX
  8
Top_Mask
  10
2.7711
  20
2.992
  42
1
  0
VERTEX
  8
Top_Mask
  10
2.7376
  20
2.992
  42
1
  0
SEQEND
  0
POLYLINE
  8
Top_Mask
  6
CONTINUOUS
  66
1
  70
0
  40
0.0335
  41
0.0335
  0
VERTEX
  8
Top_Mask
  10
2.6711
  20
2.992
  42
1
  0
VERTEX
  8
Top_Mask
  10
2.6376
  20
2.992
  42
1
  0
VERTEX
  8
Top_Mask
  10
2.6711
  20
2.992
  42
1
  0
SEQEND
  0
POLYLINE
  8
Top_Mask
  6
CONTINUOUS
  66
1
  70
0
  40
0.0335
  41
0.0335
  0
VERTEX
  8
Top_Mask
  10
2.6376
  20
2.992
  42
1
  0
VERTEX
  8
Top_Mask
  10
2.6711
  20
2.992
  42
1
  0
VERTEX
  8
Top_Mask
  10
2.6376
  20
2.992
  42
1
  0
SEQEND
  0
POLYLINE
  8
Top_Mask
  6
CONTINUOUS
  66
1
  70
0
  40
0.0335
  41
0.0335
  0
VERTEX
  8
Top_Mask
  10
2.5711
  20
2.992
  42
1
  0
VERTEX
  8
Top_Mask
  10
2.5376
  20
2.992
  42
1
  0
VERTEX
  8
Top_Mask
  10
2.5711
  20
2.992
  42
1
  0
SEQEND
  0
POLYLINE
  8
Top_Mask
  6
CONTINUOUS
  66
1
  70
0
  40
0.0335
  41
0.0335
  0
VERTEX
  8
Top_Mask
  10
2.5376
  20
2.992
  42
1
  0
VERTEX
  8
Top_Mask
  10
2.5711
  20
2.992
  42
1
  0
VERTEX
  8
Top_Mask
  10
2.5376
  20
2.992
  42
1
  0
SEQEND
  0
POLYLINE
  8
Top_Mask
  6
CONTINUOUS
  66
1
  70
0
  40
0.0335
  41
0.0335
  0
VERTEX
  8
Top_Mask
  10
2.4711
  20
2.992
  42
1
  0
VERTEX
  8
Top_Mask
  10
2.4376
  20
2.992
  42
1
  0
VERTEX
  8
Top_Mask
  10
2.4711
  20
2.992
  42
1
  0
SEQEND
  0
POLYLINE
  8
Top_Mask
  6
CONTINUOUS
  66
1
  70
0
  40
0.0335
  41
0.0335
  0
VERTEX
  8
Top_Mask
  10
2.4376
  20
2.992
  42
1
  0
VERTEX
  8
Top_Mask
  10
2.4711
  20
2.992
  42
1
  0
VERTEX
  8
Top_Mask
  10
2.4376
  20
2.992
  42
1
  0
SEQEND
  0
POLYLINE
  8
Top_Mask
  6
CONTINUOUS
  66
1
  70
0
  40
0.0335
  41
0.0335
  0
VERTEX
  8
Top_Mask
  10
2.3711
  20
2.992
  42
1
  0
VERTEX
  8
Top_Mask
  10
2.3376
  20
2.992
  42
1
  0
VERTEX
  8
Top_Mask
  10
2.3711
  20
2.992
  42
1
  0
SEQEND
  0
POLYLINE
  8
Top_Mask
  6
CONTINUOUS
  66
1
  70
0
  40
0.0335
  41
0.0335
  0
VERTEX
  8
Top_Mask
  10
2.3376
  20
2.992
  42
1
  0
VERTEX
  8
Top_Mask
  10
2.3711
  20
2.992
  42
1
  0
VERTEX
  8
Top_Mask
  10
2.3376
  20
2.992
  42
1
  0
SEQEND
  0
POLYLINE
  8
Top_Mask
  6
CONTINUOUS
  66
1
  70
0
  40
0.0335
  41
0.0335
  0
VERTEX
  8
Top_Mask
  10
2.2711
  20
2.992
  42
1
  0
VERTEX
  8
Top_Mask
  10
2.2375
  20
2.992
  42
1
  0
VERTEX
  8
Top_Mask
  10
2.2711
  20
2.992
  42
1
  0
SEQEND
  0
POLYLINE
  8
Top_Mask
  6
CONTINUOUS
  66
1
  70
0
  40
0.0335
  41
0.0335
  0
VERTEX
  8
Top_Mask
  10
2.2375
  20
2.992
  42
1
  0
VERTEX
  8
Top_Mask
  10
2.2711
  20
2.992
  42
1
  0
VERTEX
  8
Top_Mask
  10
2.2375
  20
2.992
  42
1
  0
SEQEND
  0
POLYLINE
  8
Top_Mask
  6
CONTINUOUS
  66
1
  70
0
  40
0.0335
  41
0.0335
  0
VERTEX
  8
Top_Mask
  10
2.1711
  20
2.992
  42
1
  0
VERTEX
  8
Top_Mask
  10
2.1375
  20
2.992
  42
1
  0
VERTEX
  8
Top_Mask
  10
2.1711
  20
2.992
  42
1
  0
SEQEND
  0
POLYLINE
  8
Top_Mask
  6
CONTINUOUS
  66
1
  70
0
  40
0.0335
  41
0.0335
  0
VERTEX
  8
Top_Mask
  10
2.1375
  20
2.992
  42
1
  0
VERTEX
  8
Top_Mask
  10
2.1711
  20
2.992
  42
1
  0
VERTEX
  8
Top_Mask
  10
2.1375
  20
2.992
  42
1
  0
SEQEND
  0
POLYLINE
  8
Top_Mask
  6
CONTINUOUS
  66
1
  70
0
  40
0.0335
  41
0.0335
  0
VERTEX
  8
Top_Mask
  10
2.0711
  20
2.992
  42
1
  0
VERTEX
  8
Top_Mask
  10
2.0375
  20
2.992
  42
1
  0
VERTEX
  8
Top_Mask
  10
2.0711
  20
2.992
  42
1
  0
SEQEND
  0
POLYLINE
  8
Top_Mask
  6
CONTINUOUS
  66
1
  70
0
  40
0.0335
  41
0.0335
  0
VERTEX
  8
Top_Mask
  10
2.0375
  20
2.992
  42
1
  0
VERTEX
  8
Top_Mask
  10
2.0711
  20
2.992
  42
1
  0
VERTEX
  8
Top_Mask
  10
2.0375
  20
2.992
  42
1
  0
SEQEND
  0
POLYLINE
  8
Top_Mask
  6
CONTINUOUS
  66
1
  70
0
  40
0.0335
  41
0.0335
  0
VERTEX
  8
Top_Mask
  10
1.9711
  20
2.992
  42
1
  0
VERTEX
  8
Top_Mask
  10
1.9376
  20
2.992
  42
1
  0
VERTEX
  8
Top_Mask
  10
1.9711
  20
2.992
  42
1
  0
SEQEND
  0
POLYLINE
  8
Top_Mask
  6
CONTINUOUS
  66
1
  70
0
  40
0.0335
  41
0.0335
  0
VERTEX
  8
Top_Mask
  10
1.9376
  20
2.992
  42
1
  0
VERTEX
  8
Top_Mask
  10
1.9711
  20
2.992
  42
1
  0
VERTEX
  8
Top_Mask
  10
1.9376
  20
2.992
  42
1
  0
SEQEND
  0
POLYLINE
  8
Top_Mask
  6
CONTINUOUS
  66
1
  70
0
  40
0.0335
  41
0.0335
  0
VERTEX
  8
Top_Mask
  10
1.8711
  20
2.992
  42
1
  0
VERTEX
  8
Top_Mask
  10
1.8376
  20
2.992
  42
1
  0
VERTEX
  8
Top_Mask
  10
1.8711
  20
2.992
  42
1
  0
SEQEND
  0
POLYLINE
  8
Top_Mask
  6
CONTINUOUS
  66
1
  70
0
  40
0.0335
  41
0.0335
  0
VERTEX
  8
Top_Mask
  10
1.8376
  20
2.992
  42
1
  0
VERTEX
  8
Top_Mask
  10
1.8711
  20
2.992
  42
1
  0
VERTEX
  8
Top_Mask
  10
1.8376
  20
2.992
  42
1
  0
SEQEND
  0
POLYLINE
  8
Top_Mask
  6
CONTINUOUS
  66
1
  70
0
  40
0.0335
  41
0.0335
  0
VERTEX
  8
Top_Mask
  10
1.7711
  20
2.992
  42
1
  0
VERTEX
  8
Top_Mask
  10
1.7376
  20
2.992
  42
1
  0
VERTEX
  8
Top_Mask
  10
1.7711
  20
2.992
  42
1
  0
SEQEND
  0
POLYLINE
  8
Top_Mask
  6
CONTINUOUS
  66
1
  70
0
  40
0.0335
  41
0.0335
  0
VERTEX
  8
Top_Mask
  10
1.7376
  20
2.992
  42
1
  0
VERTEX
  8
Top_Mask
  10
1.7711
  20
2.992
  42
1
  0
VERTEX
  8
Top_Mask
  10
1.7376
  20
2.992
  42
1
  0
SEQEND
  0
POLYLINE
  8
Top_Mask
  6
CONTINUOUS
  66
1
  70
0
  40
0.0335
  41
0.0335
  0
VERTEX
  8
Top_Mask
  10
1.6711
  20
2.992
  42
1
  0
VERTEX
  8
Top_Mask
  10
1.6376
  20
2.992
  42
1
  0
VERTEX
  8
Top_Mask
  10
1.6711
  20
2.992
  42
1
  0
SEQEND
  0
POLYLINE
  8
Top_Mask
  6
CONTINUOUS
  66
1
  70
0
  40
0.0335
  41
0.0335
  0
VERTEX
  8
Top_Mask
  10
1.6376
  20
2.992
  42
1
  0
VERTEX
  8
Top_Mask
  10
1.6711
  20
2.992
  42
1
  0
VERTEX
  8
Top_Mask
  10
1.6376
  20
2.992
  42
1
  0
SEQEND
  0
POLYLINE
  8
Top_Mask
  6
CONTINUOUS
  66
1
  70
0
  40
0.0335
  41
0.0335
  0
VERTEX
  8
Top_Mask
  10
1.5711
  20
2.992
  42
1
  0
VERTEX
  8
Top_Mask
  10
1.5376
  20
2.992
  42
1
  0
VERTEX
  8
Top_Mask
  10
1.5711
  20
2.992
  42
1
  0
SEQEND
  0
POLYLINE
  8
Top_Mask
  6
CONTINUOUS
  66
1
  70
0
  40
0.0335
  41
0.0335
  0
VERTEX
  8
Top_Mask
  10
1.5376
  20
2.992
  42
1
  0
VERTEX
  8
Top_Mask
  10
1.5711
  20
2.992
  42
1
  0
VERTEX
  8
Top_Mask
  10
1.5376
  20
2.992
  42
1
  0
SEQEND
  0
POLYLINE
  8
Top_Mask
  6
CONTINUOUS
  66
1
  70
0
  40
0.0335
  41
0.0335
  0
VERTEX
  8
Top_Mask
  10
1.4711
  20
2.992
  42
1
  0
VERTEX
  8
Top_Mask
  10
1.4376
  20
2.992
  42
1
  0
VERTEX
  8
Top_Mask
  10
1.4711
  20
2.992
  42
1
  0
SEQEND
  0
POLYLINE
  8
Top_Mask
  6
CONTINUOUS
  66
1
  70
0
  40
0.0335
  41
0.0335
  0
VERTEX
  8
Top_Mask
  10
1.4376
  20
2.992
  42
1
  0
VERTEX
  8
Top_Mask
  10
1.4711
  20
2.992
  42
1
  0
VERTEX
  8
Top_Mask
  10
1.4376
  20
2.992
  42
1
  0
SEQEND
  0
POLYLINE
  8
Top_Mask
  6
CONTINUOUS
  66
1
  70
0
  40
0.0335
  41
0.0335
  0
VERTEX
  8
Top_Mask
  10
1.3711
  20
2.992
  42
1
  0
VERTEX
  8
Top_Mask
  10
1.3376
  20
2.992
  42
1
  0
VERTEX
  8
Top_Mask
  10
1.3711
  20
2.992
  42
1
  0
SEQEND
  0
POLYLINE
  8
Top_Mask
  6
CONTINUOUS
  66
1
  70
0
  40
0.0335
  41
0.0335
  0
VERTEX
  8
Top_Mask
  10
1.3376
  20
2.992
  42
1
  0
VERTEX
  8
Top_Mask
  10
1.3711
  20
2.992
  42
1
  0
VERTEX
  8
Top_Mask
  10
1.3376
  20
2.992
  42
1
  0
SEQEND
  0
POLYLINE
  8
Top_Mask
  6
CONTINUOUS
  66
1
  70
0
  40
0.0365
  41
0.0365
  0
VERTEX
  8
Top_Mask
  10
1.4246
  20
0.1063
  42
1
  0
VERTEX
  8
Top_Mask
  10
1.3881
  20
0.1063
  42
1
  0
VERTEX
  8
Top_Mask
  10
1.4246
  20
0.1063
  42
1
  0
SEQEND
  0
POLYLINE
  8
Top_Mask
  6
CONTINUOUS
  66
1
  70
0
  40
0.0365
  41
0.0365
  0
VERTEX
  8
Top_Mask
  10
1.3881
  20
0.1063
  42
1
  0
VERTEX
  8
Top_Mask
  10
1.4246
  20
0.1063
  42
1
  0
VERTEX
  8
Top_Mask
  10
1.3881
  20
0.1063
  42
1
  0
SEQEND
  0
POLYLINE
  8
Top_Mask
  6
CONTINUOUS
  66
1
  70
0
  40
0.0365
  41
0.0365
  0
VERTEX
  8
Top_Mask
  10
1.3246
  20
0.1063
  42
1
  0
VERTEX
  8
Top_Mask
  10
1.2881
  20
0.1063
  42
1
  0
VERTEX
  8
Top_Mask
  10
1.3246
  20
0.1063
  42
1
  0
SEQEND
  0
POLYLINE
  8
Top_Mask
  6
CONTINUOUS
  66
1
  70
0
  40
0.0365
  41
0.0365
  0
VERTEX
  8
Top_Mask
  10
1.2881
  20
0.1063
  42
1
  0
VERTEX
  8
Top_Mask
  10
1.3246
  20
0.1063
  42
1
  0
VERTEX
  8
Top_Mask
  10
1.2881
  20
0.1063
  42
1
  0
SEQEND
  0
POLYLINE
  8
Top_Mask
  6
CONTINUOUS
  66
1
  70
0
  40
0.0365
  41
0.0365
  0
VERTEX
  8
Top_Mask
  10
1.2246
  20
0.1063
  42
1
  0
VERTEX
  8
Top_Mask
  10
1.1881
  20
0.1063
  42
1
  0
VERTEX
  8
Top_Mask
  10
1.2246
  20
0.1063
  42
1
  0
SEQEND
  0
POLYLINE
  8
Top_Mask
  6
CONTINUOUS
  66
1
  70
0
  40
0.0365
  41
0.0365
  0
VERTEX
  8
Top_Mask
  10
1.1881
  20
0.1063
  42
1
  0
VERTEX
  8
Top_Mask
  10
1.2246
  20
0.1063
  42
1
  0
VERTEX
  8
Top_Mask
  10
1.1881
  20
0.1063
  42
1
  0
SEQEND
  0
POLYLINE
  8
Top_Mask
  6
CONTINUOUS
  66
1
  70
0
  40
0.0365
  41
0.0365
  0
VERTEX
  8
Top_Mask
  10
1.1246
  20
0.1063
  42
1
  0
VERTEX
  8
Top_Mask
  10
1.0881
  20
0.1063
  42
1
  0
VERTEX
  8
Top_Mask
  10
1.1246
  20
0.1063
  42
1
  0
SEQEND
  0
POLYLINE
  8
Top_Mask
  6
CONTINUOUS
  66
1
  70
0
  40
0.0365
  41
0.0365
  0
VERTEX
  8
Top_Mask
  10
1.0881
  20
0.1063
  42
1
  0
VERTEX
  8
Top_Mask
  10
1.1246
  20
0.1063
  42
1
  0
VERTEX
  8
Top_Mask
  10
1.0881
  20
0.1063
  42
1
  0
SEQEND
  0
POLYLINE
  8
Top_Mask
  6
CONTINUOUS
  66
1
  70
0
  40
0.0365
  41
0.0365
  0
VERTEX
  8
Top_Mask
  10
1.0246
  20
0.1063
  42
1
  0
VERTEX
  8
Top_Mask
  10
0.9881
  20
0.1063
  42
1
  0
VERTEX
  8
Top_Mask
  10
1.0246
  20
0.1063
  42
1
  0
SEQEND
  0
POLYLINE
  8
Top_Mask
  6
CONTINUOUS
  66
1
  70
0
  40
0.0365
  41
0.0365
  0
VERTEX
  8
Top_Mask
  10
0.9881
  20
0.1063
  42
1
  0
VERTEX
  8
Top_Mask
  10
1.0246
  20
0.1063
  42
1
  0
VERTEX
  8
Top_Mask
  10
0.9881
  20
0.1063
  42
1
  0
SEQEND
  0
POLYLINE
  8
Top_Mask
  6
CONTINUOUS
  66
1
  70
0
  40
0.0365
  41
0.0365
  0
VERTEX
  8
Top_Mask
  10
0.9246
  20
0.1063
  42
1
  0
VERTEX
  8
Top_Mask
  10
0.8881
  20
0.1063
  42
1
  0
VERTEX
  8
Top_Mask
  10
0.9246
  20
0.1063
  42
1
  0
SEQEND
  0
POLYLINE
  8
Top_Mask
  6
CONTINUOUS
  66
1
  70
0
  40
0.0365
  41
0.0365
  0
VERTEX
  8
Top_Mask
  10
0.8881
  20
0.1063
  42
1
  0
VERTEX
  8
Top_Mask
  10
0.9246
  20
0.1063
  42
1
  0
VERTEX
  8
Top_Mask
  10
0.8881
  20
0.1063
  42
1
  0
SEQEND
  0
POLYLINE
  8
Top_Mask
  6
CONTINUOUS
  66
1
  70
0
  40
0.0365
  41
0.0365
  0
VERTEX
  8
Top_Mask
  10
0.8246
  20
0.1063
  42
1
  0
VERTEX
  8
Top_Mask
  10
0.7881
  20
0.1063
  42
1
  0
VERTEX
  8
Top_Mask
  10
0.8246
  20
0.1063
  42
1
  0
SEQEND
  0
POLYLINE
  8
Top_Mask
  6
CONTINUOUS
  66
1
  70
0
  40
0.0365
  41
0.0365
  0
VERTEX
  8
Top_Mask
  10
0.7881
  20
0.1063
  42
1
  0
VERTEX
  8
Top_Mask
  10
0.8246
  20
0.1063
  42
1
  0
VERTEX
  8
Top_Mask
  10
0.7881
  20
0.1063
  42
1
  0
SEQEND
  0
POLYLINE
  8
Top_Mask
  6
CONTINUOUS
  66
1
  70
0
  40
0.0365
  41
0.0365
  0
VERTEX
  8
Top_Mask
  10
0.7246
  20
0.1063
  42
1
  0
VERTEX
  8
Top_Mask
  10
0.6881
  20
0.1063
  42
1
  0
VERTEX
  8
Top_Mask
  10
0.7246
  20
0.1063
  42
1
  0
SEQEND
  0
POLYLINE
  8
Top_Mask
  6
CONTINUOUS
  66
1
  70
0
  40
0.0365
  41
0.0365
  0
VERTEX
  8
Top_Mask
  10
0.6881
  20
0.1063
  42
1
  0
VERTEX
  8
Top_Mask
  10
0.7246
  20
0.1063
  42
1
  0
VERTEX
  8
Top_Mask
  10
0.6881
  20
0.1063
  42
1
  0
SEQEND
  0
POLYLINE
  8
Top_Mask
  6
CONTINUOUS
  66
1
  70
0
  40
0.0365
  41
0.0365
  0
VERTEX
  8
Top_Mask
  10
0.6246
  20
0.1063
  42
1
  0
VERTEX
  8
Top_Mask
  10
0.5881
  20
0.1063
  42
1
  0
VERTEX
  8
Top_Mask
  10
0.6246
  20
0.1063
  42
1
  0
SEQEND
  0
POLYLINE
  8
Top_Mask
  6
CONTINUOUS
  66
1
  70
0
  40
0.0365
  41
0.0365
  0
VERTEX
  8
Top_Mask
  10
0.5881
  20
0.1063
  42
1
  0
VERTEX
  8
Top_Mask
  10
0.6246
  20
0.1063
  42
1
  0
VERTEX
  8
Top_Mask
  10
0.5881
  20
0.1063
  42
1
  0
SEQEND
  0
SOLID
  8
Top_Mask
  10
2.6183
  20
2.8595
  11
2.6697
  21
2.8595
  12
2.6183
  22
2.8161
  13
2.6697
  23
2.8161
  0
SOLID
  8
Top_Mask
  10
2.5866
  20
2.7457
  11
2.634
  21
2.7457
  12
2.5866
  22
2.7023
  13
2.634
  23
2.7023
  0
SOLID
  8
Top_Mask
  10
2.6546
  20
2.7457
  11
2.702
  21
2.7457
  12
2.6546
  22
2.7023
  13
2.702
  23
2.7023
  0
SOLID
  8
Top_Mask
  10
0.9812
  20
2.5329
  11
1.0818
  21
2.5329
  12
0.9812
  22
2.5012
  13
1.0818
  23
2.5012
  0
SOLID
  8
Top_Mask
  10
0.9812
  20
2.4829
  11
1.0818
  21
2.4829
  12
0.9812
  22
2.4512
  13
1.0818
  23
2.4512
  0
SOLID
  8
Top_Mask
  10
0.9812
  20
2.4329
  11
1.0818
  21
2.4329
  12
0.9812
  22
2.4012
  13
1.0818
  23
2.4012
  0
SOLID
  8
Top_Mask
  10
0.9812
  20
2.3829
  11
1.0818
  21
2.3829
  12
0.9812
  22
2.3512
  13
1.0818
  23
2.3512
  0
SOLID
  8
Top_Mask
  10
0.9812
  20
2.3329
  11
1.0818
  21
2.3329
  12
0.9812
  22
2.3012
  13
1.0818
  23
2.3012
  0
SOLID
  8
Top_Mask
  10
0.9812
  20
2.2829
  11
1.0818
  21
2.2829
  12
0.9812
  22
2.2512
  13
1.0818
  23
2.2512
  0
SOLID
  8
Top_Mask
  10
0.9812
  20
2.2329
  11
1.0818
  21
2.2329
  12
0.9812
  22
2.2012
  13
1.0818
  23
2.2012
  0
SOLID
  8
Top_Mask
  10
0.9812
  20
2.1829
  11
1.0818
  21
2.1829
  12
0.9812
  22
2.1512
  13
1.0818
  23
2.1512
  0
SOLID
  8
Top_Mask
  10
1.3769
  20
2.1829
  11
1.4774
  21
2.1829
  12
1.3769
  22
2.1512
  13
1.4774
  23
2.1512
  0
SOLID
  8
Top_Mask
  10
1.3769
  20
2.2329
  11
1.4774
  21
2.2329
  12
1.3769
  22
2.2012
  13
1.4774
  23
2.2012
  0
SOLID
  8
Top_Mask
  10
1.3769
  20
2.2829
  11
1.4774
  21
2.2829
  12
1.3769
  22
2.2512
  13
1.4774
  23
2.2512
  0
SOLID
  8
Top_Mask
  10
1.3769
  20
2.3329
  11
1.4774
  21
2.3329
  12
1.3769
  22
2.3012
  13
1.4774
  23
2.3012
  0
SOLID
  8
Top_Mask
  10
1.3769
  20
2.3829
  11
1.4774
  21
2.3829
  12
1.3769
  22
2.3512
  13
1.4774
  23
2.3512
  0
SOLID
  8
Top_Mask
  10
1.3769
  20
2.4329
  11
1.4774
  21
2.4329
  12
1.3769
  22
2.4012
  13
1.4774
  23
2.4012
  0
SOLID
  8
Top_Mask
  10
1.3769
  20
2.4829
  11
1.4774
  21
2.4829
  12
1.3769
  22
2.4512
  13
1.4774
  23
2.4512
  0
SOLID
  8
Top_Mask
  10
1.3769
  20
2.5329
  11
1.4774
  21
2.5329
  12
1.3769
  22
2.5012
  13
1.4774
  23
2.5012
  0
SOLID
  8
Top_Mask
  10
1.3286
  20
2.676
  11
1.3966
  21
2.676
  12
1.3286
  22
2.612
  13
1.3966
  23
2.612
  0
SOLID
  8
Top_Mask
  10
1.2386
  20
2.676
  11
1.3066
  21
2.676
  12
1.2386
  22
2.612
  13
1.3066
  23
2.612
  0
SOLID
  8
Top_Mask
  10
0.8431
  20
2.553
  11
0.9071
  21
2.553
  12
0.8431
  22
2.485
  13
0.9071
  23
2.485
  0
SOLID
  8
Top_Mask
  10
0.8431
  20
2.463
  11
0.9071
  21
2.463
  12
0.8431
  22
2.395
  13
0.9071
  23
2.395
  0
SOLID
  8
Top_Mask
  10
0.8431
  20
2.378
  11
0.9071
  21
2.378
  12
0.8431
  22
2.31
  13
0.9071
  23
2.31
  0
SOLID
  8
Top_Mask
  10
0.8431
  20
2.288
  11
0.9071
  21
2.288
  12
0.8431
  22
2.22
  13
0.9071
  23
2.22
  0
SOLID
  8
Top_Mask
  10
1.2286
  20
2.1072
  11
1.2966
  21
2.1072
  12
1.2286
  22
2.0432
  13
1.2966
  23
2.0432
  0
SOLID
  8
Top_Mask
  10
1.1386
  20
2.1072
  11
1.2066
  21
2.1072
  12
1.1386
  22
2.0432
  13
1.2066
  23
2.0432
  0
SOLID
  8
Top_Mask
  10
1.0536
  20
2.676
  11
1.1216
  21
2.676
  12
1.0536
  22
2.612
  13
1.1216
  23
2.612
  0
SOLID
  8
Top_Mask
  10
1.1436
  20
2.676
  11
1.2116
  21
2.676
  12
1.1436
  22
2.612
  13
1.2116
  23
2.612
  0
POLYLINE
  8
Top_Mask
  6
CONTINUOUS
  66
1
  70
0
  40
0.049
  41
0.049
  0
VERTEX
  8
Top_Mask
  10
0.7242
  20
3.981
  42
1
  0
VERTEX
  8
Top_Mask
  10
0.6752
  20
3.981
  42
1
  0
VERTEX
  8
Top_Mask
  10
0.7242
  20
3.981
  42
1
  0
SEQEND
  0
POLYLINE
  8
Top_Mask
  6
CONTINUOUS
  66
1
  70
0
  40
0.049
  41
0.049
  0
VERTEX
  8
Top_Mask
  10
0.6752
  20
3.981
  42
1
  0
VERTEX
  8
Top_Mask
  10
0.7242
  20
3.981
  42
1
  0
VERTEX
  8
Top_Mask
  10
0.6752
  20
3.981
  42
1
  0
SEQEND
  0
POLYLINE
  8
Top_Mask
  6
CONTINUOUS
  66
1
  70
0
  40
0.049
  41
0.049
  0
VERTEX
  8
Top_Mask
  10
0.7242
  20
3.781
  42
1
  0
VERTEX
  8
Top_Mask
  10
0.6752
  20
3.781
  42
1
  0
VERTEX
  8
Top_Mask
  10
0.7242
  20
3.781
  42
1
  0
SEQEND
  0
POLYLINE
  8
Top_Mask
  6
CONTINUOUS
  66
1
  70
0
  40
0.049
  41
0.049
  0
VERTEX
  8
Top_Mask
  10
0.6752
  20
3.781
  42
1
  0
VERTEX
  8
Top_Mask
  10
0.7242
  20
3.781
  42
1
  0
VERTEX
  8
Top_Mask
  10
0.6752
  20
3.781
  42
1
  0
SEQEND
  0
POLYLINE
  8
Top_Mask
  6
CONTINUOUS
  66
1
  70
0
  40
0.049
  41
0.049
  0
VERTEX
  8
Top_Mask
  10
0.7242
  20
3.581
  42
1
  0
VERTEX
  8
Top_Mask
  10
0.6752
  20
3.581
  42
1
  0
VERTEX
  8
Top_Mask
  10
0.7242
  20
3.581
  42
1
  0
SEQEND
  0
POLYLINE
  8
Top_Mask
  6
CONTINUOUS
  66
1
  70
0
  40
0.049
  41
0.049
  0
VERTEX
  8
Top_Mask
  10
0.6752
  20
3.581
  42
1
  0
VERTEX
  8
Top_Mask
  10
0.7242
  20
3.581
  42
1
  0
VERTEX
  8
Top_Mask
  10
0.6752
  20
3.581
  42
1
  0
SEQEND
  0
POLYLINE
  8
Top_Mask
  6
CONTINUOUS
  66
1
  70
0
  40
0.049
  41
0.049
  0
VERTEX
  8
Top_Mask
  10
0.7242
  20
3.381
  42
1
  0
VERTEX
  8
Top_Mask
  10
0.6752
  20
3.381
  42
1
  0
VERTEX
  8
Top_Mask
  10
0.7242
  20
3.381
  42
1
  0
SEQEND
  0
POLYLINE
  8
Top_Mask
  6
CONTINUOUS
  66
1
  70
0
  40
0.049
  41
0.049
  0
VERTEX
  8
Top_Mask
  10
0.6752
  20
3.381
  42
1
  0
VERTEX
  8
Top_Mask
  10
0.7242
  20
3.381
  42
1
  0
VERTEX
  8
Top_Mask
  10
0.6752
  20
3.381
  42
1
  0
SEQEND
  0
SOLID
  8
Top_Mask
  10
0.3636
  20
2.3131
  11
0.474
  21
2.3131
  12
0.3636
  22
2.2499
  13
0.474
  23
2.2499
  0
SOLID
  8
Top_Mask
  10
0.3636
  20
2.1713
  11
0.474
  21
2.1713
  12
0.3636
  22
2.1082
  13
0.474
  23
2.1082
  0
SOLID
  8
Top_Mask
  10
0.5998
  20
2.1713
  11
0.7102
  21
2.1713
  12
0.5998
  22
2.1082
  13
0.7102
  23
2.1082
  0
SOLID
  8
Top_Mask
  10
0.5998
  20
2.3131
  11
0.7102
  21
2.3131
  12
0.5998
  22
2.2499
  13
0.7102
  23
2.2499
  0
POLYLINE
  8
Top_Mask
  6
CONTINUOUS
  66
1
  70
0
  40
0.0335
  41
0.0335
  0
VERTEX
  8
Top_Mask
  10
0.1668
  20
1.7881
  42
1
  0
VERTEX
  8
Top_Mask
  10
0.1332
  20
1.7881
  42
1
  0
VERTEX
  8
Top_Mask
  10
0.1668
  20
1.7881
  42
1
  0
SEQEND
  0
POLYLINE
  8
Top_Mask
  6
CONTINUOUS
  66
1
  70
0
  40
0.0335
  41
0.0335
  0
VERTEX
  8
Top_Mask
  10
0.1332
  20
1.7881
  42
1
  0
VERTEX
  8
Top_Mask
  10
0.1668
  20
1.7881
  42
1
  0
VERTEX
  8
Top_Mask
  10
0.1332
  20
1.7881
  42
1
  0
SEQEND
  0
POLYLINE
  8
Top_Mask
  6
CONTINUOUS
  66
1
  70
0
  40
0.0335
  41
0.0335
  0
VERTEX
  8
Top_Mask
  10
0.1668
  20
1.6881
  42
1
  0
VERTEX
  8
Top_Mask
  10
0.1332
  20
1.6881
  42
1
  0
VERTEX
  8
Top_Mask
  10
0.1668
  20
1.6881
  42
1
  0
SEQEND
  0
POLYLINE
  8
Top_Mask
  6
CONTINUOUS
  66
1
  70
0
  40
0.0335
  41
0.0335
  0
VERTEX
  8
Top_Mask
  10
0.1332
  20
1.6881
  42
1
  0
VERTEX
  8
Top_Mask
  10
0.1668
  20
1.6881
  42
1
  0
VERTEX
  8
Top_Mask
  10
0.1332
  20
1.6881
  42
1
  0
SEQEND
  0
POLYLINE
  8
Top_Mask
  6
CONTINUOUS
  66
1
  70
0
  40
0.0335
  41
0.0335
  0
VERTEX
  8
Top_Mask
  10
0.1668
  20
1.5881
  42
1
  0
VERTEX
  8
Top_Mask
  10
0.1332
  20
1.5881
  42
1
  0
VERTEX
  8
Top_Mask
  10
0.1668
  20
1.5881
  42
1
  0
SEQEND
  0
POLYLINE
  8
Top_Mask
  6
CONTINUOUS
  66
1
  70
0
  40
0.0335
  41
0.0335
  0
VERTEX
  8
Top_Mask
  10
0.1332
  20
1.5881
  42
1
  0
VERTEX
  8
Top_Mask
  10
0.1668
  20
1.5881
  42
1
  0
VERTEX
  8
Top_Mask
  10
0.1332
  20
1.5881
  42
1
  0
SEQEND
  0
POLYLINE
  8
Top_Mask
  6
CONTINUOUS
  66
1
  70
0
  40
0.0335
  41
0.0335
  0
VERTEX
  8
Top_Mask
  10
0.1668
  20
1.4881
  42
1
  0
VERTEX
  8
Top_Mask
  10
0.1332
  20
1.4881
  42
1
  0
VERTEX
  8
Top_Mask
  10
0.1668
  20
1.4881
  42
1
  0
SEQEND
  0
POLYLINE
  8
Top_Mask
  6
CONTINUOUS
  66
1
  70
0
  40
0.0335
  41
0.0335
  0
VERTEX
  8
Top_Mask
  10
0.1332
  20
1.4881
  42
1
  0
VERTEX
  8
Top_Mask
  10
0.1668
  20
1.4881
  42
1
  0
VERTEX
  8
Top_Mask
  10
0.1332
  20
1.4881
  42
1
  0
SEQEND
  0
POLYLINE
  8
Top_Mask
  6
CONTINUOUS
  66
1
  70
0
  40
0.0335
  41
0.0335
  0
VERTEX
  8
Top_Mask
  10
0.1668
  20
1.3881
  42
1
  0
VERTEX
  8
Top_Mask
  10
0.1332
  20
1.3881
  42
1
  0
VERTEX
  8
Top_Mask
  10
0.1668
  20
1.3881
  42
1
  0
SEQEND
  0
POLYLINE
  8
Top_Mask
  6
CONTINUOUS
  66
1
  70
0
  40
0.0335
  41
0.0335
  0
VERTEX
  8
Top_Mask
  10
0.1332
  20
1.3881
  42
1
  0
VERTEX
  8
Top_Mask
  10
0.1668
  20
1.3881
  42
1
  0
VERTEX
  8
Top_Mask
  10
0.1332
  20
1.3881
  42
1
  0
SEQEND
  0
POLYLINE
  8
Top_Mask
  6
CONTINUOUS
  66
1
  70
0
  40
0.0335
  41
0.0335
  0
VERTEX
  8
Top_Mask
  10
0.1668
  20
1.2881
  42
1
  0
VERTEX
  8
Top_Mask
  10
0.1332
  20
1.2881
  42
1
  0
VERTEX
  8
Top_Mask
  10
0.1668
  20
1.2881
  42
1
  0
SEQEND
  0
POLYLINE
  8
Top_Mask
  6
CONTINUOUS
  66
1
  70
0
  40
0.0335
  41
0.0335
  0
VERTEX
  8
Top_Mask
  10
0.1332
  20
1.2881
  42
1
  0
VERTEX
  8
Top_Mask
  10
0.1668
  20
1.2881
  42
1
  0
VERTEX
  8
Top_Mask
  10
0.1332
  20
1.2881
  42
1
  0
SEQEND
  0
SOLID
  8
Top_Mask
  10
0.241
  20
2.3135
  11
0.309
  21
2.3135
  12
0.241
  22
2.2495
  13
0.309
  23
2.2495
  0
SOLID
  8
Top_Mask
  10
0.151
  20
2.3135
  11
0.219
  21
2.3135
  12
0.151
  22
2.2495
  13
0.219
  23
2.2495
  0
SOLID
  8
Top_Mask
  10
0.1579
  20
2.165
  11
0.2171
  21
2.165
  12
0.1579
  22
2.0979
  13
0.2171
  23
2.0979
  0
SOLID
  8
Top_Mask
  10
0.2327
  20
2.165
  11
0.2919
  21
2.165
  12
0.2327
  22
2.0979
  13
0.2919
  23
2.0979
  0
SOLID
  8
Top_Mask
  10
0.9148
  20
1.5122
  11
0.9829
  21
1.5122
  12
0.9148
  22
1.4481
  13
0.9829
  23
1.4481
  0
SOLID
  8
Top_Mask
  10
1.0048
  20
1.5122
  11
1.0729
  21
1.5122
  12
1.0048
  22
1.4481
  13
1.0729
  23
1.4481
  0
SOLID
  8
Top_Mask
  10
1.8808
  20
1.5031
  11
1.9448
  21
1.5031
  12
1.8808
  22
1.4351
  13
1.9448
  23
1.4351
  0
SOLID
  8
Top_Mask
  10
1.8808
  20
1.5931
  11
1.9448
  21
1.5931
  12
1.8808
  22
1.5251
  13
1.9448
  23
1.5251
  0
SOLID
  8
Top_Mask
  10
2.685
  20
1.6654
  11
2.753
  21
1.6654
  12
2.685
  22
1.5974
  13
2.753
  23
1.5974
  0
POLYLINE
  8
Top_Mask
  6
CONTINUOUS
  66
1
  70
0
  40
0.034
  41
0.034
  0
VERTEX
  8
Top_Mask
  10
2.636
  20
1.6314
  42
1
  0
VERTEX
  8
Top_Mask
  10
2.602
  20
1.6314
  42
1
  0
VERTEX
  8
Top_Mask
  10
2.636
  20
1.6314
  42
1
  0
SEQEND
  0
POLYLINE
  8
Top_Mask
  6
CONTINUOUS
  66
1
  70
0
  40
0.034
  41
0.034
  0
VERTEX
  8
Top_Mask
  10
2.602
  20
1.6314
  42
1
  0
VERTEX
  8
Top_Mask
  10
2.636
  20
1.6314
  42
1
  0
VERTEX
  8
Top_Mask
  10
2.602
  20
1.6314
  42
1
  0
SEQEND
  0
POLYLINE
  8
Top_Mask
  6
CONTINUOUS
  66
1
  70
0
  40
0.034
  41
0.034
  0
VERTEX
  8
Top_Mask
  10
2.536
  20
1.6314
  42
1
  0
VERTEX
  8
Top_Mask
  10
2.502
  20
1.6314
  42
1
  0
VERTEX
  8
Top_Mask
  10
2.536
  20
1.6314
  42
1
  0
SEQEND
  0
POLYLINE
  8
Top_Mask
  6
CONTINUOUS
  66
1
  70
0
  40
0.034
  41
0.034
  0
VERTEX
  8
Top_Mask
  10
2.502
  20
1.6314
  42
1
  0
VERTEX
  8
Top_Mask
  10
2.536
  20
1.6314
  42
1
  0
VERTEX
  8
Top_Mask
  10
2.502
  20
1.6314
  42
1
  0
SEQEND
  0
POLYLINE
  8
Top_Mask
  6
CONTINUOUS
  66
1
  70
0
  40
0.034
  41
0.034
  0
VERTEX
  8
Top_Mask
  10
2.436
  20
1.6314
  42
1
  0
VERTEX
  8
Top_Mask
  10
2.402
  20
1.6314
  42
1
  0
VERTEX
  8
Top_Mask
  10
2.436
  20
1.6314
  42
1
  0
SEQEND
  0
POLYLINE
  8
Top_Mask
  6
CONTINUOUS
  66
1
  70
0
  40
0.034
  41
0.034
  0
VERTEX
  8
Top_Mask
  10
2.402
  20
1.6314
  42
1
  0
VERTEX
  8
Top_Mask
  10
2.436
  20
1.6314
  42
1
  0
VERTEX
  8
Top_Mask
  10
2.402
  20
1.6314
  42
1
  0
SEQEND
  0
SOLID
  8
Top_Mask
  10
0.9507
  20
3.4305
  11
1.0493
  21
3.4305
  12
0.9507
  22
3.3319
  13
1.0493
  23
3.3319
  0
SOLID
  8
Top_Mask
  10
0.9507
  20
3.6077
  11
1.0493
  21
3.6077
  12
0.9507
  22
3.5091
  13
1.0493
  23
3.5091
  0
SOLID
  8
Top_Mask
  10
1.837
  20
4.0937
  11
1.963
  21
4.0937
  12
1.837
  22
3.8687
  13
1.963
  23
3.8687
  0
SOLID
  8
Top_Mask
  10
2.2407
  20
4.0937
  11
2.3667
  21
4.0937
  12
2.2407
  22
3.8687
  13
2.3667
  23
3.8687
  0
SOLID
  8
Top_Mask
  10
1.3525
  20
4.097
  11
1.4472
  21
4.097
  12
1.3525
  22
4.0654
  13
1.4472
  23
4.0654
  0
SOLID
  8
Top_Mask
  10
1.3525
  20
4.047
  11
1.4472
  21
4.047
  12
1.3525
  22
4.0154
  13
1.4472
  23
4.0154
  0
SOLID
  8
Top_Mask
  10
1.3525
  20
3.997
  11
1.4472
  21
3.997
  12
1.3525
  22
3.9654
  13
1.4472
  23
3.9654
  0
SOLID
  8
Top_Mask
  10
1.3525
  20
3.947
  11
1.4472
  21
3.947
  12
1.3525
  22
3.9154
  13
1.4472
  23
3.9154
  0
SOLID
  8
Top_Mask
  10
1.3525
  20
3.897
  11
1.4472
  21
3.897
  12
1.3525
  22
3.8654
  13
1.4472
  23
3.8654
  0
SOLID
  8
Top_Mask
  10
1.3525
  20
3.847
  11
1.4472
  21
3.847
  12
1.3525
  22
3.8154
  13
1.4472
  23
3.8154
  0
SOLID
  8
Top_Mask
  10
1.3525
  20
3.797
  11
1.4472
  21
3.797
  12
1.3525
  22
3.7654
  13
1.4472
  23
3.7654
  0
SOLID
  8
Top_Mask
  10
1.7147
  20
3.797
  11
1.8094
  21
3.797
  12
1.7147
  22
3.7654
  13
1.8094
  23
3.7654
  0
SOLID
  8
Top_Mask
  10
1.7147
  20
3.847
  11
1.8094
  21
3.847
  12
1.7147
  22
3.8154
  13
1.8094
  23
3.8154
  0
SOLID
  8
Top_Mask
  10
1.7147
  20
3.897
  11
1.8094
  21
3.897
  12
1.7147
  22
3.8654
  13
1.8094
  23
3.8654
  0
SOLID
  8
Top_Mask
  10
1.7147
  20
3.947
  11
1.8094
  21
3.947
  12
1.7147
  22
3.9154
  13
1.8094
  23
3.9154
  0
SOLID
  8
Top_Mask
  10
1.7147
  20
3.997
  11
1.8094
  21
3.997
  12
1.7147
  22
3.9654
  13
1.8094
  23
3.9654
  0
SOLID
  8
Top_Mask
  10
1.7147
  20
4.047
  11
1.8094
  21
4.047
  12
1.7147
  22
4.0154
  13
1.8094
  23
4.0154
  0
SOLID
  8
Top_Mask
  10
1.7147
  20
4.097
  11
1.8094
  21
4.097
  12
1.7147
  22
4.0654
  13
1.8094
  23
4.0654
  0
SOLID
  8
Top_Mask
  10
1.7595
  20
3.6354
  11
1.8404
  21
3.6354
  12
1.7595
  22
3.527
  13
1.8404
  23
3.527
  0
SOLID
  8
Top_Mask
  10
1.7595
  20
3.472
  11
1.8404
  21
3.472
  12
1.7595
  22
3.3636
  13
1.8404
  23
3.3636
  0
SOLID
  8
Top_Mask
  10
2.4812
  20
3.5238
  11
2.5188
  21
3.5238
  12
2.4812
  22
3.3386
  13
2.5188
  23
3.3386
  0
SOLID
  8
Top_Mask
  10
2.4812
  20
3.76
  11
2.5188
  21
3.76
  12
2.4812
  22
3.5748
  13
2.5188
  23
3.5748
  0
SOLID
  8
Top_Mask
  10
1.961
  20
3.6443
  11
1.989
  21
3.6443
  12
1.961
  22
3.5181
  13
1.989
  23
3.5181
  0
SOLID
  8
Top_Mask
  10
1.961
  20
3.4474
  11
1.989
  21
3.4474
  12
1.961
  22
3.3213
  13
1.989
  23
3.3213
  0
SOLID
  8
Top_Mask
  10
1.386
  20
3.6443
  11
1.414
  21
3.6443
  12
1.386
  22
3.5181
  13
1.414
  23
3.5181
  0
SOLID
  8
Top_Mask
  10
1.386
  20
3.4474
  11
1.414
  21
3.4474
  12
1.386
  22
3.3213
  13
1.414
  23
3.3213
  0
SOLID
  8
Top_Mask
  10
1.186
  20
3.6443
  11
1.214
  21
3.6443
  12
1.186
  22
3.5181
  13
1.214
  23
3.5181
  0
SOLID
  8
Top_Mask
  10
1.186
  20
3.4474
  11
1.214
  21
3.4474
  12
1.186
  22
3.3213
  13
1.214
  23
3.3213
  0
SOLID
  8
Top_Mask
  10
2.161
  20
3.6443
  11
2.189
  21
3.6443
  12
2.161
  22
3.5181
  13
2.189
  23
3.5181
  0
SOLID
  8
Top_Mask
  10
2.161
  20
3.4474
  11
2.189
  21
3.4474
  12
2.161
  22
3.3213
  13
2.189
  23
3.3213
  0
SOLID
  8
Top_Mask
  10
0.8598
  20
1.1259
  11
0.9279
  21
1.1259
  12
0.8598
  22
1.0618
  13
0.9279
  23
1.0618
  0
SOLID
  8
Top_Mask
  10
0.9498
  20
1.1259
  11
1.0179
  21
1.1259
  12
0.9498
  22
1.0618
  13
1.0179
  23
1.0618
  0
SOLID
  8
Top_Mask
  10
1.2223
  20
1.1259
  11
1.2904
  21
1.1259
  12
1.2223
  22
1.0618
  13
1.2904
  23
1.0618
  0
SOLID
  8
Top_Mask
  10
1.1323
  20
1.1259
  11
1.2004
  21
1.1259
  12
1.1323
  22
1.0618
  13
1.2004
  23
1.0618
  0
SOLID
  8
Top_Mask
  10
0.464
  20
1.1211
  11
0.5232
  21
1.1211
  12
0.464
  22
1.0541
  13
0.5232
  23
1.0541
  0
SOLID
  8
Top_Mask
  10
0.3892
  20
1.1211
  11
0.4484
  21
1.1211
  12
0.3892
  22
1.0541
  13
0.4484
  23
1.0541
  0
SOLID
  8
Top_Mask
  10
0.464
  20
1.0211
  11
0.5232
  21
1.0211
  12
0.464
  22
0.954
  13
0.5232
  23
0.954
  0
SOLID
  8
Top_Mask
  10
0.3892
  20
1.0211
  11
0.4484
  21
1.0211
  12
0.3892
  22
0.954
  13
0.4484
  23
0.954
  0
SOLID
  8
Top_Mask
  10
0.2548
  20
0.9816
  11
0.3328
  21
0.9816
  12
0.2548
  22
0.9436
  13
0.3328
  23
0.9436
  0
POLYLINE
  8
Top_Mask
  6
CONTINUOUS
  66
1
  70
0
  40
0.019
  41
0.019
  0
VERTEX
  8
Top_Mask
  10
0.1413
  20
0.9626
  42
1
  0
VERTEX
  8
Top_Mask
  10
0.1223
  20
0.9626
  42
1
  0
VERTEX
  8
Top_Mask
  10
0.1413
  20
0.9626
  42
1
  0
SEQEND
  0
POLYLINE
  8
Top_Mask
  6
CONTINUOUS
  66
1
  70
0
  40
0.019
  41
0.019
  0
VERTEX
  8
Top_Mask
  10
0.1623
  20
0.9626
  42
1
  0
VERTEX
  8
Top_Mask
  10
0.1813
  20
0.9626
  42
1
  0
VERTEX
  8
Top_Mask
  10
0.1623
  20
0.9626
  42
1
  0
SEQEND
  0
SOLID
  8
Top_Mask
  10
0.1318
  20
0.9816
  11
0.1718
  21
0.9816
  12
0.1318
  22
0.9436
  13
0.1718
  23
0.9436
  0
SOLID
  8
Top_Mask
  10
0.2547
  20
1.1066
  11
0.3328
  21
1.1066
  12
0.2547
  22
1.0686
  13
0.3328
  23
1.0686
  0
POLYLINE
  8
Top_Mask
  6
CONTINUOUS
  66
1
  70
0
  40
0.019
  41
0.019
  0
VERTEX
  8
Top_Mask
  10
0.1413
  20
1.0876
  42
1
  0
VERTEX
  8
Top_Mask
  10
0.1223
  20
1.0876
  42
1
  0
VERTEX
  8
Top_Mask
  10
0.1413
  20
1.0876
  42
1
  0
SEQEND
  0
POLYLINE
  8
Top_Mask
  6
CONTINUOUS
  66
1
  70
0
  40
0.019
  41
0.019
  0
VERTEX
  8
Top_Mask
  10
0.1623
  20
1.0876
  42
1
  0
VERTEX
  8
Top_Mask
  10
0.1813
  20
1.0876
  42
1
  0
VERTEX
  8
Top_Mask
  10
0.1623
  20
1.0876
  42
1
  0
SEQEND
  0
SOLID
  8
Top_Mask
  10
0.1318
  20
1.1066
  11
0.1718
  21
1.1066
  12
0.1318
  22
1.0686
  13
0.1718
  23
1.0686
  0
SOLID
  8
Top_Mask
  10
0.9595
  20
3.9604
  11
1.0404
  21
3.9604
  12
0.9595
  22
3.852
  13
1.0404
  23
3.852
  0
SOLID
  8
Top_Mask
  10
0.9595
  20
3.797
  11
1.0404
  21
3.797
  12
0.9595
  22
3.6886
  13
1.0404
  23
3.6886
  0
SOLID
  8
Top_Mask
  10
1.0454
  20
4.1647
  11
1.1046
  21
4.1647
  12
1.0454
  22
4.0977
  13
1.1046
  23
4.0977
  0
SOLID
  8
Top_Mask
  10
0.9706
  20
4.1647
  11
1.0298
  21
4.1647
  12
0.9706
  22
4.0977
  13
1.0298
  23
4.0977
  0
SOLID
  8
Top_Mask
  10
1.206
  20
3.8702
  11
1.244
  21
3.8702
  12
1.206
  22
3.7922
  13
1.244
  23
3.7922
  0
POLYLINE
  8
Top_Mask
  6
CONTINUOUS
  66
1
  70
0
  40
0.019
  41
0.019
  0
VERTEX
  8
Top_Mask
  10
1.2345
  20
3.9932
  42
1
  0
VERTEX
  8
Top_Mask
  10
1.2155
  20
3.9932
  42
1
  0
VERTEX
  8
Top_Mask
  10
1.2345
  20
3.9932
  42
1
  0
SEQEND
  0
POLYLINE
  8
Top_Mask
  6
CONTINUOUS
  66
1
  70
0
  40
0.019
  41
0.019
  0
VERTEX
  8
Top_Mask
  10
1.2155
  20
3.9532
  42
1
  0
VERTEX
  8
Top_Mask
  10
1.2345
  20
3.9532
  42
1
  0
VERTEX
  8
Top_Mask
  10
1.2155
  20
3.9532
  42
1
  0
SEQEND
  0
SOLID
  8
Top_Mask
  10
1.206
  20
3.9932
  11
1.244
  21
3.9932
  12
1.206
  22
3.9532
  13
1.244
  23
3.9532
  0
SOLID
  8
Top_Mask
  10
2.3706
  20
2.7588
  11
2.4298
  21
2.7588
  12
2.3706
  22
2.6917
  13
2.4298
  23
2.6917
  0
SOLID
  8
Top_Mask
  10
2.4454
  20
2.7588
  11
2.5046
  21
2.7588
  12
2.4454
  22
2.6917
  13
2.5046
  23
2.6917
  0
SOLID
  8
Top_Mask
  10
2.2019
  20
2.7588
  11
2.2611
  21
2.7588
  12
2.2019
  22
2.6917
  13
2.2611
  23
2.6917
  0
SOLID
  8
Top_Mask
  10
2.2767
  20
2.7588
  11
2.3359
  21
2.7588
  12
2.2767
  22
2.6917
  13
2.3359
  23
2.6917
  0
POLYLINE
  8
Top_Mask
  6
CONTINUOUS
  66
1
  70
0
  40
0.0365
  41
0.0365
  0
VERTEX
  8
Top_Mask
  10
2.8759
  20
2.4258
  42
1
  0
VERTEX
  8
Top_Mask
  10
2.8394
  20
2.4258
  42
1
  0
VERTEX
  8
Top_Mask
  10
2.8759
  20
2.4258
  42
1
  0
SEQEND
  0
POLYLINE
  8
Top_Mask
  6
CONTINUOUS
  66
1
  70
0
  40
0.0365
  41
0.0365
  0
VERTEX
  8
Top_Mask
  10
2.8394
  20
2.4258
  42
1
  0
VERTEX
  8
Top_Mask
  10
2.8759
  20
2.4258
  42
1
  0
VERTEX
  8
Top_Mask
  10
2.8394
  20
2.4258
  42
1
  0
SEQEND
  0
POLYLINE
  8
Top_Mask
  6
CONTINUOUS
  66
1
  70
0
  40
0.0365
  41
0.0365
  0
VERTEX
  8
Top_Mask
  10
2.8759
  20
2.2683
  42
1
  0
VERTEX
  8
Top_Mask
  10
2.8394
  20
2.2683
  42
1
  0
VERTEX
  8
Top_Mask
  10
2.8759
  20
2.2683
  42
1
  0
SEQEND
  0
POLYLINE
  8
Top_Mask
  6
CONTINUOUS
  66
1
  70
0
  40
0.0365
  41
0.0365
  0
VERTEX
  8
Top_Mask
  10
2.8394
  20
2.2683
  42
1
  0
VERTEX
  8
Top_Mask
  10
2.8759
  20
2.2683
  42
1
  0
VERTEX
  8
Top_Mask
  10
2.8394
  20
2.2683
  42
1
  0
SEQEND
  0
POLYLINE
  8
Top_Mask
  6
CONTINUOUS
  66
1
  70
0
  40
0.0365
  41
0.0365
  0
VERTEX
  8
Top_Mask
  10
2.8759
  20
2.1896
  42
1
  0
VERTEX
  8
Top_Mask
  10
2.8394
  20
2.1896
  42
1
  0
VERTEX
  8
Top_Mask
  10
2.8759
  20
2.1896
  42
1
  0
SEQEND
  0
POLYLINE
  8
Top_Mask
  6
CONTINUOUS
  66
1
  70
0
  40
0.0365
  41
0.0365
  0
VERTEX
  8
Top_Mask
  10
2.8394
  20
2.1896
  42
1
  0
VERTEX
  8
Top_Mask
  10
2.8759
  20
2.1896
  42
1
  0
VERTEX
  8
Top_Mask
  10
2.8394
  20
2.1896
  42
1
  0
SEQEND
  0
POLYLINE
  8
Top_Mask
  6
CONTINUOUS
  66
1
  70
0
  40
0.0365
  41
0.0365
  0
VERTEX
  8
Top_Mask
  10
2.8759
  20
2.1109
  42
1
  0
VERTEX
  8
Top_Mask
  10
2.8394
  20
2.1109
  42
1
  0
VERTEX
  8
Top_Mask
  10
2.8759
  20
2.1109
  42
1
  0
SEQEND
  0
POLYLINE
  8
Top_Mask
  6
CONTINUOUS
  66
1
  70
0
  40
0.0365
  41
0.0365
  0
VERTEX
  8
Top_Mask
  10
2.8394
  20
2.1109
  42
1
  0
VERTEX
  8
Top_Mask
  10
2.8759
  20
2.1109
  42
1
  0
VERTEX
  8
Top_Mask
  10
2.8394
  20
2.1109
  42
1
  0
SEQEND
  0
POLYLINE
  8
Top_Mask
  6
CONTINUOUS
  66
1
  70
0
  40
0.0365
  41
0.0365
  0
VERTEX
  8
Top_Mask
  10
2.8759
  20
2.0321
  42
1
  0
VERTEX
  8
Top_Mask
  10
2.8394
  20
2.0321
  42
1
  0
VERTEX
  8
Top_Mask
  10
2.8759
  20
2.0321
  42
1
  0
SEQEND
  0
POLYLINE
  8
Top_Mask
  6
CONTINUOUS
  66
1
  70
0
  40
0.0365
  41
0.0365
  0
VERTEX
  8
Top_Mask
  10
2.8394
  20
2.0321
  42
1
  0
VERTEX
  8
Top_Mask
  10
2.8759
  20
2.0321
  42
1
  0
VERTEX
  8
Top_Mask
  10
2.8394
  20
2.0321
  42
1
  0
SEQEND
  0
POLYLINE
  8
Top_Mask
  6
CONTINUOUS
  66
1
  70
0
  40
0.0365
  41
0.0365
  0
VERTEX
  8
Top_Mask
  10
2.2854
  20
2.2683
  42
1
  0
VERTEX
  8
Top_Mask
  10
2.2489
  20
2.2683
  42
1
  0
VERTEX
  8
Top_Mask
  10
2.2854
  20
2.2683
  42
1
  0
SEQEND
  0
POLYLINE
  8
Top_Mask
  6
CONTINUOUS
  66
1
  70
0
  40
0.0365
  41
0.0365
  0
VERTEX
  8
Top_Mask
  10
2.2489
  20
2.2683
  42
1
  0
VERTEX
  8
Top_Mask
  10
2.2854
  20
2.2683
  42
1
  0
VERTEX
  8
Top_Mask
  10
2.2489
  20
2.2683
  42
1
  0
SEQEND
  0
POLYLINE
  8
Top_Mask
  6
CONTINUOUS
  66
1
  70
0
  40
0.0365
  41
0.0365
  0
VERTEX
  8
Top_Mask
  10
2.2854
  20
2.1896
  42
1
  0
VERTEX
  8
Top_Mask
  10
2.2489
  20
2.1896
  42
1
  0
VERTEX
  8
Top_Mask
  10
2.2854
  20
2.1896
  42
1
  0
SEQEND
  0
POLYLINE
  8
Top_Mask
  6
CONTINUOUS
  66
1
  70
0
  40
0.0365
  41
0.0365
  0
VERTEX
  8
Top_Mask
  10
2.2489
  20
2.1896
  42
1
  0
VERTEX
  8
Top_Mask
  10
2.2854
  20
2.1896
  42
1
  0
VERTEX
  8
Top_Mask
  10
2.2489
  20
2.1896
  42
1
  0
SEQEND
  0
POLYLINE
  8
Top_Mask
  6
CONTINUOUS
  66
1
  70
0
  40
0.0365
  41
0.0365
  0
VERTEX
  8
Top_Mask
  10
2.2854
  20
2.1109
  42
1
  0
VERTEX
  8
Top_Mask
  10
2.2489
  20
2.1109
  42
1
  0
VERTEX
  8
Top_Mask
  10
2.2854
  20
2.1109
  42
1
  0
SEQEND
  0
POLYLINE
  8
Top_Mask
  6
CONTINUOUS
  66
1
  70
0
  40
0.0365
  41
0.0365
  0
VERTEX
  8
Top_Mask
  10
2.2489
  20
2.1109
  42
1
  0
VERTEX
  8
Top_Mask
  10
2.2854
  20
2.1109
  42
1
  0
VERTEX
  8
Top_Mask
  10
2.2489
  20
2.1109
  42
1
  0
SEQEND
  0
POLYLINE
  8
Top_Mask
  6
CONTINUOUS
  66
1
  70
0
  40
0.0365
  41
0.0365
  0
VERTEX
  8
Top_Mask
  10
2.2854
  20
2.0321
  42
1
  0
VERTEX
  8
Top_Mask
  10
2.2489
  20
2.0321
  42
1
  0
VERTEX
  8
Top_Mask
  10
2.2854
  20
2.0321
  42
1
  0
SEQEND
  0
POLYLINE
  8
Top_Mask
  6
CONTINUOUS
  66
1
  70
0
  40
0.0365
  41
0.0365
  0
VERTEX
  8
Top_Mask
  10
2.2489
  20
2.0321
  42
1
  0
VERTEX
  8
Top_Mask
  10
2.2854
  20
2.0321
  42
1
  0
VERTEX
  8
Top_Mask
  10
2.2489
  20
2.0321
  42
1
  0
SEQEND
  0
POLYLINE
  8
Top_Mask
  6
CONTINUOUS
  66
1
  70
0
  40
0.0365
  41
0.0365
  0
VERTEX
  8
Top_Mask
  10
2.2854
  20
1.9534
  42
1
  0
VERTEX
  8
Top_Mask
  10
2.2489
  20
1.9534
  42
1
  0
VERTEX
  8
Top_Mask
  10
2.2854
  20
1.9534
  42
1
  0
SEQEND
  0
POLYLINE
  8
Top_Mask
  6
CONTINUOUS
  66
1
  70
0
  40
0.0365
  41
0.0365
  0
VERTEX
  8
Top_Mask
  10
2.2489
  20
1.9534
  42
1
  0
VERTEX
  8
Top_Mask
  10
2.2854
  20
1.9534
  42
1
  0
VERTEX
  8
Top_Mask
  10
2.2489
  20
1.9534
  42
1
  0
SEQEND
  0
POLYLINE
  8
Top_Mask
  6
CONTINUOUS
  66
1
  70
0
  40
0.0365
  41
0.0365
  0
VERTEX
  8
Top_Mask
  10
2.8759
  20
1.9534
  42
1
  0
VERTEX
  8
Top_Mask
  10
2.8394
  20
1.9534
  42
1
  0
VERTEX
  8
Top_Mask
  10
2.8759
  20
1.9534
  42
1
  0
SEQEND
  0
POLYLINE
  8
Top_Mask
  6
CONTINUOUS
  66
1
  70
0
  40
0.0365
  41
0.0365
  0
VERTEX
  8
Top_Mask
  10
2.8394
  20
1.9534
  42
1
  0
VERTEX
  8
Top_Mask
  10
2.8759
  20
1.9534
  42
1
  0
VERTEX
  8
Top_Mask
  10
2.8394
  20
1.9534
  42
1
  0
SEQEND
  0
SOLID
  8
Top_Mask
  10
2.4725
  20
2.1947
  11
2.5405
  21
2.1947
  12
2.4725
  22
2.1307
  13
2.5405
  23
2.1307
  0
SOLID
  8
Top_Mask
  10
2.5625
  20
2.1947
  11
2.6305
  21
2.1947
  12
2.5625
  22
2.1307
  13
2.6305
  23
2.1307
  0
SOLID
  8
Top_Mask
  10
1.6916
  20
0.9149
  11
1.7587
  21
0.9149
  12
1.6916
  22
0.8478
  13
1.7587
  23
0.8478
  0
POLYLINE
  8
Top_Mask
  6
CONTINUOUS
  66
1
  70
0
  40
0.0335
  41
0.0335
  0
VERTEX
  8
Top_Mask
  10
1.7419
  20
0.9813
  42
1
  0
VERTEX
  8
Top_Mask
  10
1.7084
  20
0.9813
  42
1
  0
VERTEX
  8
Top_Mask
  10
1.7419
  20
0.9813
  42
1
  0
SEQEND
  0
POLYLINE
  8
Top_Mask
  6
CONTINUOUS
  66
1
  70
0
  40
0.0335
  41
0.0335
  0
VERTEX
  8
Top_Mask
  10
1.7084
  20
0.9813
  42
1
  0
VERTEX
  8
Top_Mask
  10
1.7419
  20
0.9813
  42
1
  0
VERTEX
  8
Top_Mask
  10
1.7084
  20
0.9813
  42
1
  0
SEQEND
  0
POLYLINE
  8
Top_Mask
  6
CONTINUOUS
  66
1
  70
0
  40
0.0335
  41
0.0335
  0
VERTEX
  8
Top_Mask
  10
1.8419
  20
0.8813
  42
1
  0
VERTEX
  8
Top_Mask
  10
1.8084
  20
0.8813
  42
1
  0
VERTEX
  8
Top_Mask
  10
1.8419
  20
0.8813
  42
1
  0
SEQEND
  0
POLYLINE
  8
Top_Mask
  6
CONTINUOUS
  66
1
  70
0
  40
0.0335
  41
0.0335
  0
VERTEX
  8
Top_Mask
  10
1.8084
  20
0.8813
  42
1
  0
VERTEX
  8
Top_Mask
  10
1.8419
  20
0.8813
  42
1
  0
VERTEX
  8
Top_Mask
  10
1.8084
  20
0.8813
  42
1
  0
SEQEND
  0
POLYLINE
  8
Top_Mask
  6
CONTINUOUS
  66
1
  70
0
  40
0.0335
  41
0.0335
  0
VERTEX
  8
Top_Mask
  10
1.8419
  20
0.9813
  42
1
  0
VERTEX
  8
Top_Mask
  10
1.8084
  20
0.9813
  42
1
  0
VERTEX
  8
Top_Mask
  10
1.8419
  20
0.9813
  42
1
  0
SEQEND
  0
POLYLINE
  8
Top_Mask
  6
CONTINUOUS
  66
1
  70
0
  40
0.0335
  41
0.0335
  0
VERTEX
  8
Top_Mask
  10
1.8084
  20
0.9813
  42
1
  0
VERTEX
  8
Top_Mask
  10
1.8419
  20
0.9813
  42
1
  0
VERTEX
  8
Top_Mask
  10
1.8084
  20
0.9813
  42
1
  0
SEQEND
  0
POLYLINE
  8
Top_Mask
  6
CONTINUOUS
  66
1
  70
0
  40
0.0335
  41
0.0335
  0
VERTEX
  8
Top_Mask
  10
1.9419
  20
0.8813
  42
1
  0
VERTEX
  8
Top_Mask
  10
1.9084
  20
0.8813
  42
1
  0
VERTEX
  8
Top_Mask
  10
1.9419
  20
0.8813
  42
1
  0
SEQEND
  0
POLYLINE
  8
Top_Mask
  6
CONTINUOUS
  66
1
  70
0
  40
0.0335
  41
0.0335
  0
VERTEX
  8
Top_Mask
  10
1.9084
  20
0.8813
  42
1
  0
VERTEX
  8
Top_Mask
  10
1.9419
  20
0.8813
  42
1
  0
VERTEX
  8
Top_Mask
  10
1.9084
  20
0.8813
  42
1
  0
SEQEND
  0
POLYLINE
  8
Top_Mask
  6
CONTINUOUS
  66
1
  70
0
  40
0.0335
  41
0.0335
  0
VERTEX
  8
Top_Mask
  10
1.9419
  20
0.9813
  42
1
  0
VERTEX
  8
Top_Mask
  10
1.9084
  20
0.9813
  42
1
  0
VERTEX
  8
Top_Mask
  10
1.9419
  20
0.9813
  42
1
  0
SEQEND
  0
POLYLINE
  8
Top_Mask
  6
CONTINUOUS
  66
1
  70
0
  40
0.0335
  41
0.0335
  0
VERTEX
  8
Top_Mask
  10
1.9084
  20
0.9813
  42
1
  0
VERTEX
  8
Top_Mask
  10
1.9419
  20
0.9813
  42
1
  0
VERTEX
  8
Top_Mask
  10
1.9084
  20
0.9813
  42
1
  0
SEQEND
  0
ENDSEC
  0
EOF
