  0
SECTION
  2
HEADER
  9
$ACADVER
  1
AC1009
  9
$ANGDIR
  70
0
  9
$CECOLOR
  62
256
  9
$CELTYPE
  6
BYLAYER
  9
$EXTMIN
  10
0.0
  20
0.0
  9
$EXTMAX
  10
3.1496
  20
4.3307
  9
$FILLMODE
  70
1
  9
$MIRRTEXT
  70
0
  0
ENDSEC
  0
SECTION
  2
TABLES
  0
TABLE
  2
LAYER
  70
17
  0
LAYER
  2
Top_Paste
  70
64
  62
4
  6
CONTINUOUS
  0
LAYER
  2
Board_Outline
  70
64
  62
13
  6
CONTINUOUS
  0
ENDTAB
  0
ENDSEC
  0
SECTION
  2
ENTITIES
  0
SOLID
  8
Top_Paste
  10
1.4062
  20
1.6497
  11
1.469
  21
1.6497
  12
1.4062
  22
1.6381
  13
1.469
  23
1.6381
  0
SOLID
  8
Top_Paste
  10
1.4062
  20
1.6182
  11
1.469
  21
1.6182
  12
1.4062
  22
1.6066
  13
1.469
  23
1.6066
  0
SOLID
  8
Top_Paste
  10
1.4062
  20
1.5868
  11
1.469
  21
1.5868
  12
1.4062
  22
1.5751
  13
1.469
  23
1.5751
  0
SOLID
  8
Top_Paste
  10
1.4062
  20
1.5553
  11
1.469
  21
1.5553
  12
1.4062
  22
1.5436
  13
1.469
  23
1.5436
  0
SOLID
  8
Top_Paste
  10
1.4062
  20
1.5238
  11
1.469
  21
1.5238
  12
1.4062
  22
1.5121
  13
1.469
  23
1.5121
  0
SOLID
  8
Top_Paste
  10
1.4062
  20
1.4923
  11
1.469
  21
1.4923
  12
1.4062
  22
1.4806
  13
1.469
  23
1.4806
  0
SOLID
  8
Top_Paste
  10
1.4062
  20
1.4608
  11
1.469
  21
1.4608
  12
1.4062
  22
1.4491
  13
1.469
  23
1.4491
  0
SOLID
  8
Top_Paste
  10
1.4062
  20
1.4293
  11
1.469
  21
1.4293
  12
1.4062
  22
1.4176
  13
1.469
  23
1.4176
  0
SOLID
  8
Top_Paste
  10
1.4912
  20
1.3961
  11
1.5028
  21
1.3961
  12
1.4912
  22
1.3333
  13
1.5028
  23
1.3333
  0
SOLID
  8
Top_Paste
  10
1.5227
  20
1.3961
  11
1.5343
  21
1.3961
  12
1.5227
  22
1.3333
  13
1.5343
  23
1.3333
  0
SOLID
  8
Top_Paste
  10
1.5542
  20
1.3961
  11
1.5658
  21
1.3961
  12
1.5542
  22
1.3333
  13
1.5658
  23
1.3333
  0
SOLID
  8
Top_Paste
  10
1.5857
  20
1.3961
  11
1.5973
  21
1.3961
  12
1.5857
  22
1.3333
  13
1.5973
  23
1.3333
  0
SOLID
  8
Top_Paste
  10
1.6172
  20
1.3961
  11
1.6288
  21
1.3961
  12
1.6172
  22
1.3333
  13
1.6288
  23
1.3333
  0
SOLID
  8
Top_Paste
  10
1.6487
  20
1.3961
  11
1.6603
  21
1.3961
  12
1.6487
  22
1.3333
  13
1.6603
  23
1.3333
  0
SOLID
  8
Top_Paste
  10
1.6802
  20
1.3961
  11
1.6918
  21
1.3961
  12
1.6802
  22
1.3333
  13
1.6918
  23
1.3333
  0
SOLID
  8
Top_Paste
  10
1.7116
  20
1.3961
  11
1.7233
  21
1.3961
  12
1.7116
  22
1.3333
  13
1.7233
  23
1.3333
  0
SOLID
  8
Top_Paste
  10
1.7448
  20
1.4299
  11
1.8076
  21
1.4299
  12
1.7448
  22
1.4182
  13
1.8076
  23
1.4182
  0
SOLID
  8
Top_Paste
  10
1.7448
  20
1.4614
  11
1.8076
  21
1.4614
  12
1.7448
  22
1.4497
  13
1.8076
  23
1.4497
  0
SOLID
  8
Top_Paste
  10
1.7448
  20
1.4929
  11
1.8076
  21
1.4929
  12
1.7448
  22
1.4812
  13
1.8076
  23
1.4812
  0
SOLID
  8
Top_Paste
  10
1.7448
  20
1.5244
  11
1.8076
  21
1.5244
  12
1.7448
  22
1.5127
  13
1.8076
  23
1.5127
  0
SOLID
  8
Top_Paste
  10
1.7448
  20
1.5559
  11
1.8076
  21
1.5559
  12
1.7448
  22
1.5442
  13
1.8076
  23
1.5442
  0
SOLID
  8
Top_Paste
  10
1.7448
  20
1.5874
  11
1.8076
  21
1.5874
  12
1.7448
  22
1.5757
  13
1.8076
  23
1.5757
  0
SOLID
  8
Top_Paste
  10
1.7448
  20
1.6189
  11
1.8076
  21
1.6189
  12
1.7448
  22
1.6072
  13
1.8076
  23
1.6072
  0
SOLID
  8
Top_Paste
  10
1.7448
  20
1.6504
  11
1.8076
  21
1.6504
  12
1.7448
  22
1.6387
  13
1.8076
  23
1.6387
  0
SOLID
  8
Top_Paste
  10
1.711
  20
1.7347
  11
1.7227
  21
1.7347
  12
1.711
  22
1.6719
  13
1.7227
  23
1.6719
  0
SOLID
  8
Top_Paste
  10
1.6795
  20
1.7347
  11
1.6912
  21
1.7347
  12
1.6795
  22
1.6719
  13
1.6912
  23
1.6719
  0
SOLID
  8
Top_Paste
  10
1.648
  20
1.7347
  11
1.6597
  21
1.7347
  12
1.648
  22
1.6719
  13
1.6597
  23
1.6719
  0
SOLID
  8
Top_Paste
  10
1.6165
  20
1.7347
  11
1.6282
  21
1.7347
  12
1.6165
  22
1.6719
  13
1.6282
  23
1.6719
  0
SOLID
  8
Top_Paste
  10
1.585
  20
1.7347
  11
1.5967
  21
1.7347
  12
1.585
  22
1.6719
  13
1.5967
  23
1.6719
  0
SOLID
  8
Top_Paste
  10
1.5535
  20
1.7347
  11
1.5652
  21
1.7347
  12
1.5535
  22
1.6719
  13
1.5652
  23
1.6719
  0
SOLID
  8
Top_Paste
  10
1.522
  20
1.7347
  11
1.5337
  21
1.7347
  12
1.522
  22
1.6719
  13
1.5337
  23
1.6719
  0
SOLID
  8
Top_Paste
  10
1.4905
  20
1.7347
  11
1.5022
  21
1.7347
  12
1.4905
  22
1.6719
  13
1.5022
  23
1.6719
  0
SOLID
  8
Top_Paste
  10
0.7896
  20
1.2855
  11
0.9981
  21
1.2855
  12
0.7896
  22
1.2148
  13
0.9981
  23
1.2148
  0
SOLID
  8
Top_Paste
  10
1.1636
  20
1.2855
  11
1.3721
  21
1.2855
  12
1.1636
  22
1.2148
  13
1.3721
  23
1.2148
  0
SOLID
  8
Top_Paste
  10
1.594
  20
3.6362
  11
1.606
  21
3.6362
  12
1.594
  22
3.5262
  13
1.606
  23
3.5262
  0
SOLID
  8
Top_Paste
  10
1.594
  20
3.4394
  11
1.606
  21
3.4394
  12
1.594
  22
3.3293
  13
1.606
  23
3.3293
  0
SOLID
  8
Top_Paste
  10
1.614
  20
4.2052
  11
1.666
  21
4.2052
  12
1.614
  22
4.1572
  13
1.666
  23
4.1572
  0
SOLID
  8
Top_Paste
  10
1.524
  20
4.2052
  11
1.576
  21
4.2052
  12
1.524
  22
4.1572
  13
1.576
  23
4.1572
  0
SOLID
  8
Top_Paste
  10
2.4892
  20
4.1908
  11
2.5107
  21
4.1908
  12
2.4892
  22
4.0216
  13
2.5107
  23
4.0216
  0
SOLID
  8
Top_Paste
  10
2.4892
  20
3.9546
  11
2.5107
  21
3.9546
  12
2.4892
  22
3.7854
  13
2.5107
  23
3.7854
  0
SOLID
  8
Top_Paste
  10
2.651
  20
3.8322
  11
2.699
  21
3.8322
  12
2.651
  22
3.7802
  13
2.699
  23
3.7802
  0
SOLID
  8
Top_Paste
  10
2.651
  20
3.7422
  11
2.699
  21
3.7422
  12
2.651
  22
3.6902
  13
2.699
  23
3.6902
  0
SOLID
  8
Top_Paste
  10
2.1621
  20
0.889
  11
2.3509
  21
0.889
  12
2.1621
  22
0.7986
  13
2.3509
  23
0.7986
  0
SOLID
  8
Top_Paste
  10
2.6121
  20
0.889
  11
2.8009
  21
0.889
  12
2.6121
  22
0.7986
  13
2.8009
  23
0.7986
  0
SOLID
  8
Top_Paste
  10
2.818
  20
1.0366
  11
2.87
  21
1.0366
  12
2.818
  22
0.9886
  13
2.87
  23
0.9886
  0
SOLID
  8
Top_Paste
  10
2.908
  20
1.0366
  11
2.96
  21
1.0366
  12
2.908
  22
0.9886
  13
2.96
  23
0.9886
  0
SOLID
  8
Top_Paste
  10
2.6264
  20
2.8515
  11
2.6616
  21
2.8515
  12
2.6264
  22
2.8241
  13
2.6616
  23
2.8241
  0
SOLID
  8
Top_Paste
  10
2.5947
  20
2.7377
  11
2.626
  21
2.7377
  12
2.5947
  22
2.7103
  13
2.626
  23
2.7103
  0
SOLID
  8
Top_Paste
  10
2.6626
  20
2.7377
  11
2.6939
  21
2.7377
  12
2.6626
  22
2.7103
  13
2.6939
  23
2.7103
  0
SOLID
  8
Top_Paste
  10
0.9892
  20
2.5248
  11
1.0737
  21
2.5248
  12
0.9892
  22
2.5092
  13
1.0737
  23
2.5092
  0
SOLID
  8
Top_Paste
  10
0.9892
  20
2.4748
  11
1.0737
  21
2.4748
  12
0.9892
  22
2.4592
  13
1.0737
  23
2.4592
  0
SOLID
  8
Top_Paste
  10
0.9892
  20
2.4248
  11
1.0737
  21
2.4248
  12
0.9892
  22
2.4092
  13
1.0737
  23
2.4092
  0
SOLID
  8
Top_Paste
  10
0.9892
  20
2.3748
  11
1.0737
  21
2.3748
  12
0.9892
  22
2.3592
  13
1.0737
  23
2.3592
  0
SOLID
  8
Top_Paste
  10
0.9892
  20
2.3248
  11
1.0737
  21
2.3248
  12
0.9892
  22
2.3092
  13
1.0737
  23
2.3092
  0
SOLID
  8
Top_Paste
  10
0.9892
  20
2.2748
  11
1.0737
  21
2.2748
  12
0.9892
  22
2.2592
  13
1.0737
  23
2.2592
  0
SOLID
  8
Top_Paste
  10
0.9892
  20
2.2248
  11
1.0737
  21
2.2248
  12
0.9892
  22
2.2092
  13
1.0737
  23
2.2092
  0
SOLID
  8
Top_Paste
  10
0.9892
  20
2.1748
  11
1.0737
  21
2.1748
  12
0.9892
  22
2.1592
  13
1.0737
  23
2.1592
  0
SOLID
  8
Top_Paste
  10
1.3849
  20
2.1748
  11
1.4694
  21
2.1748
  12
1.3849
  22
2.1592
  13
1.4694
  23
2.1592
  0
SOLID
  8
Top_Paste
  10
1.3849
  20
2.2248
  11
1.4694
  21
2.2248
  12
1.3849
  22
2.2092
  13
1.4694
  23
2.2092
  0
SOLID
  8
Top_Paste
  10
1.3849
  20
2.2748
  11
1.4694
  21
2.2748
  12
1.3849
  22
2.2592
  13
1.4694
  23
2.2592
  0
SOLID
  8
Top_Paste
  10
1.3849
  20
2.3248
  11
1.4694
  21
2.3248
  12
1.3849
  22
2.3092
  13
1.4694
  23
2.3092
  0
SOLID
  8
Top_Paste
  10
1.3849
  20
2.3748
  11
1.4694
  21
2.3748
  12
1.3849
  22
2.3592
  13
1.4694
  23
2.3592
  0
SOLID
  8
Top_Paste
  10
1.3849
  20
2.4248
  11
1.4694
  21
2.4248
  12
1.3849
  22
2.4092
  13
1.4694
  23
2.4092
  0
SOLID
  8
Top_Paste
  10
1.3849
  20
2.4748
  11
1.4694
  21
2.4748
  12
1.3849
  22
2.4592
  13
1.4694
  23
2.4592
  0
SOLID
  8
Top_Paste
  10
1.3849
  20
2.5248
  11
1.4694
  21
2.5248
  12
1.3849
  22
2.5092
  13
1.4694
  23
2.5092
  0
SOLID
  8
Top_Paste
  10
1.3366
  20
2.668
  11
1.3886
  21
2.668
  12
1.3366
  22
2.62
  13
1.3886
  23
2.62
  0
SOLID
  8
Top_Paste
  10
1.2466
  20
2.668
  11
1.2986
  21
2.668
  12
1.2466
  22
2.62
  13
1.2986
  23
2.62
  0
SOLID
  8
Top_Paste
  10
0.8511
  20
2.545
  11
0.8991
  21
2.545
  12
0.8511
  22
2.493
  13
0.8991
  23
2.493
  0
SOLID
  8
Top_Paste
  10
0.8511
  20
2.455
  11
0.8991
  21
2.455
  12
0.8511
  22
2.403
  13
0.8991
  23
2.403
  0
SOLID
  8
Top_Paste
  10
0.8511
  20
2.37
  11
0.8991
  21
2.37
  12
0.8511
  22
2.318
  13
0.8991
  23
2.318
  0
SOLID
  8
Top_Paste
  10
0.8511
  20
2.28
  11
0.8991
  21
2.28
  12
0.8511
  22
2.228
  13
0.8991
  23
2.228
  0
SOLID
  8
Top_Paste
  10
1.2366
  20
2.0992
  11
1.2886
  21
2.0992
  12
1.2366
  22
2.0512
  13
1.2886
  23
2.0512
  0
SOLID
  8
Top_Paste
  10
1.1466
  20
2.0992
  11
1.1986
  21
2.0992
  12
1.1466
  22
2.0512
  13
1.1986
  23
2.0512
  0
SOLID
  8
Top_Paste
  10
1.0616
  20
2.668
  11
1.1136
  21
2.668
  12
1.0616
  22
2.62
  13
1.1136
  23
2.62
  0
SOLID
  8
Top_Paste
  10
1.1516
  20
2.668
  11
1.2036
  21
2.668
  12
1.1516
  22
2.62
  13
1.2036
  23
2.62
  0
SOLID
  8
Top_Paste
  10
0.3716
  20
2.305
  11
0.4659
  21
2.305
  12
0.3716
  22
2.2579
  13
0.4659
  23
2.2579
  0
SOLID
  8
Top_Paste
  10
0.3716
  20
2.1633
  11
0.4659
  21
2.1633
  12
0.3716
  22
2.1162
  13
0.4659
  23
2.1162
  0
SOLID
  8
Top_Paste
  10
0.6078
  20
2.1633
  11
0.7022
  21
2.1633
  12
0.6078
  22
2.1162
  13
0.7022
  23
2.1162
  0
SOLID
  8
Top_Paste
  10
0.6078
  20
2.305
  11
0.7022
  21
2.305
  12
0.6078
  22
2.2579
  13
0.7022
  23
2.2579
  0
SOLID
  8
Top_Paste
  10
0.249
  20
2.3055
  11
0.301
  21
2.3055
  12
0.249
  22
2.2575
  13
0.301
  23
2.2575
  0
SOLID
  8
Top_Paste
  10
0.159
  20
2.3055
  11
0.211
  21
2.3055
  12
0.159
  22
2.2575
  13
0.211
  23
2.2575
  0
SOLID
  8
Top_Paste
  10
0.1659
  20
2.157
  11
0.2091
  21
2.157
  12
0.1659
  22
2.106
  13
0.2091
  23
2.106
  0
SOLID
  8
Top_Paste
  10
0.2407
  20
2.157
  11
0.2839
  21
2.157
  12
0.2407
  22
2.106
  13
0.2839
  23
2.106
  0
SOLID
  8
Top_Paste
  10
0.9229
  20
1.5041
  11
0.9748
  21
1.5041
  12
0.9229
  22
1.4562
  13
0.9748
  23
1.4562
  0
SOLID
  8
Top_Paste
  10
1.0129
  20
1.5041
  11
1.0648
  21
1.5041
  12
1.0129
  22
1.4562
  13
1.0648
  23
1.4562
  0
SOLID
  8
Top_Paste
  10
1.8888
  20
1.4951
  11
1.9368
  21
1.4951
  12
1.8888
  22
1.4431
  13
1.9368
  23
1.4431
  0
SOLID
  8
Top_Paste
  10
1.8888
  20
1.5851
  11
1.9368
  21
1.5851
  12
1.8888
  22
1.5331
  13
1.9368
  23
1.5331
  0
SOLID
  8
Top_Paste
  10
0.9587
  20
3.4225
  11
1.0412
  21
3.4225
  12
0.9587
  22
3.3399
  13
1.0412
  23
3.3399
  0
SOLID
  8
Top_Paste
  10
0.9587
  20
3.5996
  11
1.0412
  21
3.5996
  12
0.9587
  22
3.5171
  13
1.0412
  23
3.5171
  0
SOLID
  8
Top_Paste
  10
1.845
  20
4.0857
  11
1.955
  21
4.0857
  12
1.845
  22
3.8767
  13
1.955
  23
3.8767
  0
SOLID
  8
Top_Paste
  10
2.2487
  20
4.0857
  11
2.3587
  21
4.0857
  12
2.2487
  22
3.8767
  13
2.3587
  23
3.8767
  0
SOLID
  8
Top_Paste
  10
1.3606
  20
4.089
  11
1.4392
  21
4.089
  12
1.3606
  22
4.0734
  13
1.4392
  23
4.0734
  0
SOLID
  8
Top_Paste
  10
1.3606
  20
4.039
  11
1.4392
  21
4.039
  12
1.3606
  22
4.0234
  13
1.4392
  23
4.0234
  0
SOLID
  8
Top_Paste
  10
1.3606
  20
3.989
  11
1.4392
  21
3.989
  12
1.3606
  22
3.9734
  13
1.4392
  23
3.9734
  0
SOLID
  8
Top_Paste
  10
1.3606
  20
3.939
  11
1.4392
  21
3.939
  12
1.3606
  22
3.9234
  13
1.4392
  23
3.9234
  0
SOLID
  8
Top_Paste
  10
1.3606
  20
3.889
  11
1.4392
  21
3.889
  12
1.3606
  22
3.8734
  13
1.4392
  23
3.8734
  0
SOLID
  8
Top_Paste
  10
1.3606
  20
3.839
  11
1.4392
  21
3.839
  12
1.3606
  22
3.8234
  13
1.4392
  23
3.8234
  0
SOLID
  8
Top_Paste
  10
1.3606
  20
3.789
  11
1.4392
  21
3.789
  12
1.3606
  22
3.7734
  13
1.4392
  23
3.7734
  0
SOLID
  8
Top_Paste
  10
1.7228
  20
3.789
  11
1.8014
  21
3.789
  12
1.7228
  22
3.7734
  13
1.8014
  23
3.7734
  0
SOLID
  8
Top_Paste
  10
1.7228
  20
3.839
  11
1.8014
  21
3.839
  12
1.7228
  22
3.8234
  13
1.8014
  23
3.8234
  0
SOLID
  8
Top_Paste
  10
1.7228
  20
3.889
  11
1.8014
  21
3.889
  12
1.7228
  22
3.8734
  13
1.8014
  23
3.8734
  0
SOLID
  8
Top_Paste
  10
1.7228
  20
3.939
  11
1.8014
  21
3.939
  12
1.7228
  22
3.9234
  13
1.8014
  23
3.9234
  0
SOLID
  8
Top_Paste
  10
1.7228
  20
3.989
  11
1.8014
  21
3.989
  12
1.7228
  22
3.9734
  13
1.8014
  23
3.9734
  0
SOLID
  8
Top_Paste
  10
1.7228
  20
4.039
  11
1.8014
  21
4.039
  12
1.7228
  22
4.0234
  13
1.8014
  23
4.0234
  0
SOLID
  8
Top_Paste
  10
1.7228
  20
4.089
  11
1.8014
  21
4.089
  12
1.7228
  22
4.0734
  13
1.8014
  23
4.0734
  0
SOLID
  8
Top_Paste
  10
1.7676
  20
3.6274
  11
1.8324
  21
3.6274
  12
1.7676
  22
3.535
  13
1.8324
  23
3.535
  0
SOLID
  8
Top_Paste
  10
1.7676
  20
3.464
  11
1.8324
  21
3.464
  12
1.7676
  22
3.3716
  13
1.8324
  23
3.3716
  0
SOLID
  8
Top_Paste
  10
2.4892
  20
3.5158
  11
2.5107
  21
3.5158
  12
2.4892
  22
3.3466
  13
2.5107
  23
3.3466
  0
SOLID
  8
Top_Paste
  10
2.4892
  20
3.752
  11
2.5107
  21
3.752
  12
2.4892
  22
3.5829
  13
2.5107
  23
3.5829
  0
SOLID
  8
Top_Paste
  10
1.969
  20
3.6362
  11
1.981
  21
3.6362
  12
1.969
  22
3.5262
  13
1.981
  23
3.5262
  0
SOLID
  8
Top_Paste
  10
1.969
  20
3.4394
  11
1.981
  21
3.4394
  12
1.969
  22
3.3293
  13
1.981
  23
3.3293
  0
SOLID
  8
Top_Paste
  10
1.394
  20
3.6362
  11
1.406
  21
3.6362
  12
1.394
  22
3.5262
  13
1.406
  23
3.5262
  0
SOLID
  8
Top_Paste
  10
1.394
  20
3.4394
  11
1.406
  21
3.4394
  12
1.394
  22
3.3293
  13
1.406
  23
3.3293
  0
SOLID
  8
Top_Paste
  10
1.194
  20
3.6362
  11
1.206
  21
3.6362
  12
1.194
  22
3.5262
  13
1.206
  23
3.5262
  0
SOLID
  8
Top_Paste
  10
1.194
  20
3.4394
  11
1.206
  21
3.4394
  12
1.194
  22
3.3293
  13
1.206
  23
3.3293
  0
SOLID
  8
Top_Paste
  10
2.169
  20
3.6362
  11
2.181
  21
3.6362
  12
2.169
  22
3.5262
  13
2.181
  23
3.5262
  0
SOLID
  8
Top_Paste
  10
2.169
  20
3.4394
  11
2.181
  21
3.4394
  12
2.169
  22
3.3293
  13
2.181
  23
3.3293
  0
SOLID
  8
Top_Paste
  10
0.8679
  20
1.1178
  11
0.9198
  21
1.1178
  12
0.8679
  22
1.0699
  13
0.9198
  23
1.0699
  0
SOLID
  8
Top_Paste
  10
0.9579
  20
1.1178
  11
1.0098
  21
1.1178
  12
0.9579
  22
1.0699
  13
1.0098
  23
1.0699
  0
SOLID
  8
Top_Paste
  10
1.2304
  20
1.1178
  11
1.2823
  21
1.1178
  12
1.2304
  22
1.0699
  13
1.2823
  23
1.0699
  0
SOLID
  8
Top_Paste
  10
1.1404
  20
1.1178
  11
1.1923
  21
1.1178
  12
1.1404
  22
1.0699
  13
1.1923
  23
1.0699
  0
SOLID
  8
Top_Paste
  10
0.472
  20
1.1131
  11
0.5151
  21
1.1131
  12
0.472
  22
1.0621
  13
0.5151
  23
1.0621
  0
SOLID
  8
Top_Paste
  10
0.3972
  20
1.1131
  11
0.4403
  21
1.1131
  12
0.3972
  22
1.0621
  13
0.4403
  23
1.0621
  0
SOLID
  8
Top_Paste
  10
0.472
  20
1.0131
  11
0.5151
  21
1.0131
  12
0.472
  22
0.9621
  13
0.5151
  23
0.9621
  0
SOLID
  8
Top_Paste
  10
0.3972
  20
1.0131
  11
0.4403
  21
1.0131
  12
0.3972
  22
0.9621
  13
0.4403
  23
0.9621
  0
SOLID
  8
Top_Paste
  10
0.2628
  20
0.9736
  11
0.3248
  21
0.9736
  12
0.2628
  22
0.9516
  13
0.3248
  23
0.9516
  0
POLYLINE
  8
Top_Paste
  6
CONTINUOUS
  66
1
  70
0
  40
0.011
  41
0.011
  0
VERTEX
  8
Top_Paste
  10
0.1263
  20
0.9626
  42
1
  0
VERTEX
  8
Top_Paste
  10
0.1373
  20
0.9626
  42
1
  0
VERTEX
  8
Top_Paste
  10
0.1263
  20
0.9626
  42
1
  0
SEQEND
  0
POLYLINE
  8
Top_Paste
  6
CONTINUOUS
  66
1
  70
0
  40
0.011
  41
0.011
  0
VERTEX
  8
Top_Paste
  10
0.1663
  20
0.9626
  42
1
  0
VERTEX
  8
Top_Paste
  10
0.1773
  20
0.9626
  42
1
  0
VERTEX
  8
Top_Paste
  10
0.1663
  20
0.9626
  42
1
  0
SEQEND
  0
SOLID
  8
Top_Paste
  10
0.1318
  20
0.9736
  11
0.1718
  21
0.9736
  12
0.1318
  22
0.9516
  13
0.1718
  23
0.9516
  0
SOLID
  8
Top_Paste
  10
0.2628
  20
1.0986
  11
0.3247
  21
1.0986
  12
0.2628
  22
1.0766
  13
0.3247
  23
1.0766
  0
POLYLINE
  8
Top_Paste
  6
CONTINUOUS
  66
1
  70
0
  40
0.011
  41
0.011
  0
VERTEX
  8
Top_Paste
  10
0.1263
  20
1.0876
  42
1
  0
VERTEX
  8
Top_Paste
  10
0.1373
  20
1.0876
  42
1
  0
VERTEX
  8
Top_Paste
  10
0.1263
  20
1.0876
  42
1
  0
SEQEND
  0
POLYLINE
  8
Top_Paste
  6
CONTINUOUS
  66
1
  70
0
  40
0.011
  41
0.011
  0
VERTEX
  8
Top_Paste
  10
0.1663
  20
1.0876
  42
1
  0
VERTEX
  8
Top_Paste
  10
0.1773
  20
1.0876
  42
1
  0
VERTEX
  8
Top_Paste
  10
0.1663
  20
1.0876
  42
1
  0
SEQEND
  0
SOLID
  8
Top_Paste
  10
0.1318
  20
1.0986
  11
0.1718
  21
1.0986
  12
0.1318
  22
1.0766
  13
0.1718
  23
1.0766
  0
SOLID
  8
Top_Paste
  10
0.9676
  20
3.9524
  11
1.0324
  21
3.9524
  12
0.9676
  22
3.86
  13
1.0324
  23
3.86
  0
SOLID
  8
Top_Paste
  10
0.9676
  20
3.789
  11
1.0324
  21
3.789
  12
0.9676
  22
3.6966
  13
1.0324
  23
3.6966
  0
SOLID
  8
Top_Paste
  10
1.0534
  20
4.1567
  11
1.0966
  21
4.1567
  12
1.0534
  22
4.1057
  13
1.0966
  23
4.1057
  0
SOLID
  8
Top_Paste
  10
0.9786
  20
4.1567
  11
1.0218
  21
4.1567
  12
0.9786
  22
4.1057
  13
1.0218
  23
4.1057
  0
SOLID
  8
Top_Paste
  10
1.214
  20
3.8622
  11
1.236
  21
3.8622
  12
1.214
  22
3.8002
  13
1.236
  23
3.8002
  0
POLYLINE
  8
Top_Paste
  6
CONTINUOUS
  66
1
  70
0
  40
0.011
  41
0.011
  0
VERTEX
  8
Top_Paste
  10
1.2195
  20
3.9932
  42
1
  0
VERTEX
  8
Top_Paste
  10
1.2305
  20
3.9932
  42
1
  0
VERTEX
  8
Top_Paste
  10
1.2195
  20
3.9932
  42
1
  0
SEQEND
  0
POLYLINE
  8
Top_Paste
  6
CONTINUOUS
  66
1
  70
0
  40
0.011
  41
0.011
  0
VERTEX
  8
Top_Paste
  10
1.2195
  20
3.9532
  42
1
  0
VERTEX
  8
Top_Paste
  10
1.2305
  20
3.9532
  42
1
  0
VERTEX
  8
Top_Paste
  10
1.2195
  20
3.9532
  42
1
  0
SEQEND
  0
SOLID
  8
Top_Paste
  10
1.214
  20
3.9932
  11
1.236
  21
3.9932
  12
1.214
  22
3.9532
  13
1.236
  23
3.9532
  0
SOLID
  8
Top_Paste
  10
2.3787
  20
2.7508
  11
2.4218
  21
2.7508
  12
2.3787
  22
2.6998
  13
2.4218
  23
2.6998
  0
SOLID
  8
Top_Paste
  10
2.4535
  20
2.7508
  11
2.4966
  21
2.7508
  12
2.4535
  22
2.6998
  13
2.4966
  23
2.6998
  0
SOLID
  8
Top_Paste
  10
2.2099
  20
2.7508
  11
2.253
  21
2.7508
  12
2.2099
  22
2.6998
  13
2.253
  23
2.6998
  0
SOLID
  8
Top_Paste
  10
2.2847
  20
2.7508
  11
2.3278
  21
2.7508
  12
2.2847
  22
2.6998
  13
2.3278
  23
2.6998
  0
SOLID
  8
Top_Paste
  10
2.4805
  20
2.1867
  11
2.5325
  21
2.1867
  12
2.4805
  22
2.1387
  13
2.5325
  23
2.1387
  0
SOLID
  8
Top_Paste
  10
2.5705
  20
2.1867
  11
2.6225
  21
2.1867
  12
2.5705
  22
2.1387
  13
2.6225
  23
2.1387
  0
POLYLINE
  8
Board_Outline
  6
CONTINUOUS
  66
1
  70
0
  40
0.0055
  41
0.0055
  0
VERTEX
  8
Board_Outline
  10
0.0
  20
0.0
  42
0
  0
VERTEX
  8
Board_Outline
  10
3.1496
  20
0.0
  42
0
  0
VERTEX
  8
Board_Outline
  10
3.1496
  20
4.3307
  42
0
  0
VERTEX
  8
Board_Outline
  10
0.0
  20
4.3307
  42
0
  0
VERTEX
  8
Board_Outline
  10
0.0
  20
0.0
  42
0
  0
SEQEND
  0
ENDSEC
  0
EOF
