  0
SECTION
  2
HEADER
  9
$ACADVER
  1
AC1009
  9
$ANGDIR
  70
0
  9
$CECOLOR
  62
256
  9
$CELTYPE
  6
BYLAYER
  9
$EXTMIN
  10
-3.3379
  20
-4.5692
  9
$EXTMAX
  10
2.9613
  20
-4.5692
  9
$FILLMODE
  70
1
  9
$MIRRTEXT
  70
0
  0
ENDSEC
  0
SECTION
  2
TABLES
  0
TABLE
  2
LAYER
  70
17
  0
LAYER
  2
Top_Paste
  70
64
  62
4
  6
CONTINUOUS
  0
ENDTAB
  0
ENDSEC
  0
SECTION
  2
ENTITIES
  0
SOLID
  8
Top_Paste
  10
-1.9357
  20
-2.9155
  11
-1.8648
  21
-2.9155
  12
-1.9357
  22
-2.9352
  13
-1.8648
  23
-2.9352
  0
SOLID
  8
Top_Paste
  10
-1.9357
  20
-2.947
  11
-1.8648
  21
-2.947
  12
-1.9357
  22
-2.9666
  13
-1.8648
  23
-2.9666
  0
SOLID
  8
Top_Paste
  10
-1.9357
  20
-2.9785
  11
-1.8648
  21
-2.9785
  12
-1.9357
  22
-2.9981
  13
-1.8648
  23
-2.9981
  0
SOLID
  8
Top_Paste
  10
-1.9357
  20
-3.01
  11
-1.8648
  21
-3.01
  12
-1.9357
  22
-3.0296
  13
-1.8648
  23
-3.0296
  0
SOLID
  8
Top_Paste
  10
-1.9357
  20
-3.0415
  11
-1.8648
  21
-3.0415
  12
-1.9357
  22
-3.0611
  13
-1.8648
  23
-3.0611
  0
SOLID
  8
Top_Paste
  10
-1.9357
  20
-3.0729
  11
-1.8648
  21
-3.0729
  12
-1.9357
  22
-3.0926
  13
-1.8648
  23
-3.0926
  0
SOLID
  8
Top_Paste
  10
-1.9357
  20
-3.1044
  11
-1.8648
  21
-3.1044
  12
-1.9357
  22
-3.1241
  13
-1.8648
  23
-3.1241
  0
SOLID
  8
Top_Paste
  10
-1.9357
  20
-3.1359
  11
-1.8648
  21
-3.1359
  12
-1.9357
  22
-3.1556
  13
-1.8648
  23
-3.1556
  0
SOLID
  8
Top_Paste
  10
-1.8507
  20
-3.1691
  11
-1.831
  21
-3.1691
  12
-1.8507
  22
-3.24
  13
-1.831
  23
-3.24
  0
SOLID
  8
Top_Paste
  10
-1.8192
  20
-3.1691
  11
-1.7995
  21
-3.1691
  12
-1.8192
  22
-3.24
  13
-1.7995
  23
-3.24
  0
SOLID
  8
Top_Paste
  10
-1.7877
  20
-3.1691
  11
-1.768
  21
-3.1691
  12
-1.7877
  22
-3.24
  13
-1.768
  23
-3.24
  0
SOLID
  8
Top_Paste
  10
-1.7562
  20
-3.1691
  11
-1.7365
  21
-3.1691
  12
-1.7562
  22
-3.24
  13
-1.7365
  23
-3.24
  0
SOLID
  8
Top_Paste
  10
-1.7247
  20
-3.1691
  11
-1.705
  21
-3.1691
  12
-1.7247
  22
-3.24
  13
-1.705
  23
-3.24
  0
SOLID
  8
Top_Paste
  10
-1.6932
  20
-3.1691
  11
-1.6735
  21
-3.1691
  12
-1.6932
  22
-3.24
  13
-1.6735
  23
-3.24
  0
SOLID
  8
Top_Paste
  10
-1.6617
  20
-3.1691
  11
-1.642
  21
-3.1691
  12
-1.6617
  22
-3.24
  13
-1.642
  23
-3.24
  0
SOLID
  8
Top_Paste
  10
-1.6302
  20
-3.1691
  11
-1.6105
  21
-3.1691
  12
-1.6302
  22
-3.24
  13
-1.6105
  23
-3.24
  0
SOLID
  8
Top_Paste
  10
-1.5971
  20
-3.1353
  11
-1.5262
  21
-3.1353
  12
-1.5971
  22
-3.155
  13
-1.5262
  23
-3.155
  0
SOLID
  8
Top_Paste
  10
-1.5971
  20
-3.1038
  11
-1.5262
  21
-3.1038
  12
-1.5971
  22
-3.1235
  13
-1.5262
  23
-3.1235
  0
SOLID
  8
Top_Paste
  10
-1.5971
  20
-3.0723
  11
-1.5262
  21
-3.0723
  12
-1.5971
  22
-3.092
  13
-1.5262
  23
-3.092
  0
SOLID
  8
Top_Paste
  10
-1.5971
  20
-3.0408
  11
-1.5262
  21
-3.0408
  12
-1.5971
  22
-3.0605
  13
-1.5262
  23
-3.0605
  0
SOLID
  8
Top_Paste
  10
-1.5971
  20
-3.0093
  11
-1.5262
  21
-3.0093
  12
-1.5971
  22
-3.029
  13
-1.5262
  23
-3.029
  0
SOLID
  8
Top_Paste
  10
-1.5971
  20
-2.9778
  11
-1.5262
  21
-2.9778
  12
-1.5971
  22
-2.9975
  13
-1.5262
  23
-2.9975
  0
SOLID
  8
Top_Paste
  10
-1.5971
  20
-2.9463
  11
-1.5262
  21
-2.9463
  12
-1.5971
  22
-2.966
  13
-1.5262
  23
-2.966
  0
SOLID
  8
Top_Paste
  10
-1.5971
  20
-2.9148
  11
-1.5262
  21
-2.9148
  12
-1.5971
  22
-2.9345
  13
-1.5262
  23
-2.9345
  0
SOLID
  8
Top_Paste
  10
-1.6308
  20
-2.8305
  11
-1.6112
  21
-2.8305
  12
-1.6308
  22
-2.9014
  13
-1.6112
  23
-2.9014
  0
SOLID
  8
Top_Paste
  10
-1.6623
  20
-2.8305
  11
-1.6427
  21
-2.8305
  12
-1.6623
  22
-2.9014
  13
-1.6427
  23
-2.9014
  0
SOLID
  8
Top_Paste
  10
-1.6938
  20
-2.8305
  11
-1.6742
  21
-2.8305
  12
-1.6938
  22
-2.9014
  13
-1.6742
  23
-2.9014
  0
SOLID
  8
Top_Paste
  10
-1.7253
  20
-2.8305
  11
-1.7057
  21
-2.8305
  12
-1.7253
  22
-2.9014
  13
-1.7057
  23
-2.9014
  0
SOLID
  8
Top_Paste
  10
-1.7568
  20
-2.8305
  11
-1.7371
  21
-2.8305
  12
-1.7568
  22
-2.9014
  13
-1.7371
  23
-2.9014
  0
SOLID
  8
Top_Paste
  10
-1.7883
  20
-2.8305
  11
-1.7686
  21
-2.8305
  12
-1.7883
  22
-2.9014
  13
-1.7686
  23
-2.9014
  0
SOLID
  8
Top_Paste
  10
-1.8198
  20
-2.8305
  11
-1.8001
  21
-2.8305
  12
-1.8198
  22
-2.9014
  13
-1.8001
  23
-2.9014
  0
SOLID
  8
Top_Paste
  10
-1.8513
  20
-2.8305
  11
-1.8316
  21
-2.8305
  12
-1.8513
  22
-2.9014
  13
-1.8316
  23
-2.9014
  0
SOLID
  8
Top_Paste
  10
-2.5523
  20
-3.2797
  11
-2.3358
  21
-3.2797
  12
-2.5523
  22
-3.3585
  13
-2.3358
  23
-3.3585
  0
SOLID
  8
Top_Paste
  10
-2.1783
  20
-3.2797
  11
-1.9617
  21
-3.2797
  12
-2.1783
  22
-3.3585
  13
-1.9617
  23
-3.3585
  0
SOLID
  8
Top_Paste
  10
-1.7479
  20
-0.929
  11
-1.7279
  21
-0.929
  12
-1.7479
  22
-1.0471
  13
-1.7279
  23
-1.0471
  0
SOLID
  8
Top_Paste
  10
-1.7479
  20
-1.1258
  11
-1.7279
  21
-1.1258
  12
-1.7479
  22
-1.2439
  13
-1.7279
  23
-1.2439
  0
SOLID
  8
Top_Paste
  10
-1.7279
  20
-0.36
  11
-1.6679
  21
-0.36
  12
-1.7279
  22
-0.416
  13
-1.6679
  23
-0.416
  0
SOLID
  8
Top_Paste
  10
-1.8179
  20
-0.36
  11
-1.7579
  21
-0.36
  12
-1.8179
  22
-0.416
  13
-1.7579
  23
-0.416
  0
SOLID
  8
Top_Paste
  10
-0.8526
  20
-0.3744
  11
-0.8231
  21
-0.3744
  12
-0.8526
  22
-0.5516
  13
-0.8231
  23
-0.5516
  0
SOLID
  8
Top_Paste
  10
-0.8526
  20
-0.6107
  11
-0.8231
  21
-0.6107
  12
-0.8526
  22
-0.7878
  13
-0.8231
  23
-0.7878
  0
SOLID
  8
Top_Paste
  10
-0.6909
  20
-0.733
  11
-0.6349
  21
-0.733
  12
-0.6909
  22
-0.793
  13
-0.6349
  23
-0.793
  0
SOLID
  8
Top_Paste
  10
-0.6909
  20
-0.823
  11
-0.6349
  21
-0.823
  12
-0.6909
  22
-0.883
  13
-0.6349
  23
-0.883
  0
SOLID
  8
Top_Paste
  10
-1.1798
  20
-3.6762
  11
-0.983
  21
-3.6762
  12
-1.1798
  22
-3.7746
  13
-0.983
  23
-3.7746
  0
SOLID
  8
Top_Paste
  10
-0.7298
  20
-3.6762
  11
-0.533
  21
-3.6762
  12
-0.7298
  22
-3.7746
  13
-0.533
  23
-3.7746
  0
SOLID
  8
Top_Paste
  10
-0.5238
  20
-3.5286
  11
-0.4638
  21
-3.5286
  12
-0.5238
  22
-3.5846
  13
-0.4638
  23
-3.5846
  0
SOLID
  8
Top_Paste
  10
-0.4338
  20
-3.5286
  11
-0.3738
  21
-3.5286
  12
-0.4338
  22
-3.5846
  13
-0.3738
  23
-3.5846
  0
SOLID
  8
Top_Paste
  10
-0.7155
  20
-1.7137
  11
-0.6722
  21
-1.7137
  12
-0.7155
  22
-1.7492
  13
-0.6722
  23
-1.7492
  0
SOLID
  8
Top_Paste
  10
-0.7472
  20
-1.8275
  11
-0.7078
  21
-1.8275
  12
-0.7472
  22
-1.8629
  13
-0.7078
  23
-1.8629
  0
SOLID
  8
Top_Paste
  10
-0.6793
  20
-1.8275
  11
-0.6399
  21
-1.8275
  12
-0.6793
  22
-1.8629
  13
-0.6399
  23
-1.8629
  0
SOLID
  8
Top_Paste
  10
-2.3526
  20
-2.0404
  11
-2.2601
  21
-2.0404
  12
-2.3526
  22
-2.064
  13
-2.2601
  23
-2.064
  0
SOLID
  8
Top_Paste
  10
-2.3526
  20
-2.0904
  11
-2.2601
  21
-2.0904
  12
-2.3526
  22
-2.114
  13
-2.2601
  23
-2.114
  0
SOLID
  8
Top_Paste
  10
-2.3526
  20
-2.1404
  11
-2.2601
  21
-2.1404
  12
-2.3526
  22
-2.164
  13
-2.2601
  23
-2.164
  0
SOLID
  8
Top_Paste
  10
-2.3526
  20
-2.1904
  11
-2.2601
  21
-2.1904
  12
-2.3526
  22
-2.214
  13
-2.2601
  23
-2.214
  0
SOLID
  8
Top_Paste
  10
-2.3526
  20
-2.2404
  11
-2.2601
  21
-2.2404
  12
-2.3526
  22
-2.264
  13
-2.2601
  23
-2.264
  0
SOLID
  8
Top_Paste
  10
-2.3526
  20
-2.2904
  11
-2.2601
  21
-2.2904
  12
-2.3526
  22
-2.314
  13
-2.2601
  23
-2.314
  0
SOLID
  8
Top_Paste
  10
-2.3526
  20
-2.3404
  11
-2.2601
  21
-2.3404
  12
-2.3526
  22
-2.364
  13
-2.2601
  23
-2.364
  0
SOLID
  8
Top_Paste
  10
-2.3526
  20
-2.3904
  11
-2.2601
  21
-2.3904
  12
-2.3526
  22
-2.414
  13
-2.2601
  23
-2.414
  0
SOLID
  8
Top_Paste
  10
-1.957
  20
-2.3904
  11
-1.8644
  21
-2.3904
  12
-1.957
  22
-2.414
  13
-1.8644
  23
-2.414
  0
SOLID
  8
Top_Paste
  10
-1.957
  20
-2.3404
  11
-1.8644
  21
-2.3404
  12
-1.957
  22
-2.364
  13
-1.8644
  23
-2.364
  0
SOLID
  8
Top_Paste
  10
-1.957
  20
-2.2904
  11
-1.8644
  21
-2.2904
  12
-1.957
  22
-2.314
  13
-1.8644
  23
-2.314
  0
SOLID
  8
Top_Paste
  10
-1.957
  20
-2.2404
  11
-1.8644
  21
-2.2404
  12
-1.957
  22
-2.264
  13
-1.8644
  23
-2.264
  0
SOLID
  8
Top_Paste
  10
-1.957
  20
-2.1904
  11
-1.8644
  21
-2.1904
  12
-1.957
  22
-2.214
  13
-1.8644
  23
-2.214
  0
SOLID
  8
Top_Paste
  10
-1.957
  20
-2.1404
  11
-1.8644
  21
-2.1404
  12
-1.957
  22
-2.164
  13
-1.8644
  23
-2.164
  0
SOLID
  8
Top_Paste
  10
-1.957
  20
-2.0904
  11
-1.8644
  21
-2.0904
  12
-1.957
  22
-2.114
  13
-1.8644
  23
-2.114
  0
SOLID
  8
Top_Paste
  10
-1.957
  20
-2.0404
  11
-1.8644
  21
-2.0404
  12
-1.957
  22
-2.064
  13
-1.8644
  23
-2.064
  0
SOLID
  8
Top_Paste
  10
-2.0053
  20
-1.8972
  11
-1.9453
  21
-1.8972
  12
-2.0053
  22
-1.9532
  13
-1.9453
  23
-1.9532
  0
SOLID
  8
Top_Paste
  10
-2.0953
  20
-1.8972
  11
-2.0353
  21
-1.8972
  12
-2.0953
  22
-1.9532
  13
-2.0353
  23
-1.9532
  0
SOLID
  8
Top_Paste
  10
-2.4908
  20
-2.0202
  11
-2.4348
  21
-2.0202
  12
-2.4908
  22
-2.0802
  13
-2.4348
  23
-2.0802
  0
SOLID
  8
Top_Paste
  10
-2.4908
  20
-2.1102
  11
-2.4348
  21
-2.1102
  12
-2.4908
  22
-2.1702
  13
-2.4348
  23
-2.1702
  0
SOLID
  8
Top_Paste
  10
-2.4908
  20
-2.1952
  11
-2.4348
  21
-2.1952
  12
-2.4908
  22
-2.2552
  13
-2.4348
  23
-2.2552
  0
SOLID
  8
Top_Paste
  10
-2.4908
  20
-2.2852
  11
-2.4348
  21
-2.2852
  12
-2.4908
  22
-2.3452
  13
-2.4348
  23
-2.3452
  0
SOLID
  8
Top_Paste
  10
-2.1052
  20
-2.466
  11
-2.0452
  21
-2.466
  12
-2.1052
  22
-2.522
  13
-2.0452
  23
-2.522
  0
SOLID
  8
Top_Paste
  10
-2.1952
  20
-2.466
  11
-2.1352
  21
-2.466
  12
-2.1952
  22
-2.522
  13
-2.1352
  23
-2.522
  0
SOLID
  8
Top_Paste
  10
-2.2803
  20
-1.8972
  11
-2.2203
  21
-1.8972
  12
-2.2803
  22
-1.9532
  13
-2.2203
  23
-1.9532
  0
SOLID
  8
Top_Paste
  10
-2.1903
  20
-1.8972
  11
-2.1303
  21
-1.8972
  12
-2.1903
  22
-1.9532
  13
-2.1303
  23
-1.9532
  0
SOLID
  8
Top_Paste
  10
-2.9703
  20
-2.2602
  11
-2.8679
  21
-2.2602
  12
-2.9703
  22
-2.3153
  13
-2.8679
  23
-2.3153
  0
SOLID
  8
Top_Paste
  10
-2.9703
  20
-2.4019
  11
-2.8679
  21
-2.4019
  12
-2.9703
  22
-2.457
  13
-2.8679
  23
-2.457
  0
SOLID
  8
Top_Paste
  10
-2.734
  20
-2.4019
  11
-2.6317
  21
-2.4019
  12
-2.734
  22
-2.457
  13
-2.6317
  23
-2.457
  0
SOLID
  8
Top_Paste
  10
-2.734
  20
-2.2602
  11
-2.6317
  21
-2.2602
  12
-2.734
  22
-2.3153
  13
-2.6317
  23
-2.3153
  0
SOLID
  8
Top_Paste
  10
-3.0928
  20
-2.2597
  11
-3.0328
  21
-2.2597
  12
-3.0928
  22
-2.3157
  13
-3.0328
  23
-2.3157
  0
SOLID
  8
Top_Paste
  10
-3.1828
  20
-2.2597
  11
-3.1228
  21
-2.2597
  12
-3.1828
  22
-2.3157
  13
-3.1228
  23
-2.3157
  0
SOLID
  8
Top_Paste
  10
-3.1759
  20
-2.4082
  11
-3.1248
  21
-2.4082
  12
-3.1759
  22
-2.4673
  13
-3.1248
  23
-2.4673
  0
SOLID
  8
Top_Paste
  10
-3.1011
  20
-2.4082
  11
-3.05
  21
-2.4082
  12
-3.1011
  22
-2.4673
  13
-3.05
  23
-2.4673
  0
SOLID
  8
Top_Paste
  10
-2.419
  20
-3.0611
  11
-2.359
  21
-3.0611
  12
-2.419
  22
-3.1171
  13
-2.359
  23
-3.1171
  0
SOLID
  8
Top_Paste
  10
-2.329
  20
-3.0611
  11
-2.269
  21
-3.0611
  12
-2.329
  22
-3.1171
  13
-2.269
  23
-3.1171
  0
SOLID
  8
Top_Paste
  10
-1.453
  20
-3.0702
  11
-1.3971
  21
-3.0702
  12
-1.453
  22
-3.1302
  13
-1.3971
  23
-3.1302
  0
SOLID
  8
Top_Paste
  10
-1.453
  20
-2.9802
  11
-1.3971
  21
-2.9802
  12
-1.453
  22
-3.0402
  13
-1.3971
  23
-3.0402
  0
SOLID
  8
Top_Paste
  10
-2.3831
  20
-1.1427
  11
-2.2926
  21
-1.1427
  12
-2.3831
  22
-1.2333
  13
-2.2926
  23
-1.2333
  0
SOLID
  8
Top_Paste
  10
-2.3831
  20
-0.9656
  11
-2.2926
  21
-0.9656
  12
-2.3831
  22
-1.0561
  13
-2.2926
  23
-1.0561
  0
SOLID
  8
Top_Paste
  10
-1.4969
  20
-0.4795
  11
-1.3789
  21
-0.4795
  12
-1.4969
  22
-0.6965
  13
-1.3789
  23
-0.6965
  0
SOLID
  8
Top_Paste
  10
-1.0931
  20
-0.4795
  11
-0.9751
  21
-0.4795
  12
-1.0931
  22
-0.6965
  13
-0.9751
  23
-0.6965
  0
SOLID
  8
Top_Paste
  10
-1.9813
  20
-0.4762
  11
-1.8947
  21
-0.4762
  12
-1.9813
  22
-0.4998
  13
-1.8947
  23
-0.4998
  0
SOLID
  8
Top_Paste
  10
-1.9813
  20
-0.5262
  11
-1.8947
  21
-0.5262
  12
-1.9813
  22
-0.5498
  13
-1.8947
  23
-0.5498
  0
SOLID
  8
Top_Paste
  10
-1.9813
  20
-0.5762
  11
-1.8947
  21
-0.5762
  12
-1.9813
  22
-0.5998
  13
-1.8947
  23
-0.5998
  0
SOLID
  8
Top_Paste
  10
-1.9813
  20
-0.6262
  11
-1.8947
  21
-0.6262
  12
-1.9813
  22
-0.6498
  13
-1.8947
  23
-0.6498
  0
SOLID
  8
Top_Paste
  10
-1.9813
  20
-0.6762
  11
-1.8947
  21
-0.6762
  12
-1.9813
  22
-0.6998
  13
-1.8947
  23
-0.6998
  0
SOLID
  8
Top_Paste
  10
-1.9813
  20
-0.7262
  11
-1.8947
  21
-0.7262
  12
-1.9813
  22
-0.7498
  13
-1.8947
  23
-0.7498
  0
SOLID
  8
Top_Paste
  10
-1.9813
  20
-0.7762
  11
-1.8947
  21
-0.7762
  12
-1.9813
  22
-0.7998
  13
-1.8947
  23
-0.7998
  0
SOLID
  8
Top_Paste
  10
-1.6191
  20
-0.7762
  11
-1.5325
  21
-0.7762
  12
-1.6191
  22
-0.7998
  13
-1.5325
  23
-0.7998
  0
SOLID
  8
Top_Paste
  10
-1.6191
  20
-0.7262
  11
-1.5325
  21
-0.7262
  12
-1.6191
  22
-0.7498
  13
-1.5325
  23
-0.7498
  0
SOLID
  8
Top_Paste
  10
-1.6191
  20
-0.6762
  11
-1.5325
  21
-0.6762
  12
-1.6191
  22
-0.6998
  13
-1.5325
  23
-0.6998
  0
SOLID
  8
Top_Paste
  10
-1.6191
  20
-0.6262
  11
-1.5325
  21
-0.6262
  12
-1.6191
  22
-0.6498
  13
-1.5325
  23
-0.6498
  0
SOLID
  8
Top_Paste
  10
-1.6191
  20
-0.5762
  11
-1.5325
  21
-0.5762
  12
-1.6191
  22
-0.5998
  13
-1.5325
  23
-0.5998
  0
SOLID
  8
Top_Paste
  10
-1.6191
  20
-0.5262
  11
-1.5325
  21
-0.5262
  12
-1.6191
  22
-0.5498
  13
-1.5325
  23
-0.5498
  0
SOLID
  8
Top_Paste
  10
-1.6191
  20
-0.4762
  11
-1.5325
  21
-0.4762
  12
-1.6191
  22
-0.4998
  13
-1.5325
  23
-0.4998
  0
SOLID
  8
Top_Paste
  10
-1.5743
  20
-0.9378
  11
-1.5015
  21
-0.9378
  12
-1.5743
  22
-1.0382
  13
-1.5015
  23
-1.0382
  0
SOLID
  8
Top_Paste
  10
-1.5743
  20
-1.1012
  11
-1.5015
  21
-1.1012
  12
-1.5743
  22
-1.2016
  13
-1.5015
  23
-1.2016
  0
SOLID
  8
Top_Paste
  10
-0.8526
  20
-1.0494
  11
-0.8231
  21
-1.0494
  12
-0.8526
  22
-1.2266
  13
-0.8231
  23
-1.2266
  0
SOLID
  8
Top_Paste
  10
-0.8526
  20
-0.8132
  11
-0.8231
  21
-0.8132
  12
-0.8526
  22
-0.9904
  13
-0.8231
  23
-0.9904
  0
SOLID
  8
Top_Paste
  10
-1.3729
  20
-0.929
  11
-1.3529
  21
-0.929
  12
-1.3729
  22
-1.0471
  13
-1.3529
  23
-1.0471
  0
SOLID
  8
Top_Paste
  10
-1.3729
  20
-1.1258
  11
-1.3529
  21
-1.1258
  12
-1.3729
  22
-1.2439
  13
-1.3529
  23
-1.2439
  0
SOLID
  8
Top_Paste
  10
-1.9479
  20
-0.929
  11
-1.9279
  21
-0.929
  12
-1.9479
  22
-1.0471
  13
-1.9279
  23
-1.0471
  0
SOLID
  8
Top_Paste
  10
-1.9479
  20
-1.1258
  11
-1.9279
  21
-1.1258
  12
-1.9479
  22
-1.2439
  13
-1.9279
  23
-1.2439
  0
SOLID
  8
Top_Paste
  10
-2.1479
  20
-0.929
  11
-2.1279
  21
-0.929
  12
-2.1479
  22
-1.0471
  13
-2.1279
  23
-1.0471
  0
SOLID
  8
Top_Paste
  10
-2.1479
  20
-1.1258
  11
-2.1279
  21
-1.1258
  12
-2.1479
  22
-1.2439
  13
-2.1279
  23
-1.2439
  0
SOLID
  8
Top_Paste
  10
-1.1729
  20
-0.929
  11
-1.1529
  21
-0.929
  12
-1.1729
  22
-1.0471
  13
-1.1529
  23
-1.0471
  0
SOLID
  8
Top_Paste
  10
-1.1729
  20
-1.1258
  11
-1.1529
  21
-1.1258
  12
-1.1729
  22
-1.2439
  13
-1.1529
  23
-1.2439
  0
SOLID
  8
Top_Paste
  10
-2.474
  20
-3.4474
  11
-2.414
  21
-3.4474
  12
-2.474
  22
-3.5034
  13
-2.414
  23
-3.5034
  0
SOLID
  8
Top_Paste
  10
-2.384
  20
-3.4474
  11
-2.324
  21
-3.4474
  12
-2.384
  22
-3.5034
  13
-2.324
  23
-3.5034
  0
SOLID
  8
Top_Paste
  10
-2.1115
  20
-3.4474
  11
-2.0515
  21
-3.4474
  12
-2.1115
  22
-3.5034
  13
-2.0515
  23
-3.5034
  0
SOLID
  8
Top_Paste
  10
-2.2015
  20
-3.4474
  11
-2.1415
  21
-3.4474
  12
-2.2015
  22
-3.5034
  13
-2.1415
  23
-3.5034
  0
SOLID
  8
Top_Paste
  10
-2.8699
  20
-3.4521
  11
-2.8187
  21
-3.4521
  12
-2.8699
  22
-3.5112
  13
-2.8187
  23
-3.5112
  0
SOLID
  8
Top_Paste
  10
-2.9447
  20
-3.4521
  11
-2.8935
  21
-3.4521
  12
-2.9447
  22
-3.5112
  13
-2.8935
  23
-3.5112
  0
SOLID
  8
Top_Paste
  10
-2.8699
  20
-3.5521
  11
-2.8187
  21
-3.5521
  12
-2.8699
  22
-3.6112
  13
-2.8187
  23
-3.6112
  0
SOLID
  8
Top_Paste
  10
-2.9447
  20
-3.5521
  11
-2.8935
  21
-3.5521
  12
-2.9447
  22
-3.6112
  13
-2.8935
  23
-3.6112
  0
SOLID
  8
Top_Paste
  10
-3.0791
  20
-3.5916
  11
-3.0091
  21
-3.5916
  12
-3.0791
  22
-3.6216
  13
-3.0091
  23
-3.6216
  0
POLYLINE
  8
Top_Paste
  6
CONTINUOUS
  66
1
  70
0
  40
0.015
  41
0.015
  0
VERTEX
  8
Top_Paste
  10
-3.2136
  20
-3.6066
  42
1
  0
VERTEX
  8
Top_Paste
  10
-3.1986
  20
-3.6066
  42
1
  0
VERTEX
  8
Top_Paste
  10
-3.2136
  20
-3.6066
  42
1
  0
SEQEND
  0
POLYLINE
  8
Top_Paste
  6
CONTINUOUS
  66
1
  70
0
  40
0.015
  41
0.015
  0
VERTEX
  8
Top_Paste
  10
-3.1736
  20
-3.6066
  42
1
  0
VERTEX
  8
Top_Paste
  10
-3.1586
  20
-3.6066
  42
1
  0
VERTEX
  8
Top_Paste
  10
-3.1736
  20
-3.6066
  42
1
  0
SEQEND
  0
SOLID
  8
Top_Paste
  10
-3.2061
  20
-3.5916
  11
-3.1661
  21
-3.5916
  12
-3.2061
  22
-3.6216
  13
-3.1661
  23
-3.6216
  0
SOLID
  8
Top_Paste
  10
-3.0791
  20
-3.4666
  11
-3.0091
  21
-3.4666
  12
-3.0791
  22
-3.4966
  13
-3.0091
  23
-3.4966
  0
POLYLINE
  8
Top_Paste
  6
CONTINUOUS
  66
1
  70
0
  40
0.015
  41
0.015
  0
VERTEX
  8
Top_Paste
  10
-3.2136
  20
-3.4816
  42
1
  0
VERTEX
  8
Top_Paste
  10
-3.1986
  20
-3.4816
  42
1
  0
VERTEX
  8
Top_Paste
  10
-3.2136
  20
-3.4816
  42
1
  0
SEQEND
  0
POLYLINE
  8
Top_Paste
  6
CONTINUOUS
  66
1
  70
0
  40
0.015
  41
0.015
  0
VERTEX
  8
Top_Paste
  10
-3.1736
  20
-3.4816
  42
1
  0
VERTEX
  8
Top_Paste
  10
-3.1586
  20
-3.4816
  42
1
  0
VERTEX
  8
Top_Paste
  10
-3.1736
  20
-3.4816
  42
1
  0
SEQEND
  0
SOLID
  8
Top_Paste
  10
-3.2061
  20
-3.4666
  11
-3.1661
  21
-3.4666
  12
-3.2061
  22
-3.4966
  13
-3.1661
  23
-3.4966
  0
SOLID
  8
Top_Paste
  10
-2.3743
  20
-0.6128
  11
-2.3015
  21
-0.6128
  12
-2.3743
  22
-0.7132
  13
-2.3015
  23
-0.7132
  0
SOLID
  8
Top_Paste
  10
-2.3743
  20
-0.7762
  11
-2.3015
  21
-0.7762
  12
-2.3743
  22
-0.8766
  13
-2.3015
  23
-0.8766
  0
SOLID
  8
Top_Paste
  10
-2.2885
  20
-0.4085
  11
-2.2373
  21
-0.4085
  12
-2.2885
  22
-0.4676
  13
-2.2373
  23
-0.4676
  0
SOLID
  8
Top_Paste
  10
-2.3633
  20
-0.4085
  11
-2.3121
  21
-0.4085
  12
-2.3633
  22
-0.4676
  13
-2.3121
  23
-0.4676
  0
SOLID
  8
Top_Paste
  10
-2.1279
  20
-0.703
  11
-2.0979
  21
-0.703
  12
-2.1279
  22
-0.773
  13
-2.0979
  23
-0.773
  0
POLYLINE
  8
Top_Paste
  6
CONTINUOUS
  66
1
  70
0
  40
0.015
  41
0.015
  0
VERTEX
  8
Top_Paste
  10
-2.1204
  20
-0.576
  42
1
  0
VERTEX
  8
Top_Paste
  10
-2.1054
  20
-0.576
  42
1
  0
VERTEX
  8
Top_Paste
  10
-2.1204
  20
-0.576
  42
1
  0
SEQEND
  0
POLYLINE
  8
Top_Paste
  6
CONTINUOUS
  66
1
  70
0
  40
0.015
  41
0.015
  0
VERTEX
  8
Top_Paste
  10
-2.1204
  20
-0.616
  42
1
  0
VERTEX
  8
Top_Paste
  10
-2.1054
  20
-0.616
  42
1
  0
VERTEX
  8
Top_Paste
  10
-2.1204
  20
-0.616
  42
1
  0
SEQEND
  0
SOLID
  8
Top_Paste
  10
-2.1279
  20
-0.576
  11
-2.0979
  21
-0.576
  12
-2.1279
  22
-0.616
  13
-2.0979
  23
-0.616
  0
SOLID
  8
Top_Paste
  10
-0.9632
  20
-1.8144
  11
-0.912
  21
-1.8144
  12
-0.9632
  22
-1.8735
  13
-0.912
  23
-1.8735
  0
SOLID
  8
Top_Paste
  10
-0.8884
  20
-1.8144
  11
-0.8372
  21
-1.8144
  12
-0.8884
  22
-1.8735
  13
-0.8372
  23
-1.8735
  0
SOLID
  8
Top_Paste
  10
-1.132
  20
-1.8144
  11
-1.0808
  21
-1.8144
  12
-1.132
  22
-1.8735
  13
-1.0808
  23
-1.8735
  0
SOLID
  8
Top_Paste
  10
-1.0572
  20
-1.8144
  11
-1.006
  21
-1.8144
  12
-1.0572
  22
-1.8735
  13
-1.006
  23
-1.8735
  0
SOLID
  8
Top_Paste
  10
-0.8614
  20
-2.3785
  11
-0.8014
  21
-2.3785
  12
-0.8614
  22
-2.4345
  13
-0.8014
  23
-2.4345
  0
SOLID
  8
Top_Paste
  10
-0.7714
  20
-2.3785
  11
-0.7114
  21
-2.3785
  12
-0.7714
  22
-2.4345
  13
-0.7114
  23
-2.4345
  0
SOLID
  8
Top_Paste
  10
1.214
  20
-2.9155
  11
1.2848
  21
-2.9155
  12
1.214
  22
-2.9352
  13
1.2848
  23
-2.9352
  0
SOLID
  8
Top_Paste
  10
1.214
  20
-2.947
  11
1.2848
  21
-2.947
  12
1.214
  22
-2.9666
  13
1.2848
  23
-2.9666
  0
SOLID
  8
Top_Paste
  10
1.214
  20
-2.9785
  11
1.2848
  21
-2.9785
  12
1.214
  22
-2.9981
  13
1.2848
  23
-2.9981
  0
SOLID
  8
Top_Paste
  10
1.214
  20
-3.01
  11
1.2848
  21
-3.01
  12
1.214
  22
-3.0296
  13
1.2848
  23
-3.0296
  0
SOLID
  8
Top_Paste
  10
1.214
  20
-3.0415
  11
1.2848
  21
-3.0415
  12
1.214
  22
-3.0611
  13
1.2848
  23
-3.0611
  0
SOLID
  8
Top_Paste
  10
1.214
  20
-3.0729
  11
1.2848
  21
-3.0729
  12
1.214
  22
-3.0926
  13
1.2848
  23
-3.0926
  0
SOLID
  8
Top_Paste
  10
1.214
  20
-3.1044
  11
1.2848
  21
-3.1044
  12
1.214
  22
-3.1241
  13
1.2848
  23
-3.1241
  0
SOLID
  8
Top_Paste
  10
1.214
  20
-3.1359
  11
1.2848
  21
-3.1359
  12
1.214
  22
-3.1556
  13
1.2848
  23
-3.1556
  0
SOLID
  8
Top_Paste
  10
1.2989
  20
-3.1691
  11
1.3186
  21
-3.1691
  12
1.2989
  22
-3.24
  13
1.3186
  23
-3.24
  0
SOLID
  8
Top_Paste
  10
1.3304
  20
-3.1691
  11
1.3501
  21
-3.1691
  12
1.3304
  22
-3.24
  13
1.3501
  23
-3.24
  0
SOLID
  8
Top_Paste
  10
1.3619
  20
-3.1691
  11
1.3816
  21
-3.1691
  12
1.3619
  22
-3.24
  13
1.3816
  23
-3.24
  0
SOLID
  8
Top_Paste
  10
1.3934
  20
-3.1691
  11
1.4131
  21
-3.1691
  12
1.3934
  22
-3.24
  13
1.4131
  23
-3.24
  0
SOLID
  8
Top_Paste
  10
1.4249
  20
-3.1691
  11
1.4446
  21
-3.1691
  12
1.4249
  22
-3.24
  13
1.4446
  23
-3.24
  0
SOLID
  8
Top_Paste
  10
1.4564
  20
-3.1691
  11
1.4761
  21
-3.1691
  12
1.4564
  22
-3.24
  13
1.4761
  23
-3.24
  0
SOLID
  8
Top_Paste
  10
1.4879
  20
-3.1691
  11
1.5076
  21
-3.1691
  12
1.4879
  22
-3.24
  13
1.5076
  23
-3.24
  0
SOLID
  8
Top_Paste
  10
1.5194
  20
-3.1691
  11
1.5391
  21
-3.1691
  12
1.5194
  22
-3.24
  13
1.5391
  23
-3.24
  0
SOLID
  8
Top_Paste
  10
1.5525
  20
-3.1353
  11
1.6234
  21
-3.1353
  12
1.5525
  22
-3.155
  13
1.6234
  23
-3.155
  0
SOLID
  8
Top_Paste
  10
1.5525
  20
-3.1038
  11
1.6234
  21
-3.1038
  12
1.5525
  22
-3.1235
  13
1.6234
  23
-3.1235
  0
SOLID
  8
Top_Paste
  10
1.5525
  20
-3.0723
  11
1.6234
  21
-3.0723
  12
1.5525
  22
-3.092
  13
1.6234
  23
-3.092
  0
SOLID
  8
Top_Paste
  10
1.5525
  20
-3.0408
  11
1.6234
  21
-3.0408
  12
1.5525
  22
-3.0605
  13
1.6234
  23
-3.0605
  0
SOLID
  8
Top_Paste
  10
1.5525
  20
-3.0093
  11
1.6234
  21
-3.0093
  12
1.5525
  22
-3.029
  13
1.6234
  23
-3.029
  0
SOLID
  8
Top_Paste
  10
1.5525
  20
-2.9778
  11
1.6234
  21
-2.9778
  12
1.5525
  22
-2.9975
  13
1.6234
  23
-2.9975
  0
SOLID
  8
Top_Paste
  10
1.5525
  20
-2.9463
  11
1.6234
  21
-2.9463
  12
1.5525
  22
-2.966
  13
1.6234
  23
-2.966
  0
SOLID
  8
Top_Paste
  10
1.5525
  20
-2.9148
  11
1.6234
  21
-2.9148
  12
1.5525
  22
-2.9345
  13
1.6234
  23
-2.9345
  0
SOLID
  8
Top_Paste
  10
1.5188
  20
-2.8305
  11
1.5384
  21
-2.8305
  12
1.5188
  22
-2.9014
  13
1.5384
  23
-2.9014
  0
SOLID
  8
Top_Paste
  10
1.4873
  20
-2.8305
  11
1.5069
  21
-2.8305
  12
1.4873
  22
-2.9014
  13
1.5069
  23
-2.9014
  0
SOLID
  8
Top_Paste
  10
1.4558
  20
-2.8305
  11
1.4755
  21
-2.8305
  12
1.4558
  22
-2.9014
  13
1.4755
  23
-2.9014
  0
SOLID
  8
Top_Paste
  10
1.4243
  20
-2.8305
  11
1.444
  21
-2.8305
  12
1.4243
  22
-2.9014
  13
1.444
  23
-2.9014
  0
SOLID
  8
Top_Paste
  10
1.3928
  20
-2.8305
  11
1.4125
  21
-2.8305
  12
1.3928
  22
-2.9014
  13
1.4125
  23
-2.9014
  0
SOLID
  8
Top_Paste
  10
1.3613
  20
-2.8305
  11
1.381
  21
-2.8305
  12
1.3613
  22
-2.9014
  13
1.381
  23
-2.9014
  0
SOLID
  8
Top_Paste
  10
1.3298
  20
-2.8305
  11
1.3495
  21
-2.8305
  12
1.3298
  22
-2.9014
  13
1.3495
  23
-2.9014
  0
SOLID
  8
Top_Paste
  10
1.2983
  20
-2.8305
  11
1.318
  21
-2.8305
  12
1.2983
  22
-2.9014
  13
1.318
  23
-2.9014
  0
SOLID
  8
Top_Paste
  10
0.5973
  20
-3.2797
  11
0.8138
  21
-3.2797
  12
0.5973
  22
-3.3585
  13
0.8138
  23
-3.3585
  0
SOLID
  8
Top_Paste
  10
0.9713
  20
-3.2797
  11
1.1879
  21
-3.2797
  12
0.9713
  22
-3.3585
  13
1.1879
  23
-3.3585
  0
SOLID
  8
Top_Paste
  10
1.4017
  20
-0.929
  11
1.4217
  21
-0.929
  12
1.4017
  22
-1.0471
  13
1.4217
  23
-1.0471
  0
SOLID
  8
Top_Paste
  10
1.4017
  20
-1.1258
  11
1.4217
  21
-1.1258
  12
1.4017
  22
-1.2439
  13
1.4217
  23
-1.2439
  0
SOLID
  8
Top_Paste
  10
1.4217
  20
-0.36
  11
1.4817
  21
-0.36
  12
1.4217
  22
-0.416
  13
1.4817
  23
-0.416
  0
SOLID
  8
Top_Paste
  10
1.3317
  20
-0.36
  11
1.3917
  21
-0.36
  12
1.3317
  22
-0.416
  13
1.3917
  23
-0.416
  0
SOLID
  8
Top_Paste
  10
2.297
  20
-0.3744
  11
2.3265
  21
-0.3744
  12
2.297
  22
-0.5516
  13
2.3265
  23
-0.5516
  0
SOLID
  8
Top_Paste
  10
2.297
  20
-0.6107
  11
2.3265
  21
-0.6107
  12
2.297
  22
-0.7878
  13
2.3265
  23
-0.7878
  0
SOLID
  8
Top_Paste
  10
2.4587
  20
-0.733
  11
2.5147
  21
-0.733
  12
2.4587
  22
-0.793
  13
2.5147
  23
-0.793
  0
SOLID
  8
Top_Paste
  10
2.4587
  20
-0.823
  11
2.5147
  21
-0.823
  12
2.4587
  22
-0.883
  13
2.5147
  23
-0.883
  0
SOLID
  8
Top_Paste
  10
1.9698
  20
-3.6762
  11
2.1666
  21
-3.6762
  12
1.9698
  22
-3.7746
  13
2.1666
  23
-3.7746
  0
SOLID
  8
Top_Paste
  10
2.4198
  20
-3.6762
  11
2.6166
  21
-3.6762
  12
2.4198
  22
-3.7746
  13
2.6166
  23
-3.7746
  0
SOLID
  8
Top_Paste
  10
2.6258
  20
-3.5286
  11
2.6858
  21
-3.5286
  12
2.6258
  22
-3.5846
  13
2.6858
  23
-3.5846
  0
SOLID
  8
Top_Paste
  10
2.7158
  20
-3.5286
  11
2.7758
  21
-3.5286
  12
2.7158
  22
-3.5846
  13
2.7758
  23
-3.5846
  0
SOLID
  8
Top_Paste
  10
2.4341
  20
-1.7137
  11
2.4774
  21
-1.7137
  12
2.4341
  22
-1.7492
  13
2.4774
  23
-1.7492
  0
SOLID
  8
Top_Paste
  10
2.4024
  20
-1.8275
  11
2.4418
  21
-1.8275
  12
2.4024
  22
-1.8629
  13
2.4418
  23
-1.8629
  0
SOLID
  8
Top_Paste
  10
2.4703
  20
-1.8275
  11
2.5097
  21
-1.8275
  12
2.4703
  22
-1.8629
  13
2.5097
  23
-1.8629
  0
SOLID
  8
Top_Paste
  10
0.797
  20
-2.0404
  11
0.8895
  21
-2.0404
  12
0.797
  22
-2.064
  13
0.8895
  23
-2.064
  0
SOLID
  8
Top_Paste
  10
0.797
  20
-2.0904
  11
0.8895
  21
-2.0904
  12
0.797
  22
-2.114
  13
0.8895
  23
-2.114
  0
SOLID
  8
Top_Paste
  10
0.797
  20
-2.1404
  11
0.8895
  21
-2.1404
  12
0.797
  22
-2.164
  13
0.8895
  23
-2.164
  0
SOLID
  8
Top_Paste
  10
0.797
  20
-2.1904
  11
0.8895
  21
-2.1904
  12
0.797
  22
-2.214
  13
0.8895
  23
-2.214
  0
SOLID
  8
Top_Paste
  10
0.797
  20
-2.2404
  11
0.8895
  21
-2.2404
  12
0.797
  22
-2.264
  13
0.8895
  23
-2.264
  0
SOLID
  8
Top_Paste
  10
0.797
  20
-2.2904
  11
0.8895
  21
-2.2904
  12
0.797
  22
-2.314
  13
0.8895
  23
-2.314
  0
SOLID
  8
Top_Paste
  10
0.797
  20
-2.3404
  11
0.8895
  21
-2.3404
  12
0.797
  22
-2.364
  13
0.8895
  23
-2.364
  0
SOLID
  8
Top_Paste
  10
0.797
  20
-2.3904
  11
0.8895
  21
-2.3904
  12
0.797
  22
-2.414
  13
0.8895
  23
-2.414
  0
SOLID
  8
Top_Paste
  10
1.1926
  20
-2.3904
  11
1.2852
  21
-2.3904
  12
1.1926
  22
-2.414
  13
1.2852
  23
-2.414
  0
SOLID
  8
Top_Paste
  10
1.1926
  20
-2.3404
  11
1.2852
  21
-2.3404
  12
1.1926
  22
-2.364
  13
1.2852
  23
-2.364
  0
SOLID
  8
Top_Paste
  10
1.1926
  20
-2.2904
  11
1.2852
  21
-2.2904
  12
1.1926
  22
-2.314
  13
1.2852
  23
-2.314
  0
SOLID
  8
Top_Paste
  10
1.1926
  20
-2.2404
  11
1.2852
  21
-2.2404
  12
1.1926
  22
-2.264
  13
1.2852
  23
-2.264
  0
SOLID
  8
Top_Paste
  10
1.1926
  20
-2.1904
  11
1.2852
  21
-2.1904
  12
1.1926
  22
-2.214
  13
1.2852
  23
-2.214
  0
SOLID
  8
Top_Paste
  10
1.1926
  20
-2.1404
  11
1.2852
  21
-2.1404
  12
1.1926
  22
-2.164
  13
1.2852
  23
-2.164
  0
SOLID
  8
Top_Paste
  10
1.1926
  20
-2.0904
  11
1.2852
  21
-2.0904
  12
1.1926
  22
-2.114
  13
1.2852
  23
-2.114
  0
SOLID
  8
Top_Paste
  10
1.1926
  20
-2.0404
  11
1.2852
  21
-2.0404
  12
1.1926
  22
-2.064
  13
1.2852
  23
-2.064
  0
SOLID
  8
Top_Paste
  10
1.1444
  20
-1.8972
  11
1.2044
  21
-1.8972
  12
1.1444
  22
-1.9532
  13
1.2044
  23
-1.9532
  0
SOLID
  8
Top_Paste
  10
1.0544
  20
-1.8972
  11
1.1144
  21
-1.8972
  12
1.0544
  22
-1.9532
  13
1.1144
  23
-1.9532
  0
SOLID
  8
Top_Paste
  10
0.6588
  20
-2.0202
  11
0.7148
  21
-2.0202
  12
0.6588
  22
-2.0802
  13
0.7148
  23
-2.0802
  0
SOLID
  8
Top_Paste
  10
0.6588
  20
-2.1102
  11
0.7148
  21
-2.1102
  12
0.6588
  22
-2.1702
  13
0.7148
  23
-2.1702
  0
SOLID
  8
Top_Paste
  10
0.6588
  20
-2.1952
  11
0.7148
  21
-2.1952
  12
0.6588
  22
-2.2552
  13
0.7148
  23
-2.2552
  0
SOLID
  8
Top_Paste
  10
0.6588
  20
-2.2852
  11
0.7148
  21
-2.2852
  12
0.6588
  22
-2.3452
  13
0.7148
  23
-2.3452
  0
SOLID
  8
Top_Paste
  10
1.0444
  20
-2.466
  11
1.1044
  21
-2.466
  12
1.0444
  22
-2.522
  13
1.1044
  23
-2.522
  0
SOLID
  8
Top_Paste
  10
0.9544
  20
-2.466
  11
1.0144
  21
-2.466
  12
0.9544
  22
-2.522
  13
1.0144
  23
-2.522
  0
SOLID
  8
Top_Paste
  10
0.8694
  20
-1.8972
  11
0.9294
  21
-1.8972
  12
0.8694
  22
-1.9532
  13
0.9294
  23
-1.9532
  0
SOLID
  8
Top_Paste
  10
0.9594
  20
-1.8972
  11
1.0194
  21
-1.8972
  12
0.9594
  22
-1.9532
  13
1.0194
  23
-1.9532
  0
SOLID
  8
Top_Paste
  10
0.1794
  20
-2.2602
  11
0.2817
  21
-2.2602
  12
0.1794
  22
-2.3153
  13
0.2817
  23
-2.3153
  0
SOLID
  8
Top_Paste
  10
0.1794
  20
-2.4019
  11
0.2817
  21
-2.4019
  12
0.1794
  22
-2.457
  13
0.2817
  23
-2.457
  0
SOLID
  8
Top_Paste
  10
0.4156
  20
-2.4019
  11
0.5179
  21
-2.4019
  12
0.4156
  22
-2.457
  13
0.5179
  23
-2.457
  0
SOLID
  8
Top_Paste
  10
0.4156
  20
-2.2602
  11
0.5179
  21
-2.2602
  12
0.4156
  22
-2.3153
  13
0.5179
  23
-2.3153
  0
SOLID
  8
Top_Paste
  10
0.0568
  20
-2.2597
  11
0.1168
  21
-2.2597
  12
0.0568
  22
-2.3157
  13
0.1168
  23
-2.3157
  0
SOLID
  8
Top_Paste
  10
-0.0332
  20
-2.2597
  11
0.0268
  21
-2.2597
  12
-0.0332
  22
-2.3157
  13
0.0268
  23
-2.3157
  0
SOLID
  8
Top_Paste
  10
-0.0263
  20
-2.4082
  11
0.0248
  21
-2.4082
  12
-0.0263
  22
-2.4673
  13
0.0248
  23
-2.4673
  0
SOLID
  8
Top_Paste
  10
0.0485
  20
-2.4082
  11
0.0997
  21
-2.4082
  12
0.0485
  22
-2.4673
  13
0.0997
  23
-2.4673
  0
SOLID
  8
Top_Paste
  10
0.7306
  20
-3.0611
  11
0.7906
  21
-3.0611
  12
0.7306
  22
-3.1171
  13
0.7906
  23
-3.1171
  0
SOLID
  8
Top_Paste
  10
0.8206
  20
-3.0611
  11
0.8806
  21
-3.0611
  12
0.8206
  22
-3.1171
  13
0.8806
  23
-3.1171
  0
SOLID
  8
Top_Paste
  10
1.6966
  20
-3.0702
  11
1.7526
  21
-3.0702
  12
1.6966
  22
-3.1302
  13
1.7526
  23
-3.1302
  0
SOLID
  8
Top_Paste
  10
1.6966
  20
-2.9802
  11
1.7526
  21
-2.9802
  12
1.6966
  22
-3.0402
  13
1.7526
  23
-3.0402
  0
SOLID
  8
Top_Paste
  10
0.7665
  20
-1.1427
  11
0.857
  21
-1.1427
  12
0.7665
  22
-1.2333
  13
0.857
  23
-1.2333
  0
SOLID
  8
Top_Paste
  10
0.7665
  20
-0.9656
  11
0.857
  21
-0.9656
  12
0.7665
  22
-1.0561
  13
0.857
  23
-1.0561
  0
SOLID
  8
Top_Paste
  10
1.6527
  20
-0.4795
  11
1.7707
  21
-0.4795
  12
1.6527
  22
-0.6965
  13
1.7707
  23
-0.6965
  0
SOLID
  8
Top_Paste
  10
2.0565
  20
-0.4795
  11
2.1745
  21
-0.4795
  12
2.0565
  22
-0.6965
  13
2.1745
  23
-0.6965
  0
SOLID
  8
Top_Paste
  10
1.1683
  20
-0.4762
  11
1.2549
  21
-0.4762
  12
1.1683
  22
-0.4998
  13
1.2549
  23
-0.4998
  0
SOLID
  8
Top_Paste
  10
1.1683
  20
-0.5262
  11
1.2549
  21
-0.5262
  12
1.1683
  22
-0.5498
  13
1.2549
  23
-0.5498
  0
SOLID
  8
Top_Paste
  10
1.1683
  20
-0.5762
  11
1.2549
  21
-0.5762
  12
1.1683
  22
-0.5998
  13
1.2549
  23
-0.5998
  0
SOLID
  8
Top_Paste
  10
1.1683
  20
-0.6262
  11
1.2549
  21
-0.6262
  12
1.1683
  22
-0.6498
  13
1.2549
  23
-0.6498
  0
SOLID
  8
Top_Paste
  10
1.1683
  20
-0.6762
  11
1.2549
  21
-0.6762
  12
1.1683
  22
-0.6998
  13
1.2549
  23
-0.6998
  0
SOLID
  8
Top_Paste
  10
1.1683
  20
-0.7262
  11
1.2549
  21
-0.7262
  12
1.1683
  22
-0.7498
  13
1.2549
  23
-0.7498
  0
SOLID
  8
Top_Paste
  10
1.1683
  20
-0.7762
  11
1.2549
  21
-0.7762
  12
1.1683
  22
-0.7998
  13
1.2549
  23
-0.7998
  0
SOLID
  8
Top_Paste
  10
1.5305
  20
-0.7762
  11
1.6171
  21
-0.7762
  12
1.5305
  22
-0.7998
  13
1.6171
  23
-0.7998
  0
SOLID
  8
Top_Paste
  10
1.5305
  20
-0.7262
  11
1.6171
  21
-0.7262
  12
1.5305
  22
-0.7498
  13
1.6171
  23
-0.7498
  0
SOLID
  8
Top_Paste
  10
1.5305
  20
-0.6762
  11
1.6171
  21
-0.6762
  12
1.5305
  22
-0.6998
  13
1.6171
  23
-0.6998
  0
SOLID
  8
Top_Paste
  10
1.5305
  20
-0.6262
  11
1.6171
  21
-0.6262
  12
1.5305
  22
-0.6498
  13
1.6171
  23
-0.6498
  0
SOLID
  8
Top_Paste
  10
1.5305
  20
-0.5762
  11
1.6171
  21
-0.5762
  12
1.5305
  22
-0.5998
  13
1.6171
  23
-0.5998
  0
SOLID
  8
Top_Paste
  10
1.5305
  20
-0.5262
  11
1.6171
  21
-0.5262
  12
1.5305
  22
-0.5498
  13
1.6171
  23
-0.5498
  0
SOLID
  8
Top_Paste
  10
1.5305
  20
-0.4762
  11
1.6171
  21
-0.4762
  12
1.5305
  22
-0.4998
  13
1.6171
  23
-0.4998
  0
SOLID
  8
Top_Paste
  10
1.5753
  20
-0.9378
  11
1.6482
  21
-0.9378
  12
1.5753
  22
-1.0382
  13
1.6482
  23
-1.0382
  0
SOLID
  8
Top_Paste
  10
1.5753
  20
-1.1012
  11
1.6482
  21
-1.1012
  12
1.5753
  22
-1.2016
  13
1.6482
  23
-1.2016
  0
SOLID
  8
Top_Paste
  10
2.297
  20
-1.0494
  11
2.3265
  21
-1.0494
  12
2.297
  22
-1.2266
  13
2.3265
  23
-1.2266
  0
SOLID
  8
Top_Paste
  10
2.297
  20
-0.8132
  11
2.3265
  21
-0.8132
  12
2.297
  22
-0.9904
  13
2.3265
  23
-0.9904
  0
SOLID
  8
Top_Paste
  10
1.7767
  20
-0.929
  11
1.7967
  21
-0.929
  12
1.7767
  22
-1.0471
  13
1.7967
  23
-1.0471
  0
SOLID
  8
Top_Paste
  10
1.7767
  20
-1.1258
  11
1.7967
  21
-1.1258
  12
1.7767
  22
-1.2439
  13
1.7967
  23
-1.2439
  0
SOLID
  8
Top_Paste
  10
1.2017
  20
-0.929
  11
1.2217
  21
-0.929
  12
1.2017
  22
-1.0471
  13
1.2217
  23
-1.0471
  0
SOLID
  8
Top_Paste
  10
1.2017
  20
-1.1258
  11
1.2217
  21
-1.1258
  12
1.2017
  22
-1.2439
  13
1.2217
  23
-1.2439
  0
SOLID
  8
Top_Paste
  10
1.0017
  20
-0.929
  11
1.0217
  21
-0.929
  12
1.0017
  22
-1.0471
  13
1.0217
  23
-1.0471
  0
SOLID
  8
Top_Paste
  10
1.0017
  20
-1.1258
  11
1.0217
  21
-1.1258
  12
1.0017
  22
-1.2439
  13
1.0217
  23
-1.2439
  0
SOLID
  8
Top_Paste
  10
1.9767
  20
-0.929
  11
1.9967
  21
-0.929
  12
1.9767
  22
-1.0471
  13
1.9967
  23
-1.0471
  0
SOLID
  8
Top_Paste
  10
1.9767
  20
-1.1258
  11
1.9967
  21
-1.1258
  12
1.9767
  22
-1.2439
  13
1.9967
  23
-1.2439
  0
SOLID
  8
Top_Paste
  10
0.6756
  20
-3.4474
  11
0.7356
  21
-3.4474
  12
0.6756
  22
-3.5034
  13
0.7356
  23
-3.5034
  0
SOLID
  8
Top_Paste
  10
0.7656
  20
-3.4474
  11
0.8256
  21
-3.4474
  12
0.7656
  22
-3.5034
  13
0.8256
  23
-3.5034
  0
SOLID
  8
Top_Paste
  10
1.0381
  20
-3.4474
  11
1.0981
  21
-3.4474
  12
1.0381
  22
-3.5034
  13
1.0981
  23
-3.5034
  0
SOLID
  8
Top_Paste
  10
0.9481
  20
-3.4474
  11
1.0081
  21
-3.4474
  12
0.9481
  22
-3.5034
  13
1.0081
  23
-3.5034
  0
SOLID
  8
Top_Paste
  10
0.2797
  20
-3.4521
  11
0.3309
  21
-3.4521
  12
0.2797
  22
-3.5112
  13
0.3309
  23
-3.5112
  0
SOLID
  8
Top_Paste
  10
0.2049
  20
-3.4521
  11
0.2561
  21
-3.4521
  12
0.2049
  22
-3.5112
  13
0.2561
  23
-3.5112
  0
SOLID
  8
Top_Paste
  10
0.2797
  20
-3.5521
  11
0.3309
  21
-3.5521
  12
0.2797
  22
-3.6112
  13
0.3309
  23
-3.6112
  0
SOLID
  8
Top_Paste
  10
0.2049
  20
-3.5521
  11
0.2561
  21
-3.5521
  12
0.2049
  22
-3.6112
  13
0.2561
  23
-3.6112
  0
SOLID
  8
Top_Paste
  10
0.0705
  20
-3.5916
  11
0.1405
  21
-3.5916
  12
0.0705
  22
-3.6216
  13
0.1405
  23
-3.6216
  0
POLYLINE
  8
Top_Paste
  6
CONTINUOUS
  66
1
  70
0
  40
0.015
  41
0.015
  0
VERTEX
  8
Top_Paste
  10
-0.064
  20
-3.6066
  42
1
  0
VERTEX
  8
Top_Paste
  10
-0.049
  20
-3.6066
  42
1
  0
VERTEX
  8
Top_Paste
  10
-0.064
  20
-3.6066
  42
1
  0
SEQEND
  0
POLYLINE
  8
Top_Paste
  6
CONTINUOUS
  66
1
  70
0
  40
0.015
  41
0.015
  0
VERTEX
  8
Top_Paste
  10
-0.024
  20
-3.6066
  42
1
  0
VERTEX
  8
Top_Paste
  10
-0.009
  20
-3.6066
  42
1
  0
VERTEX
  8
Top_Paste
  10
-0.024
  20
-3.6066
  42
1
  0
SEQEND
  0
SOLID
  8
Top_Paste
  10
-0.0565
  20
-3.5916
  11
-0.0165
  21
-3.5916
  12
-0.0565
  22
-3.6216
  13
-0.0165
  23
-3.6216
  0
SOLID
  8
Top_Paste
  10
0.0705
  20
-3.4666
  11
0.1405
  21
-3.4666
  12
0.0705
  22
-3.4966
  13
0.1405
  23
-3.4966
  0
POLYLINE
  8
Top_Paste
  6
CONTINUOUS
  66
1
  70
0
  40
0.015
  41
0.015
  0
VERTEX
  8
Top_Paste
  10
-0.064
  20
-3.4816
  42
1
  0
VERTEX
  8
Top_Paste
  10
-0.049
  20
-3.4816
  42
1
  0
VERTEX
  8
Top_Paste
  10
-0.064
  20
-3.4816
  42
1
  0
SEQEND
  0
POLYLINE
  8
Top_Paste
  6
CONTINUOUS
  66
1
  70
0
  40
0.015
  41
0.015
  0
VERTEX
  8
Top_Paste
  10
-0.024
  20
-3.4816
  42
1
  0
VERTEX
  8
Top_Paste
  10
-0.009
  20
-3.4816
  42
1
  0
VERTEX
  8
Top_Paste
  10
-0.024
  20
-3.4816
  42
1
  0
SEQEND
  0
SOLID
  8
Top_Paste
  10
-0.0565
  20
-3.4666
  11
-0.0165
  21
-3.4666
  12
-0.0565
  22
-3.4966
  13
-0.0165
  23
-3.4966
  0
SOLID
  8
Top_Paste
  10
0.7753
  20
-0.6128
  11
0.8482
  21
-0.6128
  12
0.7753
  22
-0.7132
  13
0.8482
  23
-0.7132
  0
SOLID
  8
Top_Paste
  10
0.7753
  20
-0.7762
  11
0.8482
  21
-0.7762
  12
0.7753
  22
-0.8766
  13
0.8482
  23
-0.8766
  0
SOLID
  8
Top_Paste
  10
0.8611
  20
-0.4085
  11
0.9123
  21
-0.4085
  12
0.8611
  22
-0.4676
  13
0.9123
  23
-0.4676
  0
SOLID
  8
Top_Paste
  10
0.7863
  20
-0.4085
  11
0.8375
  21
-0.4085
  12
0.7863
  22
-0.4676
  13
0.8375
  23
-0.4676
  0
SOLID
  8
Top_Paste
  10
1.0217
  20
-0.703
  11
1.0517
  21
-0.703
  12
1.0217
  22
-0.773
  13
1.0517
  23
-0.773
  0
POLYLINE
  8
Top_Paste
  6
CONTINUOUS
  66
1
  70
0
  40
0.015
  41
0.015
  0
VERTEX
  8
Top_Paste
  10
1.0292
  20
-0.576
  42
1
  0
VERTEX
  8
Top_Paste
  10
1.0442
  20
-0.576
  42
1
  0
VERTEX
  8
Top_Paste
  10
1.0292
  20
-0.576
  42
1
  0
SEQEND
  0
POLYLINE
  8
Top_Paste
  6
CONTINUOUS
  66
1
  70
0
  40
0.015
  41
0.015
  0
VERTEX
  8
Top_Paste
  10
1.0292
  20
-0.616
  42
1
  0
VERTEX
  8
Top_Paste
  10
1.0442
  20
-0.616
  42
1
  0
VERTEX
  8
Top_Paste
  10
1.0292
  20
-0.616
  42
1
  0
SEQEND
  0
SOLID
  8
Top_Paste
  10
1.0217
  20
-0.576
  11
1.0517
  21
-0.576
  12
1.0217
  22
-0.616
  13
1.0517
  23
-0.616
  0
SOLID
  8
Top_Paste
  10
2.1864
  20
-1.8144
  11
2.2376
  21
-1.8144
  12
2.1864
  22
-1.8735
  13
2.2376
  23
-1.8735
  0
SOLID
  8
Top_Paste
  10
2.2612
  20
-1.8144
  11
2.3124
  21
-1.8144
  12
2.2612
  22
-1.8735
  13
2.3124
  23
-1.8735
  0
SOLID
  8
Top_Paste
  10
2.0176
  20
-1.8144
  11
2.0688
  21
-1.8144
  12
2.0176
  22
-1.8735
  13
2.0688
  23
-1.8735
  0
SOLID
  8
Top_Paste
  10
2.0924
  20
-1.8144
  11
2.1436
  21
-1.8144
  12
2.0924
  22
-1.8735
  13
2.1436
  23
-1.8735
  0
SOLID
  8
Top_Paste
  10
2.2883
  20
-2.3785
  11
2.3483
  21
-2.3785
  12
2.2883
  22
-2.4345
  13
2.3483
  23
-2.4345
  0
SOLID
  8
Top_Paste
  10
2.3783
  20
-2.3785
  11
2.4383
  21
-2.3785
  12
2.3783
  22
-2.4345
  13
2.4383
  23
-2.4345
  0
SOLID
  8
Top_Paste
  10
-1.9357
  20
1.4152
  11
-1.8648
  21
1.4152
  12
-1.9357
  22
1.3956
  13
-1.8648
  23
1.3956
  0
SOLID
  8
Top_Paste
  10
-1.9357
  20
1.3837
  11
-1.8648
  21
1.3837
  12
-1.9357
  22
1.3641
  13
-1.8648
  23
1.3641
  0
SOLID
  8
Top_Paste
  10
-1.9357
  20
1.3522
  11
-1.8648
  21
1.3522
  12
-1.9357
  22
1.3326
  13
-1.8648
  23
1.3326
  0
SOLID
  8
Top_Paste
  10
-1.9357
  20
1.3208
  11
-1.8648
  21
1.3208
  12
-1.9357
  22
1.3011
  13
-1.8648
  23
1.3011
  0
SOLID
  8
Top_Paste
  10
-1.9357
  20
1.2893
  11
-1.8648
  21
1.2893
  12
-1.9357
  22
1.2696
  13
-1.8648
  23
1.2696
  0
SOLID
  8
Top_Paste
  10
-1.9357
  20
1.2578
  11
-1.8648
  21
1.2578
  12
-1.9357
  22
1.2381
  13
-1.8648
  23
1.2381
  0
SOLID
  8
Top_Paste
  10
-1.9357
  20
1.2263
  11
-1.8648
  21
1.2263
  12
-1.9357
  22
1.2066
  13
-1.8648
  23
1.2066
  0
SOLID
  8
Top_Paste
  10
-1.9357
  20
1.1948
  11
-1.8648
  21
1.1948
  12
-1.9357
  22
1.1751
  13
-1.8648
  23
1.1751
  0
SOLID
  8
Top_Paste
  10
-1.8507
  20
1.1616
  11
-1.831
  21
1.1616
  12
-1.8507
  22
1.0908
  13
-1.831
  23
1.0908
  0
SOLID
  8
Top_Paste
  10
-1.8192
  20
1.1616
  11
-1.7995
  21
1.1616
  12
-1.8192
  22
1.0908
  13
-1.7995
  23
1.0908
  0
SOLID
  8
Top_Paste
  10
-1.7877
  20
1.1616
  11
-1.768
  21
1.1616
  12
-1.7877
  22
1.0908
  13
-1.768
  23
1.0908
  0
SOLID
  8
Top_Paste
  10
-1.7562
  20
1.1616
  11
-1.7365
  21
1.1616
  12
-1.7562
  22
1.0908
  13
-1.7365
  23
1.0908
  0
SOLID
  8
Top_Paste
  10
-1.7247
  20
1.1616
  11
-1.705
  21
1.1616
  12
-1.7247
  22
1.0908
  13
-1.705
  23
1.0908
  0
SOLID
  8
Top_Paste
  10
-1.6932
  20
1.1616
  11
-1.6735
  21
1.1616
  12
-1.6932
  22
1.0908
  13
-1.6735
  23
1.0908
  0
SOLID
  8
Top_Paste
  10
-1.6617
  20
1.1616
  11
-1.642
  21
1.1616
  12
-1.6617
  22
1.0908
  13
-1.642
  23
1.0908
  0
SOLID
  8
Top_Paste
  10
-1.6302
  20
1.1616
  11
-1.6105
  21
1.1616
  12
-1.6302
  22
1.0908
  13
-1.6105
  23
1.0908
  0
SOLID
  8
Top_Paste
  10
-1.5971
  20
1.1954
  11
-1.5262
  21
1.1954
  12
-1.5971
  22
1.1757
  13
-1.5262
  23
1.1757
  0
SOLID
  8
Top_Paste
  10
-1.5971
  20
1.2269
  11
-1.5262
  21
1.2269
  12
-1.5971
  22
1.2072
  13
-1.5262
  23
1.2072
  0
SOLID
  8
Top_Paste
  10
-1.5971
  20
1.2584
  11
-1.5262
  21
1.2584
  12
-1.5971
  22
1.2387
  13
-1.5262
  23
1.2387
  0
SOLID
  8
Top_Paste
  10
-1.5971
  20
1.2899
  11
-1.5262
  21
1.2899
  12
-1.5971
  22
1.2702
  13
-1.5262
  23
1.2702
  0
SOLID
  8
Top_Paste
  10
-1.5971
  20
1.3214
  11
-1.5262
  21
1.3214
  12
-1.5971
  22
1.3017
  13
-1.5262
  23
1.3017
  0
SOLID
  8
Top_Paste
  10
-1.5971
  20
1.3529
  11
-1.5262
  21
1.3529
  12
-1.5971
  22
1.3332
  13
-1.5262
  23
1.3332
  0
SOLID
  8
Top_Paste
  10
-1.5971
  20
1.3844
  11
-1.5262
  21
1.3844
  12
-1.5971
  22
1.3647
  13
-1.5262
  23
1.3647
  0
SOLID
  8
Top_Paste
  10
-1.5971
  20
1.4159
  11
-1.5262
  21
1.4159
  12
-1.5971
  22
1.3962
  13
-1.5262
  23
1.3962
  0
SOLID
  8
Top_Paste
  10
-1.6308
  20
1.5002
  11
-1.6112
  21
1.5002
  12
-1.6308
  22
1.4293
  13
-1.6112
  23
1.4293
  0
SOLID
  8
Top_Paste
  10
-1.6623
  20
1.5002
  11
-1.6427
  21
1.5002
  12
-1.6623
  22
1.4293
  13
-1.6427
  23
1.4293
  0
SOLID
  8
Top_Paste
  10
-1.6938
  20
1.5002
  11
-1.6742
  21
1.5002
  12
-1.6938
  22
1.4293
  13
-1.6742
  23
1.4293
  0
SOLID
  8
Top_Paste
  10
-1.7253
  20
1.5002
  11
-1.7057
  21
1.5002
  12
-1.7253
  22
1.4293
  13
-1.7057
  23
1.4293
  0
SOLID
  8
Top_Paste
  10
-1.7568
  20
1.5002
  11
-1.7371
  21
1.5002
  12
-1.7568
  22
1.4293
  13
-1.7371
  23
1.4293
  0
SOLID
  8
Top_Paste
  10
-1.7883
  20
1.5002
  11
-1.7686
  21
1.5002
  12
-1.7883
  22
1.4293
  13
-1.7686
  23
1.4293
  0
SOLID
  8
Top_Paste
  10
-1.8198
  20
1.5002
  11
-1.8001
  21
1.5002
  12
-1.8198
  22
1.4293
  13
-1.8001
  23
1.4293
  0
SOLID
  8
Top_Paste
  10
-1.8513
  20
1.5002
  11
-1.8316
  21
1.5002
  12
-1.8513
  22
1.4293
  13
-1.8316
  23
1.4293
  0
SOLID
  8
Top_Paste
  10
-2.5523
  20
1.051
  11
-2.3358
  21
1.051
  12
-2.5523
  22
0.9722
  13
-2.3358
  23
0.9722
  0
SOLID
  8
Top_Paste
  10
-2.1783
  20
1.051
  11
-1.9617
  21
1.051
  12
-2.1783
  22
0.9722
  13
-1.9617
  23
0.9722
  0
SOLID
  8
Top_Paste
  10
-1.7479
  20
3.4017
  11
-1.7279
  21
3.4017
  12
-1.7479
  22
3.2836
  13
-1.7279
  23
3.2836
  0
SOLID
  8
Top_Paste
  10
-1.7479
  20
3.2049
  11
-1.7279
  21
3.2049
  12
-1.7479
  22
3.0868
  13
-1.7279
  23
3.0868
  0
SOLID
  8
Top_Paste
  10
-1.7279
  20
3.9707
  11
-1.6679
  21
3.9707
  12
-1.7279
  22
3.9147
  13
-1.6679
  23
3.9147
  0
SOLID
  8
Top_Paste
  10
-1.8179
  20
3.9707
  11
-1.7579
  21
3.9707
  12
-1.8179
  22
3.9147
  13
-1.7579
  23
3.9147
  0
SOLID
  8
Top_Paste
  10
-0.8526
  20
3.9563
  11
-0.8231
  21
3.9563
  12
-0.8526
  22
3.7791
  13
-0.8231
  23
3.7791
  0
SOLID
  8
Top_Paste
  10
-0.8526
  20
3.72
  11
-0.8231
  21
3.72
  12
-0.8526
  22
3.5429
  13
-0.8231
  23
3.5429
  0
SOLID
  8
Top_Paste
  10
-0.6909
  20
3.5977
  11
-0.6349
  21
3.5977
  12
-0.6909
  22
3.5377
  13
-0.6349
  23
3.5377
  0
SOLID
  8
Top_Paste
  10
-0.6909
  20
3.5077
  11
-0.6349
  21
3.5077
  12
-0.6909
  22
3.4477
  13
-0.6349
  23
3.4477
  0
SOLID
  8
Top_Paste
  10
-1.1798
  20
0.6545
  11
-0.983
  21
0.6545
  12
-1.1798
  22
0.5561
  13
-0.983
  23
0.5561
  0
SOLID
  8
Top_Paste
  10
-0.7298
  20
0.6545
  11
-0.533
  21
0.6545
  12
-0.7298
  22
0.5561
  13
-0.533
  23
0.5561
  0
SOLID
  8
Top_Paste
  10
-0.5238
  20
0.8021
  11
-0.4638
  21
0.8021
  12
-0.5238
  22
0.7461
  13
-0.4638
  23
0.7461
  0
SOLID
  8
Top_Paste
  10
-0.4338
  20
0.8021
  11
-0.3738
  21
0.8021
  12
-0.4338
  22
0.7461
  13
-0.3738
  23
0.7461
  0
SOLID
  8
Top_Paste
  10
-0.7155
  20
2.617
  11
-0.6722
  21
2.617
  12
-0.7155
  22
2.5816
  13
-0.6722
  23
2.5816
  0
SOLID
  8
Top_Paste
  10
-0.7472
  20
2.5032
  11
-0.7078
  21
2.5032
  12
-0.7472
  22
2.4678
  13
-0.7078
  23
2.4678
  0
SOLID
  8
Top_Paste
  10
-0.6793
  20
2.5032
  11
-0.6399
  21
2.5032
  12
-0.6793
  22
2.4678
  13
-0.6399
  23
2.4678
  0
SOLID
  8
Top_Paste
  10
-2.3526
  20
2.2903
  11
-2.2601
  21
2.2903
  12
-2.3526
  22
2.2667
  13
-2.2601
  23
2.2667
  0
SOLID
  8
Top_Paste
  10
-2.3526
  20
2.2403
  11
-2.2601
  21
2.2403
  12
-2.3526
  22
2.2167
  13
-2.2601
  23
2.2167
  0
SOLID
  8
Top_Paste
  10
-2.3526
  20
2.1903
  11
-2.2601
  21
2.1903
  12
-2.3526
  22
2.1667
  13
-2.2601
  23
2.1667
  0
SOLID
  8
Top_Paste
  10
-2.3526
  20
2.1403
  11
-2.2601
  21
2.1403
  12
-2.3526
  22
2.1167
  13
-2.2601
  23
2.1167
  0
SOLID
  8
Top_Paste
  10
-2.3526
  20
2.0903
  11
-2.2601
  21
2.0903
  12
-2.3526
  22
2.0667
  13
-2.2601
  23
2.0667
  0
SOLID
  8
Top_Paste
  10
-2.3526
  20
2.0403
  11
-2.2601
  21
2.0403
  12
-2.3526
  22
2.0167
  13
-2.2601
  23
2.0167
  0
SOLID
  8
Top_Paste
  10
-2.3526
  20
1.9903
  11
-2.2601
  21
1.9903
  12
-2.3526
  22
1.9667
  13
-2.2601
  23
1.9667
  0
SOLID
  8
Top_Paste
  10
-2.3526
  20
1.9403
  11
-2.2601
  21
1.9403
  12
-2.3526
  22
1.9167
  13
-2.2601
  23
1.9167
  0
SOLID
  8
Top_Paste
  10
-1.957
  20
1.9403
  11
-1.8644
  21
1.9403
  12
-1.957
  22
1.9167
  13
-1.8644
  23
1.9167
  0
SOLID
  8
Top_Paste
  10
-1.957
  20
1.9903
  11
-1.8644
  21
1.9903
  12
-1.957
  22
1.9667
  13
-1.8644
  23
1.9667
  0
SOLID
  8
Top_Paste
  10
-1.957
  20
2.0403
  11
-1.8644
  21
2.0403
  12
-1.957
  22
2.0167
  13
-1.8644
  23
2.0167
  0
SOLID
  8
Top_Paste
  10
-1.957
  20
2.0903
  11
-1.8644
  21
2.0903
  12
-1.957
  22
2.0667
  13
-1.8644
  23
2.0667
  0
SOLID
  8
Top_Paste
  10
-1.957
  20
2.1403
  11
-1.8644
  21
2.1403
  12
-1.957
  22
2.1167
  13
-1.8644
  23
2.1167
  0
SOLID
  8
Top_Paste
  10
-1.957
  20
2.1903
  11
-1.8644
  21
2.1903
  12
-1.957
  22
2.1667
  13
-1.8644
  23
2.1667
  0
SOLID
  8
Top_Paste
  10
-1.957
  20
2.2403
  11
-1.8644
  21
2.2403
  12
-1.957
  22
2.2167
  13
-1.8644
  23
2.2167
  0
SOLID
  8
Top_Paste
  10
-1.957
  20
2.2903
  11
-1.8644
  21
2.2903
  12
-1.957
  22
2.2667
  13
-1.8644
  23
2.2667
  0
SOLID
  8
Top_Paste
  10
-2.0053
  20
2.4335
  11
-1.9453
  21
2.4335
  12
-2.0053
  22
2.3775
  13
-1.9453
  23
2.3775
  0
SOLID
  8
Top_Paste
  10
-2.0953
  20
2.4335
  11
-2.0353
  21
2.4335
  12
-2.0953
  22
2.3775
  13
-2.0353
  23
2.3775
  0
SOLID
  8
Top_Paste
  10
-2.4908
  20
2.3105
  11
-2.4348
  21
2.3105
  12
-2.4908
  22
2.2505
  13
-2.4348
  23
2.2505
  0
SOLID
  8
Top_Paste
  10
-2.4908
  20
2.2205
  11
-2.4348
  21
2.2205
  12
-2.4908
  22
2.1605
  13
-2.4348
  23
2.1605
  0
SOLID
  8
Top_Paste
  10
-2.4908
  20
2.1355
  11
-2.4348
  21
2.1355
  12
-2.4908
  22
2.0755
  13
-2.4348
  23
2.0755
  0
SOLID
  8
Top_Paste
  10
-2.4908
  20
2.0455
  11
-2.4348
  21
2.0455
  12
-2.4908
  22
1.9855
  13
-2.4348
  23
1.9855
  0
SOLID
  8
Top_Paste
  10
-2.1052
  20
1.8647
  11
-2.0452
  21
1.8647
  12
-2.1052
  22
1.8087
  13
-2.0452
  23
1.8087
  0
SOLID
  8
Top_Paste
  10
-2.1952
  20
1.8647
  11
-2.1352
  21
1.8647
  12
-2.1952
  22
1.8087
  13
-2.1352
  23
1.8087
  0
SOLID
  8
Top_Paste
  10
-2.2803
  20
2.4335
  11
-2.2203
  21
2.4335
  12
-2.2803
  22
2.3775
  13
-2.2203
  23
2.3775
  0
SOLID
  8
Top_Paste
  10
-2.1903
  20
2.4335
  11
-2.1303
  21
2.4335
  12
-2.1903
  22
2.3775
  13
-2.1303
  23
2.3775
  0
SOLID
  8
Top_Paste
  10
-2.9703
  20
2.0705
  11
-2.8679
  21
2.0705
  12
-2.9703
  22
2.0154
  13
-2.8679
  23
2.0154
  0
SOLID
  8
Top_Paste
  10
-2.9703
  20
1.9288
  11
-2.8679
  21
1.9288
  12
-2.9703
  22
1.8737
  13
-2.8679
  23
1.8737
  0
SOLID
  8
Top_Paste
  10
-2.734
  20
1.9288
  11
-2.6317
  21
1.9288
  12
-2.734
  22
1.8737
  13
-2.6317
  23
1.8737
  0
SOLID
  8
Top_Paste
  10
-2.734
  20
2.0705
  11
-2.6317
  21
2.0705
  12
-2.734
  22
2.0154
  13
-2.6317
  23
2.0154
  0
SOLID
  8
Top_Paste
  10
-3.0928
  20
2.071
  11
-3.0328
  21
2.071
  12
-3.0928
  22
2.015
  13
-3.0328
  23
2.015
  0
SOLID
  8
Top_Paste
  10
-3.1828
  20
2.071
  11
-3.1228
  21
2.071
  12
-3.1828
  22
2.015
  13
-3.1228
  23
2.015
  0
SOLID
  8
Top_Paste
  10
-3.1759
  20
1.9225
  11
-3.1248
  21
1.9225
  12
-3.1759
  22
1.8634
  13
-3.1248
  23
1.8634
  0
SOLID
  8
Top_Paste
  10
-3.1011
  20
1.9225
  11
-3.05
  21
1.9225
  12
-3.1011
  22
1.8634
  13
-3.05
  23
1.8634
  0
SOLID
  8
Top_Paste
  10
-2.419
  20
1.2696
  11
-2.359
  21
1.2696
  12
-2.419
  22
1.2136
  13
-2.359
  23
1.2136
  0
SOLID
  8
Top_Paste
  10
-2.329
  20
1.2696
  11
-2.269
  21
1.2696
  12
-2.329
  22
1.2136
  13
-2.269
  23
1.2136
  0
SOLID
  8
Top_Paste
  10
-1.453
  20
1.2606
  11
-1.3971
  21
1.2606
  12
-1.453
  22
1.2006
  13
-1.3971
  23
1.2006
  0
SOLID
  8
Top_Paste
  10
-1.453
  20
1.3506
  11
-1.3971
  21
1.3506
  12
-1.453
  22
1.2906
  13
-1.3971
  23
1.2906
  0
SOLID
  8
Top_Paste
  10
-2.3831
  20
3.188
  11
-2.2926
  21
3.188
  12
-2.3831
  22
3.0974
  13
-2.2926
  23
3.0974
  0
SOLID
  8
Top_Paste
  10
-2.3831
  20
3.3651
  11
-2.2926
  21
3.3651
  12
-2.3831
  22
3.2746
  13
-2.2926
  23
3.2746
  0
SOLID
  8
Top_Paste
  10
-1.4969
  20
3.8512
  11
-1.3789
  21
3.8512
  12
-1.4969
  22
3.6342
  13
-1.3789
  23
3.6342
  0
SOLID
  8
Top_Paste
  10
-1.0931
  20
3.8512
  11
-0.9751
  21
3.8512
  12
-1.0931
  22
3.6342
  13
-0.9751
  23
3.6342
  0
SOLID
  8
Top_Paste
  10
-1.9813
  20
3.8545
  11
-1.8947
  21
3.8545
  12
-1.9813
  22
3.8309
  13
-1.8947
  23
3.8309
  0
SOLID
  8
Top_Paste
  10
-1.9813
  20
3.8045
  11
-1.8947
  21
3.8045
  12
-1.9813
  22
3.7809
  13
-1.8947
  23
3.7809
  0
SOLID
  8
Top_Paste
  10
-1.9813
  20
3.7545
  11
-1.8947
  21
3.7545
  12
-1.9813
  22
3.7309
  13
-1.8947
  23
3.7309
  0
SOLID
  8
Top_Paste
  10
-1.9813
  20
3.7045
  11
-1.8947
  21
3.7045
  12
-1.9813
  22
3.6809
  13
-1.8947
  23
3.6809
  0
SOLID
  8
Top_Paste
  10
-1.9813
  20
3.6545
  11
-1.8947
  21
3.6545
  12
-1.9813
  22
3.6309
  13
-1.8947
  23
3.6309
  0
SOLID
  8
Top_Paste
  10
-1.9813
  20
3.6045
  11
-1.8947
  21
3.6045
  12
-1.9813
  22
3.5809
  13
-1.8947
  23
3.5809
  0
SOLID
  8
Top_Paste
  10
-1.9813
  20
3.5545
  11
-1.8947
  21
3.5545
  12
-1.9813
  22
3.5309
  13
-1.8947
  23
3.5309
  0
SOLID
  8
Top_Paste
  10
-1.6191
  20
3.5545
  11
-1.5325
  21
3.5545
  12
-1.6191
  22
3.5309
  13
-1.5325
  23
3.5309
  0
SOLID
  8
Top_Paste
  10
-1.6191
  20
3.6045
  11
-1.5325
  21
3.6045
  12
-1.6191
  22
3.5809
  13
-1.5325
  23
3.5809
  0
SOLID
  8
Top_Paste
  10
-1.6191
  20
3.6545
  11
-1.5325
  21
3.6545
  12
-1.6191
  22
3.6309
  13
-1.5325
  23
3.6309
  0
SOLID
  8
Top_Paste
  10
-1.6191
  20
3.7045
  11
-1.5325
  21
3.7045
  12
-1.6191
  22
3.6809
  13
-1.5325
  23
3.6809
  0
SOLID
  8
Top_Paste
  10
-1.6191
  20
3.7545
  11
-1.5325
  21
3.7545
  12
-1.6191
  22
3.7309
  13
-1.5325
  23
3.7309
  0
SOLID
  8
Top_Paste
  10
-1.6191
  20
3.8045
  11
-1.5325
  21
3.8045
  12
-1.6191
  22
3.7809
  13
-1.5325
  23
3.7809
  0
SOLID
  8
Top_Paste
  10
-1.6191
  20
3.8545
  11
-1.5325
  21
3.8545
  12
-1.6191
  22
3.8309
  13
-1.5325
  23
3.8309
  0
SOLID
  8
Top_Paste
  10
-1.5743
  20
3.3929
  11
-1.5015
  21
3.3929
  12
-1.5743
  22
3.2925
  13
-1.5015
  23
3.2925
  0
SOLID
  8
Top_Paste
  10
-1.5743
  20
3.2295
  11
-1.5015
  21
3.2295
  12
-1.5743
  22
3.1291
  13
-1.5015
  23
3.1291
  0
SOLID
  8
Top_Paste
  10
-0.8526
  20
3.2813
  11
-0.8231
  21
3.2813
  12
-0.8526
  22
3.1041
  13
-0.8231
  23
3.1041
  0
SOLID
  8
Top_Paste
  10
-0.8526
  20
3.5175
  11
-0.8231
  21
3.5175
  12
-0.8526
  22
3.3403
  13
-0.8231
  23
3.3403
  0
SOLID
  8
Top_Paste
  10
-1.3729
  20
3.4017
  11
-1.3529
  21
3.4017
  12
-1.3729
  22
3.2836
  13
-1.3529
  23
3.2836
  0
SOLID
  8
Top_Paste
  10
-1.3729
  20
3.2049
  11
-1.3529
  21
3.2049
  12
-1.3729
  22
3.0868
  13
-1.3529
  23
3.0868
  0
SOLID
  8
Top_Paste
  10
-1.9479
  20
3.4017
  11
-1.9279
  21
3.4017
  12
-1.9479
  22
3.2836
  13
-1.9279
  23
3.2836
  0
SOLID
  8
Top_Paste
  10
-1.9479
  20
3.2049
  11
-1.9279
  21
3.2049
  12
-1.9479
  22
3.0868
  13
-1.9279
  23
3.0868
  0
SOLID
  8
Top_Paste
  10
-2.1479
  20
3.4017
  11
-2.1279
  21
3.4017
  12
-2.1479
  22
3.2836
  13
-2.1279
  23
3.2836
  0
SOLID
  8
Top_Paste
  10
-2.1479
  20
3.2049
  11
-2.1279
  21
3.2049
  12
-2.1479
  22
3.0868
  13
-2.1279
  23
3.0868
  0
SOLID
  8
Top_Paste
  10
-1.1729
  20
3.4017
  11
-1.1529
  21
3.4017
  12
-1.1729
  22
3.2836
  13
-1.1529
  23
3.2836
  0
SOLID
  8
Top_Paste
  10
-1.1729
  20
3.2049
  11
-1.1529
  21
3.2049
  12
-1.1729
  22
3.0868
  13
-1.1529
  23
3.0868
  0
SOLID
  8
Top_Paste
  10
-2.474
  20
0.8833
  11
-2.414
  21
0.8833
  12
-2.474
  22
0.8273
  13
-2.414
  23
0.8273
  0
SOLID
  8
Top_Paste
  10
-2.384
  20
0.8833
  11
-2.324
  21
0.8833
  12
-2.384
  22
0.8273
  13
-2.324
  23
0.8273
  0
SOLID
  8
Top_Paste
  10
-2.1115
  20
0.8833
  11
-2.0515
  21
0.8833
  12
-2.1115
  22
0.8273
  13
-2.0515
  23
0.8273
  0
SOLID
  8
Top_Paste
  10
-2.2015
  20
0.8833
  11
-2.1415
  21
0.8833
  12
-2.2015
  22
0.8273
  13
-2.1415
  23
0.8273
  0
SOLID
  8
Top_Paste
  10
-2.8699
  20
0.8786
  11
-2.8187
  21
0.8786
  12
-2.8699
  22
0.8195
  13
-2.8187
  23
0.8195
  0
SOLID
  8
Top_Paste
  10
-2.9447
  20
0.8786
  11
-2.8935
  21
0.8786
  12
-2.9447
  22
0.8195
  13
-2.8935
  23
0.8195
  0
SOLID
  8
Top_Paste
  10
-2.8699
  20
0.7786
  11
-2.8187
  21
0.7786
  12
-2.8699
  22
0.7195
  13
-2.8187
  23
0.7195
  0
SOLID
  8
Top_Paste
  10
-2.9447
  20
0.7786
  11
-2.8935
  21
0.7786
  12
-2.9447
  22
0.7195
  13
-2.8935
  23
0.7195
  0
SOLID
  8
Top_Paste
  10
-3.0791
  20
0.7391
  11
-3.0091
  21
0.7391
  12
-3.0791
  22
0.7091
  13
-3.0091
  23
0.7091
  0
POLYLINE
  8
Top_Paste
  6
CONTINUOUS
  66
1
  70
0
  40
0.015
  41
0.015
  0
VERTEX
  8
Top_Paste
  10
-3.2136
  20
0.7241
  42
1
  0
VERTEX
  8
Top_Paste
  10
-3.1986
  20
0.7241
  42
1
  0
VERTEX
  8
Top_Paste
  10
-3.2136
  20
0.7241
  42
1
  0
SEQEND
  0
POLYLINE
  8
Top_Paste
  6
CONTINUOUS
  66
1
  70
0
  40
0.015
  41
0.015
  0
VERTEX
  8
Top_Paste
  10
-3.1736
  20
0.7241
  42
1
  0
VERTEX
  8
Top_Paste
  10
-3.1586
  20
0.7241
  42
1
  0
VERTEX
  8
Top_Paste
  10
-3.1736
  20
0.7241
  42
1
  0
SEQEND
  0
SOLID
  8
Top_Paste
  10
-3.2061
  20
0.7391
  11
-3.1661
  21
0.7391
  12
-3.2061
  22
0.7091
  13
-3.1661
  23
0.7091
  0
SOLID
  8
Top_Paste
  10
-3.0791
  20
0.8641
  11
-3.0091
  21
0.8641
  12
-3.0791
  22
0.8341
  13
-3.0091
  23
0.8341
  0
POLYLINE
  8
Top_Paste
  6
CONTINUOUS
  66
1
  70
0
  40
0.015
  41
0.015
  0
VERTEX
  8
Top_Paste
  10
-3.2136
  20
0.8491
  42
1
  0
VERTEX
  8
Top_Paste
  10
-3.1986
  20
0.8491
  42
1
  0
VERTEX
  8
Top_Paste
  10
-3.2136
  20
0.8491
  42
1
  0
SEQEND
  0
POLYLINE
  8
Top_Paste
  6
CONTINUOUS
  66
1
  70
0
  40
0.015
  41
0.015
  0
VERTEX
  8
Top_Paste
  10
-3.1736
  20
0.8491
  42
1
  0
VERTEX
  8
Top_Paste
  10
-3.1586
  20
0.8491
  42
1
  0
VERTEX
  8
Top_Paste
  10
-3.1736
  20
0.8491
  42
1
  0
SEQEND
  0
SOLID
  8
Top_Paste
  10
-3.2061
  20
0.8641
  11
-3.1661
  21
0.8641
  12
-3.2061
  22
0.8341
  13
-3.1661
  23
0.8341
  0
SOLID
  8
Top_Paste
  10
-2.3743
  20
3.7179
  11
-2.3015
  21
3.7179
  12
-2.3743
  22
3.6175
  13
-2.3015
  23
3.6175
  0
SOLID
  8
Top_Paste
  10
-2.3743
  20
3.5545
  11
-2.3015
  21
3.5545
  12
-2.3743
  22
3.4541
  13
-2.3015
  23
3.4541
  0
SOLID
  8
Top_Paste
  10
-2.2885
  20
3.9222
  11
-2.2373
  21
3.9222
  12
-2.2885
  22
3.8632
  13
-2.2373
  23
3.8632
  0
SOLID
  8
Top_Paste
  10
-2.3633
  20
3.9222
  11
-2.3121
  21
3.9222
  12
-2.3633
  22
3.8632
  13
-2.3121
  23
3.8632
  0
SOLID
  8
Top_Paste
  10
-2.1279
  20
3.6277
  11
-2.0979
  21
3.6277
  12
-2.1279
  22
3.5577
  13
-2.0979
  23
3.5577
  0
POLYLINE
  8
Top_Paste
  6
CONTINUOUS
  66
1
  70
0
  40
0.015
  41
0.015
  0
VERTEX
  8
Top_Paste
  10
-2.1204
  20
3.7547
  42
1
  0
VERTEX
  8
Top_Paste
  10
-2.1054
  20
3.7547
  42
1
  0
VERTEX
  8
Top_Paste
  10
-2.1204
  20
3.7547
  42
1
  0
SEQEND
  0
POLYLINE
  8
Top_Paste
  6
CONTINUOUS
  66
1
  70
0
  40
0.015
  41
0.015
  0
VERTEX
  8
Top_Paste
  10
-2.1204
  20
3.7147
  42
1
  0
VERTEX
  8
Top_Paste
  10
-2.1054
  20
3.7147
  42
1
  0
VERTEX
  8
Top_Paste
  10
-2.1204
  20
3.7147
  42
1
  0
SEQEND
  0
SOLID
  8
Top_Paste
  10
-2.1279
  20
3.7547
  11
-2.0979
  21
3.7547
  12
-2.1279
  22
3.7147
  13
-2.0979
  23
3.7147
  0
SOLID
  8
Top_Paste
  10
-0.9632
  20
2.5163
  11
-0.912
  21
2.5163
  12
-0.9632
  22
2.4572
  13
-0.912
  23
2.4572
  0
SOLID
  8
Top_Paste
  10
-0.8884
  20
2.5163
  11
-0.8372
  21
2.5163
  12
-0.8884
  22
2.4572
  13
-0.8372
  23
2.4572
  0
SOLID
  8
Top_Paste
  10
-1.132
  20
2.5163
  11
-1.0808
  21
2.5163
  12
-1.132
  22
2.4572
  13
-1.0808
  23
2.4572
  0
SOLID
  8
Top_Paste
  10
-1.0572
  20
2.5163
  11
-1.006
  21
2.5163
  12
-1.0572
  22
2.4572
  13
-1.006
  23
2.4572
  0
SOLID
  8
Top_Paste
  10
-0.8614
  20
1.9522
  11
-0.8014
  21
1.9522
  12
-0.8614
  22
1.8962
  13
-0.8014
  23
1.8962
  0
SOLID
  8
Top_Paste
  10
-0.7714
  20
1.9522
  11
-0.7114
  21
1.9522
  12
-0.7714
  22
1.8962
  13
-0.7114
  23
1.8962
  0
SOLID
  8
Top_Paste
  10
1.214
  20
1.4152
  11
1.2848
  21
1.4152
  12
1.214
  22
1.3956
  13
1.2848
  23
1.3956
  0
SOLID
  8
Top_Paste
  10
1.214
  20
1.3837
  11
1.2848
  21
1.3837
  12
1.214
  22
1.3641
  13
1.2848
  23
1.3641
  0
SOLID
  8
Top_Paste
  10
1.214
  20
1.3522
  11
1.2848
  21
1.3522
  12
1.214
  22
1.3326
  13
1.2848
  23
1.3326
  0
SOLID
  8
Top_Paste
  10
1.214
  20
1.3208
  11
1.2848
  21
1.3208
  12
1.214
  22
1.3011
  13
1.2848
  23
1.3011
  0
SOLID
  8
Top_Paste
  10
1.214
  20
1.2893
  11
1.2848
  21
1.2893
  12
1.214
  22
1.2696
  13
1.2848
  23
1.2696
  0
SOLID
  8
Top_Paste
  10
1.214
  20
1.2578
  11
1.2848
  21
1.2578
  12
1.214
  22
1.2381
  13
1.2848
  23
1.2381
  0
SOLID
  8
Top_Paste
  10
1.214
  20
1.2263
  11
1.2848
  21
1.2263
  12
1.214
  22
1.2066
  13
1.2848
  23
1.2066
  0
SOLID
  8
Top_Paste
  10
1.214
  20
1.1948
  11
1.2848
  21
1.1948
  12
1.214
  22
1.1751
  13
1.2848
  23
1.1751
  0
SOLID
  8
Top_Paste
  10
1.2989
  20
1.1616
  11
1.3186
  21
1.1616
  12
1.2989
  22
1.0908
  13
1.3186
  23
1.0908
  0
SOLID
  8
Top_Paste
  10
1.3304
  20
1.1616
  11
1.3501
  21
1.1616
  12
1.3304
  22
1.0908
  13
1.3501
  23
1.0908
  0
SOLID
  8
Top_Paste
  10
1.3619
  20
1.1616
  11
1.3816
  21
1.1616
  12
1.3619
  22
1.0908
  13
1.3816
  23
1.0908
  0
SOLID
  8
Top_Paste
  10
1.3934
  20
1.1616
  11
1.4131
  21
1.1616
  12
1.3934
  22
1.0908
  13
1.4131
  23
1.0908
  0
SOLID
  8
Top_Paste
  10
1.4249
  20
1.1616
  11
1.4446
  21
1.1616
  12
1.4249
  22
1.0908
  13
1.4446
  23
1.0908
  0
SOLID
  8
Top_Paste
  10
1.4564
  20
1.1616
  11
1.4761
  21
1.1616
  12
1.4564
  22
1.0908
  13
1.4761
  23
1.0908
  0
SOLID
  8
Top_Paste
  10
1.4879
  20
1.1616
  11
1.5076
  21
1.1616
  12
1.4879
  22
1.0908
  13
1.5076
  23
1.0908
  0
SOLID
  8
Top_Paste
  10
1.5194
  20
1.1616
  11
1.5391
  21
1.1616
  12
1.5194
  22
1.0908
  13
1.5391
  23
1.0908
  0
SOLID
  8
Top_Paste
  10
1.5525
  20
1.1954
  11
1.6234
  21
1.1954
  12
1.5525
  22
1.1757
  13
1.6234
  23
1.1757
  0
SOLID
  8
Top_Paste
  10
1.5525
  20
1.2269
  11
1.6234
  21
1.2269
  12
1.5525
  22
1.2072
  13
1.6234
  23
1.2072
  0
SOLID
  8
Top_Paste
  10
1.5525
  20
1.2584
  11
1.6234
  21
1.2584
  12
1.5525
  22
1.2387
  13
1.6234
  23
1.2387
  0
SOLID
  8
Top_Paste
  10
1.5525
  20
1.2899
  11
1.6234
  21
1.2899
  12
1.5525
  22
1.2702
  13
1.6234
  23
1.2702
  0
SOLID
  8
Top_Paste
  10
1.5525
  20
1.3214
  11
1.6234
  21
1.3214
  12
1.5525
  22
1.3017
  13
1.6234
  23
1.3017
  0
SOLID
  8
Top_Paste
  10
1.5525
  20
1.3529
  11
1.6234
  21
1.3529
  12
1.5525
  22
1.3332
  13
1.6234
  23
1.3332
  0
SOLID
  8
Top_Paste
  10
1.5525
  20
1.3844
  11
1.6234
  21
1.3844
  12
1.5525
  22
1.3647
  13
1.6234
  23
1.3647
  0
SOLID
  8
Top_Paste
  10
1.5525
  20
1.4159
  11
1.6234
  21
1.4159
  12
1.5525
  22
1.3962
  13
1.6234
  23
1.3962
  0
SOLID
  8
Top_Paste
  10
1.5188
  20
1.5002
  11
1.5384
  21
1.5002
  12
1.5188
  22
1.4293
  13
1.5384
  23
1.4293
  0
SOLID
  8
Top_Paste
  10
1.4873
  20
1.5002
  11
1.5069
  21
1.5002
  12
1.4873
  22
1.4293
  13
1.5069
  23
1.4293
  0
SOLID
  8
Top_Paste
  10
1.4558
  20
1.5002
  11
1.4755
  21
1.5002
  12
1.4558
  22
1.4293
  13
1.4755
  23
1.4293
  0
SOLID
  8
Top_Paste
  10
1.4243
  20
1.5002
  11
1.444
  21
1.5002
  12
1.4243
  22
1.4293
  13
1.444
  23
1.4293
  0
SOLID
  8
Top_Paste
  10
1.3928
  20
1.5002
  11
1.4125
  21
1.5002
  12
1.3928
  22
1.4293
  13
1.4125
  23
1.4293
  0
SOLID
  8
Top_Paste
  10
1.3613
  20
1.5002
  11
1.381
  21
1.5002
  12
1.3613
  22
1.4293
  13
1.381
  23
1.4293
  0
SOLID
  8
Top_Paste
  10
1.3298
  20
1.5002
  11
1.3495
  21
1.5002
  12
1.3298
  22
1.4293
  13
1.3495
  23
1.4293
  0
SOLID
  8
Top_Paste
  10
1.2983
  20
1.5002
  11
1.318
  21
1.5002
  12
1.2983
  22
1.4293
  13
1.318
  23
1.4293
  0
SOLID
  8
Top_Paste
  10
0.5973
  20
1.051
  11
0.8138
  21
1.051
  12
0.5973
  22
0.9722
  13
0.8138
  23
0.9722
  0
SOLID
  8
Top_Paste
  10
0.9713
  20
1.051
  11
1.1879
  21
1.051
  12
0.9713
  22
0.9722
  13
1.1879
  23
0.9722
  0
SOLID
  8
Top_Paste
  10
1.4017
  20
3.4017
  11
1.4217
  21
3.4017
  12
1.4017
  22
3.2836
  13
1.4217
  23
3.2836
  0
SOLID
  8
Top_Paste
  10
1.4017
  20
3.2049
  11
1.4217
  21
3.2049
  12
1.4017
  22
3.0868
  13
1.4217
  23
3.0868
  0
SOLID
  8
Top_Paste
  10
1.4217
  20
3.9707
  11
1.4817
  21
3.9707
  12
1.4217
  22
3.9147
  13
1.4817
  23
3.9147
  0
SOLID
  8
Top_Paste
  10
1.3317
  20
3.9707
  11
1.3917
  21
3.9707
  12
1.3317
  22
3.9147
  13
1.3917
  23
3.9147
  0
SOLID
  8
Top_Paste
  10
2.297
  20
3.9563
  11
2.3265
  21
3.9563
  12
2.297
  22
3.7791
  13
2.3265
  23
3.7791
  0
SOLID
  8
Top_Paste
  10
2.297
  20
3.72
  11
2.3265
  21
3.72
  12
2.297
  22
3.5429
  13
2.3265
  23
3.5429
  0
SOLID
  8
Top_Paste
  10
2.4587
  20
3.5977
  11
2.5147
  21
3.5977
  12
2.4587
  22
3.5377
  13
2.5147
  23
3.5377
  0
SOLID
  8
Top_Paste
  10
2.4587
  20
3.5077
  11
2.5147
  21
3.5077
  12
2.4587
  22
3.4477
  13
2.5147
  23
3.4477
  0
SOLID
  8
Top_Paste
  10
1.9698
  20
0.6545
  11
2.1666
  21
0.6545
  12
1.9698
  22
0.5561
  13
2.1666
  23
0.5561
  0
SOLID
  8
Top_Paste
  10
2.4198
  20
0.6545
  11
2.6166
  21
0.6545
  12
2.4198
  22
0.5561
  13
2.6166
  23
0.5561
  0
SOLID
  8
Top_Paste
  10
2.6258
  20
0.8021
  11
2.6858
  21
0.8021
  12
2.6258
  22
0.7461
  13
2.6858
  23
0.7461
  0
SOLID
  8
Top_Paste
  10
2.7158
  20
0.8021
  11
2.7758
  21
0.8021
  12
2.7158
  22
0.7461
  13
2.7758
  23
0.7461
  0
SOLID
  8
Top_Paste
  10
2.4341
  20
2.617
  11
2.4774
  21
2.617
  12
2.4341
  22
2.5816
  13
2.4774
  23
2.5816
  0
SOLID
  8
Top_Paste
  10
2.4024
  20
2.5032
  11
2.4418
  21
2.5032
  12
2.4024
  22
2.4678
  13
2.4418
  23
2.4678
  0
SOLID
  8
Top_Paste
  10
2.4703
  20
2.5032
  11
2.5097
  21
2.5032
  12
2.4703
  22
2.4678
  13
2.5097
  23
2.4678
  0
SOLID
  8
Top_Paste
  10
0.797
  20
2.2903
  11
0.8895
  21
2.2903
  12
0.797
  22
2.2667
  13
0.8895
  23
2.2667
  0
SOLID
  8
Top_Paste
  10
0.797
  20
2.2403
  11
0.8895
  21
2.2403
  12
0.797
  22
2.2167
  13
0.8895
  23
2.2167
  0
SOLID
  8
Top_Paste
  10
0.797
  20
2.1903
  11
0.8895
  21
2.1903
  12
0.797
  22
2.1667
  13
0.8895
  23
2.1667
  0
SOLID
  8
Top_Paste
  10
0.797
  20
2.1403
  11
0.8895
  21
2.1403
  12
0.797
  22
2.1167
  13
0.8895
  23
2.1167
  0
SOLID
  8
Top_Paste
  10
0.797
  20
2.0903
  11
0.8895
  21
2.0903
  12
0.797
  22
2.0667
  13
0.8895
  23
2.0667
  0
SOLID
  8
Top_Paste
  10
0.797
  20
2.0403
  11
0.8895
  21
2.0403
  12
0.797
  22
2.0167
  13
0.8895
  23
2.0167
  0
SOLID
  8
Top_Paste
  10
0.797
  20
1.9903
  11
0.8895
  21
1.9903
  12
0.797
  22
1.9667
  13
0.8895
  23
1.9667
  0
SOLID
  8
Top_Paste
  10
0.797
  20
1.9403
  11
0.8895
  21
1.9403
  12
0.797
  22
1.9167
  13
0.8895
  23
1.9167
  0
SOLID
  8
Top_Paste
  10
1.1926
  20
1.9403
  11
1.2852
  21
1.9403
  12
1.1926
  22
1.9167
  13
1.2852
  23
1.9167
  0
SOLID
  8
Top_Paste
  10
1.1926
  20
1.9903
  11
1.2852
  21
1.9903
  12
1.1926
  22
1.9667
  13
1.2852
  23
1.9667
  0
SOLID
  8
Top_Paste
  10
1.1926
  20
2.0403
  11
1.2852
  21
2.0403
  12
1.1926
  22
2.0167
  13
1.2852
  23
2.0167
  0
SOLID
  8
Top_Paste
  10
1.1926
  20
2.0903
  11
1.2852
  21
2.0903
  12
1.1926
  22
2.0667
  13
1.2852
  23
2.0667
  0
SOLID
  8
Top_Paste
  10
1.1926
  20
2.1403
  11
1.2852
  21
2.1403
  12
1.1926
  22
2.1167
  13
1.2852
  23
2.1167
  0
SOLID
  8
Top_Paste
  10
1.1926
  20
2.1903
  11
1.2852
  21
2.1903
  12
1.1926
  22
2.1667
  13
1.2852
  23
2.1667
  0
SOLID
  8
Top_Paste
  10
1.1926
  20
2.2403
  11
1.2852
  21
2.2403
  12
1.1926
  22
2.2167
  13
1.2852
  23
2.2167
  0
SOLID
  8
Top_Paste
  10
1.1926
  20
2.2903
  11
1.2852
  21
2.2903
  12
1.1926
  22
2.2667
  13
1.2852
  23
2.2667
  0
SOLID
  8
Top_Paste
  10
1.1444
  20
2.4335
  11
1.2044
  21
2.4335
  12
1.1444
  22
2.3775
  13
1.2044
  23
2.3775
  0
SOLID
  8
Top_Paste
  10
1.0544
  20
2.4335
  11
1.1144
  21
2.4335
  12
1.0544
  22
2.3775
  13
1.1144
  23
2.3775
  0
SOLID
  8
Top_Paste
  10
0.6588
  20
2.3105
  11
0.7148
  21
2.3105
  12
0.6588
  22
2.2505
  13
0.7148
  23
2.2505
  0
SOLID
  8
Top_Paste
  10
0.6588
  20
2.2205
  11
0.7148
  21
2.2205
  12
0.6588
  22
2.1605
  13
0.7148
  23
2.1605
  0
SOLID
  8
Top_Paste
  10
0.6588
  20
2.1355
  11
0.7148
  21
2.1355
  12
0.6588
  22
2.0755
  13
0.7148
  23
2.0755
  0
SOLID
  8
Top_Paste
  10
0.6588
  20
2.0455
  11
0.7148
  21
2.0455
  12
0.6588
  22
1.9855
  13
0.7148
  23
1.9855
  0
SOLID
  8
Top_Paste
  10
1.0444
  20
1.8647
  11
1.1044
  21
1.8647
  12
1.0444
  22
1.8087
  13
1.1044
  23
1.8087
  0
SOLID
  8
Top_Paste
  10
0.9544
  20
1.8647
  11
1.0144
  21
1.8647
  12
0.9544
  22
1.8087
  13
1.0144
  23
1.8087
  0
SOLID
  8
Top_Paste
  10
0.8694
  20
2.4335
  11
0.9294
  21
2.4335
  12
0.8694
  22
2.3775
  13
0.9294
  23
2.3775
  0
SOLID
  8
Top_Paste
  10
0.9594
  20
2.4335
  11
1.0194
  21
2.4335
  12
0.9594
  22
2.3775
  13
1.0194
  23
2.3775
  0
SOLID
  8
Top_Paste
  10
0.1794
  20
2.0705
  11
0.2817
  21
2.0705
  12
0.1794
  22
2.0154
  13
0.2817
  23
2.0154
  0
SOLID
  8
Top_Paste
  10
0.1794
  20
1.9288
  11
0.2817
  21
1.9288
  12
0.1794
  22
1.8737
  13
0.2817
  23
1.8737
  0
SOLID
  8
Top_Paste
  10
0.4156
  20
1.9288
  11
0.5179
  21
1.9288
  12
0.4156
  22
1.8737
  13
0.5179
  23
1.8737
  0
SOLID
  8
Top_Paste
  10
0.4156
  20
2.0705
  11
0.5179
  21
2.0705
  12
0.4156
  22
2.0154
  13
0.5179
  23
2.0154
  0
SOLID
  8
Top_Paste
  10
0.0568
  20
2.071
  11
0.1168
  21
2.071
  12
0.0568
  22
2.015
  13
0.1168
  23
2.015
  0
SOLID
  8
Top_Paste
  10
-0.0332
  20
2.071
  11
0.0268
  21
2.071
  12
-0.0332
  22
2.015
  13
0.0268
  23
2.015
  0
SOLID
  8
Top_Paste
  10
-0.0263
  20
1.9225
  11
0.0248
  21
1.9225
  12
-0.0263
  22
1.8634
  13
0.0248
  23
1.8634
  0
SOLID
  8
Top_Paste
  10
0.0485
  20
1.9225
  11
0.0997
  21
1.9225
  12
0.0485
  22
1.8634
  13
0.0997
  23
1.8634
  0
SOLID
  8
Top_Paste
  10
0.7306
  20
1.2696
  11
0.7906
  21
1.2696
  12
0.7306
  22
1.2136
  13
0.7906
  23
1.2136
  0
SOLID
  8
Top_Paste
  10
0.8206
  20
1.2696
  11
0.8806
  21
1.2696
  12
0.8206
  22
1.2136
  13
0.8806
  23
1.2136
  0
SOLID
  8
Top_Paste
  10
1.6966
  20
1.2606
  11
1.7526
  21
1.2606
  12
1.6966
  22
1.2006
  13
1.7526
  23
1.2006
  0
SOLID
  8
Top_Paste
  10
1.6966
  20
1.3506
  11
1.7526
  21
1.3506
  12
1.6966
  22
1.2906
  13
1.7526
  23
1.2906
  0
SOLID
  8
Top_Paste
  10
0.7665
  20
3.188
  11
0.857
  21
3.188
  12
0.7665
  22
3.0974
  13
0.857
  23
3.0974
  0
SOLID
  8
Top_Paste
  10
0.7665
  20
3.3651
  11
0.857
  21
3.3651
  12
0.7665
  22
3.2746
  13
0.857
  23
3.2746
  0
SOLID
  8
Top_Paste
  10
1.6527
  20
3.8512
  11
1.7707
  21
3.8512
  12
1.6527
  22
3.6342
  13
1.7707
  23
3.6342
  0
SOLID
  8
Top_Paste
  10
2.0565
  20
3.8512
  11
2.1745
  21
3.8512
  12
2.0565
  22
3.6342
  13
2.1745
  23
3.6342
  0
SOLID
  8
Top_Paste
  10
1.1683
  20
3.8545
  11
1.2549
  21
3.8545
  12
1.1683
  22
3.8309
  13
1.2549
  23
3.8309
  0
SOLID
  8
Top_Paste
  10
1.1683
  20
3.8045
  11
1.2549
  21
3.8045
  12
1.1683
  22
3.7809
  13
1.2549
  23
3.7809
  0
SOLID
  8
Top_Paste
  10
1.1683
  20
3.7545
  11
1.2549
  21
3.7545
  12
1.1683
  22
3.7309
  13
1.2549
  23
3.7309
  0
SOLID
  8
Top_Paste
  10
1.1683
  20
3.7045
  11
1.2549
  21
3.7045
  12
1.1683
  22
3.6809
  13
1.2549
  23
3.6809
  0
SOLID
  8
Top_Paste
  10
1.1683
  20
3.6545
  11
1.2549
  21
3.6545
  12
1.1683
  22
3.6309
  13
1.2549
  23
3.6309
  0
SOLID
  8
Top_Paste
  10
1.1683
  20
3.6045
  11
1.2549
  21
3.6045
  12
1.1683
  22
3.5809
  13
1.2549
  23
3.5809
  0
SOLID
  8
Top_Paste
  10
1.1683
  20
3.5545
  11
1.2549
  21
3.5545
  12
1.1683
  22
3.5309
  13
1.2549
  23
3.5309
  0
SOLID
  8
Top_Paste
  10
1.5305
  20
3.5545
  11
1.6171
  21
3.5545
  12
1.5305
  22
3.5309
  13
1.6171
  23
3.5309
  0
SOLID
  8
Top_Paste
  10
1.5305
  20
3.6045
  11
1.6171
  21
3.6045
  12
1.5305
  22
3.5809
  13
1.6171
  23
3.5809
  0
SOLID
  8
Top_Paste
  10
1.5305
  20
3.6545
  11
1.6171
  21
3.6545
  12
1.5305
  22
3.6309
  13
1.6171
  23
3.6309
  0
SOLID
  8
Top_Paste
  10
1.5305
  20
3.7045
  11
1.6171
  21
3.7045
  12
1.5305
  22
3.6809
  13
1.6171
  23
3.6809
  0
SOLID
  8
Top_Paste
  10
1.5305
  20
3.7545
  11
1.6171
  21
3.7545
  12
1.5305
  22
3.7309
  13
1.6171
  23
3.7309
  0
SOLID
  8
Top_Paste
  10
1.5305
  20
3.8045
  11
1.6171
  21
3.8045
  12
1.5305
  22
3.7809
  13
1.6171
  23
3.7809
  0
SOLID
  8
Top_Paste
  10
1.5305
  20
3.8545
  11
1.6171
  21
3.8545
  12
1.5305
  22
3.8309
  13
1.6171
  23
3.8309
  0
SOLID
  8
Top_Paste
  10
1.5753
  20
3.3929
  11
1.6482
  21
3.3929
  12
1.5753
  22
3.2925
  13
1.6482
  23
3.2925
  0
SOLID
  8
Top_Paste
  10
1.5753
  20
3.2295
  11
1.6482
  21
3.2295
  12
1.5753
  22
3.1291
  13
1.6482
  23
3.1291
  0
SOLID
  8
Top_Paste
  10
2.297
  20
3.2813
  11
2.3265
  21
3.2813
  12
2.297
  22
3.1041
  13
2.3265
  23
3.1041
  0
SOLID
  8
Top_Paste
  10
2.297
  20
3.5175
  11
2.3265
  21
3.5175
  12
2.297
  22
3.3403
  13
2.3265
  23
3.3403
  0
SOLID
  8
Top_Paste
  10
1.7767
  20
3.4017
  11
1.7967
  21
3.4017
  12
1.7767
  22
3.2836
  13
1.7967
  23
3.2836
  0
SOLID
  8
Top_Paste
  10
1.7767
  20
3.2049
  11
1.7967
  21
3.2049
  12
1.7767
  22
3.0868
  13
1.7967
  23
3.0868
  0
SOLID
  8
Top_Paste
  10
1.2017
  20
3.4017
  11
1.2217
  21
3.4017
  12
1.2017
  22
3.2836
  13
1.2217
  23
3.2836
  0
SOLID
  8
Top_Paste
  10
1.2017
  20
3.2049
  11
1.2217
  21
3.2049
  12
1.2017
  22
3.0868
  13
1.2217
  23
3.0868
  0
SOLID
  8
Top_Paste
  10
1.0017
  20
3.4017
  11
1.0217
  21
3.4017
  12
1.0017
  22
3.2836
  13
1.0217
  23
3.2836
  0
SOLID
  8
Top_Paste
  10
1.0017
  20
3.2049
  11
1.0217
  21
3.2049
  12
1.0017
  22
3.0868
  13
1.0217
  23
3.0868
  0
SOLID
  8
Top_Paste
  10
1.9767
  20
3.4017
  11
1.9967
  21
3.4017
  12
1.9767
  22
3.2836
  13
1.9967
  23
3.2836
  0
SOLID
  8
Top_Paste
  10
1.9767
  20
3.2049
  11
1.9967
  21
3.2049
  12
1.9767
  22
3.0868
  13
1.9967
  23
3.0868
  0
SOLID
  8
Top_Paste
  10
0.6756
  20
0.8833
  11
0.7356
  21
0.8833
  12
0.6756
  22
0.8273
  13
0.7356
  23
0.8273
  0
SOLID
  8
Top_Paste
  10
0.7656
  20
0.8833
  11
0.8256
  21
0.8833
  12
0.7656
  22
0.8273
  13
0.8256
  23
0.8273
  0
SOLID
  8
Top_Paste
  10
1.0381
  20
0.8833
  11
1.0981
  21
0.8833
  12
1.0381
  22
0.8273
  13
1.0981
  23
0.8273
  0
SOLID
  8
Top_Paste
  10
0.9481
  20
0.8833
  11
1.0081
  21
0.8833
  12
0.9481
  22
0.8273
  13
1.0081
  23
0.8273
  0
SOLID
  8
Top_Paste
  10
0.2797
  20
0.8786
  11
0.3309
  21
0.8786
  12
0.2797
  22
0.8195
  13
0.3309
  23
0.8195
  0
SOLID
  8
Top_Paste
  10
0.2049
  20
0.8786
  11
0.2561
  21
0.8786
  12
0.2049
  22
0.8195
  13
0.2561
  23
0.8195
  0
SOLID
  8
Top_Paste
  10
0.2797
  20
0.7786
  11
0.3309
  21
0.7786
  12
0.2797
  22
0.7195
  13
0.3309
  23
0.7195
  0
SOLID
  8
Top_Paste
  10
0.2049
  20
0.7786
  11
0.2561
  21
0.7786
  12
0.2049
  22
0.7195
  13
0.2561
  23
0.7195
  0
SOLID
  8
Top_Paste
  10
0.0705
  20
0.7391
  11
0.1405
  21
0.7391
  12
0.0705
  22
0.7091
  13
0.1405
  23
0.7091
  0
POLYLINE
  8
Top_Paste
  6
CONTINUOUS
  66
1
  70
0
  40
0.015
  41
0.015
  0
VERTEX
  8
Top_Paste
  10
-0.064
  20
0.7241
  42
1
  0
VERTEX
  8
Top_Paste
  10
-0.049
  20
0.7241
  42
1
  0
VERTEX
  8
Top_Paste
  10
-0.064
  20
0.7241
  42
1
  0
SEQEND
  0
POLYLINE
  8
Top_Paste
  6
CONTINUOUS
  66
1
  70
0
  40
0.015
  41
0.015
  0
VERTEX
  8
Top_Paste
  10
-0.024
  20
0.7241
  42
1
  0
VERTEX
  8
Top_Paste
  10
-0.009
  20
0.7241
  42
1
  0
VERTEX
  8
Top_Paste
  10
-0.024
  20
0.7241
  42
1
  0
SEQEND
  0
SOLID
  8
Top_Paste
  10
-0.0565
  20
0.7391
  11
-0.0165
  21
0.7391
  12
-0.0565
  22
0.7091
  13
-0.0165
  23
0.7091
  0
SOLID
  8
Top_Paste
  10
0.0705
  20
0.8641
  11
0.1405
  21
0.8641
  12
0.0705
  22
0.8341
  13
0.1405
  23
0.8341
  0
POLYLINE
  8
Top_Paste
  6
CONTINUOUS
  66
1
  70
0
  40
0.015
  41
0.015
  0
VERTEX
  8
Top_Paste
  10
-0.064
  20
0.8491
  42
1
  0
VERTEX
  8
Top_Paste
  10
-0.049
  20
0.8491
  42
1
  0
VERTEX
  8
Top_Paste
  10
-0.064
  20
0.8491
  42
1
  0
SEQEND
  0
POLYLINE
  8
Top_Paste
  6
CONTINUOUS
  66
1
  70
0
  40
0.015
  41
0.015
  0
VERTEX
  8
Top_Paste
  10
-0.024
  20
0.8491
  42
1
  0
VERTEX
  8
Top_Paste
  10
-0.009
  20
0.8491
  42
1
  0
VERTEX
  8
Top_Paste
  10
-0.024
  20
0.8491
  42
1
  0
SEQEND
  0
SOLID
  8
Top_Paste
  10
-0.0565
  20
0.8641
  11
-0.0165
  21
0.8641
  12
-0.0565
  22
0.8341
  13
-0.0165
  23
0.8341
  0
SOLID
  8
Top_Paste
  10
0.7753
  20
3.7179
  11
0.8482
  21
3.7179
  12
0.7753
  22
3.6175
  13
0.8482
  23
3.6175
  0
SOLID
  8
Top_Paste
  10
0.7753
  20
3.5545
  11
0.8482
  21
3.5545
  12
0.7753
  22
3.4541
  13
0.8482
  23
3.4541
  0
SOLID
  8
Top_Paste
  10
0.8611
  20
3.9222
  11
0.9123
  21
3.9222
  12
0.8611
  22
3.8632
  13
0.9123
  23
3.8632
  0
SOLID
  8
Top_Paste
  10
0.7863
  20
3.9222
  11
0.8375
  21
3.9222
  12
0.7863
  22
3.8632
  13
0.8375
  23
3.8632
  0
SOLID
  8
Top_Paste
  10
1.0217
  20
3.6277
  11
1.0517
  21
3.6277
  12
1.0217
  22
3.5577
  13
1.0517
  23
3.5577
  0
POLYLINE
  8
Top_Paste
  6
CONTINUOUS
  66
1
  70
0
  40
0.015
  41
0.015
  0
VERTEX
  8
Top_Paste
  10
1.0292
  20
3.7547
  42
1
  0
VERTEX
  8
Top_Paste
  10
1.0442
  20
3.7547
  42
1
  0
VERTEX
  8
Top_Paste
  10
1.0292
  20
3.7547
  42
1
  0
SEQEND
  0
POLYLINE
  8
Top_Paste
  6
CONTINUOUS
  66
1
  70
0
  40
0.015
  41
0.015
  0
VERTEX
  8
Top_Paste
  10
1.0292
  20
3.7147
  42
1
  0
VERTEX
  8
Top_Paste
  10
1.0442
  20
3.7147
  42
1
  0
VERTEX
  8
Top_Paste
  10
1.0292
  20
3.7147
  42
1
  0
SEQEND
  0
SOLID
  8
Top_Paste
  10
1.0217
  20
3.7547
  11
1.0517
  21
3.7547
  12
1.0217
  22
3.7147
  13
1.0517
  23
3.7147
  0
SOLID
  8
Top_Paste
  10
2.1864
  20
2.5163
  11
2.2376
  21
2.5163
  12
2.1864
  22
2.4572
  13
2.2376
  23
2.4572
  0
SOLID
  8
Top_Paste
  10
2.2612
  20
2.5163
  11
2.3124
  21
2.5163
  12
2.2612
  22
2.4572
  13
2.3124
  23
2.4572
  0
SOLID
  8
Top_Paste
  10
2.0176
  20
2.5163
  11
2.0688
  21
2.5163
  12
2.0176
  22
2.4572
  13
2.0688
  23
2.4572
  0
SOLID
  8
Top_Paste
  10
2.0924
  20
2.5163
  11
2.1436
  21
2.5163
  12
2.0924
  22
2.4572
  13
2.1436
  23
2.4572
  0
SOLID
  8
Top_Paste
  10
2.2883
  20
1.9522
  11
2.3483
  21
1.9522
  12
2.2883
  22
1.8962
  13
2.3483
  23
1.8962
  0
SOLID
  8
Top_Paste
  10
2.3783
  20
1.9522
  11
2.4383
  21
1.9522
  12
2.3783
  22
1.8962
  13
2.4383
  23
1.8962
  0
ENDSEC
  0
EOF
