  0
SECTION
  2
HEADER
  9
$ACADVER
  1
AC1009
  9
$ANGDIR
  70
0
  9
$CECOLOR
  62
256
  9
$CELTYPE
  6
BYLAYER
  9
$EXTMIN
  10
-4.08
  20
-4.212
  9
$EXTMAX
  10
3.794
  20
-4.212
  9
$FILLMODE
  70
1
  9
$MIRRTEXT
  70
0
  0
ENDSEC
  0
SECTION
  2
TABLES
  0
TABLE
  2
LAYER
  70
17
  0
LAYER
  2
Top_Paste
  70
64
  62
4
  6
CONTINUOUS
  0
ENDTAB
  0
ENDSEC
  0
SECTION
  2
ENTITIES
  0
SOLID
  8
Top_Paste
  10
-2.3443
  20
-2.0141
  11
-2.2735
  21
-2.0141
  12
-2.3443
  22
-2.081
  13
-2.2735
  23
-2.081
  0
SOLID
  8
Top_Paste
  10
-2.3443
  20
-1.8448
  11
-2.2735
  21
-1.8448
  12
-2.3443
  22
-1.9117
  13
-2.2735
  23
-1.9117
  0
SOLID
  8
Top_Paste
  10
-3.0161
  20
-3.984
  11
-2.9561
  21
-3.984
  12
-3.0161
  22
-4.04
  13
-2.9561
  23
-4.04
  0
SOLID
  8
Top_Paste
  10
-2.9261
  20
-3.984
  11
-2.8661
  21
-3.984
  12
-2.9261
  22
-4.04
  13
-2.8661
  23
-4.04
  0
SOLID
  8
Top_Paste
  10
-0.8576
  20
-1.6158
  11
-0.7976
  21
-1.6158
  12
-0.8576
  22
-1.6718
  13
-0.7976
  23
-1.6718
  0
SOLID
  8
Top_Paste
  10
-0.7676
  20
-1.6158
  11
-0.7076
  21
-1.6158
  12
-0.7676
  22
-1.6718
  13
-0.7076
  23
-1.6718
  0
SOLID
  8
Top_Paste
  10
-2.7141
  20
-3.1819
  11
-2.6581
  21
-3.1819
  12
-2.7141
  22
-3.2419
  13
-2.6581
  23
-3.2419
  0
SOLID
  8
Top_Paste
  10
-2.7141
  20
-3.0919
  11
-2.6581
  21
-3.0919
  12
-2.7141
  22
-3.1519
  13
-2.6581
  23
-3.1519
  0
SOLID
  8
Top_Paste
  10
-3.3882
  20
-3.19
  11
-3.3282
  21
-3.19
  12
-3.3882
  22
-3.246
  13
-3.3282
  23
-3.246
  0
SOLID
  8
Top_Paste
  10
-3.2982
  20
-3.19
  11
-3.2382
  21
-3.19
  12
-3.2982
  22
-3.246
  13
-3.2382
  23
-3.246
  0
SOLID
  8
Top_Paste
  10
-0.9701
  20
-1.6158
  11
-0.9101
  21
-1.6158
  12
-0.9701
  22
-1.6718
  13
-0.9101
  23
-1.6718
  0
SOLID
  8
Top_Paste
  10
-1.0601
  20
-1.6158
  11
-1.0001
  21
-1.6158
  12
-1.0601
  22
-1.6718
  13
-1.0001
  23
-1.6718
  0
SOLID
  8
Top_Paste
  10
-1.418
  20
-1.726
  11
-1.362
  21
-1.726
  12
-1.418
  22
-1.786
  13
-1.362
  23
-1.786
  0
SOLID
  8
Top_Paste
  10
-1.418
  20
-1.816
  11
-1.362
  21
-1.816
  12
-1.418
  22
-1.876
  13
-1.362
  23
-1.876
  0
SOLID
  8
Top_Paste
  10
-1.4181
  20
-1.9263
  11
-1.3621
  21
-1.9263
  12
-1.4181
  22
-1.9863
  13
-1.3621
  23
-1.9863
  0
SOLID
  8
Top_Paste
  10
-1.4181
  20
-2.0163
  11
-1.3621
  21
-2.0163
  12
-1.4181
  22
-2.0763
  13
-1.3621
  23
-2.0763
  0
SOLID
  8
Top_Paste
  10
-1.4181
  20
-2.2201
  11
-1.3621
  21
-2.2201
  12
-1.4181
  22
-2.2801
  13
-1.3621
  23
-2.2801
  0
SOLID
  8
Top_Paste
  10
-1.4181
  20
-2.1301
  11
-1.3621
  21
-2.1301
  12
-1.4181
  22
-2.1901
  13
-1.3621
  23
-2.1901
  0
SOLID
  8
Top_Paste
  10
-1.2576
  20
-1.6158
  11
-1.1976
  21
-1.6158
  12
-1.2576
  22
-1.6718
  13
-1.1976
  23
-1.6718
  0
SOLID
  8
Top_Paste
  10
-1.1676
  20
-1.6158
  11
-1.1076
  21
-1.6158
  12
-1.1676
  22
-1.6718
  13
-1.1076
  23
-1.6718
  0
SOLID
  8
Top_Paste
  10
-1.958
  20
-3.176
  11
-1.902
  21
-3.176
  12
-1.958
  22
-3.236
  13
-1.902
  23
-3.236
  0
SOLID
  8
Top_Paste
  10
-1.958
  20
-3.086
  11
-1.902
  21
-3.086
  12
-1.958
  22
-3.146
  13
-1.902
  23
-3.146
  0
SOLID
  8
Top_Paste
  10
-3.4974
  20
-2.7339
  11
-3.4374
  21
-2.7339
  12
-3.4974
  22
-2.7899
  13
-3.4374
  23
-2.7899
  0
SOLID
  8
Top_Paste
  10
-3.4074
  20
-2.7339
  11
-3.3474
  21
-2.7339
  12
-3.4074
  22
-2.7899
  13
-3.3474
  23
-2.7899
  0
SOLID
  8
Top_Paste
  10
-3.0286
  20
-3.4402
  11
-2.9686
  21
-3.4402
  12
-3.0286
  22
-3.4962
  13
-2.9686
  23
-3.4962
  0
SOLID
  8
Top_Paste
  10
-2.9386
  20
-3.4402
  11
-2.8786
  21
-3.4402
  12
-2.9386
  22
-3.4962
  13
-2.8786
  23
-3.4962
  0
SOLID
  8
Top_Paste
  10
-2.7211
  20
-0.9776
  11
-2.7011
  21
-0.9776
  12
-2.7211
  22
-1.0957
  13
-2.7011
  23
-1.0957
  0
SOLID
  8
Top_Paste
  10
-2.7211
  20
-1.1745
  11
-2.7011
  21
-1.1745
  12
-2.7211
  22
-1.2926
  13
-2.7011
  23
-1.2926
  0
SOLID
  8
Top_Paste
  10
-2.4723
  20
-1.2899
  11
-2.4123
  21
-1.2899
  12
-2.4723
  22
-1.3459
  13
-2.4123
  23
-1.3459
  0
SOLID
  8
Top_Paste
  10
-2.5623
  20
-1.2899
  11
-2.5023
  21
-1.2899
  12
-2.5623
  22
-1.3459
  13
-2.5023
  23
-1.3459
  0
SOLID
  8
Top_Paste
  10
-1.2882
  20
-0.7793
  11
-1.2587
  21
-0.7793
  12
-1.2882
  22
-0.9565
  13
-1.2587
  23
-0.9565
  0
SOLID
  8
Top_Paste
  10
-1.2882
  20
-1.0155
  11
-1.2587
  21
-1.0155
  12
-1.2882
  22
-1.1927
  13
-1.2587
  23
-1.1927
  0
SOLID
  8
Top_Paste
  10
-0.6846
  20
-1.2024
  11
-0.6246
  21
-1.2024
  12
-0.6846
  22
-1.2584
  13
-0.6246
  23
-1.2584
  0
SOLID
  8
Top_Paste
  10
-0.7746
  20
-1.2024
  11
-0.7146
  21
-1.2024
  12
-0.7746
  22
-1.2584
  13
-0.7146
  23
-1.2584
  0
SOLID
  8
Top_Paste
  10
-3.0444
  20
-3.1962
  11
-2.9844
  21
-3.1962
  12
-3.0444
  22
-3.2522
  13
-2.9844
  23
-3.2522
  0
SOLID
  8
Top_Paste
  10
-3.1344
  20
-3.1962
  11
-3.0744
  21
-3.1962
  12
-3.1344
  22
-3.2522
  13
-3.0744
  23
-3.2522
  0
SOLID
  8
Top_Paste
  10
-1.0382
  20
-0.7793
  11
-1.0087
  21
-0.7793
  12
-1.0382
  22
-0.9565
  13
-1.0087
  23
-0.9565
  0
SOLID
  8
Top_Paste
  10
-1.0382
  20
-1.0155
  11
-1.0087
  21
-1.0155
  12
-1.0382
  22
-1.1927
  13
-1.0087
  23
-1.1927
  0
SOLID
  8
Top_Paste
  10
-0.8022
  20
-0.8088
  11
-0.7822
  21
-0.8088
  12
-0.8022
  22
-0.927
  13
-0.7822
  23
-0.927
  0
SOLID
  8
Top_Paste
  10
-0.8022
  20
-1.0057
  11
-0.7822
  21
-1.0057
  12
-0.8022
  22
-1.1238
  13
-0.7822
  23
-1.1238
  0
SOLID
  8
Top_Paste
  10
-2.9274
  20
-0.9776
  11
-2.9074
  21
-0.9776
  12
-2.9274
  22
-1.0957
  13
-2.9074
  23
-1.0957
  0
SOLID
  8
Top_Paste
  10
-2.9274
  20
-1.1745
  11
-2.9074
  21
-1.1745
  12
-2.9274
  22
-1.2926
  13
-2.9074
  23
-1.2926
  0
SOLID
  8
Top_Paste
  10
-3.1336
  20
-0.9776
  11
-3.1136
  21
-0.9776
  12
-3.1336
  22
-1.0957
  13
-3.1136
  23
-1.0957
  0
SOLID
  8
Top_Paste
  10
-3.1336
  20
-1.1745
  11
-3.1136
  21
-1.1745
  12
-3.1336
  22
-1.2926
  13
-3.1136
  23
-1.2926
  0
SOLID
  8
Top_Paste
  10
-0.5896
  20
-0.8088
  11
-0.5696
  21
-0.8088
  12
-0.5896
  22
-0.927
  13
-0.5696
  23
-0.927
  0
SOLID
  8
Top_Paste
  10
-0.5896
  20
-1.0057
  11
-0.5696
  21
-1.0057
  12
-0.5896
  22
-1.1238
  13
-0.5696
  23
-1.1238
  0
SOLID
  8
Top_Paste
  10
-2.3598
  20
-2.115
  11
-2.2998
  21
-2.115
  12
-2.3598
  22
-2.171
  13
-2.2998
  23
-2.171
  0
SOLID
  8
Top_Paste
  10
-2.2698
  20
-2.115
  11
-2.2098
  21
-2.115
  12
-2.2698
  22
-2.171
  13
-2.2098
  23
-2.171
  0
SOLID
  8
Top_Paste
  10
-2.3661
  20
-1.7525
  11
-2.3061
  21
-1.7525
  12
-2.3661
  22
-1.8085
  13
-2.3061
  23
-1.8085
  0
SOLID
  8
Top_Paste
  10
-2.2761
  20
-1.7525
  11
-2.2161
  21
-1.7525
  12
-2.2761
  22
-1.8085
  13
-2.2161
  23
-1.8085
  0
SOLID
  8
Top_Paste
  10
-3.1286
  20
-1.5087
  11
-3.0686
  21
-1.5087
  12
-3.1286
  22
-1.5647
  13
-3.0686
  23
-1.5647
  0
SOLID
  8
Top_Paste
  10
-3.0386
  20
-1.5087
  11
-2.9786
  21
-1.5087
  12
-3.0386
  22
-1.5647
  13
-2.9786
  23
-1.5647
  0
SOLID
  8
Top_Paste
  10
-3.191
  20
-2.465
  11
-3.131
  21
-2.465
  12
-3.191
  22
-2.521
  13
-3.131
  23
-2.521
  0
SOLID
  8
Top_Paste
  10
-3.101
  20
-2.465
  11
-3.041
  21
-2.465
  12
-3.101
  22
-2.521
  13
-3.041
  23
-2.521
  0
SOLID
  8
Top_Paste
  10
-2.4973
  20
-2.4713
  11
-2.4373
  21
-2.4713
  12
-2.4973
  22
-2.5273
  13
-2.4373
  23
-2.5273
  0
SOLID
  8
Top_Paste
  10
-2.4073
  20
-2.4713
  11
-2.3473
  21
-2.4713
  12
-2.4073
  22
-2.5273
  13
-2.3473
  23
-2.5273
  0
SOLID
  8
Top_Paste
  10
-2.3661
  20
-1.5462
  11
-2.3061
  21
-1.5462
  12
-2.3661
  22
-1.6022
  13
-2.3061
  23
-1.6022
  0
SOLID
  8
Top_Paste
  10
-2.2761
  20
-1.5462
  11
-2.2161
  21
-1.5462
  12
-2.2761
  22
-1.6022
  13
-2.2161
  23
-1.6022
  0
SOLID
  8
Top_Paste
  10
-2.8389
  20
-1.4955
  11
-2.7208
  21
-1.4955
  12
-2.8389
  22
-1.5155
  13
-2.7208
  23
-1.5155
  0
SOLID
  8
Top_Paste
  10
-2.6421
  20
-1.4955
  11
-2.524
  21
-1.4955
  12
-2.6421
  22
-1.5155
  13
-2.524
  23
-1.5155
  0
SOLID
  8
Top_Paste
  10
-1.7515
  20
-1.7692
  11
-1.6955
  21
-1.7692
  12
-1.7515
  22
-1.8292
  13
-1.6955
  23
-1.8292
  0
SOLID
  8
Top_Paste
  10
-1.7515
  20
-1.6792
  11
-1.6955
  21
-1.6792
  12
-1.7515
  22
-1.7392
  13
-1.6955
  23
-1.7392
  0
SOLID
  8
Top_Paste
  10
-1.7002
  20
-3.3064
  11
-1.649
  21
-3.3064
  12
-1.7002
  22
-3.3398
  13
-1.649
  23
-3.3398
  0
SOLID
  8
Top_Paste
  10
-1.7002
  20
-3.3812
  11
-1.649
  21
-3.3812
  12
-1.7002
  22
-3.4146
  13
-1.649
  23
-3.4146
  0
SOLID
  8
Top_Paste
  10
-1.6136
  20
-3.3438
  11
-1.5624
  21
-3.3438
  12
-1.6136
  22
-3.3772
  13
-1.5624
  23
-3.3772
  0
SOLID
  8
Top_Paste
  10
-3.4813
  20
-1.3102
  11
-3.3907
  21
-1.3102
  12
-3.4813
  22
-1.4008
  13
-3.3907
  23
-1.4008
  0
SOLID
  8
Top_Paste
  10
-3.4813
  20
-1.133
  11
-3.3907
  21
-1.133
  12
-3.4813
  22
-1.2236
  13
-3.3907
  23
-1.2236
  0
SOLID
  8
Top_Paste
  10
-1.1397
  20
-2.3593
  11
-1.0697
  21
-2.3593
  12
-1.1397
  22
-2.3893
  13
-1.0697
  23
-2.3893
  0
POLYLINE
  8
Top_Paste
  6
CONTINUOUS
  66
1
  70
0
  40
0.015
  41
0.015
  0
VERTEX
  8
Top_Paste
  10
-0.9902
  20
-2.3743
  42
1
  0
VERTEX
  8
Top_Paste
  10
-0.9752
  20
-2.3743
  42
1
  0
VERTEX
  8
Top_Paste
  10
-0.9902
  20
-2.3743
  42
1
  0
SEQEND
  0
POLYLINE
  8
Top_Paste
  6
CONTINUOUS
  66
1
  70
0
  40
0.015
  41
0.015
  0
VERTEX
  8
Top_Paste
  10
-0.9502
  20
-2.3743
  42
1
  0
VERTEX
  8
Top_Paste
  10
-0.9352
  20
-2.3743
  42
1
  0
VERTEX
  8
Top_Paste
  10
-0.9502
  20
-2.3743
  42
1
  0
SEQEND
  0
SOLID
  8
Top_Paste
  10
-0.9827
  20
-2.3593
  11
-0.9427
  21
-2.3593
  12
-0.9827
  22
-2.3893
  13
-0.9427
  23
-2.3893
  0
SOLID
  8
Top_Paste
  10
-1.1397
  20
-2.4968
  11
-1.0697
  21
-2.4968
  12
-1.1397
  22
-2.5268
  13
-1.0697
  23
-2.5268
  0
POLYLINE
  8
Top_Paste
  6
CONTINUOUS
  66
1
  70
0
  40
0.015
  41
0.015
  0
VERTEX
  8
Top_Paste
  10
-0.9902
  20
-2.5118
  42
1
  0
VERTEX
  8
Top_Paste
  10
-0.9752
  20
-2.5118
  42
1
  0
VERTEX
  8
Top_Paste
  10
-0.9902
  20
-2.5118
  42
1
  0
SEQEND
  0
POLYLINE
  8
Top_Paste
  6
CONTINUOUS
  66
1
  70
0
  40
0.015
  41
0.015
  0
VERTEX
  8
Top_Paste
  10
-0.9502
  20
-2.5118
  42
1
  0
VERTEX
  8
Top_Paste
  10
-0.9352
  20
-2.5118
  42
1
  0
VERTEX
  8
Top_Paste
  10
-0.9502
  20
-2.5118
  42
1
  0
SEQEND
  0
SOLID
  8
Top_Paste
  10
-0.9827
  20
-2.4968
  11
-0.9427
  21
-2.4968
  12
-0.9827
  22
-2.5268
  13
-0.9427
  23
-2.5268
  0
SOLID
  8
Top_Paste
  10
-2.6523
  20
-3.6908
  11
-2.5823
  21
-3.6908
  12
-2.6523
  22
-3.7208
  13
-2.5823
  23
-3.7208
  0
POLYLINE
  8
Top_Paste
  6
CONTINUOUS
  66
1
  70
0
  40
0.015
  41
0.015
  0
VERTEX
  8
Top_Paste
  10
-2.5029
  20
-3.7058
  42
1
  0
VERTEX
  8
Top_Paste
  10
-2.4879
  20
-3.7058
  42
1
  0
VERTEX
  8
Top_Paste
  10
-2.5029
  20
-3.7058
  42
1
  0
SEQEND
  0
POLYLINE
  8
Top_Paste
  6
CONTINUOUS
  66
1
  70
0
  40
0.015
  41
0.015
  0
VERTEX
  8
Top_Paste
  10
-2.4629
  20
-3.7058
  42
1
  0
VERTEX
  8
Top_Paste
  10
-2.4479
  20
-3.7058
  42
1
  0
VERTEX
  8
Top_Paste
  10
-2.4629
  20
-3.7058
  42
1
  0
SEQEND
  0
SOLID
  8
Top_Paste
  10
-2.4954
  20
-3.6908
  11
-2.4554
  21
-3.6908
  12
-2.4954
  22
-3.7208
  13
-2.4554
  23
-3.7208
  0
SOLID
  8
Top_Paste
  10
-2.1313
  20
-1.2602
  11
-2.0408
  21
-1.2602
  12
-2.1313
  22
-1.3507
  13
-2.0408
  23
-1.3507
  0
SOLID
  8
Top_Paste
  10
-2.3085
  20
-1.2602
  11
-2.2179
  21
-1.2602
  12
-2.3085
  22
-1.3507
  13
-2.2179
  23
-1.3507
  0
SOLID
  8
Top_Paste
  10
-2.6523
  20
-3.8282
  11
-2.5823
  21
-3.8282
  12
-2.6523
  22
-3.8582
  13
-2.5823
  23
-3.8582
  0
POLYLINE
  8
Top_Paste
  6
CONTINUOUS
  66
1
  70
0
  40
0.015
  41
0.015
  0
VERTEX
  8
Top_Paste
  10
-2.5029
  20
-3.8432
  42
1
  0
VERTEX
  8
Top_Paste
  10
-2.4879
  20
-3.8432
  42
1
  0
VERTEX
  8
Top_Paste
  10
-2.5029
  20
-3.8432
  42
1
  0
SEQEND
  0
POLYLINE
  8
Top_Paste
  6
CONTINUOUS
  66
1
  70
0
  40
0.015
  41
0.015
  0
VERTEX
  8
Top_Paste
  10
-2.4629
  20
-3.8432
  42
1
  0
VERTEX
  8
Top_Paste
  10
-2.4479
  20
-3.8432
  42
1
  0
VERTEX
  8
Top_Paste
  10
-2.4629
  20
-3.8432
  42
1
  0
SEQEND
  0
SOLID
  8
Top_Paste
  10
-2.4954
  20
-3.8282
  11
-2.4554
  21
-3.8282
  12
-2.4954
  22
-3.8582
  13
-2.4554
  23
-3.8582
  0
SOLID
  8
Top_Paste
  10
-3.6746
  20
-0.7749
  11
-3.6353
  21
-0.7749
  12
-3.6746
  22
-0.8734
  13
-3.6353
  23
-0.8734
  0
SOLID
  8
Top_Paste
  10
-3.5565
  20
-0.7749
  11
-3.5172
  21
-0.7749
  12
-3.5565
  22
-0.8734
  13
-3.5172
  23
-0.8734
  0
SOLID
  8
Top_Paste
  10
-2.5028
  20
-3.0583
  11
-2.4319
  21
-3.0583
  12
-2.5028
  22
-3.078
  13
-2.4319
  23
-3.078
  0
SOLID
  8
Top_Paste
  10
-2.5028
  20
-3.0898
  11
-2.4319
  21
-3.0898
  12
-2.5028
  22
-3.1095
  13
-2.4319
  23
-3.1095
  0
SOLID
  8
Top_Paste
  10
-2.5028
  20
-3.1213
  11
-2.4319
  21
-3.1213
  12
-2.5028
  22
-3.141
  13
-2.4319
  23
-3.141
  0
SOLID
  8
Top_Paste
  10
-2.5028
  20
-3.1528
  11
-2.4319
  21
-3.1528
  12
-2.5028
  22
-3.1725
  13
-2.4319
  23
-3.1725
  0
SOLID
  8
Top_Paste
  10
-2.5028
  20
-3.1843
  11
-2.4319
  21
-3.1843
  12
-2.5028
  22
-3.204
  13
-2.4319
  23
-3.204
  0
SOLID
  8
Top_Paste
  10
-2.5028
  20
-3.2158
  11
-2.4319
  21
-3.2158
  12
-2.5028
  22
-3.2355
  13
-2.4319
  23
-3.2355
  0
SOLID
  8
Top_Paste
  10
-2.5028
  20
-3.2473
  11
-2.4319
  21
-3.2473
  12
-2.5028
  22
-3.2669
  13
-2.4319
  23
-3.2669
  0
SOLID
  8
Top_Paste
  10
-2.5028
  20
-3.2788
  11
-2.4319
  21
-3.2788
  12
-2.5028
  22
-3.2984
  13
-2.4319
  23
-3.2984
  0
SOLID
  8
Top_Paste
  10
-2.4178
  20
-3.3119
  11
-2.3981
  21
-3.3119
  12
-2.4178
  22
-3.3828
  13
-2.3981
  23
-3.3828
  0
SOLID
  8
Top_Paste
  10
-2.3863
  20
-3.3119
  11
-2.3666
  21
-3.3119
  12
-2.3863
  22
-3.3828
  13
-2.3666
  23
-3.3828
  0
SOLID
  8
Top_Paste
  10
-2.3548
  20
-3.3119
  11
-2.3351
  21
-3.3119
  12
-2.3548
  22
-3.3828
  13
-2.3351
  23
-3.3828
  0
SOLID
  8
Top_Paste
  10
-2.3233
  20
-3.3119
  11
-2.3036
  21
-3.3119
  12
-2.3233
  22
-3.3828
  13
-2.3036
  23
-3.3828
  0
SOLID
  8
Top_Paste
  10
-2.2918
  20
-3.3119
  11
-2.2721
  21
-3.3119
  12
-2.2918
  22
-3.3828
  13
-2.2721
  23
-3.3828
  0
SOLID
  8
Top_Paste
  10
-2.2603
  20
-3.3119
  11
-2.2406
  21
-3.3119
  12
-2.2603
  22
-3.3828
  13
-2.2406
  23
-3.3828
  0
SOLID
  8
Top_Paste
  10
-2.2288
  20
-3.3119
  11
-2.2091
  21
-3.3119
  12
-2.2288
  22
-3.3828
  13
-2.2091
  23
-3.3828
  0
SOLID
  8
Top_Paste
  10
-2.1973
  20
-3.3119
  11
-2.1776
  21
-3.3119
  12
-2.1973
  22
-3.3828
  13
-2.1776
  23
-3.3828
  0
SOLID
  8
Top_Paste
  10
-2.1642
  20
-3.2781
  11
-2.0933
  21
-3.2781
  12
-2.1642
  22
-3.2978
  13
-2.0933
  23
-3.2978
  0
SOLID
  8
Top_Paste
  10
-2.1642
  20
-3.2466
  11
-2.0933
  21
-3.2466
  12
-2.1642
  22
-3.2663
  13
-2.0933
  23
-3.2663
  0
SOLID
  8
Top_Paste
  10
-2.1642
  20
-3.2151
  11
-2.0933
  21
-3.2151
  12
-2.1642
  22
-3.2348
  13
-2.0933
  23
-3.2348
  0
SOLID
  8
Top_Paste
  10
-2.1642
  20
-3.1836
  11
-2.0933
  21
-3.1836
  12
-2.1642
  22
-3.2033
  13
-2.0933
  23
-3.2033
  0
SOLID
  8
Top_Paste
  10
-2.1642
  20
-3.1521
  11
-2.0933
  21
-3.1521
  12
-2.1642
  22
-3.1718
  13
-2.0933
  23
-3.1718
  0
SOLID
  8
Top_Paste
  10
-2.1642
  20
-3.1206
  11
-2.0933
  21
-3.1206
  12
-2.1642
  22
-3.1403
  13
-2.0933
  23
-3.1403
  0
SOLID
  8
Top_Paste
  10
-2.1642
  20
-3.0892
  11
-2.0933
  21
-3.0892
  12
-2.1642
  22
-3.1088
  13
-2.0933
  23
-3.1088
  0
SOLID
  8
Top_Paste
  10
-2.1642
  20
-3.0577
  11
-2.0933
  21
-3.0577
  12
-2.1642
  22
-3.0773
  13
-2.0933
  23
-3.0773
  0
SOLID
  8
Top_Paste
  10
-2.198
  20
-2.9733
  11
-2.1783
  21
-2.9733
  12
-2.198
  22
-3.0442
  13
-2.1783
  23
-3.0442
  0
SOLID
  8
Top_Paste
  10
-2.2295
  20
-2.9733
  11
-2.2098
  21
-2.9733
  12
-2.2295
  22
-3.0442
  13
-2.2098
  23
-3.0442
  0
SOLID
  8
Top_Paste
  10
-2.261
  20
-2.9733
  11
-2.2413
  21
-2.9733
  12
-2.261
  22
-3.0442
  13
-2.2413
  23
-3.0442
  0
SOLID
  8
Top_Paste
  10
-2.2924
  20
-2.9733
  11
-2.2728
  21
-2.9733
  12
-2.2924
  22
-3.0442
  13
-2.2728
  23
-3.0442
  0
SOLID
  8
Top_Paste
  10
-2.3239
  20
-2.9733
  11
-2.3043
  21
-2.9733
  12
-2.3239
  22
-3.0442
  13
-2.3043
  23
-3.0442
  0
SOLID
  8
Top_Paste
  10
-2.3554
  20
-2.9733
  11
-2.3358
  21
-2.9733
  12
-2.3554
  22
-3.0442
  13
-2.3358
  23
-3.0442
  0
SOLID
  8
Top_Paste
  10
-2.3869
  20
-2.9733
  11
-2.3673
  21
-2.9733
  12
-2.3869
  22
-3.0442
  13
-2.3673
  23
-3.0442
  0
SOLID
  8
Top_Paste
  10
-2.4184
  20
-2.9733
  11
-2.3987
  21
-2.9733
  12
-2.4184
  22
-3.0442
  13
-2.3987
  23
-3.0442
  0
SOLID
  8
Top_Paste
  10
-1.6215
  20
-2.8084
  11
-1.5255
  21
-2.8084
  12
-1.6215
  22
-2.8528
  13
-1.5255
  23
-2.8528
  0
SOLID
  8
Top_Paste
  10
-1.9601
  20
-2.8084
  11
-1.864
  21
-2.8084
  12
-1.9601
  22
-2.8528
  13
-1.864
  23
-2.8528
  0
SOLID
  8
Top_Paste
  10
-1.6215
  20
-2.7084
  11
-1.5255
  21
-2.7084
  12
-1.6215
  22
-2.7528
  13
-1.5255
  23
-2.7528
  0
SOLID
  8
Top_Paste
  10
-1.9601
  20
-2.7084
  11
-1.864
  21
-2.7084
  12
-1.9601
  22
-2.7528
  13
-1.864
  23
-2.7528
  0
SOLID
  8
Top_Paste
  10
-1.6215
  20
-2.6084
  11
-1.5255
  21
-2.6084
  12
-1.6215
  22
-2.6528
  13
-1.5255
  23
-2.6528
  0
SOLID
  8
Top_Paste
  10
-1.9601
  20
-2.6084
  11
-1.864
  21
-2.6084
  12
-1.9601
  22
-2.6528
  13
-1.864
  23
-2.6528
  0
SOLID
  8
Top_Paste
  10
-1.6215
  20
-2.5084
  11
-1.5255
  21
-2.5084
  12
-1.6215
  22
-2.5528
  13
-1.5255
  23
-2.5528
  0
SOLID
  8
Top_Paste
  10
-1.9601
  20
-2.5084
  11
-1.864
  21
-2.5084
  12
-1.9601
  22
-2.5528
  13
-1.864
  23
-2.5528
  0
SOLID
  8
Top_Paste
  10
-1.6215
  20
-2.4084
  11
-1.5255
  21
-2.4084
  12
-1.6215
  22
-2.4528
  13
-1.5255
  23
-2.4528
  0
SOLID
  8
Top_Paste
  10
-1.9601
  20
-2.4084
  11
-1.864
  21
-2.4084
  12
-1.9601
  22
-2.4528
  13
-1.864
  23
-2.4528
  0
SOLID
  8
Top_Paste
  10
-1.6215
  20
-2.3084
  11
-1.5255
  21
-2.3084
  12
-1.6215
  22
-2.3528
  13
-1.5255
  23
-2.3528
  0
SOLID
  8
Top_Paste
  10
-1.9601
  20
-2.3084
  11
-1.864
  21
-2.3084
  12
-1.9601
  22
-2.3528
  13
-1.864
  23
-2.3528
  0
SOLID
  8
Top_Paste
  10
-1.6215
  20
-2.2084
  11
-1.5255
  21
-2.2084
  12
-1.6215
  22
-2.2528
  13
-1.5255
  23
-2.2528
  0
SOLID
  8
Top_Paste
  10
-1.9601
  20
-2.2084
  11
-1.864
  21
-2.2084
  12
-1.9601
  22
-2.2528
  13
-1.864
  23
-2.2528
  0
SOLID
  8
Top_Paste
  10
-1.6215
  20
-2.1084
  11
-1.5255
  21
-2.1084
  12
-1.6215
  22
-2.1528
  13
-1.5255
  23
-2.1528
  0
SOLID
  8
Top_Paste
  10
-1.9601
  20
-2.1084
  11
-1.864
  21
-2.1084
  12
-1.9601
  22
-2.1528
  13
-1.864
  23
-2.1528
  0
SOLID
  8
Top_Paste
  10
-2.0013
  20
-0.9034
  11
-1.8832
  21
-0.9034
  12
-2.0013
  22
-1.1199
  13
-1.8832
  23
-1.1199
  0
SOLID
  8
Top_Paste
  10
-1.5976
  20
-0.9034
  11
-1.4795
  21
-0.9034
  12
-1.5976
  22
-1.1199
  13
-1.4795
  23
-1.1199
  0
SOLID
  8
Top_Paste
  10
-3.0561
  20
-2.6343
  11
-2.9537
  21
-2.6343
  12
-3.0561
  22
-2.6894
  13
-2.9537
  23
-2.6894
  0
SOLID
  8
Top_Paste
  10
-3.0561
  20
-2.776
  11
-2.9537
  21
-2.776
  12
-3.0561
  22
-2.8311
  13
-2.9537
  23
-2.8311
  0
SOLID
  8
Top_Paste
  10
-2.8198
  20
-2.776
  11
-2.7175
  21
-2.776
  12
-2.8198
  22
-2.8311
  13
-2.7175
  23
-2.8311
  0
SOLID
  8
Top_Paste
  10
-2.8198
  20
-2.6343
  11
-2.7175
  21
-2.6343
  12
-2.8198
  22
-2.6894
  13
-2.7175
  23
-2.6894
  0
SOLID
  8
Top_Paste
  10
-1.6968
  20
-3.8134
  11
-1.6648
  21
-3.8134
  12
-1.6968
  22
-3.8454
  13
-1.6648
  23
-3.8454
  0
SOLID
  8
Top_Paste
  10
-1.6968
  20
-3.8934
  11
-1.6648
  21
-3.8934
  12
-1.6968
  22
-3.9254
  13
-1.6648
  23
-3.9254
  0
SOLID
  8
Top_Paste
  10
-1.6098
  20
-3.8534
  11
-1.5778
  21
-3.8534
  12
-1.6098
  22
-3.8854
  13
-1.5778
  23
-3.8854
  0
SOLID
  8
Top_Paste
  10
-2.662
  20
-2.6385
  11
-2.6108
  21
-2.6385
  12
-2.662
  22
-2.6975
  13
-2.6108
  23
-2.6975
  0
SOLID
  8
Top_Paste
  10
-2.5872
  20
-2.6385
  11
-2.536
  21
-2.6385
  12
-2.5872
  22
-2.6975
  13
-2.536
  23
-2.6975
  0
SOLID
  8
Top_Paste
  10
-3.181
  20
-2.5385
  11
-3.1298
  21
-2.5385
  12
-3.181
  22
-2.5975
  13
-3.1298
  23
-2.5975
  0
SOLID
  8
Top_Paste
  10
-3.1062
  20
-2.5385
  11
-3.055
  21
-2.5385
  12
-3.1062
  22
-2.5975
  13
-3.055
  23
-2.5975
  0
SOLID
  8
Top_Paste
  10
-3.418
  20
-3.7075
  11
-3.3668
  21
-3.7075
  12
-3.418
  22
-3.7665
  13
-3.3668
  23
-3.7665
  0
SOLID
  8
Top_Paste
  10
-3.3432
  20
-3.7075
  11
-3.292
  21
-3.7075
  12
-3.3432
  22
-3.7665
  13
-3.292
  23
-3.7665
  0
SOLID
  8
Top_Paste
  10
-1.7127
  20
-3.5749
  11
-1.6615
  21
-3.5749
  12
-1.7127
  22
-3.6339
  13
-1.6615
  23
-3.6339
  0
SOLID
  8
Top_Paste
  10
-1.6379
  20
-3.5749
  11
-1.5867
  21
-3.5749
  12
-1.6379
  22
-3.6339
  13
-1.5867
  23
-3.6339
  0
SOLID
  8
Top_Paste
  10
-0.8758
  20
-2.476
  11
-0.8246
  21
-2.476
  12
-0.8758
  22
-2.5351
  13
-0.8246
  23
-2.5351
  0
SOLID
  8
Top_Paste
  10
-0.801
  20
-2.476
  11
-0.7498
  21
-2.476
  12
-0.801
  22
-2.5351
  13
-0.7498
  23
-2.5351
  0
SOLID
  8
Top_Paste
  10
-0.8758
  20
-2.351
  11
-0.8246
  21
-2.351
  12
-0.8758
  22
-2.4101
  13
-0.8246
  23
-2.4101
  0
SOLID
  8
Top_Paste
  10
-0.801
  20
-2.351
  11
-0.7498
  21
-2.351
  12
-0.801
  22
-2.4101
  13
-0.7498
  23
-2.4101
  0
SOLID
  8
Top_Paste
  10
-2.4053
  20
-3.6761
  11
-2.3541
  21
-3.6761
  12
-2.4053
  22
-3.7352
  13
-2.3541
  23
-3.7352
  0
SOLID
  8
Top_Paste
  10
-2.3305
  20
-3.6761
  11
-2.2793
  21
-3.6761
  12
-2.3305
  22
-3.7352
  13
-2.2793
  23
-3.7352
  0
SOLID
  8
Top_Paste
  10
-2.4053
  20
-3.8136
  11
-2.3541
  21
-3.8136
  12
-2.4053
  22
-3.8727
  13
-2.3541
  23
-3.8727
  0
SOLID
  8
Top_Paste
  10
-2.3305
  20
-3.8136
  11
-2.2793
  21
-3.8136
  12
-2.3305
  22
-3.8727
  13
-2.2793
  23
-3.8727
  0
SOLID
  8
Top_Paste
  10
-3.531
  20
-2.5445
  11
-3.4798
  21
-2.5445
  12
-3.531
  22
-2.6035
  13
-3.4798
  23
-2.6035
  0
SOLID
  8
Top_Paste
  10
-3.4562
  20
-2.5445
  11
-3.405
  21
-2.5445
  12
-3.4562
  22
-2.6035
  13
-3.405
  23
-2.6035
  0
SOLID
  8
Top_Paste
  10
-3.4627
  20
-3.9355
  11
-3.3722
  21
-3.9355
  12
-3.4627
  22
-4.026
  13
-3.3722
  23
-4.026
  0
SOLID
  8
Top_Paste
  10
-3.2855
  20
-3.9355
  11
-3.195
  21
-3.9355
  12
-3.2855
  22
-4.026
  13
-3.195
  23
-4.026
  0
SOLID
  8
Top_Paste
  10
-3.469
  20
-3.4416
  11
-3.3784
  21
-3.4416
  12
-3.469
  22
-3.5322
  13
-3.3784
  23
-3.5322
  0
SOLID
  8
Top_Paste
  10
-3.2918
  20
-3.4416
  11
-3.2012
  21
-3.4416
  12
-3.2918
  22
-3.5322
  13
-3.2012
  23
-3.5322
  0
SOLID
  8
Top_Paste
  10
-3.6753
  20
-1.3162
  11
-3.5847
  21
-1.3162
  12
-3.6753
  22
-1.4068
  13
-3.5847
  23
-1.4068
  0
SOLID
  8
Top_Paste
  10
-3.6753
  20
-1.139
  11
-3.5847
  21
-1.139
  12
-3.6753
  22
-1.2296
  13
-3.5847
  23
-1.2296
  0
SOLID
  8
Top_Paste
  10
-2.5294
  20
-0.8061
  11
-2.4428
  21
-0.8061
  12
-2.5294
  22
-0.8297
  13
-2.4428
  23
-0.8297
  0
SOLID
  8
Top_Paste
  10
-2.5294
  20
-0.8561
  11
-2.4428
  21
-0.8561
  12
-2.5294
  22
-0.8797
  13
-2.4428
  23
-0.8797
  0
SOLID
  8
Top_Paste
  10
-2.5294
  20
-0.9061
  11
-2.4428
  21
-0.9061
  12
-2.5294
  22
-0.9297
  13
-2.4428
  23
-0.9297
  0
SOLID
  8
Top_Paste
  10
-2.5294
  20
-0.9561
  11
-2.4428
  21
-0.9561
  12
-2.5294
  22
-0.9797
  13
-2.4428
  23
-0.9797
  0
SOLID
  8
Top_Paste
  10
-2.5294
  20
-1.0061
  11
-2.4428
  21
-1.0061
  12
-2.5294
  22
-1.0297
  13
-2.4428
  23
-1.0297
  0
SOLID
  8
Top_Paste
  10
-2.5294
  20
-1.0561
  11
-2.4428
  21
-1.0561
  12
-2.5294
  22
-1.0797
  13
-2.4428
  23
-1.0797
  0
SOLID
  8
Top_Paste
  10
-2.5294
  20
-1.1061
  11
-2.4428
  21
-1.1061
  12
-2.5294
  22
-1.1297
  13
-2.4428
  23
-1.1297
  0
SOLID
  8
Top_Paste
  10
-2.1672
  20
-1.1061
  11
-2.0806
  21
-1.1061
  12
-2.1672
  22
-1.1297
  13
-2.0806
  23
-1.1297
  0
SOLID
  8
Top_Paste
  10
-2.1672
  20
-1.0561
  11
-2.0806
  21
-1.0561
  12
-2.1672
  22
-1.0797
  13
-2.0806
  23
-1.0797
  0
SOLID
  8
Top_Paste
  10
-2.1672
  20
-1.0061
  11
-2.0806
  21
-1.0061
  12
-2.1672
  22
-1.0297
  13
-2.0806
  23
-1.0297
  0
SOLID
  8
Top_Paste
  10
-2.1672
  20
-0.9561
  11
-2.0806
  21
-0.9561
  12
-2.1672
  22
-0.9797
  13
-2.0806
  23
-0.9797
  0
SOLID
  8
Top_Paste
  10
-2.1672
  20
-0.9061
  11
-2.0806
  21
-0.9061
  12
-2.1672
  22
-0.9297
  13
-2.0806
  23
-0.9297
  0
SOLID
  8
Top_Paste
  10
-2.1672
  20
-0.8561
  11
-2.0806
  21
-0.8561
  12
-2.1672
  22
-0.8797
  13
-2.0806
  23
-0.8797
  0
SOLID
  8
Top_Paste
  10
-2.1672
  20
-0.8061
  11
-2.0806
  21
-0.8061
  12
-2.1672
  22
-0.8297
  13
-2.0806
  23
-0.8297
  0
SOLID
  8
Top_Paste
  10
-1.251
  20
-1.8249
  11
-1.1584
  21
-1.8249
  12
-1.251
  22
-1.8486
  13
-1.1584
  23
-1.8486
  0
SOLID
  8
Top_Paste
  10
-1.251
  20
-1.8749
  11
-1.1584
  21
-1.8749
  12
-1.251
  22
-1.8986
  13
-1.1584
  23
-1.8986
  0
SOLID
  8
Top_Paste
  10
-1.251
  20
-1.9249
  11
-1.1584
  21
-1.9249
  12
-1.251
  22
-1.9486
  13
-1.1584
  23
-1.9486
  0
SOLID
  8
Top_Paste
  10
-1.251
  20
-1.9749
  11
-1.1584
  21
-1.9749
  12
-1.251
  22
-1.9986
  13
-1.1584
  23
-1.9986
  0
SOLID
  8
Top_Paste
  10
-1.251
  20
-2.0249
  11
-1.1584
  21
-2.0249
  12
-1.251
  22
-2.0486
  13
-1.1584
  23
-2.0486
  0
SOLID
  8
Top_Paste
  10
-1.251
  20
-2.0749
  11
-1.1584
  21
-2.0749
  12
-1.251
  22
-2.0986
  13
-1.1584
  23
-2.0986
  0
SOLID
  8
Top_Paste
  10
-1.251
  20
-2.1249
  11
-1.1584
  21
-2.1249
  12
-1.251
  22
-2.1486
  13
-1.1584
  23
-2.1486
  0
SOLID
  8
Top_Paste
  10
-1.251
  20
-2.1749
  11
-1.1584
  21
-2.1749
  12
-1.251
  22
-2.1986
  13
-1.1584
  23
-2.1986
  0
SOLID
  8
Top_Paste
  10
-0.8553
  20
-2.1749
  11
-0.7628
  21
-2.1749
  12
-0.8553
  22
-2.1986
  13
-0.7628
  23
-2.1986
  0
SOLID
  8
Top_Paste
  10
-0.8553
  20
-2.1249
  11
-0.7628
  21
-2.1249
  12
-0.8553
  22
-2.1486
  13
-0.7628
  23
-2.1486
  0
SOLID
  8
Top_Paste
  10
-0.8553
  20
-2.0749
  11
-0.7628
  21
-2.0749
  12
-0.8553
  22
-2.0986
  13
-0.7628
  23
-2.0986
  0
SOLID
  8
Top_Paste
  10
-0.8553
  20
-2.0249
  11
-0.7628
  21
-2.0249
  12
-0.8553
  22
-2.0486
  13
-0.7628
  23
-2.0486
  0
SOLID
  8
Top_Paste
  10
-0.8553
  20
-1.9749
  11
-0.7628
  21
-1.9749
  12
-0.8553
  22
-1.9986
  13
-0.7628
  23
-1.9986
  0
SOLID
  8
Top_Paste
  10
-0.8553
  20
-1.9249
  11
-0.7628
  21
-1.9249
  12
-0.8553
  22
-1.9486
  13
-0.7628
  23
-1.9486
  0
SOLID
  8
Top_Paste
  10
-0.8553
  20
-1.8749
  11
-0.7628
  21
-1.8749
  12
-0.8553
  22
-1.8986
  13
-0.7628
  23
-1.8986
  0
SOLID
  8
Top_Paste
  10
-0.8553
  20
-1.8249
  11
-0.7628
  21
-1.8249
  12
-0.8553
  22
-1.8486
  13
-0.7628
  23
-1.8486
  0
SOLID
  8
Top_Paste
  10
-3.1183
  20
-3.6939
  11
-3.0415
  21
-3.6939
  12
-3.1183
  22
-3.7175
  13
-3.0415
  23
-3.7175
  0
SOLID
  8
Top_Paste
  10
-3.1183
  20
-3.7439
  11
-3.0415
  21
-3.7439
  12
-3.1183
  22
-3.7675
  13
-3.0415
  23
-3.7675
  0
SOLID
  8
Top_Paste
  10
-3.1183
  20
-3.7939
  11
-3.0415
  21
-3.7939
  12
-3.1183
  22
-3.8175
  13
-3.0415
  23
-3.8175
  0
SOLID
  8
Top_Paste
  10
-3.1183
  20
-3.8439
  11
-3.0415
  21
-3.8439
  12
-3.1183
  22
-3.8675
  13
-3.0415
  23
-3.8675
  0
SOLID
  8
Top_Paste
  10
-2.8486
  20
-3.8439
  11
-2.7718
  21
-3.8439
  12
-2.8486
  22
-3.8675
  13
-2.7718
  23
-3.8675
  0
SOLID
  8
Top_Paste
  10
-2.8486
  20
-3.7939
  11
-2.7718
  21
-3.7939
  12
-2.8486
  22
-3.8175
  13
-2.7718
  23
-3.8175
  0
SOLID
  8
Top_Paste
  10
-2.8486
  20
-3.7439
  11
-2.7718
  21
-3.7439
  12
-2.8486
  22
-3.7675
  13
-2.7718
  23
-3.7675
  0
SOLID
  8
Top_Paste
  10
-2.8486
  20
-3.6939
  11
-2.7718
  21
-3.6939
  12
-2.8486
  22
-3.7175
  13
-2.7718
  23
-3.7175
  0
SOLID
  8
Top_Paste
  10
-2.9794
  20
-1.7188
  11
-2.8928
  21
-1.7188
  12
-2.9794
  22
-1.7424
  13
-2.8928
  23
-1.7424
  0
SOLID
  8
Top_Paste
  10
-2.9794
  20
-1.7688
  11
-2.8928
  21
-1.7688
  12
-2.9794
  22
-1.7924
  13
-2.8928
  23
-1.7924
  0
SOLID
  8
Top_Paste
  10
-2.9794
  20
-1.8188
  11
-2.8928
  21
-1.8188
  12
-2.9794
  22
-1.8424
  13
-2.8928
  23
-1.8424
  0
SOLID
  8
Top_Paste
  10
-2.9794
  20
-1.8688
  11
-2.8928
  21
-1.8688
  12
-2.9794
  22
-1.8924
  13
-2.8928
  23
-1.8924
  0
SOLID
  8
Top_Paste
  10
-2.9794
  20
-1.9188
  11
-2.8928
  21
-1.9188
  12
-2.9794
  22
-1.9424
  13
-2.8928
  23
-1.9424
  0
SOLID
  8
Top_Paste
  10
-2.9794
  20
-1.9688
  11
-2.8928
  21
-1.9688
  12
-2.9794
  22
-1.9924
  13
-2.8928
  23
-1.9924
  0
SOLID
  8
Top_Paste
  10
-2.9794
  20
-2.0188
  11
-2.8928
  21
-2.0188
  12
-2.9794
  22
-2.0424
  13
-2.8928
  23
-2.0424
  0
SOLID
  8
Top_Paste
  10
-2.9794
  20
-2.0688
  11
-2.8928
  21
-2.0688
  12
-2.9794
  22
-2.0924
  13
-2.8928
  23
-2.0924
  0
SOLID
  8
Top_Paste
  10
-2.9794
  20
-2.1188
  11
-2.8928
  21
-2.1188
  12
-2.9794
  22
-2.1424
  13
-2.8928
  23
-2.1424
  0
SOLID
  8
Top_Paste
  10
-2.9794
  20
-2.1688
  11
-2.8928
  21
-2.1688
  12
-2.9794
  22
-2.1924
  13
-2.8928
  23
-2.1924
  0
SOLID
  8
Top_Paste
  10
-2.9794
  20
-2.2188
  11
-2.8928
  21
-2.2188
  12
-2.9794
  22
-2.2424
  13
-2.8928
  23
-2.2424
  0
SOLID
  8
Top_Paste
  10
-2.9794
  20
-2.2688
  11
-2.8928
  21
-2.2688
  12
-2.9794
  22
-2.2924
  13
-2.8928
  23
-2.2924
  0
SOLID
  8
Top_Paste
  10
-2.9794
  20
-2.3188
  11
-2.8928
  21
-2.3188
  12
-2.9794
  22
-2.3424
  13
-2.8928
  23
-2.3424
  0
SOLID
  8
Top_Paste
  10
-2.9794
  20
-2.3688
  11
-2.8928
  21
-2.3688
  12
-2.9794
  22
-2.3924
  13
-2.8928
  23
-2.3924
  0
SOLID
  8
Top_Paste
  10
-2.5995
  20
-2.3688
  11
-2.5129
  21
-2.3688
  12
-2.5995
  22
-2.3924
  13
-2.5129
  23
-2.3924
  0
SOLID
  8
Top_Paste
  10
-2.5995
  20
-2.3188
  11
-2.5129
  21
-2.3188
  12
-2.5995
  22
-2.3424
  13
-2.5129
  23
-2.3424
  0
SOLID
  8
Top_Paste
  10
-2.5995
  20
-2.2688
  11
-2.5129
  21
-2.2688
  12
-2.5995
  22
-2.2924
  13
-2.5129
  23
-2.2924
  0
SOLID
  8
Top_Paste
  10
-2.5995
  20
-2.2188
  11
-2.5129
  21
-2.2188
  12
-2.5995
  22
-2.2424
  13
-2.5129
  23
-2.2424
  0
SOLID
  8
Top_Paste
  10
-2.5995
  20
-2.1688
  11
-2.5129
  21
-2.1688
  12
-2.5995
  22
-2.1924
  13
-2.5129
  23
-2.1924
  0
SOLID
  8
Top_Paste
  10
-2.5995
  20
-2.1188
  11
-2.5129
  21
-2.1188
  12
-2.5995
  22
-2.1424
  13
-2.5129
  23
-2.1424
  0
SOLID
  8
Top_Paste
  10
-2.5995
  20
-2.0688
  11
-2.5129
  21
-2.0688
  12
-2.5995
  22
-2.0924
  13
-2.5129
  23
-2.0924
  0
SOLID
  8
Top_Paste
  10
-2.5995
  20
-2.0188
  11
-2.5129
  21
-2.0188
  12
-2.5995
  22
-2.0424
  13
-2.5129
  23
-2.0424
  0
SOLID
  8
Top_Paste
  10
-2.5995
  20
-1.9688
  11
-2.5129
  21
-1.9688
  12
-2.5995
  22
-1.9924
  13
-2.5129
  23
-1.9924
  0
SOLID
  8
Top_Paste
  10
-2.5995
  20
-1.9188
  11
-2.5129
  21
-1.9188
  12
-2.5995
  22
-1.9424
  13
-2.5129
  23
-1.9424
  0
SOLID
  8
Top_Paste
  10
-2.5995
  20
-1.8688
  11
-2.5129
  21
-1.8688
  12
-2.5995
  22
-1.8924
  13
-2.5129
  23
-1.8924
  0
SOLID
  8
Top_Paste
  10
-2.5995
  20
-1.8188
  11
-2.5129
  21
-1.8188
  12
-2.5995
  22
-1.8424
  13
-2.5129
  23
-1.8424
  0
SOLID
  8
Top_Paste
  10
-2.5995
  20
-1.7688
  11
-2.5129
  21
-1.7688
  12
-2.5995
  22
-1.7924
  13
-2.5129
  23
-1.7924
  0
SOLID
  8
Top_Paste
  10
-2.5995
  20
-1.7188
  11
-2.5129
  21
-1.7188
  12
-2.5995
  22
-1.7424
  13
-2.5129
  23
-1.7424
  0
SOLID
  8
Top_Paste
  10
-2.037
  20
-1.8678
  11
-1.9976
  21
-1.8678
  12
-2.037
  22
-1.9308
  13
-1.9976
  23
-1.9308
  0
SOLID
  8
Top_Paste
  10
-1.8598
  20
-1.8678
  11
-1.8204
  21
-1.8678
  12
-1.8598
  22
-1.9308
  13
-1.8204
  23
-1.9308
  0
SOLID
  8
Top_Paste
  10
-2.037
  20
-1.5016
  11
-1.8204
  21
-1.5016
  12
-2.037
  22
-1.7142
  13
-1.8204
  23
-1.7142
  0
SOLID
  8
Top_Paste
  10
-3.4757
  20
-2.9538
  11
-3.2592
  21
-2.9538
  12
-3.4757
  22
-3.0325
  13
-3.2592
  23
-3.0325
  0
SOLID
  8
Top_Paste
  10
-3.1017
  20
-2.9538
  11
-2.8851
  21
-2.9538
  12
-3.1017
  22
-3.0325
  13
-2.8851
  23
-3.0325
  0
SOLID
  8
Top_Paste
  10
-3.4883
  20
-1.6283
  11
-3.4528
  21
-1.6283
  12
-3.4883
  22
-1.6597
  13
-3.4528
  23
-1.6597
  0
SOLID
  8
Top_Paste
  10
-3.4332
  20
-1.6283
  11
-3.3977
  21
-1.6283
  12
-3.4332
  22
-1.6597
  13
-3.3977
  23
-1.6597
  0
SOLID
  8
Top_Paste
  10
-3.118
  20
-1.4135
  11
-3.0668
  21
-1.4135
  12
-3.118
  22
-1.4725
  13
-3.0668
  23
-1.4725
  0
SOLID
  8
Top_Paste
  10
-3.0432
  20
-1.4135
  11
-2.992
  21
-1.4135
  12
-3.0432
  22
-1.4725
  13
-2.992
  23
-1.4725
  0
SOLID
  8
Top_Paste
  10
-3.312
  20
-1.5135
  11
-3.2608
  21
-1.5135
  12
-3.312
  22
-1.5725
  13
-3.2608
  23
-1.5725
  0
SOLID
  8
Top_Paste
  10
-3.2372
  20
-1.5135
  11
-3.186
  21
-1.5135
  12
-3.2372
  22
-1.5725
  13
-3.186
  23
-1.5725
  0
SOLID
  8
Top_Paste
  10
-3.9306
  20
-1.6635
  11
-3.8794
  21
-1.6635
  12
-3.9306
  22
-1.7225
  13
-3.8794
  23
-1.7225
  0
SOLID
  8
Top_Paste
  10
-3.8558
  20
-1.6635
  11
-3.8046
  21
-1.6635
  12
-3.8558
  22
-1.7225
  13
-3.8046
  23
-1.7225
  0
SOLID
  8
Top_Paste
  10
-3.9243
  20
-2.4385
  11
-3.8731
  21
-2.4385
  12
-3.9243
  22
-2.4976
  13
-3.8731
  23
-2.4976
  0
SOLID
  8
Top_Paste
  10
-3.8495
  20
-2.4385
  11
-3.7983
  21
-2.4385
  12
-3.8495
  22
-2.4976
  13
-3.7983
  23
-2.4976
  0
SOLID
  8
Top_Paste
  10
-3.349
  20
-2.4635
  11
-3.2978
  21
-2.4635
  12
-3.349
  22
-2.5225
  13
-3.2978
  23
-2.5225
  0
SOLID
  8
Top_Paste
  10
-3.2742
  20
-2.4635
  11
-3.223
  21
-2.4635
  12
-3.2742
  22
-2.5225
  13
-3.223
  23
-2.5225
  0
SOLID
  8
Top_Paste
  10
-3.349
  20
-2.5385
  11
-3.2978
  21
-2.5385
  12
-3.349
  22
-2.5975
  13
-3.2978
  23
-2.5975
  0
SOLID
  8
Top_Paste
  10
-3.2742
  20
-2.5385
  11
-3.223
  21
-2.5385
  12
-3.2742
  22
-2.5975
  13
-3.223
  23
-2.5975
  0
SOLID
  8
Top_Paste
  10
-3.4537
  20
-2.4651
  11
-3.3937
  21
-2.4651
  12
-3.4537
  22
-2.5211
  13
-3.3937
  23
-2.5211
  0
SOLID
  8
Top_Paste
  10
-3.5437
  20
-2.4651
  11
-3.4837
  21
-2.4651
  12
-3.5437
  22
-2.5211
  13
-3.4837
  23
-2.5211
  0
SOLID
  8
Top_Paste
  10
-3.229
  20
-1.415
  11
-3.169
  21
-1.415
  12
-3.229
  22
-1.471
  13
-3.169
  23
-1.471
  0
SOLID
  8
Top_Paste
  10
-3.319
  20
-1.415
  11
-3.259
  21
-1.415
  12
-3.319
  22
-1.471
  13
-3.259
  23
-1.471
  0
SOLID
  8
Top_Paste
  10
1.5927
  20
-2.0141
  11
1.6636
  21
-2.0141
  12
1.5927
  22
-2.081
  13
1.6636
  23
-2.081
  0
SOLID
  8
Top_Paste
  10
1.5927
  20
-1.8448
  11
1.6636
  21
-1.8448
  12
1.5927
  22
-1.9117
  13
1.6636
  23
-1.9117
  0
SOLID
  8
Top_Paste
  10
0.9209
  20
-3.984
  11
0.9809
  21
-3.984
  12
0.9209
  22
-4.04
  13
0.9809
  23
-4.04
  0
SOLID
  8
Top_Paste
  10
1.0109
  20
-3.984
  11
1.0709
  21
-3.984
  12
1.0109
  22
-4.04
  13
1.0709
  23
-4.04
  0
SOLID
  8
Top_Paste
  10
3.0794
  20
-1.6158
  11
3.1394
  21
-1.6158
  12
3.0794
  22
-1.6718
  13
3.1394
  23
-1.6718
  0
SOLID
  8
Top_Paste
  10
3.1694
  20
-1.6158
  11
3.2294
  21
-1.6158
  12
3.1694
  22
-1.6718
  13
3.2294
  23
-1.6718
  0
SOLID
  8
Top_Paste
  10
1.2229
  20
-3.1819
  11
1.2789
  21
-3.1819
  12
1.2229
  22
-3.2419
  13
1.2789
  23
-3.2419
  0
SOLID
  8
Top_Paste
  10
1.2229
  20
-3.0919
  11
1.2789
  21
-3.0919
  12
1.2229
  22
-3.1519
  13
1.2789
  23
-3.1519
  0
SOLID
  8
Top_Paste
  10
0.5488
  20
-3.19
  11
0.6088
  21
-3.19
  12
0.5488
  22
-3.246
  13
0.6088
  23
-3.246
  0
SOLID
  8
Top_Paste
  10
0.6388
  20
-3.19
  11
0.6988
  21
-3.19
  12
0.6388
  22
-3.246
  13
0.6988
  23
-3.246
  0
SOLID
  8
Top_Paste
  10
2.9669
  20
-1.6158
  11
3.0269
  21
-1.6158
  12
2.9669
  22
-1.6718
  13
3.0269
  23
-1.6718
  0
SOLID
  8
Top_Paste
  10
2.8769
  20
-1.6158
  11
2.9369
  21
-1.6158
  12
2.8769
  22
-1.6718
  13
2.9369
  23
-1.6718
  0
SOLID
  8
Top_Paste
  10
2.519
  20
-1.726
  11
2.575
  21
-1.726
  12
2.519
  22
-1.786
  13
2.575
  23
-1.786
  0
SOLID
  8
Top_Paste
  10
2.519
  20
-1.816
  11
2.575
  21
-1.816
  12
2.519
  22
-1.876
  13
2.575
  23
-1.876
  0
SOLID
  8
Top_Paste
  10
2.5189
  20
-1.9263
  11
2.5749
  21
-1.9263
  12
2.5189
  22
-1.9863
  13
2.5749
  23
-1.9863
  0
SOLID
  8
Top_Paste
  10
2.5189
  20
-2.0163
  11
2.5749
  21
-2.0163
  12
2.5189
  22
-2.0763
  13
2.5749
  23
-2.0763
  0
SOLID
  8
Top_Paste
  10
2.5189
  20
-2.2201
  11
2.5749
  21
-2.2201
  12
2.5189
  22
-2.2801
  13
2.5749
  23
-2.2801
  0
SOLID
  8
Top_Paste
  10
2.5189
  20
-2.1301
  11
2.5749
  21
-2.1301
  12
2.5189
  22
-2.1901
  13
2.5749
  23
-2.1901
  0
SOLID
  8
Top_Paste
  10
2.6794
  20
-1.6158
  11
2.7394
  21
-1.6158
  12
2.6794
  22
-1.6718
  13
2.7394
  23
-1.6718
  0
SOLID
  8
Top_Paste
  10
2.7694
  20
-1.6158
  11
2.8294
  21
-1.6158
  12
2.7694
  22
-1.6718
  13
2.8294
  23
-1.6718
  0
SOLID
  8
Top_Paste
  10
1.979
  20
-3.176
  11
2.035
  21
-3.176
  12
1.979
  22
-3.236
  13
2.035
  23
-3.236
  0
SOLID
  8
Top_Paste
  10
1.979
  20
-3.086
  11
2.035
  21
-3.086
  12
1.979
  22
-3.146
  13
2.035
  23
-3.146
  0
SOLID
  8
Top_Paste
  10
0.4396
  20
-2.7339
  11
0.4996
  21
-2.7339
  12
0.4396
  22
-2.7899
  13
0.4996
  23
-2.7899
  0
SOLID
  8
Top_Paste
  10
0.5296
  20
-2.7339
  11
0.5896
  21
-2.7339
  12
0.5296
  22
-2.7899
  13
0.5896
  23
-2.7899
  0
SOLID
  8
Top_Paste
  10
0.9084
  20
-3.4402
  11
0.9684
  21
-3.4402
  12
0.9084
  22
-3.4962
  13
0.9684
  23
-3.4962
  0
SOLID
  8
Top_Paste
  10
0.9984
  20
-3.4402
  11
1.0584
  21
-3.4402
  12
0.9984
  22
-3.4962
  13
1.0584
  23
-3.4962
  0
SOLID
  8
Top_Paste
  10
1.2159
  20
-0.9776
  11
1.2359
  21
-0.9776
  12
1.2159
  22
-1.0957
  13
1.2359
  23
-1.0957
  0
SOLID
  8
Top_Paste
  10
1.2159
  20
-1.1745
  11
1.2359
  21
-1.1745
  12
1.2159
  22
-1.2926
  13
1.2359
  23
-1.2926
  0
SOLID
  8
Top_Paste
  10
1.4647
  20
-1.2899
  11
1.5247
  21
-1.2899
  12
1.4647
  22
-1.3459
  13
1.5247
  23
-1.3459
  0
SOLID
  8
Top_Paste
  10
1.3747
  20
-1.2899
  11
1.4347
  21
-1.2899
  12
1.3747
  22
-1.3459
  13
1.4347
  23
-1.3459
  0
SOLID
  8
Top_Paste
  10
2.6488
  20
-0.7793
  11
2.6783
  21
-0.7793
  12
2.6488
  22
-0.9565
  13
2.6783
  23
-0.9565
  0
SOLID
  8
Top_Paste
  10
2.6488
  20
-1.0155
  11
2.6783
  21
-1.0155
  12
2.6488
  22
-1.1927
  13
2.6783
  23
-1.1927
  0
SOLID
  8
Top_Paste
  10
3.2524
  20
-1.2024
  11
3.3124
  21
-1.2024
  12
3.2524
  22
-1.2584
  13
3.3124
  23
-1.2584
  0
SOLID
  8
Top_Paste
  10
3.1624
  20
-1.2024
  11
3.2224
  21
-1.2024
  12
3.1624
  22
-1.2584
  13
3.2224
  23
-1.2584
  0
SOLID
  8
Top_Paste
  10
0.8926
  20
-3.1962
  11
0.9526
  21
-3.1962
  12
0.8926
  22
-3.2522
  13
0.9526
  23
-3.2522
  0
SOLID
  8
Top_Paste
  10
0.8026
  20
-3.1962
  11
0.8626
  21
-3.1962
  12
0.8026
  22
-3.2522
  13
0.8626
  23
-3.2522
  0
SOLID
  8
Top_Paste
  10
2.8988
  20
-0.7793
  11
2.9283
  21
-0.7793
  12
2.8988
  22
-0.9565
  13
2.9283
  23
-0.9565
  0
SOLID
  8
Top_Paste
  10
2.8988
  20
-1.0155
  11
2.9283
  21
-1.0155
  12
2.8988
  22
-1.1927
  13
2.9283
  23
-1.1927
  0
SOLID
  8
Top_Paste
  10
3.1349
  20
-0.8088
  11
3.1549
  21
-0.8088
  12
3.1349
  22
-0.927
  13
3.1549
  23
-0.927
  0
SOLID
  8
Top_Paste
  10
3.1349
  20
-1.0057
  11
3.1549
  21
-1.0057
  12
3.1349
  22
-1.1238
  13
3.1549
  23
-1.1238
  0
SOLID
  8
Top_Paste
  10
1.0096
  20
-0.9776
  11
1.0296
  21
-0.9776
  12
1.0096
  22
-1.0957
  13
1.0296
  23
-1.0957
  0
SOLID
  8
Top_Paste
  10
1.0096
  20
-1.1745
  11
1.0296
  21
-1.1745
  12
1.0096
  22
-1.2926
  13
1.0296
  23
-1.2926
  0
SOLID
  8
Top_Paste
  10
0.8034
  20
-0.9776
  11
0.8234
  21
-0.9776
  12
0.8034
  22
-1.0957
  13
0.8234
  23
-1.0957
  0
SOLID
  8
Top_Paste
  10
0.8034
  20
-1.1745
  11
0.8234
  21
-1.1745
  12
0.8034
  22
-1.2926
  13
0.8234
  23
-1.2926
  0
SOLID
  8
Top_Paste
  10
3.3474
  20
-0.8088
  11
3.3674
  21
-0.8088
  12
3.3474
  22
-0.927
  13
3.3674
  23
-0.927
  0
SOLID
  8
Top_Paste
  10
3.3474
  20
-1.0057
  11
3.3674
  21
-1.0057
  12
3.3474
  22
-1.1238
  13
3.3674
  23
-1.1238
  0
SOLID
  8
Top_Paste
  10
1.5772
  20
-2.115
  11
1.6372
  21
-2.115
  12
1.5772
  22
-2.171
  13
1.6372
  23
-2.171
  0
SOLID
  8
Top_Paste
  10
1.6672
  20
-2.115
  11
1.7272
  21
-2.115
  12
1.6672
  22
-2.171
  13
1.7272
  23
-2.171
  0
SOLID
  8
Top_Paste
  10
1.5709
  20
-1.7525
  11
1.6309
  21
-1.7525
  12
1.5709
  22
-1.8085
  13
1.6309
  23
-1.8085
  0
SOLID
  8
Top_Paste
  10
1.6609
  20
-1.7525
  11
1.7209
  21
-1.7525
  12
1.6609
  22
-1.8085
  13
1.7209
  23
-1.8085
  0
SOLID
  8
Top_Paste
  10
0.8084
  20
-1.5087
  11
0.8684
  21
-1.5087
  12
0.8084
  22
-1.5647
  13
0.8684
  23
-1.5647
  0
SOLID
  8
Top_Paste
  10
0.8984
  20
-1.5087
  11
0.9584
  21
-1.5087
  12
0.8984
  22
-1.5647
  13
0.9584
  23
-1.5647
  0
SOLID
  8
Top_Paste
  10
0.746
  20
-2.465
  11
0.806
  21
-2.465
  12
0.746
  22
-2.521
  13
0.806
  23
-2.521
  0
SOLID
  8
Top_Paste
  10
0.836
  20
-2.465
  11
0.896
  21
-2.465
  12
0.836
  22
-2.521
  13
0.896
  23
-2.521
  0
SOLID
  8
Top_Paste
  10
1.4397
  20
-2.4713
  11
1.4997
  21
-2.4713
  12
1.4397
  22
-2.5273
  13
1.4997
  23
-2.5273
  0
SOLID
  8
Top_Paste
  10
1.5297
  20
-2.4713
  11
1.5897
  21
-2.4713
  12
1.5297
  22
-2.5273
  13
1.5897
  23
-2.5273
  0
SOLID
  8
Top_Paste
  10
1.5709
  20
-1.5462
  11
1.6309
  21
-1.5462
  12
1.5709
  22
-1.6022
  13
1.6309
  23
-1.6022
  0
SOLID
  8
Top_Paste
  10
1.6609
  20
-1.5462
  11
1.7209
  21
-1.5462
  12
1.6609
  22
-1.6022
  13
1.7209
  23
-1.6022
  0
SOLID
  8
Top_Paste
  10
1.0981
  20
-1.4955
  11
1.2162
  21
-1.4955
  12
1.0981
  22
-1.5155
  13
1.2162
  23
-1.5155
  0
SOLID
  8
Top_Paste
  10
1.2949
  20
-1.4955
  11
1.413
  21
-1.4955
  12
1.2949
  22
-1.5155
  13
1.413
  23
-1.5155
  0
SOLID
  8
Top_Paste
  10
2.1855
  20
-1.7692
  11
2.2415
  21
-1.7692
  12
2.1855
  22
-1.8292
  13
2.2415
  23
-1.8292
  0
SOLID
  8
Top_Paste
  10
2.1855
  20
-1.6792
  11
2.2415
  21
-1.6792
  12
2.1855
  22
-1.7392
  13
2.2415
  23
-1.7392
  0
SOLID
  8
Top_Paste
  10
2.2368
  20
-3.3064
  11
2.288
  21
-3.3064
  12
2.2368
  22
-3.3398
  13
2.288
  23
-3.3398
  0
SOLID
  8
Top_Paste
  10
2.2368
  20
-3.3812
  11
2.288
  21
-3.3812
  12
2.2368
  22
-3.4146
  13
2.288
  23
-3.4146
  0
SOLID
  8
Top_Paste
  10
2.3235
  20
-3.3438
  11
2.3746
  21
-3.3438
  12
2.3235
  22
-3.3772
  13
2.3746
  23
-3.3772
  0
SOLID
  8
Top_Paste
  10
0.4557
  20
-1.3102
  11
0.5463
  21
-1.3102
  12
0.4557
  22
-1.4008
  13
0.5463
  23
-1.4008
  0
SOLID
  8
Top_Paste
  10
0.4557
  20
-1.133
  11
0.5463
  21
-1.133
  12
0.4557
  22
-1.2236
  13
0.5463
  23
-1.2236
  0
SOLID
  8
Top_Paste
  10
2.7973
  20
-2.3593
  11
2.8673
  21
-2.3593
  12
2.7973
  22
-2.3893
  13
2.8673
  23
-2.3893
  0
POLYLINE
  8
Top_Paste
  6
CONTINUOUS
  66
1
  70
0
  40
0.015
  41
0.015
  0
VERTEX
  8
Top_Paste
  10
2.9468
  20
-2.3743
  42
1
  0
VERTEX
  8
Top_Paste
  10
2.9618
  20
-2.3743
  42
1
  0
VERTEX
  8
Top_Paste
  10
2.9468
  20
-2.3743
  42
1
  0
SEQEND
  0
POLYLINE
  8
Top_Paste
  6
CONTINUOUS
  66
1
  70
0
  40
0.015
  41
0.015
  0
VERTEX
  8
Top_Paste
  10
2.9868
  20
-2.3743
  42
1
  0
VERTEX
  8
Top_Paste
  10
3.0018
  20
-2.3743
  42
1
  0
VERTEX
  8
Top_Paste
  10
2.9868
  20
-2.3743
  42
1
  0
SEQEND
  0
SOLID
  8
Top_Paste
  10
2.9543
  20
-2.3593
  11
2.9943
  21
-2.3593
  12
2.9543
  22
-2.3893
  13
2.9943
  23
-2.3893
  0
SOLID
  8
Top_Paste
  10
2.7973
  20
-2.4968
  11
2.8673
  21
-2.4968
  12
2.7973
  22
-2.5268
  13
2.8673
  23
-2.5268
  0
POLYLINE
  8
Top_Paste
  6
CONTINUOUS
  66
1
  70
0
  40
0.015
  41
0.015
  0
VERTEX
  8
Top_Paste
  10
2.9468
  20
-2.5118
  42
1
  0
VERTEX
  8
Top_Paste
  10
2.9618
  20
-2.5118
  42
1
  0
VERTEX
  8
Top_Paste
  10
2.9468
  20
-2.5118
  42
1
  0
SEQEND
  0
POLYLINE
  8
Top_Paste
  6
CONTINUOUS
  66
1
  70
0
  40
0.015
  41
0.015
  0
VERTEX
  8
Top_Paste
  10
2.9868
  20
-2.5118
  42
1
  0
VERTEX
  8
Top_Paste
  10
3.0018
  20
-2.5118
  42
1
  0
VERTEX
  8
Top_Paste
  10
2.9868
  20
-2.5118
  42
1
  0
SEQEND
  0
SOLID
  8
Top_Paste
  10
2.9543
  20
-2.4968
  11
2.9943
  21
-2.4968
  12
2.9543
  22
-2.5268
  13
2.9943
  23
-2.5268
  0
SOLID
  8
Top_Paste
  10
1.2847
  20
-3.6908
  11
1.3547
  21
-3.6908
  12
1.2847
  22
-3.7208
  13
1.3547
  23
-3.7208
  0
POLYLINE
  8
Top_Paste
  6
CONTINUOUS
  66
1
  70
0
  40
0.015
  41
0.015
  0
VERTEX
  8
Top_Paste
  10
1.4342
  20
-3.7058
  42
1
  0
VERTEX
  8
Top_Paste
  10
1.4492
  20
-3.7058
  42
1
  0
VERTEX
  8
Top_Paste
  10
1.4342
  20
-3.7058
  42
1
  0
SEQEND
  0
POLYLINE
  8
Top_Paste
  6
CONTINUOUS
  66
1
  70
0
  40
0.015
  41
0.015
  0
VERTEX
  8
Top_Paste
  10
1.4742
  20
-3.7058
  42
1
  0
VERTEX
  8
Top_Paste
  10
1.4892
  20
-3.7058
  42
1
  0
VERTEX
  8
Top_Paste
  10
1.4742
  20
-3.7058
  42
1
  0
SEQEND
  0
SOLID
  8
Top_Paste
  10
1.4417
  20
-3.6908
  11
1.4817
  21
-3.6908
  12
1.4417
  22
-3.7208
  13
1.4817
  23
-3.7208
  0
SOLID
  8
Top_Paste
  10
1.8057
  20
-1.2602
  11
1.8962
  21
-1.2602
  12
1.8057
  22
-1.3507
  13
1.8962
  23
-1.3507
  0
SOLID
  8
Top_Paste
  10
1.6285
  20
-1.2602
  11
1.7191
  21
-1.2602
  12
1.6285
  22
-1.3507
  13
1.7191
  23
-1.3507
  0
SOLID
  8
Top_Paste
  10
1.2847
  20
-3.8282
  11
1.3547
  21
-3.8282
  12
1.2847
  22
-3.8582
  13
1.3547
  23
-3.8582
  0
POLYLINE
  8
Top_Paste
  6
CONTINUOUS
  66
1
  70
0
  40
0.015
  41
0.015
  0
VERTEX
  8
Top_Paste
  10
1.4341
  20
-3.8432
  42
1
  0
VERTEX
  8
Top_Paste
  10
1.4491
  20
-3.8432
  42
1
  0
VERTEX
  8
Top_Paste
  10
1.4341
  20
-3.8432
  42
1
  0
SEQEND
  0
POLYLINE
  8
Top_Paste
  6
CONTINUOUS
  66
1
  70
0
  40
0.015
  41
0.015
  0
VERTEX
  8
Top_Paste
  10
1.4741
  20
-3.8432
  42
1
  0
VERTEX
  8
Top_Paste
  10
1.4891
  20
-3.8432
  42
1
  0
VERTEX
  8
Top_Paste
  10
1.4741
  20
-3.8432
  42
1
  0
SEQEND
  0
SOLID
  8
Top_Paste
  10
1.4416
  20
-3.8282
  11
1.4816
  21
-3.8282
  12
1.4416
  22
-3.8582
  13
1.4816
  23
-3.8582
  0
SOLID
  8
Top_Paste
  10
0.2624
  20
-0.7749
  11
0.3017
  21
-0.7749
  12
0.2624
  22
-0.8734
  13
0.3017
  23
-0.8734
  0
SOLID
  8
Top_Paste
  10
0.3805
  20
-0.7749
  11
0.4198
  21
-0.7749
  12
0.3805
  22
-0.8734
  13
0.4198
  23
-0.8734
  0
SOLID
  8
Top_Paste
  10
1.4342
  20
-3.0583
  11
1.5051
  21
-3.0583
  12
1.4342
  22
-3.078
  13
1.5051
  23
-3.078
  0
SOLID
  8
Top_Paste
  10
1.4342
  20
-3.0898
  11
1.5051
  21
-3.0898
  12
1.4342
  22
-3.1095
  13
1.5051
  23
-3.1095
  0
SOLID
  8
Top_Paste
  10
1.4342
  20
-3.1213
  11
1.5051
  21
-3.1213
  12
1.4342
  22
-3.141
  13
1.5051
  23
-3.141
  0
SOLID
  8
Top_Paste
  10
1.4342
  20
-3.1528
  11
1.5051
  21
-3.1528
  12
1.4342
  22
-3.1725
  13
1.5051
  23
-3.1725
  0
SOLID
  8
Top_Paste
  10
1.4342
  20
-3.1843
  11
1.5051
  21
-3.1843
  12
1.4342
  22
-3.204
  13
1.5051
  23
-3.204
  0
SOLID
  8
Top_Paste
  10
1.4342
  20
-3.2158
  11
1.5051
  21
-3.2158
  12
1.4342
  22
-3.2355
  13
1.5051
  23
-3.2355
  0
SOLID
  8
Top_Paste
  10
1.4342
  20
-3.2473
  11
1.5051
  21
-3.2473
  12
1.4342
  22
-3.2669
  13
1.5051
  23
-3.2669
  0
SOLID
  8
Top_Paste
  10
1.4342
  20
-3.2788
  11
1.5051
  21
-3.2788
  12
1.4342
  22
-3.2984
  13
1.5051
  23
-3.2984
  0
SOLID
  8
Top_Paste
  10
1.5192
  20
-3.3119
  11
1.5389
  21
-3.3119
  12
1.5192
  22
-3.3828
  13
1.5389
  23
-3.3828
  0
SOLID
  8
Top_Paste
  10
1.5507
  20
-3.3119
  11
1.5704
  21
-3.3119
  12
1.5507
  22
-3.3828
  13
1.5704
  23
-3.3828
  0
SOLID
  8
Top_Paste
  10
1.5822
  20
-3.3119
  11
1.6019
  21
-3.3119
  12
1.5822
  22
-3.3828
  13
1.6019
  23
-3.3828
  0
SOLID
  8
Top_Paste
  10
1.6137
  20
-3.3119
  11
1.6334
  21
-3.3119
  12
1.6137
  22
-3.3828
  13
1.6334
  23
-3.3828
  0
SOLID
  8
Top_Paste
  10
1.6452
  20
-3.3119
  11
1.6649
  21
-3.3119
  12
1.6452
  22
-3.3828
  13
1.6649
  23
-3.3828
  0
SOLID
  8
Top_Paste
  10
1.6767
  20
-3.3119
  11
1.6964
  21
-3.3119
  12
1.6767
  22
-3.3828
  13
1.6964
  23
-3.3828
  0
SOLID
  8
Top_Paste
  10
1.7082
  20
-3.3119
  11
1.7279
  21
-3.3119
  12
1.7082
  22
-3.3828
  13
1.7279
  23
-3.3828
  0
SOLID
  8
Top_Paste
  10
1.7397
  20
-3.3119
  11
1.7594
  21
-3.3119
  12
1.7397
  22
-3.3828
  13
1.7594
  23
-3.3828
  0
SOLID
  8
Top_Paste
  10
1.7728
  20
-3.2781
  11
1.8437
  21
-3.2781
  12
1.7728
  22
-3.2978
  13
1.8437
  23
-3.2978
  0
SOLID
  8
Top_Paste
  10
1.7728
  20
-3.2466
  11
1.8437
  21
-3.2466
  12
1.7728
  22
-3.2663
  13
1.8437
  23
-3.2663
  0
SOLID
  8
Top_Paste
  10
1.7728
  20
-3.2151
  11
1.8437
  21
-3.2151
  12
1.7728
  22
-3.2348
  13
1.8437
  23
-3.2348
  0
SOLID
  8
Top_Paste
  10
1.7728
  20
-3.1836
  11
1.8437
  21
-3.1836
  12
1.7728
  22
-3.2033
  13
1.8437
  23
-3.2033
  0
SOLID
  8
Top_Paste
  10
1.7728
  20
-3.1521
  11
1.8437
  21
-3.1521
  12
1.7728
  22
-3.1718
  13
1.8437
  23
-3.1718
  0
SOLID
  8
Top_Paste
  10
1.7728
  20
-3.1206
  11
1.8437
  21
-3.1206
  12
1.7728
  22
-3.1403
  13
1.8437
  23
-3.1403
  0
SOLID
  8
Top_Paste
  10
1.7728
  20
-3.0892
  11
1.8437
  21
-3.0892
  12
1.7728
  22
-3.1088
  13
1.8437
  23
-3.1088
  0
SOLID
  8
Top_Paste
  10
1.7728
  20
-3.0577
  11
1.8437
  21
-3.0577
  12
1.7728
  22
-3.0773
  13
1.8437
  23
-3.0773
  0
SOLID
  8
Top_Paste
  10
1.739
  20
-2.9733
  11
1.7587
  21
-2.9733
  12
1.739
  22
-3.0442
  13
1.7587
  23
-3.0442
  0
SOLID
  8
Top_Paste
  10
1.7076
  20
-2.9733
  11
1.7272
  21
-2.9733
  12
1.7076
  22
-3.0442
  13
1.7272
  23
-3.0442
  0
SOLID
  8
Top_Paste
  10
1.6761
  20
-2.9733
  11
1.6957
  21
-2.9733
  12
1.6761
  22
-3.0442
  13
1.6957
  23
-3.0442
  0
SOLID
  8
Top_Paste
  10
1.6446
  20
-2.9733
  11
1.6642
  21
-2.9733
  12
1.6446
  22
-3.0442
  13
1.6642
  23
-3.0442
  0
SOLID
  8
Top_Paste
  10
1.6131
  20
-2.9733
  11
1.6327
  21
-2.9733
  12
1.6131
  22
-3.0442
  13
1.6327
  23
-3.0442
  0
SOLID
  8
Top_Paste
  10
1.5816
  20
-2.9733
  11
1.6013
  21
-2.9733
  12
1.5816
  22
-3.0442
  13
1.6013
  23
-3.0442
  0
SOLID
  8
Top_Paste
  10
1.5501
  20
-2.9733
  11
1.5698
  21
-2.9733
  12
1.5501
  22
-3.0442
  13
1.5698
  23
-3.0442
  0
SOLID
  8
Top_Paste
  10
1.5186
  20
-2.9733
  11
1.5383
  21
-2.9733
  12
1.5186
  22
-3.0442
  13
1.5383
  23
-3.0442
  0
SOLID
  8
Top_Paste
  10
2.3155
  20
-2.8084
  11
2.4116
  21
-2.8084
  12
2.3155
  22
-2.8528
  13
2.4116
  23
-2.8528
  0
SOLID
  8
Top_Paste
  10
1.9769
  20
-2.8084
  11
2.073
  21
-2.8084
  12
1.9769
  22
-2.8528
  13
2.073
  23
-2.8528
  0
SOLID
  8
Top_Paste
  10
2.3155
  20
-2.7084
  11
2.4116
  21
-2.7084
  12
2.3155
  22
-2.7528
  13
2.4116
  23
-2.7528
  0
SOLID
  8
Top_Paste
  10
1.9769
  20
-2.7084
  11
2.073
  21
-2.7084
  12
1.9769
  22
-2.7528
  13
2.073
  23
-2.7528
  0
SOLID
  8
Top_Paste
  10
2.3155
  20
-2.6084
  11
2.4116
  21
-2.6084
  12
2.3155
  22
-2.6528
  13
2.4116
  23
-2.6528
  0
SOLID
  8
Top_Paste
  10
1.9769
  20
-2.6084
  11
2.073
  21
-2.6084
  12
1.9769
  22
-2.6528
  13
2.073
  23
-2.6528
  0
SOLID
  8
Top_Paste
  10
2.3155
  20
-2.5084
  11
2.4116
  21
-2.5084
  12
2.3155
  22
-2.5528
  13
2.4116
  23
-2.5528
  0
SOLID
  8
Top_Paste
  10
1.9769
  20
-2.5084
  11
2.073
  21
-2.5084
  12
1.9769
  22
-2.5528
  13
2.073
  23
-2.5528
  0
SOLID
  8
Top_Paste
  10
2.3155
  20
-2.4084
  11
2.4116
  21
-2.4084
  12
2.3155
  22
-2.4528
  13
2.4116
  23
-2.4528
  0
SOLID
  8
Top_Paste
  10
1.9769
  20
-2.4084
  11
2.073
  21
-2.4084
  12
1.9769
  22
-2.4528
  13
2.073
  23
-2.4528
  0
SOLID
  8
Top_Paste
  10
2.3155
  20
-2.3084
  11
2.4116
  21
-2.3084
  12
2.3155
  22
-2.3528
  13
2.4116
  23
-2.3528
  0
SOLID
  8
Top_Paste
  10
1.9769
  20
-2.3084
  11
2.073
  21
-2.3084
  12
1.9769
  22
-2.3528
  13
2.073
  23
-2.3528
  0
SOLID
  8
Top_Paste
  10
2.3155
  20
-2.2084
  11
2.4116
  21
-2.2084
  12
2.3155
  22
-2.2528
  13
2.4116
  23
-2.2528
  0
SOLID
  8
Top_Paste
  10
1.9769
  20
-2.2084
  11
2.073
  21
-2.2084
  12
1.9769
  22
-2.2528
  13
2.073
  23
-2.2528
  0
SOLID
  8
Top_Paste
  10
2.3155
  20
-2.1084
  11
2.4116
  21
-2.1084
  12
2.3155
  22
-2.1528
  13
2.4116
  23
-2.1528
  0
SOLID
  8
Top_Paste
  10
1.9769
  20
-2.1084
  11
2.073
  21
-2.1084
  12
1.9769
  22
-2.1528
  13
2.073
  23
-2.1528
  0
SOLID
  8
Top_Paste
  10
1.9357
  20
-0.9034
  11
2.0538
  21
-0.9034
  12
1.9357
  22
-1.1199
  13
2.0538
  23
-1.1199
  0
SOLID
  8
Top_Paste
  10
2.3394
  20
-0.9034
  11
2.4575
  21
-0.9034
  12
2.3394
  22
-1.1199
  13
2.4575
  23
-1.1199
  0
SOLID
  8
Top_Paste
  10
0.8809
  20
-2.6343
  11
0.9833
  21
-2.6343
  12
0.8809
  22
-2.6894
  13
0.9833
  23
-2.6894
  0
SOLID
  8
Top_Paste
  10
0.8809
  20
-2.776
  11
0.9833
  21
-2.776
  12
0.8809
  22
-2.8311
  13
0.9833
  23
-2.8311
  0
SOLID
  8
Top_Paste
  10
1.1172
  20
-2.776
  11
1.2195
  21
-2.776
  12
1.1172
  22
-2.8311
  13
1.2195
  23
-2.8311
  0
SOLID
  8
Top_Paste
  10
1.1172
  20
-2.6343
  11
1.2195
  21
-2.6343
  12
1.1172
  22
-2.6894
  13
1.2195
  23
-2.6894
  0
SOLID
  8
Top_Paste
  10
2.2402
  20
-3.8134
  11
2.2722
  21
-3.8134
  12
2.2402
  22
-3.8454
  13
2.2722
  23
-3.8454
  0
SOLID
  8
Top_Paste
  10
2.2402
  20
-3.8934
  11
2.2722
  21
-3.8934
  12
2.2402
  22
-3.9254
  13
2.2722
  23
-3.9254
  0
SOLID
  8
Top_Paste
  10
2.3272
  20
-3.8534
  11
2.3592
  21
-3.8534
  12
2.3272
  22
-3.8854
  13
2.3592
  23
-3.8854
  0
SOLID
  8
Top_Paste
  10
1.275
  20
-2.6385
  11
1.3262
  21
-2.6385
  12
1.275
  22
-2.6975
  13
1.3262
  23
-2.6975
  0
SOLID
  8
Top_Paste
  10
1.3498
  20
-2.6385
  11
1.401
  21
-2.6385
  12
1.3498
  22
-2.6975
  13
1.401
  23
-2.6975
  0
SOLID
  8
Top_Paste
  10
0.756
  20
-2.5385
  11
0.8072
  21
-2.5385
  12
0.756
  22
-2.5975
  13
0.8072
  23
-2.5975
  0
SOLID
  8
Top_Paste
  10
0.8308
  20
-2.5385
  11
0.882
  21
-2.5385
  12
0.8308
  22
-2.5975
  13
0.882
  23
-2.5975
  0
SOLID
  8
Top_Paste
  10
0.519
  20
-3.7075
  11
0.5702
  21
-3.7075
  12
0.519
  22
-3.7665
  13
0.5702
  23
-3.7665
  0
SOLID
  8
Top_Paste
  10
0.5938
  20
-3.7075
  11
0.645
  21
-3.7075
  12
0.5938
  22
-3.7665
  13
0.645
  23
-3.7665
  0
SOLID
  8
Top_Paste
  10
2.2243
  20
-3.5749
  11
2.2755
  21
-3.5749
  12
2.2243
  22
-3.6339
  13
2.2755
  23
-3.6339
  0
SOLID
  8
Top_Paste
  10
2.2991
  20
-3.5749
  11
2.3503
  21
-3.5749
  12
2.2991
  22
-3.6339
  13
2.3503
  23
-3.6339
  0
SOLID
  8
Top_Paste
  10
3.0612
  20
-2.476
  11
3.1124
  21
-2.476
  12
3.0612
  22
-2.5351
  13
3.1124
  23
-2.5351
  0
SOLID
  8
Top_Paste
  10
3.136
  20
-2.476
  11
3.1872
  21
-2.476
  12
3.136
  22
-2.5351
  13
3.1872
  23
-2.5351
  0
SOLID
  8
Top_Paste
  10
3.0612
  20
-2.351
  11
3.1124
  21
-2.351
  12
3.0612
  22
-2.4101
  13
3.1124
  23
-2.4101
  0
SOLID
  8
Top_Paste
  10
3.136
  20
-2.351
  11
3.1872
  21
-2.351
  12
3.136
  22
-2.4101
  13
3.1872
  23
-2.4101
  0
SOLID
  8
Top_Paste
  10
1.5317
  20
-3.6761
  11
1.5829
  21
-3.6761
  12
1.5317
  22
-3.7352
  13
1.5829
  23
-3.7352
  0
SOLID
  8
Top_Paste
  10
1.6065
  20
-3.6761
  11
1.6577
  21
-3.6761
  12
1.6065
  22
-3.7352
  13
1.6577
  23
-3.7352
  0
SOLID
  8
Top_Paste
  10
1.5317
  20
-3.8136
  11
1.5829
  21
-3.8136
  12
1.5317
  22
-3.8727
  13
1.5829
  23
-3.8727
  0
SOLID
  8
Top_Paste
  10
1.6065
  20
-3.8136
  11
1.6577
  21
-3.8136
  12
1.6065
  22
-3.8727
  13
1.6577
  23
-3.8727
  0
SOLID
  8
Top_Paste
  10
0.406
  20
-2.5445
  11
0.4572
  21
-2.5445
  12
0.406
  22
-2.6035
  13
0.4572
  23
-2.6035
  0
SOLID
  8
Top_Paste
  10
0.4808
  20
-2.5445
  11
0.532
  21
-2.5445
  12
0.4808
  22
-2.6035
  13
0.532
  23
-2.6035
  0
SOLID
  8
Top_Paste
  10
0.4743
  20
-3.9355
  11
0.5649
  21
-3.9355
  12
0.4743
  22
-4.026
  13
0.5649
  23
-4.026
  0
SOLID
  8
Top_Paste
  10
0.6515
  20
-3.9355
  11
0.742
  21
-3.9355
  12
0.6515
  22
-4.026
  13
0.742
  23
-4.026
  0
SOLID
  8
Top_Paste
  10
0.4681
  20
-3.4416
  11
0.5586
  21
-3.4416
  12
0.4681
  22
-3.5322
  13
0.5586
  23
-3.5322
  0
SOLID
  8
Top_Paste
  10
0.6452
  20
-3.4416
  11
0.7358
  21
-3.4416
  12
0.6452
  22
-3.5322
  13
0.7358
  23
-3.5322
  0
SOLID
  8
Top_Paste
  10
0.2617
  20
-1.3162
  11
0.3523
  21
-1.3162
  12
0.2617
  22
-1.4068
  13
0.3523
  23
-1.4068
  0
SOLID
  8
Top_Paste
  10
0.2617
  20
-1.139
  11
0.3523
  21
-1.139
  12
0.2617
  22
-1.2296
  13
0.3523
  23
-1.2296
  0
SOLID
  8
Top_Paste
  10
1.4076
  20
-0.8061
  11
1.4942
  21
-0.8061
  12
1.4076
  22
-0.8297
  13
1.4942
  23
-0.8297
  0
SOLID
  8
Top_Paste
  10
1.4076
  20
-0.8561
  11
1.4942
  21
-0.8561
  12
1.4076
  22
-0.8797
  13
1.4942
  23
-0.8797
  0
SOLID
  8
Top_Paste
  10
1.4076
  20
-0.9061
  11
1.4942
  21
-0.9061
  12
1.4076
  22
-0.9297
  13
1.4942
  23
-0.9297
  0
SOLID
  8
Top_Paste
  10
1.4076
  20
-0.9561
  11
1.4942
  21
-0.9561
  12
1.4076
  22
-0.9797
  13
1.4942
  23
-0.9797
  0
SOLID
  8
Top_Paste
  10
1.4076
  20
-1.0061
  11
1.4942
  21
-1.0061
  12
1.4076
  22
-1.0297
  13
1.4942
  23
-1.0297
  0
SOLID
  8
Top_Paste
  10
1.4076
  20
-1.0561
  11
1.4942
  21
-1.0561
  12
1.4076
  22
-1.0797
  13
1.4942
  23
-1.0797
  0
SOLID
  8
Top_Paste
  10
1.4076
  20
-1.1061
  11
1.4942
  21
-1.1061
  12
1.4076
  22
-1.1297
  13
1.4942
  23
-1.1297
  0
SOLID
  8
Top_Paste
  10
1.7698
  20
-1.1061
  11
1.8564
  21
-1.1061
  12
1.7698
  22
-1.1297
  13
1.8564
  23
-1.1297
  0
SOLID
  8
Top_Paste
  10
1.7698
  20
-1.0561
  11
1.8564
  21
-1.0561
  12
1.7698
  22
-1.0797
  13
1.8564
  23
-1.0797
  0
SOLID
  8
Top_Paste
  10
1.7698
  20
-1.0061
  11
1.8564
  21
-1.0061
  12
1.7698
  22
-1.0297
  13
1.8564
  23
-1.0297
  0
SOLID
  8
Top_Paste
  10
1.7698
  20
-0.9561
  11
1.8564
  21
-0.9561
  12
1.7698
  22
-0.9797
  13
1.8564
  23
-0.9797
  0
SOLID
  8
Top_Paste
  10
1.7698
  20
-0.9061
  11
1.8564
  21
-0.9061
  12
1.7698
  22
-0.9297
  13
1.8564
  23
-0.9297
  0
SOLID
  8
Top_Paste
  10
1.7698
  20
-0.8561
  11
1.8564
  21
-0.8561
  12
1.7698
  22
-0.8797
  13
1.8564
  23
-0.8797
  0
SOLID
  8
Top_Paste
  10
1.7698
  20
-0.8061
  11
1.8564
  21
-0.8061
  12
1.7698
  22
-0.8297
  13
1.8564
  23
-0.8297
  0
SOLID
  8
Top_Paste
  10
2.686
  20
-1.8249
  11
2.7786
  21
-1.8249
  12
2.686
  22
-1.8486
  13
2.7786
  23
-1.8486
  0
SOLID
  8
Top_Paste
  10
2.686
  20
-1.8749
  11
2.7786
  21
-1.8749
  12
2.686
  22
-1.8986
  13
2.7786
  23
-1.8986
  0
SOLID
  8
Top_Paste
  10
2.686
  20
-1.9249
  11
2.7786
  21
-1.9249
  12
2.686
  22
-1.9486
  13
2.7786
  23
-1.9486
  0
SOLID
  8
Top_Paste
  10
2.686
  20
-1.9749
  11
2.7786
  21
-1.9749
  12
2.686
  22
-1.9986
  13
2.7786
  23
-1.9986
  0
SOLID
  8
Top_Paste
  10
2.686
  20
-2.0249
  11
2.7786
  21
-2.0249
  12
2.686
  22
-2.0486
  13
2.7786
  23
-2.0486
  0
SOLID
  8
Top_Paste
  10
2.686
  20
-2.0749
  11
2.7786
  21
-2.0749
  12
2.686
  22
-2.0986
  13
2.7786
  23
-2.0986
  0
SOLID
  8
Top_Paste
  10
2.686
  20
-2.1249
  11
2.7786
  21
-2.1249
  12
2.686
  22
-2.1486
  13
2.7786
  23
-2.1486
  0
SOLID
  8
Top_Paste
  10
2.686
  20
-2.1749
  11
2.7786
  21
-2.1749
  12
2.686
  22
-2.1986
  13
2.7786
  23
-2.1986
  0
SOLID
  8
Top_Paste
  10
3.0817
  20
-2.1749
  11
3.1742
  21
-2.1749
  12
3.0817
  22
-2.1986
  13
3.1742
  23
-2.1986
  0
SOLID
  8
Top_Paste
  10
3.0817
  20
-2.1249
  11
3.1742
  21
-2.1249
  12
3.0817
  22
-2.1486
  13
3.1742
  23
-2.1486
  0
SOLID
  8
Top_Paste
  10
3.0817
  20
-2.0749
  11
3.1742
  21
-2.0749
  12
3.0817
  22
-2.0986
  13
3.1742
  23
-2.0986
  0
SOLID
  8
Top_Paste
  10
3.0817
  20
-2.0249
  11
3.1742
  21
-2.0249
  12
3.0817
  22
-2.0486
  13
3.1742
  23
-2.0486
  0
SOLID
  8
Top_Paste
  10
3.0817
  20
-1.9749
  11
3.1742
  21
-1.9749
  12
3.0817
  22
-1.9986
  13
3.1742
  23
-1.9986
  0
SOLID
  8
Top_Paste
  10
3.0817
  20
-1.9249
  11
3.1742
  21
-1.9249
  12
3.0817
  22
-1.9486
  13
3.1742
  23
-1.9486
  0
SOLID
  8
Top_Paste
  10
3.0817
  20
-1.8749
  11
3.1742
  21
-1.8749
  12
3.0817
  22
-1.8986
  13
3.1742
  23
-1.8986
  0
SOLID
  8
Top_Paste
  10
3.0817
  20
-1.8249
  11
3.1742
  21
-1.8249
  12
3.0817
  22
-1.8486
  13
3.1742
  23
-1.8486
  0
SOLID
  8
Top_Paste
  10
0.8187
  20
-3.6939
  11
0.8955
  21
-3.6939
  12
0.8187
  22
-3.7175
  13
0.8955
  23
-3.7175
  0
SOLID
  8
Top_Paste
  10
0.8187
  20
-3.7439
  11
0.8955
  21
-3.7439
  12
0.8187
  22
-3.7675
  13
0.8955
  23
-3.7675
  0
SOLID
  8
Top_Paste
  10
0.8187
  20
-3.7939
  11
0.8955
  21
-3.7939
  12
0.8187
  22
-3.8175
  13
0.8955
  23
-3.8175
  0
SOLID
  8
Top_Paste
  10
0.8187
  20
-3.8439
  11
0.8955
  21
-3.8439
  12
0.8187
  22
-3.8675
  13
0.8955
  23
-3.8675
  0
SOLID
  8
Top_Paste
  10
1.0884
  20
-3.8439
  11
1.1652
  21
-3.8439
  12
1.0884
  22
-3.8675
  13
1.1652
  23
-3.8675
  0
SOLID
  8
Top_Paste
  10
1.0884
  20
-3.7939
  11
1.1652
  21
-3.7939
  12
1.0884
  22
-3.8175
  13
1.1652
  23
-3.8175
  0
SOLID
  8
Top_Paste
  10
1.0884
  20
-3.7439
  11
1.1652
  21
-3.7439
  12
1.0884
  22
-3.7675
  13
1.1652
  23
-3.7675
  0
SOLID
  8
Top_Paste
  10
1.0884
  20
-3.6939
  11
1.1652
  21
-3.6939
  12
1.0884
  22
-3.7175
  13
1.1652
  23
-3.7175
  0
SOLID
  8
Top_Paste
  10
0.9576
  20
-1.7188
  11
1.0442
  21
-1.7188
  12
0.9576
  22
-1.7424
  13
1.0442
  23
-1.7424
  0
SOLID
  8
Top_Paste
  10
0.9576
  20
-1.7688
  11
1.0442
  21
-1.7688
  12
0.9576
  22
-1.7924
  13
1.0442
  23
-1.7924
  0
SOLID
  8
Top_Paste
  10
0.9576
  20
-1.8188
  11
1.0442
  21
-1.8188
  12
0.9576
  22
-1.8424
  13
1.0442
  23
-1.8424
  0
SOLID
  8
Top_Paste
  10
0.9576
  20
-1.8688
  11
1.0442
  21
-1.8688
  12
0.9576
  22
-1.8924
  13
1.0442
  23
-1.8924
  0
SOLID
  8
Top_Paste
  10
0.9576
  20
-1.9188
  11
1.0442
  21
-1.9188
  12
0.9576
  22
-1.9424
  13
1.0442
  23
-1.9424
  0
SOLID
  8
Top_Paste
  10
0.9576
  20
-1.9688
  11
1.0442
  21
-1.9688
  12
0.9576
  22
-1.9924
  13
1.0442
  23
-1.9924
  0
SOLID
  8
Top_Paste
  10
0.9576
  20
-2.0188
  11
1.0442
  21
-2.0188
  12
0.9576
  22
-2.0424
  13
1.0442
  23
-2.0424
  0
SOLID
  8
Top_Paste
  10
0.9576
  20
-2.0688
  11
1.0442
  21
-2.0688
  12
0.9576
  22
-2.0924
  13
1.0442
  23
-2.0924
  0
SOLID
  8
Top_Paste
  10
0.9576
  20
-2.1188
  11
1.0442
  21
-2.1188
  12
0.9576
  22
-2.1424
  13
1.0442
  23
-2.1424
  0
SOLID
  8
Top_Paste
  10
0.9576
  20
-2.1688
  11
1.0442
  21
-2.1688
  12
0.9576
  22
-2.1924
  13
1.0442
  23
-2.1924
  0
SOLID
  8
Top_Paste
  10
0.9576
  20
-2.2188
  11
1.0442
  21
-2.2188
  12
0.9576
  22
-2.2424
  13
1.0442
  23
-2.2424
  0
SOLID
  8
Top_Paste
  10
0.9576
  20
-2.2688
  11
1.0442
  21
-2.2688
  12
0.9576
  22
-2.2924
  13
1.0442
  23
-2.2924
  0
SOLID
  8
Top_Paste
  10
0.9576
  20
-2.3188
  11
1.0442
  21
-2.3188
  12
0.9576
  22
-2.3424
  13
1.0442
  23
-2.3424
  0
SOLID
  8
Top_Paste
  10
0.9576
  20
-2.3688
  11
1.0442
  21
-2.3688
  12
0.9576
  22
-2.3924
  13
1.0442
  23
-2.3924
  0
SOLID
  8
Top_Paste
  10
1.3375
  20
-2.3688
  11
1.4241
  21
-2.3688
  12
1.3375
  22
-2.3924
  13
1.4241
  23
-2.3924
  0
SOLID
  8
Top_Paste
  10
1.3375
  20
-2.3188
  11
1.4241
  21
-2.3188
  12
1.3375
  22
-2.3424
  13
1.4241
  23
-2.3424
  0
SOLID
  8
Top_Paste
  10
1.3375
  20
-2.2688
  11
1.4241
  21
-2.2688
  12
1.3375
  22
-2.2924
  13
1.4241
  23
-2.2924
  0
SOLID
  8
Top_Paste
  10
1.3375
  20
-2.2188
  11
1.4241
  21
-2.2188
  12
1.3375
  22
-2.2424
  13
1.4241
  23
-2.2424
  0
SOLID
  8
Top_Paste
  10
1.3375
  20
-2.1688
  11
1.4241
  21
-2.1688
  12
1.3375
  22
-2.1924
  13
1.4241
  23
-2.1924
  0
SOLID
  8
Top_Paste
  10
1.3375
  20
-2.1188
  11
1.4241
  21
-2.1188
  12
1.3375
  22
-2.1424
  13
1.4241
  23
-2.1424
  0
SOLID
  8
Top_Paste
  10
1.3375
  20
-2.0688
  11
1.4241
  21
-2.0688
  12
1.3375
  22
-2.0924
  13
1.4241
  23
-2.0924
  0
SOLID
  8
Top_Paste
  10
1.3375
  20
-2.0188
  11
1.4241
  21
-2.0188
  12
1.3375
  22
-2.0424
  13
1.4241
  23
-2.0424
  0
SOLID
  8
Top_Paste
  10
1.3375
  20
-1.9688
  11
1.4241
  21
-1.9688
  12
1.3375
  22
-1.9924
  13
1.4241
  23
-1.9924
  0
SOLID
  8
Top_Paste
  10
1.3375
  20
-1.9188
  11
1.4241
  21
-1.9188
  12
1.3375
  22
-1.9424
  13
1.4241
  23
-1.9424
  0
SOLID
  8
Top_Paste
  10
1.3375
  20
-1.8688
  11
1.4241
  21
-1.8688
  12
1.3375
  22
-1.8924
  13
1.4241
  23
-1.8924
  0
SOLID
  8
Top_Paste
  10
1.3375
  20
-1.8188
  11
1.4241
  21
-1.8188
  12
1.3375
  22
-1.8424
  13
1.4241
  23
-1.8424
  0
SOLID
  8
Top_Paste
  10
1.3375
  20
-1.7688
  11
1.4241
  21
-1.7688
  12
1.3375
  22
-1.7924
  13
1.4241
  23
-1.7924
  0
SOLID
  8
Top_Paste
  10
1.3375
  20
-1.7188
  11
1.4241
  21
-1.7188
  12
1.3375
  22
-1.7424
  13
1.4241
  23
-1.7424
  0
SOLID
  8
Top_Paste
  10
1.9
  20
-1.8678
  11
1.9394
  21
-1.8678
  12
1.9
  22
-1.9308
  13
1.9394
  23
-1.9308
  0
SOLID
  8
Top_Paste
  10
2.0772
  20
-1.8678
  11
2.1166
  21
-1.8678
  12
2.0772
  22
-1.9308
  13
2.1166
  23
-1.9308
  0
SOLID
  8
Top_Paste
  10
1.9
  20
-1.5016
  11
2.1166
  21
-1.5016
  12
1.9
  22
-1.7142
  13
2.1166
  23
-1.7142
  0
SOLID
  8
Top_Paste
  10
0.4613
  20
-2.9538
  11
0.6779
  21
-2.9538
  12
0.4613
  22
-3.0325
  13
0.6779
  23
-3.0325
  0
SOLID
  8
Top_Paste
  10
0.8353
  20
-2.9538
  11
1.0519
  21
-2.9538
  12
0.8353
  22
-3.0325
  13
1.0519
  23
-3.0325
  0
SOLID
  8
Top_Paste
  10
0.4487
  20
-1.6283
  11
0.4842
  21
-1.6283
  12
0.4487
  22
-1.6597
  13
0.4842
  23
-1.6597
  0
SOLID
  8
Top_Paste
  10
0.5039
  20
-1.6283
  11
0.5393
  21
-1.6283
  12
0.5039
  22
-1.6597
  13
0.5393
  23
-1.6597
  0
SOLID
  8
Top_Paste
  10
0.819
  20
-1.4135
  11
0.8702
  21
-1.4135
  12
0.819
  22
-1.4725
  13
0.8702
  23
-1.4725
  0
SOLID
  8
Top_Paste
  10
0.8938
  20
-1.4135
  11
0.945
  21
-1.4135
  12
0.8938
  22
-1.4725
  13
0.945
  23
-1.4725
  0
SOLID
  8
Top_Paste
  10
0.625
  20
-1.5135
  11
0.6762
  21
-1.5135
  12
0.625
  22
-1.5725
  13
0.6762
  23
-1.5725
  0
SOLID
  8
Top_Paste
  10
0.6998
  20
-1.5135
  11
0.751
  21
-1.5135
  12
0.6998
  22
-1.5725
  13
0.751
  23
-1.5725
  0
SOLID
  8
Top_Paste
  10
0.0064
  20
-1.6635
  11
0.0576
  21
-1.6635
  12
0.0064
  22
-1.7225
  13
0.0576
  23
-1.7225
  0
SOLID
  8
Top_Paste
  10
0.0812
  20
-1.6635
  11
0.1324
  21
-1.6635
  12
0.0812
  22
-1.7225
  13
0.1324
  23
-1.7225
  0
SOLID
  8
Top_Paste
  10
0.0127
  20
-2.4385
  11
0.0639
  21
-2.4385
  12
0.0127
  22
-2.4976
  13
0.0639
  23
-2.4976
  0
SOLID
  8
Top_Paste
  10
0.0875
  20
-2.4385
  11
0.1387
  21
-2.4385
  12
0.0875
  22
-2.4976
  13
0.1387
  23
-2.4976
  0
SOLID
  8
Top_Paste
  10
0.588
  20
-2.4635
  11
0.6392
  21
-2.4635
  12
0.588
  22
-2.5225
  13
0.6392
  23
-2.5225
  0
SOLID
  8
Top_Paste
  10
0.6628
  20
-2.4635
  11
0.714
  21
-2.4635
  12
0.6628
  22
-2.5225
  13
0.714
  23
-2.5225
  0
SOLID
  8
Top_Paste
  10
0.588
  20
-2.5385
  11
0.6392
  21
-2.5385
  12
0.588
  22
-2.5975
  13
0.6392
  23
-2.5975
  0
SOLID
  8
Top_Paste
  10
0.6628
  20
-2.5385
  11
0.714
  21
-2.5385
  12
0.6628
  22
-2.5975
  13
0.714
  23
-2.5975
  0
SOLID
  8
Top_Paste
  10
0.4833
  20
-2.4651
  11
0.5433
  21
-2.4651
  12
0.4833
  22
-2.5211
  13
0.5433
  23
-2.5211
  0
SOLID
  8
Top_Paste
  10
0.3933
  20
-2.4651
  11
0.4533
  21
-2.4651
  12
0.3933
  22
-2.5211
  13
0.4533
  23
-2.5211
  0
SOLID
  8
Top_Paste
  10
0.708
  20
-1.415
  11
0.768
  21
-1.415
  12
0.708
  22
-1.471
  13
0.768
  23
-1.471
  0
SOLID
  8
Top_Paste
  10
0.618
  20
-1.415
  11
0.678
  21
-1.415
  12
0.618
  22
-1.471
  13
0.678
  23
-1.471
  0
SOLID
  8
Top_Paste
  10
-2.3443
  20
1.5292
  11
-2.2735
  21
1.5292
  12
-2.3443
  22
1.4623
  13
-2.2735
  23
1.4623
  0
SOLID
  8
Top_Paste
  10
-2.3443
  20
1.6985
  11
-2.2735
  21
1.6985
  12
-2.3443
  22
1.6316
  13
-2.2735
  23
1.6316
  0
SOLID
  8
Top_Paste
  10
-3.0161
  20
-0.4407
  11
-2.9561
  21
-0.4407
  12
-3.0161
  22
-0.4967
  13
-2.9561
  23
-0.4967
  0
SOLID
  8
Top_Paste
  10
-2.9261
  20
-0.4407
  11
-2.8661
  21
-0.4407
  12
-2.9261
  22
-0.4967
  13
-2.8661
  23
-0.4967
  0
SOLID
  8
Top_Paste
  10
-0.8576
  20
1.9275
  11
-0.7976
  21
1.9275
  12
-0.8576
  22
1.8715
  13
-0.7976
  23
1.8715
  0
SOLID
  8
Top_Paste
  10
-0.7676
  20
1.9275
  11
-0.7076
  21
1.9275
  12
-0.7676
  22
1.8715
  13
-0.7076
  23
1.8715
  0
SOLID
  8
Top_Paste
  10
-2.7141
  20
0.3614
  11
-2.6581
  21
0.3614
  12
-2.7141
  22
0.3014
  13
-2.6581
  23
0.3014
  0
SOLID
  8
Top_Paste
  10
-2.7141
  20
0.4514
  11
-2.6581
  21
0.4514
  12
-2.7141
  22
0.3914
  13
-2.6581
  23
0.3914
  0
SOLID
  8
Top_Paste
  10
-3.3882
  20
0.3533
  11
-3.3282
  21
0.3533
  12
-3.3882
  22
0.2973
  13
-3.3282
  23
0.2973
  0
SOLID
  8
Top_Paste
  10
-3.2982
  20
0.3533
  11
-3.2382
  21
0.3533
  12
-3.2982
  22
0.2973
  13
-3.2382
  23
0.2973
  0
SOLID
  8
Top_Paste
  10
-0.9701
  20
1.9275
  11
-0.9101
  21
1.9275
  12
-0.9701
  22
1.8715
  13
-0.9101
  23
1.8715
  0
SOLID
  8
Top_Paste
  10
-1.0601
  20
1.9275
  11
-1.0001
  21
1.9275
  12
-1.0601
  22
1.8715
  13
-1.0001
  23
1.8715
  0
SOLID
  8
Top_Paste
  10
-1.418
  20
1.8173
  11
-1.362
  21
1.8173
  12
-1.418
  22
1.7573
  13
-1.362
  23
1.7573
  0
SOLID
  8
Top_Paste
  10
-1.418
  20
1.7273
  11
-1.362
  21
1.7273
  12
-1.418
  22
1.6673
  13
-1.362
  23
1.6673
  0
SOLID
  8
Top_Paste
  10
-1.4181
  20
1.617
  11
-1.3621
  21
1.617
  12
-1.4181
  22
1.557
  13
-1.3621
  23
1.557
  0
SOLID
  8
Top_Paste
  10
-1.4181
  20
1.527
  11
-1.3621
  21
1.527
  12
-1.4181
  22
1.467
  13
-1.3621
  23
1.467
  0
SOLID
  8
Top_Paste
  10
-1.4181
  20
1.3232
  11
-1.3621
  21
1.3232
  12
-1.4181
  22
1.2632
  13
-1.3621
  23
1.2632
  0
SOLID
  8
Top_Paste
  10
-1.4181
  20
1.4132
  11
-1.3621
  21
1.4132
  12
-1.4181
  22
1.3532
  13
-1.3621
  23
1.3532
  0
SOLID
  8
Top_Paste
  10
-1.2576
  20
1.9275
  11
-1.1976
  21
1.9275
  12
-1.2576
  22
1.8715
  13
-1.1976
  23
1.8715
  0
SOLID
  8
Top_Paste
  10
-1.1676
  20
1.9275
  11
-1.1076
  21
1.9275
  12
-1.1676
  22
1.8715
  13
-1.1076
  23
1.8715
  0
SOLID
  8
Top_Paste
  10
-1.958
  20
0.3673
  11
-1.902
  21
0.3673
  12
-1.958
  22
0.3073
  13
-1.902
  23
0.3073
  0
SOLID
  8
Top_Paste
  10
-1.958
  20
0.4573
  11
-1.902
  21
0.4573
  12
-1.958
  22
0.3973
  13
-1.902
  23
0.3973
  0
SOLID
  8
Top_Paste
  10
-3.4974
  20
0.8095
  11
-3.4374
  21
0.8095
  12
-3.4974
  22
0.7535
  13
-3.4374
  23
0.7535
  0
SOLID
  8
Top_Paste
  10
-3.4074
  20
0.8095
  11
-3.3474
  21
0.8095
  12
-3.4074
  22
0.7535
  13
-3.3474
  23
0.7535
  0
SOLID
  8
Top_Paste
  10
-3.0286
  20
0.1031
  11
-2.9686
  21
0.1031
  12
-3.0286
  22
0.0471
  13
-2.9686
  23
0.0471
  0
SOLID
  8
Top_Paste
  10
-2.9386
  20
0.1031
  11
-2.8786
  21
0.1031
  12
-2.9386
  22
0.0471
  13
-2.8786
  23
0.0471
  0
SOLID
  8
Top_Paste
  10
-2.7211
  20
2.5657
  11
-2.7011
  21
2.5657
  12
-2.7211
  22
2.4476
  13
-2.7011
  23
2.4476
  0
SOLID
  8
Top_Paste
  10
-2.7211
  20
2.3688
  11
-2.7011
  21
2.3688
  12
-2.7211
  22
2.2507
  13
-2.7011
  23
2.2507
  0
SOLID
  8
Top_Paste
  10
-2.4723
  20
2.2534
  11
-2.4123
  21
2.2534
  12
-2.4723
  22
2.1974
  13
-2.4123
  23
2.1974
  0
SOLID
  8
Top_Paste
  10
-2.5623
  20
2.2534
  11
-2.5023
  21
2.2534
  12
-2.5623
  22
2.1974
  13
-2.5023
  23
2.1974
  0
SOLID
  8
Top_Paste
  10
-1.2882
  20
2.764
  11
-1.2587
  21
2.764
  12
-1.2882
  22
2.5868
  13
-1.2587
  23
2.5868
  0
SOLID
  8
Top_Paste
  10
-1.2882
  20
2.5278
  11
-1.2587
  21
2.5278
  12
-1.2882
  22
2.3506
  13
-1.2587
  23
2.3506
  0
SOLID
  8
Top_Paste
  10
-0.6846
  20
2.3409
  11
-0.6246
  21
2.3409
  12
-0.6846
  22
2.2849
  13
-0.6246
  23
2.2849
  0
SOLID
  8
Top_Paste
  10
-0.7746
  20
2.3409
  11
-0.7146
  21
2.3409
  12
-0.7746
  22
2.2849
  13
-0.7146
  23
2.2849
  0
SOLID
  8
Top_Paste
  10
-3.0444
  20
0.3471
  11
-2.9844
  21
0.3471
  12
-3.0444
  22
0.2911
  13
-2.9844
  23
0.2911
  0
SOLID
  8
Top_Paste
  10
-3.1344
  20
0.3471
  11
-3.0744
  21
0.3471
  12
-3.1344
  22
0.2911
  13
-3.0744
  23
0.2911
  0
SOLID
  8
Top_Paste
  10
-1.0382
  20
2.764
  11
-1.0087
  21
2.764
  12
-1.0382
  22
2.5868
  13
-1.0087
  23
2.5868
  0
SOLID
  8
Top_Paste
  10
-1.0382
  20
2.5278
  11
-1.0087
  21
2.5278
  12
-1.0382
  22
2.3506
  13
-1.0087
  23
2.3506
  0
SOLID
  8
Top_Paste
  10
-0.8022
  20
2.7345
  11
-0.7822
  21
2.7345
  12
-0.8022
  22
2.6164
  13
-0.7822
  23
2.6164
  0
SOLID
  8
Top_Paste
  10
-0.8022
  20
2.5376
  11
-0.7822
  21
2.5376
  12
-0.8022
  22
2.4195
  13
-0.7822
  23
2.4195
  0
SOLID
  8
Top_Paste
  10
-2.9274
  20
2.5657
  11
-2.9074
  21
2.5657
  12
-2.9274
  22
2.4476
  13
-2.9074
  23
2.4476
  0
SOLID
  8
Top_Paste
  10
-2.9274
  20
2.3688
  11
-2.9074
  21
2.3688
  12
-2.9274
  22
2.2507
  13
-2.9074
  23
2.2507
  0
SOLID
  8
Top_Paste
  10
-3.1336
  20
2.5657
  11
-3.1136
  21
2.5657
  12
-3.1336
  22
2.4476
  13
-3.1136
  23
2.4476
  0
SOLID
  8
Top_Paste
  10
-3.1336
  20
2.3688
  11
-3.1136
  21
2.3688
  12
-3.1336
  22
2.2507
  13
-3.1136
  23
2.2507
  0
SOLID
  8
Top_Paste
  10
-0.5896
  20
2.7345
  11
-0.5696
  21
2.7345
  12
-0.5896
  22
2.6164
  13
-0.5696
  23
2.6164
  0
SOLID
  8
Top_Paste
  10
-0.5896
  20
2.5376
  11
-0.5696
  21
2.5376
  12
-0.5896
  22
2.4195
  13
-0.5696
  23
2.4195
  0
SOLID
  8
Top_Paste
  10
-2.3598
  20
1.4283
  11
-2.2998
  21
1.4283
  12
-2.3598
  22
1.3723
  13
-2.2998
  23
1.3723
  0
SOLID
  8
Top_Paste
  10
-2.2698
  20
1.4283
  11
-2.2098
  21
1.4283
  12
-2.2698
  22
1.3723
  13
-2.2098
  23
1.3723
  0
SOLID
  8
Top_Paste
  10
-2.3661
  20
1.7908
  11
-2.3061
  21
1.7908
  12
-2.3661
  22
1.7348
  13
-2.3061
  23
1.7348
  0
SOLID
  8
Top_Paste
  10
-2.2761
  20
1.7908
  11
-2.2161
  21
1.7908
  12
-2.2761
  22
1.7348
  13
-2.2161
  23
1.7348
  0
SOLID
  8
Top_Paste
  10
-3.1286
  20
2.0346
  11
-3.0686
  21
2.0346
  12
-3.1286
  22
1.9786
  13
-3.0686
  23
1.9786
  0
SOLID
  8
Top_Paste
  10
-3.0386
  20
2.0346
  11
-2.9786
  21
2.0346
  12
-3.0386
  22
1.9786
  13
-2.9786
  23
1.9786
  0
SOLID
  8
Top_Paste
  10
-3.191
  20
1.0783
  11
-3.131
  21
1.0783
  12
-3.191
  22
1.0223
  13
-3.131
  23
1.0223
  0
SOLID
  8
Top_Paste
  10
-3.101
  20
1.0783
  11
-3.041
  21
1.0783
  12
-3.101
  22
1.0223
  13
-3.041
  23
1.0223
  0
SOLID
  8
Top_Paste
  10
-2.4973
  20
1.072
  11
-2.4373
  21
1.072
  12
-2.4973
  22
1.016
  13
-2.4373
  23
1.016
  0
SOLID
  8
Top_Paste
  10
-2.4073
  20
1.072
  11
-2.3473
  21
1.072
  12
-2.4073
  22
1.016
  13
-2.3473
  23
1.016
  0
SOLID
  8
Top_Paste
  10
-2.3661
  20
1.9971
  11
-2.3061
  21
1.9971
  12
-2.3661
  22
1.9411
  13
-2.3061
  23
1.9411
  0
SOLID
  8
Top_Paste
  10
-2.2761
  20
1.9971
  11
-2.2161
  21
1.9971
  12
-2.2761
  22
1.9411
  13
-2.2161
  23
1.9411
  0
SOLID
  8
Top_Paste
  10
-2.8389
  20
2.0478
  11
-2.7208
  21
2.0478
  12
-2.8389
  22
2.0278
  13
-2.7208
  23
2.0278
  0
SOLID
  8
Top_Paste
  10
-2.6421
  20
2.0478
  11
-2.524
  21
2.0478
  12
-2.6421
  22
2.0278
  13
-2.524
  23
2.0278
  0
SOLID
  8
Top_Paste
  10
-1.7515
  20
1.7741
  11
-1.6955
  21
1.7741
  12
-1.7515
  22
1.7141
  13
-1.6955
  23
1.7141
  0
SOLID
  8
Top_Paste
  10
-1.7515
  20
1.8641
  11
-1.6955
  21
1.8641
  12
-1.7515
  22
1.8041
  13
-1.6955
  23
1.8041
  0
SOLID
  8
Top_Paste
  10
-1.7002
  20
0.2369
  11
-1.649
  21
0.2369
  12
-1.7002
  22
0.2035
  13
-1.649
  23
0.2035
  0
SOLID
  8
Top_Paste
  10
-1.7002
  20
0.1621
  11
-1.649
  21
0.1621
  12
-1.7002
  22
0.1287
  13
-1.649
  23
0.1287
  0
SOLID
  8
Top_Paste
  10
-1.6136
  20
0.1995
  11
-1.5624
  21
0.1995
  12
-1.6136
  22
0.1661
  13
-1.5624
  23
0.1661
  0
SOLID
  8
Top_Paste
  10
-3.4813
  20
2.2331
  11
-3.3907
  21
2.2331
  12
-3.4813
  22
2.1425
  13
-3.3907
  23
2.1425
  0
SOLID
  8
Top_Paste
  10
-3.4813
  20
2.4103
  11
-3.3907
  21
2.4103
  12
-3.4813
  22
2.3197
  13
-3.3907
  23
2.3197
  0
SOLID
  8
Top_Paste
  10
-1.1397
  20
1.184
  11
-1.0697
  21
1.184
  12
-1.1397
  22
1.154
  13
-1.0697
  23
1.154
  0
POLYLINE
  8
Top_Paste
  6
CONTINUOUS
  66
1
  70
0
  40
0.015
  41
0.015
  0
VERTEX
  8
Top_Paste
  10
-0.9902
  20
1.169
  42
1
  0
VERTEX
  8
Top_Paste
  10
-0.9752
  20
1.169
  42
1
  0
VERTEX
  8
Top_Paste
  10
-0.9902
  20
1.169
  42
1
  0
SEQEND
  0
POLYLINE
  8
Top_Paste
  6
CONTINUOUS
  66
1
  70
0
  40
0.015
  41
0.015
  0
VERTEX
  8
Top_Paste
  10
-0.9502
  20
1.169
  42
1
  0
VERTEX
  8
Top_Paste
  10
-0.9352
  20
1.169
  42
1
  0
VERTEX
  8
Top_Paste
  10
-0.9502
  20
1.169
  42
1
  0
SEQEND
  0
SOLID
  8
Top_Paste
  10
-0.9827
  20
1.184
  11
-0.9427
  21
1.184
  12
-0.9827
  22
1.154
  13
-0.9427
  23
1.154
  0
SOLID
  8
Top_Paste
  10
-1.1397
  20
1.0465
  11
-1.0697
  21
1.0465
  12
-1.1397
  22
1.0165
  13
-1.0697
  23
1.0165
  0
POLYLINE
  8
Top_Paste
  6
CONTINUOUS
  66
1
  70
0
  40
0.015
  41
0.015
  0
VERTEX
  8
Top_Paste
  10
-0.9902
  20
1.0315
  42
1
  0
VERTEX
  8
Top_Paste
  10
-0.9752
  20
1.0315
  42
1
  0
VERTEX
  8
Top_Paste
  10
-0.9902
  20
1.0315
  42
1
  0
SEQEND
  0
POLYLINE
  8
Top_Paste
  6
CONTINUOUS
  66
1
  70
0
  40
0.015
  41
0.015
  0
VERTEX
  8
Top_Paste
  10
-0.9502
  20
1.0315
  42
1
  0
VERTEX
  8
Top_Paste
  10
-0.9352
  20
1.0315
  42
1
  0
VERTEX
  8
Top_Paste
  10
-0.9502
  20
1.0315
  42
1
  0
SEQEND
  0
SOLID
  8
Top_Paste
  10
-0.9827
  20
1.0465
  11
-0.9427
  21
1.0465
  12
-0.9827
  22
1.0165
  13
-0.9427
  23
1.0165
  0
SOLID
  8
Top_Paste
  10
-2.6523
  20
-0.1475
  11
-2.5823
  21
-0.1475
  12
-2.6523
  22
-0.1775
  13
-2.5823
  23
-0.1775
  0
POLYLINE
  8
Top_Paste
  6
CONTINUOUS
  66
1
  70
0
  40
0.015
  41
0.015
  0
VERTEX
  8
Top_Paste
  10
-2.5029
  20
-0.1625
  42
1
  0
VERTEX
  8
Top_Paste
  10
-2.4879
  20
-0.1625
  42
1
  0
VERTEX
  8
Top_Paste
  10
-2.5029
  20
-0.1625
  42
1
  0
SEQEND
  0
POLYLINE
  8
Top_Paste
  6
CONTINUOUS
  66
1
  70
0
  40
0.015
  41
0.015
  0
VERTEX
  8
Top_Paste
  10
-2.4629
  20
-0.1625
  42
1
  0
VERTEX
  8
Top_Paste
  10
-2.4479
  20
-0.1625
  42
1
  0
VERTEX
  8
Top_Paste
  10
-2.4629
  20
-0.1625
  42
1
  0
SEQEND
  0
SOLID
  8
Top_Paste
  10
-2.4954
  20
-0.1475
  11
-2.4554
  21
-0.1475
  12
-2.4954
  22
-0.1775
  13
-2.4554
  23
-0.1775
  0
SOLID
  8
Top_Paste
  10
-2.1313
  20
2.2831
  11
-2.0408
  21
2.2831
  12
-2.1313
  22
2.1926
  13
-2.0408
  23
2.1926
  0
SOLID
  8
Top_Paste
  10
-2.3085
  20
2.2831
  11
-2.2179
  21
2.2831
  12
-2.3085
  22
2.1926
  13
-2.2179
  23
2.1926
  0
SOLID
  8
Top_Paste
  10
-2.6523
  20
-0.2849
  11
-2.5823
  21
-0.2849
  12
-2.6523
  22
-0.3149
  13
-2.5823
  23
-0.3149
  0
POLYLINE
  8
Top_Paste
  6
CONTINUOUS
  66
1
  70
0
  40
0.015
  41
0.015
  0
VERTEX
  8
Top_Paste
  10
-2.5029
  20
-0.2999
  42
1
  0
VERTEX
  8
Top_Paste
  10
-2.4879
  20
-0.2999
  42
1
  0
VERTEX
  8
Top_Paste
  10
-2.5029
  20
-0.2999
  42
1
  0
SEQEND
  0
POLYLINE
  8
Top_Paste
  6
CONTINUOUS
  66
1
  70
0
  40
0.015
  41
0.015
  0
VERTEX
  8
Top_Paste
  10
-2.4629
  20
-0.2999
  42
1
  0
VERTEX
  8
Top_Paste
  10
-2.4479
  20
-0.2999
  42
1
  0
VERTEX
  8
Top_Paste
  10
-2.4629
  20
-0.2999
  42
1
  0
SEQEND
  0
SOLID
  8
Top_Paste
  10
-2.4954
  20
-0.2849
  11
-2.4554
  21
-0.2849
  12
-2.4954
  22
-0.3149
  13
-2.4554
  23
-0.3149
  0
SOLID
  8
Top_Paste
  10
-3.6746
  20
2.7684
  11
-3.6353
  21
2.7684
  12
-3.6746
  22
2.67
  13
-3.6353
  23
2.67
  0
SOLID
  8
Top_Paste
  10
-3.5565
  20
2.7684
  11
-3.5172
  21
2.7684
  12
-3.5565
  22
2.67
  13
-3.5172
  23
2.67
  0
SOLID
  8
Top_Paste
  10
-2.5028
  20
0.485
  11
-2.4319
  21
0.485
  12
-2.5028
  22
0.4653
  13
-2.4319
  23
0.4653
  0
SOLID
  8
Top_Paste
  10
-2.5028
  20
0.4535
  11
-2.4319
  21
0.4535
  12
-2.5028
  22
0.4338
  13
-2.4319
  23
0.4338
  0
SOLID
  8
Top_Paste
  10
-2.5028
  20
0.422
  11
-2.4319
  21
0.422
  12
-2.5028
  22
0.4023
  13
-2.4319
  23
0.4023
  0
SOLID
  8
Top_Paste
  10
-2.5028
  20
0.3905
  11
-2.4319
  21
0.3905
  12
-2.5028
  22
0.3708
  13
-2.4319
  23
0.3708
  0
SOLID
  8
Top_Paste
  10
-2.5028
  20
0.359
  11
-2.4319
  21
0.359
  12
-2.5028
  22
0.3394
  13
-2.4319
  23
0.3394
  0
SOLID
  8
Top_Paste
  10
-2.5028
  20
0.3275
  11
-2.4319
  21
0.3275
  12
-2.5028
  22
0.3079
  13
-2.4319
  23
0.3079
  0
SOLID
  8
Top_Paste
  10
-2.5028
  20
0.296
  11
-2.4319
  21
0.296
  12
-2.5028
  22
0.2764
  13
-2.4319
  23
0.2764
  0
SOLID
  8
Top_Paste
  10
-2.5028
  20
0.2645
  11
-2.4319
  21
0.2645
  12
-2.5028
  22
0.2449
  13
-2.4319
  23
0.2449
  0
SOLID
  8
Top_Paste
  10
-2.4178
  20
0.2314
  11
-2.3981
  21
0.2314
  12
-2.4178
  22
0.1605
  13
-2.3981
  23
0.1605
  0
SOLID
  8
Top_Paste
  10
-2.3863
  20
0.2314
  11
-2.3666
  21
0.2314
  12
-2.3863
  22
0.1605
  13
-2.3666
  23
0.1605
  0
SOLID
  8
Top_Paste
  10
-2.3548
  20
0.2314
  11
-2.3351
  21
0.2314
  12
-2.3548
  22
0.1605
  13
-2.3351
  23
0.1605
  0
SOLID
  8
Top_Paste
  10
-2.3233
  20
0.2314
  11
-2.3036
  21
0.2314
  12
-2.3233
  22
0.1605
  13
-2.3036
  23
0.1605
  0
SOLID
  8
Top_Paste
  10
-2.2918
  20
0.2314
  11
-2.2721
  21
0.2314
  12
-2.2918
  22
0.1605
  13
-2.2721
  23
0.1605
  0
SOLID
  8
Top_Paste
  10
-2.2603
  20
0.2314
  11
-2.2406
  21
0.2314
  12
-2.2603
  22
0.1605
  13
-2.2406
  23
0.1605
  0
SOLID
  8
Top_Paste
  10
-2.2288
  20
0.2314
  11
-2.2091
  21
0.2314
  12
-2.2288
  22
0.1605
  13
-2.2091
  23
0.1605
  0
SOLID
  8
Top_Paste
  10
-2.1973
  20
0.2314
  11
-2.1776
  21
0.2314
  12
-2.1973
  22
0.1605
  13
-2.1776
  23
0.1605
  0
SOLID
  8
Top_Paste
  10
-2.1642
  20
0.2652
  11
-2.0933
  21
0.2652
  12
-2.1642
  22
0.2455
  13
-2.0933
  23
0.2455
  0
SOLID
  8
Top_Paste
  10
-2.1642
  20
0.2967
  11
-2.0933
  21
0.2967
  12
-2.1642
  22
0.277
  13
-2.0933
  23
0.277
  0
SOLID
  8
Top_Paste
  10
-2.1642
  20
0.3282
  11
-2.0933
  21
0.3282
  12
-2.1642
  22
0.3085
  13
-2.0933
  23
0.3085
  0
SOLID
  8
Top_Paste
  10
-2.1642
  20
0.3597
  11
-2.0933
  21
0.3597
  12
-2.1642
  22
0.34
  13
-2.0933
  23
0.34
  0
SOLID
  8
Top_Paste
  10
-2.1642
  20
0.3912
  11
-2.0933
  21
0.3912
  12
-2.1642
  22
0.3715
  13
-2.0933
  23
0.3715
  0
SOLID
  8
Top_Paste
  10
-2.1642
  20
0.4227
  11
-2.0933
  21
0.4227
  12
-2.1642
  22
0.403
  13
-2.0933
  23
0.403
  0
SOLID
  8
Top_Paste
  10
-2.1642
  20
0.4542
  11
-2.0933
  21
0.4542
  12
-2.1642
  22
0.4345
  13
-2.0933
  23
0.4345
  0
SOLID
  8
Top_Paste
  10
-2.1642
  20
0.4856
  11
-2.0933
  21
0.4856
  12
-2.1642
  22
0.466
  13
-2.0933
  23
0.466
  0
SOLID
  8
Top_Paste
  10
-2.198
  20
0.57
  11
-2.1783
  21
0.57
  12
-2.198
  22
0.4991
  13
-2.1783
  23
0.4991
  0
SOLID
  8
Top_Paste
  10
-2.2295
  20
0.57
  11
-2.2098
  21
0.57
  12
-2.2295
  22
0.4991
  13
-2.2098
  23
0.4991
  0
SOLID
  8
Top_Paste
  10
-2.261
  20
0.57
  11
-2.2413
  21
0.57
  12
-2.261
  22
0.4991
  13
-2.2413
  23
0.4991
  0
SOLID
  8
Top_Paste
  10
-2.2924
  20
0.57
  11
-2.2728
  21
0.57
  12
-2.2924
  22
0.4991
  13
-2.2728
  23
0.4991
  0
SOLID
  8
Top_Paste
  10
-2.3239
  20
0.57
  11
-2.3043
  21
0.57
  12
-2.3239
  22
0.4991
  13
-2.3043
  23
0.4991
  0
SOLID
  8
Top_Paste
  10
-2.3554
  20
0.57
  11
-2.3358
  21
0.57
  12
-2.3554
  22
0.4991
  13
-2.3358
  23
0.4991
  0
SOLID
  8
Top_Paste
  10
-2.3869
  20
0.57
  11
-2.3673
  21
0.57
  12
-2.3869
  22
0.4991
  13
-2.3673
  23
0.4991
  0
SOLID
  8
Top_Paste
  10
-2.4184
  20
0.57
  11
-2.3987
  21
0.57
  12
-2.4184
  22
0.4991
  13
-2.3987
  23
0.4991
  0
SOLID
  8
Top_Paste
  10
-1.6215
  20
0.7349
  11
-1.5255
  21
0.7349
  12
-1.6215
  22
0.6905
  13
-1.5255
  23
0.6905
  0
SOLID
  8
Top_Paste
  10
-1.9601
  20
0.7349
  11
-1.864
  21
0.7349
  12
-1.9601
  22
0.6905
  13
-1.864
  23
0.6905
  0
SOLID
  8
Top_Paste
  10
-1.6215
  20
0.8349
  11
-1.5255
  21
0.8349
  12
-1.6215
  22
0.7905
  13
-1.5255
  23
0.7905
  0
SOLID
  8
Top_Paste
  10
-1.9601
  20
0.8349
  11
-1.864
  21
0.8349
  12
-1.9601
  22
0.7905
  13
-1.864
  23
0.7905
  0
SOLID
  8
Top_Paste
  10
-1.6215
  20
0.9349
  11
-1.5255
  21
0.9349
  12
-1.6215
  22
0.8905
  13
-1.5255
  23
0.8905
  0
SOLID
  8
Top_Paste
  10
-1.9601
  20
0.9349
  11
-1.864
  21
0.9349
  12
-1.9601
  22
0.8905
  13
-1.864
  23
0.8905
  0
SOLID
  8
Top_Paste
  10
-1.6215
  20
1.0349
  11
-1.5255
  21
1.0349
  12
-1.6215
  22
0.9905
  13
-1.5255
  23
0.9905
  0
SOLID
  8
Top_Paste
  10
-1.9601
  20
1.0349
  11
-1.864
  21
1.0349
  12
-1.9601
  22
0.9905
  13
-1.864
  23
0.9905
  0
SOLID
  8
Top_Paste
  10
-1.6215
  20
1.1349
  11
-1.5255
  21
1.1349
  12
-1.6215
  22
1.0905
  13
-1.5255
  23
1.0905
  0
SOLID
  8
Top_Paste
  10
-1.9601
  20
1.1349
  11
-1.864
  21
1.1349
  12
-1.9601
  22
1.0905
  13
-1.864
  23
1.0905
  0
SOLID
  8
Top_Paste
  10
-1.6215
  20
1.2349
  11
-1.5255
  21
1.2349
  12
-1.6215
  22
1.1905
  13
-1.5255
  23
1.1905
  0
SOLID
  8
Top_Paste
  10
-1.9601
  20
1.2349
  11
-1.864
  21
1.2349
  12
-1.9601
  22
1.1905
  13
-1.864
  23
1.1905
  0
SOLID
  8
Top_Paste
  10
-1.6215
  20
1.3349
  11
-1.5255
  21
1.3349
  12
-1.6215
  22
1.2905
  13
-1.5255
  23
1.2905
  0
SOLID
  8
Top_Paste
  10
-1.9601
  20
1.3349
  11
-1.864
  21
1.3349
  12
-1.9601
  22
1.2905
  13
-1.864
  23
1.2905
  0
SOLID
  8
Top_Paste
  10
-1.6215
  20
1.4349
  11
-1.5255
  21
1.4349
  12
-1.6215
  22
1.3905
  13
-1.5255
  23
1.3905
  0
SOLID
  8
Top_Paste
  10
-1.9601
  20
1.4349
  11
-1.864
  21
1.4349
  12
-1.9601
  22
1.3905
  13
-1.864
  23
1.3905
  0
SOLID
  8
Top_Paste
  10
-2.0013
  20
2.6399
  11
-1.8832
  21
2.6399
  12
-2.0013
  22
2.4234
  13
-1.8832
  23
2.4234
  0
SOLID
  8
Top_Paste
  10
-1.5976
  20
2.6399
  11
-1.4795
  21
2.6399
  12
-1.5976
  22
2.4234
  13
-1.4795
  23
2.4234
  0
SOLID
  8
Top_Paste
  10
-3.0561
  20
0.909
  11
-2.9537
  21
0.909
  12
-3.0561
  22
0.8539
  13
-2.9537
  23
0.8539
  0
SOLID
  8
Top_Paste
  10
-3.0561
  20
0.7673
  11
-2.9537
  21
0.7673
  12
-3.0561
  22
0.7122
  13
-2.9537
  23
0.7122
  0
SOLID
  8
Top_Paste
  10
-2.8198
  20
0.7673
  11
-2.7175
  21
0.7673
  12
-2.8198
  22
0.7122
  13
-2.7175
  23
0.7122
  0
SOLID
  8
Top_Paste
  10
-2.8198
  20
0.909
  11
-2.7175
  21
0.909
  12
-2.8198
  22
0.8539
  13
-2.7175
  23
0.8539
  0
SOLID
  8
Top_Paste
  10
-1.6968
  20
-0.2701
  11
-1.6648
  21
-0.2701
  12
-1.6968
  22
-0.3021
  13
-1.6648
  23
-0.3021
  0
SOLID
  8
Top_Paste
  10
-1.6968
  20
-0.3501
  11
-1.6648
  21
-0.3501
  12
-1.6968
  22
-0.3821
  13
-1.6648
  23
-0.3821
  0
SOLID
  8
Top_Paste
  10
-1.6098
  20
-0.3101
  11
-1.5778
  21
-0.3101
  12
-1.6098
  22
-0.3421
  13
-1.5778
  23
-0.3421
  0
SOLID
  8
Top_Paste
  10
-2.662
  20
0.9048
  11
-2.6108
  21
0.9048
  12
-2.662
  22
0.8458
  13
-2.6108
  23
0.8458
  0
SOLID
  8
Top_Paste
  10
-2.5872
  20
0.9048
  11
-2.536
  21
0.9048
  12
-2.5872
  22
0.8458
  13
-2.536
  23
0.8458
  0
SOLID
  8
Top_Paste
  10
-3.181
  20
1.0048
  11
-3.1298
  21
1.0048
  12
-3.181
  22
0.9458
  13
-3.1298
  23
0.9458
  0
SOLID
  8
Top_Paste
  10
-3.1062
  20
1.0048
  11
-3.055
  21
1.0048
  12
-3.1062
  22
0.9458
  13
-3.055
  23
0.9458
  0
SOLID
  8
Top_Paste
  10
-3.418
  20
-0.1642
  11
-3.3668
  21
-0.1642
  12
-3.418
  22
-0.2232
  13
-3.3668
  23
-0.2232
  0
SOLID
  8
Top_Paste
  10
-3.3432
  20
-0.1642
  11
-3.292
  21
-0.1642
  12
-3.3432
  22
-0.2232
  13
-3.292
  23
-0.2232
  0
SOLID
  8
Top_Paste
  10
-1.7127
  20
-0.0316
  11
-1.6615
  21
-0.0316
  12
-1.7127
  22
-0.0906
  13
-1.6615
  23
-0.0906
  0
SOLID
  8
Top_Paste
  10
-1.6379
  20
-0.0316
  11
-1.5867
  21
-0.0316
  12
-1.6379
  22
-0.0906
  13
-1.5867
  23
-0.0906
  0
SOLID
  8
Top_Paste
  10
-0.8758
  20
1.0673
  11
-0.8246
  21
1.0673
  12
-0.8758
  22
1.0082
  13
-0.8246
  23
1.0082
  0
SOLID
  8
Top_Paste
  10
-0.801
  20
1.0673
  11
-0.7498
  21
1.0673
  12
-0.801
  22
1.0082
  13
-0.7498
  23
1.0082
  0
SOLID
  8
Top_Paste
  10
-0.8758
  20
1.1923
  11
-0.8246
  21
1.1923
  12
-0.8758
  22
1.1332
  13
-0.8246
  23
1.1332
  0
SOLID
  8
Top_Paste
  10
-0.801
  20
1.1923
  11
-0.7498
  21
1.1923
  12
-0.801
  22
1.1332
  13
-0.7498
  23
1.1332
  0
SOLID
  8
Top_Paste
  10
-2.4053
  20
-0.1328
  11
-2.3541
  21
-0.1328
  12
-2.4053
  22
-0.1919
  13
-2.3541
  23
-0.1919
  0
SOLID
  8
Top_Paste
  10
-2.3305
  20
-0.1328
  11
-2.2793
  21
-0.1328
  12
-2.3305
  22
-0.1919
  13
-2.2793
  23
-0.1919
  0
SOLID
  8
Top_Paste
  10
-2.4053
  20
-0.2703
  11
-2.3541
  21
-0.2703
  12
-2.4053
  22
-0.3294
  13
-2.3541
  23
-0.3294
  0
SOLID
  8
Top_Paste
  10
-2.3305
  20
-0.2703
  11
-2.2793
  21
-0.2703
  12
-2.3305
  22
-0.3294
  13
-2.2793
  23
-0.3294
  0
SOLID
  8
Top_Paste
  10
-3.531
  20
0.9988
  11
-3.4798
  21
0.9988
  12
-3.531
  22
0.9398
  13
-3.4798
  23
0.9398
  0
SOLID
  8
Top_Paste
  10
-3.4562
  20
0.9988
  11
-3.405
  21
0.9988
  12
-3.4562
  22
0.9398
  13
-3.405
  23
0.9398
  0
SOLID
  8
Top_Paste
  10
-3.4627
  20
-0.3921
  11
-3.3722
  21
-0.3921
  12
-3.4627
  22
-0.4827
  13
-3.3722
  23
-0.4827
  0
SOLID
  8
Top_Paste
  10
-3.2855
  20
-0.3921
  11
-3.195
  21
-0.3921
  12
-3.2855
  22
-0.4827
  13
-3.195
  23
-0.4827
  0
SOLID
  8
Top_Paste
  10
-3.469
  20
0.1017
  11
-3.3784
  21
0.1017
  12
-3.469
  22
0.0111
  13
-3.3784
  23
0.0111
  0
SOLID
  8
Top_Paste
  10
-3.2918
  20
0.1017
  11
-3.2012
  21
0.1017
  12
-3.2918
  22
0.0111
  13
-3.2012
  23
0.0111
  0
SOLID
  8
Top_Paste
  10
-3.6753
  20
2.2271
  11
-3.5847
  21
2.2271
  12
-3.6753
  22
2.1365
  13
-3.5847
  23
2.1365
  0
SOLID
  8
Top_Paste
  10
-3.6753
  20
2.4043
  11
-3.5847
  21
2.4043
  12
-3.6753
  22
2.3137
  13
-3.5847
  23
2.3137
  0
SOLID
  8
Top_Paste
  10
-2.5294
  20
2.7372
  11
-2.4428
  21
2.7372
  12
-2.5294
  22
2.7136
  13
-2.4428
  23
2.7136
  0
SOLID
  8
Top_Paste
  10
-2.5294
  20
2.6872
  11
-2.4428
  21
2.6872
  12
-2.5294
  22
2.6636
  13
-2.4428
  23
2.6636
  0
SOLID
  8
Top_Paste
  10
-2.5294
  20
2.6372
  11
-2.4428
  21
2.6372
  12
-2.5294
  22
2.6136
  13
-2.4428
  23
2.6136
  0
SOLID
  8
Top_Paste
  10
-2.5294
  20
2.5872
  11
-2.4428
  21
2.5872
  12
-2.5294
  22
2.5636
  13
-2.4428
  23
2.5636
  0
SOLID
  8
Top_Paste
  10
-2.5294
  20
2.5372
  11
-2.4428
  21
2.5372
  12
-2.5294
  22
2.5136
  13
-2.4428
  23
2.5136
  0
SOLID
  8
Top_Paste
  10
-2.5294
  20
2.4872
  11
-2.4428
  21
2.4872
  12
-2.5294
  22
2.4636
  13
-2.4428
  23
2.4636
  0
SOLID
  8
Top_Paste
  10
-2.5294
  20
2.4372
  11
-2.4428
  21
2.4372
  12
-2.5294
  22
2.4136
  13
-2.4428
  23
2.4136
  0
SOLID
  8
Top_Paste
  10
-2.1672
  20
2.4372
  11
-2.0806
  21
2.4372
  12
-2.1672
  22
2.4136
  13
-2.0806
  23
2.4136
  0
SOLID
  8
Top_Paste
  10
-2.1672
  20
2.4872
  11
-2.0806
  21
2.4872
  12
-2.1672
  22
2.4636
  13
-2.0806
  23
2.4636
  0
SOLID
  8
Top_Paste
  10
-2.1672
  20
2.5372
  11
-2.0806
  21
2.5372
  12
-2.1672
  22
2.5136
  13
-2.0806
  23
2.5136
  0
SOLID
  8
Top_Paste
  10
-2.1672
  20
2.5872
  11
-2.0806
  21
2.5872
  12
-2.1672
  22
2.5636
  13
-2.0806
  23
2.5636
  0
SOLID
  8
Top_Paste
  10
-2.1672
  20
2.6372
  11
-2.0806
  21
2.6372
  12
-2.1672
  22
2.6136
  13
-2.0806
  23
2.6136
  0
SOLID
  8
Top_Paste
  10
-2.1672
  20
2.6872
  11
-2.0806
  21
2.6872
  12
-2.1672
  22
2.6636
  13
-2.0806
  23
2.6636
  0
SOLID
  8
Top_Paste
  10
-2.1672
  20
2.7372
  11
-2.0806
  21
2.7372
  12
-2.1672
  22
2.7136
  13
-2.0806
  23
2.7136
  0
SOLID
  8
Top_Paste
  10
-1.251
  20
1.7184
  11
-1.1584
  21
1.7184
  12
-1.251
  22
1.6947
  13
-1.1584
  23
1.6947
  0
SOLID
  8
Top_Paste
  10
-1.251
  20
1.6684
  11
-1.1584
  21
1.6684
  12
-1.251
  22
1.6447
  13
-1.1584
  23
1.6447
  0
SOLID
  8
Top_Paste
  10
-1.251
  20
1.6184
  11
-1.1584
  21
1.6184
  12
-1.251
  22
1.5947
  13
-1.1584
  23
1.5947
  0
SOLID
  8
Top_Paste
  10
-1.251
  20
1.5684
  11
-1.1584
  21
1.5684
  12
-1.251
  22
1.5447
  13
-1.1584
  23
1.5447
  0
SOLID
  8
Top_Paste
  10
-1.251
  20
1.5184
  11
-1.1584
  21
1.5184
  12
-1.251
  22
1.4947
  13
-1.1584
  23
1.4947
  0
SOLID
  8
Top_Paste
  10
-1.251
  20
1.4684
  11
-1.1584
  21
1.4684
  12
-1.251
  22
1.4447
  13
-1.1584
  23
1.4447
  0
SOLID
  8
Top_Paste
  10
-1.251
  20
1.4184
  11
-1.1584
  21
1.4184
  12
-1.251
  22
1.3947
  13
-1.1584
  23
1.3947
  0
SOLID
  8
Top_Paste
  10
-1.251
  20
1.3684
  11
-1.1584
  21
1.3684
  12
-1.251
  22
1.3447
  13
-1.1584
  23
1.3447
  0
SOLID
  8
Top_Paste
  10
-0.8553
  20
1.3684
  11
-0.7628
  21
1.3684
  12
-0.8553
  22
1.3447
  13
-0.7628
  23
1.3447
  0
SOLID
  8
Top_Paste
  10
-0.8553
  20
1.4184
  11
-0.7628
  21
1.4184
  12
-0.8553
  22
1.3947
  13
-0.7628
  23
1.3947
  0
SOLID
  8
Top_Paste
  10
-0.8553
  20
1.4684
  11
-0.7628
  21
1.4684
  12
-0.8553
  22
1.4447
  13
-0.7628
  23
1.4447
  0
SOLID
  8
Top_Paste
  10
-0.8553
  20
1.5184
  11
-0.7628
  21
1.5184
  12
-0.8553
  22
1.4947
  13
-0.7628
  23
1.4947
  0
SOLID
  8
Top_Paste
  10
-0.8553
  20
1.5684
  11
-0.7628
  21
1.5684
  12
-0.8553
  22
1.5447
  13
-0.7628
  23
1.5447
  0
SOLID
  8
Top_Paste
  10
-0.8553
  20
1.6184
  11
-0.7628
  21
1.6184
  12
-0.8553
  22
1.5947
  13
-0.7628
  23
1.5947
  0
SOLID
  8
Top_Paste
  10
-0.8553
  20
1.6684
  11
-0.7628
  21
1.6684
  12
-0.8553
  22
1.6447
  13
-0.7628
  23
1.6447
  0
SOLID
  8
Top_Paste
  10
-0.8553
  20
1.7184
  11
-0.7628
  21
1.7184
  12
-0.8553
  22
1.6947
  13
-0.7628
  23
1.6947
  0
SOLID
  8
Top_Paste
  10
-3.1183
  20
-0.1506
  11
-3.0415
  21
-0.1506
  12
-3.1183
  22
-0.1742
  13
-3.0415
  23
-0.1742
  0
SOLID
  8
Top_Paste
  10
-3.1183
  20
-0.2006
  11
-3.0415
  21
-0.2006
  12
-3.1183
  22
-0.2242
  13
-3.0415
  23
-0.2242
  0
SOLID
  8
Top_Paste
  10
-3.1183
  20
-0.2506
  11
-3.0415
  21
-0.2506
  12
-3.1183
  22
-0.2742
  13
-3.0415
  23
-0.2742
  0
SOLID
  8
Top_Paste
  10
-3.1183
  20
-0.3006
  11
-3.0415
  21
-0.3006
  12
-3.1183
  22
-0.3242
  13
-3.0415
  23
-0.3242
  0
SOLID
  8
Top_Paste
  10
-2.8486
  20
-0.3006
  11
-2.7718
  21
-0.3006
  12
-2.8486
  22
-0.3242
  13
-2.7718
  23
-0.3242
  0
SOLID
  8
Top_Paste
  10
-2.8486
  20
-0.2506
  11
-2.7718
  21
-0.2506
  12
-2.8486
  22
-0.2742
  13
-2.7718
  23
-0.2742
  0
SOLID
  8
Top_Paste
  10
-2.8486
  20
-0.2006
  11
-2.7718
  21
-0.2006
  12
-2.8486
  22
-0.2242
  13
-2.7718
  23
-0.2242
  0
SOLID
  8
Top_Paste
  10
-2.8486
  20
-0.1506
  11
-2.7718
  21
-0.1506
  12
-2.8486
  22
-0.1742
  13
-2.7718
  23
-0.1742
  0
SOLID
  8
Top_Paste
  10
-2.9794
  20
1.8245
  11
-2.8928
  21
1.8245
  12
-2.9794
  22
1.8009
  13
-2.8928
  23
1.8009
  0
SOLID
  8
Top_Paste
  10
-2.9794
  20
1.7745
  11
-2.8928
  21
1.7745
  12
-2.9794
  22
1.7509
  13
-2.8928
  23
1.7509
  0
SOLID
  8
Top_Paste
  10
-2.9794
  20
1.7245
  11
-2.8928
  21
1.7245
  12
-2.9794
  22
1.7009
  13
-2.8928
  23
1.7009
  0
SOLID
  8
Top_Paste
  10
-2.9794
  20
1.6745
  11
-2.8928
  21
1.6745
  12
-2.9794
  22
1.6509
  13
-2.8928
  23
1.6509
  0
SOLID
  8
Top_Paste
  10
-2.9794
  20
1.6245
  11
-2.8928
  21
1.6245
  12
-2.9794
  22
1.6009
  13
-2.8928
  23
1.6009
  0
SOLID
  8
Top_Paste
  10
-2.9794
  20
1.5745
  11
-2.8928
  21
1.5745
  12
-2.9794
  22
1.5509
  13
-2.8928
  23
1.5509
  0
SOLID
  8
Top_Paste
  10
-2.9794
  20
1.5245
  11
-2.8928
  21
1.5245
  12
-2.9794
  22
1.5009
  13
-2.8928
  23
1.5009
  0
SOLID
  8
Top_Paste
  10
-2.9794
  20
1.4745
  11
-2.8928
  21
1.4745
  12
-2.9794
  22
1.4509
  13
-2.8928
  23
1.4509
  0
SOLID
  8
Top_Paste
  10
-2.9794
  20
1.4245
  11
-2.8928
  21
1.4245
  12
-2.9794
  22
1.4009
  13
-2.8928
  23
1.4009
  0
SOLID
  8
Top_Paste
  10
-2.9794
  20
1.3745
  11
-2.8928
  21
1.3745
  12
-2.9794
  22
1.3509
  13
-2.8928
  23
1.3509
  0
SOLID
  8
Top_Paste
  10
-2.9794
  20
1.3245
  11
-2.8928
  21
1.3245
  12
-2.9794
  22
1.3009
  13
-2.8928
  23
1.3009
  0
SOLID
  8
Top_Paste
  10
-2.9794
  20
1.2745
  11
-2.8928
  21
1.2745
  12
-2.9794
  22
1.2509
  13
-2.8928
  23
1.2509
  0
SOLID
  8
Top_Paste
  10
-2.9794
  20
1.2245
  11
-2.8928
  21
1.2245
  12
-2.9794
  22
1.2009
  13
-2.8928
  23
1.2009
  0
SOLID
  8
Top_Paste
  10
-2.9794
  20
1.1745
  11
-2.8928
  21
1.1745
  12
-2.9794
  22
1.1509
  13
-2.8928
  23
1.1509
  0
SOLID
  8
Top_Paste
  10
-2.5995
  20
1.1745
  11
-2.5129
  21
1.1745
  12
-2.5995
  22
1.1509
  13
-2.5129
  23
1.1509
  0
SOLID
  8
Top_Paste
  10
-2.5995
  20
1.2245
  11
-2.5129
  21
1.2245
  12
-2.5995
  22
1.2009
  13
-2.5129
  23
1.2009
  0
SOLID
  8
Top_Paste
  10
-2.5995
  20
1.2745
  11
-2.5129
  21
1.2745
  12
-2.5995
  22
1.2509
  13
-2.5129
  23
1.2509
  0
SOLID
  8
Top_Paste
  10
-2.5995
  20
1.3245
  11
-2.5129
  21
1.3245
  12
-2.5995
  22
1.3009
  13
-2.5129
  23
1.3009
  0
SOLID
  8
Top_Paste
  10
-2.5995
  20
1.3745
  11
-2.5129
  21
1.3745
  12
-2.5995
  22
1.3509
  13
-2.5129
  23
1.3509
  0
SOLID
  8
Top_Paste
  10
-2.5995
  20
1.4245
  11
-2.5129
  21
1.4245
  12
-2.5995
  22
1.4009
  13
-2.5129
  23
1.4009
  0
SOLID
  8
Top_Paste
  10
-2.5995
  20
1.4745
  11
-2.5129
  21
1.4745
  12
-2.5995
  22
1.4509
  13
-2.5129
  23
1.4509
  0
SOLID
  8
Top_Paste
  10
-2.5995
  20
1.5245
  11
-2.5129
  21
1.5245
  12
-2.5995
  22
1.5009
  13
-2.5129
  23
1.5009
  0
SOLID
  8
Top_Paste
  10
-2.5995
  20
1.5745
  11
-2.5129
  21
1.5745
  12
-2.5995
  22
1.5509
  13
-2.5129
  23
1.5509
  0
SOLID
  8
Top_Paste
  10
-2.5995
  20
1.6245
  11
-2.5129
  21
1.6245
  12
-2.5995
  22
1.6009
  13
-2.5129
  23
1.6009
  0
SOLID
  8
Top_Paste
  10
-2.5995
  20
1.6745
  11
-2.5129
  21
1.6745
  12
-2.5995
  22
1.6509
  13
-2.5129
  23
1.6509
  0
SOLID
  8
Top_Paste
  10
-2.5995
  20
1.7245
  11
-2.5129
  21
1.7245
  12
-2.5995
  22
1.7009
  13
-2.5129
  23
1.7009
  0
SOLID
  8
Top_Paste
  10
-2.5995
  20
1.7745
  11
-2.5129
  21
1.7745
  12
-2.5995
  22
1.7509
  13
-2.5129
  23
1.7509
  0
SOLID
  8
Top_Paste
  10
-2.5995
  20
1.8245
  11
-2.5129
  21
1.8245
  12
-2.5995
  22
1.8009
  13
-2.5129
  23
1.8009
  0
SOLID
  8
Top_Paste
  10
-2.037
  20
1.6755
  11
-1.9976
  21
1.6755
  12
-2.037
  22
1.6126
  13
-1.9976
  23
1.6126
  0
SOLID
  8
Top_Paste
  10
-1.8598
  20
1.6755
  11
-1.8204
  21
1.6755
  12
-1.8598
  22
1.6126
  13
-1.8204
  23
1.6126
  0
SOLID
  8
Top_Paste
  10
-2.037
  20
2.0417
  11
-1.8204
  21
2.0417
  12
-2.037
  22
1.8291
  13
-1.8204
  23
1.8291
  0
SOLID
  8
Top_Paste
  10
-3.4757
  20
0.5896
  11
-3.2592
  21
0.5896
  12
-3.4757
  22
0.5108
  13
-3.2592
  23
0.5108
  0
SOLID
  8
Top_Paste
  10
-3.1017
  20
0.5896
  11
-2.8851
  21
0.5896
  12
-3.1017
  22
0.5108
  13
-2.8851
  23
0.5108
  0
SOLID
  8
Top_Paste
  10
-3.4883
  20
1.9151
  11
-3.4528
  21
1.9151
  12
-3.4883
  22
1.8836
  13
-3.4528
  23
1.8836
  0
SOLID
  8
Top_Paste
  10
-3.4332
  20
1.9151
  11
-3.3977
  21
1.9151
  12
-3.4332
  22
1.8836
  13
-3.3977
  23
1.8836
  0
SOLID
  8
Top_Paste
  10
-3.118
  20
2.1298
  11
-3.0668
  21
2.1298
  12
-3.118
  22
2.0708
  13
-3.0668
  23
2.0708
  0
SOLID
  8
Top_Paste
  10
-3.0432
  20
2.1298
  11
-2.992
  21
2.1298
  12
-3.0432
  22
2.0708
  13
-2.992
  23
2.0708
  0
SOLID
  8
Top_Paste
  10
-3.312
  20
2.0298
  11
-3.2608
  21
2.0298
  12
-3.312
  22
1.9708
  13
-3.2608
  23
1.9708
  0
SOLID
  8
Top_Paste
  10
-3.2372
  20
2.0298
  11
-3.186
  21
2.0298
  12
-3.2372
  22
1.9708
  13
-3.186
  23
1.9708
  0
SOLID
  8
Top_Paste
  10
-3.9306
  20
1.8798
  11
-3.8794
  21
1.8798
  12
-3.9306
  22
1.8208
  13
-3.8794
  23
1.8208
  0
SOLID
  8
Top_Paste
  10
-3.8558
  20
1.8798
  11
-3.8046
  21
1.8798
  12
-3.8558
  22
1.8208
  13
-3.8046
  23
1.8208
  0
SOLID
  8
Top_Paste
  10
-3.9243
  20
1.1048
  11
-3.8731
  21
1.1048
  12
-3.9243
  22
1.0457
  13
-3.8731
  23
1.0457
  0
SOLID
  8
Top_Paste
  10
-3.8495
  20
1.1048
  11
-3.7983
  21
1.1048
  12
-3.8495
  22
1.0457
  13
-3.7983
  23
1.0457
  0
SOLID
  8
Top_Paste
  10
-3.349
  20
1.0798
  11
-3.2978
  21
1.0798
  12
-3.349
  22
1.0208
  13
-3.2978
  23
1.0208
  0
SOLID
  8
Top_Paste
  10
-3.2742
  20
1.0798
  11
-3.223
  21
1.0798
  12
-3.2742
  22
1.0208
  13
-3.223
  23
1.0208
  0
SOLID
  8
Top_Paste
  10
-3.349
  20
1.0048
  11
-3.2978
  21
1.0048
  12
-3.349
  22
0.9458
  13
-3.2978
  23
0.9458
  0
SOLID
  8
Top_Paste
  10
-3.2742
  20
1.0048
  11
-3.223
  21
1.0048
  12
-3.2742
  22
0.9458
  13
-3.223
  23
0.9458
  0
SOLID
  8
Top_Paste
  10
-3.4537
  20
1.0782
  11
-3.3937
  21
1.0782
  12
-3.4537
  22
1.0222
  13
-3.3937
  23
1.0222
  0
SOLID
  8
Top_Paste
  10
-3.5437
  20
1.0782
  11
-3.4837
  21
1.0782
  12
-3.5437
  22
1.0222
  13
-3.4837
  23
1.0222
  0
SOLID
  8
Top_Paste
  10
-3.229
  20
2.1283
  11
-3.169
  21
2.1283
  12
-3.229
  22
2.0723
  13
-3.169
  23
2.0723
  0
SOLID
  8
Top_Paste
  10
-3.319
  20
2.1283
  11
-3.259
  21
2.1283
  12
-3.319
  22
2.0723
  13
-3.259
  23
2.0723
  0
SOLID
  8
Top_Paste
  10
1.5927
  20
1.5292
  11
1.6636
  21
1.5292
  12
1.5927
  22
1.4623
  13
1.6636
  23
1.4623
  0
SOLID
  8
Top_Paste
  10
1.5927
  20
1.6985
  11
1.6636
  21
1.6985
  12
1.5927
  22
1.6316
  13
1.6636
  23
1.6316
  0
SOLID
  8
Top_Paste
  10
0.9209
  20
-0.4407
  11
0.9809
  21
-0.4407
  12
0.9209
  22
-0.4967
  13
0.9809
  23
-0.4967
  0
SOLID
  8
Top_Paste
  10
1.0109
  20
-0.4407
  11
1.0709
  21
-0.4407
  12
1.0109
  22
-0.4967
  13
1.0709
  23
-0.4967
  0
SOLID
  8
Top_Paste
  10
3.0794
  20
1.9275
  11
3.1394
  21
1.9275
  12
3.0794
  22
1.8715
  13
3.1394
  23
1.8715
  0
SOLID
  8
Top_Paste
  10
3.1694
  20
1.9275
  11
3.2294
  21
1.9275
  12
3.1694
  22
1.8715
  13
3.2294
  23
1.8715
  0
SOLID
  8
Top_Paste
  10
1.2229
  20
0.3614
  11
1.2789
  21
0.3614
  12
1.2229
  22
0.3014
  13
1.2789
  23
0.3014
  0
SOLID
  8
Top_Paste
  10
1.2229
  20
0.4514
  11
1.2789
  21
0.4514
  12
1.2229
  22
0.3914
  13
1.2789
  23
0.3914
  0
SOLID
  8
Top_Paste
  10
0.5488
  20
0.3533
  11
0.6088
  21
0.3533
  12
0.5488
  22
0.2973
  13
0.6088
  23
0.2973
  0
SOLID
  8
Top_Paste
  10
0.6388
  20
0.3533
  11
0.6988
  21
0.3533
  12
0.6388
  22
0.2973
  13
0.6988
  23
0.2973
  0
SOLID
  8
Top_Paste
  10
2.9669
  20
1.9275
  11
3.0269
  21
1.9275
  12
2.9669
  22
1.8715
  13
3.0269
  23
1.8715
  0
SOLID
  8
Top_Paste
  10
2.8769
  20
1.9275
  11
2.9369
  21
1.9275
  12
2.8769
  22
1.8715
  13
2.9369
  23
1.8715
  0
SOLID
  8
Top_Paste
  10
2.519
  20
1.8173
  11
2.575
  21
1.8173
  12
2.519
  22
1.7573
  13
2.575
  23
1.7573
  0
SOLID
  8
Top_Paste
  10
2.519
  20
1.7273
  11
2.575
  21
1.7273
  12
2.519
  22
1.6673
  13
2.575
  23
1.6673
  0
SOLID
  8
Top_Paste
  10
2.5189
  20
1.617
  11
2.5749
  21
1.617
  12
2.5189
  22
1.557
  13
2.5749
  23
1.557
  0
SOLID
  8
Top_Paste
  10
2.5189
  20
1.527
  11
2.5749
  21
1.527
  12
2.5189
  22
1.467
  13
2.5749
  23
1.467
  0
SOLID
  8
Top_Paste
  10
2.5189
  20
1.3232
  11
2.5749
  21
1.3232
  12
2.5189
  22
1.2632
  13
2.5749
  23
1.2632
  0
SOLID
  8
Top_Paste
  10
2.5189
  20
1.4132
  11
2.5749
  21
1.4132
  12
2.5189
  22
1.3532
  13
2.5749
  23
1.3532
  0
SOLID
  8
Top_Paste
  10
2.6794
  20
1.9275
  11
2.7394
  21
1.9275
  12
2.6794
  22
1.8715
  13
2.7394
  23
1.8715
  0
SOLID
  8
Top_Paste
  10
2.7694
  20
1.9275
  11
2.8294
  21
1.9275
  12
2.7694
  22
1.8715
  13
2.8294
  23
1.8715
  0
SOLID
  8
Top_Paste
  10
1.979
  20
0.3673
  11
2.035
  21
0.3673
  12
1.979
  22
0.3073
  13
2.035
  23
0.3073
  0
SOLID
  8
Top_Paste
  10
1.979
  20
0.4573
  11
2.035
  21
0.4573
  12
1.979
  22
0.3973
  13
2.035
  23
0.3973
  0
SOLID
  8
Top_Paste
  10
0.4396
  20
0.8095
  11
0.4996
  21
0.8095
  12
0.4396
  22
0.7535
  13
0.4996
  23
0.7535
  0
SOLID
  8
Top_Paste
  10
0.5296
  20
0.8095
  11
0.5896
  21
0.8095
  12
0.5296
  22
0.7535
  13
0.5896
  23
0.7535
  0
SOLID
  8
Top_Paste
  10
0.9084
  20
0.1031
  11
0.9684
  21
0.1031
  12
0.9084
  22
0.0471
  13
0.9684
  23
0.0471
  0
SOLID
  8
Top_Paste
  10
0.9984
  20
0.1031
  11
1.0584
  21
0.1031
  12
0.9984
  22
0.0471
  13
1.0584
  23
0.0471
  0
SOLID
  8
Top_Paste
  10
1.2159
  20
2.5657
  11
1.2359
  21
2.5657
  12
1.2159
  22
2.4476
  13
1.2359
  23
2.4476
  0
SOLID
  8
Top_Paste
  10
1.2159
  20
2.3688
  11
1.2359
  21
2.3688
  12
1.2159
  22
2.2507
  13
1.2359
  23
2.2507
  0
SOLID
  8
Top_Paste
  10
1.4647
  20
2.2534
  11
1.5247
  21
2.2534
  12
1.4647
  22
2.1974
  13
1.5247
  23
2.1974
  0
SOLID
  8
Top_Paste
  10
1.3747
  20
2.2534
  11
1.4347
  21
2.2534
  12
1.3747
  22
2.1974
  13
1.4347
  23
2.1974
  0
SOLID
  8
Top_Paste
  10
2.6488
  20
2.764
  11
2.6783
  21
2.764
  12
2.6488
  22
2.5868
  13
2.6783
  23
2.5868
  0
SOLID
  8
Top_Paste
  10
2.6488
  20
2.5278
  11
2.6783
  21
2.5278
  12
2.6488
  22
2.3506
  13
2.6783
  23
2.3506
  0
SOLID
  8
Top_Paste
  10
3.2524
  20
2.3409
  11
3.3124
  21
2.3409
  12
3.2524
  22
2.2849
  13
3.3124
  23
2.2849
  0
SOLID
  8
Top_Paste
  10
3.1624
  20
2.3409
  11
3.2224
  21
2.3409
  12
3.1624
  22
2.2849
  13
3.2224
  23
2.2849
  0
SOLID
  8
Top_Paste
  10
0.8926
  20
0.3471
  11
0.9526
  21
0.3471
  12
0.8926
  22
0.2911
  13
0.9526
  23
0.2911
  0
SOLID
  8
Top_Paste
  10
0.8026
  20
0.3471
  11
0.8626
  21
0.3471
  12
0.8026
  22
0.2911
  13
0.8626
  23
0.2911
  0
SOLID
  8
Top_Paste
  10
2.8988
  20
2.764
  11
2.9283
  21
2.764
  12
2.8988
  22
2.5868
  13
2.9283
  23
2.5868
  0
SOLID
  8
Top_Paste
  10
2.8988
  20
2.5278
  11
2.9283
  21
2.5278
  12
2.8988
  22
2.3506
  13
2.9283
  23
2.3506
  0
SOLID
  8
Top_Paste
  10
3.1349
  20
2.7345
  11
3.1549
  21
2.7345
  12
3.1349
  22
2.6164
  13
3.1549
  23
2.6164
  0
SOLID
  8
Top_Paste
  10
3.1349
  20
2.5376
  11
3.1549
  21
2.5376
  12
3.1349
  22
2.4195
  13
3.1549
  23
2.4195
  0
SOLID
  8
Top_Paste
  10
1.0096
  20
2.5657
  11
1.0296
  21
2.5657
  12
1.0096
  22
2.4476
  13
1.0296
  23
2.4476
  0
SOLID
  8
Top_Paste
  10
1.0096
  20
2.3688
  11
1.0296
  21
2.3688
  12
1.0096
  22
2.2507
  13
1.0296
  23
2.2507
  0
SOLID
  8
Top_Paste
  10
0.8034
  20
2.5657
  11
0.8234
  21
2.5657
  12
0.8034
  22
2.4476
  13
0.8234
  23
2.4476
  0
SOLID
  8
Top_Paste
  10
0.8034
  20
2.3688
  11
0.8234
  21
2.3688
  12
0.8034
  22
2.2507
  13
0.8234
  23
2.2507
  0
SOLID
  8
Top_Paste
  10
3.3474
  20
2.7345
  11
3.3674
  21
2.7345
  12
3.3474
  22
2.6164
  13
3.3674
  23
2.6164
  0
SOLID
  8
Top_Paste
  10
3.3474
  20
2.5376
  11
3.3674
  21
2.5376
  12
3.3474
  22
2.4195
  13
3.3674
  23
2.4195
  0
SOLID
  8
Top_Paste
  10
1.5772
  20
1.4283
  11
1.6372
  21
1.4283
  12
1.5772
  22
1.3723
  13
1.6372
  23
1.3723
  0
SOLID
  8
Top_Paste
  10
1.6672
  20
1.4283
  11
1.7272
  21
1.4283
  12
1.6672
  22
1.3723
  13
1.7272
  23
1.3723
  0
SOLID
  8
Top_Paste
  10
1.5709
  20
1.7908
  11
1.6309
  21
1.7908
  12
1.5709
  22
1.7348
  13
1.6309
  23
1.7348
  0
SOLID
  8
Top_Paste
  10
1.6609
  20
1.7908
  11
1.7209
  21
1.7908
  12
1.6609
  22
1.7348
  13
1.7209
  23
1.7348
  0
SOLID
  8
Top_Paste
  10
0.8084
  20
2.0346
  11
0.8684
  21
2.0346
  12
0.8084
  22
1.9786
  13
0.8684
  23
1.9786
  0
SOLID
  8
Top_Paste
  10
0.8984
  20
2.0346
  11
0.9584
  21
2.0346
  12
0.8984
  22
1.9786
  13
0.9584
  23
1.9786
  0
SOLID
  8
Top_Paste
  10
0.746
  20
1.0783
  11
0.806
  21
1.0783
  12
0.746
  22
1.0223
  13
0.806
  23
1.0223
  0
SOLID
  8
Top_Paste
  10
0.836
  20
1.0783
  11
0.896
  21
1.0783
  12
0.836
  22
1.0223
  13
0.896
  23
1.0223
  0
SOLID
  8
Top_Paste
  10
1.4397
  20
1.072
  11
1.4997
  21
1.072
  12
1.4397
  22
1.016
  13
1.4997
  23
1.016
  0
SOLID
  8
Top_Paste
  10
1.5297
  20
1.072
  11
1.5897
  21
1.072
  12
1.5297
  22
1.016
  13
1.5897
  23
1.016
  0
SOLID
  8
Top_Paste
  10
1.5709
  20
1.9971
  11
1.6309
  21
1.9971
  12
1.5709
  22
1.9411
  13
1.6309
  23
1.9411
  0
SOLID
  8
Top_Paste
  10
1.6609
  20
1.9971
  11
1.7209
  21
1.9971
  12
1.6609
  22
1.9411
  13
1.7209
  23
1.9411
  0
SOLID
  8
Top_Paste
  10
1.0981
  20
2.0478
  11
1.2162
  21
2.0478
  12
1.0981
  22
2.0278
  13
1.2162
  23
2.0278
  0
SOLID
  8
Top_Paste
  10
1.2949
  20
2.0478
  11
1.413
  21
2.0478
  12
1.2949
  22
2.0278
  13
1.413
  23
2.0278
  0
SOLID
  8
Top_Paste
  10
2.1855
  20
1.7741
  11
2.2415
  21
1.7741
  12
2.1855
  22
1.7141
  13
2.2415
  23
1.7141
  0
SOLID
  8
Top_Paste
  10
2.1855
  20
1.8641
  11
2.2415
  21
1.8641
  12
2.1855
  22
1.8041
  13
2.2415
  23
1.8041
  0
SOLID
  8
Top_Paste
  10
2.2368
  20
0.2369
  11
2.288
  21
0.2369
  12
2.2368
  22
0.2035
  13
2.288
  23
0.2035
  0
SOLID
  8
Top_Paste
  10
2.2368
  20
0.1621
  11
2.288
  21
0.1621
  12
2.2368
  22
0.1287
  13
2.288
  23
0.1287
  0
SOLID
  8
Top_Paste
  10
2.3235
  20
0.1995
  11
2.3746
  21
0.1995
  12
2.3235
  22
0.1661
  13
2.3746
  23
0.1661
  0
SOLID
  8
Top_Paste
  10
0.4557
  20
2.2331
  11
0.5463
  21
2.2331
  12
0.4557
  22
2.1425
  13
0.5463
  23
2.1425
  0
SOLID
  8
Top_Paste
  10
0.4557
  20
2.4103
  11
0.5463
  21
2.4103
  12
0.4557
  22
2.3197
  13
0.5463
  23
2.3197
  0
SOLID
  8
Top_Paste
  10
2.7973
  20
1.184
  11
2.8673
  21
1.184
  12
2.7973
  22
1.154
  13
2.8673
  23
1.154
  0
POLYLINE
  8
Top_Paste
  6
CONTINUOUS
  66
1
  70
0
  40
0.015
  41
0.015
  0
VERTEX
  8
Top_Paste
  10
2.9468
  20
1.169
  42
1
  0
VERTEX
  8
Top_Paste
  10
2.9618
  20
1.169
  42
1
  0
VERTEX
  8
Top_Paste
  10
2.9468
  20
1.169
  42
1
  0
SEQEND
  0
POLYLINE
  8
Top_Paste
  6
CONTINUOUS
  66
1
  70
0
  40
0.015
  41
0.015
  0
VERTEX
  8
Top_Paste
  10
2.9868
  20
1.169
  42
1
  0
VERTEX
  8
Top_Paste
  10
3.0018
  20
1.169
  42
1
  0
VERTEX
  8
Top_Paste
  10
2.9868
  20
1.169
  42
1
  0
SEQEND
  0
SOLID
  8
Top_Paste
  10
2.9543
  20
1.184
  11
2.9943
  21
1.184
  12
2.9543
  22
1.154
  13
2.9943
  23
1.154
  0
SOLID
  8
Top_Paste
  10
2.7973
  20
1.0465
  11
2.8673
  21
1.0465
  12
2.7973
  22
1.0165
  13
2.8673
  23
1.0165
  0
POLYLINE
  8
Top_Paste
  6
CONTINUOUS
  66
1
  70
0
  40
0.015
  41
0.015
  0
VERTEX
  8
Top_Paste
  10
2.9468
  20
1.0315
  42
1
  0
VERTEX
  8
Top_Paste
  10
2.9618
  20
1.0315
  42
1
  0
VERTEX
  8
Top_Paste
  10
2.9468
  20
1.0315
  42
1
  0
SEQEND
  0
POLYLINE
  8
Top_Paste
  6
CONTINUOUS
  66
1
  70
0
  40
0.015
  41
0.015
  0
VERTEX
  8
Top_Paste
  10
2.9868
  20
1.0315
  42
1
  0
VERTEX
  8
Top_Paste
  10
3.0018
  20
1.0315
  42
1
  0
VERTEX
  8
Top_Paste
  10
2.9868
  20
1.0315
  42
1
  0
SEQEND
  0
SOLID
  8
Top_Paste
  10
2.9543
  20
1.0465
  11
2.9943
  21
1.0465
  12
2.9543
  22
1.0165
  13
2.9943
  23
1.0165
  0
SOLID
  8
Top_Paste
  10
1.2847
  20
-0.1475
  11
1.3547
  21
-0.1475
  12
1.2847
  22
-0.1775
  13
1.3547
  23
-0.1775
  0
POLYLINE
  8
Top_Paste
  6
CONTINUOUS
  66
1
  70
0
  40
0.015
  41
0.015
  0
VERTEX
  8
Top_Paste
  10
1.4342
  20
-0.1625
  42
1
  0
VERTEX
  8
Top_Paste
  10
1.4492
  20
-0.1625
  42
1
  0
VERTEX
  8
Top_Paste
  10
1.4342
  20
-0.1625
  42
1
  0
SEQEND
  0
POLYLINE
  8
Top_Paste
  6
CONTINUOUS
  66
1
  70
0
  40
0.015
  41
0.015
  0
VERTEX
  8
Top_Paste
  10
1.4742
  20
-0.1625
  42
1
  0
VERTEX
  8
Top_Paste
  10
1.4892
  20
-0.1625
  42
1
  0
VERTEX
  8
Top_Paste
  10
1.4742
  20
-0.1625
  42
1
  0
SEQEND
  0
SOLID
  8
Top_Paste
  10
1.4417
  20
-0.1475
  11
1.4817
  21
-0.1475
  12
1.4417
  22
-0.1775
  13
1.4817
  23
-0.1775
  0
SOLID
  8
Top_Paste
  10
1.8057
  20
2.2831
  11
1.8962
  21
2.2831
  12
1.8057
  22
2.1926
  13
1.8962
  23
2.1926
  0
SOLID
  8
Top_Paste
  10
1.6285
  20
2.2831
  11
1.7191
  21
2.2831
  12
1.6285
  22
2.1926
  13
1.7191
  23
2.1926
  0
SOLID
  8
Top_Paste
  10
1.2847
  20
-0.2849
  11
1.3547
  21
-0.2849
  12
1.2847
  22
-0.3149
  13
1.3547
  23
-0.3149
  0
POLYLINE
  8
Top_Paste
  6
CONTINUOUS
  66
1
  70
0
  40
0.015
  41
0.015
  0
VERTEX
  8
Top_Paste
  10
1.4341
  20
-0.2999
  42
1
  0
VERTEX
  8
Top_Paste
  10
1.4491
  20
-0.2999
  42
1
  0
VERTEX
  8
Top_Paste
  10
1.4341
  20
-0.2999
  42
1
  0
SEQEND
  0
POLYLINE
  8
Top_Paste
  6
CONTINUOUS
  66
1
  70
0
  40
0.015
  41
0.015
  0
VERTEX
  8
Top_Paste
  10
1.4741
  20
-0.2999
  42
1
  0
VERTEX
  8
Top_Paste
  10
1.4891
  20
-0.2999
  42
1
  0
VERTEX
  8
Top_Paste
  10
1.4741
  20
-0.2999
  42
1
  0
SEQEND
  0
SOLID
  8
Top_Paste
  10
1.4416
  20
-0.2849
  11
1.4816
  21
-0.2849
  12
1.4416
  22
-0.3149
  13
1.4816
  23
-0.3149
  0
SOLID
  8
Top_Paste
  10
0.2624
  20
2.7684
  11
0.3017
  21
2.7684
  12
0.2624
  22
2.67
  13
0.3017
  23
2.67
  0
SOLID
  8
Top_Paste
  10
0.3805
  20
2.7684
  11
0.4198
  21
2.7684
  12
0.3805
  22
2.67
  13
0.4198
  23
2.67
  0
SOLID
  8
Top_Paste
  10
1.4342
  20
0.485
  11
1.5051
  21
0.485
  12
1.4342
  22
0.4653
  13
1.5051
  23
0.4653
  0
SOLID
  8
Top_Paste
  10
1.4342
  20
0.4535
  11
1.5051
  21
0.4535
  12
1.4342
  22
0.4338
  13
1.5051
  23
0.4338
  0
SOLID
  8
Top_Paste
  10
1.4342
  20
0.422
  11
1.5051
  21
0.422
  12
1.4342
  22
0.4023
  13
1.5051
  23
0.4023
  0
SOLID
  8
Top_Paste
  10
1.4342
  20
0.3905
  11
1.5051
  21
0.3905
  12
1.4342
  22
0.3708
  13
1.5051
  23
0.3708
  0
SOLID
  8
Top_Paste
  10
1.4342
  20
0.359
  11
1.5051
  21
0.359
  12
1.4342
  22
0.3394
  13
1.5051
  23
0.3394
  0
SOLID
  8
Top_Paste
  10
1.4342
  20
0.3275
  11
1.5051
  21
0.3275
  12
1.4342
  22
0.3079
  13
1.5051
  23
0.3079
  0
SOLID
  8
Top_Paste
  10
1.4342
  20
0.296
  11
1.5051
  21
0.296
  12
1.4342
  22
0.2764
  13
1.5051
  23
0.2764
  0
SOLID
  8
Top_Paste
  10
1.4342
  20
0.2645
  11
1.5051
  21
0.2645
  12
1.4342
  22
0.2449
  13
1.5051
  23
0.2449
  0
SOLID
  8
Top_Paste
  10
1.5192
  20
0.2314
  11
1.5389
  21
0.2314
  12
1.5192
  22
0.1605
  13
1.5389
  23
0.1605
  0
SOLID
  8
Top_Paste
  10
1.5507
  20
0.2314
  11
1.5704
  21
0.2314
  12
1.5507
  22
0.1605
  13
1.5704
  23
0.1605
  0
SOLID
  8
Top_Paste
  10
1.5822
  20
0.2314
  11
1.6019
  21
0.2314
  12
1.5822
  22
0.1605
  13
1.6019
  23
0.1605
  0
SOLID
  8
Top_Paste
  10
1.6137
  20
0.2314
  11
1.6334
  21
0.2314
  12
1.6137
  22
0.1605
  13
1.6334
  23
0.1605
  0
SOLID
  8
Top_Paste
  10
1.6452
  20
0.2314
  11
1.6649
  21
0.2314
  12
1.6452
  22
0.1605
  13
1.6649
  23
0.1605
  0
SOLID
  8
Top_Paste
  10
1.6767
  20
0.2314
  11
1.6964
  21
0.2314
  12
1.6767
  22
0.1605
  13
1.6964
  23
0.1605
  0
SOLID
  8
Top_Paste
  10
1.7082
  20
0.2314
  11
1.7279
  21
0.2314
  12
1.7082
  22
0.1605
  13
1.7279
  23
0.1605
  0
SOLID
  8
Top_Paste
  10
1.7397
  20
0.2314
  11
1.7594
  21
0.2314
  12
1.7397
  22
0.1605
  13
1.7594
  23
0.1605
  0
SOLID
  8
Top_Paste
  10
1.7728
  20
0.2652
  11
1.8437
  21
0.2652
  12
1.7728
  22
0.2455
  13
1.8437
  23
0.2455
  0
SOLID
  8
Top_Paste
  10
1.7728
  20
0.2967
  11
1.8437
  21
0.2967
  12
1.7728
  22
0.277
  13
1.8437
  23
0.277
  0
SOLID
  8
Top_Paste
  10
1.7728
  20
0.3282
  11
1.8437
  21
0.3282
  12
1.7728
  22
0.3085
  13
1.8437
  23
0.3085
  0
SOLID
  8
Top_Paste
  10
1.7728
  20
0.3597
  11
1.8437
  21
0.3597
  12
1.7728
  22
0.34
  13
1.8437
  23
0.34
  0
SOLID
  8
Top_Paste
  10
1.7728
  20
0.3912
  11
1.8437
  21
0.3912
  12
1.7728
  22
0.3715
  13
1.8437
  23
0.3715
  0
SOLID
  8
Top_Paste
  10
1.7728
  20
0.4227
  11
1.8437
  21
0.4227
  12
1.7728
  22
0.403
  13
1.8437
  23
0.403
  0
SOLID
  8
Top_Paste
  10
1.7728
  20
0.4542
  11
1.8437
  21
0.4542
  12
1.7728
  22
0.4345
  13
1.8437
  23
0.4345
  0
SOLID
  8
Top_Paste
  10
1.7728
  20
0.4856
  11
1.8437
  21
0.4856
  12
1.7728
  22
0.466
  13
1.8437
  23
0.466
  0
SOLID
  8
Top_Paste
  10
1.739
  20
0.57
  11
1.7587
  21
0.57
  12
1.739
  22
0.4991
  13
1.7587
  23
0.4991
  0
SOLID
  8
Top_Paste
  10
1.7076
  20
0.57
  11
1.7272
  21
0.57
  12
1.7076
  22
0.4991
  13
1.7272
  23
0.4991
  0
SOLID
  8
Top_Paste
  10
1.6761
  20
0.57
  11
1.6957
  21
0.57
  12
1.6761
  22
0.4991
  13
1.6957
  23
0.4991
  0
SOLID
  8
Top_Paste
  10
1.6446
  20
0.57
  11
1.6642
  21
0.57
  12
1.6446
  22
0.4991
  13
1.6642
  23
0.4991
  0
SOLID
  8
Top_Paste
  10
1.6131
  20
0.57
  11
1.6327
  21
0.57
  12
1.6131
  22
0.4991
  13
1.6327
  23
0.4991
  0
SOLID
  8
Top_Paste
  10
1.5816
  20
0.57
  11
1.6013
  21
0.57
  12
1.5816
  22
0.4991
  13
1.6013
  23
0.4991
  0
SOLID
  8
Top_Paste
  10
1.5501
  20
0.57
  11
1.5698
  21
0.57
  12
1.5501
  22
0.4991
  13
1.5698
  23
0.4991
  0
SOLID
  8
Top_Paste
  10
1.5186
  20
0.57
  11
1.5383
  21
0.57
  12
1.5186
  22
0.4991
  13
1.5383
  23
0.4991
  0
SOLID
  8
Top_Paste
  10
2.3155
  20
0.7349
  11
2.4116
  21
0.7349
  12
2.3155
  22
0.6905
  13
2.4116
  23
0.6905
  0
SOLID
  8
Top_Paste
  10
1.9769
  20
0.7349
  11
2.073
  21
0.7349
  12
1.9769
  22
0.6905
  13
2.073
  23
0.6905
  0
SOLID
  8
Top_Paste
  10
2.3155
  20
0.8349
  11
2.4116
  21
0.8349
  12
2.3155
  22
0.7905
  13
2.4116
  23
0.7905
  0
SOLID
  8
Top_Paste
  10
1.9769
  20
0.8349
  11
2.073
  21
0.8349
  12
1.9769
  22
0.7905
  13
2.073
  23
0.7905
  0
SOLID
  8
Top_Paste
  10
2.3155
  20
0.9349
  11
2.4116
  21
0.9349
  12
2.3155
  22
0.8905
  13
2.4116
  23
0.8905
  0
SOLID
  8
Top_Paste
  10
1.9769
  20
0.9349
  11
2.073
  21
0.9349
  12
1.9769
  22
0.8905
  13
2.073
  23
0.8905
  0
SOLID
  8
Top_Paste
  10
2.3155
  20
1.0349
  11
2.4116
  21
1.0349
  12
2.3155
  22
0.9905
  13
2.4116
  23
0.9905
  0
SOLID
  8
Top_Paste
  10
1.9769
  20
1.0349
  11
2.073
  21
1.0349
  12
1.9769
  22
0.9905
  13
2.073
  23
0.9905
  0
SOLID
  8
Top_Paste
  10
2.3155
  20
1.1349
  11
2.4116
  21
1.1349
  12
2.3155
  22
1.0905
  13
2.4116
  23
1.0905
  0
SOLID
  8
Top_Paste
  10
1.9769
  20
1.1349
  11
2.073
  21
1.1349
  12
1.9769
  22
1.0905
  13
2.073
  23
1.0905
  0
SOLID
  8
Top_Paste
  10
2.3155
  20
1.2349
  11
2.4116
  21
1.2349
  12
2.3155
  22
1.1905
  13
2.4116
  23
1.1905
  0
SOLID
  8
Top_Paste
  10
1.9769
  20
1.2349
  11
2.073
  21
1.2349
  12
1.9769
  22
1.1905
  13
2.073
  23
1.1905
  0
SOLID
  8
Top_Paste
  10
2.3155
  20
1.3349
  11
2.4116
  21
1.3349
  12
2.3155
  22
1.2905
  13
2.4116
  23
1.2905
  0
SOLID
  8
Top_Paste
  10
1.9769
  20
1.3349
  11
2.073
  21
1.3349
  12
1.9769
  22
1.2905
  13
2.073
  23
1.2905
  0
SOLID
  8
Top_Paste
  10
2.3155
  20
1.4349
  11
2.4116
  21
1.4349
  12
2.3155
  22
1.3905
  13
2.4116
  23
1.3905
  0
SOLID
  8
Top_Paste
  10
1.9769
  20
1.4349
  11
2.073
  21
1.4349
  12
1.9769
  22
1.3905
  13
2.073
  23
1.3905
  0
SOLID
  8
Top_Paste
  10
1.9357
  20
2.6399
  11
2.0538
  21
2.6399
  12
1.9357
  22
2.4234
  13
2.0538
  23
2.4234
  0
SOLID
  8
Top_Paste
  10
2.3394
  20
2.6399
  11
2.4575
  21
2.6399
  12
2.3394
  22
2.4234
  13
2.4575
  23
2.4234
  0
SOLID
  8
Top_Paste
  10
0.8809
  20
0.909
  11
0.9833
  21
0.909
  12
0.8809
  22
0.8539
  13
0.9833
  23
0.8539
  0
SOLID
  8
Top_Paste
  10
0.8809
  20
0.7673
  11
0.9833
  21
0.7673
  12
0.8809
  22
0.7122
  13
0.9833
  23
0.7122
  0
SOLID
  8
Top_Paste
  10
1.1172
  20
0.7673
  11
1.2195
  21
0.7673
  12
1.1172
  22
0.7122
  13
1.2195
  23
0.7122
  0
SOLID
  8
Top_Paste
  10
1.1172
  20
0.909
  11
1.2195
  21
0.909
  12
1.1172
  22
0.8539
  13
1.2195
  23
0.8539
  0
SOLID
  8
Top_Paste
  10
2.2402
  20
-0.2701
  11
2.2722
  21
-0.2701
  12
2.2402
  22
-0.3021
  13
2.2722
  23
-0.3021
  0
SOLID
  8
Top_Paste
  10
2.2402
  20
-0.3501
  11
2.2722
  21
-0.3501
  12
2.2402
  22
-0.3821
  13
2.2722
  23
-0.3821
  0
SOLID
  8
Top_Paste
  10
2.3272
  20
-0.3101
  11
2.3592
  21
-0.3101
  12
2.3272
  22
-0.3421
  13
2.3592
  23
-0.3421
  0
SOLID
  8
Top_Paste
  10
1.275
  20
0.9048
  11
1.3262
  21
0.9048
  12
1.275
  22
0.8458
  13
1.3262
  23
0.8458
  0
SOLID
  8
Top_Paste
  10
1.3498
  20
0.9048
  11
1.401
  21
0.9048
  12
1.3498
  22
0.8458
  13
1.401
  23
0.8458
  0
SOLID
  8
Top_Paste
  10
0.756
  20
1.0048
  11
0.8072
  21
1.0048
  12
0.756
  22
0.9458
  13
0.8072
  23
0.9458
  0
SOLID
  8
Top_Paste
  10
0.8308
  20
1.0048
  11
0.882
  21
1.0048
  12
0.8308
  22
0.9458
  13
0.882
  23
0.9458
  0
SOLID
  8
Top_Paste
  10
0.519
  20
-0.1642
  11
0.5702
  21
-0.1642
  12
0.519
  22
-0.2232
  13
0.5702
  23
-0.2232
  0
SOLID
  8
Top_Paste
  10
0.5938
  20
-0.1642
  11
0.645
  21
-0.1642
  12
0.5938
  22
-0.2232
  13
0.645
  23
-0.2232
  0
SOLID
  8
Top_Paste
  10
2.2243
  20
-0.0316
  11
2.2755
  21
-0.0316
  12
2.2243
  22
-0.0906
  13
2.2755
  23
-0.0906
  0
SOLID
  8
Top_Paste
  10
2.2991
  20
-0.0316
  11
2.3503
  21
-0.0316
  12
2.2991
  22
-0.0906
  13
2.3503
  23
-0.0906
  0
SOLID
  8
Top_Paste
  10
3.0612
  20
1.0673
  11
3.1124
  21
1.0673
  12
3.0612
  22
1.0082
  13
3.1124
  23
1.0082
  0
SOLID
  8
Top_Paste
  10
3.136
  20
1.0673
  11
3.1872
  21
1.0673
  12
3.136
  22
1.0082
  13
3.1872
  23
1.0082
  0
SOLID
  8
Top_Paste
  10
3.0612
  20
1.1923
  11
3.1124
  21
1.1923
  12
3.0612
  22
1.1332
  13
3.1124
  23
1.1332
  0
SOLID
  8
Top_Paste
  10
3.136
  20
1.1923
  11
3.1872
  21
1.1923
  12
3.136
  22
1.1332
  13
3.1872
  23
1.1332
  0
SOLID
  8
Top_Paste
  10
1.5317
  20
-0.1328
  11
1.5829
  21
-0.1328
  12
1.5317
  22
-0.1919
  13
1.5829
  23
-0.1919
  0
SOLID
  8
Top_Paste
  10
1.6065
  20
-0.1328
  11
1.6577
  21
-0.1328
  12
1.6065
  22
-0.1919
  13
1.6577
  23
-0.1919
  0
SOLID
  8
Top_Paste
  10
1.5317
  20
-0.2703
  11
1.5829
  21
-0.2703
  12
1.5317
  22
-0.3294
  13
1.5829
  23
-0.3294
  0
SOLID
  8
Top_Paste
  10
1.6065
  20
-0.2703
  11
1.6577
  21
-0.2703
  12
1.6065
  22
-0.3294
  13
1.6577
  23
-0.3294
  0
SOLID
  8
Top_Paste
  10
0.406
  20
0.9988
  11
0.4572
  21
0.9988
  12
0.406
  22
0.9398
  13
0.4572
  23
0.9398
  0
SOLID
  8
Top_Paste
  10
0.4808
  20
0.9988
  11
0.532
  21
0.9988
  12
0.4808
  22
0.9398
  13
0.532
  23
0.9398
  0
SOLID
  8
Top_Paste
  10
0.4743
  20
-0.3921
  11
0.5649
  21
-0.3921
  12
0.4743
  22
-0.4827
  13
0.5649
  23
-0.4827
  0
SOLID
  8
Top_Paste
  10
0.6515
  20
-0.3921
  11
0.742
  21
-0.3921
  12
0.6515
  22
-0.4827
  13
0.742
  23
-0.4827
  0
SOLID
  8
Top_Paste
  10
0.4681
  20
0.1017
  11
0.5586
  21
0.1017
  12
0.4681
  22
0.0111
  13
0.5586
  23
0.0111
  0
SOLID
  8
Top_Paste
  10
0.6452
  20
0.1017
  11
0.7358
  21
0.1017
  12
0.6452
  22
0.0111
  13
0.7358
  23
0.0111
  0
SOLID
  8
Top_Paste
  10
0.2617
  20
2.2271
  11
0.3523
  21
2.2271
  12
0.2617
  22
2.1365
  13
0.3523
  23
2.1365
  0
SOLID
  8
Top_Paste
  10
0.2617
  20
2.4043
  11
0.3523
  21
2.4043
  12
0.2617
  22
2.3137
  13
0.3523
  23
2.3137
  0
SOLID
  8
Top_Paste
  10
1.4076
  20
2.7372
  11
1.4942
  21
2.7372
  12
1.4076
  22
2.7136
  13
1.4942
  23
2.7136
  0
SOLID
  8
Top_Paste
  10
1.4076
  20
2.6872
  11
1.4942
  21
2.6872
  12
1.4076
  22
2.6636
  13
1.4942
  23
2.6636
  0
SOLID
  8
Top_Paste
  10
1.4076
  20
2.6372
  11
1.4942
  21
2.6372
  12
1.4076
  22
2.6136
  13
1.4942
  23
2.6136
  0
SOLID
  8
Top_Paste
  10
1.4076
  20
2.5872
  11
1.4942
  21
2.5872
  12
1.4076
  22
2.5636
  13
1.4942
  23
2.5636
  0
SOLID
  8
Top_Paste
  10
1.4076
  20
2.5372
  11
1.4942
  21
2.5372
  12
1.4076
  22
2.5136
  13
1.4942
  23
2.5136
  0
SOLID
  8
Top_Paste
  10
1.4076
  20
2.4872
  11
1.4942
  21
2.4872
  12
1.4076
  22
2.4636
  13
1.4942
  23
2.4636
  0
SOLID
  8
Top_Paste
  10
1.4076
  20
2.4372
  11
1.4942
  21
2.4372
  12
1.4076
  22
2.4136
  13
1.4942
  23
2.4136
  0
SOLID
  8
Top_Paste
  10
1.7698
  20
2.4372
  11
1.8564
  21
2.4372
  12
1.7698
  22
2.4136
  13
1.8564
  23
2.4136
  0
SOLID
  8
Top_Paste
  10
1.7698
  20
2.4872
  11
1.8564
  21
2.4872
  12
1.7698
  22
2.4636
  13
1.8564
  23
2.4636
  0
SOLID
  8
Top_Paste
  10
1.7698
  20
2.5372
  11
1.8564
  21
2.5372
  12
1.7698
  22
2.5136
  13
1.8564
  23
2.5136
  0
SOLID
  8
Top_Paste
  10
1.7698
  20
2.5872
  11
1.8564
  21
2.5872
  12
1.7698
  22
2.5636
  13
1.8564
  23
2.5636
  0
SOLID
  8
Top_Paste
  10
1.7698
  20
2.6372
  11
1.8564
  21
2.6372
  12
1.7698
  22
2.6136
  13
1.8564
  23
2.6136
  0
SOLID
  8
Top_Paste
  10
1.7698
  20
2.6872
  11
1.8564
  21
2.6872
  12
1.7698
  22
2.6636
  13
1.8564
  23
2.6636
  0
SOLID
  8
Top_Paste
  10
1.7698
  20
2.7372
  11
1.8564
  21
2.7372
  12
1.7698
  22
2.7136
  13
1.8564
  23
2.7136
  0
SOLID
  8
Top_Paste
  10
2.686
  20
1.7184
  11
2.7786
  21
1.7184
  12
2.686
  22
1.6947
  13
2.7786
  23
1.6947
  0
SOLID
  8
Top_Paste
  10
2.686
  20
1.6684
  11
2.7786
  21
1.6684
  12
2.686
  22
1.6447
  13
2.7786
  23
1.6447
  0
SOLID
  8
Top_Paste
  10
2.686
  20
1.6184
  11
2.7786
  21
1.6184
  12
2.686
  22
1.5947
  13
2.7786
  23
1.5947
  0
SOLID
  8
Top_Paste
  10
2.686
  20
1.5684
  11
2.7786
  21
1.5684
  12
2.686
  22
1.5447
  13
2.7786
  23
1.5447
  0
SOLID
  8
Top_Paste
  10
2.686
  20
1.5184
  11
2.7786
  21
1.5184
  12
2.686
  22
1.4947
  13
2.7786
  23
1.4947
  0
SOLID
  8
Top_Paste
  10
2.686
  20
1.4684
  11
2.7786
  21
1.4684
  12
2.686
  22
1.4447
  13
2.7786
  23
1.4447
  0
SOLID
  8
Top_Paste
  10
2.686
  20
1.4184
  11
2.7786
  21
1.4184
  12
2.686
  22
1.3947
  13
2.7786
  23
1.3947
  0
SOLID
  8
Top_Paste
  10
2.686
  20
1.3684
  11
2.7786
  21
1.3684
  12
2.686
  22
1.3447
  13
2.7786
  23
1.3447
  0
SOLID
  8
Top_Paste
  10
3.0817
  20
1.3684
  11
3.1742
  21
1.3684
  12
3.0817
  22
1.3447
  13
3.1742
  23
1.3447
  0
SOLID
  8
Top_Paste
  10
3.0817
  20
1.4184
  11
3.1742
  21
1.4184
  12
3.0817
  22
1.3947
  13
3.1742
  23
1.3947
  0
SOLID
  8
Top_Paste
  10
3.0817
  20
1.4684
  11
3.1742
  21
1.4684
  12
3.0817
  22
1.4447
  13
3.1742
  23
1.4447
  0
SOLID
  8
Top_Paste
  10
3.0817
  20
1.5184
  11
3.1742
  21
1.5184
  12
3.0817
  22
1.4947
  13
3.1742
  23
1.4947
  0
SOLID
  8
Top_Paste
  10
3.0817
  20
1.5684
  11
3.1742
  21
1.5684
  12
3.0817
  22
1.5447
  13
3.1742
  23
1.5447
  0
SOLID
  8
Top_Paste
  10
3.0817
  20
1.6184
  11
3.1742
  21
1.6184
  12
3.0817
  22
1.5947
  13
3.1742
  23
1.5947
  0
SOLID
  8
Top_Paste
  10
3.0817
  20
1.6684
  11
3.1742
  21
1.6684
  12
3.0817
  22
1.6447
  13
3.1742
  23
1.6447
  0
SOLID
  8
Top_Paste
  10
3.0817
  20
1.7184
  11
3.1742
  21
1.7184
  12
3.0817
  22
1.6947
  13
3.1742
  23
1.6947
  0
SOLID
  8
Top_Paste
  10
0.8187
  20
-0.1506
  11
0.8955
  21
-0.1506
  12
0.8187
  22
-0.1742
  13
0.8955
  23
-0.1742
  0
SOLID
  8
Top_Paste
  10
0.8187
  20
-0.2006
  11
0.8955
  21
-0.2006
  12
0.8187
  22
-0.2242
  13
0.8955
  23
-0.2242
  0
SOLID
  8
Top_Paste
  10
0.8187
  20
-0.2506
  11
0.8955
  21
-0.2506
  12
0.8187
  22
-0.2742
  13
0.8955
  23
-0.2742
  0
SOLID
  8
Top_Paste
  10
0.8187
  20
-0.3006
  11
0.8955
  21
-0.3006
  12
0.8187
  22
-0.3242
  13
0.8955
  23
-0.3242
  0
SOLID
  8
Top_Paste
  10
1.0884
  20
-0.3006
  11
1.1652
  21
-0.3006
  12
1.0884
  22
-0.3242
  13
1.1652
  23
-0.3242
  0
SOLID
  8
Top_Paste
  10
1.0884
  20
-0.2506
  11
1.1652
  21
-0.2506
  12
1.0884
  22
-0.2742
  13
1.1652
  23
-0.2742
  0
SOLID
  8
Top_Paste
  10
1.0884
  20
-0.2006
  11
1.1652
  21
-0.2006
  12
1.0884
  22
-0.2242
  13
1.1652
  23
-0.2242
  0
SOLID
  8
Top_Paste
  10
1.0884
  20
-0.1506
  11
1.1652
  21
-0.1506
  12
1.0884
  22
-0.1742
  13
1.1652
  23
-0.1742
  0
SOLID
  8
Top_Paste
  10
0.9576
  20
1.8245
  11
1.0442
  21
1.8245
  12
0.9576
  22
1.8009
  13
1.0442
  23
1.8009
  0
SOLID
  8
Top_Paste
  10
0.9576
  20
1.7745
  11
1.0442
  21
1.7745
  12
0.9576
  22
1.7509
  13
1.0442
  23
1.7509
  0
SOLID
  8
Top_Paste
  10
0.9576
  20
1.7245
  11
1.0442
  21
1.7245
  12
0.9576
  22
1.7009
  13
1.0442
  23
1.7009
  0
SOLID
  8
Top_Paste
  10
0.9576
  20
1.6745
  11
1.0442
  21
1.6745
  12
0.9576
  22
1.6509
  13
1.0442
  23
1.6509
  0
SOLID
  8
Top_Paste
  10
0.9576
  20
1.6245
  11
1.0442
  21
1.6245
  12
0.9576
  22
1.6009
  13
1.0442
  23
1.6009
  0
SOLID
  8
Top_Paste
  10
0.9576
  20
1.5745
  11
1.0442
  21
1.5745
  12
0.9576
  22
1.5509
  13
1.0442
  23
1.5509
  0
SOLID
  8
Top_Paste
  10
0.9576
  20
1.5245
  11
1.0442
  21
1.5245
  12
0.9576
  22
1.5009
  13
1.0442
  23
1.5009
  0
SOLID
  8
Top_Paste
  10
0.9576
  20
1.4745
  11
1.0442
  21
1.4745
  12
0.9576
  22
1.4509
  13
1.0442
  23
1.4509
  0
SOLID
  8
Top_Paste
  10
0.9576
  20
1.4245
  11
1.0442
  21
1.4245
  12
0.9576
  22
1.4009
  13
1.0442
  23
1.4009
  0
SOLID
  8
Top_Paste
  10
0.9576
  20
1.3745
  11
1.0442
  21
1.3745
  12
0.9576
  22
1.3509
  13
1.0442
  23
1.3509
  0
SOLID
  8
Top_Paste
  10
0.9576
  20
1.3245
  11
1.0442
  21
1.3245
  12
0.9576
  22
1.3009
  13
1.0442
  23
1.3009
  0
SOLID
  8
Top_Paste
  10
0.9576
  20
1.2745
  11
1.0442
  21
1.2745
  12
0.9576
  22
1.2509
  13
1.0442
  23
1.2509
  0
SOLID
  8
Top_Paste
  10
0.9576
  20
1.2245
  11
1.0442
  21
1.2245
  12
0.9576
  22
1.2009
  13
1.0442
  23
1.2009
  0
SOLID
  8
Top_Paste
  10
0.9576
  20
1.1745
  11
1.0442
  21
1.1745
  12
0.9576
  22
1.1509
  13
1.0442
  23
1.1509
  0
SOLID
  8
Top_Paste
  10
1.3375
  20
1.1745
  11
1.4241
  21
1.1745
  12
1.3375
  22
1.1509
  13
1.4241
  23
1.1509
  0
SOLID
  8
Top_Paste
  10
1.3375
  20
1.2245
  11
1.4241
  21
1.2245
  12
1.3375
  22
1.2009
  13
1.4241
  23
1.2009
  0
SOLID
  8
Top_Paste
  10
1.3375
  20
1.2745
  11
1.4241
  21
1.2745
  12
1.3375
  22
1.2509
  13
1.4241
  23
1.2509
  0
SOLID
  8
Top_Paste
  10
1.3375
  20
1.3245
  11
1.4241
  21
1.3245
  12
1.3375
  22
1.3009
  13
1.4241
  23
1.3009
  0
SOLID
  8
Top_Paste
  10
1.3375
  20
1.3745
  11
1.4241
  21
1.3745
  12
1.3375
  22
1.3509
  13
1.4241
  23
1.3509
  0
SOLID
  8
Top_Paste
  10
1.3375
  20
1.4245
  11
1.4241
  21
1.4245
  12
1.3375
  22
1.4009
  13
1.4241
  23
1.4009
  0
SOLID
  8
Top_Paste
  10
1.3375
  20
1.4745
  11
1.4241
  21
1.4745
  12
1.3375
  22
1.4509
  13
1.4241
  23
1.4509
  0
SOLID
  8
Top_Paste
  10
1.3375
  20
1.5245
  11
1.4241
  21
1.5245
  12
1.3375
  22
1.5009
  13
1.4241
  23
1.5009
  0
SOLID
  8
Top_Paste
  10
1.3375
  20
1.5745
  11
1.4241
  21
1.5745
  12
1.3375
  22
1.5509
  13
1.4241
  23
1.5509
  0
SOLID
  8
Top_Paste
  10
1.3375
  20
1.6245
  11
1.4241
  21
1.6245
  12
1.3375
  22
1.6009
  13
1.4241
  23
1.6009
  0
SOLID
  8
Top_Paste
  10
1.3375
  20
1.6745
  11
1.4241
  21
1.6745
  12
1.3375
  22
1.6509
  13
1.4241
  23
1.6509
  0
SOLID
  8
Top_Paste
  10
1.3375
  20
1.7245
  11
1.4241
  21
1.7245
  12
1.3375
  22
1.7009
  13
1.4241
  23
1.7009
  0
SOLID
  8
Top_Paste
  10
1.3375
  20
1.7745
  11
1.4241
  21
1.7745
  12
1.3375
  22
1.7509
  13
1.4241
  23
1.7509
  0
SOLID
  8
Top_Paste
  10
1.3375
  20
1.8245
  11
1.4241
  21
1.8245
  12
1.3375
  22
1.8009
  13
1.4241
  23
1.8009
  0
SOLID
  8
Top_Paste
  10
1.9
  20
1.6755
  11
1.9394
  21
1.6755
  12
1.9
  22
1.6126
  13
1.9394
  23
1.6126
  0
SOLID
  8
Top_Paste
  10
2.0772
  20
1.6755
  11
2.1166
  21
1.6755
  12
2.0772
  22
1.6126
  13
2.1166
  23
1.6126
  0
SOLID
  8
Top_Paste
  10
1.9
  20
2.0417
  11
2.1166
  21
2.0417
  12
1.9
  22
1.8291
  13
2.1166
  23
1.8291
  0
SOLID
  8
Top_Paste
  10
0.4613
  20
0.5896
  11
0.6779
  21
0.5896
  12
0.4613
  22
0.5108
  13
0.6779
  23
0.5108
  0
SOLID
  8
Top_Paste
  10
0.8353
  20
0.5896
  11
1.0519
  21
0.5896
  12
0.8353
  22
0.5108
  13
1.0519
  23
0.5108
  0
SOLID
  8
Top_Paste
  10
0.4487
  20
1.9151
  11
0.4842
  21
1.9151
  12
0.4487
  22
1.8836
  13
0.4842
  23
1.8836
  0
SOLID
  8
Top_Paste
  10
0.5039
  20
1.9151
  11
0.5393
  21
1.9151
  12
0.5039
  22
1.8836
  13
0.5393
  23
1.8836
  0
SOLID
  8
Top_Paste
  10
0.819
  20
2.1298
  11
0.8702
  21
2.1298
  12
0.819
  22
2.0708
  13
0.8702
  23
2.0708
  0
SOLID
  8
Top_Paste
  10
0.8938
  20
2.1298
  11
0.945
  21
2.1298
  12
0.8938
  22
2.0708
  13
0.945
  23
2.0708
  0
SOLID
  8
Top_Paste
  10
0.625
  20
2.0298
  11
0.6762
  21
2.0298
  12
0.625
  22
1.9708
  13
0.6762
  23
1.9708
  0
SOLID
  8
Top_Paste
  10
0.6998
  20
2.0298
  11
0.751
  21
2.0298
  12
0.6998
  22
1.9708
  13
0.751
  23
1.9708
  0
SOLID
  8
Top_Paste
  10
0.0064
  20
1.8798
  11
0.0576
  21
1.8798
  12
0.0064
  22
1.8208
  13
0.0576
  23
1.8208
  0
SOLID
  8
Top_Paste
  10
0.0812
  20
1.8798
  11
0.1324
  21
1.8798
  12
0.0812
  22
1.8208
  13
0.1324
  23
1.8208
  0
SOLID
  8
Top_Paste
  10
0.0127
  20
1.1048
  11
0.0639
  21
1.1048
  12
0.0127
  22
1.0457
  13
0.0639
  23
1.0457
  0
SOLID
  8
Top_Paste
  10
0.0875
  20
1.1048
  11
0.1387
  21
1.1048
  12
0.0875
  22
1.0457
  13
0.1387
  23
1.0457
  0
SOLID
  8
Top_Paste
  10
0.588
  20
1.0798
  11
0.6392
  21
1.0798
  12
0.588
  22
1.0208
  13
0.6392
  23
1.0208
  0
SOLID
  8
Top_Paste
  10
0.6628
  20
1.0798
  11
0.714
  21
1.0798
  12
0.6628
  22
1.0208
  13
0.714
  23
1.0208
  0
SOLID
  8
Top_Paste
  10
0.588
  20
1.0048
  11
0.6392
  21
1.0048
  12
0.588
  22
0.9458
  13
0.6392
  23
0.9458
  0
SOLID
  8
Top_Paste
  10
0.6628
  20
1.0048
  11
0.714
  21
1.0048
  12
0.6628
  22
0.9458
  13
0.714
  23
0.9458
  0
SOLID
  8
Top_Paste
  10
0.4833
  20
1.0782
  11
0.5433
  21
1.0782
  12
0.4833
  22
1.0222
  13
0.5433
  23
1.0222
  0
SOLID
  8
Top_Paste
  10
0.3933
  20
1.0782
  11
0.4533
  21
1.0782
  12
0.3933
  22
1.0222
  13
0.4533
  23
1.0222
  0
SOLID
  8
Top_Paste
  10
0.708
  20
2.1283
  11
0.768
  21
2.1283
  12
0.708
  22
2.0723
  13
0.768
  23
2.0723
  0
SOLID
  8
Top_Paste
  10
0.618
  20
2.1283
  11
0.678
  21
2.1283
  12
0.618
  22
2.0723
  13
0.678
  23
2.0723
  0
ENDSEC
  0
EOF
