G04 DipTrace 2.1.0.5*
%INTopPastMask.gbr*%
%MOMM*%
%ADD10C,0.25*%
%ADD11C,0.14*%
%ADD12C,0.076*%
%ADD13C,0.5*%
%ADD14C,0.508*%
%ADD15C,1.016*%
%ADD16C,0.75*%
%ADD17C,1.0*%
%ADD18C,0.033*%
%ADD19C,0.475*%
%ADD20R,1.8X0.5*%
%ADD21R,0.5X1.8*%
%ADD22R,5.5X2.0*%
%ADD23R,0.508X3.0*%
%ADD24R,1.524X1.422*%
%ADD25R,0.75X4.5*%
%ADD26R,1.422X1.524*%
%ADD27R,5.0X2.5*%
%ADD28C,1.499*%
%ADD29C,1.651*%
%ADD30C,0.1*%
%ADD31R,1.1X0.9*%
%ADD32R,1.0X0.9*%
%ADD33R,2.35X0.6*%
%ADD34C,2.286*%
%ADD35R,2.6X1.4*%
%ADD36R,1.3X1.5*%
%ADD37R,1.524X1.524*%
%ADD38C,1.524*%
%ADD39R,2.3X2.3*%
%ADD40R,2.997X5.512*%
%ADD41R,2.2X0.6*%
%ADD42R,1.85X2.55*%
%ADD43R,1.778X0.762*%
%ADD44O,1.778X0.762*%
%ADD45R,0.762X1.778*%
%ADD46O,0.762X1.778*%
%ADD47R,1.499X1.499*%
%ADD48C,1.499*%
%ADD49C,0.762*%
%ADD50C,3.0*%
%ADD51C,0.889*%
%ADD52C,0.9*%
%ADD53C,1.27*%
%ADD54C,0.203*%
%ADD55C,1.728*%
%ADD56C,1.32*%
%ADD57C,1.703*%
%ADD58C,1.295*%
%ADD59R,1.703X1.703*%
%ADD60R,1.295X1.295*%
%ADD61O,0.966X1.982*%
%ADD62O,0.558X1.574*%
%ADD63R,0.966X1.982*%
%ADD64R,0.558X1.574*%
%ADD65O,1.982X0.966*%
%ADD66O,1.574X0.558*%
%ADD67R,1.982X0.966*%
%ADD68R,1.574X0.558*%
%ADD69R,2.054X2.754*%
%ADD70R,1.646X2.346*%
%ADD71R,2.404X0.804*%
%ADD72R,1.996X0.396*%
%ADD73R,3.201X5.716*%
%ADD74R,2.793X5.308*%
%ADD75R,2.504X2.504*%
%ADD76R,2.096X2.096*%
%ADD77R,1.728X1.728*%
%ADD78R,1.32X1.32*%
%ADD79R,1.504X1.704*%
%ADD80R,1.096X1.296*%
%ADD81R,2.804X1.604*%
%ADD82R,2.396X1.196*%
%ADD83C,2.49*%
%ADD84C,2.082*%
%ADD85R,2.554X0.804*%
%ADD86R,2.146X0.396*%
%ADD87R,1.204X1.104*%
%ADD88R,0.796X0.696*%
%ADD89R,1.304X1.104*%
%ADD90R,0.896X0.696*%
%ADD91C,1.855*%
%ADD92C,1.447*%
%ADD93C,1.703*%
%ADD94C,1.295*%
%ADD95R,5.204X2.704*%
%ADD96R,4.796X2.296*%
%ADD97R,1.626X1.728*%
%ADD98R,1.218X1.32*%
%ADD99R,0.954X4.704*%
%ADD100R,0.546X4.296*%
%ADD101R,1.728X1.626*%
%ADD102R,1.32X1.218*%
%ADD103R,0.712X3.204*%
%ADD104R,0.304X2.796*%
%ADD105R,5.704X2.204*%
%ADD106R,5.296X1.796*%
%ADD107R,0.704X2.004*%
%ADD108R,0.296X1.596*%
%ADD109R,2.004X0.704*%
%ADD110R,1.596X0.296*%
%ADD111C,0.235*%
%ADD112C,0.314*%
%FSLAX53Y53*%
%SFA1B1*%
%OFA0B0*%
G04*
G71*
G90*
G75*
G01*
%LNTopPaste*%
%LPD*%
D110*
X36516Y41756D3*
Y40956D3*
Y40156D3*
Y39356D3*
Y38556D3*
Y37756D3*
Y36956D3*
Y36156D3*
D108*
X38024Y34664D3*
X38824D3*
X39624D3*
X40424D3*
X41224D3*
X42024D3*
X42824D3*
X43624D3*
D110*
X45116Y36172D3*
Y36972D3*
Y37772D3*
Y38572D3*
Y39372D3*
Y40172D3*
Y40972D3*
Y41772D3*
D108*
X43608Y43264D3*
X42808D3*
X42008D3*
X41208D3*
X40408D3*
X39608D3*
X38808D3*
X38008D3*
D106*
X22703Y31753D3*
X32203D3*
D104*
X40640Y90963D3*
Y85963D3*
D102*
X41656Y106203D3*
X39370D3*
D100*
X63500Y104298D3*
Y98298D3*
D98*
X67945Y96678D3*
Y94392D3*
D96*
X57314Y21433D3*
X68744D3*
D102*
X72238Y25720D3*
X74524D3*
D90*
X67158Y72080D3*
D88*
X66303Y69190D3*
X68028D3*
D86*
X26200Y63933D3*
Y62663D3*
Y61393D3*
Y60123D3*
Y58853D3*
Y57583D3*
Y56313D3*
Y55043D3*
X36250D3*
Y56313D3*
Y57583D3*
Y58853D3*
Y60123D3*
Y61393D3*
Y62663D3*
Y63933D3*
D102*
X34610Y67158D3*
X32324D3*
D98*
X22227Y63982D3*
Y61696D3*
Y59537D3*
Y57251D3*
D102*
X32070Y52710D3*
X29784D3*
X27625Y67158D3*
X29911D3*
D82*
X10637Y57950D3*
Y54350D3*
X16637D3*
Y57950D3*
D102*
X6985D3*
X4699D3*
D80*
X4763Y54139D3*
X6663D3*
D102*
X24100Y37596D3*
X26386D3*
D98*
X48585Y37314D3*
Y39600D3*
D76*
X25400Y85883D3*
Y90383D3*
D74*
X48260Y101123D3*
X58515D3*
D72*
X35557Y103663D3*
Y102393D3*
Y101123D3*
Y99853D3*
Y98583D3*
Y97313D3*
Y96043D3*
X44757D3*
Y97313D3*
Y98583D3*
Y99853D3*
Y101123D3*
Y102393D3*
Y103663D3*
D70*
X45720Y90963D3*
Y86813D3*
D100*
X63500Y87153D3*
Y93153D3*
D104*
X50165Y90963D3*
Y85963D3*
X35560Y90963D3*
Y85963D3*
X30480Y90963D3*
Y85963D3*
X55245Y90963D3*
Y85963D3*
D102*
X22704Y27784D3*
X24990D3*
X31912D3*
X29626D3*
D80*
X12537Y27625D3*
X10637D3*
X12537Y25085D3*
X10637D3*
D68*
X7462Y24450D3*
D66*
X3856D3*
D68*
X7462Y27625D3*
D66*
X3855D3*
D70*
X25400Y99218D3*
Y95068D3*
D80*
X27305Y104933D3*
X25405D3*
D64*
X31115Y97313D3*
D62*
Y100919D3*
D80*
X60966Y69222D3*
X62866D3*
X56679D3*
X58579D3*
D102*
X63665Y54933D3*
X65951D3*
D110*
X116516Y41756D3*
Y40956D3*
Y40156D3*
Y39356D3*
Y38556D3*
Y37756D3*
Y36956D3*
Y36156D3*
D108*
X118024Y34664D3*
X118824D3*
X119624D3*
X120424D3*
X121224D3*
X122024D3*
X122824D3*
X123624D3*
D110*
X125116Y36172D3*
Y36972D3*
Y37772D3*
Y38572D3*
Y39372D3*
Y40172D3*
Y40972D3*
Y41772D3*
D108*
X123608Y43264D3*
X122808D3*
X122008D3*
X121208D3*
X120408D3*
X119608D3*
X118808D3*
X118008D3*
D106*
X102703Y31753D3*
X112203D3*
D104*
X120640Y90963D3*
Y85963D3*
D102*
X121656Y106203D3*
X119370D3*
D100*
X143500Y104298D3*
Y98298D3*
D98*
X147945Y96678D3*
Y94392D3*
D96*
X137314Y21433D3*
X148744D3*
D102*
X152238Y25720D3*
X154524D3*
D90*
X147158Y72080D3*
D88*
X146303Y69190D3*
X148028D3*
D86*
X106200Y63933D3*
Y62663D3*
Y61393D3*
Y60123D3*
Y58853D3*
Y57583D3*
Y56313D3*
Y55043D3*
X116250D3*
Y56313D3*
Y57583D3*
Y58853D3*
Y60123D3*
Y61393D3*
Y62663D3*
Y63933D3*
D102*
X114610Y67158D3*
X112324D3*
D98*
X102227Y63982D3*
Y61696D3*
Y59537D3*
Y57251D3*
D102*
X112070Y52710D3*
X109784D3*
X107625Y67158D3*
X109911D3*
D82*
X90637Y57950D3*
Y54350D3*
X96637D3*
Y57950D3*
D102*
X86985D3*
X84699D3*
D80*
X84763Y54139D3*
X86663D3*
D102*
X104100Y37596D3*
X106386D3*
D98*
X128585Y37314D3*
Y39600D3*
D76*
X105400Y85883D3*
Y90383D3*
D74*
X128260Y101123D3*
X138515D3*
D72*
X115557Y103663D3*
Y102393D3*
Y101123D3*
Y99853D3*
Y98583D3*
Y97313D3*
Y96043D3*
X124757D3*
Y97313D3*
Y98583D3*
Y99853D3*
Y101123D3*
Y102393D3*
Y103663D3*
D70*
X125720Y90963D3*
Y86813D3*
D100*
X143500Y87153D3*
Y93153D3*
D104*
X130165Y90963D3*
Y85963D3*
X115560Y90963D3*
Y85963D3*
X110480Y90963D3*
Y85963D3*
X135245Y90963D3*
Y85963D3*
D102*
X102704Y27784D3*
X104990D3*
X111912D3*
X109626D3*
D80*
X92537Y27625D3*
X90637D3*
X92537Y25085D3*
X90637D3*
D68*
X87462Y24450D3*
D66*
X83856D3*
D68*
X87462Y27625D3*
D66*
X83855D3*
D70*
X105400Y99218D3*
Y95068D3*
D80*
X107305Y104933D3*
X105405D3*
D64*
X111115Y97313D3*
D62*
Y100919D3*
D80*
X140966Y69222D3*
X142866D3*
X136679D3*
X138579D3*
D102*
X143665Y54933D3*
X145951D3*
D110*
X36516Y151756D3*
Y150956D3*
Y150156D3*
Y149356D3*
Y148556D3*
Y147756D3*
Y146956D3*
Y146156D3*
D108*
X38024Y144664D3*
X38824D3*
X39624D3*
X40424D3*
X41224D3*
X42024D3*
X42824D3*
X43624D3*
D110*
X45116Y146172D3*
Y146972D3*
Y147772D3*
Y148572D3*
Y149372D3*
Y150172D3*
Y150972D3*
Y151772D3*
D108*
X43608Y153264D3*
X42808D3*
X42008D3*
X41208D3*
X40408D3*
X39608D3*
X38808D3*
X38008D3*
D106*
X22703Y141753D3*
X32203D3*
D104*
X40640Y200963D3*
Y195963D3*
D102*
X41656Y216203D3*
X39370D3*
D100*
X63500Y214298D3*
Y208298D3*
D98*
X67945Y206678D3*
Y204392D3*
D96*
X57314Y131433D3*
X68744D3*
D102*
X72238Y135720D3*
X74524D3*
D90*
X67158Y182080D3*
D88*
X66303Y179190D3*
X68028D3*
D86*
X26200Y173933D3*
Y172663D3*
Y171393D3*
Y170123D3*
Y168853D3*
Y167583D3*
Y166313D3*
Y165043D3*
X36250D3*
Y166313D3*
Y167583D3*
Y168853D3*
Y170123D3*
Y171393D3*
Y172663D3*
Y173933D3*
D102*
X34610Y177158D3*
X32324D3*
D98*
X22227Y173982D3*
Y171696D3*
Y169537D3*
Y167251D3*
D102*
X32070Y162710D3*
X29784D3*
X27625Y177158D3*
X29911D3*
D82*
X10637Y167950D3*
Y164350D3*
X16637D3*
Y167950D3*
D102*
X6985D3*
X4699D3*
D80*
X4763Y164139D3*
X6663D3*
D102*
X24100Y147596D3*
X26386D3*
D98*
X48585Y147314D3*
Y149600D3*
D76*
X25400Y195883D3*
Y200383D3*
D74*
X48260Y211123D3*
X58515D3*
D72*
X35557Y213663D3*
Y212393D3*
Y211123D3*
Y209853D3*
Y208583D3*
Y207313D3*
Y206043D3*
X44757D3*
Y207313D3*
Y208583D3*
Y209853D3*
Y211123D3*
Y212393D3*
Y213663D3*
D70*
X45720Y200963D3*
Y196813D3*
D100*
X63500Y197153D3*
Y203153D3*
D104*
X50165Y200963D3*
Y195963D3*
X35560Y200963D3*
Y195963D3*
X30480Y200963D3*
Y195963D3*
X55245Y200963D3*
Y195963D3*
D102*
X22704Y137784D3*
X24990D3*
X31912D3*
X29626D3*
D80*
X12537Y137625D3*
X10637D3*
X12537Y135085D3*
X10637D3*
D68*
X7462Y134450D3*
D66*
X3856D3*
D68*
X7462Y137625D3*
D66*
X3855D3*
D70*
X25400Y209218D3*
Y205068D3*
D80*
X27305Y214933D3*
X25405D3*
D64*
X31115Y207313D3*
D62*
Y210919D3*
D80*
X60966Y179222D3*
X62866D3*
X56679D3*
X58579D3*
D102*
X63665Y164933D3*
X65951D3*
D110*
X116516Y151756D3*
Y150956D3*
Y150156D3*
Y149356D3*
Y148556D3*
Y147756D3*
Y146956D3*
Y146156D3*
D108*
X118024Y144664D3*
X118824D3*
X119624D3*
X120424D3*
X121224D3*
X122024D3*
X122824D3*
X123624D3*
D110*
X125116Y146172D3*
Y146972D3*
Y147772D3*
Y148572D3*
Y149372D3*
Y150172D3*
Y150972D3*
Y151772D3*
D108*
X123608Y153264D3*
X122808D3*
X122008D3*
X121208D3*
X120408D3*
X119608D3*
X118808D3*
X118008D3*
D106*
X102703Y141753D3*
X112203D3*
D104*
X120640Y200963D3*
Y195963D3*
D102*
X121656Y216203D3*
X119370D3*
D100*
X143500Y214298D3*
Y208298D3*
D98*
X147945Y206678D3*
Y204392D3*
D96*
X137314Y131433D3*
X148744D3*
D102*
X152238Y135720D3*
X154524D3*
D90*
X147158Y182080D3*
D88*
X146303Y179190D3*
X148028D3*
D86*
X106200Y173933D3*
Y172663D3*
Y171393D3*
Y170123D3*
Y168853D3*
Y167583D3*
Y166313D3*
Y165043D3*
X116250D3*
Y166313D3*
Y167583D3*
Y168853D3*
Y170123D3*
Y171393D3*
Y172663D3*
Y173933D3*
D102*
X114610Y177158D3*
X112324D3*
D98*
X102227Y173982D3*
Y171696D3*
Y169537D3*
Y167251D3*
D102*
X112070Y162710D3*
X109784D3*
X107625Y177158D3*
X109911D3*
D82*
X90637Y167950D3*
Y164350D3*
X96637D3*
Y167950D3*
D102*
X86985D3*
X84699D3*
D80*
X84763Y164139D3*
X86663D3*
D102*
X104100Y147596D3*
X106386D3*
D98*
X128585Y147314D3*
Y149600D3*
D76*
X105400Y195883D3*
Y200383D3*
D74*
X128260Y211123D3*
X138515D3*
D72*
X115557Y213663D3*
Y212393D3*
Y211123D3*
Y209853D3*
Y208583D3*
Y207313D3*
Y206043D3*
X124757D3*
Y207313D3*
Y208583D3*
Y209853D3*
Y211123D3*
Y212393D3*
Y213663D3*
D70*
X125720Y200963D3*
Y196813D3*
D100*
X143500Y197153D3*
Y203153D3*
D104*
X130165Y200963D3*
Y195963D3*
X115560Y200963D3*
Y195963D3*
X110480Y200963D3*
Y195963D3*
X135245Y200963D3*
Y195963D3*
D102*
X102704Y137784D3*
X104990D3*
X111912D3*
X109626D3*
D80*
X92537Y137625D3*
X90637D3*
X92537Y135085D3*
X90637D3*
D68*
X87462Y134450D3*
D66*
X83856D3*
D68*
X87462Y137625D3*
D66*
X83855D3*
D70*
X105400Y209218D3*
Y205068D3*
D80*
X107305Y214933D3*
X105405D3*
D64*
X111115Y207313D3*
D62*
Y210919D3*
D80*
X140966Y179222D3*
X142866D3*
X136679D3*
X138579D3*
D102*
X143665Y164933D3*
X145951D3*
M02*
