G04 DipTrace 2.1.0.5*
%INTopSilk.gbr*%
%MOIN*%
%ADD10C,0.0098*%
%ADD11C,0.0055*%
%ADD12C,0.003*%
%ADD13C,0.0197*%
%ADD14C,0.02*%
%ADD15C,0.04*%
%ADD16C,0.0295*%
%ADD17C,0.0394*%
%ADD18C,0.0013*%
%ADD19C,0.0187*%
%ADD20R,0.0709X0.0197*%
%ADD21R,0.0197X0.0709*%
%ADD22R,0.2165X0.0787*%
%ADD23R,0.02X0.1181*%
%ADD24R,0.06X0.056*%
%ADD25R,0.0295X0.1772*%
%ADD26R,0.056X0.06*%
%ADD27R,0.1969X0.0984*%
%ADD28C,0.059*%
%ADD29C,0.065*%
%ADD30C,0.0039*%
%ADD31R,0.0433X0.0354*%
%ADD32R,0.0394X0.0354*%
%ADD33R,0.0925X0.0236*%
%ADD34C,0.09*%
%ADD35R,0.1024X0.0551*%
%ADD36R,0.0512X0.0591*%
%ADD37R,0.06X0.06*%
%ADD38C,0.06*%
%ADD39R,0.0906X0.0906*%
%ADD40R,0.118X0.217*%
%ADD41R,0.0866X0.0236*%
%ADD42R,0.0728X0.1004*%
%ADD43R,0.07X0.03*%
%ADD44O,0.07X0.03*%
%ADD45R,0.03X0.07*%
%ADD46O,0.03X0.07*%
%ADD47R,0.059X0.059*%
%ADD48C,0.059*%
%ADD49C,0.03*%
%ADD50C,0.1181*%
%ADD51C,0.035*%
%ADD52C,0.0354*%
%ADD53C,0.05*%
%ADD54C,0.008*%
%ADD55C,0.068*%
%ADD56C,0.052*%
%ADD57C,0.067*%
%ADD58C,0.051*%
%ADD59R,0.067X0.067*%
%ADD60R,0.051X0.051*%
%ADD61O,0.038X0.078*%
%ADD62O,0.022X0.062*%
%ADD63R,0.038X0.078*%
%ADD64R,0.022X0.062*%
%ADD65O,0.078X0.038*%
%ADD66O,0.062X0.022*%
%ADD67R,0.078X0.038*%
%ADD68R,0.062X0.022*%
%ADD69R,0.0809X0.1084*%
%ADD70R,0.0648X0.0924*%
%ADD71R,0.0946X0.0317*%
%ADD72R,0.0786X0.0156*%
%ADD73R,0.126X0.225*%
%ADD74R,0.11X0.209*%
%ADD75R,0.0986X0.0986*%
%ADD76R,0.0825X0.0825*%
%ADD77R,0.068X0.068*%
%ADD78R,0.052X0.052*%
%ADD79R,0.0592X0.0671*%
%ADD80R,0.0431X0.051*%
%ADD81R,0.1104X0.0631*%
%ADD82R,0.0943X0.0471*%
%ADD83C,0.098*%
%ADD84C,0.082*%
%ADD85R,0.1006X0.0317*%
%ADD86R,0.0845X0.0156*%
%ADD87R,0.0474X0.0435*%
%ADD88R,0.0313X0.0274*%
%ADD89R,0.0513X0.0435*%
%ADD90R,0.0353X0.0274*%
%ADD91C,0.073*%
%ADD92C,0.057*%
%ADD93C,0.067*%
%ADD94C,0.051*%
%ADD95R,0.2049X0.1065*%
%ADD96R,0.1888X0.0904*%
%ADD97R,0.064X0.068*%
%ADD98R,0.048X0.052*%
%ADD99R,0.0376X0.1852*%
%ADD100R,0.0215X0.1691*%
%ADD101R,0.068X0.064*%
%ADD102R,0.052X0.048*%
%ADD103R,0.028X0.1261*%
%ADD104R,0.012X0.1101*%
%ADD105R,0.2246X0.0868*%
%ADD106R,0.2085X0.0707*%
%ADD107R,0.0277X0.0789*%
%ADD108R,0.0117X0.0628*%
%ADD109R,0.0789X0.0277*%
%ADD110R,0.0628X0.0117*%
%ADD111C,0.0093*%
%ADD112C,0.0124*%
%FSLAX44Y44*%
%SFA1B1*%
%OFA0B0*%
G04*
G70*
G90*
G75*
G01*
%LNTopSilk*%
%LPD*%
X14853Y16556D2*
D10*
X17285D1*
Y14124D1*
X14853D1*
Y16556D1*
D19*
X14385Y16748D3*
X8989Y11870D2*
D10*
G02X8989Y11870I-50J0D01*
G01*
X8564Y13171D2*
Y13466D1*
X13052Y11537D2*
Y11832D1*
X8564Y11537D2*
X13052D1*
X8564D2*
Y11832D1*
X13052Y13171D2*
Y13466D1*
X8564D2*
X13052D1*
X16984Y35812D2*
X15016D1*
Y33844D1*
X16984D1*
Y35812D1*
X16826Y41436D2*
X15073D1*
Y42188D1*
X16826D1*
Y41436D1*
X26181Y41062D2*
X23819D1*
Y38700D1*
X26181D1*
Y41062D1*
X27125Y38488D2*
X26374D1*
Y36736D1*
X27125D1*
Y38488D1*
X22315Y10938D2*
X27315D1*
Y5938D1*
X22315D1*
Y10938D1*
X27315Y7188D2*
X26064Y5938D1*
X28014Y10502D2*
X29767D1*
Y9750D1*
X28014D1*
Y10502D1*
X29043Y30671D2*
X12793D1*
Y29170D1*
X29043D1*
Y30671D1*
X25830Y28419D2*
D30*
X27050D1*
Y27199D1*
X25830D1*
Y28419D1*
X12044Y25446D2*
D10*
G03X12542Y25446I249J-1D01*
G01*
X10316Y25454D2*
G02X10316Y25454I0J50D01*
G01*
X13650Y25446D2*
Y21393D1*
X10936Y25446D2*
Y21393D1*
X13650D1*
X12542Y25446D2*
X13650D1*
X10936D2*
X12044D1*
X14052Y26065D2*
X12300D1*
Y26816D1*
X14052D1*
Y26065D1*
X9126Y25616D2*
X8375D1*
Y23864D1*
X9126D1*
Y25616D1*
Y23866D2*
X8375D1*
Y22114D1*
X9126D1*
Y23866D1*
X13053Y20377D2*
X11300D1*
Y21128D1*
X13053D1*
Y20377D1*
X10450Y26816D2*
X12202D1*
Y26065D1*
X10450D1*
Y26816D1*
X4997Y40810D2*
X8997D1*
Y32810D1*
X4997D1*
Y40810D1*
X4739Y22815D2*
X5999D1*
X4739Y21358D2*
X5999D1*
X5408Y22815D2*
Y22500D1*
Y21398D2*
Y21634D1*
X5290Y21791D2*
G02X5290Y21791I118J0D01*
G01*
Y22382D2*
G02X5290Y22382I118J0D01*
G01*
Y21870D2*
X5014Y22303D1*
X2000Y18381D2*
X1000D1*
Y12380D1*
X2000D1*
Y18381D1*
X3176Y22439D2*
X1424D1*
Y23190D1*
X3176D1*
Y22439D1*
X9062Y15177D2*
X10815D1*
Y14426D1*
X9062D1*
Y15177D1*
X18752Y14264D2*
X19504D1*
Y16017D1*
X18752D1*
Y14264D1*
X27440Y15814D2*
X23940D1*
X27440Y16814D2*
X23940D1*
X27440Y15814D2*
G03X27440Y16814I-1J500D01*
G01*
X23940D2*
G03X23940Y15814I1J-500D01*
G01*
X9390Y33202D2*
Y36135D1*
X10610Y33202D2*
Y36135D1*
X10433Y36312D2*
X9567D1*
X9390Y36135D2*
X9567Y36312D1*
X10610Y36135D2*
X10433Y36312D1*
X10610Y33202D2*
X9390D1*
X10079Y34698D2*
X9920D1*
X10000Y34620D2*
Y34776D1*
X18781Y42031D2*
X23112D1*
Y37306D1*
X18781D1*
Y42031D1*
X15558Y41122D2*
G03X16061Y41122I251J4D01*
G01*
X13996Y41096D2*
G02X13996Y41096I0J50D01*
G01*
X17030Y41122D2*
Y37501D1*
X14589Y41122D2*
Y37501D1*
X17030D1*
X16061Y41122D2*
X17030D1*
X14589D2*
X15558D1*
X18521Y33579D2*
X18344Y33401D1*
X17656D2*
X18344D1*
X18521Y36471D2*
Y33579D1*
X17478Y36471D2*
Y33579D1*
Y36471D2*
X18521D1*
X17478Y33579D2*
X17656Y33401D1*
X17922Y34994D2*
X18078D1*
X18000Y35074D2*
Y34918D1*
X23819Y34312D2*
X26181D1*
Y36674D1*
X23819D1*
Y34312D1*
X20734Y35812D2*
X18766D1*
Y33844D1*
X20734D1*
Y35812D1*
X14984D2*
X13016D1*
Y33844D1*
X14984D1*
Y35812D1*
X12984D2*
X11016D1*
Y33844D1*
X12984D1*
Y35812D1*
X22734D2*
X20766D1*
Y33844D1*
X22734D1*
Y35812D1*
X8512Y11314D2*
X10265D1*
Y10563D1*
X8512D1*
Y11314D1*
X12990Y10563D2*
X11237D1*
Y11314D1*
X12990D1*
Y10563D1*
X976Y10252D2*
X3480D1*
Y9000D1*
X976D1*
Y10252D1*
Y11502D2*
X3480D1*
Y10250D1*
X976D1*
Y11502D1*
X10521Y36829D2*
X10344Y36651D1*
X9656D2*
X10344D1*
X10521Y39721D2*
Y36829D1*
X9478Y39721D2*
Y36829D1*
Y39721D2*
X10521D1*
X9478Y36829D2*
X9656Y36651D1*
X9922Y38244D2*
X10078D1*
X10000Y38324D2*
Y38168D1*
X12876Y40274D2*
X11624D1*
Y37770D1*
X12876D1*
Y40274D1*
X24639Y22003D2*
X26391D1*
Y21252D1*
X24639D1*
Y22003D1*
X17835Y8313D2*
X19752D1*
X16752D2*
X19752D1*
X16752Y10313D2*
X19752D1*
X16752Y8313D2*
Y10313D1*
X19752Y8313D2*
Y10313D1*
X30003Y0D2*
D18*
Y62D1*
X15597Y18266D2*
D111*
Y17663D1*
X16212Y18123D2*
X16184Y18180D1*
D2*
X16126Y18237D1*
D2*
X16069Y18266D1*
D2*
X15954D1*
D2*
X15897Y18237D1*
D2*
X15840Y18180D1*
D2*
X15811Y18123D1*
D2*
X15782Y18036D1*
D2*
Y17892D1*
D2*
X15811Y17807D1*
D2*
X15840Y17749D1*
D2*
X15897Y17692D1*
D2*
X15954Y17663D1*
D2*
X16069D1*
D2*
X16126Y17692D1*
D2*
X16184Y17749D1*
D2*
X16212Y17807D1*
X16398Y18150D2*
X16455Y18180D1*
D2*
X16542Y18265D1*
D2*
Y17663D1*
X9562Y14345D2*
X9964Y13742D1*
Y14345D2*
X9562Y13742D1*
X10350Y14345D2*
Y13742D1*
X10149Y14345D2*
X10551D1*
X11196Y13742D2*
X10966Y14345D1*
D2*
X10736Y13742D1*
X10823Y13943D2*
X11110D1*
X11381Y14345D2*
Y13742D1*
D2*
X11725D1*
X11911Y14229D2*
X11968Y14258D1*
D2*
X12055Y14344D1*
D2*
Y13742D1*
X15757Y37138D2*
X15728Y37195D1*
D2*
X15671Y37253D1*
D2*
X15614Y37281D1*
D2*
X15499D1*
D2*
X15441Y37253D1*
D2*
X15384Y37195D1*
D2*
X15355Y37138D1*
D2*
X15326Y37052D1*
D2*
Y36908D1*
D2*
X15355Y36822D1*
D2*
X15384Y36765D1*
D2*
X15441Y36708D1*
D2*
X15499Y36678D1*
D2*
X15614D1*
D2*
X15671Y36708D1*
D2*
X15728Y36765D1*
D2*
X15757Y36822D1*
X15942Y37166D2*
X16000Y37195D1*
D2*
X16086Y37281D1*
D2*
Y36678D1*
X16329Y37281D2*
X16644D1*
D2*
X16472Y37051D1*
D2*
X16558D1*
D2*
X16616Y37023D1*
D2*
X16644Y36994D1*
D2*
X16673Y36908D1*
D2*
Y36851D1*
D2*
X16644Y36765D1*
D2*
X16587Y36707D1*
D2*
X16501Y36678D1*
D2*
X16415D1*
D2*
X16329Y36707D1*
D2*
X16300Y36736D1*
D2*
X16271Y36793D1*
X15693Y42923D2*
X15664Y42980D1*
D2*
X15606Y43038D1*
D2*
X15549Y43066D1*
D2*
X15435D1*
D2*
X15377Y43038D1*
D2*
X15320Y42980D1*
D2*
X15291Y42923D1*
D2*
X15262Y42837D1*
D2*
Y42693D1*
D2*
X15291Y42607D1*
D2*
X15320Y42550D1*
D2*
X15377Y42493D1*
D2*
X15435Y42463D1*
D2*
X15549D1*
D2*
X15606Y42493D1*
D2*
X15664Y42550D1*
D2*
X15693Y42607D1*
X15878Y42951D2*
X15936Y42980D1*
D2*
X16022Y43066D1*
D2*
Y42463D1*
X16494D2*
Y43066D1*
D2*
X16207Y42664D1*
D2*
X16637D1*
X24757Y42683D2*
X24728Y42740D1*
D2*
X24671Y42798D1*
D2*
X24614Y42827D1*
D2*
X24499D1*
D2*
X24441Y42798D1*
D2*
X24384Y42740D1*
D2*
X24355Y42683D1*
D2*
X24326Y42597D1*
D2*
Y42453D1*
D2*
X24355Y42368D1*
D2*
X24384Y42310D1*
D2*
X24441Y42253D1*
D2*
X24499Y42224D1*
D2*
X24614D1*
D2*
X24671Y42253D1*
D2*
X24728Y42310D1*
D2*
X24757Y42368D1*
X24942Y42711D2*
X25000Y42740D1*
D2*
X25086Y42826D1*
D2*
Y42224D1*
X25616Y42826D2*
X25329D1*
D2*
X25300Y42568D1*
D2*
X25329Y42596D1*
D2*
X25415Y42626D1*
D2*
X25501D1*
D2*
X25587Y42596D1*
D2*
X25645Y42539D1*
D2*
X25673Y42453D1*
D2*
Y42396D1*
D2*
X25645Y42310D1*
D2*
X25587Y42252D1*
D2*
X25501Y42224D1*
D2*
X25415D1*
D2*
X25329Y42252D1*
D2*
X25300Y42281D1*
D2*
X25271Y42338D1*
X27472Y37384D2*
X27415Y37355D1*
D2*
X27357Y37297D1*
D2*
X27329Y37240D1*
D2*
Y37126D1*
D2*
X27357Y37068D1*
D2*
X27415Y37011D1*
D2*
X27472Y36982D1*
D2*
X27558Y36953D1*
D2*
X27702D1*
D2*
X27788Y36982D1*
D2*
X27846Y37011D1*
D2*
X27903Y37068D1*
D2*
X27932Y37126D1*
D2*
Y37240D1*
D2*
X27903Y37297D1*
D2*
X27846Y37355D1*
D2*
X27788Y37384D1*
X27444Y37569D2*
X27415Y37627D1*
D2*
X27330Y37713D1*
D2*
X27932D1*
X27415Y38242D2*
X27358Y38214D1*
D2*
X27330Y38128D1*
D2*
Y38071D1*
D2*
X27358Y37984D1*
D2*
X27444Y37927D1*
D2*
X27588Y37898D1*
D2*
X27731D1*
D2*
X27846Y37927D1*
D2*
X27903Y37984D1*
D2*
X27932Y38071D1*
D2*
Y38099D1*
D2*
X27903Y38185D1*
D2*
X27846Y38242D1*
D2*
X27759Y38271D1*
D2*
X27731D1*
D2*
X27645Y38242D1*
D2*
X27588Y38185D1*
D2*
X27559Y38099D1*
D2*
Y38071D1*
D2*
X27588Y37984D1*
D2*
X27645Y37927D1*
D2*
X27731Y37898D1*
X24156Y11817D2*
Y11214D1*
D2*
X24414D1*
D2*
X24500Y11243D1*
D2*
X24529Y11272D1*
D2*
X24557Y11329D1*
D2*
Y11415D1*
D2*
X24529Y11473D1*
D2*
X24500Y11501D1*
D2*
X24414Y11530D1*
D2*
X24500Y11559D1*
D2*
X24529Y11588D1*
D2*
X24557Y11645D1*
D2*
Y11702D1*
D2*
X24529Y11759D1*
D2*
X24500Y11789D1*
D2*
X24414Y11817D1*
D2*
X24156D1*
Y11530D2*
X24414D1*
X24743Y11817D2*
X25145D1*
D2*
X24743Y11214D1*
D2*
X25145D1*
X25330Y11702D2*
X25388Y11731D1*
D2*
X25474Y11816D1*
D2*
Y11214D1*
X28647Y11237D2*
X28619Y11294D1*
D2*
X28561Y11352D1*
D2*
X28504Y11380D1*
D2*
X28389D1*
D2*
X28332Y11352D1*
D2*
X28275Y11294D1*
D2*
X28245Y11237D1*
D2*
X28217Y11151D1*
D2*
Y11007D1*
D2*
X28245Y10921D1*
D2*
X28275Y10864D1*
D2*
X28332Y10807D1*
D2*
X28389Y10777D1*
D2*
X28504D1*
D2*
X28561Y10807D1*
D2*
X28619Y10864D1*
D2*
X28647Y10921D1*
X28833Y11265D2*
X28890Y11294D1*
D2*
X28977Y11380D1*
D2*
Y10777D1*
X29191Y11236D2*
Y11265D1*
D2*
X29219Y11323D1*
D2*
X29248Y11351D1*
D2*
X29306Y11380D1*
D2*
X29420D1*
D2*
X29477Y11351D1*
D2*
X29506Y11323D1*
D2*
X29535Y11265D1*
D2*
Y11208D1*
D2*
X29506Y11150D1*
D2*
X29449Y11065D1*
D2*
X29162Y10777D1*
D2*
X29564D1*
X27254Y27121D2*
X27857Y27351D1*
D2*
X27254Y27580D1*
X27541Y27766D2*
Y28024D1*
D2*
X27512Y28110D1*
D2*
X27483Y28139D1*
D2*
X27426Y28168D1*
D2*
X27369D1*
D2*
X27312Y28139D1*
D2*
X27282Y28110D1*
D2*
X27254Y28024D1*
D2*
Y27766D1*
D2*
X27857D1*
X27541Y27967D2*
X27857Y28168D1*
X27369Y28353D2*
X27340Y28410D1*
D2*
X27254Y28497D1*
D2*
X27857D1*
X14780Y26433D2*
Y26002D1*
D2*
X14809Y25916D1*
D2*
X14867Y25859D1*
D2*
X14953Y25830D1*
D2*
X15010D1*
D2*
X15096Y25859D1*
D2*
X15154Y25916D1*
D2*
X15182Y26002D1*
D2*
Y26433D1*
X15397Y26289D2*
Y26317D1*
D2*
X15425Y26375D1*
D2*
X15454Y26404D1*
D2*
X15511Y26432D1*
D2*
X15626D1*
D2*
X15683Y26404D1*
D2*
X15712Y26375D1*
D2*
X15741Y26317D1*
D2*
Y26260D1*
D2*
X15712Y26203D1*
D2*
X15655Y26117D1*
D2*
X15368Y25830D1*
D2*
X15769D1*
X13098Y27551D2*
X13069Y27608D1*
D2*
X13011Y27666D1*
D2*
X12954Y27694D1*
D2*
X12840D1*
D2*
X12782Y27666D1*
D2*
X12725Y27608D1*
D2*
X12696Y27551D1*
D2*
X12667Y27465D1*
D2*
Y27321D1*
D2*
X12696Y27235D1*
D2*
X12725Y27178D1*
D2*
X12782Y27121D1*
D2*
X12840Y27091D1*
D2*
X12954D1*
D2*
X13011Y27121D1*
D2*
X13069Y27178D1*
D2*
X13098Y27235D1*
X13627Y27694D2*
X13341D1*
D2*
X13312Y27436D1*
D2*
X13341Y27464D1*
D2*
X13427Y27493D1*
D2*
X13512D1*
D2*
X13599Y27464D1*
D2*
X13656Y27407D1*
D2*
X13685Y27321D1*
D2*
Y27264D1*
D2*
X13656Y27178D1*
D2*
X13599Y27120D1*
D2*
X13512Y27091D1*
D2*
X13427D1*
D2*
X13341Y27120D1*
D2*
X13312Y27149D1*
D2*
X13283Y27206D1*
X9473Y24676D2*
X9416Y24648D1*
D2*
X9358Y24590D1*
D2*
X9330Y24533D1*
D2*
Y24418D1*
D2*
X9358Y24360D1*
D2*
X9416Y24303D1*
D2*
X9473Y24274D1*
D2*
X9559Y24246D1*
D2*
X9703D1*
D2*
X9789Y24274D1*
D2*
X9846Y24303D1*
D2*
X9904Y24360D1*
D2*
X9933Y24418D1*
D2*
Y24533D1*
D2*
X9904Y24590D1*
D2*
X9846Y24648D1*
D2*
X9789Y24676D1*
X9416Y25206D2*
X9359Y25177D1*
D2*
X9330Y25091D1*
D2*
Y25034D1*
D2*
X9359Y24948D1*
D2*
X9445Y24890D1*
D2*
X9588Y24861D1*
D2*
X9732D1*
D2*
X9846Y24890D1*
D2*
X9904Y24948D1*
D2*
X9933Y25034D1*
D2*
Y25062D1*
D2*
X9904Y25148D1*
D2*
X9846Y25206D1*
D2*
X9760Y25234D1*
D2*
X9732D1*
D2*
X9646Y25206D1*
D2*
X9588Y25148D1*
D2*
X9560Y25062D1*
D2*
Y25034D1*
D2*
X9588Y24948D1*
D2*
X9646Y24890D1*
D2*
X9732Y24861D1*
X9473Y22912D2*
X9416Y22883D1*
D2*
X9358Y22825D1*
D2*
X9330Y22768D1*
D2*
Y22654D1*
D2*
X9358Y22596D1*
D2*
X9416Y22539D1*
D2*
X9473Y22510D1*
D2*
X9559Y22481D1*
D2*
X9703D1*
D2*
X9789Y22510D1*
D2*
X9846Y22539D1*
D2*
X9904Y22596D1*
D2*
X9933Y22654D1*
D2*
Y22768D1*
D2*
X9904Y22825D1*
D2*
X9846Y22883D1*
D2*
X9789Y22912D1*
X9933Y23212D2*
X9330Y23499D1*
D2*
Y23097D1*
X12098Y20030D2*
X12070Y20087D1*
D2*
X12012Y20145D1*
D2*
X11955Y20173D1*
D2*
X11840D1*
D2*
X11782Y20145D1*
D2*
X11725Y20087D1*
D2*
X11696Y20030D1*
D2*
X11668Y19944D1*
D2*
Y19800D1*
D2*
X11696Y19714D1*
D2*
X11725Y19656D1*
D2*
X11782Y19599D1*
D2*
X11840Y19570D1*
D2*
X11955D1*
D2*
X12012Y19599D1*
D2*
X12070Y19656D1*
D2*
X12098Y19714D1*
X12427Y20172D2*
X12341Y20144D1*
D2*
X12312Y20087D1*
D2*
Y20029D1*
D2*
X12341Y19972D1*
D2*
X12398Y19943D1*
D2*
X12513Y19914D1*
D2*
X12599Y19886D1*
D2*
X12656Y19828D1*
D2*
X12685Y19771D1*
D2*
Y19685D1*
D2*
X12656Y19628D1*
D2*
X12628Y19599D1*
D2*
X12541Y19570D1*
D2*
X12427D1*
D2*
X12341Y19599D1*
D2*
X12312Y19628D1*
D2*
X12283Y19685D1*
D2*
Y19771D1*
D2*
X12312Y19828D1*
D2*
X12370Y19886D1*
D2*
X12455Y19914D1*
D2*
X12570Y19943D1*
D2*
X12628Y19972D1*
D2*
X12656Y20029D1*
D2*
Y20087D1*
D2*
X12628Y20144D1*
D2*
X12541Y20172D1*
D2*
X12427D1*
X11262Y27551D2*
X11233Y27608D1*
D2*
X11176Y27666D1*
D2*
X11119Y27694D1*
D2*
X11004D1*
D2*
X10946Y27666D1*
D2*
X10889Y27608D1*
D2*
X10860Y27551D1*
D2*
X10831Y27465D1*
D2*
Y27321D1*
D2*
X10860Y27235D1*
D2*
X10889Y27178D1*
D2*
X10946Y27121D1*
D2*
X11004Y27091D1*
D2*
X11119D1*
D2*
X11176Y27121D1*
D2*
X11233Y27178D1*
D2*
X11262Y27235D1*
X11821Y27493D2*
X11791Y27407D1*
D2*
X11734Y27349D1*
D2*
X11648Y27321D1*
D2*
X11620D1*
D2*
X11533Y27349D1*
D2*
X11476Y27407D1*
D2*
X11447Y27493D1*
D2*
Y27522D1*
D2*
X11476Y27608D1*
D2*
X11533Y27665D1*
D2*
X11620Y27694D1*
D2*
X11648D1*
D2*
X11734Y27665D1*
D2*
X11791Y27608D1*
D2*
X11821Y27493D1*
D2*
Y27349D1*
D2*
X11791Y27206D1*
D2*
X11734Y27120D1*
D2*
X11648Y27091D1*
D2*
X11591D1*
D2*
X11505Y27120D1*
D2*
X11476Y27178D1*
X4710Y23653D2*
X4968D1*
D2*
X5054Y23682D1*
D2*
X5083Y23711D1*
D2*
X5112Y23768D1*
D2*
Y23854D1*
D2*
X5083Y23911D1*
D2*
X5054Y23941D1*
D2*
X4968Y23969D1*
D2*
X4710D1*
D2*
Y23366D1*
X5297Y23969D2*
Y23366D1*
D2*
X5556D1*
D2*
X5642Y23395D1*
D2*
X5670Y23424D1*
D2*
X5699Y23481D1*
D2*
Y23567D1*
D2*
X5670Y23625D1*
D2*
X5642Y23653D1*
D2*
X5556Y23682D1*
D2*
X5642Y23711D1*
D2*
X5670Y23740D1*
D2*
X5699Y23797D1*
D2*
Y23854D1*
D2*
X5670Y23911D1*
D2*
X5642Y23941D1*
D2*
X5556Y23969D1*
D2*
X5297D1*
Y23682D2*
X5556D1*
X5884Y23854D2*
X5942Y23883D1*
D2*
X6028Y23968D1*
D2*
Y23366D1*
X1152Y19241D2*
X1095Y19299D1*
D2*
X1008Y19327D1*
D2*
X894D1*
D2*
X807Y19299D1*
D2*
X750Y19241D1*
D2*
Y19184D1*
D2*
X779Y19126D1*
D2*
X807Y19098D1*
D2*
X864Y19069D1*
D2*
X1037Y19012D1*
D2*
X1095Y18983D1*
D2*
X1123Y18954D1*
D2*
X1152Y18897D1*
D2*
Y18811D1*
D2*
X1095Y18754D1*
D2*
X1008Y18724D1*
D2*
X894D1*
D2*
X807Y18754D1*
D2*
X750Y18811D1*
X1337Y18954D2*
X1681D1*
D2*
Y19012D1*
D2*
X1653Y19069D1*
D2*
X1624Y19098D1*
D2*
X1566Y19126D1*
D2*
X1480D1*
D2*
X1423Y19098D1*
D2*
X1365Y19040D1*
D2*
X1337Y18954D1*
D2*
Y18897D1*
D2*
X1365Y18811D1*
D2*
X1423Y18754D1*
D2*
X1480Y18724D1*
D2*
X1566D1*
D2*
X1624Y18754D1*
D2*
X1681Y18811D1*
X1866Y19126D2*
Y18724D1*
Y18954D2*
X1896Y19040D1*
D2*
X1953Y19098D1*
D2*
X2010Y19126D1*
D2*
X2097D1*
X2282Y19327D2*
X2310Y19299D1*
D2*
X2339Y19327D1*
D2*
X2310Y19357D1*
D2*
X2282Y19327D1*
X2310Y19126D2*
Y18724D1*
X2869Y19126D2*
Y18724D1*
Y19040D2*
X2812Y19098D1*
D2*
X2754Y19126D1*
D2*
X2669D1*
D2*
X2611Y19098D1*
D2*
X2554Y19040D1*
D2*
X2525Y18954D1*
D2*
Y18897D1*
D2*
X2554Y18811D1*
D2*
X2611Y18754D1*
D2*
X2669Y18724D1*
D2*
X2754D1*
D2*
X2812Y18754D1*
D2*
X2869Y18811D1*
X3054Y19327D2*
Y18724D1*
X3240Y19212D2*
X3297Y19241D1*
D2*
X3383Y19327D1*
D2*
Y18724D1*
X2186Y23926D2*
X2158Y23983D1*
D2*
X2100Y24041D1*
D2*
X2043Y24069D1*
D2*
X1928D1*
D2*
X1870Y24041D1*
D2*
X1813Y23983D1*
D2*
X1784Y23926D1*
D2*
X1756Y23840D1*
D2*
Y23696D1*
D2*
X1784Y23610D1*
D2*
X1813Y23552D1*
D2*
X1870Y23495D1*
D2*
X1928Y23466D1*
D2*
X2043D1*
D2*
X2100Y23495D1*
D2*
X2158Y23552D1*
D2*
X2186Y23610D1*
X2371Y23954D2*
X2429Y23983D1*
D2*
X2515Y24068D1*
D2*
Y23466D1*
X2701Y23954D2*
X2758Y23983D1*
D2*
X2845Y24068D1*
D2*
Y23466D1*
X1883Y22201D2*
X2141D1*
D2*
X2228Y22231D1*
D2*
X2257Y22259D1*
D2*
X2285Y22316D1*
D2*
Y22374D1*
D2*
X2257Y22431D1*
D2*
X2228Y22460D1*
D2*
X2141Y22489D1*
D2*
X1883D1*
D2*
Y21886D1*
X2084Y22201D2*
X2285Y21886D1*
X2471Y22373D2*
X2528Y22402D1*
D2*
X2615Y22488D1*
D2*
Y21886D1*
X9860Y15913D2*
X9831Y15970D1*
D2*
X9774Y16027D1*
D2*
X9717Y16056D1*
D2*
X9602D1*
D2*
X9544Y16027D1*
D2*
X9487Y15970D1*
D2*
X9458Y15913D1*
D2*
X9430Y15826D1*
D2*
Y15682D1*
D2*
X9458Y15597D1*
D2*
X9487Y15539D1*
D2*
X9544Y15482D1*
D2*
X9602Y15453D1*
D2*
X9717D1*
D2*
X9774Y15482D1*
D2*
X9831Y15539D1*
D2*
X9860Y15597D1*
X10103Y16055D2*
X10418D1*
D2*
X10246Y15826D1*
D2*
X10332D1*
D2*
X10389Y15797D1*
D2*
X10418Y15769D1*
D2*
X10447Y15682D1*
D2*
Y15625D1*
D2*
X10418Y15539D1*
D2*
X10361Y15481D1*
D2*
X10275Y15453D1*
D2*
X10189D1*
D2*
X10103Y15481D1*
D2*
X10074Y15511D1*
D2*
X10045Y15568D1*
X19850Y14898D2*
X19793Y14869D1*
D2*
X19736Y14812D1*
D2*
X19707Y14755D1*
D2*
Y14640D1*
D2*
X19736Y14582D1*
D2*
X19793Y14525D1*
D2*
X19850Y14496D1*
D2*
X19937Y14467D1*
D2*
X20081D1*
D2*
X20166Y14496D1*
D2*
X20224Y14525D1*
D2*
X20281Y14582D1*
D2*
X20310Y14640D1*
D2*
Y14755D1*
D2*
X20281Y14812D1*
D2*
X20224Y14869D1*
D2*
X20166Y14898D1*
X19823Y15083D2*
X19793Y15141D1*
D2*
X19708Y15227D1*
D2*
X20310D1*
X19708Y15585D2*
X19736Y15498D1*
D2*
X19823Y15441D1*
D2*
X19966Y15412D1*
D2*
X20052D1*
D2*
X20195Y15441D1*
D2*
X20281Y15498D1*
D2*
X20310Y15585D1*
D2*
Y15642D1*
D2*
X20281Y15728D1*
D2*
X20195Y15785D1*
D2*
X20052Y15814D1*
D2*
X19966D1*
D2*
X19823Y15785D1*
D2*
X19736Y15728D1*
D2*
X19708Y15642D1*
D2*
Y15585D1*
X19823Y15785D2*
X20195Y15441D1*
X24824Y17406D2*
X25082D1*
D2*
X25168Y17435D1*
D2*
X25197Y17463D1*
D2*
X25226Y17520D1*
D2*
Y17578D1*
D2*
X25197Y17635D1*
D2*
X25168Y17664D1*
D2*
X25082Y17693D1*
D2*
X24824D1*
D2*
Y17090D1*
X25025Y17406D2*
X25226Y17090D1*
X25784Y17693D2*
X25411D1*
D2*
Y17090D1*
Y17406D2*
X25640D1*
X25970Y17693D2*
Y17090D1*
X26155Y17693D2*
Y17090D1*
D2*
X26356D1*
D2*
X26442Y17119D1*
D2*
X26500Y17176D1*
D2*
X26528Y17234D1*
D2*
X26557Y17319D1*
D2*
Y17463D1*
D2*
X26528Y17550D1*
D2*
X26500Y17607D1*
D2*
X26442Y17664D1*
D2*
X26356Y17693D1*
D2*
X26155D1*
X9220Y32998D2*
Y32395D1*
X9019Y32998D2*
X9420D1*
X9606D2*
X9835Y32395D1*
D2*
X10065Y32998D1*
X10652Y32912D2*
X10595Y32970D1*
D2*
X10509Y32998D1*
D2*
X10394D1*
D2*
X10308Y32970D1*
D2*
X10250Y32912D1*
D2*
Y32855D1*
D2*
X10279Y32797D1*
D2*
X10308Y32769D1*
D2*
X10365Y32740D1*
D2*
X10537Y32683D1*
D2*
X10595Y32654D1*
D2*
X10623Y32625D1*
D2*
X10652Y32568D1*
D2*
Y32482D1*
D2*
X10595Y32425D1*
D2*
X10509Y32395D1*
D2*
X10394D1*
D2*
X10308Y32425D1*
D2*
X10250Y32482D1*
X10837Y32883D2*
X10895Y32912D1*
D2*
X10981Y32998D1*
D2*
Y32395D1*
X20553Y42909D2*
Y42306D1*
D2*
X20897D1*
X21111Y42765D2*
Y42794D1*
D2*
X21140Y42852D1*
D2*
X21169Y42880D1*
D2*
X21226Y42909D1*
D2*
X21341D1*
D2*
X21398Y42880D1*
D2*
X21427Y42852D1*
D2*
X21456Y42794D1*
D2*
Y42737D1*
D2*
X21427Y42679D1*
D2*
X21369Y42594D1*
D2*
X21082Y42306D1*
D2*
X21484D1*
X17706Y42075D2*
Y41644D1*
D2*
X17735Y41558D1*
D2*
X17793Y41501D1*
D2*
X17879Y41472D1*
D2*
X17936D1*
D2*
X18022Y41501D1*
D2*
X18080Y41558D1*
D2*
X18108Y41644D1*
D2*
Y42075D1*
X18294Y41959D2*
X18351Y41988D1*
D2*
X18437Y42074D1*
D2*
Y41472D1*
X17520Y33197D2*
Y32594D1*
D2*
X17721D1*
D2*
X17807Y32623D1*
D2*
X17865Y32680D1*
D2*
X17893Y32738D1*
D2*
X17922Y32824D1*
D2*
Y32968D1*
D2*
X17893Y33054D1*
D2*
X17865Y33111D1*
D2*
X17807Y33169D1*
D2*
X17721Y33197D1*
D2*
X17520D1*
X18451Y33111D2*
X18423Y33168D1*
D2*
X18337Y33196D1*
D2*
X18279D1*
D2*
X18193Y33168D1*
D2*
X18136Y33082D1*
D2*
X18107Y32938D1*
D2*
Y32795D1*
D2*
X18136Y32680D1*
D2*
X18193Y32623D1*
D2*
X18279Y32594D1*
D2*
X18308D1*
D2*
X18394Y32623D1*
D2*
X18451Y32680D1*
D2*
X18480Y32767D1*
D2*
Y32795D1*
D2*
X18451Y32881D1*
D2*
X18394Y32938D1*
D2*
X18308Y32967D1*
D2*
X18279D1*
D2*
X18193Y32938D1*
D2*
X18136Y32881D1*
D2*
X18107Y32795D1*
X24757Y38295D2*
X24729Y38353D1*
D2*
X24671Y38410D1*
D2*
X24614Y38439D1*
D2*
X24499D1*
D2*
X24441Y38410D1*
D2*
X24384Y38353D1*
D2*
X24355Y38295D1*
D2*
X24327Y38209D1*
D2*
Y38065D1*
D2*
X24355Y37980D1*
D2*
X24384Y37922D1*
D2*
X24441Y37865D1*
D2*
X24499Y37836D1*
D2*
X24614D1*
D2*
X24671Y37865D1*
D2*
X24729Y37922D1*
D2*
X24757Y37980D1*
X24942Y38323D2*
X25000Y38353D1*
D2*
X25086Y38438D1*
D2*
Y37836D1*
X25415Y38438D2*
X25329Y38410D1*
D2*
X25300Y38353D1*
D2*
Y38295D1*
D2*
X25329Y38238D1*
D2*
X25386Y38209D1*
D2*
X25501Y38180D1*
D2*
X25587Y38152D1*
D2*
X25644Y38094D1*
D2*
X25673Y38037D1*
D2*
Y37951D1*
D2*
X25644Y37894D1*
D2*
X25616Y37864D1*
D2*
X25530Y37836D1*
D2*
X25415D1*
D2*
X25329Y37864D1*
D2*
X25300Y37894D1*
D2*
X25272Y37951D1*
D2*
Y38037D1*
D2*
X25300Y38094D1*
D2*
X25358Y38152D1*
D2*
X25443Y38180D1*
D2*
X25558Y38209D1*
D2*
X25616Y38238D1*
D2*
X25644Y38295D1*
D2*
Y38353D1*
D2*
X25616Y38410D1*
D2*
X25530Y38438D1*
D2*
X25415D1*
X19521Y37138D2*
X19493Y37195D1*
D2*
X19435Y37253D1*
D2*
X19378Y37281D1*
D2*
X19263D1*
D2*
X19205Y37253D1*
D2*
X19148Y37195D1*
D2*
X19119Y37138D1*
D2*
X19091Y37052D1*
D2*
Y36908D1*
D2*
X19119Y36822D1*
D2*
X19148Y36765D1*
D2*
X19205Y36708D1*
D2*
X19263Y36678D1*
D2*
X19378D1*
D2*
X19435Y36708D1*
D2*
X19493Y36765D1*
D2*
X19521Y36822D1*
X19706Y37166D2*
X19764Y37195D1*
D2*
X19850Y37281D1*
D2*
Y36678D1*
X20409Y37080D2*
X20380Y36994D1*
D2*
X20323Y36936D1*
D2*
X20237Y36908D1*
D2*
X20208D1*
D2*
X20122Y36936D1*
D2*
X20065Y36994D1*
D2*
X20036Y37080D1*
D2*
Y37109D1*
D2*
X20065Y37195D1*
D2*
X20122Y37252D1*
D2*
X20208Y37281D1*
D2*
X20237D1*
D2*
X20323Y37252D1*
D2*
X20380Y37195D1*
D2*
X20409Y37080D1*
D2*
Y36936D1*
D2*
X20380Y36793D1*
D2*
X20323Y36707D1*
D2*
X20237Y36678D1*
D2*
X20179D1*
D2*
X20093Y36707D1*
D2*
X20065Y36765D1*
X13628Y37138D2*
X13599Y37195D1*
D2*
X13542Y37253D1*
D2*
X13485Y37281D1*
D2*
X13370D1*
D2*
X13312Y37253D1*
D2*
X13255Y37195D1*
D2*
X13226Y37138D1*
D2*
X13197Y37052D1*
D2*
Y36908D1*
D2*
X13226Y36822D1*
D2*
X13255Y36765D1*
D2*
X13312Y36708D1*
D2*
X13370Y36678D1*
D2*
X13485D1*
D2*
X13542Y36708D1*
D2*
X13599Y36765D1*
D2*
X13628Y36822D1*
X13842Y37137D2*
Y37166D1*
D2*
X13871Y37224D1*
D2*
X13899Y37252D1*
D2*
X13957Y37281D1*
D2*
X14072D1*
D2*
X14129Y37252D1*
D2*
X14157Y37224D1*
D2*
X14187Y37166D1*
D2*
Y37109D1*
D2*
X14157Y37051D1*
D2*
X14100Y36966D1*
D2*
X13813Y36678D1*
D2*
X14215D1*
X14573Y37281D2*
X14487Y37252D1*
D2*
X14429Y37166D1*
D2*
X14400Y37023D1*
D2*
Y36936D1*
D2*
X14429Y36793D1*
D2*
X14487Y36707D1*
D2*
X14573Y36678D1*
D2*
X14630D1*
D2*
X14716Y36707D1*
D2*
X14773Y36793D1*
D2*
X14802Y36936D1*
D2*
Y37023D1*
D2*
X14773Y37166D1*
D2*
X14716Y37252D1*
D2*
X14630Y37281D1*
D2*
X14573D1*
X14773Y37166D2*
X14429Y36793D1*
X11757Y37138D2*
X11728Y37195D1*
D2*
X11671Y37253D1*
D2*
X11614Y37281D1*
D2*
X11499D1*
D2*
X11441Y37253D1*
D2*
X11384Y37195D1*
D2*
X11355Y37138D1*
D2*
X11326Y37052D1*
D2*
Y36908D1*
D2*
X11355Y36822D1*
D2*
X11384Y36765D1*
D2*
X11441Y36708D1*
D2*
X11499Y36678D1*
D2*
X11614D1*
D2*
X11671Y36708D1*
D2*
X11728Y36765D1*
D2*
X11757Y36822D1*
X11971Y37137D2*
Y37166D1*
D2*
X12000Y37224D1*
D2*
X12028Y37252D1*
D2*
X12086Y37281D1*
D2*
X12201D1*
D2*
X12258Y37252D1*
D2*
X12286Y37224D1*
D2*
X12316Y37166D1*
D2*
Y37109D1*
D2*
X12286Y37051D1*
D2*
X12229Y36966D1*
D2*
X11942Y36678D1*
D2*
X12344D1*
X12529Y37166D2*
X12587Y37195D1*
D2*
X12673Y37281D1*
D2*
Y36678D1*
X21378Y37138D2*
X21349Y37195D1*
D2*
X21292Y37253D1*
D2*
X21235Y37281D1*
D2*
X21120D1*
D2*
X21062Y37253D1*
D2*
X21005Y37195D1*
D2*
X20976Y37138D1*
D2*
X20947Y37052D1*
D2*
Y36908D1*
D2*
X20976Y36822D1*
D2*
X21005Y36765D1*
D2*
X21062Y36708D1*
D2*
X21120Y36678D1*
D2*
X21235D1*
D2*
X21292Y36708D1*
D2*
X21349Y36765D1*
D2*
X21378Y36822D1*
X21592Y37137D2*
Y37166D1*
D2*
X21621Y37224D1*
D2*
X21649Y37252D1*
D2*
X21707Y37281D1*
D2*
X21822D1*
D2*
X21879Y37252D1*
D2*
X21907Y37224D1*
D2*
X21937Y37166D1*
D2*
Y37109D1*
D2*
X21907Y37051D1*
D2*
X21850Y36966D1*
D2*
X21563Y36678D1*
D2*
X21965D1*
X22179Y37137D2*
Y37166D1*
D2*
X22208Y37224D1*
D2*
X22237Y37252D1*
D2*
X22294Y37281D1*
D2*
X22409D1*
D2*
X22466Y37252D1*
D2*
X22495Y37224D1*
D2*
X22524Y37166D1*
D2*
Y37109D1*
D2*
X22495Y37051D1*
D2*
X22437Y36966D1*
D2*
X22150Y36678D1*
D2*
X22552D1*
X9296Y10216D2*
X9267Y10273D1*
D2*
X9210Y10331D1*
D2*
X9153Y10359D1*
D2*
X9038D1*
D2*
X8980Y10331D1*
D2*
X8923Y10273D1*
D2*
X8894Y10216D1*
D2*
X8865Y10130D1*
D2*
Y9986D1*
D2*
X8894Y9900D1*
D2*
X8923Y9843D1*
D2*
X8980Y9786D1*
D2*
X9038Y9756D1*
D2*
X9153D1*
D2*
X9210Y9786D1*
D2*
X9267Y9843D1*
D2*
X9296Y9900D1*
X9768Y9756D2*
Y10359D1*
D2*
X9481Y9957D1*
D2*
X9911D1*
X11871Y10216D2*
X11842Y10273D1*
D2*
X11784Y10331D1*
D2*
X11727Y10359D1*
D2*
X11613D1*
D2*
X11555Y10331D1*
D2*
X11498Y10273D1*
D2*
X11469Y10216D1*
D2*
X11440Y10130D1*
D2*
Y9986D1*
D2*
X11469Y9900D1*
D2*
X11498Y9843D1*
D2*
X11555Y9786D1*
D2*
X11613Y9756D1*
D2*
X11727D1*
D2*
X11784Y9786D1*
D2*
X11842Y9843D1*
D2*
X11871Y9900D1*
X12056Y10244D2*
X12114Y10273D1*
D2*
X12200Y10359D1*
D2*
Y9756D1*
X12500D2*
X12787Y10359D1*
D2*
X12385D1*
X4067Y11763D2*
X4325D1*
D2*
X4411Y11792D1*
D2*
X4440Y11820D1*
D2*
X4469Y11877D1*
D2*
Y11935D1*
D2*
X4440Y11992D1*
D2*
X4411Y12021D1*
D2*
X4325Y12050D1*
D2*
X4067D1*
D2*
Y11447D1*
X4268Y11763D2*
X4469Y11447D1*
X4712Y12049D2*
X5027D1*
D2*
X4855Y11820D1*
D2*
X4941D1*
D2*
X4998Y11791D1*
D2*
X5027Y11763D1*
D2*
X5056Y11677D1*
D2*
Y11619D1*
D2*
X5027Y11533D1*
D2*
X4970Y11476D1*
D2*
X4884Y11447D1*
D2*
X4798D1*
D2*
X4712Y11476D1*
D2*
X4683Y11505D1*
D2*
X4654Y11562D1*
X4053Y9090D2*
X4311D1*
D2*
X4397Y9119D1*
D2*
X4426Y9148D1*
D2*
X4455Y9205D1*
D2*
Y9262D1*
D2*
X4426Y9319D1*
D2*
X4397Y9349D1*
D2*
X4311Y9377D1*
D2*
X4053D1*
D2*
Y8774D1*
X4254Y9090D2*
X4455Y8774D1*
X4927D2*
Y9376D1*
D2*
X4640Y8975D1*
D2*
X5070D1*
X1862Y8796D2*
Y8193D1*
D2*
X2063D1*
D2*
X2149Y8223D1*
D2*
X2207Y8280D1*
D2*
X2236Y8337D1*
D2*
X2264Y8423D1*
D2*
Y8567D1*
D2*
X2236Y8653D1*
D2*
X2207Y8710D1*
D2*
X2149Y8768D1*
D2*
X2063Y8796D1*
D2*
X1862D1*
X2449Y8681D2*
X2507Y8710D1*
D2*
X2593Y8796D1*
D2*
Y8193D1*
X1733Y12381D2*
Y11778D1*
D2*
X1934D1*
D2*
X2020Y11807D1*
D2*
X2078Y11864D1*
D2*
X2106Y11922D1*
D2*
X2135Y12007D1*
D2*
Y12151D1*
D2*
X2106Y12237D1*
D2*
X2078Y12294D1*
D2*
X2020Y12352D1*
D2*
X1934Y12381D1*
D2*
X1733D1*
X2378Y12380D2*
X2693D1*
D2*
X2521Y12150D1*
D2*
X2607D1*
D2*
X2665Y12122D1*
D2*
X2693Y12093D1*
D2*
X2722Y12007D1*
D2*
Y11950D1*
D2*
X2693Y11864D1*
D2*
X2636Y11806D1*
D2*
X2550Y11778D1*
D2*
X2464D1*
D2*
X2378Y11806D1*
D2*
X2349Y11835D1*
D2*
X2320Y11892D1*
X10725Y37692D2*
X11328D1*
D2*
Y37892D1*
D2*
X11299Y37979D1*
D2*
X11242Y38036D1*
D2*
X11184Y38065D1*
D2*
X11098Y38093D1*
D2*
X10954D1*
D2*
X10868Y38065D1*
D2*
X10811Y38036D1*
D2*
X10753Y37979D1*
D2*
X10725Y37892D1*
D2*
Y37692D1*
X10869Y38308D2*
X10840D1*
D2*
X10783Y38336D1*
D2*
X10754Y38365D1*
D2*
X10726Y38423D1*
D2*
Y38537D1*
D2*
X10754Y38594D1*
D2*
X10783Y38623D1*
D2*
X10840Y38652D1*
D2*
X10897D1*
D2*
X10955Y38623D1*
D2*
X11041Y38566D1*
D2*
X11328Y38279D1*
D2*
Y38681D1*
X9881Y42199D2*
X10139D1*
D2*
X10225Y42228D1*
D2*
X10255Y42257D1*
D2*
X10283Y42314D1*
D2*
Y42371D1*
D2*
X10255Y42428D1*
D2*
X10225Y42457D1*
D2*
X10139Y42486D1*
D2*
X9881D1*
D2*
Y41883D1*
X10082Y42199D2*
X10283Y41883D1*
X10813Y42485D2*
X10526D1*
D2*
X10498Y42227D1*
D2*
X10526Y42256D1*
D2*
X10612Y42285D1*
D2*
X10698D1*
D2*
X10784Y42256D1*
D2*
X10842Y42199D1*
D2*
X10870Y42113D1*
D2*
Y42056D1*
D2*
X10842Y41969D1*
D2*
X10784Y41912D1*
D2*
X10698Y41883D1*
D2*
X10612D1*
D2*
X10526Y41912D1*
D2*
X10498Y41941D1*
D2*
X10468Y41998D1*
X13079Y38513D2*
X13682D1*
D2*
Y38714D1*
D2*
X13653Y38800D1*
D2*
X13596Y38858D1*
D2*
X13538Y38887D1*
D2*
X13453Y38915D1*
D2*
X13309D1*
D2*
X13223Y38887D1*
D2*
X13166Y38858D1*
D2*
X13108Y38800D1*
D2*
X13079Y38714D1*
D2*
Y38513D1*
X13682Y39388D2*
X13080D1*
D2*
X13481Y39100D1*
D2*
Y39531D1*
X23896Y28140D2*
X24154D1*
D2*
X24241Y28169D1*
D2*
X24270Y28197D1*
D2*
X24298Y28254D1*
D2*
Y28312D1*
D2*
X24270Y28369D1*
D2*
X24241Y28398D1*
D2*
X24154Y28427D1*
D2*
X23896D1*
D2*
Y27824D1*
X24097Y28140D2*
X24298Y27824D1*
X24828Y28341D2*
X24799Y28398D1*
D2*
X24713Y28426D1*
D2*
X24656D1*
D2*
X24570Y28398D1*
D2*
X24512Y28311D1*
D2*
X24484Y28168D1*
D2*
Y28025D1*
D2*
X24512Y27910D1*
D2*
X24570Y27852D1*
D2*
X24656Y27824D1*
D2*
X24685D1*
D2*
X24770Y27852D1*
D2*
X24828Y27910D1*
D2*
X24856Y27996D1*
D2*
Y28025D1*
D2*
X24828Y28111D1*
D2*
X24770Y28168D1*
D2*
X24685Y28197D1*
D2*
X24656D1*
D2*
X24570Y28168D1*
D2*
X24512Y28111D1*
D2*
X24484Y28025D1*
X22194Y28140D2*
X22452D1*
D2*
X22538Y28169D1*
D2*
X22568Y28197D1*
D2*
X22596Y28254D1*
D2*
Y28312D1*
D2*
X22568Y28369D1*
D2*
X22538Y28398D1*
D2*
X22452Y28427D1*
D2*
X22194D1*
D2*
Y27824D1*
X22395Y28140D2*
X22596Y27824D1*
X22896D2*
X23183Y28426D1*
D2*
X22781D1*
X25566Y22738D2*
X25537Y22795D1*
D2*
X25479Y22853D1*
D2*
X25422Y22881D1*
D2*
X25308D1*
D2*
X25250Y22853D1*
D2*
X25193Y22795D1*
D2*
X25164Y22738D1*
D2*
X25135Y22652D1*
D2*
Y22508D1*
D2*
X25164Y22423D1*
D2*
X25193Y22365D1*
D2*
X25250Y22308D1*
D2*
X25308Y22279D1*
D2*
X25422D1*
D2*
X25479Y22308D1*
D2*
X25537Y22365D1*
D2*
X25566Y22423D1*
X25751Y22766D2*
X25809Y22795D1*
D2*
X25895Y22881D1*
D2*
Y22279D1*
X18231Y11192D2*
Y10733D1*
D2*
X18202Y10647D1*
D2*
X18173Y10618D1*
D2*
X18116Y10589D1*
D2*
X18058D1*
D2*
X18001Y10618D1*
D2*
X17973Y10647D1*
D2*
X17943Y10733D1*
D2*
Y10790D1*
X18416Y11077D2*
X18474Y11106D1*
D2*
X18560Y11191D1*
D2*
Y10589D1*
X3058Y33927D2*
D112*
X3020Y34003D1*
D2*
X2943Y34080D1*
D2*
X2867Y34118D1*
D2*
X2714D1*
D2*
X2637Y34080D1*
D2*
X2561Y34003D1*
D2*
X2522Y33927D1*
D2*
X2484Y33812D1*
D2*
Y33620D1*
D2*
X2522Y33506D1*
D2*
X2561Y33429D1*
D2*
X2637Y33353D1*
D2*
X2714Y33314D1*
D2*
X2867D1*
D2*
X2943Y33353D1*
D2*
X3020Y33429D1*
D2*
X3058Y33506D1*
D2*
Y33620D1*
D2*
X2867D1*
X3841Y34118D2*
Y33314D1*
D2*
X3305Y34118D1*
D2*
Y33314D1*
X4088Y34118D2*
Y33314D1*
D2*
X4356D1*
D2*
X4471Y33353D1*
D2*
X4548Y33429D1*
D2*
X4586Y33506D1*
D2*
X4624Y33620D1*
D2*
Y33812D1*
D2*
X4586Y33927D1*
D2*
X4548Y34003D1*
D2*
X4471Y34080D1*
D2*
X4356Y34118D1*
D2*
X4088D1*
X3047Y36368D2*
X3353Y35564D1*
D2*
X3659Y36368D1*
X4250Y36310D2*
Y35621D1*
X3906Y35965D2*
X4595D1*
X984Y37985D2*
X1328D1*
D2*
X1443Y38024D1*
D2*
X1482Y38062D1*
D2*
X1520Y38138D1*
D2*
Y38215D1*
D2*
X1482Y38291D1*
D2*
X1443Y38330D1*
D2*
X1328Y38368D1*
D2*
X984D1*
D2*
Y37564D1*
X1252Y37985D2*
X1520Y37564D1*
X2303Y38253D2*
X2227Y38330D1*
D2*
X2112Y38368D1*
D2*
X1959D1*
D2*
X1844Y38330D1*
D2*
X1767Y38253D1*
D2*
Y38177D1*
D2*
X1806Y38100D1*
D2*
X1844Y38062D1*
D2*
X1920Y38024D1*
D2*
X2150Y37947D1*
D2*
X2227Y37909D1*
D2*
X2265Y37870D1*
D2*
X2303Y37794D1*
D2*
Y37679D1*
D2*
X2227Y37603D1*
D2*
X2112Y37564D1*
D2*
X1959D1*
D2*
X1844Y37603D1*
D2*
X1767Y37679D1*
X2550Y37966D2*
X2992D1*
X3239Y37985D2*
X3583D1*
D2*
X3698Y38024D1*
D2*
X3737Y38062D1*
D2*
X3775Y38138D1*
D2*
Y38215D1*
D2*
X3737Y38291D1*
D2*
X3698Y38330D1*
D2*
X3583Y38368D1*
D2*
X3239D1*
D2*
Y37564D1*
X3507Y37985D2*
X3775Y37564D1*
X4022Y38368D2*
X4558Y37564D1*
Y38368D2*
X4022Y37564D1*
X984Y39985D2*
X1328D1*
D2*
X1443Y40024D1*
D2*
X1482Y40062D1*
D2*
X1520Y40138D1*
D2*
Y40215D1*
D2*
X1482Y40291D1*
D2*
X1443Y40330D1*
D2*
X1328Y40368D1*
D2*
X984D1*
D2*
Y39564D1*
X1252Y39985D2*
X1520Y39564D1*
X2303Y40253D2*
X2227Y40330D1*
D2*
X2112Y40368D1*
D2*
X1959D1*
D2*
X1844Y40330D1*
D2*
X1767Y40253D1*
D2*
Y40177D1*
D2*
X1806Y40100D1*
D2*
X1844Y40062D1*
D2*
X1920Y40024D1*
D2*
X2150Y39947D1*
D2*
X2227Y39909D1*
D2*
X2265Y39870D1*
D2*
X2303Y39794D1*
D2*
Y39679D1*
D2*
X2227Y39603D1*
D2*
X2112Y39564D1*
D2*
X1959D1*
D2*
X1844Y39603D1*
D2*
X1767Y39679D1*
X2550Y39966D2*
X2992D1*
X3507Y40368D2*
Y39564D1*
X3239Y40368D2*
X3775D1*
X4022D2*
X4558Y39564D1*
Y40368D2*
X4022Y39564D1*
X2252Y41868D2*
Y41064D1*
X1984Y41868D2*
X2520D1*
X2958Y41600D2*
X2882Y41562D1*
D2*
X2805Y41485D1*
D2*
X2767Y41370D1*
D2*
Y41294D1*
D2*
X2805Y41179D1*
D2*
X2882Y41103D1*
D2*
X2958Y41064D1*
D2*
X3073D1*
D2*
X3150Y41103D1*
D2*
X3226Y41179D1*
D2*
X3265Y41294D1*
D2*
Y41370D1*
D2*
X3226Y41485D1*
D2*
X3150Y41562D1*
D2*
X3073Y41600D1*
D2*
X2958D1*
X4290Y41868D2*
Y41064D1*
X4537Y41600D2*
Y41064D1*
Y41447D2*
X4652Y41562D1*
D2*
X4729Y41600D1*
D2*
X4843D1*
D2*
X4920Y41562D1*
D2*
X4958Y41447D1*
D2*
Y41064D1*
X5320Y41868D2*
Y41217D1*
D2*
X5358Y41103D1*
D2*
X5435Y41064D1*
D2*
X5511D1*
X5205Y41600D2*
X5473D1*
X5796Y41141D2*
X5758Y41102D1*
D2*
X5796Y41064D1*
D2*
X5835Y41102D1*
D2*
X5796Y41141D1*
X6859Y41868D2*
Y41294D1*
D2*
X6897Y41179D1*
D2*
X6974Y41103D1*
D2*
X7089Y41064D1*
D2*
X7165D1*
D2*
X7280Y41103D1*
D2*
X7357Y41179D1*
D2*
X7395Y41294D1*
D2*
Y41868D1*
X7642Y41600D2*
Y41064D1*
Y41447D2*
X7757Y41562D1*
D2*
X7834Y41600D1*
D2*
X7948D1*
D2*
X8025Y41562D1*
D2*
X8063Y41447D1*
D2*
Y41064D1*
X8310Y41868D2*
X8348Y41830D1*
D2*
X8387Y41868D1*
D2*
X8348Y41907D1*
D2*
X8310Y41868D1*
X8348Y41600D2*
Y41064D1*
X8749Y41868D2*
Y41217D1*
D2*
X8787Y41103D1*
D2*
X8864Y41064D1*
D2*
X8940D1*
X8634Y41600D2*
X8902D1*
X11977Y40892D2*
D111*
Y40376D1*
X11719Y40634D2*
X12236D1*
X12477Y36392D2*
Y35876D1*
X12219Y36134D2*
X12736D1*
X14477Y36392D2*
Y35876D1*
X14219Y36134D2*
X14736D1*
X16727Y36392D2*
Y35876D1*
X16469Y36134D2*
X16986D1*
X18790Y33642D2*
Y33125D1*
X18532Y33383D2*
X19048D1*
X20227Y36392D2*
Y35876D1*
X19969Y36134D2*
X20486D1*
X22227Y36392D2*
Y35876D1*
X21969Y36134D2*
X22486D1*
X25477Y34142D2*
Y33626D1*
X25219Y33884D2*
X25736D1*
X25477Y41892D2*
Y41376D1*
X25219Y41634D2*
X25736D1*
X23829Y14478D2*
X23772Y14450D1*
D2*
X23715Y14392D1*
D2*
X23686Y14335D1*
D2*
Y14220D1*
D2*
X23715Y14162D1*
D2*
X23772Y14105D1*
D2*
X23829Y14076D1*
D2*
X23916Y14048D1*
D2*
X24060D1*
D2*
X24145Y14076D1*
D2*
X24203Y14105D1*
D2*
X24260Y14162D1*
D2*
X24289Y14220D1*
D2*
Y14335D1*
D2*
X24260Y14392D1*
D2*
X24203Y14450D1*
D2*
X24145Y14478D1*
D2*
X24060D1*
D2*
Y14335D1*
X23686Y15065D2*
X24289D1*
D2*
X23686Y14663D1*
D2*
X24289D1*
X23686Y15251D2*
X24289D1*
D2*
Y15452D1*
D2*
X24260Y15538D1*
D2*
X24203Y15596D1*
D2*
X24145Y15624D1*
D2*
X24060Y15653D1*
D2*
X23916D1*
D2*
X23829Y15624D1*
D2*
X23772Y15596D1*
D2*
X23715Y15538D1*
D2*
X23686Y15452D1*
D2*
Y15251D1*
X24855Y14181D2*
X25371D1*
X25113Y13923D2*
Y14439D1*
X24812Y14969D2*
Y14682D1*
D2*
X25070Y14654D1*
D2*
X25041Y14682D1*
D2*
X25012Y14769D1*
D2*
Y14854D1*
D2*
X25041Y14940D1*
D2*
X25099Y14998D1*
D2*
X25185Y15027D1*
D2*
X25242D1*
D2*
X25328Y14998D1*
D2*
X25386Y14940D1*
D2*
X25414Y14854D1*
D2*
Y14769D1*
D2*
X25386Y14682D1*
D2*
X25357Y14654D1*
D2*
X25299Y14625D1*
X24811Y15212D2*
X25414Y15441D1*
D2*
X24811Y15671D1*
X25874Y13485D2*
X26477D1*
D2*
Y13686D1*
D2*
X26448Y13772D1*
D2*
X26391Y13830D1*
D2*
X26333Y13859D1*
D2*
X26247Y13887D1*
D2*
X26103D1*
D2*
X26017Y13859D1*
D2*
X25960Y13830D1*
D2*
X25902Y13772D1*
D2*
X25874Y13686D1*
D2*
Y13485D1*
X26477Y14532D2*
X25874Y14302D1*
D2*
X26477Y14072D1*
X26276Y14159D2*
Y14446D1*
X25874Y14918D2*
X26477D1*
X25874Y14717D2*
Y15119D1*
X26477Y15764D2*
X25874Y15534D1*
D2*
X26477Y15304D1*
X26276Y15391D2*
Y15678D1*
X26874Y13610D2*
X27477D1*
D2*
Y13869D1*
D2*
X27448Y13955D1*
D2*
X27419Y13984D1*
D2*
X27362Y14012D1*
D2*
X27276D1*
D2*
X27218Y13984D1*
D2*
X27190Y13955D1*
D2*
X27161Y13869D1*
D2*
X27132Y13955D1*
D2*
X27104Y13984D1*
D2*
X27046Y14012D1*
D2*
X26989D1*
D2*
X26932Y13984D1*
D2*
X26903Y13955D1*
D2*
X26874Y13869D1*
D2*
Y13610D1*
X27161D2*
Y13869D1*
X26874Y14570D2*
Y14197D1*
D2*
X27477D1*
D2*
Y14570D1*
X27161Y14197D2*
Y14427D1*
X26874Y15128D2*
Y14755D1*
D2*
X27477D1*
D2*
Y15128D1*
X27161Y14755D2*
Y14985D1*
X27190Y15313D2*
Y15572D1*
D2*
X27161Y15658D1*
D2*
X27132Y15687D1*
D2*
X27075Y15715D1*
D2*
X26989D1*
D2*
X26932Y15687D1*
D2*
X26903Y15658D1*
D2*
X26874Y15572D1*
D2*
Y15313D1*
D2*
X27477D1*
X26790Y9890D2*
Y9373D1*
X26532Y9631D2*
X27049D1*
X28251Y31072D2*
X28194Y31043D1*
D2*
X28136Y30986D1*
D2*
X28108Y30929D1*
D2*
Y30814D1*
D2*
X28136Y30756D1*
D2*
X28194Y30699D1*
D2*
X28251Y30670D1*
D2*
X28337Y30642D1*
D2*
X28481D1*
D2*
X28566Y30670D1*
D2*
X28624Y30699D1*
D2*
X28681Y30756D1*
D2*
X28710Y30814D1*
D2*
Y30929D1*
D2*
X28681Y30986D1*
D2*
X28624Y31043D1*
D2*
X28566Y31072D1*
D2*
X28481D1*
D2*
Y30929D1*
X28108Y31659D2*
X28710D1*
D2*
X28108Y31257D1*
D2*
X28710D1*
X28108Y31844D2*
X28710D1*
D2*
Y32045D1*
D2*
X28681Y32132D1*
D2*
X28624Y32189D1*
D2*
X28566Y32218D1*
D2*
X28481Y32246D1*
D2*
X28337D1*
D2*
X28251Y32218D1*
D2*
X28194Y32189D1*
D2*
X28136Y32132D1*
D2*
X28108Y32045D1*
D2*
Y31844D1*
X27150Y30900D2*
X27667D1*
X27409Y30642D2*
Y31158D1*
X27107Y31688D2*
Y31401D1*
D2*
X27365Y31373D1*
D2*
X27337Y31401D1*
D2*
X27307Y31488D1*
D2*
Y31573D1*
D2*
X27337Y31659D1*
D2*
X27394Y31717D1*
D2*
X27480Y31746D1*
D2*
X27537D1*
D2*
X27623Y31717D1*
D2*
X27681Y31659D1*
D2*
X27709Y31573D1*
D2*
Y31488D1*
D2*
X27681Y31401D1*
D2*
X27652Y31373D1*
D2*
X27595Y31344D1*
X27107Y31931D2*
X27709Y32160D1*
D2*
X27107Y32390D1*
X26250Y31072D2*
X26193Y31044D1*
D2*
X26136Y30986D1*
D2*
X26107Y30929D1*
D2*
Y30814D1*
D2*
X26136Y30757D1*
D2*
X26193Y30699D1*
D2*
X26250Y30670D1*
D2*
X26337Y30642D1*
D2*
X26481D1*
D2*
X26566Y30670D1*
D2*
X26624Y30699D1*
D2*
X26681Y30757D1*
D2*
X26710Y30814D1*
D2*
Y30929D1*
D2*
X26681Y30986D1*
D2*
X26624Y31044D1*
D2*
X26566Y31072D1*
X26308Y31401D2*
X26337Y31344D1*
D2*
X26394Y31286D1*
D2*
X26481Y31257D1*
D2*
X26538D1*
D2*
X26624Y31286D1*
D2*
X26681Y31344D1*
D2*
X26710Y31401D1*
D2*
Y31487D1*
D2*
X26681Y31545D1*
D2*
X26624Y31602D1*
D2*
X26538Y31631D1*
D2*
X26481D1*
D2*
X26394Y31602D1*
D2*
X26337Y31545D1*
D2*
X26308Y31487D1*
D2*
Y31401D1*
Y31816D2*
X26710D1*
X26423D2*
X26337Y31902D1*
D2*
X26308Y31960D1*
D2*
Y32046D1*
D2*
X26337Y32103D1*
D2*
X26423Y32132D1*
D2*
X26710D1*
X26107Y32403D2*
X26595D1*
D2*
X26681Y32432D1*
D2*
X26710Y32490D1*
D2*
Y32547D1*
X26308Y32317D2*
Y32518D1*
Y32732D2*
X26710D1*
X26481D2*
X26394Y32761D1*
D2*
X26337Y32818D1*
D2*
X26308Y32876D1*
D2*
Y32962D1*
Y33492D2*
X26710D1*
X26394D2*
X26337Y33434D1*
D2*
X26308Y33377D1*
D2*
Y33291D1*
D2*
X26337Y33234D1*
D2*
X26394Y33176D1*
D2*
X26481Y33147D1*
D2*
X26538D1*
D2*
X26624Y33176D1*
D2*
X26681Y33234D1*
D2*
X26710Y33291D1*
D2*
Y33377D1*
D2*
X26681Y33434D1*
D2*
X26624Y33492D1*
X26394Y33992D2*
X26337Y33964D1*
D2*
X26308Y33878D1*
D2*
Y33792D1*
D2*
X26337Y33705D1*
D2*
X26394Y33677D1*
D2*
X26451Y33705D1*
D2*
X26481Y33763D1*
D2*
X26509Y33906D1*
D2*
X26538Y33964D1*
D2*
X26595Y33992D1*
D2*
X26624D1*
D2*
X26681Y33964D1*
D2*
X26710Y33878D1*
D2*
Y33792D1*
D2*
X26681Y33705D1*
D2*
X26624Y33677D1*
X26107Y34264D2*
X26595D1*
D2*
X26681Y34292D1*
D2*
X26710Y34350D1*
D2*
Y34407D1*
X26308Y34178D2*
Y34379D1*
X25393Y30642D2*
Y30900D1*
D2*
X25364Y30986D1*
D2*
X25336Y31015D1*
D2*
X25279Y31044D1*
D2*
X25221D1*
D2*
X25164Y31015D1*
D2*
X25135Y30986D1*
D2*
X25106Y30900D1*
D2*
Y30642D1*
D2*
X25709D1*
X25393Y30843D2*
X25709Y31044D1*
X25192Y31631D2*
X25135Y31574D1*
D2*
X25106Y31488D1*
D2*
Y31373D1*
D2*
X25135Y31287D1*
D2*
X25192Y31229D1*
D2*
X25249D1*
D2*
X25307Y31258D1*
D2*
X25336Y31287D1*
D2*
X25364Y31344D1*
D2*
X25422Y31516D1*
D2*
X25450Y31574D1*
D2*
X25480Y31602D1*
D2*
X25537Y31631D1*
D2*
X25623D1*
D2*
X25680Y31574D1*
D2*
X25709Y31488D1*
D2*
Y31373D1*
D2*
X25680Y31287D1*
D2*
X25623Y31229D1*
X24394Y30642D2*
Y30900D1*
D2*
X24365Y30986D1*
D2*
X24336Y31015D1*
D2*
X24279Y31044D1*
D2*
X24221D1*
D2*
X24164Y31015D1*
D2*
X24135Y30986D1*
D2*
X24107Y30900D1*
D2*
Y30642D1*
D2*
X24710D1*
X24394Y30843D2*
X24710Y31044D1*
Y31229D2*
X24107Y31631D1*
Y31816D2*
X24710Y31960D1*
D2*
X24107Y32103D1*
D2*
X24710Y32247D1*
D2*
X24107Y32391D1*
X23107Y31014D2*
Y30642D1*
D2*
X23710D1*
D2*
Y31014D1*
X23395Y30642D2*
Y30871D1*
X23308Y31200D2*
X23710D1*
X23423D2*
X23337Y31286D1*
D2*
X23308Y31344D1*
D2*
Y31429D1*
D2*
X23337Y31487D1*
D2*
X23423Y31515D1*
D2*
X23710D1*
X23308Y32045D2*
X23710D1*
X23395D2*
X23337Y31988D1*
D2*
X23308Y31930D1*
D2*
Y31845D1*
D2*
X23337Y31787D1*
D2*
X23395Y31730D1*
D2*
X23481Y31701D1*
D2*
X23538D1*
D2*
X23624Y31730D1*
D2*
X23681Y31787D1*
D2*
X23710Y31845D1*
D2*
Y31930D1*
D2*
X23681Y31988D1*
D2*
X23624Y32045D1*
X23107Y32230D2*
X23710D1*
X23395D2*
X23337Y32288D1*
D2*
X23308Y32345D1*
D2*
Y32431D1*
D2*
X23337Y32488D1*
D2*
X23395Y32546D1*
D2*
X23481Y32574D1*
D2*
X23538D1*
D2*
X23624Y32546D1*
D2*
X23681Y32488D1*
D2*
X23710Y32431D1*
D2*
Y32345D1*
D2*
X23681Y32288D1*
D2*
X23624Y32230D1*
X23107Y32760D2*
X23710D1*
X23481Y32945D2*
Y33289D1*
D2*
X23423D1*
D2*
X23365Y33261D1*
D2*
X23337Y33232D1*
D2*
X23308Y33174D1*
D2*
Y33088D1*
D2*
X23337Y33031D1*
D2*
X23395Y32973D1*
D2*
X23481Y32945D1*
D2*
X23538D1*
D2*
X23624Y32973D1*
D2*
X23681Y33031D1*
D2*
X23710Y33088D1*
D2*
Y33174D1*
D2*
X23681Y33232D1*
D2*
X23624Y33289D1*
X22106Y30642D2*
X22709D1*
D2*
Y30843D1*
D2*
X22680Y30929D1*
D2*
X22623Y30987D1*
D2*
X22565Y31015D1*
D2*
X22480Y31044D1*
D2*
X22336D1*
D2*
X22250Y31015D1*
D2*
X22193Y30987D1*
D2*
X22135Y30929D1*
D2*
X22106Y30843D1*
D2*
Y30642D1*
X22107Y31401D2*
X22136Y31315D1*
D2*
X22222Y31258D1*
D2*
X22365Y31229D1*
D2*
X22451D1*
D2*
X22595Y31258D1*
D2*
X22681Y31315D1*
D2*
X22709Y31401D1*
D2*
Y31459D1*
D2*
X22681Y31545D1*
D2*
X22595Y31602D1*
D2*
X22451Y31631D1*
D2*
X22365D1*
D2*
X22222Y31602D1*
D2*
X22136Y31545D1*
D2*
X22107Y31459D1*
D2*
Y31401D1*
X22222Y31602D2*
X22595Y31258D1*
X21107Y30642D2*
X21710D1*
D2*
Y30843D1*
D2*
X21681Y30929D1*
D2*
X21624Y30987D1*
D2*
X21566Y31015D1*
D2*
X21480Y31044D1*
D2*
X21336D1*
D2*
X21250Y31015D1*
D2*
X21193Y30987D1*
D2*
X21136Y30929D1*
D2*
X21107Y30843D1*
D2*
Y30642D1*
X21222Y31229D2*
X21193Y31287D1*
D2*
X21108Y31373D1*
D2*
X21710D1*
X20106Y30642D2*
X20709D1*
D2*
Y30843D1*
D2*
X20680Y30929D1*
D2*
X20623Y30987D1*
D2*
X20565Y31015D1*
D2*
X20479Y31044D1*
D2*
X20335D1*
D2*
X20249Y31015D1*
D2*
X20192Y30987D1*
D2*
X20135Y30929D1*
D2*
X20106Y30843D1*
D2*
Y30642D1*
X20250Y31258D2*
X20221D1*
D2*
X20164Y31287D1*
D2*
X20135Y31315D1*
D2*
X20107Y31373D1*
D2*
Y31488D1*
D2*
X20135Y31545D1*
D2*
X20164Y31573D1*
D2*
X20221Y31602D1*
D2*
X20278D1*
D2*
X20336Y31573D1*
D2*
X20422Y31516D1*
D2*
X20709Y31229D1*
D2*
Y31631D1*
X19107Y30642D2*
X19710D1*
D2*
Y30843D1*
D2*
X19680Y30929D1*
D2*
X19623Y30987D1*
D2*
X19566Y31015D1*
D2*
X19480Y31044D1*
D2*
X19336D1*
D2*
X19250Y31015D1*
D2*
X19193Y30987D1*
D2*
X19135Y30929D1*
D2*
X19107Y30843D1*
D2*
Y30642D1*
Y31287D2*
Y31602D1*
D2*
X19337Y31430D1*
D2*
Y31516D1*
D2*
X19365Y31573D1*
D2*
X19394Y31602D1*
D2*
X19480Y31631D1*
D2*
X19537D1*
D2*
X19623Y31602D1*
D2*
X19681Y31545D1*
D2*
X19710Y31459D1*
D2*
Y31372D1*
D2*
X19681Y31287D1*
D2*
X19652Y31258D1*
D2*
X19595Y31229D1*
X18107Y30642D2*
X18710D1*
D2*
Y30843D1*
D2*
X18681Y30929D1*
D2*
X18624Y30987D1*
D2*
X18566Y31015D1*
D2*
X18481Y31044D1*
D2*
X18337D1*
D2*
X18251Y31015D1*
D2*
X18193Y30987D1*
D2*
X18136Y30929D1*
D2*
X18107Y30843D1*
D2*
Y30642D1*
X18710Y31516D2*
X18108D1*
D2*
X18509Y31229D1*
D2*
Y31659D1*
X17106Y30642D2*
X17709D1*
D2*
Y30843D1*
D2*
X17680Y30929D1*
D2*
X17623Y30987D1*
D2*
X17565Y31015D1*
D2*
X17480Y31044D1*
D2*
X17336D1*
D2*
X17250Y31015D1*
D2*
X17192Y30987D1*
D2*
X17135Y30929D1*
D2*
X17106Y30843D1*
D2*
Y30642D1*
X17107Y31573D2*
Y31287D1*
D2*
X17365Y31258D1*
D2*
X17336Y31287D1*
D2*
X17307Y31373D1*
D2*
Y31459D1*
D2*
X17336Y31545D1*
D2*
X17393Y31602D1*
D2*
X17480Y31631D1*
D2*
X17537D1*
D2*
X17623Y31602D1*
D2*
X17681Y31545D1*
D2*
X17709Y31459D1*
D2*
Y31373D1*
D2*
X17681Y31287D1*
D2*
X17651Y31258D1*
D2*
X17594Y31229D1*
X16107Y30641D2*
X16710D1*
D2*
Y30842D1*
D2*
X16681Y30929D1*
D2*
X16624Y30986D1*
D2*
X16566Y31015D1*
D2*
X16480Y31043D1*
D2*
X16336D1*
D2*
X16250Y31015D1*
D2*
X16193Y30986D1*
D2*
X16135Y30929D1*
D2*
X16107Y30842D1*
D2*
Y30641D1*
X16193Y31573D2*
X16136Y31544D1*
D2*
X16108Y31458D1*
D2*
Y31401D1*
D2*
X16136Y31315D1*
D2*
X16222Y31257D1*
D2*
X16366Y31229D1*
D2*
X16509D1*
D2*
X16624Y31257D1*
D2*
X16681Y31315D1*
D2*
X16710Y31401D1*
D2*
Y31430D1*
D2*
X16681Y31515D1*
D2*
X16624Y31573D1*
D2*
X16537Y31601D1*
D2*
X16509D1*
D2*
X16423Y31573D1*
D2*
X16366Y31515D1*
D2*
X16337Y31430D1*
D2*
Y31401D1*
D2*
X16366Y31315D1*
D2*
X16423Y31257D1*
D2*
X16509Y31229D1*
X15108Y30642D2*
X15710D1*
D2*
Y30843D1*
D2*
X15681Y30929D1*
D2*
X15624Y30987D1*
D2*
X15566Y31015D1*
D2*
X15481Y31044D1*
D2*
X15337D1*
D2*
X15251Y31015D1*
D2*
X15194Y30987D1*
D2*
X15136Y30929D1*
D2*
X15108Y30843D1*
D2*
Y30642D1*
X15710Y31344D2*
X15108Y31631D1*
D2*
Y31229D1*
X14107Y30642D2*
X14709D1*
D2*
Y30900D1*
D2*
X14680Y30986D1*
D2*
X14652Y31015D1*
D2*
X14595Y31044D1*
D2*
X14508D1*
D2*
X14451Y31015D1*
D2*
X14422Y30986D1*
D2*
X14394Y30900D1*
D2*
X14365Y30986D1*
D2*
X14336Y31015D1*
D2*
X14279Y31044D1*
D2*
X14221D1*
D2*
X14164Y31015D1*
D2*
X14135Y30986D1*
D2*
X14107Y30900D1*
D2*
Y30642D1*
X14394D2*
Y30900D1*
X14107Y31229D2*
X14709D1*
X14307Y31516D2*
X14595Y31229D1*
X14480Y31344D2*
X14709Y31544D1*
X14107Y31730D2*
X14709D1*
D2*
Y32074D1*
X14107Y32345D2*
X14595D1*
D2*
X14680Y32374D1*
D2*
X14709Y32432D1*
D2*
Y32489D1*
X14307Y32259D2*
Y32460D1*
X14150Y32932D2*
X14667D1*
X14409Y32674D2*
Y33191D1*
X13107Y30642D2*
X13710D1*
D2*
Y30901D1*
D2*
X13681Y30987D1*
D2*
X13652Y31015D1*
D2*
X13595Y31044D1*
D2*
X13509D1*
D2*
X13451Y31015D1*
D2*
X13423Y30987D1*
D2*
X13394Y30901D1*
D2*
X13365Y30987D1*
D2*
X13337Y31015D1*
D2*
X13280Y31044D1*
D2*
X13222D1*
D2*
X13165Y31015D1*
D2*
X13136Y30987D1*
D2*
X13107Y30901D1*
D2*
Y30642D1*
X13394D2*
Y30901D1*
X13107Y31229D2*
X13710D1*
X13308Y31516D2*
X13595Y31229D1*
X13481Y31344D2*
X13710Y31545D1*
X13107Y31730D2*
X13710D1*
D2*
Y32074D1*
X13107Y32346D2*
X13595D1*
D2*
X13681Y32374D1*
D2*
X13710Y32432D1*
D2*
Y32489D1*
X13308Y32260D2*
Y32460D1*
X13409Y32674D2*
Y33006D1*
X28223Y28641D2*
X28194Y28699D1*
D2*
X28108Y28785D1*
D2*
X28710D1*
X13223Y28142D2*
X13193Y28200D1*
D2*
X13108Y28286D1*
D2*
X13710D1*
X13193Y28815D2*
X13136Y28787D1*
D2*
X13108Y28701D1*
D2*
Y28643D1*
D2*
X13136Y28557D1*
D2*
X13223Y28500D1*
D2*
X13366Y28471D1*
D2*
X13509D1*
D2*
X13624Y28500D1*
D2*
X13681Y28557D1*
D2*
X13710Y28643D1*
D2*
Y28672D1*
D2*
X13681Y28758D1*
D2*
X13624Y28815D1*
D2*
X13538Y28844D1*
D2*
X13509D1*
D2*
X13423Y28815D1*
D2*
X13366Y28758D1*
D2*
X13337Y28672D1*
D2*
Y28643D1*
D2*
X13366Y28557D1*
D2*
X13423Y28500D1*
D2*
X13509Y28471D1*
X20378Y28895D2*
Y28292D1*
D2*
X20722D1*
X21338Y28752D2*
X21309Y28809D1*
D2*
X21252Y28867D1*
D2*
X21194Y28895D1*
D2*
X21080D1*
D2*
X21022Y28867D1*
D2*
X20965Y28809D1*
D2*
X20936Y28752D1*
D2*
X20907Y28666D1*
D2*
Y28522D1*
D2*
X20936Y28436D1*
D2*
X20965Y28378D1*
D2*
X21022Y28321D1*
D2*
X21080Y28292D1*
D2*
X21194D1*
D2*
X21252Y28321D1*
D2*
X21309Y28378D1*
D2*
X21338Y28436D1*
X21523Y28895D2*
Y28292D1*
D2*
X21724D1*
D2*
X21810Y28321D1*
D2*
X21868Y28378D1*
D2*
X21896Y28436D1*
D2*
X21925Y28522D1*
D2*
Y28666D1*
D2*
X21896Y28752D1*
D2*
X21868Y28809D1*
D2*
X21810Y28867D1*
D2*
X21724Y28895D1*
D2*
X21523D1*
X13342Y3225D2*
X13399Y3254D1*
D2*
X13456Y3312D1*
D2*
X13485Y3369D1*
D2*
Y3483D1*
D2*
X13456Y3541D1*
D2*
X13399Y3598D1*
D2*
X13342Y3627D1*
D2*
X13255Y3656D1*
D2*
X13112D1*
D2*
X13026Y3627D1*
D2*
X12968Y3598D1*
D2*
X12911Y3541D1*
D2*
X12882Y3483D1*
D2*
Y3369D1*
D2*
X12911Y3312D1*
D2*
X12968Y3254D1*
D2*
X13026Y3225D1*
X13284Y2897D2*
X13255Y2954D1*
D2*
X13198Y3012D1*
D2*
X13112Y3040D1*
D2*
X13055D1*
D2*
X12968Y3012D1*
D2*
X12911Y2954D1*
D2*
X12882Y2897D1*
D2*
Y2811D1*
D2*
X12911Y2753D1*
D2*
X12968Y2696D1*
D2*
X13055Y2667D1*
D2*
X13112D1*
D2*
X13198Y2696D1*
D2*
X13255Y2753D1*
D2*
X13284Y2811D1*
D2*
Y2897D1*
X13485Y2482D2*
X12882D1*
X13341Y2267D2*
X13370D1*
D2*
X13427Y2239D1*
D2*
X13456Y2210D1*
D2*
X13484Y2152D1*
D2*
Y2038D1*
D2*
X13456Y1981D1*
D2*
X13427Y1952D1*
D2*
X13370Y1923D1*
D2*
X13313D1*
D2*
X13255Y1952D1*
D2*
X13169Y2009D1*
D2*
X12882Y2296D1*
D2*
Y1894D1*
X11342Y2976D2*
X11399Y3004D1*
D2*
X11456Y3062D1*
D2*
X11485Y3119D1*
D2*
Y3234D1*
D2*
X11456Y3291D1*
D2*
X11399Y3348D1*
D2*
X11342Y3378D1*
D2*
X11255Y3406D1*
D2*
X11111D1*
D2*
X11026Y3378D1*
D2*
X10968Y3348D1*
D2*
X10911Y3291D1*
D2*
X10882Y3234D1*
D2*
Y3119D1*
D2*
X10911Y3062D1*
D2*
X10968Y3004D1*
D2*
X11026Y2976D1*
X11284Y2647D2*
X11255Y2704D1*
D2*
X11198Y2762D1*
D2*
X11111Y2790D1*
D2*
X11054D1*
D2*
X10968Y2762D1*
D2*
X10911Y2704D1*
D2*
X10882Y2647D1*
D2*
Y2561D1*
D2*
X10911Y2503D1*
D2*
X10968Y2446D1*
D2*
X11054Y2417D1*
D2*
X11111D1*
D2*
X11198Y2446D1*
D2*
X11255Y2503D1*
D2*
X11284Y2561D1*
D2*
Y2647D1*
X11485Y2232D2*
X10882D1*
X11369Y2046D2*
X11399Y1989D1*
D2*
X11484Y1903D1*
D2*
X10882D1*
X9342Y3225D2*
X9399Y3254D1*
D2*
X9457Y3312D1*
D2*
X9486Y3369D1*
D2*
Y3483D1*
D2*
X9457Y3541D1*
D2*
X9399Y3598D1*
D2*
X9342Y3627D1*
D2*
X9256Y3656D1*
D2*
X9112D1*
D2*
X9027Y3627D1*
D2*
X8969Y3598D1*
D2*
X8912Y3541D1*
D2*
X8883Y3483D1*
D2*
Y3369D1*
D2*
X8912Y3312D1*
D2*
X8969Y3254D1*
D2*
X9027Y3225D1*
X9285Y2897D2*
X9256Y2954D1*
D2*
X9198Y3012D1*
D2*
X9112Y3040D1*
D2*
X9055D1*
D2*
X8969Y3012D1*
D2*
X8912Y2954D1*
D2*
X8883Y2897D1*
D2*
Y2811D1*
D2*
X8912Y2753D1*
D2*
X8969Y2696D1*
D2*
X9055Y2667D1*
D2*
X9112D1*
D2*
X9198Y2696D1*
D2*
X9256Y2753D1*
D2*
X9285Y2811D1*
D2*
Y2897D1*
X9486Y2482D2*
X8883D1*
X9485Y2239D2*
Y1924D1*
D2*
X9255Y2095D1*
D2*
Y2009D1*
D2*
X9227Y1952D1*
D2*
X9198Y1924D1*
D2*
X9112Y1894D1*
D2*
X9055D1*
D2*
X8969Y1924D1*
D2*
X8911Y1981D1*
D2*
X8883Y2067D1*
D2*
Y2153D1*
D2*
X8911Y2239D1*
D2*
X8940Y2267D1*
D2*
X8997Y2296D1*
X12197Y3781D2*
Y3523D1*
D2*
X12226Y3437D1*
D2*
X12255Y3407D1*
D2*
X12312Y3379D1*
D2*
X12370D1*
D2*
X12427Y3407D1*
D2*
X12456Y3437D1*
D2*
X12484Y3523D1*
D2*
Y3781D1*
D2*
X11882D1*
X12197Y3580D2*
X11882Y3379D1*
X12283Y3050D2*
X12255Y3107D1*
D2*
X12197Y3165D1*
D2*
X12111Y3194D1*
D2*
X12054D1*
D2*
X11968Y3165D1*
D2*
X11911Y3107D1*
D2*
X11882Y3050D1*
D2*
Y2964D1*
D2*
X11911Y2906D1*
D2*
X11968Y2849D1*
D2*
X12054Y2820D1*
D2*
X12111D1*
D2*
X12197Y2849D1*
D2*
X12255Y2906D1*
D2*
X12283Y2964D1*
D2*
Y3050D1*
Y2635D2*
X11882Y2520D1*
D2*
X12283Y2405D1*
D2*
X11882Y2291D1*
D2*
X12283Y2176D1*
X12369Y1991D2*
X12398Y1933D1*
D2*
X12484Y1847D1*
D2*
X11882D1*
X7197Y4031D2*
Y3773D1*
D2*
X7227Y3687D1*
D2*
X7255Y3658D1*
D2*
X7312Y3629D1*
D2*
X7370D1*
D2*
X7427Y3658D1*
D2*
X7456Y3687D1*
D2*
X7485Y3773D1*
D2*
Y4031D1*
D2*
X6882D1*
X7197Y3830D2*
X6882Y3629D1*
X7284Y3300D2*
X7255Y3358D1*
D2*
X7197Y3415D1*
D2*
X7111Y3444D1*
D2*
X7054D1*
D2*
X6968Y3415D1*
D2*
X6911Y3358D1*
D2*
X6882Y3300D1*
D2*
Y3214D1*
D2*
X6911Y3157D1*
D2*
X6968Y3100D1*
D2*
X7054Y3070D1*
D2*
X7111D1*
D2*
X7197Y3100D1*
D2*
X7255Y3157D1*
D2*
X7284Y3214D1*
D2*
Y3300D1*
Y2885D2*
X6882Y2770D1*
D2*
X7284Y2656D1*
D2*
X6882Y2541D1*
D2*
X7284Y2426D1*
X7341Y2212D2*
X7369D1*
D2*
X7427Y2183D1*
D2*
X7455Y2155D1*
D2*
X7484Y2097D1*
D2*
Y1982D1*
D2*
X7455Y1925D1*
D2*
X7427Y1897D1*
D2*
X7369Y1867D1*
D2*
X7312D1*
D2*
X7254Y1897D1*
D2*
X7169Y1954D1*
D2*
X6882Y2241D1*
D2*
Y1839D1*
X8198Y4031D2*
Y3773D1*
D2*
X8227Y3687D1*
D2*
X8256Y3658D1*
D2*
X8313Y3629D1*
D2*
X8370D1*
D2*
X8427Y3658D1*
D2*
X8457Y3687D1*
D2*
X8485Y3773D1*
D2*
Y4031D1*
D2*
X7882D1*
X8198Y3830D2*
X7882Y3629D1*
X8284Y3300D2*
X8256Y3358D1*
D2*
X8198Y3415D1*
D2*
X8112Y3444D1*
D2*
X8055D1*
D2*
X7968Y3415D1*
D2*
X7911Y3358D1*
D2*
X7882Y3300D1*
D2*
Y3214D1*
D2*
X7911Y3157D1*
D2*
X7968Y3100D1*
D2*
X8055Y3070D1*
D2*
X8112D1*
D2*
X8198Y3100D1*
D2*
X8256Y3157D1*
D2*
X8284Y3214D1*
D2*
Y3300D1*
Y2885D2*
X7882Y2770D1*
D2*
X8284Y2656D1*
D2*
X7882Y2541D1*
D2*
X8284Y2426D1*
X8399Y1897D2*
X8456Y1925D1*
D2*
X8484Y2011D1*
D2*
Y2068D1*
D2*
X8456Y2155D1*
D2*
X8370Y2212D1*
D2*
X8226Y2241D1*
D2*
X8083D1*
D2*
X7968Y2212D1*
D2*
X7911Y2155D1*
D2*
X7882Y2068D1*
D2*
Y2040D1*
D2*
X7911Y1954D1*
D2*
X7968Y1897D1*
D2*
X8055Y1868D1*
D2*
X8083D1*
D2*
X8169Y1897D1*
D2*
X8226Y1954D1*
D2*
X8255Y2040D1*
D2*
Y2068D1*
D2*
X8226Y2155D1*
D2*
X8169Y2212D1*
D2*
X8083Y2241D1*
X10197Y4031D2*
Y3773D1*
D2*
X10226Y3687D1*
D2*
X10255Y3658D1*
D2*
X10312Y3629D1*
D2*
X10370D1*
D2*
X10427Y3658D1*
D2*
X10456Y3687D1*
D2*
X10484Y3773D1*
D2*
Y4031D1*
D2*
X9881D1*
X10197Y3830D2*
X9881Y3629D1*
X10283Y3300D2*
X10255Y3358D1*
D2*
X10197Y3415D1*
D2*
X10111Y3444D1*
D2*
X10054D1*
D2*
X9968Y3415D1*
D2*
X9911Y3358D1*
D2*
X9881Y3300D1*
D2*
Y3214D1*
D2*
X9911Y3157D1*
D2*
X9968Y3100D1*
D2*
X10054Y3070D1*
D2*
X10111D1*
D2*
X10197Y3100D1*
D2*
X10255Y3157D1*
D2*
X10283Y3214D1*
D2*
Y3300D1*
Y2885D2*
X9881Y2770D1*
D2*
X10283Y2656D1*
D2*
X9881Y2541D1*
D2*
X10283Y2426D1*
X9881Y1954D2*
X10484D1*
D2*
X10082Y2241D1*
D2*
Y1810D1*
X14627Y3194D2*
X14685Y3223D1*
D2*
X14771Y3308D1*
D2*
Y2706D1*
X2342Y18245D2*
Y17642D1*
D2*
X2543D1*
D2*
X2629Y17671D1*
D2*
X2687Y17729D1*
D2*
X2715Y17786D1*
D2*
X2744Y17872D1*
D2*
Y18016D1*
D2*
X2715Y18102D1*
D2*
X2687Y18159D1*
D2*
X2629Y18217D1*
D2*
X2543Y18245D1*
D2*
X2342D1*
X3130D2*
Y17642D1*
X2929Y18245D2*
X3331D1*
X3516Y17958D2*
X3774D1*
D2*
X3861Y17987D1*
D2*
X3890Y18016D1*
D2*
X3918Y18073D1*
D2*
Y18130D1*
D2*
X3890Y18187D1*
D2*
X3861Y18217D1*
D2*
X3774Y18245D1*
D2*
X3516D1*
D2*
Y17642D1*
X3717Y17958D2*
X3918Y17642D1*
X2543Y17245D2*
Y16642D1*
X2342Y17245D2*
X2744D1*
X2929D2*
X3331Y16642D1*
Y17245D2*
X2929Y16642D1*
X3516Y16944D2*
X3848D1*
X4206Y17245D2*
X4148Y17217D1*
D2*
X4091Y17159D1*
D2*
X4062Y17102D1*
D2*
X4033Y17016D1*
D2*
Y16872D1*
D2*
X4062Y16786D1*
D2*
X4091Y16729D1*
D2*
X4148Y16672D1*
D2*
X4206Y16642D1*
D2*
X4320D1*
D2*
X4377Y16672D1*
D2*
X4435Y16729D1*
D2*
X4464Y16786D1*
D2*
X4492Y16872D1*
D2*
Y17016D1*
D2*
X4464Y17102D1*
D2*
X4435Y17159D1*
D2*
X4377Y17217D1*
D2*
X4320Y17245D1*
D2*
X4206D1*
X2342Y15958D2*
X2600D1*
D2*
X2686Y15987D1*
D2*
X2715Y16016D1*
D2*
X2744Y16073D1*
D2*
Y16131D1*
D2*
X2715Y16188D1*
D2*
X2686Y16217D1*
D2*
X2600Y16245D1*
D2*
X2342D1*
D2*
Y15642D1*
X2543Y15958D2*
X2744Y15642D1*
X2929Y16245D2*
X3331Y15642D1*
Y16245D2*
X2929Y15642D1*
X3516Y15944D2*
X3848D1*
X4033Y16245D2*
Y15642D1*
X2686Y15245D2*
X2400D1*
D2*
X2371Y14987D1*
D2*
X2400Y15015D1*
D2*
X2486Y15044D1*
D2*
X2571D1*
D2*
X2658Y15015D1*
D2*
X2715Y14958D1*
D2*
X2744Y14872D1*
D2*
Y14815D1*
D2*
X2715Y14729D1*
D2*
X2658Y14671D1*
D2*
X2571Y14643D1*
D2*
X2486D1*
D2*
X2400Y14671D1*
D2*
X2371Y14700D1*
D2*
X2342Y14757D1*
X2929Y15245D2*
X3159Y14643D1*
D2*
X3388Y15245D1*
X2772Y14102D2*
X2744Y14159D1*
D2*
X2686Y14216D1*
D2*
X2629Y14245D1*
D2*
X2514D1*
D2*
X2457Y14216D1*
D2*
X2400Y14159D1*
D2*
X2371Y14102D1*
D2*
X2342Y14015D1*
D2*
Y13872D1*
D2*
X2371Y13786D1*
D2*
X2400Y13728D1*
D2*
X2457Y13671D1*
D2*
X2514Y13642D1*
D2*
X2629D1*
D2*
X2686Y13671D1*
D2*
X2744Y13728D1*
D2*
X2772Y13786D1*
X3159Y14245D2*
Y13642D1*
X2958Y14245D2*
X3360D1*
X3947Y14159D2*
X3890Y14216D1*
D2*
X3804Y14245D1*
D2*
X3689D1*
D2*
X3603Y14216D1*
D2*
X3545Y14159D1*
D2*
Y14102D1*
D2*
X3574Y14044D1*
D2*
X3603Y14015D1*
D2*
X3660Y13987D1*
D2*
X3832Y13929D1*
D2*
X3890Y13901D1*
D2*
X3918Y13872D1*
D2*
X3947Y13814D1*
D2*
Y13728D1*
D2*
X3890Y13671D1*
D2*
X3804Y13642D1*
D2*
X3689D1*
D2*
X3603Y13671D1*
D2*
X3545Y13728D1*
X2772Y13102D2*
X2744Y13159D1*
D2*
X2686Y13217D1*
D2*
X2629Y13245D1*
D2*
X2514D1*
D2*
X2457Y13217D1*
D2*
X2400Y13159D1*
D2*
X2371Y13102D1*
D2*
X2342Y13016D1*
D2*
Y12872D1*
D2*
X2371Y12786D1*
D2*
X2400Y12728D1*
D2*
X2457Y12671D1*
D2*
X2514Y12642D1*
D2*
X2629D1*
D2*
X2686Y12671D1*
D2*
X2744Y12728D1*
D2*
X2772Y12786D1*
D2*
Y12872D1*
D2*
X2629D1*
X3360Y13245D2*
Y12642D1*
D2*
X2958Y13245D1*
D2*
Y12642D1*
X3545Y13245D2*
Y12642D1*
D2*
X3746D1*
D2*
X3832Y12671D1*
D2*
X3890Y12728D1*
D2*
X3918Y12786D1*
D2*
X3947Y12872D1*
D2*
Y13016D1*
D2*
X3918Y13102D1*
D2*
X3890Y13159D1*
D2*
X3832Y13217D1*
D2*
X3746Y13245D1*
D2*
X3545D1*
X543Y18137D2*
X573Y18079D1*
D2*
X658Y17993D1*
D2*
X56D1*
M02*
