  0
SECTION
  2
HEADER
  9
$ACADVER
  1
AC1009
  9
$ANGDIR
  70
0
  9
$CECOLOR
  62
256
  9
$CELTYPE
  6
BYLAYER
  9
$EXTMIN
  10
-0.0005
  20
0.0
  9
$EXTMAX
  10
79.9995
  20
110.0
  9
$FILLMODE
  70
1
  9
$MIRRTEXT
  70
0
  0
ENDSEC
  0
SECTION
  2
TABLES
  0
TABLE
  2
LAYER
  70
17
  0
LAYER
  2
Top_Paste
  70
64
  62
4
  6
CONTINUOUS
  0
LAYER
  2
Bottom_Paste
  70
64
  62
9
  6
CONTINUOUS
  0
LAYER
  2
Board_Outline
  70
64
  62
13
  6
CONTINUOUS
  0
ENDTAB
  0
ENDSEC
  0
SECTION
  2
ENTITIES
  0
SOLID
  8
Top_Paste
  10
35.7179
  20
41.9035
  11
37.3139
  21
41.9035
  12
35.7179
  22
41.6075
  13
37.3139
  23
41.6075
  0
SOLID
  8
Top_Paste
  10
35.7179
  20
41.1035
  11
37.3139
  21
41.1035
  12
35.7179
  22
40.8075
  13
37.3139
  23
40.8075
  0
SOLID
  8
Top_Paste
  10
35.7179
  20
40.3035
  11
37.3139
  21
40.3035
  12
35.7179
  22
40.0075
  13
37.3139
  23
40.0075
  0
SOLID
  8
Top_Paste
  10
35.7179
  20
39.5035
  11
37.3139
  21
39.5035
  12
35.7179
  22
39.2075
  13
37.3139
  23
39.2075
  0
SOLID
  8
Top_Paste
  10
35.7179
  20
38.7035
  11
37.3139
  21
38.7035
  12
35.7179
  22
38.4075
  13
37.3139
  23
38.4075
  0
SOLID
  8
Top_Paste
  10
35.7179
  20
37.9035
  11
37.3139
  21
37.9035
  12
35.7179
  22
37.6075
  13
37.3139
  23
37.6075
  0
SOLID
  8
Top_Paste
  10
35.7179
  20
37.1035
  11
37.3139
  21
37.1035
  12
35.7179
  22
36.8075
  13
37.3139
  23
36.8075
  0
SOLID
  8
Top_Paste
  10
35.7179
  20
36.3035
  11
37.3139
  21
36.3035
  12
35.7179
  22
36.0075
  13
37.3139
  23
36.0075
  0
SOLID
  8
Top_Paste
  10
37.8759
  20
35.4615
  11
38.1719
  21
35.4615
  12
37.8759
  22
33.8655
  13
38.1719
  23
33.8655
  0
SOLID
  8
Top_Paste
  10
38.6759
  20
35.4615
  11
38.9719
  21
35.4615
  12
38.6759
  22
33.8655
  13
38.9719
  23
33.8655
  0
SOLID
  8
Top_Paste
  10
39.4759
  20
35.4615
  11
39.7719
  21
35.4615
  12
39.4759
  22
33.8655
  13
39.7719
  23
33.8655
  0
SOLID
  8
Top_Paste
  10
40.2759
  20
35.4615
  11
40.5719
  21
35.4615
  12
40.2759
  22
33.8655
  13
40.5719
  23
33.8655
  0
SOLID
  8
Top_Paste
  10
41.0759
  20
35.4615
  11
41.3719
  21
35.4615
  12
41.0759
  22
33.8655
  13
41.3719
  23
33.8655
  0
SOLID
  8
Top_Paste
  10
41.8759
  20
35.4615
  11
42.1719
  21
35.4615
  12
41.8759
  22
33.8655
  13
42.1719
  23
33.8655
  0
SOLID
  8
Top_Paste
  10
42.6759
  20
35.4615
  11
42.9719
  21
35.4615
  12
42.6759
  22
33.8655
  13
42.9719
  23
33.8655
  0
SOLID
  8
Top_Paste
  10
43.4759
  20
35.4615
  11
43.7719
  21
35.4615
  12
43.4759
  22
33.8655
  13
43.7719
  23
33.8655
  0
SOLID
  8
Top_Paste
  10
44.3179
  20
36.3195
  11
45.9139
  21
36.3195
  12
44.3179
  22
36.0235
  13
45.9139
  23
36.0235
  0
SOLID
  8
Top_Paste
  10
44.3179
  20
37.1195
  11
45.9139
  21
37.1195
  12
44.3179
  22
36.8235
  13
45.9139
  23
36.8235
  0
SOLID
  8
Top_Paste
  10
44.3179
  20
37.9195
  11
45.9139
  21
37.9195
  12
44.3179
  22
37.6235
  13
45.9139
  23
37.6235
  0
SOLID
  8
Top_Paste
  10
44.3179
  20
38.7195
  11
45.9139
  21
38.7195
  12
44.3179
  22
38.4235
  13
45.9139
  23
38.4235
  0
SOLID
  8
Top_Paste
  10
44.3179
  20
39.5195
  11
45.9139
  21
39.5195
  12
44.3179
  22
39.2235
  13
45.9139
  23
39.2235
  0
SOLID
  8
Top_Paste
  10
44.3179
  20
40.3195
  11
45.9139
  21
40.3195
  12
44.3179
  22
40.0235
  13
45.9139
  23
40.0235
  0
SOLID
  8
Top_Paste
  10
44.3179
  20
41.1195
  11
45.9139
  21
41.1195
  12
44.3179
  22
40.8235
  13
45.9139
  23
40.8235
  0
SOLID
  8
Top_Paste
  10
44.3179
  20
41.9195
  11
45.9139
  21
41.9195
  12
44.3179
  22
41.6235
  13
45.9139
  23
41.6235
  0
SOLID
  8
Top_Paste
  10
43.4599
  20
44.0615
  11
43.7559
  21
44.0615
  12
43.4599
  22
42.4655
  13
43.7559
  23
42.4655
  0
SOLID
  8
Top_Paste
  10
42.6599
  20
44.0615
  11
42.9559
  21
44.0615
  12
42.6599
  22
42.4655
  13
42.9559
  23
42.4655
  0
SOLID
  8
Top_Paste
  10
41.8599
  20
44.0615
  11
42.1559
  21
44.0615
  12
41.8599
  22
42.4655
  13
42.1559
  23
42.4655
  0
SOLID
  8
Top_Paste
  10
41.0599
  20
44.0615
  11
41.3559
  21
44.0615
  12
41.0599
  22
42.4655
  13
41.3559
  23
42.4655
  0
SOLID
  8
Top_Paste
  10
40.2599
  20
44.0615
  11
40.5559
  21
44.0615
  12
40.2599
  22
42.4655
  13
40.5559
  23
42.4655
  0
SOLID
  8
Top_Paste
  10
39.4599
  20
44.0615
  11
39.7559
  21
44.0615
  12
39.4599
  22
42.4655
  13
39.7559
  23
42.4655
  0
SOLID
  8
Top_Paste
  10
38.6599
  20
44.0615
  11
38.9559
  21
44.0615
  12
38.6599
  22
42.4655
  13
38.9559
  23
42.4655
  0
SOLID
  8
Top_Paste
  10
37.8599
  20
44.0615
  11
38.1559
  21
44.0615
  12
37.8599
  22
42.4655
  13
38.1559
  23
42.4655
  0
SOLID
  8
Top_Paste
  10
20.0552
  20
32.6512
  11
25.3512
  21
32.6512
  12
20.0552
  22
30.8552
  13
25.3512
  23
30.8552
  0
SOLID
  8
Top_Paste
  10
29.5552
  20
32.6512
  11
34.8512
  21
32.6512
  12
29.5552
  22
30.8552
  13
34.8512
  23
30.8552
  0
SOLID
  8
Top_Paste
  10
40.4875
  20
92.3606
  11
40.7915
  21
92.3606
  12
40.4875
  22
89.5646
  13
40.7915
  23
89.5646
  0
SOLID
  8
Top_Paste
  10
40.4875
  20
87.3606
  11
40.7915
  21
87.3606
  12
40.4875
  22
84.5646
  13
40.7915
  23
84.5646
  0
SOLID
  8
Top_Paste
  10
40.9955
  20
106.8118
  11
42.3155
  21
106.8118
  12
40.9955
  22
105.5934
  13
42.3155
  23
105.5934
  0
SOLID
  8
Top_Paste
  10
38.7095
  20
106.8118
  11
40.0295
  21
106.8118
  12
38.7095
  22
105.5934
  13
40.0295
  23
105.5934
  0
SOLID
  8
Top_Paste
  10
63.2265
  20
106.4456
  11
63.7725
  21
106.4456
  12
63.2265
  22
102.1496
  13
63.7725
  23
102.1496
  0
SOLID
  8
Top_Paste
  10
63.2265
  20
100.4456
  11
63.7725
  21
100.4456
  12
63.2265
  22
96.1496
  13
63.7725
  23
96.1496
  0
SOLID
  8
Top_Paste
  10
67.3354
  20
97.3376
  11
68.5537
  21
97.3376
  12
67.3354
  22
96.0176
  13
68.5537
  23
96.0176
  0
SOLID
  8
Top_Paste
  10
67.3354
  20
95.0516
  11
68.5537
  21
95.0516
  12
67.3354
  22
93.7316
  13
68.5537
  23
93.7316
  0
SOLID
  8
Top_Paste
  10
54.9163
  20
22.5814
  11
59.7123
  21
22.5814
  12
54.9163
  22
20.2854
  13
59.7123
  23
20.2854
  0
SOLID
  8
Top_Paste
  10
66.3463
  20
22.5814
  11
71.1423
  21
22.5814
  12
66.3463
  22
20.2854
  13
71.1423
  23
20.2854
  0
SOLID
  8
Top_Paste
  10
71.5784
  20
26.3293
  11
72.8984
  21
26.3293
  12
71.5784
  22
25.1109
  13
72.8984
  23
25.1109
  0
SOLID
  8
Top_Paste
  10
73.8644
  20
26.3293
  11
75.1844
  21
26.3293
  12
73.8644
  22
25.1109
  13
75.1844
  23
25.1109
  0
SOLID
  8
Top_Paste
  10
66.7098
  20
72.428
  11
67.6058
  21
72.428
  12
66.7098
  22
71.732
  13
67.6058
  23
71.732
  0
SOLID
  8
Top_Paste
  10
65.9048
  20
69.538
  11
66.7008
  21
69.538
  12
65.9048
  22
68.842
  13
66.7008
  23
68.842
  0
SOLID
  8
Top_Paste
  10
67.6298
  20
69.538
  11
68.4258
  21
69.538
  12
67.6298
  22
68.842
  13
68.4258
  23
68.842
  0
SOLID
  8
Top_Paste
  10
25.1265
  20
64.1306
  11
27.2725
  21
64.1306
  12
25.1265
  22
63.7346
  13
27.2725
  23
63.7346
  0
SOLID
  8
Top_Paste
  10
25.1265
  20
62.8606
  11
27.2725
  21
62.8606
  12
25.1265
  22
62.4646
  13
27.2725
  23
62.4646
  0
SOLID
  8
Top_Paste
  10
25.1265
  20
61.5906
  11
27.2725
  21
61.5906
  12
25.1265
  22
61.1946
  13
27.2725
  23
61.1946
  0
SOLID
  8
Top_Paste
  10
25.1265
  20
60.3206
  11
27.2725
  21
60.3206
  12
25.1265
  22
59.9246
  13
27.2725
  23
59.9246
  0
SOLID
  8
Top_Paste
  10
25.1265
  20
59.0506
  11
27.2725
  21
59.0506
  12
25.1265
  22
58.6546
  13
27.2725
  23
58.6546
  0
SOLID
  8
Top_Paste
  10
25.1265
  20
57.7806
  11
27.2725
  21
57.7806
  12
25.1265
  22
57.3846
  13
27.2725
  23
57.3846
  0
SOLID
  8
Top_Paste
  10
25.1265
  20
56.5106
  11
27.2725
  21
56.5106
  12
25.1265
  22
56.1146
  13
27.2725
  23
56.1146
  0
SOLID
  8
Top_Paste
  10
25.1265
  20
55.2406
  11
27.2725
  21
55.2406
  12
25.1265
  22
54.8446
  13
27.2725
  23
54.8446
  0
SOLID
  8
Top_Paste
  10
35.1765
  20
55.2406
  11
37.3225
  21
55.2406
  12
35.1765
  22
54.8446
  13
37.3225
  23
54.8446
  0
SOLID
  8
Top_Paste
  10
35.1765
  20
56.5106
  11
37.3225
  21
56.5106
  12
35.1765
  22
56.1146
  13
37.3225
  23
56.1146
  0
SOLID
  8
Top_Paste
  10
35.1765
  20
57.7806
  11
37.3225
  21
57.7806
  12
35.1765
  22
57.3846
  13
37.3225
  23
57.3846
  0
SOLID
  8
Top_Paste
  10
35.1765
  20
59.0506
  11
37.3225
  21
59.0506
  12
35.1765
  22
58.6546
  13
37.3225
  23
58.6546
  0
SOLID
  8
Top_Paste
  10
35.1765
  20
60.3206
  11
37.3225
  21
60.3206
  12
35.1765
  22
59.9246
  13
37.3225
  23
59.9246
  0
SOLID
  8
Top_Paste
  10
35.1765
  20
61.5906
  11
37.3225
  21
61.5906
  12
35.1765
  22
61.1946
  13
37.3225
  23
61.1946
  0
SOLID
  8
Top_Paste
  10
35.1765
  20
62.8606
  11
37.3225
  21
62.8606
  12
35.1765
  22
62.4646
  13
37.3225
  23
62.4646
  0
SOLID
  8
Top_Paste
  10
35.1765
  20
64.1306
  11
37.3225
  21
64.1306
  12
35.1765
  22
63.7346
  13
37.3225
  23
63.7346
  0
SOLID
  8
Top_Paste
  10
33.9499
  20
67.767
  11
35.2699
  21
67.767
  12
33.9499
  22
66.5487
  13
35.2699
  23
66.5487
  0
SOLID
  8
Top_Paste
  10
31.6639
  20
67.767
  11
32.9839
  21
67.767
  12
31.6639
  22
66.5487
  13
32.9839
  23
66.5487
  0
SOLID
  8
Top_Paste
  10
21.6177
  20
64.6424
  11
22.836
  21
64.6424
  12
21.6177
  22
63.3224
  13
22.836
  23
63.3224
  0
SOLID
  8
Top_Paste
  10
21.6177
  20
62.3564
  11
22.836
  21
62.3564
  12
21.6177
  22
61.0364
  13
22.836
  23
61.0364
  0
SOLID
  8
Top_Paste
  10
21.6177
  20
60.1974
  11
22.836
  21
60.1974
  12
21.6177
  22
58.8774
  13
22.836
  23
58.8774
  0
SOLID
  8
Top_Paste
  10
21.6177
  20
57.9114
  11
22.836
  21
57.9114
  12
21.6177
  22
56.5914
  13
22.836
  23
56.5914
  0
SOLID
  8
Top_Paste
  10
31.4104
  20
53.3196
  11
32.7304
  21
53.3196
  12
31.4104
  22
52.1013
  13
32.7304
  23
52.1013
  0
SOLID
  8
Top_Paste
  10
29.1244
  20
53.3196
  11
30.4444
  21
53.3196
  12
29.1244
  22
52.1013
  13
30.4444
  23
52.1013
  0
SOLID
  8
Top_Paste
  10
26.9649
  20
67.767
  11
28.2849
  21
67.767
  12
26.9649
  22
66.5487
  13
28.2849
  23
66.5487
  0
SOLID
  8
Top_Paste
  10
29.2509
  20
67.767
  11
30.5709
  21
67.767
  12
29.2509
  22
66.5487
  13
30.5709
  23
66.5487
  0
SOLID
  8
Top_Paste
  10
9.4389
  20
58.5477
  11
11.8349
  21
58.5477
  12
9.4389
  22
57.3517
  13
11.8349
  23
57.3517
  0
SOLID
  8
Top_Paste
  10
9.4389
  20
54.9477
  11
11.8349
  21
54.9477
  12
9.4389
  22
53.7517
  13
11.8349
  23
53.7517
  0
SOLID
  8
Top_Paste
  10
15.4389
  20
54.9477
  11
17.8349
  21
54.9477
  12
15.4389
  22
53.7517
  13
17.8349
  23
53.7517
  0
SOLID
  8
Top_Paste
  10
15.4389
  20
58.5477
  11
17.8349
  21
58.5477
  12
15.4389
  22
57.3517
  13
17.8349
  23
57.3517
  0
SOLID
  8
Top_Paste
  10
6.3253
  20
58.5589
  11
7.6453
  21
58.5589
  12
6.3253
  22
57.3406
  13
7.6453
  23
57.3406
  0
SOLID
  8
Top_Paste
  10
4.0393
  20
58.5589
  11
5.3593
  21
58.5589
  12
4.0393
  22
57.3406
  13
5.3593
  23
57.3406
  0
SOLID
  8
Top_Paste
  10
4.2145
  20
54.7873
  11
5.3105
  21
54.7873
  12
4.2145
  22
53.4913
  13
5.3105
  23
53.4913
  0
SOLID
  8
Top_Paste
  10
6.1145
  20
54.7873
  11
7.2105
  21
54.7873
  12
6.1145
  22
53.4913
  13
7.2105
  23
53.4913
  0
SOLID
  8
Top_Paste
  10
23.4404
  20
38.2051
  11
24.7604
  21
38.2051
  12
23.4404
  22
36.9868
  13
24.7604
  23
36.9868
  0
SOLID
  8
Top_Paste
  10
25.7264
  20
38.2051
  11
27.0464
  21
38.2051
  12
25.7264
  22
36.9868
  13
27.0464
  23
36.9868
  0
SOLID
  8
Top_Paste
  10
47.976
  20
37.9745
  11
49.1943
  21
37.9745
  12
47.976
  22
36.6545
  13
49.1943
  23
36.6545
  0
SOLID
  8
Top_Paste
  10
47.976
  20
40.2605
  11
49.1943
  21
40.2605
  12
47.976
  22
38.9405
  13
49.1943
  23
38.9405
  0
SOLID
  8
Top_Paste
  10
24.3515
  20
86.9306
  11
26.4475
  21
86.9306
  12
24.3515
  22
84.8346
  13
26.4475
  23
84.8346
  0
SOLID
  8
Top_Paste
  10
24.3515
  20
91.4306
  11
26.4475
  21
91.4306
  12
24.3515
  22
89.3346
  13
26.4475
  23
89.3346
  0
SOLID
  8
Top_Paste
  10
46.8629
  20
103.7765
  11
49.6561
  21
103.7765
  12
46.8629
  22
98.4687
  13
49.6561
  23
98.4687
  0
SOLID
  8
Top_Paste
  10
57.1179
  20
103.7765
  11
59.9111
  21
103.7765
  12
57.1179
  22
98.4687
  13
59.9111
  23
98.4687
  0
SOLID
  8
Top_Paste
  10
34.5585
  20
103.8606
  11
36.5545
  21
103.8606
  12
34.5585
  22
103.4646
  13
36.5545
  23
103.4646
  0
SOLID
  8
Top_Paste
  10
34.5585
  20
102.5906
  11
36.5545
  21
102.5906
  12
34.5585
  22
102.1946
  13
36.5545
  23
102.1946
  0
SOLID
  8
Top_Paste
  10
34.5585
  20
101.3206
  11
36.5545
  21
101.3206
  12
34.5585
  22
100.9246
  13
36.5545
  23
100.9246
  0
SOLID
  8
Top_Paste
  10
34.5585
  20
100.0506
  11
36.5545
  21
100.0506
  12
34.5585
  22
99.6546
  13
36.5545
  23
99.6546
  0
SOLID
  8
Top_Paste
  10
34.5585
  20
98.7806
  11
36.5545
  21
98.7806
  12
34.5585
  22
98.3846
  13
36.5545
  23
98.3846
  0
SOLID
  8
Top_Paste
  10
34.5585
  20
97.5106
  11
36.5545
  21
97.5106
  12
34.5585
  22
97.1146
  13
36.5545
  23
97.1146
  0
SOLID
  8
Top_Paste
  10
34.5585
  20
96.2406
  11
36.5545
  21
96.2406
  12
34.5585
  22
95.8446
  13
36.5545
  23
95.8446
  0
SOLID
  8
Top_Paste
  10
43.7585
  20
96.2406
  11
45.7545
  21
96.2406
  12
43.7585
  22
95.8446
  13
45.7545
  23
95.8446
  0
SOLID
  8
Top_Paste
  10
43.7585
  20
97.5106
  11
45.7545
  21
97.5106
  12
43.7585
  22
97.1146
  13
45.7545
  23
97.1146
  0
SOLID
  8
Top_Paste
  10
43.7585
  20
98.7806
  11
45.7545
  21
98.7806
  12
43.7585
  22
98.3846
  13
45.7545
  23
98.3846
  0
SOLID
  8
Top_Paste
  10
43.7585
  20
100.0506
  11
45.7545
  21
100.0506
  12
43.7585
  22
99.6546
  13
45.7545
  23
99.6546
  0
SOLID
  8
Top_Paste
  10
43.7585
  20
101.3206
  11
45.7545
  21
101.3206
  12
43.7585
  22
100.9246
  13
45.7545
  23
100.9246
  0
SOLID
  8
Top_Paste
  10
43.7585
  20
102.5906
  11
45.7545
  21
102.5906
  12
43.7585
  22
102.1946
  13
45.7545
  23
102.1946
  0
SOLID
  8
Top_Paste
  10
43.7585
  20
103.8606
  11
45.7545
  21
103.8606
  12
43.7585
  22
103.4646
  13
45.7545
  23
103.4646
  0
SOLID
  8
Top_Paste
  10
44.8965
  20
92.1356
  11
46.5425
  21
92.1356
  12
44.8965
  22
89.7896
  13
46.5425
  23
89.7896
  0
SOLID
  8
Top_Paste
  10
44.8965
  20
87.9856
  11
46.5425
  21
87.9856
  12
44.8965
  22
85.6396
  13
46.5425
  23
85.6396
  0
SOLID
  8
Top_Paste
  10
63.2265
  20
89.3006
  11
63.7725
  21
89.3006
  12
63.2265
  22
85.0046
  13
63.7725
  23
85.0046
  0
SOLID
  8
Top_Paste
  10
63.2265
  20
95.3006
  11
63.7725
  21
95.3006
  12
63.2265
  22
91.0046
  13
63.7725
  23
91.0046
  0
SOLID
  8
Top_Paste
  10
50.0125
  20
92.3606
  11
50.3165
  21
92.3606
  12
50.0125
  22
89.5646
  13
50.3165
  23
89.5646
  0
SOLID
  8
Top_Paste
  10
50.0125
  20
87.3606
  11
50.3165
  21
87.3606
  12
50.0125
  22
84.5646
  13
50.3165
  23
84.5646
  0
SOLID
  8
Top_Paste
  10
35.4075
  20
92.3606
  11
35.7115
  21
92.3606
  12
35.4075
  22
89.5646
  13
35.7115
  23
89.5646
  0
SOLID
  8
Top_Paste
  10
35.4075
  20
87.3606
  11
35.7115
  21
87.3606
  12
35.4075
  22
84.5646
  13
35.7115
  23
84.5646
  0
SOLID
  8
Top_Paste
  10
30.3275
  20
92.3606
  11
30.6315
  21
92.3606
  12
30.3275
  22
89.5646
  13
30.6315
  23
89.5646
  0
SOLID
  8
Top_Paste
  10
30.3275
  20
87.3606
  11
30.6315
  21
87.3606
  12
30.3275
  22
84.5646
  13
30.6315
  23
84.5646
  0
SOLID
  8
Top_Paste
  10
55.0925
  20
92.3606
  11
55.3965
  21
92.3606
  12
55.0925
  22
89.5646
  13
55.3965
  23
89.5646
  0
SOLID
  8
Top_Paste
  10
55.0925
  20
87.3606
  11
55.3965
  21
87.3606
  12
55.0925
  22
84.5646
  13
55.3965
  23
84.5646
  0
SOLID
  8
Top_Paste
  10
22.0435
  20
28.3928
  11
23.3635
  21
28.3928
  12
22.0435
  22
27.1744
  13
23.3635
  23
27.1744
  0
SOLID
  8
Top_Paste
  10
24.3295
  20
28.3928
  11
25.6495
  21
28.3928
  12
24.3295
  22
27.1744
  13
25.6495
  23
27.1744
  0
SOLID
  8
Top_Paste
  10
31.2515
  20
28.3928
  11
32.5715
  21
28.3928
  12
31.2515
  22
27.1744
  13
32.5715
  23
27.1744
  0
SOLID
  8
Top_Paste
  10
28.9655
  20
28.3928
  11
30.2855
  21
28.3928
  12
28.9655
  22
27.1744
  13
30.2855
  23
27.1744
  0
SOLID
  8
Top_Paste
  10
11.9886
  20
28.273
  11
13.0846
  21
28.273
  12
11.9886
  22
26.977
  13
13.0846
  23
26.977
  0
SOLID
  8
Top_Paste
  10
10.0886
  20
28.273
  11
11.1846
  21
28.273
  12
10.0886
  22
26.977
  13
11.1846
  23
26.977
  0
SOLID
  8
Top_Paste
  10
11.9885
  20
25.7326
  11
13.0845
  21
25.7326
  12
11.9885
  22
24.4366
  13
13.0845
  23
24.4366
  0
SOLID
  8
Top_Paste
  10
10.0885
  20
25.7326
  11
11.1845
  21
25.7326
  12
10.0885
  22
24.4366
  13
11.1845
  23
24.4366
  0
SOLID
  8
Top_Paste
  10
6.6749
  20
24.7286
  11
8.2489
  21
24.7286
  12
6.6749
  22
24.1706
  13
8.2489
  23
24.1706
  0
POLYLINE
  8
Top_Paste
  6
CONTINUOUS
  66
1
  70
0
  40
0.279
  41
0.279
  0
VERTEX
  8
Top_Paste
  10
3.208
  20
24.4496
  42
1
  0
VERTEX
  8
Top_Paste
  10
3.487
  20
24.4496
  42
1
  0
VERTEX
  8
Top_Paste
  10
3.208
  20
24.4496
  42
1
  0
SEQEND
  0
POLYLINE
  8
Top_Paste
  6
CONTINUOUS
  66
1
  70
0
  40
0.279
  41
0.279
  0
VERTEX
  8
Top_Paste
  10
4.224
  20
24.4496
  42
1
  0
VERTEX
  8
Top_Paste
  10
4.503
  20
24.4496
  42
1
  0
VERTEX
  8
Top_Paste
  10
4.224
  20
24.4496
  42
1
  0
SEQEND
  0
SOLID
  8
Top_Paste
  10
3.3475
  20
24.7286
  11
4.3635
  21
24.7286
  12
3.3475
  22
24.1706
  13
4.3635
  23
24.1706
  0
SOLID
  8
Top_Paste
  10
6.6746
  20
27.904
  11
8.2486
  21
27.904
  12
6.6746
  22
27.346
  13
8.2486
  23
27.346
  0
POLYLINE
  8
Top_Paste
  6
CONTINUOUS
  66
1
  70
0
  40
0.279
  41
0.279
  0
VERTEX
  8
Top_Paste
  10
3.2077
  20
27.625
  42
1
  0
VERTEX
  8
Top_Paste
  10
3.4867
  20
27.625
  42
1
  0
VERTEX
  8
Top_Paste
  10
3.2077
  20
27.625
  42
1
  0
SEQEND
  0
POLYLINE
  8
Top_Paste
  6
CONTINUOUS
  66
1
  70
0
  40
0.279
  41
0.279
  0
VERTEX
  8
Top_Paste
  10
4.2237
  20
27.625
  42
1
  0
VERTEX
  8
Top_Paste
  10
4.5027
  20
27.625
  42
1
  0
VERTEX
  8
Top_Paste
  10
4.2237
  20
27.625
  42
1
  0
SEQEND
  0
SOLID
  8
Top_Paste
  10
3.3472
  20
27.904
  11
4.3632
  21
27.904
  12
3.3472
  22
27.346
  13
4.3632
  23
27.346
  0
SOLID
  8
Top_Paste
  10
24.5765
  20
100.3906
  11
26.2225
  21
100.3906
  12
24.5765
  22
98.0446
  13
26.2225
  23
98.0446
  0
SOLID
  8
Top_Paste
  10
24.5765
  20
96.2406
  11
26.2225
  21
96.2406
  12
24.5765
  22
93.8946
  13
26.2225
  23
93.8946
  0
SOLID
  8
Top_Paste
  10
26.7565
  20
105.5806
  11
27.8525
  21
105.5806
  12
26.7565
  22
104.2846
  13
27.8525
  23
104.2846
  0
SOLID
  8
Top_Paste
  10
24.8565
  20
105.5806
  11
25.9525
  21
105.5806
  12
24.8565
  22
104.2846
  13
25.9525
  23
104.2846
  0
SOLID
  8
Top_Paste
  10
30.8355
  20
98.0996
  11
31.3935
  21
98.0996
  12
30.8355
  22
96.5256
  13
31.3935
  23
96.5256
  0
POLYLINE
  8
Top_Paste
  6
CONTINUOUS
  66
1
  70
0
  40
0.279
  41
0.279
  0
VERTEX
  8
Top_Paste
  10
30.975
  20
101.4269
  42
1
  0
VERTEX
  8
Top_Paste
  10
31.254
  20
101.4269
  42
1
  0
VERTEX
  8
Top_Paste
  10
30.975
  20
101.4269
  42
1
  0
SEQEND
  0
POLYLINE
  8
Top_Paste
  6
CONTINUOUS
  66
1
  70
0
  40
0.279
  41
0.279
  0
VERTEX
  8
Top_Paste
  10
30.975
  20
100.4109
  42
1
  0
VERTEX
  8
Top_Paste
  10
31.254
  20
100.4109
  42
1
  0
VERTEX
  8
Top_Paste
  10
30.975
  20
100.4109
  42
1
  0
SEQEND
  0
SOLID
  8
Top_Paste
  10
30.8355
  20
101.4269
  11
31.3935
  21
101.4269
  12
30.8355
  22
100.4109
  13
31.3935
  23
100.4109
  0
SOLID
  8
Top_Paste
  10
60.4179
  20
69.8702
  11
61.5139
  21
69.8702
  12
60.4179
  22
68.5742
  13
61.5139
  23
68.5742
  0
SOLID
  8
Top_Paste
  10
62.3179
  20
69.8702
  11
63.4139
  21
69.8702
  12
62.3179
  22
68.5742
  13
63.4139
  23
68.5742
  0
SOLID
  8
Top_Paste
  10
56.1312
  20
69.8702
  11
57.2272
  21
69.8702
  12
56.1312
  22
68.5742
  13
57.2272
  23
68.5742
  0
SOLID
  8
Top_Paste
  10
58.0312
  20
69.8702
  11
59.1272
  21
69.8702
  12
58.0312
  22
68.5742
  13
59.1272
  23
68.5742
  0
SOLID
  8
Top_Paste
  10
63.005
  20
55.5423
  11
64.325
  21
55.5423
  12
63.005
  22
54.324
  13
64.325
  23
54.324
  0
SOLID
  8
Top_Paste
  10
65.291
  20
55.5423
  11
66.611
  21
55.5423
  12
65.291
  22
54.324
  13
66.611
  23
54.324
  0
POLYLINE
  8
Board_Outline
  6
CONTINUOUS
  66
1
  70
0
  40
0.14
  41
0.14
  0
VERTEX
  8
Board_Outline
  10
-0.0005
  20
0.0
  42
0
  0
VERTEX
  8
Board_Outline
  10
79.9995
  20
0.0
  42
0
  0
VERTEX
  8
Board_Outline
  10
79.9995
  20
110.0
  42
0
  0
VERTEX
  8
Board_Outline
  10
-0.0005
  20
110.0
  42
0
  0
VERTEX
  8
Board_Outline
  10
-0.0005
  20
0.0
  42
0
  0
SEQEND
  0
ENDSEC
  0
EOF
