  0
SECTION
  2
HEADER
  9
$ACADVER
  1
AC1009
  9
$ANGDIR
  70
0
  9
$CECOLOR
  62
256
  9
$CELTYPE
  6
BYLAYER
  9
$EXTMIN
  10
-0.0005
  20
0.0
  9
$EXTMAX
  10
79.9995
  20
110.0
  9
$FILLMODE
  70
1
  9
$MIRRTEXT
  70
0
  0
ENDSEC
  0
SECTION
  2
TABLES
  0
TABLE
  2
LAYER
  70
17
  0
LAYER
  2
Top
  70
64
  62
5
  6
CONTINUOUS
  0
LAYER
  2
Board_Outline
  70
64
  62
13
  6
CONTINUOUS
  0
ENDTAB
  0
ENDSEC
  0
SECTION
  2
ENTITIES
  0
SOLID
  8
Top
  10
35.6159
  20
42.0055
  11
37.4159
  21
42.0055
  12
35.6159
  22
41.5055
  13
37.4159
  23
41.5055
  0
SOLID
  8
Top
  10
35.6159
  20
41.2055
  11
37.4159
  21
41.2055
  12
35.6159
  22
40.7055
  13
37.4159
  23
40.7055
  0
SOLID
  8
Top
  10
35.6159
  20
40.4055
  11
37.4159
  21
40.4055
  12
35.6159
  22
39.9055
  13
37.4159
  23
39.9055
  0
SOLID
  8
Top
  10
35.6159
  20
39.6055
  11
37.4159
  21
39.6055
  12
35.6159
  22
39.1055
  13
37.4159
  23
39.1055
  0
SOLID
  8
Top
  10
35.6159
  20
38.8055
  11
37.4159
  21
38.8055
  12
35.6159
  22
38.3055
  13
37.4159
  23
38.3055
  0
SOLID
  8
Top
  10
35.6159
  20
38.0055
  11
37.4159
  21
38.0055
  12
35.6159
  22
37.5055
  13
37.4159
  23
37.5055
  0
SOLID
  8
Top
  10
35.6159
  20
37.2055
  11
37.4159
  21
37.2055
  12
35.6159
  22
36.7055
  13
37.4159
  23
36.7055
  0
SOLID
  8
Top
  10
35.6159
  20
36.4055
  11
37.4159
  21
36.4055
  12
35.6159
  22
35.9055
  13
37.4159
  23
35.9055
  0
SOLID
  8
Top
  10
37.7739
  20
35.5635
  11
38.2739
  21
35.5635
  12
37.7739
  22
33.7635
  13
38.2739
  23
33.7635
  0
SOLID
  8
Top
  10
38.5739
  20
35.5635
  11
39.0739
  21
35.5635
  12
38.5739
  22
33.7635
  13
39.0739
  23
33.7635
  0
SOLID
  8
Top
  10
39.3739
  20
35.5635
  11
39.8739
  21
35.5635
  12
39.3739
  22
33.7635
  13
39.8739
  23
33.7635
  0
SOLID
  8
Top
  10
40.1739
  20
35.5635
  11
40.6739
  21
35.5635
  12
40.1739
  22
33.7635
  13
40.6739
  23
33.7635
  0
SOLID
  8
Top
  10
40.9739
  20
35.5635
  11
41.4739
  21
35.5635
  12
40.9739
  22
33.7635
  13
41.4739
  23
33.7635
  0
SOLID
  8
Top
  10
41.7739
  20
35.5635
  11
42.2739
  21
35.5635
  12
41.7739
  22
33.7635
  13
42.2739
  23
33.7635
  0
SOLID
  8
Top
  10
42.5739
  20
35.5635
  11
43.0739
  21
35.5635
  12
42.5739
  22
33.7635
  13
43.0739
  23
33.7635
  0
SOLID
  8
Top
  10
43.3739
  20
35.5635
  11
43.8739
  21
35.5635
  12
43.3739
  22
33.7635
  13
43.8739
  23
33.7635
  0
SOLID
  8
Top
  10
44.2159
  20
36.4215
  11
46.0159
  21
36.4215
  12
44.2159
  22
35.9215
  13
46.0159
  23
35.9215
  0
SOLID
  8
Top
  10
44.2159
  20
37.2215
  11
46.0159
  21
37.2215
  12
44.2159
  22
36.7215
  13
46.0159
  23
36.7215
  0
SOLID
  8
Top
  10
44.2159
  20
38.0215
  11
46.0159
  21
38.0215
  12
44.2159
  22
37.5215
  13
46.0159
  23
37.5215
  0
SOLID
  8
Top
  10
44.2159
  20
38.8215
  11
46.0159
  21
38.8215
  12
44.2159
  22
38.3215
  13
46.0159
  23
38.3215
  0
SOLID
  8
Top
  10
44.2159
  20
39.6215
  11
46.0159
  21
39.6215
  12
44.2159
  22
39.1215
  13
46.0159
  23
39.1215
  0
SOLID
  8
Top
  10
44.2159
  20
40.4215
  11
46.0159
  21
40.4215
  12
44.2159
  22
39.9215
  13
46.0159
  23
39.9215
  0
SOLID
  8
Top
  10
44.2159
  20
41.2215
  11
46.0159
  21
41.2215
  12
44.2159
  22
40.7215
  13
46.0159
  23
40.7215
  0
SOLID
  8
Top
  10
44.2159
  20
42.0215
  11
46.0159
  21
42.0215
  12
44.2159
  22
41.5215
  13
46.0159
  23
41.5215
  0
SOLID
  8
Top
  10
43.3579
  20
44.1635
  11
43.8579
  21
44.1635
  12
43.3579
  22
42.3635
  13
43.8579
  23
42.3635
  0
SOLID
  8
Top
  10
42.5579
  20
44.1635
  11
43.0579
  21
44.1635
  12
42.5579
  22
42.3635
  13
43.0579
  23
42.3635
  0
SOLID
  8
Top
  10
41.7579
  20
44.1635
  11
42.2579
  21
44.1635
  12
41.7579
  22
42.3635
  13
42.2579
  23
42.3635
  0
SOLID
  8
Top
  10
40.9579
  20
44.1635
  11
41.4579
  21
44.1635
  12
40.9579
  22
42.3635
  13
41.4579
  23
42.3635
  0
SOLID
  8
Top
  10
40.1579
  20
44.1635
  11
40.6579
  21
44.1635
  12
40.1579
  22
42.3635
  13
40.6579
  23
42.3635
  0
SOLID
  8
Top
  10
39.3579
  20
44.1635
  11
39.8579
  21
44.1635
  12
39.3579
  22
42.3635
  13
39.8579
  23
42.3635
  0
SOLID
  8
Top
  10
38.5579
  20
44.1635
  11
39.0579
  21
44.1635
  12
38.5579
  22
42.3635
  13
39.0579
  23
42.3635
  0
SOLID
  8
Top
  10
37.7579
  20
44.1635
  11
38.2579
  21
44.1635
  12
37.7579
  22
42.3635
  13
38.2579
  23
42.3635
  0
SOLID
  8
Top
  10
19.9532
  20
32.7532
  11
25.4532
  21
32.7532
  12
19.9532
  22
30.7532
  13
25.4532
  23
30.7532
  0
SOLID
  8
Top
  10
29.4532
  20
32.7532
  11
34.9532
  21
32.7532
  12
29.4532
  22
30.7532
  13
34.9532
  23
30.7532
  0
SOLID
  8
Top
  10
40.3855
  20
92.4626
  11
40.8935
  21
92.4626
  12
40.3855
  22
89.4626
  13
40.8935
  23
89.4626
  0
SOLID
  8
Top
  10
40.3855
  20
87.4626
  11
40.8935
  21
87.4626
  12
40.3855
  22
84.4626
  13
40.8935
  23
84.4626
  0
SOLID
  8
Top
  10
40.8935
  20
106.9138
  11
42.4175
  21
106.9138
  12
40.8935
  22
105.4914
  13
42.4175
  23
105.4914
  0
SOLID
  8
Top
  10
38.6075
  20
106.9138
  11
40.1315
  21
106.9138
  12
38.6075
  22
105.4914
  13
40.1315
  23
105.4914
  0
SOLID
  8
Top
  10
63.1245
  20
106.5476
  11
63.8745
  21
106.5476
  12
63.1245
  22
102.0476
  13
63.8745
  23
102.0476
  0
SOLID
  8
Top
  10
63.1245
  20
100.5476
  11
63.8745
  21
100.5476
  12
63.1245
  22
96.0476
  13
63.8745
  23
96.0476
  0
SOLID
  8
Top
  10
67.2334
  20
97.4396
  11
68.6557
  21
97.4396
  12
67.2334
  22
95.9156
  13
68.6557
  23
95.9156
  0
SOLID
  8
Top
  10
67.2334
  20
95.1536
  11
68.6557
  21
95.1536
  12
67.2334
  22
93.6296
  13
68.6557
  23
93.6296
  0
SOLID
  8
Top
  10
54.8143
  20
22.6834
  11
59.8143
  21
22.6834
  12
54.8143
  22
20.1834
  13
59.8143
  23
20.1834
  0
SOLID
  8
Top
  10
66.2443
  20
22.6834
  11
71.2443
  21
22.6834
  12
66.2443
  22
20.1834
  13
71.2443
  23
20.1834
  0
SOLID
  8
Top
  10
71.4764
  20
26.4313
  11
73.0004
  21
26.4313
  12
71.4764
  22
25.0089
  13
73.0004
  23
25.0089
  0
SOLID
  8
Top
  10
73.7624
  20
26.4313
  11
75.2864
  21
26.4313
  12
73.7624
  22
25.0089
  13
75.2864
  23
25.0089
  0
POLYLINE
  8
Top
  6
CONTINUOUS
  66
1
  70
0
  40
0.7493
  41
0.7493
  0
VERTEX
  8
Top
  10
72.8742
  20
75.9979
  42
1
  0
VERTEX
  8
Top
  10
72.1249
  20
75.9979
  42
1
  0
VERTEX
  8
Top
  10
72.8742
  20
75.9979
  42
1
  0
SEQEND
  0
POLYLINE
  8
Top
  6
CONTINUOUS
  66
1
  70
0
  40
0.7493
  41
0.7493
  0
VERTEX
  8
Top
  10
70.3342
  20
75.9979
  42
1
  0
VERTEX
  8
Top
  10
69.5849
  20
75.9979
  42
1
  0
VERTEX
  8
Top
  10
70.3342
  20
75.9979
  42
1
  0
SEQEND
  0
POLYLINE
  8
Top
  6
CONTINUOUS
  66
1
  70
0
  40
0.7493
  41
0.7493
  0
VERTEX
  8
Top
  10
67.7942
  20
75.9979
  42
1
  0
VERTEX
  8
Top
  10
67.0449
  20
75.9979
  42
1
  0
VERTEX
  8
Top
  10
67.7942
  20
75.9979
  42
1
  0
SEQEND
  0
POLYLINE
  8
Top
  6
CONTINUOUS
  66
1
  70
0
  40
0.7493
  41
0.7493
  0
VERTEX
  8
Top
  10
65.2542
  20
75.9979
  42
1
  0
VERTEX
  8
Top
  10
64.5049
  20
75.9979
  42
1
  0
VERTEX
  8
Top
  10
65.2542
  20
75.9979
  42
1
  0
SEQEND
  0
POLYLINE
  8
Top
  6
CONTINUOUS
  66
1
  70
0
  40
0.7493
  41
0.7493
  0
VERTEX
  8
Top
  10
62.7142
  20
75.9979
  42
1
  0
VERTEX
  8
Top
  10
61.9649
  20
75.9979
  42
1
  0
VERTEX
  8
Top
  10
62.7142
  20
75.9979
  42
1
  0
SEQEND
  0
POLYLINE
  8
Top
  6
CONTINUOUS
  66
1
  70
0
  40
0.7493
  41
0.7493
  0
VERTEX
  8
Top
  10
60.1742
  20
75.9979
  42
1
  0
VERTEX
  8
Top
  10
59.4249
  20
75.9979
  42
1
  0
VERTEX
  8
Top
  10
60.1742
  20
75.9979
  42
1
  0
SEQEND
  0
POLYLINE
  8
Top
  6
CONTINUOUS
  66
1
  70
0
  40
0.75
  41
0.75
  0
VERTEX
  8
Top
  10
57.6345
  20
75.9979
  42
1
  0
VERTEX
  8
Top
  10
56.8845
  20
75.9979
  42
1
  0
VERTEX
  8
Top
  10
57.6345
  20
75.9979
  42
1
  0
SEQEND
  0
POLYLINE
  8
Top
  6
CONTINUOUS
  66
1
  70
0
  40
0.75
  41
0.75
  0
VERTEX
  8
Top
  10
55.0945
  20
75.9979
  42
1
  0
VERTEX
  8
Top
  10
54.3445
  20
75.9979
  42
1
  0
VERTEX
  8
Top
  10
55.0945
  20
75.9979
  42
1
  0
SEQEND
  0
POLYLINE
  8
Top
  6
CONTINUOUS
  66
1
  70
0
  40
0.75
  41
0.75
  0
VERTEX
  8
Top
  10
52.5545
  20
75.9979
  42
1
  0
VERTEX
  8
Top
  10
51.8045
  20
75.9979
  42
1
  0
VERTEX
  8
Top
  10
52.5545
  20
75.9979
  42
1
  0
SEQEND
  0
POLYLINE
  8
Top
  6
CONTINUOUS
  66
1
  70
0
  40
0.7493
  41
0.7493
  0
VERTEX
  8
Top
  10
50.0142
  20
75.9979
  42
1
  0
VERTEX
  8
Top
  10
49.2649
  20
75.9979
  42
1
  0
VERTEX
  8
Top
  10
50.0142
  20
75.9979
  42
1
  0
SEQEND
  0
POLYLINE
  8
Top
  6
CONTINUOUS
  66
1
  70
0
  40
0.7493
  41
0.7493
  0
VERTEX
  8
Top
  10
47.4742
  20
75.9979
  42
1
  0
VERTEX
  8
Top
  10
46.7249
  20
75.9979
  42
1
  0
VERTEX
  8
Top
  10
47.4742
  20
75.9979
  42
1
  0
SEQEND
  0
POLYLINE
  8
Top
  6
CONTINUOUS
  66
1
  70
0
  40
0.7493
  41
0.7493
  0
VERTEX
  8
Top
  10
44.9342
  20
75.9979
  42
1
  0
VERTEX
  8
Top
  10
44.1849
  20
75.9979
  42
1
  0
VERTEX
  8
Top
  10
44.9342
  20
75.9979
  42
1
  0
SEQEND
  0
POLYLINE
  8
Top
  6
CONTINUOUS
  66
1
  70
0
  40
0.7493
  41
0.7493
  0
VERTEX
  8
Top
  10
42.3942
  20
75.9979
  42
1
  0
VERTEX
  8
Top
  10
41.6449
  20
75.9979
  42
1
  0
VERTEX
  8
Top
  10
42.3942
  20
75.9979
  42
1
  0
SEQEND
  0
POLYLINE
  8
Top
  6
CONTINUOUS
  66
1
  70
0
  40
0.7493
  41
0.7493
  0
VERTEX
  8
Top
  10
39.8542
  20
75.9979
  42
1
  0
VERTEX
  8
Top
  10
39.1049
  20
75.9979
  42
1
  0
VERTEX
  8
Top
  10
39.8542
  20
75.9979
  42
1
  0
SEQEND
  0
POLYLINE
  8
Top
  6
CONTINUOUS
  66
1
  70
0
  40
0.7493
  41
0.7493
  0
VERTEX
  8
Top
  10
37.3142
  20
75.9979
  42
1
  0
VERTEX
  8
Top
  10
36.5649
  20
75.9979
  42
1
  0
VERTEX
  8
Top
  10
37.3142
  20
75.9979
  42
1
  0
SEQEND
  0
POLYLINE
  8
Top
  6
CONTINUOUS
  66
1
  70
0
  40
0.7493
  41
0.7493
  0
VERTEX
  8
Top
  10
34.7742
  20
75.9979
  42
1
  0
VERTEX
  8
Top
  10
34.0249
  20
75.9979
  42
1
  0
VERTEX
  8
Top
  10
34.7742
  20
75.9979
  42
1
  0
SEQEND
  0
POLYLINE
  8
Top
  6
CONTINUOUS
  66
1
  70
0
  40
0.8255
  41
0.8255
  0
VERTEX
  8
Top
  10
36.1348
  20
2.6989
  42
1
  0
VERTEX
  8
Top
  10
35.3093
  20
2.6989
  42
1
  0
VERTEX
  8
Top
  10
36.1348
  20
2.6989
  42
1
  0
SEQEND
  0
POLYLINE
  8
Top
  6
CONTINUOUS
  66
1
  70
0
  40
0.8255
  41
0.8255
  0
VERTEX
  8
Top
  10
33.5948
  20
2.6989
  42
1
  0
VERTEX
  8
Top
  10
32.7693
  20
2.6989
  42
1
  0
VERTEX
  8
Top
  10
33.5948
  20
2.6989
  42
1
  0
SEQEND
  0
POLYLINE
  8
Top
  6
CONTINUOUS
  66
1
  70
0
  40
0.8255
  41
0.8255
  0
VERTEX
  8
Top
  10
31.0548
  20
2.6989
  42
1
  0
VERTEX
  8
Top
  10
30.2293
  20
2.6989
  42
1
  0
VERTEX
  8
Top
  10
31.0548
  20
2.6989
  42
1
  0
SEQEND
  0
POLYLINE
  8
Top
  6
CONTINUOUS
  66
1
  70
0
  40
0.8255
  41
0.8255
  0
VERTEX
  8
Top
  10
28.5148
  20
2.6989
  42
1
  0
VERTEX
  8
Top
  10
27.6893
  20
2.6989
  42
1
  0
VERTEX
  8
Top
  10
28.5148
  20
2.6989
  42
1
  0
SEQEND
  0
POLYLINE
  8
Top
  6
CONTINUOUS
  66
1
  70
0
  40
0.8255
  41
0.8255
  0
VERTEX
  8
Top
  10
25.9748
  20
2.6989
  42
1
  0
VERTEX
  8
Top
  10
25.1493
  20
2.6989
  42
1
  0
VERTEX
  8
Top
  10
25.9748
  20
2.6989
  42
1
  0
SEQEND
  0
POLYLINE
  8
Top
  6
CONTINUOUS
  66
1
  70
0
  40
0.8255
  41
0.8255
  0
VERTEX
  8
Top
  10
23.4348
  20
2.6989
  42
1
  0
VERTEX
  8
Top
  10
22.6093
  20
2.6989
  42
1
  0
VERTEX
  8
Top
  10
23.4348
  20
2.6989
  42
1
  0
SEQEND
  0
POLYLINE
  8
Top
  6
CONTINUOUS
  66
1
  70
0
  40
0.8255
  41
0.8255
  0
VERTEX
  8
Top
  10
20.8948
  20
2.6989
  42
1
  0
VERTEX
  8
Top
  10
20.0693
  20
2.6989
  42
1
  0
VERTEX
  8
Top
  10
20.8948
  20
2.6989
  42
1
  0
SEQEND
  0
POLYLINE
  8
Top
  6
CONTINUOUS
  66
1
  70
0
  40
0.8255
  41
0.8255
  0
VERTEX
  8
Top
  10
18.3548
  20
2.6989
  42
1
  0
VERTEX
  8
Top
  10
17.5293
  20
2.6989
  42
1
  0
VERTEX
  8
Top
  10
18.3548
  20
2.6989
  42
1
  0
SEQEND
  0
POLYLINE
  8
Top
  6
CONTINUOUS
  66
1
  70
0
  40
0.8255
  41
0.8255
  0
VERTEX
  8
Top
  10
15.8148
  20
2.6989
  42
1
  0
VERTEX
  8
Top
  10
14.9893
  20
2.6989
  42
1
  0
VERTEX
  8
Top
  10
15.8148
  20
2.6989
  42
1
  0
SEQEND
  0
SOLID
  8
Top
  10
66.6078
  20
72.53
  11
67.7078
  21
72.53
  12
66.6078
  22
71.63
  13
67.7078
  23
71.63
  0
SOLID
  8
Top
  10
65.8028
  20
69.64
  11
66.8028
  21
69.64
  12
65.8028
  22
68.74
  13
66.8028
  23
68.74
  0
SOLID
  8
Top
  10
67.5278
  20
69.64
  11
68.5278
  21
69.64
  12
67.5278
  22
68.74
  13
68.5278
  23
68.74
  0
SOLID
  8
Top
  10
25.0245
  20
64.2326
  11
27.3745
  21
64.2326
  12
25.0245
  22
63.6326
  13
27.3745
  23
63.6326
  0
SOLID
  8
Top
  10
25.0245
  20
62.9626
  11
27.3745
  21
62.9626
  12
25.0245
  22
62.3626
  13
27.3745
  23
62.3626
  0
SOLID
  8
Top
  10
25.0245
  20
61.6926
  11
27.3745
  21
61.6926
  12
25.0245
  22
61.0926
  13
27.3745
  23
61.0926
  0
SOLID
  8
Top
  10
25.0245
  20
60.4226
  11
27.3745
  21
60.4226
  12
25.0245
  22
59.8226
  13
27.3745
  23
59.8226
  0
SOLID
  8
Top
  10
25.0245
  20
59.1526
  11
27.3745
  21
59.1526
  12
25.0245
  22
58.5526
  13
27.3745
  23
58.5526
  0
SOLID
  8
Top
  10
25.0245
  20
57.8826
  11
27.3745
  21
57.8826
  12
25.0245
  22
57.2826
  13
27.3745
  23
57.2826
  0
SOLID
  8
Top
  10
25.0245
  20
56.6126
  11
27.3745
  21
56.6126
  12
25.0245
  22
56.0126
  13
27.3745
  23
56.0126
  0
SOLID
  8
Top
  10
25.0245
  20
55.3426
  11
27.3745
  21
55.3426
  12
25.0245
  22
54.7426
  13
27.3745
  23
54.7426
  0
SOLID
  8
Top
  10
35.0745
  20
55.3426
  11
37.4245
  21
55.3426
  12
35.0745
  22
54.7426
  13
37.4245
  23
54.7426
  0
SOLID
  8
Top
  10
35.0745
  20
56.6126
  11
37.4245
  21
56.6126
  12
35.0745
  22
56.0126
  13
37.4245
  23
56.0126
  0
SOLID
  8
Top
  10
35.0745
  20
57.8826
  11
37.4245
  21
57.8826
  12
35.0745
  22
57.2826
  13
37.4245
  23
57.2826
  0
SOLID
  8
Top
  10
35.0745
  20
59.1526
  11
37.4245
  21
59.1526
  12
35.0745
  22
58.5526
  13
37.4245
  23
58.5526
  0
SOLID
  8
Top
  10
35.0745
  20
60.4226
  11
37.4245
  21
60.4226
  12
35.0745
  22
59.8226
  13
37.4245
  23
59.8226
  0
SOLID
  8
Top
  10
35.0745
  20
61.6926
  11
37.4245
  21
61.6926
  12
35.0745
  22
61.0926
  13
37.4245
  23
61.0926
  0
SOLID
  8
Top
  10
35.0745
  20
62.9626
  11
37.4245
  21
62.9626
  12
35.0745
  22
62.3626
  13
37.4245
  23
62.3626
  0
SOLID
  8
Top
  10
35.0745
  20
64.2326
  11
37.4245
  21
64.2326
  12
35.0745
  22
63.6326
  13
37.4245
  23
63.6326
  0
SOLID
  8
Top
  10
33.8479
  20
67.869
  11
35.3719
  21
67.869
  12
33.8479
  22
66.4467
  13
35.3719
  23
66.4467
  0
SOLID
  8
Top
  10
31.5619
  20
67.869
  11
33.0859
  21
67.869
  12
31.5619
  22
66.4467
  13
33.0859
  23
66.4467
  0
SOLID
  8
Top
  10
21.5157
  20
64.7444
  11
22.938
  21
64.7444
  12
21.5157
  22
63.2204
  13
22.938
  23
63.2204
  0
SOLID
  8
Top
  10
21.5157
  20
62.4584
  11
22.938
  21
62.4584
  12
21.5157
  22
60.9344
  13
22.938
  23
60.9344
  0
SOLID
  8
Top
  10
21.5157
  20
60.2994
  11
22.938
  21
60.2994
  12
21.5157
  22
58.7754
  13
22.938
  23
58.7754
  0
SOLID
  8
Top
  10
21.5157
  20
58.0134
  11
22.938
  21
58.0134
  12
21.5157
  22
56.4894
  13
22.938
  23
56.4894
  0
SOLID
  8
Top
  10
31.3084
  20
53.4216
  11
32.8324
  21
53.4216
  12
31.3084
  22
51.9993
  13
32.8324
  23
51.9993
  0
SOLID
  8
Top
  10
29.0224
  20
53.4216
  11
30.5464
  21
53.4216
  12
29.0224
  22
51.9993
  13
30.5464
  23
51.9993
  0
SOLID
  8
Top
  10
26.8629
  20
67.869
  11
28.3869
  21
67.869
  12
26.8629
  22
66.4467
  13
28.3869
  23
66.4467
  0
SOLID
  8
Top
  10
29.1489
  20
67.869
  11
30.6729
  21
67.869
  12
29.1489
  22
66.4467
  13
30.6729
  23
66.4467
  0
POLYLINE
  8
Top
  6
CONTINUOUS
  66
1
  70
0
  40
1.143
  41
1.143
  0
VERTEX
  8
Top
  10
18.3447
  20
101.1173
  42
1
  0
VERTEX
  8
Top
  10
17.2017
  20
101.1173
  42
1
  0
VERTEX
  8
Top
  10
18.3447
  20
101.1173
  42
1
  0
SEQEND
  0
POLYLINE
  8
Top
  6
CONTINUOUS
  66
1
  70
0
  40
1.143
  41
1.143
  0
VERTEX
  8
Top
  10
18.3447
  20
96.0373
  42
1
  0
VERTEX
  8
Top
  10
17.2017
  20
96.0373
  42
1
  0
VERTEX
  8
Top
  10
18.3447
  20
96.0373
  42
1
  0
SEQEND
  0
POLYLINE
  8
Top
  6
CONTINUOUS
  66
1
  70
0
  40
1.143
  41
1.143
  0
VERTEX
  8
Top
  10
18.3447
  20
90.9573
  42
1
  0
VERTEX
  8
Top
  10
17.2017
  20
90.9573
  42
1
  0
VERTEX
  8
Top
  10
18.3447
  20
90.9573
  42
1
  0
SEQEND
  0
POLYLINE
  8
Top
  6
CONTINUOUS
  66
1
  70
0
  40
1.143
  41
1.143
  0
VERTEX
  8
Top
  10
18.3447
  20
85.8773
  42
1
  0
VERTEX
  8
Top
  10
17.2017
  20
85.8773
  42
1
  0
VERTEX
  8
Top
  10
18.3447
  20
85.8773
  42
1
  0
SEQEND
  0
SOLID
  8
Top
  10
9.3369
  20
58.6497
  11
11.9369
  21
58.6497
  12
9.3369
  22
57.2497
  13
11.9369
  23
57.2497
  0
SOLID
  8
Top
  10
9.3369
  20
55.0497
  11
11.9369
  21
55.0497
  12
9.3369
  22
53.6497
  13
11.9369
  23
53.6497
  0
SOLID
  8
Top
  10
15.3369
  20
55.0497
  11
17.9369
  21
55.0497
  12
15.3369
  22
53.6497
  13
17.9369
  23
53.6497
  0
SOLID
  8
Top
  10
15.3369
  20
58.6497
  11
17.9369
  21
58.6497
  12
15.3369
  22
57.2497
  13
17.9369
  23
57.2497
  0
POLYLINE
  8
Top
  6
CONTINUOUS
  66
1
  70
0
  40
0.7493
  41
0.7493
  0
VERTEX
  8
Top
  10
4.1845
  20
45.417
  42
1
  0
VERTEX
  8
Top
  10
3.4352
  20
45.417
  42
1
  0
VERTEX
  8
Top
  10
4.1845
  20
45.417
  42
1
  0
SEQEND
  0
POLYLINE
  8
Top
  6
CONTINUOUS
  66
1
  70
0
  40
0.7493
  41
0.7493
  0
VERTEX
  8
Top
  10
4.1845
  20
42.877
  42
1
  0
VERTEX
  8
Top
  10
3.4352
  20
42.877
  42
1
  0
VERTEX
  8
Top
  10
4.1845
  20
42.877
  42
1
  0
SEQEND
  0
POLYLINE
  8
Top
  6
CONTINUOUS
  66
1
  70
0
  40
0.7493
  41
0.7493
  0
VERTEX
  8
Top
  10
4.1845
  20
40.337
  42
1
  0
VERTEX
  8
Top
  10
3.4352
  20
40.337
  42
1
  0
VERTEX
  8
Top
  10
4.1845
  20
40.337
  42
1
  0
SEQEND
  0
POLYLINE
  8
Top
  6
CONTINUOUS
  66
1
  70
0
  40
0.75
  41
0.75
  0
VERTEX
  8
Top
  10
4.1848
  20
37.797
  42
1
  0
VERTEX
  8
Top
  10
3.4348
  20
37.797
  42
1
  0
VERTEX
  8
Top
  10
4.1848
  20
37.797
  42
1
  0
SEQEND
  0
POLYLINE
  8
Top
  6
CONTINUOUS
  66
1
  70
0
  40
0.7493
  41
0.7493
  0
VERTEX
  8
Top
  10
4.1845
  20
35.257
  42
1
  0
VERTEX
  8
Top
  10
3.4352
  20
35.257
  42
1
  0
VERTEX
  8
Top
  10
4.1845
  20
35.257
  42
1
  0
SEQEND
  0
POLYLINE
  8
Top
  6
CONTINUOUS
  66
1
  70
0
  40
0.7493
  41
0.7493
  0
VERTEX
  8
Top
  10
4.1845
  20
32.717
  42
1
  0
VERTEX
  8
Top
  10
3.4352
  20
32.717
  42
1
  0
VERTEX
  8
Top
  10
4.1845
  20
32.717
  42
1
  0
SEQEND
  0
SOLID
  8
Top
  10
6.2233
  20
58.6609
  11
7.7473
  21
58.6609
  12
6.2233
  22
57.2386
  13
7.7473
  23
57.2386
  0
SOLID
  8
Top
  10
3.9373
  20
58.6609
  11
5.4613
  21
58.6609
  12
3.9373
  22
57.2386
  13
5.4613
  23
57.2386
  0
SOLID
  8
Top
  10
4.1125
  20
54.8893
  11
5.4125
  21
54.8893
  12
4.1125
  22
53.3893
  13
5.4125
  23
53.3893
  0
SOLID
  8
Top
  10
6.0125
  20
54.8893
  11
7.3125
  21
54.8893
  12
6.0125
  22
53.3893
  13
7.3125
  23
53.3893
  0
SOLID
  8
Top
  10
23.3384
  20
38.3071
  11
24.8624
  21
38.3071
  12
23.3384
  22
36.8848
  13
24.8624
  23
36.8848
  0
SOLID
  8
Top
  10
25.6244
  20
38.3071
  11
27.1484
  21
38.3071
  12
25.6244
  22
36.8848
  13
27.1484
  23
36.8848
  0
SOLID
  8
Top
  10
47.874
  20
38.0765
  11
49.2963
  21
38.0765
  12
47.874
  22
36.5525
  13
49.2963
  23
36.5525
  0
SOLID
  8
Top
  10
47.874
  20
40.3625
  11
49.2963
  21
40.3625
  12
47.874
  22
38.8385
  13
49.2963
  23
38.8385
  0
SOLID
  8
Top
  10
68.301
  20
42.2
  11
69.825
  21
42.2
  12
68.301
  22
40.676
  13
69.825
  23
40.676
  0
POLYLINE
  8
Top
  6
CONTINUOUS
  66
1
  70
0
  40
0.762
  41
0.762
  0
VERTEX
  8
Top
  10
66.904
  20
41.438
  42
1
  0
VERTEX
  8
Top
  10
66.142
  20
41.438
  42
1
  0
VERTEX
  8
Top
  10
66.904
  20
41.438
  42
1
  0
SEQEND
  0
POLYLINE
  8
Top
  6
CONTINUOUS
  66
1
  70
0
  40
0.762
  41
0.762
  0
VERTEX
  8
Top
  10
64.364
  20
41.438
  42
1
  0
VERTEX
  8
Top
  10
63.602
  20
41.438
  42
1
  0
VERTEX
  8
Top
  10
64.364
  20
41.438
  42
1
  0
SEQEND
  0
POLYLINE
  8
Top
  6
CONTINUOUS
  66
1
  70
0
  40
0.762
  41
0.762
  0
VERTEX
  8
Top
  10
61.824
  20
41.438
  42
1
  0
VERTEX
  8
Top
  10
61.062
  20
41.438
  42
1
  0
VERTEX
  8
Top
  10
61.824
  20
41.438
  42
1
  0
SEQEND
  0
SOLID
  8
Top
  10
24.2495
  20
87.0326
  11
26.5495
  21
87.0326
  12
24.2495
  22
84.7326
  13
26.5495
  23
84.7326
  0
SOLID
  8
Top
  10
24.2495
  20
91.5326
  11
26.5495
  21
91.5326
  12
24.2495
  22
89.2326
  13
26.5495
  23
89.2326
  0
SOLID
  8
Top
  10
46.7609
  20
103.8785
  11
49.7581
  21
103.8785
  12
46.7609
  22
98.3667
  13
49.7581
  23
98.3667
  0
SOLID
  8
Top
  10
57.0159
  20
103.8785
  11
60.0131
  21
103.8785
  12
57.0159
  22
98.3667
  13
60.0131
  23
98.3667
  0
SOLID
  8
Top
  10
34.4565
  20
103.9626
  11
36.6565
  21
103.9626
  12
34.4565
  22
103.3626
  13
36.6565
  23
103.3626
  0
SOLID
  8
Top
  10
34.4565
  20
102.6926
  11
36.6565
  21
102.6926
  12
34.4565
  22
102.0926
  13
36.6565
  23
102.0926
  0
SOLID
  8
Top
  10
34.4565
  20
101.4226
  11
36.6565
  21
101.4226
  12
34.4565
  22
100.8226
  13
36.6565
  23
100.8226
  0
SOLID
  8
Top
  10
34.4565
  20
100.1526
  11
36.6565
  21
100.1526
  12
34.4565
  22
99.5526
  13
36.6565
  23
99.5526
  0
SOLID
  8
Top
  10
34.4565
  20
98.8826
  11
36.6565
  21
98.8826
  12
34.4565
  22
98.2826
  13
36.6565
  23
98.2826
  0
SOLID
  8
Top
  10
34.4565
  20
97.6126
  11
36.6565
  21
97.6126
  12
34.4565
  22
97.0126
  13
36.6565
  23
97.0126
  0
SOLID
  8
Top
  10
34.4565
  20
96.3426
  11
36.6565
  21
96.3426
  12
34.4565
  22
95.7426
  13
36.6565
  23
95.7426
  0
SOLID
  8
Top
  10
43.6565
  20
96.3426
  11
45.8565
  21
96.3426
  12
43.6565
  22
95.7426
  13
45.8565
  23
95.7426
  0
SOLID
  8
Top
  10
43.6565
  20
97.6126
  11
45.8565
  21
97.6126
  12
43.6565
  22
97.0126
  13
45.8565
  23
97.0126
  0
SOLID
  8
Top
  10
43.6565
  20
98.8826
  11
45.8565
  21
98.8826
  12
43.6565
  22
98.2826
  13
45.8565
  23
98.2826
  0
SOLID
  8
Top
  10
43.6565
  20
100.1526
  11
45.8565
  21
100.1526
  12
43.6565
  22
99.5526
  13
45.8565
  23
99.5526
  0
SOLID
  8
Top
  10
43.6565
  20
101.4226
  11
45.8565
  21
101.4226
  12
43.6565
  22
100.8226
  13
45.8565
  23
100.8226
  0
SOLID
  8
Top
  10
43.6565
  20
102.6926
  11
45.8565
  21
102.6926
  12
43.6565
  22
102.0926
  13
45.8565
  23
102.0926
  0
SOLID
  8
Top
  10
43.6565
  20
103.9626
  11
45.8565
  21
103.9626
  12
43.6565
  22
103.3626
  13
45.8565
  23
103.3626
  0
SOLID
  8
Top
  10
44.7945
  20
92.2376
  11
46.6445
  21
92.2376
  12
44.7945
  22
89.6876
  13
46.6445
  23
89.6876
  0
SOLID
  8
Top
  10
44.7945
  20
88.0876
  11
46.6445
  21
88.0876
  12
44.7945
  22
85.5376
  13
46.6445
  23
85.5376
  0
SOLID
  8
Top
  10
63.1245
  20
89.4026
  11
63.8745
  21
89.4026
  12
63.1245
  22
84.9026
  13
63.8745
  23
84.9026
  0
SOLID
  8
Top
  10
63.1245
  20
95.4026
  11
63.8745
  21
95.4026
  12
63.1245
  22
90.9026
  13
63.8745
  23
90.9026
  0
SOLID
  8
Top
  10
49.9105
  20
92.4626
  11
50.4185
  21
92.4626
  12
49.9105
  22
89.4626
  13
50.4185
  23
89.4626
  0
SOLID
  8
Top
  10
49.9105
  20
87.4626
  11
50.4185
  21
87.4626
  12
49.9105
  22
84.4626
  13
50.4185
  23
84.4626
  0
SOLID
  8
Top
  10
35.3055
  20
92.4626
  11
35.8135
  21
92.4626
  12
35.3055
  22
89.4626
  13
35.8135
  23
89.4626
  0
SOLID
  8
Top
  10
35.3055
  20
87.4626
  11
35.8135
  21
87.4626
  12
35.3055
  22
84.4626
  13
35.8135
  23
84.4626
  0
SOLID
  8
Top
  10
30.2255
  20
92.4626
  11
30.7335
  21
92.4626
  12
30.2255
  22
89.4626
  13
30.7335
  23
89.4626
  0
SOLID
  8
Top
  10
30.2255
  20
87.4626
  11
30.7335
  21
87.4626
  12
30.2255
  22
84.4626
  13
30.7335
  23
84.4626
  0
SOLID
  8
Top
  10
54.9905
  20
92.4626
  11
55.4985
  21
92.4626
  12
54.9905
  22
89.4626
  13
55.4985
  23
89.4626
  0
SOLID
  8
Top
  10
54.9905
  20
87.4626
  11
55.4985
  21
87.4626
  12
54.9905
  22
84.4626
  13
55.4985
  23
84.4626
  0
SOLID
  8
Top
  10
21.9415
  20
28.4948
  11
23.4655
  21
28.4948
  12
21.9415
  22
27.0724
  13
23.4655
  23
27.0724
  0
SOLID
  8
Top
  10
24.2275
  20
28.4948
  11
25.7515
  21
28.4948
  12
24.2275
  22
27.0724
  13
25.7515
  23
27.0724
  0
SOLID
  8
Top
  10
31.1495
  20
28.4948
  11
32.6735
  21
28.4948
  12
31.1495
  22
27.0724
  13
32.6735
  23
27.0724
  0
SOLID
  8
Top
  10
28.8635
  20
28.4948
  11
30.3875
  21
28.4948
  12
28.8635
  22
27.0724
  13
30.3875
  23
27.0724
  0
SOLID
  8
Top
  10
11.8866
  20
28.375
  11
13.1866
  21
28.375
  12
11.8866
  22
26.875
  13
13.1866
  23
26.875
  0
SOLID
  8
Top
  10
9.9866
  20
28.375
  11
11.2866
  21
28.375
  12
9.9866
  22
26.875
  13
11.2866
  23
26.875
  0
SOLID
  8
Top
  10
11.8865
  20
25.8346
  11
13.1865
  21
25.8346
  12
11.8865
  22
24.3346
  13
13.1865
  23
24.3346
  0
SOLID
  8
Top
  10
9.9865
  20
25.8346
  11
11.2865
  21
25.8346
  12
9.9865
  22
24.3346
  13
11.2865
  23
24.3346
  0
SOLID
  8
Top
  10
6.5729
  20
24.8306
  11
8.3509
  21
24.8306
  12
6.5729
  22
24.0686
  13
8.3509
  23
24.0686
  0
POLYLINE
  8
Top
  6
CONTINUOUS
  66
1
  70
0
  40
0.381
  41
0.381
  0
VERTEX
  8
Top
  10
3.538
  20
24.4496
  42
1
  0
VERTEX
  8
Top
  10
3.157
  20
24.4496
  42
1
  0
VERTEX
  8
Top
  10
3.538
  20
24.4496
  42
1
  0
SEQEND
  0
POLYLINE
  8
Top
  6
CONTINUOUS
  66
1
  70
0
  40
0.381
  41
0.381
  0
VERTEX
  8
Top
  10
4.554
  20
24.4496
  42
1
  0
VERTEX
  8
Top
  10
4.173
  20
24.4496
  42
1
  0
VERTEX
  8
Top
  10
4.554
  20
24.4496
  42
1
  0
SEQEND
  0
SOLID
  8
Top
  10
3.3475
  20
24.8306
  11
4.3635
  21
24.8306
  12
3.3475
  22
24.0686
  13
4.3635
  23
24.0686
  0
SOLID
  8
Top
  10
6.5726
  20
28.006
  11
8.3506
  21
28.006
  12
6.5726
  22
27.244
  13
8.3506
  23
27.244
  0
POLYLINE
  8
Top
  6
CONTINUOUS
  66
1
  70
0
  40
0.381
  41
0.381
  0
VERTEX
  8
Top
  10
3.5377
  20
27.625
  42
1
  0
VERTEX
  8
Top
  10
3.1567
  20
27.625
  42
1
  0
VERTEX
  8
Top
  10
3.5377
  20
27.625
  42
1
  0
SEQEND
  0
POLYLINE
  8
Top
  6
CONTINUOUS
  66
1
  70
0
  40
0.381
  41
0.381
  0
VERTEX
  8
Top
  10
4.5537
  20
27.625
  42
1
  0
VERTEX
  8
Top
  10
4.1727
  20
27.625
  42
1
  0
VERTEX
  8
Top
  10
4.5537
  20
27.625
  42
1
  0
SEQEND
  0
SOLID
  8
Top
  10
3.3472
  20
28.006
  11
4.3632
  21
28.006
  12
3.3472
  22
27.244
  13
4.3632
  23
27.244
  0
SOLID
  8
Top
  10
24.4745
  20
100.4926
  11
26.3245
  21
100.4926
  12
24.4745
  22
97.9426
  13
26.3245
  23
97.9426
  0
SOLID
  8
Top
  10
24.4745
  20
96.3426
  11
26.3245
  21
96.3426
  12
24.4745
  22
93.7926
  13
26.3245
  23
93.7926
  0
SOLID
  8
Top
  10
26.6545
  20
105.6826
  11
27.9545
  21
105.6826
  12
26.6545
  22
104.1826
  13
27.9545
  23
104.1826
  0
SOLID
  8
Top
  10
24.7545
  20
105.6826
  11
26.0545
  21
105.6826
  12
24.7545
  22
104.1826
  13
26.0545
  23
104.1826
  0
SOLID
  8
Top
  10
30.7335
  20
98.2016
  11
31.4955
  21
98.2016
  12
30.7335
  22
96.4236
  13
31.4955
  23
96.4236
  0
POLYLINE
  8
Top
  6
CONTINUOUS
  66
1
  70
0
  40
0.381
  41
0.381
  0
VERTEX
  8
Top
  10
31.305
  20
101.4269
  42
1
  0
VERTEX
  8
Top
  10
30.924
  20
101.4269
  42
1
  0
VERTEX
  8
Top
  10
31.305
  20
101.4269
  42
1
  0
SEQEND
  0
POLYLINE
  8
Top
  6
CONTINUOUS
  66
1
  70
0
  40
0.381
  41
0.381
  0
VERTEX
  8
Top
  10
31.305
  20
100.4109
  42
1
  0
VERTEX
  8
Top
  10
30.924
  20
100.4109
  42
1
  0
VERTEX
  8
Top
  10
31.305
  20
100.4109
  42
1
  0
SEQEND
  0
SOLID
  8
Top
  10
30.7335
  20
101.4269
  11
31.4955
  21
101.4269
  12
30.7335
  22
100.4109
  13
31.4955
  23
100.4109
  0
SOLID
  8
Top
  10
60.3159
  20
69.9722
  11
61.6159
  21
69.9722
  12
60.3159
  22
68.4722
  13
61.6159
  23
68.4722
  0
SOLID
  8
Top
  10
62.2159
  20
69.9722
  11
63.5159
  21
69.9722
  12
62.2159
  22
68.4722
  13
63.5159
  23
68.4722
  0
SOLID
  8
Top
  10
56.0292
  20
69.9722
  11
57.3292
  21
69.9722
  12
56.0292
  22
68.4722
  13
57.3292
  23
68.4722
  0
SOLID
  8
Top
  10
57.9292
  20
69.9722
  11
59.2292
  21
69.9722
  12
57.9292
  22
68.4722
  13
59.2292
  23
68.4722
  0
POLYLINE
  8
Top
  6
CONTINUOUS
  66
1
  70
0
  40
0.8255
  41
0.8255
  0
VERTEX
  8
Top
  10
72.9974
  20
61.616
  42
1
  0
VERTEX
  8
Top
  10
72.172
  20
61.616
  42
1
  0
VERTEX
  8
Top
  10
72.9974
  20
61.616
  42
1
  0
SEQEND
  0
POLYLINE
  8
Top
  6
CONTINUOUS
  66
1
  70
0
  40
0.8255
  41
0.8255
  0
VERTEX
  8
Top
  10
72.9974
  20
57.616
  42
1
  0
VERTEX
  8
Top
  10
72.172
  20
57.616
  42
1
  0
VERTEX
  8
Top
  10
72.9974
  20
57.616
  42
1
  0
SEQEND
  0
POLYLINE
  8
Top
  6
CONTINUOUS
  66
1
  70
0
  40
0.8255
  41
0.8255
  0
VERTEX
  8
Top
  10
72.9974
  20
55.616
  42
1
  0
VERTEX
  8
Top
  10
72.172
  20
55.616
  42
1
  0
VERTEX
  8
Top
  10
72.9974
  20
55.616
  42
1
  0
SEQEND
  0
POLYLINE
  8
Top
  6
CONTINUOUS
  66
1
  70
0
  40
0.8255
  41
0.8255
  0
VERTEX
  8
Top
  10
72.9974
  20
53.616
  42
1
  0
VERTEX
  8
Top
  10
72.172
  20
53.616
  42
1
  0
VERTEX
  8
Top
  10
72.9974
  20
53.616
  42
1
  0
SEQEND
  0
POLYLINE
  8
Top
  6
CONTINUOUS
  66
1
  70
0
  40
0.8255
  41
0.8255
  0
VERTEX
  8
Top
  10
72.9974
  20
51.616
  42
1
  0
VERTEX
  8
Top
  10
72.172
  20
51.616
  42
1
  0
VERTEX
  8
Top
  10
72.9974
  20
51.616
  42
1
  0
SEQEND
  0
POLYLINE
  8
Top
  6
CONTINUOUS
  66
1
  70
0
  40
0.8255
  41
0.8255
  0
VERTEX
  8
Top
  10
57.9975
  20
57.616
  42
1
  0
VERTEX
  8
Top
  10
57.1719
  20
57.616
  42
1
  0
VERTEX
  8
Top
  10
57.9975
  20
57.616
  42
1
  0
SEQEND
  0
POLYLINE
  8
Top
  6
CONTINUOUS
  66
1
  70
0
  40
0.8255
  41
0.8255
  0
VERTEX
  8
Top
  10
57.9975
  20
55.616
  42
1
  0
VERTEX
  8
Top
  10
57.1719
  20
55.616
  42
1
  0
VERTEX
  8
Top
  10
57.9975
  20
55.616
  42
1
  0
SEQEND
  0
POLYLINE
  8
Top
  6
CONTINUOUS
  66
1
  70
0
  40
0.8255
  41
0.8255
  0
VERTEX
  8
Top
  10
57.9975
  20
53.616
  42
1
  0
VERTEX
  8
Top
  10
57.1719
  20
53.616
  42
1
  0
VERTEX
  8
Top
  10
57.9975
  20
53.616
  42
1
  0
SEQEND
  0
POLYLINE
  8
Top
  6
CONTINUOUS
  66
1
  70
0
  40
0.8255
  41
0.8255
  0
VERTEX
  8
Top
  10
57.9975
  20
51.616
  42
1
  0
VERTEX
  8
Top
  10
57.1719
  20
51.616
  42
1
  0
VERTEX
  8
Top
  10
57.9975
  20
51.616
  42
1
  0
SEQEND
  0
POLYLINE
  8
Top
  6
CONTINUOUS
  66
1
  70
0
  40
0.8255
  41
0.8255
  0
VERTEX
  8
Top
  10
57.9975
  20
49.616
  42
1
  0
VERTEX
  8
Top
  10
57.1719
  20
49.616
  42
1
  0
VERTEX
  8
Top
  10
57.9975
  20
49.616
  42
1
  0
SEQEND
  0
POLYLINE
  8
Top
  6
CONTINUOUS
  66
1
  70
0
  40
0.8255
  41
0.8255
  0
VERTEX
  8
Top
  10
72.9974
  20
49.616
  42
1
  0
VERTEX
  8
Top
  10
72.172
  20
49.616
  42
1
  0
VERTEX
  8
Top
  10
72.9974
  20
49.616
  42
1
  0
SEQEND
  0
SOLID
  8
Top
  10
62.903
  20
55.6443
  11
64.427
  21
55.6443
  12
62.903
  22
54.222
  13
64.427
  23
54.222
  0
SOLID
  8
Top
  10
65.189
  20
55.6443
  11
66.713
  21
55.6443
  12
65.189
  22
54.222
  13
66.713
  23
54.222
  0
SOLID
  8
Top
  10
43.0698
  20
23.1353
  11
44.5684
  21
23.1353
  12
43.0698
  22
21.6367
  13
44.5684
  23
21.6367
  0
POLYLINE
  8
Top
  6
CONTINUOUS
  66
1
  70
0
  40
0.7493
  41
0.7493
  0
VERTEX
  8
Top
  10
44.1938
  20
24.926
  42
1
  0
VERTEX
  8
Top
  10
43.4445
  20
24.926
  42
1
  0
VERTEX
  8
Top
  10
44.1938
  20
24.926
  42
1
  0
SEQEND
  0
POLYLINE
  8
Top
  6
CONTINUOUS
  66
1
  70
0
  40
0.7493
  41
0.7493
  0
VERTEX
  8
Top
  10
46.7338
  20
22.386
  42
1
  0
VERTEX
  8
Top
  10
45.9845
  20
22.386
  42
1
  0
VERTEX
  8
Top
  10
46.7338
  20
22.386
  42
1
  0
SEQEND
  0
POLYLINE
  8
Top
  6
CONTINUOUS
  66
1
  70
0
  40
0.7493
  41
0.7493
  0
VERTEX
  8
Top
  10
46.7338
  20
24.926
  42
1
  0
VERTEX
  8
Top
  10
45.9845
  20
24.926
  42
1
  0
VERTEX
  8
Top
  10
46.7338
  20
24.926
  42
1
  0
SEQEND
  0
POLYLINE
  8
Top
  6
CONTINUOUS
  66
1
  70
0
  40
0.7493
  41
0.7493
  0
VERTEX
  8
Top
  10
49.2738
  20
22.386
  42
1
  0
VERTEX
  8
Top
  10
48.5245
  20
22.386
  42
1
  0
VERTEX
  8
Top
  10
49.2738
  20
22.386
  42
1
  0
SEQEND
  0
POLYLINE
  8
Top
  6
CONTINUOUS
  66
1
  70
0
  40
0.7493
  41
0.7493
  0
VERTEX
  8
Top
  10
49.2738
  20
24.926
  42
1
  0
VERTEX
  8
Top
  10
48.5245
  20
24.926
  42
1
  0
VERTEX
  8
Top
  10
49.2738
  20
24.926
  42
1
  0
SEQEND
  0
POLYLINE
  8
Board_Outline
  6
CONTINUOUS
  66
1
  70
0
  40
0.14
  41
0.14
  0
VERTEX
  8
Board_Outline
  10
-0.0005
  20
0.0
  42
0
  0
VERTEX
  8
Board_Outline
  10
79.9995
  20
0.0
  42
0
  0
VERTEX
  8
Board_Outline
  10
79.9995
  20
110.0
  42
0
  0
VERTEX
  8
Board_Outline
  10
-0.0005
  20
110.0
  42
0
  0
VERTEX
  8
Board_Outline
  10
-0.0005
  20
0.0
  42
0
  0
SEQEND
  0
ENDSEC
  0
EOF
